<svg width="1209" height="627" viewBox="0 0 1209 627" fill="none" xmlns="http://www.w3.org/2000/svg">
<g filter="url(#filter0_dd_9311_19012)">
<rect x="29" y="18" width="220" height="220" rx="12" fill="white"/>
</g>
<path opacity="0.9" d="M117.264 275.208C115.6 275.208 114.176 274.536 113.152 273.464L114.048 272.456C114.88 273.336 116.064 273.912 117.28 273.912C118.816 273.912 119.744 273.144 119.744 271.992C119.744 270.792 118.896 270.408 117.792 269.912L116.096 269.176C115.008 268.712 113.712 267.88 113.712 266.168C113.712 264.36 115.28 263.048 117.408 263.048C118.8 263.048 120.032 263.64 120.864 264.504L120.08 265.448C119.36 264.776 118.496 264.344 117.408 264.344C116.08 264.344 115.216 265.016 115.216 266.072C115.216 267.208 116.24 267.64 117.152 268.024L118.832 268.744C120.192 269.336 121.248 270.136 121.248 271.88C121.248 273.736 119.712 275.208 117.264 275.208ZM126.358 275.208C124.502 275.208 123.878 274.04 123.878 272.312V267.496H122.582V266.392L123.942 266.312L124.118 263.864H125.334V266.312H127.686V267.496H125.334V272.344C125.334 273.416 125.67 274.024 126.678 274.024C126.982 274.024 127.382 273.912 127.67 273.8L127.958 274.888C127.462 275.048 126.886 275.208 126.358 275.208ZM130.437 278.744C130.021 278.744 129.685 278.68 129.413 278.568L129.701 277.4C129.877 277.464 130.133 277.544 130.357 277.544C131.349 277.544 131.973 276.744 132.325 275.672L132.517 275.016L129.029 266.312H130.549L132.325 271.144C132.581 271.896 132.885 272.792 133.157 273.576H133.237C133.477 272.792 133.733 271.912 133.973 271.144L135.525 266.312H136.949L133.669 275.72C133.077 277.432 132.165 278.744 130.437 278.744ZM140.813 275.208C139.725 275.208 139.277 274.504 139.277 273.272V262.264H140.733V273.368C140.733 273.816 140.925 273.992 141.149 273.992C141.229 273.992 141.293 273.992 141.453 273.96L141.661 275.08C141.453 275.16 141.213 275.208 140.813 275.208ZM147.983 275.208C145.679 275.208 143.823 273.528 143.823 270.664C143.823 267.848 145.727 266.088 147.743 266.088C149.951 266.088 151.199 267.688 151.199 270.168C151.199 270.488 151.167 270.792 151.135 271H145.279C145.375 272.856 146.511 274.04 148.159 274.04C149.007 274.04 149.695 273.784 150.335 273.352L150.863 274.312C150.095 274.808 149.167 275.208 147.983 275.208ZM145.263 269.944H149.919C149.919 268.2 149.119 267.256 147.759 267.256C146.527 267.256 145.439 268.248 145.263 269.944ZM158.133 275V273.784H160.741V265.368H158.661V264.424C159.701 264.248 160.453 263.976 161.093 263.592H162.213V273.784H164.565V275H158.133Z" fill="#1A1A1A"/>
<g filter="url(#filter1_dd_9311_19012)">
<rect x="329" y="18" width="220" height="220" rx="12" fill="white"/>
</g>
<path opacity="0.9" d="M417.264 275.208C415.6 275.208 414.176 274.536 413.152 273.464L414.048 272.456C414.88 273.336 416.064 273.912 417.28 273.912C418.816 273.912 419.744 273.144 419.744 271.992C419.744 270.792 418.896 270.408 417.792 269.912L416.096 269.176C415.008 268.712 413.712 267.88 413.712 266.168C413.712 264.36 415.28 263.048 417.408 263.048C418.8 263.048 420.032 263.64 420.864 264.504L420.08 265.448C419.36 264.776 418.496 264.344 417.408 264.344C416.08 264.344 415.216 265.016 415.216 266.072C415.216 267.208 416.24 267.64 417.152 268.024L418.832 268.744C420.192 269.336 421.248 270.136 421.248 271.88C421.248 273.736 419.712 275.208 417.264 275.208ZM426.358 275.208C424.502 275.208 423.878 274.04 423.878 272.312V267.496H422.582V266.392L423.942 266.312L424.118 263.864H425.334V266.312H427.686V267.496H425.334V272.344C425.334 273.416 425.67 274.024 426.678 274.024C426.982 274.024 427.382 273.912 427.67 273.8L427.958 274.888C427.462 275.048 426.886 275.208 426.358 275.208ZM430.437 278.744C430.021 278.744 429.685 278.68 429.413 278.568L429.701 277.4C429.877 277.464 430.133 277.544 430.357 277.544C431.349 277.544 431.973 276.744 432.325 275.672L432.517 275.016L429.029 266.312H430.549L432.325 271.144C432.581 271.896 432.885 272.792 433.157 273.576H433.237C433.477 272.792 433.733 271.912 433.973 271.144L435.525 266.312H436.949L433.669 275.72C433.077 277.432 432.165 278.744 430.437 278.744ZM440.813 275.208C439.725 275.208 439.277 274.504 439.277 273.272V262.264H440.733V273.368C440.733 273.816 440.925 273.992 441.149 273.992C441.229 273.992 441.293 273.992 441.453 273.96L441.661 275.08C441.453 275.16 441.213 275.208 440.813 275.208ZM447.983 275.208C445.679 275.208 443.823 273.528 443.823 270.664C443.823 267.848 445.727 266.088 447.743 266.088C449.951 266.088 451.199 267.688 451.199 270.168C451.199 270.488 451.167 270.792 451.135 271H445.279C445.375 272.856 446.511 274.04 448.159 274.04C449.007 274.04 449.695 273.784 450.335 273.352L450.863 274.312C450.095 274.808 449.167 275.208 447.983 275.208ZM445.263 269.944H449.919C449.919 268.2 449.119 267.256 447.759 267.256C446.527 267.256 445.439 268.248 445.263 269.944ZM457.429 275V274.136C460.869 270.712 462.805 268.664 462.805 266.792C462.805 265.496 462.101 264.568 460.645 264.568C459.685 264.568 458.853 265.176 458.213 265.928L457.365 265.112C458.325 264.072 459.333 263.384 460.821 263.384C462.917 263.384 464.229 264.712 464.229 266.728C464.229 268.872 462.277 271 459.573 273.848C460.181 273.8 460.885 273.736 461.493 273.736H464.805V275H457.429Z" fill="#1A1A1A"/>
<g filter="url(#filter2_dd_9311_19012)">
<rect x="629" y="18" width="220" height="220" rx="12" fill="white"/>
</g>
<path opacity="0.9" d="M717.264 275.208C715.6 275.208 714.176 274.536 713.152 273.464L714.048 272.456C714.88 273.336 716.064 273.912 717.28 273.912C718.816 273.912 719.744 273.144 719.744 271.992C719.744 270.792 718.896 270.408 717.792 269.912L716.096 269.176C715.008 268.712 713.712 267.88 713.712 266.168C713.712 264.36 715.28 263.048 717.408 263.048C718.8 263.048 720.032 263.64 720.864 264.504L720.08 265.448C719.36 264.776 718.496 264.344 717.408 264.344C716.08 264.344 715.216 265.016 715.216 266.072C715.216 267.208 716.24 267.64 717.152 268.024L718.832 268.744C720.192 269.336 721.248 270.136 721.248 271.88C721.248 273.736 719.712 275.208 717.264 275.208ZM726.358 275.208C724.502 275.208 723.878 274.04 723.878 272.312V267.496H722.582V266.392L723.942 266.312L724.118 263.864H725.334V266.312H727.686V267.496H725.334V272.344C725.334 273.416 725.67 274.024 726.678 274.024C726.982 274.024 727.382 273.912 727.67 273.8L727.958 274.888C727.462 275.048 726.886 275.208 726.358 275.208ZM730.437 278.744C730.021 278.744 729.685 278.68 729.413 278.568L729.701 277.4C729.877 277.464 730.133 277.544 730.357 277.544C731.349 277.544 731.973 276.744 732.325 275.672L732.517 275.016L729.029 266.312H730.549L732.325 271.144C732.581 271.896 732.885 272.792 733.157 273.576H733.237C733.477 272.792 733.733 271.912 733.973 271.144L735.525 266.312H736.949L733.669 275.72C733.077 277.432 732.165 278.744 730.437 278.744ZM740.813 275.208C739.725 275.208 739.277 274.504 739.277 273.272V262.264H740.733V273.368C740.733 273.816 740.925 273.992 741.149 273.992C741.229 273.992 741.293 273.992 741.453 273.96L741.661 275.08C741.453 275.16 741.213 275.208 740.813 275.208ZM747.983 275.208C745.679 275.208 743.823 273.528 743.823 270.664C743.823 267.848 745.727 266.088 747.743 266.088C749.951 266.088 751.199 267.688 751.199 270.168C751.199 270.488 751.167 270.792 751.135 271H745.279C745.375 272.856 746.511 274.04 748.159 274.04C749.007 274.04 749.695 273.784 750.335 273.352L750.863 274.312C750.095 274.808 749.167 275.208 747.983 275.208ZM745.263 269.944H749.919C749.919 268.2 749.119 267.256 747.759 267.256C746.527 267.256 745.439 268.248 745.263 269.944ZM760.949 275.208C759.109 275.208 757.957 274.44 757.189 273.608L757.925 272.648C758.613 273.368 759.509 273.992 760.837 273.992C762.229 273.992 763.221 273.176 763.221 271.896C763.221 270.536 762.277 269.64 759.573 269.64V268.52C761.989 268.52 762.821 267.576 762.821 266.376C762.821 265.272 762.053 264.568 760.837 264.568C759.893 264.568 759.061 265.048 758.405 265.72L757.621 264.808C758.501 263.976 759.541 263.384 760.901 263.384C762.869 263.384 764.309 264.424 764.309 266.28C764.309 267.656 763.461 268.536 762.229 268.984V269.048C763.605 269.384 764.709 270.392 764.709 271.96C764.709 273.992 763.029 275.208 760.949 275.208Z" fill="#1A1A1A"/>
<g filter="url(#filter3_dd_9311_19012)">
<rect x="929" y="18" width="220" height="220" rx="12" fill="white"/>
</g>
<path opacity="0.9" d="M1017.26 275.208C1015.6 275.208 1014.18 274.536 1013.15 273.464L1014.05 272.456C1014.88 273.336 1016.06 273.912 1017.28 273.912C1018.82 273.912 1019.74 273.144 1019.74 271.992C1019.74 270.792 1018.9 270.408 1017.79 269.912L1016.1 269.176C1015.01 268.712 1013.71 267.88 1013.71 266.168C1013.71 264.36 1015.28 263.048 1017.41 263.048C1018.8 263.048 1020.03 263.64 1020.86 264.504L1020.08 265.448C1019.36 264.776 1018.5 264.344 1017.41 264.344C1016.08 264.344 1015.22 265.016 1015.22 266.072C1015.22 267.208 1016.24 267.64 1017.15 268.024L1018.83 268.744C1020.19 269.336 1021.25 270.136 1021.25 271.88C1021.25 273.736 1019.71 275.208 1017.26 275.208ZM1026.36 275.208C1024.5 275.208 1023.88 274.04 1023.88 272.312V267.496H1022.58V266.392L1023.94 266.312L1024.12 263.864H1025.33V266.312H1027.69V267.496H1025.33V272.344C1025.33 273.416 1025.67 274.024 1026.68 274.024C1026.98 274.024 1027.38 273.912 1027.67 273.8L1027.96 274.888C1027.46 275.048 1026.89 275.208 1026.36 275.208ZM1030.44 278.744C1030.02 278.744 1029.68 278.68 1029.41 278.568L1029.7 277.4C1029.88 277.464 1030.13 277.544 1030.36 277.544C1031.35 277.544 1031.97 276.744 1032.32 275.672L1032.52 275.016L1029.03 266.312H1030.55L1032.32 271.144C1032.58 271.896 1032.88 272.792 1033.16 273.576H1033.24C1033.48 272.792 1033.73 271.912 1033.97 271.144L1035.52 266.312H1036.95L1033.67 275.72C1033.08 277.432 1032.16 278.744 1030.44 278.744ZM1040.81 275.208C1039.72 275.208 1039.28 274.504 1039.28 273.272V262.264H1040.73V273.368C1040.73 273.816 1040.92 273.992 1041.15 273.992C1041.23 273.992 1041.29 273.992 1041.45 273.96L1041.66 275.08C1041.45 275.16 1041.21 275.208 1040.81 275.208ZM1047.98 275.208C1045.68 275.208 1043.82 273.528 1043.82 270.664C1043.82 267.848 1045.73 266.088 1047.74 266.088C1049.95 266.088 1051.2 267.688 1051.2 270.168C1051.2 270.488 1051.17 270.792 1051.14 271H1045.28C1045.38 272.856 1046.51 274.04 1048.16 274.04C1049.01 274.04 1049.7 273.784 1050.34 273.352L1050.86 274.312C1050.1 274.808 1049.17 275.208 1047.98 275.208ZM1045.26 269.944H1049.92C1049.92 268.2 1049.12 267.256 1047.76 267.256C1046.53 267.256 1045.44 268.248 1045.26 269.944ZM1058.56 270.68H1062.16V267.336C1062.16 266.744 1062.21 265.768 1062.24 265.16H1062.18C1061.89 265.704 1061.57 266.2 1061.24 266.76L1058.56 270.68ZM1062.16 275V271.848H1057.04V270.888L1061.92 263.592H1063.54V270.68H1065.09V271.848H1063.54V275H1062.16Z" fill="#1A1A1A"/>
<g filter="url(#filter4_dd_9311_19012)">
<rect x="29" y="346" width="220" height="220" rx="12" fill="white"/>
</g>
<path opacity="0.9" d="M117.264 603.208C115.6 603.208 114.176 602.536 113.152 601.464L114.048 600.456C114.88 601.336 116.064 601.912 117.28 601.912C118.816 601.912 119.744 601.144 119.744 599.992C119.744 598.792 118.896 598.408 117.792 597.912L116.096 597.176C115.008 596.712 113.712 595.88 113.712 594.168C113.712 592.36 115.28 591.048 117.408 591.048C118.8 591.048 120.032 591.64 120.864 592.504L120.08 593.448C119.36 592.776 118.496 592.344 117.408 592.344C116.08 592.344 115.216 593.016 115.216 594.072C115.216 595.208 116.24 595.64 117.152 596.024L118.832 596.744C120.192 597.336 121.248 598.136 121.248 599.88C121.248 601.736 119.712 603.208 117.264 603.208ZM126.358 603.208C124.502 603.208 123.878 602.04 123.878 600.312V595.496H122.582V594.392L123.942 594.312L124.118 591.864H125.334V594.312H127.686V595.496H125.334V600.344C125.334 601.416 125.67 602.024 126.678 602.024C126.982 602.024 127.382 601.912 127.67 601.8L127.958 602.888C127.462 603.048 126.886 603.208 126.358 603.208ZM130.437 606.744C130.021 606.744 129.685 606.68 129.413 606.568L129.701 605.4C129.877 605.464 130.133 605.544 130.357 605.544C131.349 605.544 131.973 604.744 132.325 603.672L132.517 603.016L129.029 594.312H130.549L132.325 599.144C132.581 599.896 132.885 600.792 133.157 601.576H133.237C133.477 600.792 133.733 599.912 133.973 599.144L135.525 594.312H136.949L133.669 603.72C133.077 605.432 132.165 606.744 130.437 606.744ZM140.813 603.208C139.725 603.208 139.277 602.504 139.277 601.272V590.264H140.733V601.368C140.733 601.816 140.925 601.992 141.149 601.992C141.229 601.992 141.293 601.992 141.453 601.96L141.661 603.08C141.453 603.16 141.213 603.208 140.813 603.208ZM147.983 603.208C145.679 603.208 143.823 601.528 143.823 598.664C143.823 595.848 145.727 594.088 147.743 594.088C149.951 594.088 151.199 595.688 151.199 598.168C151.199 598.488 151.167 598.792 151.135 599H145.279C145.375 600.856 146.511 602.04 148.159 602.04C149.007 602.04 149.695 601.784 150.335 601.352L150.863 602.312C150.095 602.808 149.167 603.208 147.983 603.208ZM145.263 597.944H149.919C149.919 596.2 149.119 595.256 147.759 595.256C146.527 595.256 145.439 596.248 145.263 597.944ZM160.901 603.208C159.077 603.208 157.957 602.44 157.173 601.656L157.893 600.696C158.565 601.368 159.413 601.992 160.773 601.992C162.149 601.992 163.269 600.984 163.269 599.4C163.269 597.816 162.309 596.872 160.837 596.872C160.053 596.872 159.557 597.128 158.885 597.576L158.101 597.08L158.469 591.592H164.181V592.84H159.749L159.461 596.248C159.989 595.96 160.501 595.768 161.205 595.768C163.157 595.768 164.741 596.888 164.741 599.352C164.741 601.816 162.885 603.208 160.901 603.208Z" fill="#1A1A1A"/>
<g filter="url(#filter5_dd_9311_19012)">
<rect x="329" y="346" width="220" height="220" rx="12" fill="white"/>
</g>
<path opacity="0.9" d="M417.264 603.208C415.6 603.208 414.176 602.536 413.152 601.464L414.048 600.456C414.88 601.336 416.064 601.912 417.28 601.912C418.816 601.912 419.744 601.144 419.744 599.992C419.744 598.792 418.896 598.408 417.792 597.912L416.096 597.176C415.008 596.712 413.712 595.88 413.712 594.168C413.712 592.36 415.28 591.048 417.408 591.048C418.8 591.048 420.032 591.64 420.864 592.504L420.08 593.448C419.36 592.776 418.496 592.344 417.408 592.344C416.08 592.344 415.216 593.016 415.216 594.072C415.216 595.208 416.24 595.64 417.152 596.024L418.832 596.744C420.192 597.336 421.248 598.136 421.248 599.88C421.248 601.736 419.712 603.208 417.264 603.208ZM426.358 603.208C424.502 603.208 423.878 602.04 423.878 600.312V595.496H422.582V594.392L423.942 594.312L424.118 591.864H425.334V594.312H427.686V595.496H425.334V600.344C425.334 601.416 425.67 602.024 426.678 602.024C426.982 602.024 427.382 601.912 427.67 601.8L427.958 602.888C427.462 603.048 426.886 603.208 426.358 603.208ZM430.437 606.744C430.021 606.744 429.685 606.68 429.413 606.568L429.701 605.4C429.877 605.464 430.133 605.544 430.357 605.544C431.349 605.544 431.973 604.744 432.325 603.672L432.517 603.016L429.029 594.312H430.549L432.325 599.144C432.581 599.896 432.885 600.792 433.157 601.576H433.237C433.477 600.792 433.733 599.912 433.973 599.144L435.525 594.312H436.949L433.669 603.72C433.077 605.432 432.165 606.744 430.437 606.744ZM440.813 603.208C439.725 603.208 439.277 602.504 439.277 601.272V590.264H440.733V601.368C440.733 601.816 440.925 601.992 441.149 601.992C441.229 601.992 441.293 601.992 441.453 601.96L441.661 603.08C441.453 603.16 441.213 603.208 440.813 603.208ZM447.983 603.208C445.679 603.208 443.823 601.528 443.823 598.664C443.823 595.848 445.727 594.088 447.743 594.088C449.951 594.088 451.199 595.688 451.199 598.168C451.199 598.488 451.167 598.792 451.135 599H445.279C445.375 600.856 446.511 602.04 448.159 602.04C449.007 602.04 449.695 601.784 450.335 601.352L450.863 602.312C450.095 602.808 449.167 603.208 447.983 603.208ZM445.263 597.944H449.919C449.919 596.2 449.119 595.256 447.759 595.256C446.527 595.256 445.439 596.248 445.263 597.944ZM461.397 597.128C460.661 597.128 459.765 597.528 458.997 598.648C459.189 600.872 460.069 602.072 461.509 602.072C462.645 602.072 463.509 601.064 463.509 599.544C463.509 598.072 462.805 597.128 461.397 597.128ZM461.525 603.208C459.269 603.208 457.589 601.384 457.589 597.736C457.589 593.144 459.653 591.384 461.941 591.384C463.157 591.384 464.037 591.896 464.677 592.584L463.861 593.496C463.397 592.936 462.693 592.6 461.989 592.6C460.373 592.6 459.029 593.832 458.965 597.464C459.701 596.584 460.709 596.04 461.637 596.04C463.605 596.04 464.885 597.224 464.885 599.544C464.885 601.736 463.349 603.208 461.525 603.208Z" fill="#1A1A1A"/>
<g filter="url(#filter6_dd_9311_19012)">
<rect x="629" y="346" width="220" height="220" rx="12" fill="white"/>
</g>
<path opacity="0.9" d="M717.264 603.208C715.6 603.208 714.176 602.536 713.152 601.464L714.048 600.456C714.88 601.336 716.064 601.912 717.28 601.912C718.816 601.912 719.744 601.144 719.744 599.992C719.744 598.792 718.896 598.408 717.792 597.912L716.096 597.176C715.008 596.712 713.712 595.88 713.712 594.168C713.712 592.36 715.28 591.048 717.408 591.048C718.8 591.048 720.032 591.64 720.864 592.504L720.08 593.448C719.36 592.776 718.496 592.344 717.408 592.344C716.08 592.344 715.216 593.016 715.216 594.072C715.216 595.208 716.24 595.64 717.152 596.024L718.832 596.744C720.192 597.336 721.248 598.136 721.248 599.88C721.248 601.736 719.712 603.208 717.264 603.208ZM726.358 603.208C724.502 603.208 723.878 602.04 723.878 600.312V595.496H722.582V594.392L723.942 594.312L724.118 591.864H725.334V594.312H727.686V595.496H725.334V600.344C725.334 601.416 725.67 602.024 726.678 602.024C726.982 602.024 727.382 601.912 727.67 601.8L727.958 602.888C727.462 603.048 726.886 603.208 726.358 603.208ZM730.437 606.744C730.021 606.744 729.685 606.68 729.413 606.568L729.701 605.4C729.877 605.464 730.133 605.544 730.357 605.544C731.349 605.544 731.973 604.744 732.325 603.672L732.517 603.016L729.029 594.312H730.549L732.325 599.144C732.581 599.896 732.885 600.792 733.157 601.576H733.237C733.477 600.792 733.733 599.912 733.973 599.144L735.525 594.312H736.949L733.669 603.72C733.077 605.432 732.165 606.744 730.437 606.744ZM740.813 603.208C739.725 603.208 739.277 602.504 739.277 601.272V590.264H740.733V601.368C740.733 601.816 740.925 601.992 741.149 601.992C741.229 601.992 741.293 601.992 741.453 601.96L741.661 603.08C741.453 603.16 741.213 603.208 740.813 603.208ZM747.983 603.208C745.679 603.208 743.823 601.528 743.823 598.664C743.823 595.848 745.727 594.088 747.743 594.088C749.951 594.088 751.199 595.688 751.199 598.168C751.199 598.488 751.167 598.792 751.135 599H745.279C745.375 600.856 746.511 602.04 748.159 602.04C749.007 602.04 749.695 601.784 750.335 601.352L750.863 602.312C750.095 602.808 749.167 603.208 747.983 603.208ZM745.263 597.944H749.919C749.919 596.2 749.119 595.256 747.759 595.256C746.527 595.256 745.439 596.248 745.263 597.944ZM759.893 603C760.085 598.696 760.949 595.976 763.189 592.84H757.509V591.592H764.853V592.488C762.165 595.944 761.589 598.552 761.413 603H759.893Z" fill="#1A1A1A"/>
<g filter="url(#filter7_dd_9311_19012)">
<rect x="929" y="346" width="220" height="220" rx="12" fill="white"/>
</g>
<path opacity="0.9" d="M1017.26 603.208C1015.6 603.208 1014.18 602.536 1013.15 601.464L1014.05 600.456C1014.88 601.336 1016.06 601.912 1017.28 601.912C1018.82 601.912 1019.74 601.144 1019.74 599.992C1019.74 598.792 1018.9 598.408 1017.79 597.912L1016.1 597.176C1015.01 596.712 1013.71 595.88 1013.71 594.168C1013.71 592.36 1015.28 591.048 1017.41 591.048C1018.8 591.048 1020.03 591.64 1020.86 592.504L1020.08 593.448C1019.36 592.776 1018.5 592.344 1017.41 592.344C1016.08 592.344 1015.22 593.016 1015.22 594.072C1015.22 595.208 1016.24 595.64 1017.15 596.024L1018.83 596.744C1020.19 597.336 1021.25 598.136 1021.25 599.88C1021.25 601.736 1019.71 603.208 1017.26 603.208ZM1026.36 603.208C1024.5 603.208 1023.88 602.04 1023.88 600.312V595.496H1022.58V594.392L1023.94 594.312L1024.12 591.864H1025.33V594.312H1027.69V595.496H1025.33V600.344C1025.33 601.416 1025.67 602.024 1026.68 602.024C1026.98 602.024 1027.38 601.912 1027.67 601.8L1027.96 602.888C1027.46 603.048 1026.89 603.208 1026.36 603.208ZM1030.44 606.744C1030.02 606.744 1029.68 606.68 1029.41 606.568L1029.7 605.4C1029.88 605.464 1030.13 605.544 1030.36 605.544C1031.35 605.544 1031.97 604.744 1032.32 603.672L1032.52 603.016L1029.03 594.312H1030.55L1032.32 599.144C1032.58 599.896 1032.88 600.792 1033.16 601.576H1033.24C1033.48 600.792 1033.73 599.912 1033.97 599.144L1035.52 594.312H1036.95L1033.67 603.72C1033.08 605.432 1032.16 606.744 1030.44 606.744ZM1040.81 603.208C1039.72 603.208 1039.28 602.504 1039.28 601.272V590.264H1040.73V601.368C1040.73 601.816 1040.92 601.992 1041.15 601.992C1041.23 601.992 1041.29 601.992 1041.45 601.96L1041.66 603.08C1041.45 603.16 1041.21 603.208 1040.81 603.208ZM1047.98 603.208C1045.68 603.208 1043.82 601.528 1043.82 598.664C1043.82 595.848 1045.73 594.088 1047.74 594.088C1049.95 594.088 1051.2 595.688 1051.2 598.168C1051.2 598.488 1051.17 598.792 1051.14 599H1045.28C1045.38 600.856 1046.51 602.04 1048.16 602.04C1049.01 602.04 1049.7 601.784 1050.34 601.352L1050.86 602.312C1050.1 602.808 1049.17 603.208 1047.98 603.208ZM1045.26 597.944H1049.92C1049.92 596.2 1049.12 595.256 1047.76 595.256C1046.53 595.256 1045.44 596.248 1045.26 597.944ZM1061.19 603.208C1059.03 603.208 1057.44 601.896 1057.44 600.088C1057.44 598.6 1058.53 597.576 1059.6 597V596.936C1058.76 596.36 1058.02 595.512 1058.02 594.296C1058.02 592.552 1059.41 591.384 1061.24 591.384C1063.24 591.384 1064.45 592.632 1064.45 594.408C1064.45 595.608 1063.57 596.632 1062.88 597.16V597.24C1063.89 597.848 1064.87 598.648 1064.87 600.168C1064.87 601.88 1063.4 603.208 1061.19 603.208ZM1061.99 596.792C1062.77 596.088 1063.2 595.336 1063.2 594.488C1063.2 593.368 1062.48 592.472 1061.22 592.472C1060.13 592.472 1059.35 593.192 1059.35 594.296C1059.35 595.672 1060.61 596.248 1061.99 596.792ZM1061.22 602.12C1062.56 602.12 1063.48 601.304 1063.48 600.136C1063.48 598.648 1062.04 598.12 1060.37 597.464C1059.44 598.056 1058.77 598.904 1058.77 599.96C1058.77 601.208 1059.81 602.12 1061.22 602.12Z" fill="#1A1A1A"/>
<defs>
<filter id="filter0_dd_9311_19012" x="20" y="11" width="238" height="238" filterUnits="userSpaceOnUse" color-interpolation-filters="sRGB">
<feFlood flood-opacity="0" result="BackgroundImageFix"/>
<feColorMatrix in="SourceAlpha" type="matrix" values="0 0 0 0 0 0 0 0 0 0 0 0 0 0 0 0 0 0 127 0" result="hardAlpha"/>
<feMorphology radius="1" operator="dilate" in="SourceAlpha" result="effect1_dropShadow_9311_19012"/>
<feOffset dy="2"/>
<feGaussianBlur stdDeviation="4"/>
<feComposite in2="hardAlpha" operator="out"/>
<feColorMatrix type="matrix" values="0 0 0 0 0 0 0 0 0 0 0 0 0 0 0 0 0 0 0.1 0"/>
<feBlend mode="normal" in2="BackgroundImageFix" result="effect1_dropShadow_9311_19012"/>
<feColorMatrix in="SourceAlpha" type="matrix" values="0 0 0 0 0 0 0 0 0 0 0 0 0 0 0 0 0 0 127 0" result="hardAlpha"/>
<feOffset dy="1"/>
<feGaussianBlur stdDeviation="2.5"/>
<feComposite in2="hardAlpha" operator="out"/>
<feColorMatrix type="matrix" values="0 0 0 0 0 0 0 0 0 0 0 0 0 0 0 0 0 0 0.3 0"/>
<feBlend mode="normal" in2="effect1_dropShadow_9311_19012" result="effect2_dropShadow_9311_19012"/>
<feBlend mode="normal" in="SourceGraphic" in2="effect2_dropShadow_9311_19012" result="shape"/>
</filter>
<filter id="filter1_dd_9311_19012" x="315" y="6" width="248" height="248" filterUnits="userSpaceOnUse" color-interpolation-filters="sRGB">
<feFlood flood-opacity="0" result="BackgroundImageFix"/>
<feColorMatrix in="SourceAlpha" type="matrix" values="0 0 0 0 0 0 0 0 0 0 0 0 0 0 0 0 0 0 127 0" result="hardAlpha"/>
<feMorphology radius="2" operator="dilate" in="SourceAlpha" result="effect1_dropShadow_9311_19012"/>
<feOffset dy="2"/>
<feGaussianBlur stdDeviation="6"/>
<feComposite in2="hardAlpha" operator="out"/>
<feColorMatrix type="matrix" values="0 0 0 0 0 0 0 0 0 0 0 0 0 0 0 0 0 0 0.1 0"/>
<feBlend mode="normal" in2="BackgroundImageFix" result="effect1_dropShadow_9311_19012"/>
<feColorMatrix in="SourceAlpha" type="matrix" values="0 0 0 0 0 0 0 0 0 0 0 0 0 0 0 0 0 0 127 0" result="hardAlpha"/>
<feOffset dy="1"/>
<feGaussianBlur stdDeviation="3"/>
<feComposite in2="hardAlpha" operator="out"/>
<feColorMatrix type="matrix" values="0 0 0 0 0 0 0 0 0 0 0 0 0 0 0 0 0 0 0.3 0"/>
<feBlend mode="normal" in2="effect1_dropShadow_9311_19012" result="effect2_dropShadow_9311_19012"/>
<feBlend mode="normal" in="SourceGraphic" in2="effect2_dropShadow_9311_19012" result="shape"/>
</filter>
<filter id="filter2_dd_9311_19012" x="610" y="3" width="258" height="258" filterUnits="userSpaceOnUse" color-interpolation-filters="sRGB">
<feFlood flood-opacity="0" result="BackgroundImageFix"/>
<feColorMatrix in="SourceAlpha" type="matrix" values="0 0 0 0 0 0 0 0 0 0 0 0 0 0 0 0 0 0 127 0" result="hardAlpha"/>
<feMorphology radius="3" operator="dilate" in="SourceAlpha" result="effect1_dropShadow_9311_19012"/>
<feOffset dy="4"/>
<feGaussianBlur stdDeviation="8"/>
<feComposite in2="hardAlpha" operator="out"/>
<feColorMatrix type="matrix" values="0 0 0 0 0 0 0 0 0 0 0 0 0 0 0 0 0 0 0.1 0"/>
<feBlend mode="normal" in2="BackgroundImageFix" result="effect1_dropShadow_9311_19012"/>
<feColorMatrix in="SourceAlpha" type="matrix" values="0 0 0 0 0 0 0 0 0 0 0 0 0 0 0 0 0 0 127 0" result="hardAlpha"/>
<feOffset dy="1"/>
<feGaussianBlur stdDeviation="3"/>
<feComposite in2="hardAlpha" operator="out"/>
<feColorMatrix type="matrix" values="0 0 0 0 0 0 0 0 0 0 0 0 0 0 0 0 0 0 0.3 0"/>
<feBlend mode="normal" in2="effect1_dropShadow_9311_19012" result="effect2_dropShadow_9311_19012"/>
<feBlend mode="normal" in="SourceGraphic" in2="effect2_dropShadow_9311_19012" result="shape"/>
</filter>
<filter id="filter3_dd_9311_19012" x="905" y="0" width="268" height="268" filterUnits="userSpaceOnUse" color-interpolation-filters="sRGB">
<feFlood flood-opacity="0" result="BackgroundImageFix"/>
<feColorMatrix in="SourceAlpha" type="matrix" values="0 0 0 0 0 0 0 0 0 0 0 0 0 0 0 0 0 0 127 0" result="hardAlpha"/>
<feMorphology radius="4" operator="dilate" in="SourceAlpha" result="effect1_dropShadow_9311_19012"/>
<feOffset dy="6"/>
<feGaussianBlur stdDeviation="10"/>
<feComposite in2="hardAlpha" operator="out"/>
<feColorMatrix type="matrix" values="0 0 0 0 0 0 0 0 0 0 0 0 0 0 0 0 0 0 0.1 0"/>
<feBlend mode="normal" in2="BackgroundImageFix" result="effect1_dropShadow_9311_19012"/>
<feColorMatrix in="SourceAlpha" type="matrix" values="0 0 0 0 0 0 0 0 0 0 0 0 0 0 0 0 0 0 127 0" result="hardAlpha"/>
<feOffset dy="2"/>
<feGaussianBlur stdDeviation="3"/>
<feComposite in2="hardAlpha" operator="out"/>
<feColorMatrix type="matrix" values="0 0 0 0 0 0 0 0 0 0 0 0 0 0 0 0 0 0 0.3 0"/>
<feBlend mode="normal" in2="effect1_dropShadow_9311_19012" result="effect2_dropShadow_9311_19012"/>
<feBlend mode="normal" in="SourceGraphic" in2="effect2_dropShadow_9311_19012" result="shape"/>
</filter>
<filter id="filter4_dd_9311_19012" x="0" y="325" width="278" height="278" filterUnits="userSpaceOnUse" color-interpolation-filters="sRGB">
<feFlood flood-opacity="0" result="BackgroundImageFix"/>
<feColorMatrix in="SourceAlpha" type="matrix" values="0 0 0 0 0 0 0 0 0 0 0 0 0 0 0 0 0 0 127 0" result="hardAlpha"/>
<feMorphology radius="5" operator="dilate" in="SourceAlpha" result="effect1_dropShadow_9311_19012"/>
<feOffset dy="8"/>
<feGaussianBlur stdDeviation="12"/>
<feComposite in2="hardAlpha" operator="out"/>
<feColorMatrix type="matrix" values="0 0 0 0 0 0 0 0 0 0 0 0 0 0 0 0 0 0 0.1 0"/>
<feBlend mode="normal" in2="BackgroundImageFix" result="effect1_dropShadow_9311_19012"/>
<feColorMatrix in="SourceAlpha" type="matrix" values="0 0 0 0 0 0 0 0 0 0 0 0 0 0 0 0 0 0 127 0" result="hardAlpha"/>
<feOffset dy="2"/>
<feGaussianBlur stdDeviation="5"/>
<feComposite in2="hardAlpha" operator="out"/>
<feColorMatrix type="matrix" values="0 0 0 0 0 0 0 0 0 0 0 0 0 0 0 0 0 0 0.3 0"/>
<feBlend mode="normal" in2="effect1_dropShadow_9311_19012" result="effect2_dropShadow_9311_19012"/>
<feBlend mode="normal" in="SourceGraphic" in2="effect2_dropShadow_9311_19012" result="shape"/>
</filter>
<filter id="filter5_dd_9311_19012" x="293" y="320" width="292" height="292" filterUnits="userSpaceOnUse" color-interpolation-filters="sRGB">
<feFlood flood-opacity="0" result="BackgroundImageFix"/>
<feColorMatrix in="SourceAlpha" type="matrix" values="0 0 0 0 0 0 0 0 0 0 0 0 0 0 0 0 0 0 127 0" result="hardAlpha"/>
<feMorphology radius="6" operator="dilate" in="SourceAlpha" result="effect1_dropShadow_9311_19012"/>
<feOffset dy="10"/>
<feGaussianBlur stdDeviation="15"/>
<feComposite in2="hardAlpha" operator="out"/>
<feColorMatrix type="matrix" values="0 0 0 0 0 0 0 0 0 0 0 0 0 0 0 0 0 0 0.1 0"/>
<feBlend mode="normal" in2="BackgroundImageFix" result="effect1_dropShadow_9311_19012"/>
<feColorMatrix in="SourceAlpha" type="matrix" values="0 0 0 0 0 0 0 0 0 0 0 0 0 0 0 0 0 0 127 0" result="hardAlpha"/>
<feOffset dy="3"/>
<feGaussianBlur stdDeviation="6"/>
<feComposite in2="hardAlpha" operator="out"/>
<feColorMatrix type="matrix" values="0 0 0 0 0 0 0 0 0 0 0 0 0 0 0 0 0 0 0.3 0"/>
<feBlend mode="normal" in2="effect1_dropShadow_9311_19012" result="effect2_dropShadow_9311_19012"/>
<feBlend mode="normal" in="SourceGraphic" in2="effect2_dropShadow_9311_19012" result="shape"/>
</filter>
<filter id="filter6_dd_9311_19012" x="586" y="315" width="306" height="306" filterUnits="userSpaceOnUse" color-interpolation-filters="sRGB">
<feFlood flood-opacity="0" result="BackgroundImageFix"/>
<feColorMatrix in="SourceAlpha" type="matrix" values="0 0 0 0 0 0 0 0 0 0 0 0 0 0 0 0 0 0 127 0" result="hardAlpha"/>
<feMorphology radius="7" operator="dilate" in="SourceAlpha" result="effect1_dropShadow_9311_19012"/>
<feOffset dy="12"/>
<feGaussianBlur stdDeviation="18"/>
<feColorMatrix type="matrix" values="0 0 0 0 0 0 0 0 0 0 0 0 0 0 0 0 0 0 0.1 0"/>
<feBlend mode="normal" in2="BackgroundImageFix" result="effect1_dropShadow_9311_19012"/>
<feColorMatrix in="SourceAlpha" type="matrix" values="0 0 0 0 0 0 0 0 0 0 0 0 0 0 0 0 0 0 127 0" result="hardAlpha"/>
<feOffset dy="3"/>
<feGaussianBlur stdDeviation="7"/>
<feComposite in2="hardAlpha" operator="out"/>
<feColorMatrix type="matrix" values="0 0 0 0 0 0 0 0 0 0 0 0 0 0 0 0 0 0 0.3 0"/>
<feBlend mode="normal" in2="effect1_dropShadow_9311_19012" result="effect2_dropShadow_9311_19012"/>
<feBlend mode="normal" in="SourceGraphic" in2="effect2_dropShadow_9311_19012" result="shape"/>
</filter>
<filter id="filter7_dd_9311_19012" x="882" y="313" width="314" height="314" filterUnits="userSpaceOnUse" color-interpolation-filters="sRGB">
<feFlood flood-opacity="0" result="BackgroundImageFix"/>
<feColorMatrix in="SourceAlpha" type="matrix" values="0 0 0 0 0 0 0 0 0 0 0 0 0 0 0 0 0 0 127 0" result="hardAlpha"/>
<feMorphology radius="7" operator="dilate" in="SourceAlpha" result="effect1_dropShadow_9311_19012"/>
<feOffset dy="14"/>
<feGaussianBlur stdDeviation="20"/>
<feComposite in2="hardAlpha" operator="out"/>
<feColorMatrix type="matrix" values="0 0 0 0 0 0 0 0 0 0 0 0 0 0 0 0 0 0 0.1 0"/>
<feBlend mode="normal" in2="BackgroundImageFix" result="effect1_dropShadow_9311_19012"/>
<feColorMatrix in="SourceAlpha" type="matrix" values="0 0 0 0 0 0 0 0 0 0 0 0 0 0 0 0 0 0 127 0" result="hardAlpha"/>
<feOffset dy="3"/>
<feGaussianBlur stdDeviation="8"/>
<feComposite in2="hardAlpha" operator="out"/>
<feColorMatrix type="matrix" values="0 0 0 0 0 0 0 0 0 0 0 0 0 0 0 0 0 0 0.3 0"/>
<feBlend mode="normal" in2="effect1_dropShadow_9311_19012" result="effect2_dropShadow_9311_19012"/>
<feBlend mode="normal" in="SourceGraphic" in2="effect2_dropShadow_9311_19012" result="shape"/>
</filter>
</defs>
</svg>
