<svg width="946" height="582" viewBox="0 0 946 582" fill="none" xmlns="http://www.w3.org/2000/svg">
<rect width="946" height="461" rx="32" fill="#949494"/>
<path d="M44 412.406H920V428.406H44V412.406Z" fill="white"/>
<rect x="215.5" y="313.703" width="527" height="9" rx="4.5" fill="#E6E6E6" stroke="#666666"/>
<rect x="84" y="380.406" width="184" height="8" rx="4" fill="white"/>
<rect x="284" y="380.406" width="184" height="8" rx="4" fill="white"/>
<rect x="484" y="380.406" width="184" height="8" rx="4" fill="white"/>
<rect x="684" y="380.406" width="184" height="8" rx="4" fill="white"/>
<path d="M19.3 404.406V394.864H20.509V403.379H24.669V404.406H19.3ZM28.6726 404.575C26.8266 404.575 25.6956 402.846 25.6956 399.739C25.6956 396.632 26.8266 394.968 28.6726 394.968C30.5186 394.968 31.6366 396.645 31.6366 399.739C31.6366 402.846 30.5186 404.575 28.6726 404.575ZM28.6726 403.626C29.7516 403.626 30.4796 402.456 30.4796 399.739C30.4796 397.022 29.7516 395.917 28.6726 395.917C27.5806 395.917 26.8526 397.022 26.8526 399.739C26.8526 402.456 27.5806 403.626 28.6726 403.626Z" fill="black"/>
<path d="M18 412.406H933.233" stroke="black" stroke-width="2" stroke-dasharray="4 4"/>
<path d="M19.3 371.595V362.053H20.509V370.568H24.669V371.595H19.3ZM26.2026 371.595V370.607H28.3216V363.769H26.6316V363.002C27.4766 362.859 28.0876 362.638 28.6076 362.326H29.5176V370.607H31.4286V371.595H26.2026Z" fill="black"/>
<path d="M18 379.595H933.233" stroke="black" stroke-dasharray="2 2"/>
<path d="M19.3 340.398V330.856H20.509V339.371H24.669V340.398H19.3ZM25.6306 340.398V339.696C28.4256 336.914 29.9986 335.25 29.9986 333.729C29.9986 332.676 29.4266 331.922 28.2436 331.922C27.4636 331.922 26.7876 332.416 26.2676 333.027L25.5786 332.364C26.3586 331.519 27.1776 330.96 28.3866 330.96C30.0896 330.96 31.1556 332.039 31.1556 333.677C31.1556 335.419 29.5696 337.148 27.3726 339.462C27.8666 339.423 28.4386 339.371 28.9326 339.371H31.6236V340.398H25.6306Z" fill="black"/>
<path d="M18 346.406H933.233" stroke="black" stroke-dasharray="2 2"/>
<path d="M19.3 305.203V295.661H20.509V304.176H24.669V305.203H19.3ZM28.4906 305.372C26.9956 305.372 26.0596 304.748 25.4356 304.072L26.0336 303.292C26.5926 303.877 27.3206 304.384 28.3996 304.384C29.5306 304.384 30.3366 303.721 30.3366 302.681C30.3366 301.576 29.5696 300.848 27.3726 300.848V299.938C29.3356 299.938 30.0116 299.171 30.0116 298.196C30.0116 297.299 29.3876 296.727 28.3996 296.727C27.6326 296.727 26.9566 297.117 26.4236 297.663L25.7866 296.922C26.5016 296.246 27.3466 295.765 28.4516 295.765C30.0506 295.765 31.2206 296.61 31.2206 298.118C31.2206 299.236 30.5316 299.951 29.5306 300.315V300.367C30.6486 300.64 31.5456 301.459 31.5456 302.733C31.5456 304.384 30.1806 305.372 28.4906 305.372Z" fill="black"/>
<path d="M18 313.203H933.233" stroke="black" stroke-dasharray="2 2"/>
<path d="M19.3 272V262.458H20.509V270.973H24.669V272H19.3ZM26.5536 268.49H29.4786V265.773C29.4786 265.292 29.5176 264.499 29.5436 264.005H29.4916C29.2576 264.447 28.9976 264.85 28.7246 265.305L26.5536 268.49ZM29.4786 272V269.439H25.3186V268.659L29.2836 262.731H30.5966V268.49H31.8576V269.439H30.5966V272H29.4786Z" fill="black"/>
<path d="M18 280H933.233" stroke="black" stroke-dasharray="2 2"/>
<rect width="864" height="200" transform="translate(44 32)" fill="white"/>
<g filter="url(#filter0_dd_10876_12959)">
<rect x="84" y="72" width="184" height="120" rx="12" fill="white"/>
</g>
<g filter="url(#filter1_dd_10876_12959)">
<rect x="284" y="72" width="184" height="120" rx="12" fill="white"/>
</g>
<g filter="url(#filter2_dd_10876_12959)">
<rect x="484" y="72" width="184" height="120" rx="12" fill="white"/>
</g>
<g filter="url(#filter3_dd_10876_12959)">
<rect x="684" y="72" width="184" height="120" rx="12" fill="white"/>
</g>
<g filter="url(#filter4_dd_10876_12959)">
<rect x="215" y="48" width="523" height="114" rx="12" fill="#E6E6E6"/>
<rect x="215.5" y="48.5" width="522" height="113" rx="11.5" stroke="#949494"/>
</g>
<path opacity="0.9" d="M7.504 500.184C7.36 500.76 7.296 501.192 7.232 501.608C7.184 501.88 7.12 502.312 7.056 502.84C8.208 502.824 9.232 502.728 9.984 502.616L9.92 504.52C8.96 504.616 8.08 504.68 6.8 504.68C6.704 505.384 6.608 506.136 6.528 506.856C6.56 506.856 6.608 506.856 6.64 506.856C7.632 506.856 8.816 506.792 9.856 506.664L9.808 508.568C8.912 508.648 7.984 508.712 6.976 508.712C6.768 508.712 6.544 508.712 6.336 508.712C6.304 509.192 6.272 509.592 6.272 509.88C6.272 511.208 7.088 511.912 8.656 511.912C10.896 511.912 12.112 510.888 12.112 509.576C12.112 508.488 11.52 507.464 10.464 506.472L12.72 505.992C13.776 507.336 14.272 508.472 14.272 509.832C14.272 512.248 12.096 513.976 8.592 513.976C6.08 513.976 4.304 512.888 4.304 510.216C4.304 509.832 4.352 509.256 4.416 508.6C3.248 508.488 2.192 508.312 1.344 508.072L1.456 506.136C2.496 506.488 3.568 506.664 4.608 506.776C4.704 506.056 4.8 505.304 4.88 504.584C3.776 504.472 2.64 504.28 1.696 504.008L1.808 502.168C2.736 502.472 3.936 502.68 5.104 502.776C5.152 502.28 5.2 501.848 5.232 501.48C5.28 500.728 5.28 500.408 5.248 500.056L7.504 500.184ZM21.6075 500.248C22.2155 501.912 22.9675 503.448 23.6075 504.68C24.9195 503.912 26.3115 503.224 27.0635 502.792C27.6715 502.44 28.1355 502.168 28.5515 501.816L29.6555 503.672C29.1755 503.96 28.6635 504.232 28.0715 504.536C27.0795 505.032 25.0635 505.96 23.6075 506.904C22.2795 507.784 21.3835 508.696 21.3835 509.816C21.3835 510.968 22.4875 511.576 24.7115 511.576C26.3595 511.576 28.5195 511.336 29.9435 510.984L29.9115 513.288C28.5515 513.528 26.8555 513.688 24.7755 513.688C21.5915 513.688 19.1755 512.808 19.1755 510.056C19.1755 508.296 20.2955 506.968 21.8315 505.832C21.0955 504.472 20.3275 502.76 19.6075 501.064L21.6075 500.248ZM40.4715 500.184C40.3275 500.76 40.2635 501.192 40.1995 501.608C40.1515 501.88 40.0875 502.312 40.0235 502.84C41.1755 502.824 42.1995 502.728 42.9515 502.616L42.8875 504.52C41.9275 504.616 41.0475 504.68 39.7675 504.68C39.6715 505.384 39.5755 506.136 39.4955 506.856C39.5275 506.856 39.5755 506.856 39.6075 506.856C40.5995 506.856 41.7835 506.792 42.8235 506.664L42.7755 508.568C41.8795 508.648 40.9515 508.712 39.9435 508.712C39.7355 508.712 39.5115 508.712 39.3035 508.712C39.2715 509.192 39.2395 509.592 39.2395 509.88C39.2395 511.208 40.0555 511.912 41.6235 511.912C43.8635 511.912 45.0795 510.888 45.0795 509.576C45.0795 508.488 44.4875 507.464 43.4315 506.472L45.6875 505.992C46.7435 507.336 47.2395 508.472 47.2395 509.832C47.2395 512.248 45.0635 513.976 41.5595 513.976C39.0475 513.976 37.2715 512.888 37.2715 510.216C37.2715 509.832 37.3195 509.256 37.3835 508.6C36.2155 508.488 35.1595 508.312 34.3115 508.072L34.4235 506.136C35.4635 506.488 36.5355 506.664 37.5755 506.776C37.6715 506.056 37.7675 505.304 37.8475 504.584C36.7435 504.472 35.6075 504.28 34.6635 504.008L34.7755 502.168C35.7035 502.472 36.9035 502.68 38.0715 502.776C38.1195 502.28 38.1675 501.848 38.1995 501.48C38.2475 500.728 38.2475 500.408 38.2155 500.056L40.4715 500.184ZM54.575 500.248C55.183 501.912 55.935 503.448 56.575 504.68C57.887 503.912 59.279 503.224 60.031 502.792C60.639 502.44 61.103 502.168 61.519 501.816L62.623 503.672C62.143 503.96 61.631 504.232 61.039 504.536C60.047 505.032 58.031 505.96 56.575 506.904C55.247 507.784 54.351 508.696 54.351 509.816C54.351 510.968 55.455 511.576 57.679 511.576C59.327 511.576 61.487 511.336 62.911 510.984L62.879 513.288C61.519 513.528 59.823 513.688 57.743 513.688C54.559 513.688 52.143 512.808 52.143 510.056C52.143 508.296 53.263 506.968 54.799 505.832C54.063 504.472 53.295 502.76 52.575 501.064L54.575 500.248ZM76.879 500.184C76.815 500.68 76.783 501.304 76.783 501.8C76.783 502.152 76.799 502.536 76.799 502.952H78.799C79.327 502.952 80.079 502.888 80.463 502.824V504.952C79.951 504.936 79.343 504.904 78.911 504.904H76.847C76.895 507.24 76.959 509.912 76.991 512.072C77.007 513.096 76.415 513.688 75.199 513.688C74.223 513.688 73.327 513.656 72.415 513.592L72.239 511.512C72.959 511.64 73.823 511.704 74.367 511.704C74.767 511.704 74.927 511.496 74.927 511.032C74.927 509.96 74.927 508.36 74.895 506.712C73.487 508.552 70.895 510.776 68.367 512.12L66.895 510.456C70.015 508.984 72.655 506.728 73.935 504.904H69.567C68.991 504.904 68.303 504.936 67.743 504.968V502.84C68.207 502.904 68.975 502.952 69.519 502.952H74.815C74.799 502.536 74.783 502.152 74.767 501.8C74.719 501.112 74.671 500.6 74.607 500.184H76.879ZM84.047 505.592C84.623 505.64 85.791 505.688 86.623 505.688H95.215C95.967 505.688 96.671 505.624 97.087 505.592V508.104C96.703 508.088 95.887 508.024 95.215 508.024H86.623C85.711 508.024 84.639 508.056 84.047 508.104V505.592ZM111.539 500.232C111.939 500.824 112.499 501.832 112.803 502.424L111.523 502.984C111.187 502.328 110.707 501.368 110.275 500.76L111.539 500.232ZM113.427 499.512C113.843 500.12 114.435 501.128 114.723 501.688L113.443 502.232C113.123 501.576 112.595 500.632 112.163 500.04L113.427 499.512ZM102.131 508.024C102.851 506.232 103.459 503.976 103.651 501.944L105.987 502.424C105.843 502.888 105.667 503.672 105.603 504.024C105.379 505.144 104.803 507.352 104.243 508.84C103.667 510.392 102.723 512.216 101.875 513.416L99.6347 512.472C100.643 511.16 101.587 509.432 102.131 508.024ZM110.035 507.688C109.427 506.008 108.387 503.64 107.715 502.424L109.843 501.736C110.499 502.968 111.603 505.432 112.211 506.984C112.771 508.424 113.619 510.984 114.067 512.568L111.699 513.336C111.251 511.432 110.675 509.416 110.035 507.688ZM117.171 505.592C117.747 505.64 118.915 505.688 119.747 505.688H128.339C129.091 505.688 129.795 505.624 130.211 505.592V508.104C129.827 508.088 129.011 508.024 128.339 508.024H119.747C118.835 508.024 117.763 508.056 117.171 508.104V505.592ZM135.459 512.36C135.651 511.96 135.667 511.688 135.667 511.32V502.648C135.667 502.04 135.587 501.288 135.491 500.824H138.003C137.907 501.448 137.843 502.024 137.843 502.648V510.968C140.451 510.216 144.019 508.168 146.067 505.672L147.203 507.48C145.011 510.104 141.699 512.008 137.923 513.24C137.699 513.32 137.347 513.432 136.979 513.672L135.459 512.36ZM149.971 506.776C152.835 506.04 155.187 505 156.963 503.912C158.611 502.888 160.435 501.288 161.475 500.024L163.203 501.672C161.987 502.872 160.451 504.12 158.899 505.144V511.608C158.899 512.312 158.931 513.304 159.043 513.704H156.515C156.579 513.32 156.627 512.312 156.627 511.608V506.488C154.979 507.352 152.947 508.216 150.979 508.792L149.971 506.776ZM169.363 516.232C167.859 513.752 166.979 511.16 166.979 507.944C166.979 504.76 167.859 502.136 169.363 499.672L170.835 500.296C169.491 502.632 168.883 505.336 168.883 507.944C168.883 510.584 169.491 513.272 170.835 515.608L169.363 516.232ZM180.946 502.296L182.546 501.768C181.01 501.944 179.426 502.056 177.97 502.12C177.938 501.672 177.698 500.968 177.49 500.536C180.45 500.376 183.794 499.992 185.858 499.448L187.122 500.984C185.794 501.32 184.194 501.576 182.546 501.768C182.946 502.536 183.314 503.544 183.442 504.216L181.746 504.792C181.65 504.136 181.298 503.064 180.946 502.296ZM177.65 501.096L176.546 502.664C175.97 502.104 174.722 501.368 173.714 500.936L174.754 499.528C175.73 499.896 177.01 500.568 177.65 501.096ZM176.77 505.352L175.682 506.936C175.074 506.392 173.81 505.688 172.802 505.256L173.81 503.832C174.802 504.184 176.13 504.808 176.77 505.352ZM174.802 514.168L173.154 513.016C173.922 511.784 175.026 509.752 175.89 507.88L177.362 509.032C176.594 510.744 175.682 512.6 174.802 514.168ZM187.682 508.664V510.328H183.762V512.328C183.762 513.272 183.57 513.768 182.866 514.056C182.194 514.344 181.234 514.36 179.954 514.36C179.874 513.816 179.602 513.032 179.362 512.52C180.194 512.552 181.218 512.552 181.506 512.552C181.778 512.536 181.858 512.488 181.858 512.28V510.328H177.602V508.664H181.858V507.416H182.562C182.946 507.208 183.33 506.952 183.698 506.68H178.29V505.048H178.978C178.786 504.376 178.37 503.464 177.938 502.76L179.538 502.184C180.034 502.904 180.514 503.88 180.706 504.552L179.474 505.048H185.042L183.858 504.6C184.338 503.8 184.914 502.584 185.218 501.688L187.234 502.296C186.61 503.272 185.938 504.312 185.41 505.048H185.554L185.986 504.968L187.186 505.848C186.29 506.776 185.09 507.72 183.762 508.376V508.664H187.682ZM193.106 501.56C192.994 502.136 192.914 503.064 192.914 503.512C192.898 504.552 192.914 505.752 193.01 506.904C193.234 509.208 193.714 510.792 194.722 510.792C195.474 510.792 196.114 508.92 196.418 507.64L198.018 509.592C196.962 512.376 195.954 513.352 194.674 513.352C192.914 513.352 191.394 511.768 190.946 507.48C190.786 506.008 190.77 504.136 190.77 503.16C190.77 502.712 190.738 502.024 190.642 501.528L193.106 501.56ZM201.106 501.928C202.626 503.768 203.842 507.768 204.018 510.216L201.922 511.032C201.666 508.456 200.818 504.568 199.074 502.584L201.106 501.928ZM206.237 501.992C206.877 501.976 207.501 501.944 207.821 501.912C209.149 501.8 211.789 501.56 214.717 501.304C216.365 501.176 218.125 501.064 219.245 501.032L219.261 503.08C218.397 503.096 217.021 503.096 216.173 503.288C214.237 503.8 212.797 505.88 212.797 507.784C212.797 510.408 215.261 511.368 217.965 511.512L217.213 513.704C213.869 513.48 210.701 511.672 210.701 508.216C210.701 505.912 211.997 504.088 213.069 503.272C211.565 503.432 208.301 503.784 206.445 504.184L206.237 501.992ZM225.901 501.56C225.789 502.136 225.709 503.064 225.709 503.512C225.693 504.552 225.709 505.752 225.805 506.904C226.029 509.208 226.509 510.792 227.517 510.792C228.269 510.792 228.909 508.92 229.213 507.64L230.813 509.592C229.757 512.376 228.749 513.352 227.469 513.352C225.709 513.352 224.189 511.768 223.741 507.48C223.581 506.008 223.565 504.136 223.565 503.16C223.565 502.712 223.533 502.024 223.437 501.528L225.901 501.56ZM233.901 501.928C235.421 503.768 236.637 507.768 236.813 510.216L234.717 511.032C234.461 508.456 233.613 504.568 231.869 502.584L233.901 501.928ZM244.621 511.112C244.621 511.704 245.277 512.104 246.237 512.104C246.573 512.104 246.877 512.088 247.165 512.056C247.069 511.016 246.477 510.344 245.613 510.344C245.005 510.344 244.621 510.712 244.621 511.112ZM241.901 500.808C242.349 500.872 242.909 500.888 243.357 500.888C244.205 500.888 247.629 500.824 248.541 500.744C249.197 500.68 249.565 500.632 249.757 500.568L250.797 501.992C250.429 502.232 250.045 502.456 249.677 502.728C248.813 503.336 247.133 504.744 246.125 505.544C246.653 505.416 247.133 505.368 247.645 505.368C250.365 505.368 252.429 507.064 252.429 509.4C252.429 511.928 250.509 513.928 246.637 513.928C244.413 513.928 242.733 512.904 242.733 511.304C242.733 510.008 243.901 508.808 245.597 508.808C247.581 508.808 248.781 510.024 249.005 511.544C249.885 511.08 250.333 510.344 250.333 509.368C250.333 507.928 248.893 506.952 247.005 506.952C244.557 506.952 242.957 508.248 241.245 510.2L239.789 508.696C240.925 507.784 242.861 506.152 243.805 505.368C244.701 504.632 246.365 503.288 247.149 502.6C246.333 502.616 244.125 502.712 243.277 502.76C242.845 502.792 242.333 502.84 241.965 502.888L241.901 500.808ZM258.781 510.952C258.781 511.736 259.597 512.024 260.717 512.024C261.741 512.024 262.109 511.576 262.109 510.504C262.109 510.36 262.109 510.168 262.093 509.944C261.677 509.88 261.229 509.832 260.781 509.832C259.533 509.832 258.781 510.264 258.781 510.952ZM264.141 500.168C264.061 500.632 264.013 501.416 263.997 502.04C263.981 502.408 263.981 502.792 263.981 503.208C265.261 503.192 267.133 503.128 268.461 502.968L268.525 504.872C267.181 504.984 265.293 505.064 263.997 505.096C264.029 506.056 264.093 507.336 264.173 508.52C266.205 509.112 267.933 510.232 269.037 511.256L267.805 513.16C266.893 512.248 265.693 511.304 264.269 510.648C264.285 510.856 264.285 511.048 264.285 511.208C264.285 512.632 263.565 513.976 260.877 513.976C258.589 513.976 256.717 513.224 256.717 511.048C256.717 509.384 258.141 508.056 261.085 508.056C261.405 508.056 261.725 508.072 262.029 508.104C261.981 506.856 261.917 505.496 261.917 504.648C261.917 503.672 261.917 502.728 261.901 502.04C261.869 501.256 261.821 500.568 261.725 500.168H264.141ZM282.621 507.768C282.621 506.712 281.789 505.848 280.285 505.848C278.525 505.848 276.941 506.392 276.125 506.632C275.661 506.76 275.037 507.016 274.573 507.192L273.965 504.904C274.509 504.856 275.197 504.744 275.725 504.632C276.893 504.36 278.685 503.896 280.557 503.896C283.085 503.896 284.861 505.336 284.861 507.848C284.861 511.272 281.693 513.4 277.245 514.008L276.093 512.024C280.061 511.576 282.621 510.264 282.621 507.768ZM276.333 500.088C278.189 500.488 281.821 500.792 283.517 500.808L283.197 502.776C281.325 502.648 277.853 502.328 276.013 502.008L276.333 500.088ZM295.469 501.816C297.437 502.088 300.621 502.008 302.349 501.8V503.864C300.381 504.04 297.485 504.056 295.469 503.864V501.816ZM296.749 508.648C296.621 509.176 296.557 509.56 296.557 509.992C296.557 510.696 297.165 511.128 298.797 511.128C300.221 511.128 301.405 511 302.813 510.712L302.845 512.872C301.805 513.064 300.525 513.176 298.717 513.176C295.965 513.176 294.637 512.2 294.637 510.552C294.637 509.928 294.733 509.288 294.909 508.472L296.749 508.648ZM293.005 500.744C292.877 501.08 292.669 501.88 292.605 502.168C292.397 503.24 291.837 506.44 291.837 508.04C291.837 508.344 291.853 508.76 291.901 509.08C292.141 508.536 292.397 507.976 292.621 507.448L293.613 508.232C293.165 509.56 292.637 511.304 292.461 512.152C292.413 512.392 292.381 512.744 292.381 512.904C292.381 513.08 292.397 513.336 292.413 513.56L290.557 513.688C290.237 512.584 289.933 510.632 289.933 508.456C289.933 506.056 290.429 503.352 290.605 502.12C290.653 501.672 290.749 501.064 290.765 500.552L293.005 500.744ZM307.229 516.232L305.773 515.608C307.117 513.272 307.725 510.584 307.725 507.944C307.725 505.336 307.117 502.632 305.773 500.296L307.229 499.672C308.749 502.136 309.629 504.76 309.629 507.944C309.629 511.16 308.749 513.752 307.229 516.232ZM325.068 507.192L326.652 508.376C325.644 509.096 324.46 509.832 323.468 510.36C324.412 511.416 325.66 512.2 327.244 512.648C326.828 513.048 326.284 513.816 326.012 514.344C322.636 513.192 320.876 510.76 319.82 507.208C319.212 507.784 318.492 508.328 317.724 508.824V511.8C318.86 511.56 320.06 511.304 321.212 511.048L321.388 512.776C318.876 513.368 316.188 513.928 314.204 514.36L313.644 512.6C314.268 512.488 315.02 512.344 315.82 512.184V509.896C314.94 510.328 314.044 510.68 313.164 510.952C312.892 510.52 312.348 509.8 311.948 509.416C313.852 508.92 315.9 508.008 317.404 506.968H312.54V505.352H318.636V504.456H313.884V502.936H318.636V502.12H313.132V500.504H318.636V499.448H320.54V500.504H326.172V502.12H320.54V502.936H325.548V504.456H320.54V505.352H326.684V506.968H321.596C321.852 507.752 322.156 508.456 322.556 509.112C323.452 508.52 324.412 507.8 325.068 507.192ZM341.9 500.472V502.36H330.62V500.472H341.9ZM331.436 507.384L333.452 507.912C332.748 509.784 331.548 511.72 330.412 512.92C330.012 512.584 329.148 512.024 328.652 511.784C329.804 510.728 330.876 509.032 331.436 507.384ZM343.388 506.216H337.356V512.152C337.356 513.224 337.132 513.752 336.38 514.056C335.644 514.36 334.588 514.392 333.196 514.392C333.1 513.8 332.812 512.936 332.524 512.36C333.436 512.408 334.556 512.424 334.86 512.408C335.164 512.408 335.276 512.328 335.276 512.104V506.216H329.164V504.312H343.388V506.216ZM338.988 508.072L340.78 507.32C341.836 508.792 342.988 510.728 343.436 512.088L341.452 512.968C341.1 511.656 340.012 509.592 338.988 508.072ZM353.02 501.64C352.892 501.272 352.716 500.696 352.508 500.168L354.668 499.912C354.828 500.76 355.068 501.624 355.34 502.424C356.492 502.248 357.612 501.992 358.62 501.688L358.876 503.704C358.06 503.944 357.036 504.136 356.028 504.28C356.492 505.32 357.052 506.312 357.452 506.888C357.724 507.288 358.028 507.64 358.316 507.96L357.324 509.4C356.428 509.224 354.412 509.016 353.068 508.904L353.228 507.208C354.012 507.272 355.068 507.368 355.564 507.4C355.084 506.632 354.508 505.576 354.06 504.504C352.156 504.648 349.964 504.664 347.228 504.44L347.196 502.392C349.596 502.68 351.644 502.728 353.34 502.616C353.212 502.248 353.116 501.912 353.02 501.64ZM350.396 507.848C349.884 508.6 349.612 509.304 349.612 510.008C349.612 511.352 350.812 511.928 353.004 511.928C354.748 511.928 356.156 511.768 357.292 511.544L357.18 513.56C356.268 513.736 354.828 513.944 352.876 513.944C349.612 513.928 347.548 512.664 347.548 510.36C347.548 509.384 347.852 508.472 348.396 507.384L350.396 507.848ZM365.9 501.464C365.9 501 365.916 500.52 365.836 500.024L368.172 500.104C368.076 500.552 367.932 501.368 367.82 502.36L368.412 503.128C368.188 503.416 367.868 503.944 367.596 504.36C367.58 504.472 367.58 504.584 367.564 504.712C368.828 503.608 370.668 502.312 372.22 502.312C373.948 502.312 374.732 503.336 374.732 504.68C374.732 506.344 374.204 508.696 374.204 510.344C374.204 510.76 374.412 511.064 374.812 511.064C375.404 511.064 376.156 510.648 376.892 509.912L377.148 512.168C376.412 512.856 375.436 513.352 374.14 513.352C372.94 513.352 372.14 512.488 372.14 510.936C372.14 509.208 372.716 506.856 372.716 505.4C372.716 504.616 372.3 504.216 371.628 504.216C370.444 504.216 368.716 505.688 367.404 507.128C367.388 507.576 367.372 508.008 367.372 508.424C367.372 509.736 367.372 511.08 367.468 512.584C367.484 512.872 367.532 513.448 367.58 513.816H365.372C365.404 513.448 365.42 512.888 365.42 512.632C365.452 511.384 365.468 510.456 365.484 509.112C364.812 510.12 364.028 511.288 363.468 512.04L362.204 510.296C363.116 509.176 364.716 507.064 365.628 505.72C365.66 505.352 365.692 504.968 365.708 504.584C364.924 504.68 363.692 504.84 362.796 504.968L362.588 502.92C363.052 502.936 363.42 502.936 363.98 502.904C364.444 502.872 365.148 502.792 365.836 502.696C365.868 502.088 365.9 501.64 365.9 501.464ZM384.428 511.112C384.428 511.704 385.084 512.104 386.044 512.104C386.38 512.104 386.684 512.088 386.972 512.056C386.876 511.016 386.284 510.344 385.42 510.344C384.812 510.344 384.428 510.712 384.428 511.112ZM381.708 500.808C382.156 500.872 382.716 500.888 383.164 500.888C384.012 500.888 387.436 500.824 388.348 500.744C389.004 500.68 389.372 500.632 389.564 500.568L390.604 501.992C390.236 502.232 389.852 502.456 389.484 502.728C388.62 503.336 386.94 504.744 385.932 505.544C386.46 505.416 386.94 505.368 387.452 505.368C390.172 505.368 392.236 507.064 392.236 509.4C392.236 511.928 390.316 513.928 386.444 513.928C384.22 513.928 382.54 512.904 382.54 511.304C382.54 510.008 383.708 508.808 385.404 508.808C387.388 508.808 388.588 510.024 388.812 511.544C389.692 511.08 390.14 510.344 390.14 509.368C390.14 507.928 388.7 506.952 386.812 506.952C384.364 506.952 382.764 508.248 381.052 510.2L379.596 508.696C380.732 507.784 382.668 506.152 383.612 505.368C384.508 504.632 386.172 503.288 386.956 502.6C386.14 502.616 383.932 502.712 383.084 502.76C382.652 502.792 382.14 502.84 381.772 502.888L381.708 500.808ZM397.34 501.64C397.932 501.704 398.764 501.736 399.308 501.736H407.372C407.836 501.736 408.508 501.72 408.78 501.704C408.764 502.072 408.732 502.712 408.732 503.176V511.464C408.732 512.024 408.764 512.872 408.796 513.352H406.476C406.492 513.096 406.492 512.824 406.492 512.52H399.196C398.572 512.52 397.66 512.568 397.132 512.616V510.328C397.692 510.376 398.412 510.424 399.132 510.424H406.508V503.8H399.324C398.652 503.8 397.788 503.832 397.34 503.864V501.64ZM415.324 500.84C416.444 501.592 418.524 503.256 419.452 504.232L417.82 505.896C416.988 505 414.988 503.256 413.82 502.44L415.324 500.84ZM413.324 511.496C415.82 511.144 417.9 510.328 419.452 509.4C422.188 507.784 424.268 505.336 425.276 503.176L426.524 505.432C425.308 507.592 423.18 509.8 420.604 511.352C418.988 512.328 416.924 513.224 414.668 513.608L413.324 511.496ZM440.508 501C440.508 501.48 440.908 501.864 441.388 501.864C441.868 501.864 442.252 501.48 442.252 501C442.252 500.52 441.868 500.136 441.388 500.136C440.908 500.136 440.508 500.52 440.508 501ZM439.532 501C439.532 499.976 440.364 499.144 441.388 499.144C442.412 499.144 443.228 499.976 443.228 501C443.228 502.024 442.412 502.856 441.388 502.856C440.364 502.856 439.532 502.024 439.532 501ZM437.324 500.376C437.292 500.6 437.18 501.368 437.18 501.768V503.048H440.908C441.356 503.048 442.06 503 442.492 502.936V505.032C441.98 505 441.356 504.984 440.924 504.984H437.18V512.424C437.18 513.352 436.652 513.928 435.516 513.928C434.652 513.928 433.724 513.88 432.908 513.784L432.716 511.8C433.404 511.928 434.108 511.992 434.492 511.992C434.908 511.992 435.068 511.832 435.084 511.416C435.1 510.824 435.1 505.752 435.1 505V504.984H431.036C430.556 504.984 429.932 505 429.484 505.048V502.92C429.964 502.984 430.524 503.048 431.036 503.048H435.1V501.768C435.1 501.352 435.02 500.648 434.956 500.376H437.324ZM433.564 507.256C432.828 508.68 431.356 510.776 430.476 511.72L428.748 510.536C429.82 509.512 431.1 507.752 431.756 506.408L433.564 507.256ZM440.444 506.36C441.26 507.384 442.54 509.4 443.18 510.568L441.292 511.592C440.604 510.216 439.468 508.28 438.7 507.304L440.444 506.36ZM446.22 505.592C446.796 505.64 447.964 505.688 448.796 505.688H457.388C458.14 505.688 458.844 505.624 459.26 505.592V508.104C458.876 508.088 458.06 508.024 457.388 508.024H448.796C447.884 508.024 446.812 508.056 446.22 508.104V505.592ZM470.62 499.928C470.572 500.312 470.524 500.904 470.524 501.4V502.232H472.444C472.94 502.232 473.388 502.184 473.772 502.072L475.1 503.368C474.684 503.768 474.204 504.312 473.852 504.696C473.036 505.624 471.82 506.824 470.492 507.832C470.492 509.112 470.476 510.856 470.476 511.864C470.476 512.504 470.54 513.416 470.588 513.912H468.284C468.348 513.464 468.412 512.504 468.412 511.864V509.128C466.94 509.912 465.228 510.568 463.5 511.096L462.268 509.208C465.356 508.52 467.404 507.416 468.796 506.536C470.028 505.736 471.02 504.808 471.484 504.152H465.692C465.116 504.152 464.108 504.168 463.612 504.216V502.12C464.22 502.216 465.1 502.232 465.66 502.232H468.428V501.4C468.428 500.904 468.396 500.328 468.332 499.928H470.62ZM475.324 511.256C473.932 510.152 472.892 509.48 471.5 508.712L472.828 507.176C474.3 507.976 475.132 508.44 476.668 509.496L475.324 511.256ZM481.884 500.84C483.004 501.592 485.084 503.256 486.012 504.232L484.38 505.896C483.548 505 481.548 503.256 480.38 502.44L481.884 500.84ZM479.884 511.496C482.38 511.144 484.46 510.328 486.012 509.4C488.748 507.784 490.828 505.336 491.836 503.176L493.084 505.432C491.868 507.592 489.74 509.8 487.164 511.352C485.548 512.328 483.484 513.224 481.228 513.608L479.884 511.496ZM499.692 511.464V502.264C499.692 501.704 499.644 500.904 499.532 500.344H502.028C501.964 500.904 501.884 501.608 501.884 502.264V504.632C504.028 505.256 507.1 506.392 508.572 507.112L507.66 509.32C506.012 508.456 503.612 507.528 501.884 506.936V511.464C501.884 511.928 501.964 513.048 502.028 513.704H499.532C499.628 513.064 499.692 512.104 499.692 511.464ZM526.14 507.368C526.14 510.744 524.076 513.128 520.044 513.752L518.844 511.848C519.452 511.784 519.9 511.688 520.332 511.592C522.38 511.112 523.98 509.64 523.98 507.304C523.98 505.096 522.78 503.448 520.62 503.08C520.396 504.44 520.124 505.912 519.66 507.416C518.7 510.648 517.324 512.632 515.58 512.632C513.804 512.632 512.332 510.68 512.332 507.976C512.332 504.28 515.532 501.128 519.676 501.128C523.644 501.128 526.14 503.88 526.14 507.368ZM514.38 507.768C514.38 509.384 515.02 510.168 515.644 510.168C516.316 510.168 516.94 509.16 517.596 507C517.964 505.816 518.268 504.456 518.444 503.128C515.804 503.672 514.38 506.008 514.38 507.768ZM537.308 511.8V510.76H534.54V511.8H537.308ZM542.428 507.192V512.376C542.428 513.256 542.252 513.768 541.628 514.056C541.036 514.344 540.188 514.36 539.036 514.36C538.988 513.992 538.844 513.496 538.668 513.08H534.54V513.8H532.876V509.496H538.988V512.6C539.532 512.616 540.028 512.616 540.204 512.6C540.444 512.584 540.508 512.536 540.508 512.344V508.776H531.452V514.392H529.596V507.192H542.428ZM538.38 505.24V504.264H533.388V505.24H538.38ZM531.58 503H540.316V506.52H531.58V503ZM536.812 500.776H542.94V502.392H528.956V500.776H534.876V499.432H536.812V500.776ZM552.7 501.64C552.572 501.272 552.396 500.696 552.188 500.168L554.348 499.912C554.508 500.76 554.748 501.624 555.02 502.424C556.172 502.248 557.292 501.992 558.3 501.688L558.556 503.704C557.74 503.944 556.716 504.136 555.708 504.28C556.172 505.32 556.732 506.312 557.132 506.888C557.404 507.288 557.708 507.64 557.996 507.96L557.004 509.4C556.108 509.224 554.092 509.016 552.748 508.904L552.908 507.208C553.692 507.272 554.748 507.368 555.244 507.4C554.764 506.632 554.188 505.576 553.74 504.504C551.836 504.648 549.644 504.664 546.908 504.44L546.876 502.392C549.276 502.68 551.324 502.728 553.02 502.616C552.892 502.248 552.796 501.912 552.7 501.64ZM550.076 507.848C549.564 508.6 549.292 509.304 549.292 510.008C549.292 511.352 550.492 511.928 552.684 511.928C554.428 511.928 555.836 511.768 556.972 511.544L556.86 513.56C555.948 513.736 554.508 513.944 552.556 513.944C549.292 513.928 547.228 512.664 547.228 510.36C547.228 509.384 547.532 508.472 548.076 507.384L550.076 507.848ZM564.348 512.36C564.54 511.96 564.556 511.688 564.556 511.32V502.648C564.556 502.04 564.476 501.288 564.38 500.824H566.892C566.796 501.448 566.732 502.024 566.732 502.648V510.968C569.34 510.216 572.908 508.168 574.956 505.672L576.092 507.48C573.9 510.104 570.588 512.008 566.812 513.24C566.588 513.32 566.236 513.432 565.868 513.672L564.348 512.36ZM589.212 501.912C589.66 502.568 590.364 503.736 590.716 504.472L589.276 505.096C588.812 504.088 588.412 503.304 587.82 502.488L589.212 501.912ZM591.356 501.032C591.82 501.672 592.54 502.808 592.908 503.528L591.516 504.2C591.004 503.192 590.572 502.456 589.98 501.656L591.356 501.032ZM578.428 508.44C578.908 508.056 579.26 507.704 579.756 507.224C580.476 506.488 581.724 504.92 582.828 503.608C583.772 502.488 584.716 502.312 585.964 503.48C587.036 504.488 588.268 505.768 589.228 506.808C590.3 507.944 591.932 509.72 593.164 511.032L591.404 512.92C590.332 511.592 588.972 509.944 588.028 508.84C587.1 507.736 585.676 506.184 585.1 505.592C584.588 505.08 584.252 505.112 583.788 505.688C583.164 506.488 582.028 508.072 581.388 508.936C581.02 509.448 580.636 510.008 580.348 510.424L578.428 508.44ZM602.556 512.648C602.62 512.344 602.684 511.896 602.684 511.464V502.136C602.684 501.416 602.572 500.808 602.556 500.76H604.94C604.924 500.808 604.828 501.432 604.828 502.152V510.52C606.124 509.96 607.708 508.696 608.78 507.144L610.012 508.904C608.684 510.632 606.38 512.36 604.588 513.272C604.236 513.464 604.044 513.624 603.9 513.752L602.556 512.648ZM595.148 512.408C596.556 511.416 597.42 509.944 597.868 508.584C598.316 507.208 598.332 504.184 598.332 502.248C598.332 501.608 598.284 501.176 598.188 500.776H600.54C600.524 500.856 600.428 501.56 600.428 502.232C600.428 504.12 600.38 507.496 599.948 509.112C599.468 510.92 598.46 512.488 597.1 513.704L595.148 512.408Z" fill="#1A1A1A"/>
<path opacity="0.9" d="M3.76 536.768C4.912 536.912 6.384 536.976 7.984 536.976C9.52 536.976 11.152 536.864 12.304 536.752V538.064C11.216 538.144 9.472 538.256 7.984 538.256C6.384 538.256 5.024 538.176 3.76 538.08V536.768ZM4.4 543.216C4.192 543.856 4.064 544.448 4.064 545.04C4.064 546.256 5.312 547.104 7.872 547.104C10.08 547.104 12.144 546.864 13.344 546.464L13.36 547.84C12.208 548.16 10.176 548.4 7.904 548.4C4.656 548.4 2.768 547.328 2.768 545.312C2.768 544.496 2.96 543.744 3.104 543.088L4.4 543.216ZM31.168 542.4C31.168 545.76 28.96 548 25.168 548.496L24.416 547.312C24.928 547.264 25.424 547.184 25.792 547.104C27.84 546.64 29.856 545.12 29.856 542.352C29.856 539.936 28.304 537.936 25.584 537.712C25.376 539.2 25.072 540.832 24.624 542.32C23.648 545.616 22.384 547.296 20.896 547.296C19.472 547.296 18.048 545.664 18.048 543.024C18.048 539.552 21.136 536.512 25.04 536.512C28.784 536.512 31.168 539.152 31.168 542.4ZM19.296 542.912C19.296 544.928 20.224 545.824 20.944 545.824C21.696 545.824 22.544 544.752 23.36 542.048C23.76 540.72 24.08 539.2 24.256 537.728C21.184 538.112 19.296 540.736 19.296 542.912ZM37.872 534.672L39.008 535.04C38.576 536.192 38 537.36 37.376 538.464V549.2H36.192V540.304C35.696 541.008 35.152 541.648 34.608 542.208C34.496 541.936 34.144 541.28 33.92 541.024C35.504 539.488 36.976 537.104 37.872 534.672ZM48.608 538.416H43.68V540.704H48.24V541.808H43.68V544.224H48.464V545.344H43.68V549.216H42.48V538.416H41.376C40.688 539.696 39.904 540.848 39.104 541.744C38.912 541.536 38.448 541.136 38.176 540.944C39.616 539.456 40.912 537.152 41.696 534.816L42.832 535.12C42.576 535.856 42.272 536.576 41.952 537.28H48.608V538.416ZM53.68 534.672L54.784 534.976C54.432 536.048 54 537.12 53.504 538.144V549.216H52.4V540.208C51.92 540.992 51.424 541.712 50.896 542.336C50.784 542.048 50.464 541.424 50.272 541.136C51.648 539.552 52.912 537.12 53.68 534.672ZM58.88 539.792H56.704C56.528 540.384 56.32 540.96 56.096 541.52C56.8 541.984 57.6 542.592 58.112 543.088C58.448 542.112 58.704 541.008 58.88 539.792ZM54.848 536.496V535.424H60.624V536.496H57.44C57.312 537.232 57.168 537.984 56.992 538.752H59.2L59.408 538.72L60.096 538.928C59.472 544.096 57.712 547.488 55.264 549.264C55.12 548.992 54.736 548.528 54.496 548.352C55.808 547.44 56.896 546.048 57.696 544.192C57.2 543.664 56.384 542.976 55.648 542.464C55.344 543.056 54.976 543.584 54.576 544.064C54.416 543.824 54.08 543.44 53.856 543.248C55.264 541.568 55.952 538.816 56.288 536.496H54.848ZM61.76 536.416V545.584H60.704V536.416H61.76ZM63.616 534.864H64.704V547.728C64.704 548.464 64.544 548.816 64.064 549.008C63.616 549.2 62.832 549.232 61.568 549.232C61.504 548.928 61.36 548.4 61.184 548.08C62.144 548.112 62.992 548.096 63.248 548.096C63.52 548.08 63.616 548 63.616 547.728V534.864ZM81.088 542.4C81.088 545.76 78.88 548 75.088 548.496L74.336 547.312C74.848 547.264 75.344 547.184 75.712 547.104C77.76 546.64 79.776 545.12 79.776 542.352C79.776 539.936 78.224 537.936 75.504 537.712C75.296 539.2 74.992 540.832 74.544 542.32C73.568 545.616 72.304 547.296 70.816 547.296C69.392 547.296 67.968 545.664 67.968 543.024C67.968 539.552 71.056 536.512 74.96 536.512C78.704 536.512 81.088 539.152 81.088 542.4ZM69.216 542.912C69.216 544.928 70.144 545.824 70.864 545.824C71.616 545.824 72.464 544.752 73.28 542.048C73.68 540.72 74 539.2 74.176 537.728C71.104 538.112 69.216 540.736 69.216 542.912ZM96.272 537.248V535.984H91.152V537.248H96.272ZM96.272 539.36V538.08H91.152V539.36H96.272ZM97.376 535.088V540.256H90.064V535.088H97.376ZM88.704 542.944L88.96 544C87.344 544.816 85.6 545.664 84.256 546.304L83.792 545.136C84.4 544.88 85.152 544.56 85.968 544.192V539.184H84.096V538.064H85.968V534.736H87.072V538.064H88.8V539.184H87.072V543.68L88.704 542.944ZM98.512 542.16H91.936C91.728 542.544 91.504 542.928 91.248 543.28H98.128C98.128 543.28 98.112 543.6 98.08 543.76C97.84 547.056 97.584 548.304 97.136 548.768C96.896 549.04 96.608 549.12 96.24 549.168C95.888 549.184 95.296 549.184 94.656 549.152C94.656 548.864 94.544 548.432 94.384 548.192C94.976 548.24 95.504 548.256 95.744 548.256C95.968 548.256 96.112 548.24 96.224 548.08C96.496 547.792 96.736 546.784 96.944 544.272H95.696C95.056 546.176 93.808 548.24 92.432 549.28C92.24 549.04 91.872 548.768 91.584 548.592C92.88 547.728 94.048 546 94.704 544.272H93.152C92.304 545.92 90.736 547.664 89.264 548.592C89.088 548.336 88.768 548.048 88.48 547.856C89.808 547.136 91.216 545.696 92.08 544.272H90.464C89.824 544.992 89.104 545.616 88.384 546.096C88.224 545.904 87.808 545.52 87.568 545.36C88.832 544.608 89.984 543.472 90.736 542.16H88.496V541.152H98.512V542.16ZM111.52 543.936H104.176V547.504H111.52V543.936ZM103.008 549.232V542.864H112.736V549.232H111.52V548.576H104.176V549.232H103.008ZM103.84 539.808H111.856V540.864H103.84V539.808ZM107.136 534.656H108.336C110.032 537.008 112.848 539.232 115.36 540.368C115.072 540.64 114.784 541.056 114.576 541.392C112.096 540.096 109.296 537.856 107.808 535.808C106.496 537.76 103.904 540.032 101.168 541.488C101.024 541.216 100.704 540.8 100.432 540.544C103.216 539.136 105.888 536.704 107.136 534.656ZM120.848 548.896C119.824 547.632 118.448 546.256 117.312 545.328L118.352 544.416C119.504 545.344 120.944 546.8 121.936 547.968L120.848 548.896ZM137.424 534.672L138.512 535.008C138.064 536.16 137.52 537.312 136.896 538.4V549.2H135.728V540.224C135.232 540.928 134.688 541.584 134.144 542.144C134.016 541.888 133.68 541.28 133.472 541.024C135.04 539.488 136.528 537.104 137.424 534.672ZM142.016 547.936H146.096C147.072 547.936 147.232 547.504 147.376 545.616C147.664 545.824 148.128 546.032 148.48 546.112C148.272 548.304 147.904 549.008 146.144 549.008H141.968C140.064 549.008 139.504 548.56 139.504 546.816V541.616L137.952 542.224L137.488 541.184L139.504 540.4V536.192H140.672V539.936L143.008 539.024V534.64H144.144V538.608L146.624 537.648L146.784 537.504L146.992 537.328L147.808 537.664L147.76 537.872C147.76 540.752 147.712 543.056 147.568 543.728C147.44 544.464 147.104 544.768 146.608 544.896C146.176 545.008 145.472 545.024 144.992 545.008C144.96 544.656 144.848 544.176 144.704 543.888C145.136 543.92 145.712 543.92 145.92 543.92C146.208 543.92 146.368 543.856 146.464 543.44C146.592 543.008 146.624 541.328 146.64 538.832L144.144 539.808V545.68H143.008V540.256L140.672 541.184V546.816C140.672 547.728 140.88 547.936 142.016 547.936ZM164.288 542.4C164.288 545.76 162.08 548 158.288 548.496L157.536 547.312C158.048 547.264 158.544 547.184 158.912 547.104C160.96 546.64 162.976 545.12 162.976 542.352C162.976 539.936 161.424 537.936 158.704 537.712C158.496 539.2 158.192 540.832 157.744 542.32C156.768 545.616 155.504 547.296 154.016 547.296C152.592 547.296 151.168 545.664 151.168 543.024C151.168 539.552 154.256 536.512 158.16 536.512C161.904 536.512 164.288 539.152 164.288 542.4ZM152.416 542.912C152.416 544.928 153.344 545.824 154.064 545.824C154.816 545.824 155.664 544.752 156.48 542.048C156.88 540.72 157.2 539.2 157.376 537.728C154.304 538.112 152.416 540.736 152.416 542.912ZM169.152 537.024C169.68 537.088 170.384 537.12 170.896 537.12H178.784C179.168 537.12 179.648 537.104 179.968 537.088C179.952 537.456 179.92 537.952 179.92 538.336V546.592C179.92 547.168 179.968 547.888 179.984 548.144H178.544C178.56 547.968 178.56 547.632 178.576 547.248H170.752C170.096 547.248 169.376 547.28 168.944 547.312V545.856C169.36 545.904 170.048 545.952 170.72 545.952H178.576V538.4H170.912C170.32 538.4 169.52 538.432 169.152 538.448V537.024ZM186.672 536.272C187.808 537.024 189.856 538.688 190.752 539.584L189.744 540.592C188.944 539.76 186.944 538.048 185.76 537.248L186.672 536.272ZM185.296 546.992C188.096 546.576 190.176 545.6 191.696 544.656C194.16 543.104 196.112 540.736 197.04 538.768L197.808 540.128C196.72 542.128 194.848 544.304 192.432 545.824C190.832 546.832 188.816 547.808 186.144 548.304L185.296 546.992ZM211.76 536.176C211.76 536.752 212.208 537.2 212.768 537.2C213.344 537.2 213.808 536.752 213.808 536.176C213.808 535.616 213.344 535.152 212.768 535.152C212.208 535.152 211.76 535.616 211.76 536.176ZM211.024 536.176C211.024 535.216 211.808 534.416 212.768 534.416C213.744 534.416 214.528 535.216 214.528 536.176C214.528 537.152 213.744 537.92 212.768 537.92C211.808 537.92 211.024 537.152 211.024 536.176ZM208.352 535.664C208.304 535.888 208.256 536.464 208.256 536.816V538.448H212.48C212.864 538.448 213.392 538.416 213.792 538.368V539.696C213.36 539.664 212.88 539.664 212.496 539.664H208.256V547.408C208.256 548.256 207.84 548.688 206.88 548.688C206.208 548.688 205.248 548.64 204.608 548.576L204.496 547.296C205.184 547.424 205.92 547.488 206.336 547.488C206.768 547.488 206.96 547.296 206.96 546.88V539.664H202.512C202.032 539.664 201.584 539.68 201.152 539.712V538.368C201.6 538.416 202 538.448 202.512 538.448H206.96V536.8C206.96 536.448 206.912 535.904 206.848 535.664H208.352ZM211.52 541.6C212.368 542.624 213.648 544.624 214.288 545.776L213.104 546.432C212.48 545.184 211.28 543.184 210.432 542.176L211.52 541.6ZM204.832 542.128C204.16 543.504 202.656 545.536 201.76 546.512L200.656 545.776C201.712 544.784 203.088 542.88 203.712 541.584L204.832 542.128ZM217.952 541.072C218.432 541.104 219.28 541.152 220.176 541.152H228.944C229.744 541.152 230.32 541.104 230.672 541.072V542.64C230.352 542.624 229.68 542.56 228.96 542.56H220.176C219.296 542.56 218.448 542.592 217.952 542.64V541.072ZM241.808 535.184C241.744 535.536 241.712 536.144 241.712 536.592V537.616H244.352C244.72 537.616 245.088 537.6 245.36 537.52L246.192 538.32C245.904 538.624 245.552 538.992 245.296 539.28C244.496 540.24 243.152 541.584 241.68 542.608C241.68 543.92 241.664 545.84 241.664 546.912C241.664 547.472 241.712 548.176 241.744 548.672H240.288C240.336 548.208 240.384 547.472 240.384 546.912C240.384 545.984 240.4 544.512 240.4 543.424C238.912 544.288 237.152 544.992 234.992 545.648L234.224 544.464C237.248 543.744 239.248 542.688 240.704 541.744C242.128 540.832 243.408 539.568 243.952 538.816H237.312C236.752 538.816 235.84 538.848 235.344 538.88V537.536C235.856 537.6 236.752 537.616 237.28 537.616H240.416V536.592C240.416 536.144 240.4 535.536 240.336 535.184H241.808ZM246.944 545.856C245.552 544.832 244.592 544.192 243.088 543.392L243.92 542.448C245.424 543.248 246.288 543.76 247.776 544.768L246.944 545.856ZM253.232 536.272C254.368 537.024 256.416 538.688 257.312 539.584L256.304 540.592C255.504 539.76 253.504 538.048 252.32 537.248L253.232 536.272ZM251.856 546.992C254.656 546.576 256.736 545.6 258.256 544.656C260.72 543.104 262.672 540.736 263.6 538.768L264.368 540.128C263.28 542.128 261.408 544.304 258.992 545.824C257.392 546.832 255.376 547.808 252.704 548.304L251.856 546.992ZM271.632 546.592V537.28C271.632 536.832 271.6 536.112 271.504 535.616H273.072C273.024 536.112 272.96 536.8 272.96 537.28C272.96 537.952 272.96 538.88 272.96 539.888C275.072 540.528 278.112 541.68 279.792 542.528L279.248 543.888C277.504 542.944 274.736 541.872 272.96 541.312C272.976 543.712 272.976 546.128 272.976 546.592C272.976 547.088 273.008 547.952 273.072 548.48H271.52C271.6 547.968 271.632 547.184 271.632 546.592ZM289.664 535.568C289.6 535.872 289.536 536.208 289.488 536.528C289.392 536.992 289.248 537.936 289.072 538.8C289.824 538.736 290.48 538.688 290.864 538.688C292.304 538.688 293.472 539.232 293.472 541.408C293.472 543.312 293.2 545.856 292.544 547.184C292.032 548.256 291.232 548.512 290.208 548.512C289.584 548.512 288.832 548.4 288.32 548.288L288.112 546.944C288.784 547.152 289.616 547.28 290.064 547.28C290.656 547.28 291.152 547.152 291.472 546.448C291.984 545.376 292.224 543.28 292.224 541.552C292.224 540.096 291.552 539.824 290.528 539.824C290.144 539.824 289.504 539.872 288.816 539.936C288.224 542.224 287.136 545.856 285.44 548.56L284.144 548.032C285.776 545.856 286.976 542.208 287.52 540.064C286.672 540.144 285.904 540.224 285.488 540.272C285.12 540.32 284.448 540.4 284.048 540.464L283.904 539.088C284.416 539.104 284.832 539.104 285.344 539.088C285.872 539.072 286.8 538.992 287.776 538.912C288.016 537.76 288.192 536.512 288.192 535.424L289.664 535.568ZM295.168 537.424C296.16 538.72 297.568 541.616 298.096 543.104L296.864 543.696C296.384 542.048 295.136 539.264 294 537.952L295.168 537.424ZM295.36 535.104C295.76 535.664 296.336 536.656 296.672 537.296L295.792 537.68C295.472 537.04 294.928 536.064 294.496 535.456L295.36 535.104ZM297.12 534.448C297.536 535.04 298.16 536.048 298.464 536.64L297.6 537.024C297.248 536.336 296.72 535.424 296.272 534.816L297.12 534.448ZM309.488 545.232H305.552V546.864H309.488V545.232ZM310.544 547.744H305.552V548.544H304.496V544.368H310.544V547.744ZM313.808 542.336V547.808C313.808 548.448 313.664 548.8 313.168 549.008C312.64 549.184 311.808 549.184 310.48 549.184C310.416 548.864 310.256 548.384 310.096 548.08C311.12 548.112 312.016 548.112 312.304 548.08C312.576 548.08 312.624 548 312.624 547.776V543.344H302.464V549.216H301.328V542.336H313.808ZM310.624 540.464V538.912H304.384V540.464H310.624ZM303.248 538.064H311.808V541.328H303.248V538.064ZM308.032 536.128H314.416V537.168H300.624V536.128H306.832V534.608H308.032V536.128ZM324.544 536.656C324.432 536.32 324.288 535.824 324.144 535.408L325.504 535.232C325.632 535.984 325.92 537.04 326.24 537.968C327.392 537.808 328.72 537.552 329.808 537.184L329.952 538.432C328.976 538.72 327.712 538.944 326.64 539.088C327.136 540.32 327.84 541.552 328.432 542.384C328.656 542.688 328.896 542.96 329.136 543.232L328.48 544.128C327.712 543.952 325.776 543.776 324.624 543.696L324.72 542.624C325.616 542.704 326.8 542.8 327.376 542.864C326.752 541.952 325.984 540.544 325.44 539.216C323.536 539.392 321.232 539.376 318.72 539.184L318.688 537.904C321.04 538.192 323.264 538.224 325.008 538.096C324.816 537.504 324.656 537.024 324.544 536.656ZM321.152 543.008C320.672 543.776 320.4 544.464 320.4 545.232C320.4 546.752 321.792 547.424 324.16 547.44C325.792 547.456 327.168 547.296 328.288 547.04L328.224 548.32C327.232 548.496 325.872 548.672 324.096 548.672C321.056 548.656 319.136 547.552 319.136 545.376C319.136 544.496 319.456 543.664 319.904 542.72L321.152 543.008ZM336.352 547.488C336.464 547.232 336.512 547.024 336.512 546.704V537.552C336.512 537.136 336.432 536.416 336.368 536.096H337.952C337.888 536.496 337.84 537.088 337.84 537.552V546.624C340.896 545.856 344.608 543.744 346.592 541.168L347.312 542.288C345.232 544.864 341.936 546.848 337.952 548C337.776 548.048 337.536 548.128 337.28 548.288L336.352 547.488ZM360.496 537.152C360.896 537.728 361.632 538.928 362.016 539.68L361.072 540.112C360.672 539.264 360.112 538.272 359.584 537.536L360.496 537.152ZM362.544 536.336C362.976 536.896 363.728 538.08 364.112 538.832L363.184 539.28C362.768 538.432 362.192 537.472 361.648 536.752L362.544 536.336ZM350.288 543.792C350.704 543.44 350.992 543.152 351.424 542.72C352.176 541.952 353.568 540.176 354.576 538.992C355.44 537.984 356.192 537.808 357.28 538.832C358.256 539.76 359.616 541.184 360.56 542.192C361.632 543.328 363.232 545.072 364.464 546.384L363.36 547.552C362.224 546.176 360.816 544.544 359.792 543.376C358.864 542.32 357.376 540.736 356.704 540.08C356.08 539.472 355.776 539.536 355.232 540.192C354.464 541.136 353.136 542.88 352.4 543.776C352.08 544.176 351.728 544.672 351.488 545.008L350.288 543.792ZM374.464 547.664C374.528 547.408 374.576 547.088 374.576 546.768V537.184C374.576 536.576 374.496 536.112 374.48 536H375.952C375.936 536.112 375.888 536.576 375.888 537.184V546.416C377.36 545.744 379.328 544.288 380.56 542.48L381.312 543.568C379.936 545.44 377.712 547.088 375.856 548C375.6 548.144 375.424 548.272 375.312 548.368L374.464 547.664ZM367.136 547.584C368.48 546.624 369.44 545.2 369.92 543.648C370.384 542.192 370.4 538.992 370.4 537.216C370.4 536.736 370.352 536.384 370.288 536.048H371.76C371.744 536.24 371.68 536.72 371.68 537.2C371.68 538.976 371.616 542.4 371.184 544C370.704 545.712 369.68 547.28 368.336 548.4L367.136 547.584ZM384.128 548V546.784H386.736V538.032H384.656V537.104C385.696 536.912 386.448 536.64 387.088 536.256H388.208V546.784H390.56V548H384.128ZM399.531 537.2C401.275 537.488 404.507 537.424 406.107 537.184V538.48C404.395 538.672 401.291 538.672 399.531 538.48V537.2ZM400.155 543.712C399.995 544.304 399.915 544.752 399.915 545.184C399.915 545.92 400.443 546.624 402.619 546.624C404.059 546.624 405.291 546.496 406.587 546.208L406.619 547.552C405.611 547.744 404.267 547.888 402.619 547.888C399.931 547.888 398.731 546.992 398.731 545.488C398.731 544.944 398.827 544.384 399.003 543.6L400.155 543.712ZM396.475 535.968C396.395 536.24 396.251 536.752 396.187 537.04C395.883 538.512 395.387 541.376 395.387 543.168C395.387 543.952 395.435 544.624 395.531 545.408C395.803 544.688 396.187 543.728 396.459 543.072L397.131 543.584C396.715 544.72 396.139 546.416 395.995 547.168C395.947 547.408 395.899 547.712 395.915 547.888C395.931 548.064 395.947 548.288 395.963 548.448L394.811 548.528C394.491 547.392 394.219 545.552 394.219 543.392C394.219 541.04 394.747 538.304 394.939 536.976C395.003 536.608 395.051 536.192 395.051 535.84L396.475 535.968ZM422.443 542.272L423.387 543.008C422.379 543.824 421.067 544.688 419.995 545.312C421.067 546.624 422.507 547.584 424.299 548.128C424.027 548.352 423.691 548.848 423.531 549.168C420.123 548.016 418.075 545.44 416.955 541.824C416.299 542.48 415.483 543.12 414.587 543.696V547.312C415.851 547.008 417.211 546.672 418.539 546.336L418.667 547.392C416.155 548.064 413.435 548.736 411.531 549.216L411.147 548.128C411.787 547.984 412.555 547.808 413.387 547.6V544.416C412.315 544.992 411.195 545.488 410.171 545.824C409.979 545.52 409.643 545.104 409.403 544.848C411.483 544.256 413.899 543.072 415.467 541.744H409.931V540.704H416.251V539.264H411.243V538.288H416.251V536.976H410.523V535.936H416.251V534.608H417.435V535.936H423.259V536.976H417.435V538.288H422.651V539.264H417.435V540.704H423.803V541.744H418.075C418.411 542.768 418.843 543.712 419.419 544.544C420.443 543.888 421.675 542.992 422.443 542.272ZM439.115 535.808V536.976H427.947V535.808H439.115ZM429.307 542.384L430.523 542.704C429.739 544.656 428.491 546.56 427.211 547.776C426.987 547.584 426.443 547.216 426.139 547.056C427.451 545.936 428.603 544.192 429.307 542.384ZM436.427 542.848L437.515 542.4C438.683 543.888 439.931 545.92 440.395 547.264L439.227 547.776C438.779 546.464 437.595 544.4 436.427 542.848ZM426.523 539.664H440.523V540.832H434.171V547.68C434.171 548.432 433.979 548.8 433.419 548.992C432.859 549.184 431.915 549.2 430.523 549.2C430.459 548.848 430.267 548.32 430.091 547.968C431.179 548 432.219 548 432.507 547.984C432.811 547.984 432.907 547.904 432.907 547.648V540.832H426.523V539.664ZM450.539 536.656C450.427 536.32 450.283 535.824 450.139 535.408L451.499 535.232C451.627 535.984 451.915 537.04 452.235 537.968C453.387 537.808 454.715 537.552 455.803 537.184L455.947 538.432C454.971 538.72 453.707 538.944 452.635 539.088C453.131 540.32 453.835 541.552 454.427 542.384C454.651 542.688 454.891 542.96 455.131 543.232L454.475 544.128C453.707 543.952 451.771 543.776 450.619 543.696L450.715 542.624C451.611 542.704 452.795 542.8 453.371 542.864C452.747 541.952 451.979 540.544 451.435 539.216C449.531 539.392 447.227 539.376 444.715 539.184L444.683 537.904C447.035 538.192 449.259 538.224 451.003 538.096C450.811 537.504 450.651 537.024 450.539 536.656ZM447.147 543.008C446.667 543.776 446.395 544.464 446.395 545.232C446.395 546.752 447.787 547.424 450.155 547.44C451.787 547.456 453.163 547.296 454.283 547.04L454.219 548.32C453.227 548.496 451.867 548.672 450.091 548.672C447.051 548.656 445.131 547.552 445.131 545.376C445.131 544.496 445.451 543.664 445.899 542.72L447.147 543.008ZM463.483 536.48C463.483 536.128 463.483 535.696 463.419 535.296L464.923 535.344C464.843 535.744 464.715 536.64 464.603 537.76C464.635 537.744 464.667 537.744 464.699 537.728L465.163 538.288C464.955 538.576 464.683 539.008 464.443 539.408C464.411 539.712 464.395 540.016 464.363 540.336C465.611 539.184 467.675 537.632 469.291 537.632C470.779 537.632 471.515 538.48 471.515 539.776C471.515 541.376 470.923 544.128 470.923 545.76C470.923 546.288 471.179 546.736 471.755 546.736C472.523 546.736 473.355 546.272 474.171 545.408L474.379 546.784C473.531 547.632 472.523 548.112 471.435 548.112C470.379 548.112 469.659 547.424 469.659 546.096C469.659 544.32 470.267 541.696 470.267 540.128C470.267 539.2 469.787 538.816 468.971 538.816C467.675 538.816 465.739 540.32 464.267 541.888C464.235 542.56 464.219 543.2 464.219 543.776C464.219 545.232 464.203 546.208 464.283 547.632C464.299 547.92 464.331 548.32 464.363 548.608H462.971C463.003 548.32 463.019 547.92 463.019 547.664C463.035 546.128 463.035 545.312 463.067 543.568C463.067 543.408 463.083 543.184 463.083 542.928C462.299 544.112 461.243 545.632 460.475 546.72L459.659 545.616C460.555 544.496 462.411 542 463.211 540.752C463.243 540.224 463.291 539.68 463.323 539.168C462.603 539.264 461.195 539.456 460.187 539.6L460.059 538.288C460.411 538.304 460.715 538.288 461.099 538.272C461.627 538.24 462.571 538.144 463.403 538C463.451 537.248 463.483 536.656 463.483 536.48ZM476.311 537.376C476.919 537.36 477.431 537.328 477.735 537.296C478.775 537.184 481.799 536.88 484.743 536.64C486.487 536.48 487.991 536.4 489.063 536.352V537.632C488.151 537.632 486.743 537.648 485.927 537.888C483.655 538.624 482.263 541.056 482.263 542.944C482.263 546.08 485.175 547.072 487.783 547.168L487.319 548.496C484.359 548.384 480.983 546.8 480.983 543.232C480.983 540.736 482.503 538.704 483.975 537.824C482.263 538.016 478.183 538.4 476.455 538.768L476.311 537.376ZM495.159 536.832C495.095 537.216 495.031 537.968 495.031 538.384C495.015 539.392 495.031 540.848 495.143 542.176C495.399 544.848 496.183 546.624 497.319 546.624C498.135 546.624 498.887 544.96 499.303 543.36L500.311 544.496C499.351 547.216 498.375 548.144 497.303 548.144C495.783 548.144 494.327 546.64 493.895 542.496C493.751 541.104 493.719 539.152 493.719 538.224C493.719 537.856 493.703 537.184 493.607 536.8L495.159 536.832ZM503.495 537.28C504.919 539.136 506.071 542.528 506.311 545.232L505.031 545.76C504.743 542.864 503.783 539.584 502.247 537.712L503.495 537.28ZM512.327 546.32C512.327 547.056 512.967 547.616 514.551 547.616C515.463 547.616 516.247 547.328 516.247 546.224C516.247 545.952 516.231 545.568 516.231 545.152C515.735 545.04 515.207 544.992 514.679 544.992C513.159 544.992 512.327 545.584 512.327 546.32ZM517.399 535.296C517.351 535.584 517.319 535.904 517.303 536.368C517.303 536.576 517.287 536.928 517.287 537.344C518.727 537.28 520.183 537.136 521.623 536.912L521.607 538.08C520.343 538.224 518.823 538.368 517.287 538.448C517.287 539.152 517.287 539.904 517.287 540.496C517.287 540.56 517.287 540.624 517.287 540.688C518.839 540.624 520.295 540.48 521.751 540.256L521.735 541.456C520.231 541.648 518.823 541.776 517.303 541.824C517.335 542.656 517.383 543.52 517.415 544.288C519.543 544.864 521.175 546.032 522.087 546.784L521.351 547.92C520.407 547.056 519.079 546.08 517.479 545.504C517.495 545.904 517.511 546.24 517.511 546.496C517.511 547.6 516.775 548.736 514.695 548.736C512.391 548.736 511.143 547.92 511.143 546.384C511.143 544.928 512.535 543.936 514.839 543.936C515.303 543.936 515.751 543.968 516.183 544.032C516.167 543.312 516.135 542.544 516.119 541.856C515.815 541.856 515.511 541.856 515.207 541.856C514.119 541.856 512.359 541.76 511.207 541.632L511.191 540.432C512.343 540.624 514.167 540.736 515.223 540.736C515.511 540.736 515.799 540.736 516.087 540.736C516.087 540.656 516.087 540.576 516.087 540.496C516.087 539.856 516.087 539.152 516.087 538.496C515.863 538.496 515.623 538.496 515.383 538.496C514.263 538.496 512.295 538.336 511.287 538.224L511.271 537.04C512.311 537.232 514.295 537.392 515.367 537.392C515.607 537.392 515.847 537.392 516.103 537.392C516.103 536.976 516.103 536.592 516.103 536.256C516.103 535.984 516.071 535.52 516.039 535.296H517.399ZM534.903 535.328C534.871 535.504 534.839 536.128 534.823 536.336C534.823 536.576 534.807 536.944 534.807 537.376C534.887 537.376 534.967 537.376 535.047 537.376C536.999 537.376 538.967 537.392 539.735 537.392L539.719 538.576C538.823 538.528 537.367 538.496 535.031 538.496C534.951 538.496 534.887 538.496 534.807 538.496C534.807 539.408 534.823 540.4 534.839 541.136C535.175 541.68 535.351 542.384 535.351 543.184C535.351 545.344 534.295 547.744 530.567 548.864L529.495 547.808C531.623 547.328 533.095 546.432 533.735 544.976C533.351 545.264 532.887 545.408 532.343 545.408C530.999 545.408 529.719 544.48 529.719 542.736C529.719 541.152 531.015 539.952 532.535 539.952C532.935 539.952 533.287 540.016 533.607 540.128C533.607 539.648 533.607 539.072 533.591 538.512C531.159 538.528 528.439 538.64 526.439 538.784L526.407 537.552C528.183 537.52 531.191 537.424 533.575 537.392C533.575 536.944 533.559 536.56 533.543 536.336C533.527 535.92 533.463 535.456 533.447 535.328H534.903ZM530.919 542.72C530.919 543.712 531.655 544.304 532.551 544.304C533.495 544.304 534.103 543.552 533.959 542.032C533.703 541.328 533.159 541.024 532.535 541.024C531.703 541.024 530.919 541.68 530.919 542.72ZM556.039 542.4C556.039 545.76 553.831 548 550.039 548.496L549.287 547.312C549.799 547.264 550.295 547.184 550.663 547.104C552.711 546.64 554.727 545.12 554.727 542.352C554.727 539.936 553.175 537.936 550.455 537.712C550.247 539.2 549.943 540.832 549.495 542.32C548.519 545.616 547.255 547.296 545.767 547.296C544.343 547.296 542.919 545.664 542.919 543.024C542.919 539.552 546.007 536.512 549.911 536.512C553.655 536.512 556.039 539.152 556.039 542.4ZM544.167 542.912C544.167 544.928 545.095 545.824 545.815 545.824C546.567 545.824 547.415 544.752 548.231 542.048C548.631 540.72 548.951 539.2 549.127 537.728C546.055 538.112 544.167 540.736 544.167 542.912ZM559.415 537.472C560.023 537.456 560.535 537.424 560.839 537.392C561.879 537.28 564.903 536.976 567.847 536.736C569.591 536.592 571.095 536.496 572.167 536.448V537.728C571.255 537.728 569.847 537.744 569.031 537.984C566.759 538.72 565.367 541.152 565.367 543.056C565.367 546.176 568.279 547.168 570.887 547.264L570.423 548.592C567.463 548.48 564.087 546.896 564.087 543.328C564.087 540.832 565.607 538.8 567.079 537.92C565.367 538.112 561.287 538.496 559.559 538.864L559.415 537.472ZM569.863 539.696C570.231 540.224 570.839 541.216 571.175 541.92L570.359 542.304C569.991 541.536 569.527 540.704 569.047 540.048L569.863 539.696ZM571.607 539.024C571.991 539.552 572.631 540.528 572.999 541.232L572.167 541.632C571.783 540.848 571.319 540.064 570.823 539.392L571.607 539.024ZM578.518 548.896C577.494 547.632 576.118 546.256 574.982 545.328L576.022 544.416C577.174 545.344 578.614 546.8 579.606 547.968L578.518 548.896ZM603.03 535.104C603.43 535.68 604.006 536.64 604.342 537.296L603.494 537.68L604.246 538.128C604.118 538.352 603.958 538.72 603.878 538.976C603.446 540.448 602.566 542.336 601.366 543.968C602.054 544.464 602.678 544.944 603.19 545.36L602.246 546.464C601.766 546.032 601.174 545.536 600.502 545.024C599.078 546.608 597.11 548.064 594.406 549.088L593.254 548.08C595.958 547.264 598.022 545.792 599.446 544.24C598.31 543.408 597.078 542.576 596.054 541.936L596.918 541.04C597.974 541.648 599.174 542.432 600.294 543.216C601.334 541.808 602.15 540.096 602.47 538.784H597.062C596.038 540.208 594.614 541.776 592.822 543.008L591.75 542.192C594.502 540.48 596.15 538.064 596.886 536.608C597.046 536.32 597.302 535.76 597.398 535.344L598.854 535.808C598.582 536.224 598.294 536.768 598.134 537.072C598.038 537.248 597.926 537.44 597.814 537.632H602.134C602.566 537.632 602.934 537.584 603.19 537.488L603.462 537.648C603.142 537.008 602.614 536.064 602.182 535.472L603.03 535.104ZM604.79 534.464C605.206 535.04 605.83 536.048 606.134 536.64L605.27 537.024C604.918 536.32 604.39 535.424 603.942 534.816L604.79 534.464ZM608.806 542.224C611.574 541.472 614.022 540.352 615.798 539.232C617.462 538.192 619.062 536.8 620.166 535.472L621.238 536.464C620.022 537.728 618.55 538.944 616.918 540.032V546.784C616.918 547.392 616.95 548.176 617.014 548.496H615.446C615.494 548.192 615.542 547.392 615.542 546.784V540.864C613.862 541.824 611.67 542.784 609.446 543.472L608.806 542.224ZM638.966 537.184C638.854 537.344 638.646 537.584 638.534 537.76C637.894 538.848 636.374 540.912 634.55 542.176L633.494 541.328C634.966 540.48 636.47 538.736 636.998 537.744H627.878C627.286 537.744 626.678 537.776 626.054 537.84V536.384C626.614 536.464 627.286 536.528 627.878 536.528H637.062C637.366 536.528 637.942 536.48 638.182 536.432L638.966 537.184ZM632.582 539.296C632.582 543.632 632.198 546.56 628.118 548.592L626.934 547.632C627.382 547.488 627.926 547.232 628.374 546.912C630.854 545.392 631.206 543.12 631.206 540.448C631.206 540.064 631.19 539.712 631.142 539.296H632.582ZM643.046 537.04C643.67 537.056 644.102 537.072 644.47 537.072H653.062C653.414 537.072 653.99 537.072 654.47 537.04C654.438 537.44 654.438 537.888 654.438 538.288V546.176C654.438 546.688 654.454 547.936 654.47 548.112H653.094C653.094 548 653.11 547.616 653.11 547.184H644.374C644.39 547.6 644.39 547.984 644.406 548.112H643.03C643.046 547.904 643.078 546.72 643.078 546.16V538.288C643.078 537.92 643.078 537.424 643.046 537.04ZM644.374 538.336V545.936H653.126V538.336H644.374ZM669.59 535.2C669.99 535.776 670.566 536.736 670.902 537.392L670.038 537.776C669.718 537.136 669.174 536.16 668.742 535.568L669.59 535.2ZM671.35 534.56C671.766 535.152 672.39 536.144 672.694 536.736L671.83 537.12C671.478 536.432 670.95 535.52 670.502 534.928L671.35 534.56ZM665.286 535.968C665.03 536.384 664.742 536.928 664.582 537.216C664.47 537.44 664.342 537.664 664.214 537.888H668.55C668.982 537.888 669.334 537.84 669.59 537.744L670.646 538.384C670.518 538.608 670.358 538.976 670.278 539.232C669.846 540.848 668.87 543.008 667.446 544.752C665.99 546.528 664.07 547.984 661.078 549.104L659.91 548.048C662.854 547.184 664.854 545.744 666.31 544.032C667.542 542.576 668.534 540.496 668.854 539.04H663.462C662.486 540.4 661.158 541.824 659.398 542.976L658.294 542.16C661.046 540.512 662.614 538.176 663.318 536.752C663.478 536.464 663.718 535.888 663.814 535.472L665.286 535.968ZM676.742 537.024C677.27 537.088 677.974 537.12 678.486 537.12H686.374C686.758 537.12 687.238 537.104 687.558 537.088C687.542 537.456 687.51 537.952 687.51 538.336V546.592C687.51 547.168 687.558 547.888 687.574 548.144H686.134C686.15 547.968 686.15 547.632 686.166 547.248H678.342C677.686 547.248 676.966 547.28 676.534 547.312V545.856C676.95 545.904 677.638 545.952 678.31 545.952H686.166V538.4H678.502C677.91 538.4 677.11 538.432 676.742 538.448V537.024ZM694.262 536.272C695.398 537.024 697.446 538.688 698.342 539.584L697.334 540.592C696.534 539.76 694.534 538.048 693.35 537.248L694.262 536.272ZM692.886 546.992C695.686 546.576 697.766 545.6 699.286 544.656C701.75 543.104 703.702 540.736 704.63 538.768L705.398 540.128C704.31 542.128 702.438 544.304 700.022 545.824C698.422 546.832 696.406 547.808 693.734 548.304L692.886 546.992ZM719.35 536.176C719.35 536.752 719.798 537.2 720.358 537.2C720.934 537.2 721.398 536.752 721.398 536.176C721.398 535.616 720.934 535.152 720.358 535.152C719.798 535.152 719.35 535.616 719.35 536.176ZM718.614 536.176C718.614 535.216 719.398 534.416 720.358 534.416C721.334 534.416 722.118 535.216 722.118 536.176C722.118 537.152 721.334 537.92 720.358 537.92C719.398 537.92 718.614 537.152 718.614 536.176ZM715.942 535.664C715.894 535.888 715.846 536.464 715.846 536.816V538.448H720.07C720.454 538.448 720.982 538.416 721.382 538.368V539.696C720.95 539.664 720.47 539.664 720.086 539.664H715.846V547.408C715.846 548.256 715.43 548.688 714.47 548.688C713.798 548.688 712.838 548.64 712.198 548.576L712.086 547.296C712.774 547.424 713.51 547.488 713.926 547.488C714.358 547.488 714.55 547.296 714.55 546.88V539.664H710.102C709.622 539.664 709.174 539.68 708.742 539.712V538.368C709.19 538.416 709.59 538.448 710.102 538.448H714.55V536.8C714.55 536.448 714.502 535.904 714.438 535.664H715.942ZM719.11 541.6C719.958 542.624 721.238 544.624 721.878 545.776L720.694 546.432C720.07 545.184 718.87 543.184 718.022 542.176L719.11 541.6ZM712.422 542.128C711.75 543.504 710.246 545.536 709.35 546.512L708.246 545.776C709.302 544.784 710.678 542.88 711.302 541.584L712.422 542.128ZM725.542 541.072C726.022 541.104 726.87 541.152 727.766 541.152H736.534C737.334 541.152 737.91 541.104 738.262 541.072V542.64C737.942 542.624 737.27 542.56 736.55 542.56H727.766C726.886 542.56 726.038 542.592 725.542 542.64V541.072ZM749.398 535.184C749.334 535.536 749.302 536.144 749.302 536.592V537.616H751.942C752.31 537.616 752.678 537.6 752.95 537.52L753.782 538.32C753.494 538.624 753.142 538.992 752.886 539.28C752.086 540.24 750.742 541.584 749.27 542.608C749.27 543.92 749.254 545.84 749.254 546.912C749.254 547.472 749.302 548.176 749.334 548.672H747.878C747.926 548.208 747.974 547.472 747.974 546.912C747.974 545.984 747.99 544.512 747.99 543.424C746.502 544.288 744.742 544.992 742.582 545.648L741.814 544.464C744.838 543.744 746.838 542.688 748.294 541.744C749.718 540.832 750.998 539.568 751.542 538.816H744.902C744.342 538.816 743.43 538.848 742.934 538.88V537.536C743.446 537.6 744.342 537.616 744.87 537.616H748.006V536.592C748.006 536.144 747.99 535.536 747.926 535.184H749.398ZM754.534 545.856C753.142 544.832 752.182 544.192 750.678 543.392L751.51 542.448C753.014 543.248 753.878 543.76 755.366 544.768L754.534 545.856ZM760.822 536.272C761.958 537.024 764.006 538.688 764.902 539.584L763.894 540.592C763.094 539.76 761.094 538.048 759.91 537.248L760.822 536.272ZM759.446 546.992C762.246 546.576 764.326 545.6 765.846 544.656C768.31 543.104 770.262 540.736 771.19 538.768L771.958 540.128C770.87 542.128 768.998 544.304 766.582 545.824C764.982 546.832 762.966 547.808 760.294 548.304L759.446 546.992ZM779.222 546.592V537.28C779.222 536.832 779.19 536.112 779.094 535.616H780.662C780.614 536.112 780.55 536.8 780.55 537.28C780.55 537.952 780.55 538.88 780.55 539.888C782.662 540.528 785.702 541.68 787.382 542.528L786.838 543.888C785.094 542.944 782.326 541.872 780.55 541.312C780.566 543.712 780.566 546.128 780.566 546.592C780.566 547.088 780.598 547.952 780.662 548.48H779.11C779.19 547.968 779.222 547.184 779.222 546.592ZM797.606 546.08C797.606 546.896 798.406 547.344 799.558 547.344C800.902 547.344 801.302 546.656 801.302 545.6C801.302 545.44 801.302 545.248 801.286 545.04C800.774 544.88 800.23 544.784 799.654 544.784C798.454 544.784 797.606 545.296 797.606 546.08ZM802.454 535.68C802.406 536 802.374 536.32 802.358 536.64C802.342 537.072 802.326 537.824 802.31 538.576C803.286 538.496 804.23 538.368 805.078 538.208V539.44C804.198 539.584 803.27 539.68 802.31 539.744C802.326 541.36 802.438 542.96 802.502 544.304C803.798 544.816 804.838 545.616 805.67 546.368L804.966 547.44C804.166 546.688 803.366 546.048 802.55 545.584C802.55 545.696 802.55 545.808 802.55 545.92C802.55 547.232 801.942 548.496 799.782 548.496C797.638 548.496 796.454 547.648 796.454 546.208C796.454 544.864 797.654 543.792 799.75 543.792C800.278 543.792 800.774 543.84 801.238 543.936C801.19 542.704 801.094 541.136 801.078 539.824C800.566 539.84 800.054 539.856 799.542 539.856C798.63 539.856 797.798 539.808 796.854 539.744V538.544C797.766 538.624 798.614 538.672 799.574 538.672C800.07 538.672 800.582 538.656 801.078 538.64V536.656C801.078 536.384 801.046 535.952 801.014 535.68H802.454ZM794.55 535.776C794.454 536.048 794.326 536.576 794.278 536.864C793.958 538.352 793.478 541.52 793.478 543.312C793.478 544.08 793.526 544.752 793.638 545.536C793.894 544.816 794.278 543.84 794.55 543.184L795.206 543.696C794.822 544.816 794.23 546.448 794.07 547.232C794.022 547.456 793.99 547.76 794.006 547.952C794.006 548.112 794.022 548.336 794.038 548.512L792.918 548.592C792.598 547.456 792.31 545.696 792.31 543.536C792.31 541.184 792.838 538.128 793.046 536.8C793.094 536.432 793.142 536 793.142 535.664L794.55 535.776ZM811.302 536.048C811.686 536.096 812.086 536.112 812.566 536.112C813.27 536.112 816.566 535.968 817.494 535.856C817.862 535.824 818.166 535.76 818.358 535.712L819.174 536.624C818.95 536.752 818.534 537.04 818.31 537.216C817.126 538.208 814.806 540.144 813.526 541.152C815.958 540.896 818.838 540.688 821.142 540.688V541.872C819.574 541.792 818.038 541.808 817.078 541.936C815.526 542.16 814.006 543.488 814.006 544.992C814.006 546.608 815.302 547.152 816.758 547.344C817.702 547.472 818.486 547.44 819.062 547.392L818.79 548.688C814.886 548.864 812.758 547.632 812.758 545.184C812.758 543.808 813.798 542.656 814.614 542.16C812.902 542.304 810.774 542.544 808.854 542.864L808.742 541.664C809.606 541.568 810.694 541.44 811.51 541.344C813.238 540.144 815.782 537.92 816.79 537.024C816.086 537.072 813.27 537.2 812.582 537.248C812.182 537.28 811.702 537.328 811.366 537.36L811.302 536.048ZM838.278 542.4C838.278 545.76 836.07 548 832.278 548.496L831.526 547.312C832.038 547.264 832.534 547.184 832.902 547.104C834.95 546.64 836.966 545.12 836.966 542.352C836.966 539.936 835.414 537.936 832.694 537.712C832.486 539.2 832.182 540.832 831.734 542.32C830.758 545.616 829.494 547.296 828.006 547.296C826.582 547.296 825.158 545.664 825.158 543.024C825.158 539.552 828.246 536.512 832.15 536.512C835.894 536.512 838.278 539.152 838.278 542.4ZM826.406 542.912C826.406 544.928 827.334 545.824 828.054 545.824C828.806 545.824 829.654 544.752 830.47 542.048C830.87 540.72 831.19 539.2 831.366 537.728C828.294 538.112 826.406 540.736 826.406 542.912ZM842.694 536.912H854.102V538.176H842.694V536.912ZM841.35 546.336H855.446V547.632H841.35V546.336ZM866.55 536.336V537.568C866.55 538.864 866.23 540.432 864.63 541.44C864.486 541.216 864.054 540.784 863.83 540.624C865.254 539.744 865.446 538.592 865.446 537.536V535.28H870.166V539.2C870.166 539.504 870.182 539.664 870.262 539.728C870.326 539.776 870.406 539.792 870.518 539.792H870.982C871.11 539.792 871.254 539.776 871.318 539.744C871.398 539.696 871.462 539.584 871.494 539.392C871.526 539.152 871.558 538.672 871.558 538.032C871.766 538.208 872.166 538.4 872.47 538.48C872.438 539.104 872.39 539.824 872.31 540.08C872.214 540.352 872.054 540.512 871.83 540.608C871.654 540.72 871.334 540.768 871.078 540.768H870.262C869.974 540.768 869.59 540.688 869.382 540.48C869.158 540.288 869.062 540.016 869.062 539.136V536.336H866.55ZM864.342 545.712L860.054 546.48V549.2H858.934V546.688L857.83 546.88L857.622 545.728L858.934 545.52V535.808L859.574 536.032C860.998 535.648 862.486 535.12 863.35 534.624L864.374 535.472C863.19 536.048 861.558 536.544 860.054 536.912V538.752H863.734V539.84H860.054V541.792H863.862V542.896H860.054V545.328C861.366 545.12 862.838 544.864 864.278 544.608L864.342 545.712ZM870.118 542.752H866.246C866.678 543.856 867.302 544.848 868.102 545.68C868.95 544.864 869.638 543.904 870.118 542.752ZM870.886 541.616L871.638 541.92C871.078 543.808 870.15 545.296 868.966 546.448C869.942 547.232 871.11 547.808 872.47 548.176C872.182 548.4 871.846 548.88 871.686 549.2C870.294 548.768 869.078 548.112 868.07 547.232C866.854 548.144 865.462 548.8 863.958 549.248C863.83 548.944 863.542 548.464 863.302 548.208C864.726 547.84 866.086 547.248 867.222 546.4C866.358 545.44 865.686 544.272 865.19 542.96L865.974 542.752H864.534V541.664H870.662L870.886 541.616ZM878.614 535.248L879.398 535.712C878.966 537.008 878.422 538.624 877.926 539.92C878.998 541.216 879.238 542.368 879.238 543.344C879.254 544.192 879.062 544.864 878.646 545.168C878.438 545.328 878.166 545.408 877.862 545.456C877.574 545.488 877.206 545.488 876.87 545.472C876.854 545.168 876.742 544.736 876.566 544.432C876.902 544.448 877.19 544.464 877.398 544.448C877.606 544.448 877.766 544.4 877.894 544.336C878.118 544.144 878.198 543.696 878.198 543.216C878.182 542.368 877.926 541.28 876.87 540.048C877.286 538.88 877.718 537.456 878.038 536.368H876.102V549.216H875.046V535.296H878.454L878.614 535.248ZM883.862 539.456L883.958 540.384C882.374 540.784 880.726 541.216 879.446 541.52L879.126 540.512C879.446 540.448 879.782 540.384 880.166 540.304V534.816H881.238V536.736H883.718V537.712H881.238V540.064C882.07 539.872 882.966 539.664 883.862 539.456ZM887.014 545.056V543.536H881.542V545.056H887.014ZM881.542 547.584H887.014V545.984H881.542V547.584ZM883.334 540.912L884.518 541.168C884.342 541.632 884.15 542.112 883.974 542.528H888.166V549.12H887.014V548.592H881.542V549.184H880.454V542.528H882.838C883.03 542 883.238 541.376 883.334 540.912ZM886.006 540.256H887.558C887.942 540.256 888.038 540.064 888.07 538.752C888.31 538.928 888.742 539.104 889.062 539.184C888.934 540.832 888.63 541.248 887.67 541.248H885.878C884.678 541.248 884.406 540.96 884.406 539.776V534.816H885.478V537.168C886.39 536.768 887.318 536.256 887.878 535.792L888.71 536.576C887.798 537.168 886.582 537.712 885.478 538.112V539.776C885.478 540.192 885.542 540.256 886.006 540.256ZM900.278 545.232H896.342V546.864H900.278V545.232ZM901.334 547.744H896.342V548.544H895.286V544.368H901.334V547.744ZM904.598 542.336V547.808C904.598 548.448 904.454 548.8 903.958 549.008C903.43 549.184 902.598 549.184 901.27 549.184C901.206 548.864 901.046 548.384 900.886 548.08C901.91 548.112 902.806 548.112 903.094 548.08C903.366 548.08 903.414 548 903.414 547.776V543.344H893.254V549.216H892.118V542.336H904.598ZM901.414 540.464V538.912H895.174V540.464H901.414ZM894.038 538.064H902.598V541.328H894.038V538.064ZM898.822 536.128H905.206V537.168H891.414V536.128H897.622V534.608H898.822V536.128ZM910.518 536.832C910.454 537.216 910.39 537.968 910.39 538.384C910.374 539.392 910.39 540.848 910.502 542.176C910.758 544.848 911.542 546.624 912.678 546.624C913.494 546.624 914.246 544.96 914.662 543.36L915.67 544.496C914.71 547.216 913.734 548.144 912.662 548.144C911.142 548.144 909.686 546.64 909.254 542.496C909.11 541.104 909.078 539.152 909.078 538.224C909.078 537.856 909.062 537.184 908.966 536.8L910.518 536.832ZM918.854 537.28C920.278 539.136 921.43 542.528 921.67 545.232L920.39 545.76C920.102 542.864 919.142 539.584 917.606 537.712L918.854 537.28ZM927.958 548.896C926.934 547.632 925.558 546.256 924.422 545.328L925.462 544.416C926.614 545.344 928.054 546.8 929.046 547.968L927.958 548.896ZM9.968 572.232H6.032V573.864H9.968V572.232ZM11.024 574.744H6.032V575.544H4.976V571.368H11.024V574.744ZM14.288 569.336V574.808C14.288 575.448 14.144 575.8 13.648 576.008C13.12 576.184 12.288 576.184 10.96 576.184C10.896 575.864 10.736 575.384 10.576 575.08C11.6 575.112 12.496 575.112 12.784 575.08C13.056 575.08 13.104 575 13.104 574.776V570.344H2.944V576.216H1.808V569.336H14.288ZM11.104 567.464V565.912H4.864V567.464H11.104ZM3.728 565.064H12.288V568.328H3.728V565.064ZM8.512 563.128H14.896V564.168H1.104V563.128H7.312V561.608H8.512V563.128ZM25.024 563.656C24.912 563.32 24.768 562.824 24.624 562.408L25.984 562.232C26.112 562.984 26.4 564.04 26.72 564.968C27.872 564.808 29.2 564.552 30.288 564.184L30.432 565.432C29.456 565.72 28.192 565.944 27.12 566.088C27.616 567.32 28.32 568.552 28.912 569.384C29.136 569.688 29.376 569.96 29.616 570.232L28.96 571.128C28.192 570.952 26.256 570.776 25.104 570.696L25.2 569.624C26.096 569.704 27.28 569.8 27.856 569.864C27.232 568.952 26.464 567.544 25.92 566.216C24.016 566.392 21.712 566.376 19.2 566.184L19.168 564.904C21.52 565.192 23.744 565.224 25.488 565.096C25.296 564.504 25.136 564.024 25.024 563.656ZM21.632 570.008C21.152 570.776 20.88 571.464 20.88 572.232C20.88 573.752 22.272 574.424 24.64 574.44C26.272 574.456 27.648 574.296 28.768 574.04L28.704 575.32C27.712 575.496 26.352 575.672 24.576 575.672C21.536 575.656 19.616 574.552 19.616 572.376C19.616 571.496 19.936 570.664 20.384 569.72L21.632 570.008ZM47.808 569.4C47.808 572.76 45.6 575 41.808 575.496L41.056 574.312C41.568 574.264 42.064 574.184 42.432 574.104C44.48 573.64 46.496 572.12 46.496 569.352C46.496 566.936 44.944 564.936 42.224 564.712C42.016 566.2 41.712 567.832 41.264 569.32C40.288 572.616 39.024 574.296 37.536 574.296C36.112 574.296 34.688 572.664 34.688 570.024C34.688 566.552 37.776 563.512 41.68 563.512C45.424 563.512 47.808 566.152 47.808 569.4ZM35.936 569.912C35.936 571.928 36.864 572.824 37.584 572.824C38.336 572.824 39.184 571.752 40 569.048C40.4 567.72 40.72 566.2 40.896 564.728C37.824 565.112 35.936 567.736 35.936 569.912ZM53.472 574.488C53.584 574.232 53.632 574.024 53.632 573.704V564.552C53.632 564.136 53.552 563.416 53.488 563.096H55.072C55.008 563.496 54.96 564.088 54.96 564.552V573.624C58.016 572.856 61.728 570.744 63.712 568.168L64.432 569.288C62.352 571.864 59.056 573.848 55.072 575C54.896 575.048 54.656 575.128 54.4 575.288L53.472 574.488ZM77.616 564.152C78.016 564.728 78.752 565.928 79.136 566.68L78.192 567.112C77.792 566.264 77.232 565.272 76.704 564.536L77.616 564.152ZM79.664 563.336C80.096 563.896 80.848 565.08 81.232 565.832L80.304 566.28C79.888 565.432 79.312 564.472 78.768 563.752L79.664 563.336ZM67.408 570.792C67.824 570.44 68.112 570.152 68.544 569.72C69.296 568.952 70.688 567.176 71.696 565.992C72.56 564.984 73.312 564.808 74.4 565.832C75.376 566.76 76.736 568.184 77.68 569.192C78.752 570.328 80.352 572.072 81.584 573.384L80.48 574.552C79.344 573.176 77.936 571.544 76.912 570.376C75.984 569.32 74.496 567.736 73.824 567.08C73.2 566.472 72.896 566.536 72.352 567.192C71.584 568.136 70.256 569.88 69.52 570.776C69.2 571.176 68.848 571.672 68.608 572.008L67.408 570.792ZM91.584 574.664C91.648 574.408 91.696 574.088 91.696 573.768V564.184C91.696 563.576 91.616 563.112 91.6 563H93.072C93.056 563.112 93.008 563.576 93.008 564.184V573.416C94.48 572.744 96.448 571.288 97.68 569.48L98.432 570.568C97.056 572.44 94.832 574.088 92.976 575C92.72 575.144 92.544 575.272 92.432 575.368L91.584 574.664ZM84.256 574.584C85.6 573.624 86.56 572.2 87.04 570.648C87.504 569.192 87.52 565.992 87.52 564.216C87.52 563.736 87.472 563.384 87.408 563.048H88.88C88.864 563.24 88.8 563.72 88.8 564.2C88.8 565.976 88.736 569.4 88.304 571C87.824 572.712 86.8 574.28 85.456 575.4L84.256 574.584ZM104.064 575.208C102.224 575.208 101.072 574.44 100.304 573.608L101.04 572.648C101.728 573.368 102.624 573.992 103.952 573.992C105.344 573.992 106.336 573.16 106.336 571.8C106.336 570.408 105.392 569.464 102.688 569.464V568.344C105.104 568.344 105.936 567.368 105.936 566.104C105.936 564.984 105.168 564.248 103.952 564.248C103.008 564.248 102.176 564.712 101.52 565.384L100.736 564.456C101.616 563.64 102.656 563.048 104.016 563.048C105.984 563.048 107.424 564.136 107.424 565.992C107.424 567.416 106.576 568.36 105.344 568.824V568.888C106.72 569.208 107.824 570.264 107.824 571.864C107.824 573.96 106.144 575.208 104.064 575.208ZM118.795 567.416L117.675 568.024C117.243 566.92 116.219 565.288 115.211 564.12L116.267 563.592C117.323 564.76 118.347 566.328 118.795 567.416ZM116.523 570.52L116.795 571.656C114.587 572.664 112.171 573.72 110.411 574.488L109.979 573.256C110.603 573.016 111.355 572.712 112.187 572.36L111.915 562.472L113.131 562.424L113.371 571.864C114.395 571.432 115.467 570.968 116.523 570.52ZM124.827 575.256L123.835 576.168C123.099 575.064 121.611 573.384 120.251 571.944C119.003 573.832 117.259 575.224 114.763 576.264C114.603 576.024 114.107 575.48 113.819 575.24C119.307 573.224 121.003 569.352 121.707 562.44L123.003 562.568C122.619 565.992 122.011 568.712 120.891 570.856C122.315 572.296 124.011 574.072 124.827 575.256ZM134.091 574.28H141.131V575.464H126.875V574.28H132.843V561.864H134.091V566.76H140.043V567.944H134.091V574.28ZM149.931 564.2C151.675 564.488 154.907 564.424 156.507 564.184V565.48C154.795 565.672 151.691 565.672 149.931 565.48V564.2ZM150.555 570.712C150.395 571.304 150.315 571.752 150.315 572.184C150.315 572.92 150.843 573.624 153.019 573.624C154.459 573.624 155.691 573.496 156.987 573.208L157.019 574.552C156.011 574.744 154.667 574.888 153.019 574.888C150.331 574.888 149.131 573.992 149.131 572.488C149.131 571.944 149.227 571.384 149.403 570.6L150.555 570.712ZM146.875 562.968C146.795 563.24 146.651 563.752 146.587 564.04C146.283 565.512 145.787 568.376 145.787 570.168C145.787 570.952 145.835 571.624 145.931 572.408C146.203 571.688 146.587 570.728 146.859 570.072L147.531 570.584C147.115 571.72 146.539 573.416 146.395 574.168C146.347 574.408 146.299 574.712 146.315 574.888C146.331 575.064 146.347 575.288 146.363 575.448L145.211 575.528C144.891 574.392 144.619 572.552 144.619 570.392C144.619 568.04 145.147 565.304 145.339 563.976C145.403 563.608 145.451 563.192 145.451 562.84L146.875 562.968ZM164.331 565.16V563.304H163.387V565.16H164.331ZM166.011 569.384V566.168H164.923V569.16C164.923 569.368 164.939 569.384 165.147 569.384H165.723C165.883 569.384 165.931 569.384 165.947 569.336L166.011 569.384ZM161.595 574.104H166.011V572.456H161.595V574.104ZM162.699 566.168H161.595V571.56H166.011V570.072C165.963 570.088 165.899 570.088 165.835 570.088H165.067C164.443 570.088 164.251 569.928 164.251 569.16V566.168H163.355V567.448C163.355 568.424 163.131 569.688 162.139 570.6C162.027 570.456 161.755 570.216 161.611 570.136C162.539 569.32 162.699 568.28 162.699 567.432V566.168ZM160.235 563.304V562.232H167.355V563.304H165.195V565.16H166.987V575.944H166.011V575.064H161.595V576.168H160.635V565.16H162.539V563.304H160.235ZM170.235 574.936H172.699C173.403 574.936 173.531 574.536 173.611 572.232C173.883 572.44 174.379 572.664 174.715 572.744C174.555 575.336 174.219 576.056 172.763 576.056H170.107C168.635 576.056 168.187 575.688 168.187 574.232V567.336H172.955V563.48H168.123V562.328H174.123V569.544H172.955V568.472H169.355V574.232C169.355 574.824 169.499 574.936 170.235 574.936ZM182.571 563.144V564.568H185.179V563.144H182.571ZM181.467 564.568V563.144H178.923V564.568H181.467ZM186.283 563.144V564.568H188.971V563.144H186.283ZM188.331 569.784V568.92H181.851V569.784H188.331ZM188.331 571.368V570.488H181.851V571.368H188.331ZM188.331 572.984V572.088H181.851V572.984H188.331ZM180.747 568.184H183.131C183.179 567.896 183.243 567.576 183.291 567.256H177.067V566.312H183.435C183.467 566.024 183.499 565.72 183.531 565.448H177.803V562.28H190.139V565.448H184.731C184.683 565.72 184.651 566.024 184.603 566.312H190.795V567.256H184.443C184.395 567.592 184.331 567.896 184.283 568.184H189.467V573.704H180.747V568.184ZM191.195 574.6V575.56H179.131V576.232H177.947V568.424H179.131V574.6H191.195ZM200.939 563.656C200.827 563.32 200.683 562.824 200.539 562.408L201.899 562.232C202.027 562.984 202.315 564.04 202.635 564.968C203.787 564.808 205.115 564.552 206.203 564.184L206.347 565.432C205.371 565.72 204.107 565.944 203.035 566.088C203.531 567.32 204.235 568.552 204.827 569.384C205.051 569.688 205.291 569.96 205.531 570.232L204.875 571.128C204.107 570.952 202.171 570.776 201.019 570.696L201.115 569.624C202.011 569.704 203.195 569.8 203.771 569.864C203.147 568.952 202.379 567.544 201.835 566.216C199.931 566.392 197.627 566.376 195.115 566.184L195.083 564.904C197.435 565.192 199.659 565.224 201.403 565.096C201.211 564.504 201.051 564.024 200.939 563.656ZM197.547 570.008C197.067 570.776 196.795 571.464 196.795 572.232C196.795 573.752 198.187 574.424 200.555 574.44C202.187 574.456 203.563 574.296 204.683 574.04L204.619 575.32C203.627 575.496 202.267 575.672 200.491 575.672C197.451 575.656 195.531 574.552 195.531 572.376C195.531 571.496 195.851 570.664 196.299 569.72L197.547 570.008ZM213.883 563.48C213.883 563.128 213.883 562.696 213.819 562.296L215.323 562.344C215.243 562.744 215.115 563.64 215.003 564.76C215.035 564.744 215.067 564.744 215.099 564.728L215.563 565.288C215.355 565.576 215.083 566.008 214.843 566.408C214.811 566.712 214.795 567.016 214.763 567.336C216.011 566.184 218.075 564.632 219.691 564.632C221.179 564.632 221.915 565.48 221.915 566.776C221.915 568.376 221.323 571.128 221.323 572.76C221.323 573.288 221.579 573.736 222.155 573.736C222.923 573.736 223.755 573.272 224.571 572.408L224.779 573.784C223.931 574.632 222.923 575.112 221.835 575.112C220.779 575.112 220.059 574.424 220.059 573.096C220.059 571.32 220.667 568.696 220.667 567.128C220.667 566.2 220.187 565.816 219.371 565.816C218.075 565.816 216.139 567.32 214.667 568.888C214.635 569.56 214.619 570.2 214.619 570.776C214.619 572.232 214.603 573.208 214.683 574.632C214.699 574.92 214.731 575.32 214.763 575.608H213.371C213.403 575.32 213.419 574.92 213.419 574.664C213.435 573.128 213.435 572.312 213.467 570.568C213.467 570.408 213.483 570.184 213.483 569.928C212.699 571.112 211.643 572.632 210.875 573.72L210.059 572.616C210.955 571.496 212.811 569 213.611 567.752C213.643 567.224 213.691 566.68 213.723 566.168C213.003 566.264 211.595 566.456 210.587 566.6L210.459 565.288C210.811 565.304 211.115 565.288 211.499 565.272C212.027 565.24 212.971 565.144 213.803 565C213.851 564.248 213.883 563.656 213.883 563.48ZM229.931 573.32C229.931 574.056 230.571 574.616 232.155 574.616C233.067 574.616 233.851 574.328 233.851 573.224C233.851 572.952 233.835 572.568 233.835 572.152C233.339 572.04 232.811 571.992 232.283 571.992C230.763 571.992 229.931 572.584 229.931 573.32ZM235.003 562.296C234.955 562.584 234.923 562.904 234.907 563.368C234.907 563.576 234.891 563.928 234.891 564.344C236.331 564.28 237.787 564.136 239.227 563.912L239.211 565.08C237.947 565.224 236.427 565.368 234.891 565.448C234.891 566.152 234.891 566.904 234.891 567.496C234.891 567.56 234.891 567.624 234.891 567.688C236.443 567.624 237.899 567.48 239.355 567.256L239.339 568.456C237.835 568.648 236.427 568.776 234.907 568.824C234.939 569.656 234.987 570.52 235.019 571.288C237.147 571.864 238.779 573.032 239.691 573.784L238.955 574.92C238.011 574.056 236.683 573.08 235.083 572.504C235.099 572.904 235.115 573.24 235.115 573.496C235.115 574.6 234.379 575.736 232.299 575.736C229.995 575.736 228.747 574.92 228.747 573.384C228.747 571.928 230.139 570.936 232.443 570.936C232.907 570.936 233.355 570.968 233.787 571.032C233.771 570.312 233.739 569.544 233.723 568.856C233.419 568.856 233.115 568.856 232.811 568.856C231.723 568.856 229.963 568.76 228.811 568.632L228.795 567.432C229.947 567.624 231.771 567.736 232.827 567.736C233.115 567.736 233.403 567.736 233.691 567.736C233.691 567.656 233.691 567.576 233.691 567.496C233.691 566.856 233.691 566.152 233.691 565.496C233.467 565.496 233.227 565.496 232.987 565.496C231.867 565.496 229.899 565.336 228.891 565.224L228.875 564.04C229.915 564.232 231.899 564.392 232.971 564.392C233.211 564.392 233.451 564.392 233.707 564.392C233.707 563.976 233.707 563.592 233.707 563.256C233.707 562.984 233.675 562.52 233.643 562.296H235.003ZM252.507 562.328C252.475 562.504 252.443 563.128 252.427 563.336C252.427 563.576 252.411 563.944 252.411 564.376C252.491 564.376 252.571 564.376 252.651 564.376C254.603 564.376 256.571 564.392 257.339 564.392L257.323 565.576C256.427 565.528 254.971 565.496 252.635 565.496C252.555 565.496 252.491 565.496 252.411 565.496C252.411 566.408 252.427 567.4 252.443 568.136C252.779 568.68 252.955 569.384 252.955 570.184C252.955 572.344 251.899 574.744 248.171 575.864L247.099 574.808C249.227 574.328 250.699 573.432 251.339 571.976C250.955 572.264 250.491 572.408 249.947 572.408C248.603 572.408 247.323 571.48 247.323 569.736C247.323 568.152 248.619 566.952 250.139 566.952C250.539 566.952 250.891 567.016 251.211 567.128C251.211 566.648 251.211 566.072 251.195 565.512C248.763 565.528 246.043 565.64 244.043 565.784L244.011 564.552C245.787 564.52 248.795 564.424 251.179 564.392C251.179 563.944 251.163 563.56 251.147 563.336C251.131 562.92 251.067 562.456 251.051 562.328H252.507ZM248.523 569.72C248.523 570.712 249.259 571.304 250.155 571.304C251.099 571.304 251.707 570.552 251.563 569.032C251.307 568.328 250.763 568.024 250.139 568.024C249.307 568.024 248.523 568.68 248.523 569.72ZM260.625 571.096C261.985 571.096 263.073 572.184 263.073 573.528C263.073 574.888 261.985 575.976 260.625 575.976C259.297 575.976 258.193 574.888 258.193 573.528C258.193 572.184 259.297 571.096 260.625 571.096ZM260.625 575.16C261.537 575.16 262.257 574.44 262.257 573.528C262.257 572.648 261.537 571.912 260.625 571.912C259.745 571.912 259.009 572.648 259.009 573.528C259.009 574.44 259.745 575.16 260.625 575.16Z" fill="#1A1A1A"/>
<defs>
<filter id="filter0_dd_10876_12959" x="75" y="65" width="202" height="138" filterUnits="userSpaceOnUse" color-interpolation-filters="sRGB">
<feFlood flood-opacity="0" result="BackgroundImageFix"/>
<feColorMatrix in="SourceAlpha" type="matrix" values="0 0 0 0 0 0 0 0 0 0 0 0 0 0 0 0 0 0 127 0" result="hardAlpha"/>
<feMorphology radius="1" operator="dilate" in="SourceAlpha" result="effect1_dropShadow_10876_12959"/>
<feOffset dy="2"/>
<feGaussianBlur stdDeviation="4"/>
<feComposite in2="hardAlpha" operator="out"/>
<feColorMatrix type="matrix" values="0 0 0 0 0 0 0 0 0 0 0 0 0 0 0 0 0 0 0.1 0"/>
<feBlend mode="normal" in2="BackgroundImageFix" result="effect1_dropShadow_10876_12959"/>
<feColorMatrix in="SourceAlpha" type="matrix" values="0 0 0 0 0 0 0 0 0 0 0 0 0 0 0 0 0 0 127 0" result="hardAlpha"/>
<feOffset dy="1"/>
<feGaussianBlur stdDeviation="2.5"/>
<feComposite in2="hardAlpha" operator="out"/>
<feColorMatrix type="matrix" values="0 0 0 0 0 0 0 0 0 0 0 0 0 0 0 0 0 0 0.3 0"/>
<feBlend mode="normal" in2="effect1_dropShadow_10876_12959" result="effect2_dropShadow_10876_12959"/>
<feBlend mode="normal" in="SourceGraphic" in2="effect2_dropShadow_10876_12959" result="shape"/>
</filter>
<filter id="filter1_dd_10876_12959" x="275" y="65" width="202" height="138" filterUnits="userSpaceOnUse" color-interpolation-filters="sRGB">
<feFlood flood-opacity="0" result="BackgroundImageFix"/>
<feColorMatrix in="SourceAlpha" type="matrix" values="0 0 0 0 0 0 0 0 0 0 0 0 0 0 0 0 0 0 127 0" result="hardAlpha"/>
<feMorphology radius="1" operator="dilate" in="SourceAlpha" result="effect1_dropShadow_10876_12959"/>
<feOffset dy="2"/>
<feGaussianBlur stdDeviation="4"/>
<feComposite in2="hardAlpha" operator="out"/>
<feColorMatrix type="matrix" values="0 0 0 0 0 0 0 0 0 0 0 0 0 0 0 0 0 0 0.1 0"/>
<feBlend mode="normal" in2="BackgroundImageFix" result="effect1_dropShadow_10876_12959"/>
<feColorMatrix in="SourceAlpha" type="matrix" values="0 0 0 0 0 0 0 0 0 0 0 0 0 0 0 0 0 0 127 0" result="hardAlpha"/>
<feOffset dy="1"/>
<feGaussianBlur stdDeviation="2.5"/>
<feComposite in2="hardAlpha" operator="out"/>
<feColorMatrix type="matrix" values="0 0 0 0 0 0 0 0 0 0 0 0 0 0 0 0 0 0 0.3 0"/>
<feBlend mode="normal" in2="effect1_dropShadow_10876_12959" result="effect2_dropShadow_10876_12959"/>
<feBlend mode="normal" in="SourceGraphic" in2="effect2_dropShadow_10876_12959" result="shape"/>
</filter>
<filter id="filter2_dd_10876_12959" x="475" y="65" width="202" height="138" filterUnits="userSpaceOnUse" color-interpolation-filters="sRGB">
<feFlood flood-opacity="0" result="BackgroundImageFix"/>
<feColorMatrix in="SourceAlpha" type="matrix" values="0 0 0 0 0 0 0 0 0 0 0 0 0 0 0 0 0 0 127 0" result="hardAlpha"/>
<feMorphology radius="1" operator="dilate" in="SourceAlpha" result="effect1_dropShadow_10876_12959"/>
<feOffset dy="2"/>
<feGaussianBlur stdDeviation="4"/>
<feComposite in2="hardAlpha" operator="out"/>
<feColorMatrix type="matrix" values="0 0 0 0 0 0 0 0 0 0 0 0 0 0 0 0 0 0 0.1 0"/>
<feBlend mode="normal" in2="BackgroundImageFix" result="effect1_dropShadow_10876_12959"/>
<feColorMatrix in="SourceAlpha" type="matrix" values="0 0 0 0 0 0 0 0 0 0 0 0 0 0 0 0 0 0 127 0" result="hardAlpha"/>
<feOffset dy="1"/>
<feGaussianBlur stdDeviation="2.5"/>
<feComposite in2="hardAlpha" operator="out"/>
<feColorMatrix type="matrix" values="0 0 0 0 0 0 0 0 0 0 0 0 0 0 0 0 0 0 0.3 0"/>
<feBlend mode="normal" in2="effect1_dropShadow_10876_12959" result="effect2_dropShadow_10876_12959"/>
<feBlend mode="normal" in="SourceGraphic" in2="effect2_dropShadow_10876_12959" result="shape"/>
</filter>
<filter id="filter3_dd_10876_12959" x="675" y="65" width="202" height="138" filterUnits="userSpaceOnUse" color-interpolation-filters="sRGB">
<feFlood flood-opacity="0" result="BackgroundImageFix"/>
<feColorMatrix in="SourceAlpha" type="matrix" values="0 0 0 0 0 0 0 0 0 0 0 0 0 0 0 0 0 0 127 0" result="hardAlpha"/>
<feMorphology radius="1" operator="dilate" in="SourceAlpha" result="effect1_dropShadow_10876_12959"/>
<feOffset dy="2"/>
<feGaussianBlur stdDeviation="4"/>
<feComposite in2="hardAlpha" operator="out"/>
<feColorMatrix type="matrix" values="0 0 0 0 0 0 0 0 0 0 0 0 0 0 0 0 0 0 0.1 0"/>
<feBlend mode="normal" in2="BackgroundImageFix" result="effect1_dropShadow_10876_12959"/>
<feColorMatrix in="SourceAlpha" type="matrix" values="0 0 0 0 0 0 0 0 0 0 0 0 0 0 0 0 0 0 127 0" result="hardAlpha"/>
<feOffset dy="1"/>
<feGaussianBlur stdDeviation="2.5"/>
<feComposite in2="hardAlpha" operator="out"/>
<feColorMatrix type="matrix" values="0 0 0 0 0 0 0 0 0 0 0 0 0 0 0 0 0 0 0.3 0"/>
<feBlend mode="normal" in2="effect1_dropShadow_10876_12959" result="effect2_dropShadow_10876_12959"/>
<feBlend mode="normal" in="SourceGraphic" in2="effect2_dropShadow_10876_12959" result="shape"/>
</filter>
<filter id="filter4_dd_10876_12959" x="186" y="27" width="581" height="172" filterUnits="userSpaceOnUse" color-interpolation-filters="sRGB">
<feFlood flood-opacity="0" result="BackgroundImageFix"/>
<feColorMatrix in="SourceAlpha" type="matrix" values="0 0 0 0 0 0 0 0 0 0 0 0 0 0 0 0 0 0 127 0" result="hardAlpha"/>
<feMorphology radius="5" operator="dilate" in="SourceAlpha" result="effect1_dropShadow_10876_12959"/>
<feOffset dy="8"/>
<feGaussianBlur stdDeviation="12"/>
<feComposite in2="hardAlpha" operator="out"/>
<feColorMatrix type="matrix" values="0 0 0 0 0 0 0 0 0 0 0 0 0 0 0 0 0 0 0.1 0"/>
<feBlend mode="normal" in2="BackgroundImageFix" result="effect1_dropShadow_10876_12959"/>
<feColorMatrix in="SourceAlpha" type="matrix" values="0 0 0 0 0 0 0 0 0 0 0 0 0 0 0 0 0 0 127 0" result="hardAlpha"/>
<feOffset dy="2"/>
<feGaussianBlur stdDeviation="5"/>
<feComposite in2="hardAlpha" operator="out"/>
<feColorMatrix type="matrix" values="0 0 0 0 0 0 0 0 0 0 0 0 0 0 0 0 0 0 0.3 0"/>
<feBlend mode="normal" in2="effect1_dropShadow_10876_12959" result="effect2_dropShadow_10876_12959"/>
<feBlend mode="normal" in="SourceGraphic" in2="effect2_dropShadow_10876_12959" result="shape"/>
</filter>
</defs>
</svg>
