<svg width="946" height="503" viewBox="0 0 946 503" fill="none" xmlns="http://www.w3.org/2000/svg">
<rect width="946" height="502.114" rx="32" fill="#949494"/>
<rect width="882" height="202" transform="translate(32 32)" fill="white"/>
<rect x="64.5" y="64.5" width="137" height="137" rx="11.5" fill="white" stroke="#949494"/>
<g filter="url(#filter0_dd_10876_12767)">
<rect x="234" y="64" width="138" height="138" rx="12" fill="white"/>
</g>
<g filter="url(#filter1_dd_10876_12767)">
<rect x="404" y="64" width="138" height="138" rx="12" fill="white"/>
</g>
<g filter="url(#filter2_dd_10876_12767)">
<rect x="574" y="64" width="138" height="138" rx="12" fill="white"/>
</g>
<g filter="url(#filter3_dd_10876_12767)">
<rect x="744" y="64" width="138" height="138" rx="12" fill="white"/>
</g>
<path d="M32 324.114H914" stroke="black" stroke-dasharray="2 2"/>
<path d="M32 356.114H914" stroke="black" stroke-dasharray="2 2"/>
<path d="M32 388.114H914" stroke="black" stroke-dasharray="2 2"/>
<path d="M32 420.114H914" stroke="black" stroke-dasharray="2 2"/>
<path d="M32 452.114H914" stroke="black" stroke-width="2" stroke-dasharray="4 4"/>
<path d="M32 454.114H914V470.114H32V454.114Z" fill="white"/>
<rect x="601.648" y="330.114" width="83" height="23" rx="11.5" fill="#1A1A1A"/>
<path d="M620.378 346.554C620.546 346.204 620.56 345.966 620.56 345.644V338.056C620.56 337.524 620.49 336.866 620.406 336.46H622.604C622.52 337.006 622.464 337.51 622.464 338.056V345.336C624.746 344.678 627.868 342.886 629.66 340.702L630.654 342.284C628.736 344.58 625.838 346.246 622.534 347.324C622.338 347.394 622.03 347.492 621.708 347.702L620.378 346.554ZM641.574 337.412C641.966 337.986 642.582 339.008 642.89 339.652L641.63 340.198C641.224 339.316 640.874 338.63 640.356 337.916L641.574 337.412ZM643.45 336.642C643.856 337.202 644.486 338.196 644.808 338.826L643.59 339.414C643.142 338.532 642.764 337.888 642.246 337.188L643.45 336.642ZM632.138 343.124C632.558 342.788 632.866 342.48 633.3 342.06C633.93 341.416 635.022 340.044 635.988 338.896C636.814 337.916 637.64 337.762 638.732 338.784C639.67 339.666 640.748 340.786 641.588 341.696C642.526 342.69 643.954 344.244 645.032 345.392L643.492 347.044C642.554 345.882 641.364 344.44 640.538 343.474C639.726 342.508 638.48 341.15 637.976 340.632C637.528 340.184 637.234 340.212 636.828 340.716C636.282 341.416 635.288 342.802 634.728 343.558C634.406 344.006 634.07 344.496 633.818 344.86L632.138 343.124ZM652.69 346.806C652.746 346.54 652.802 346.148 652.802 345.77V337.608C652.802 336.978 652.704 336.446 652.69 336.404H654.776C654.762 336.446 654.678 336.992 654.678 337.622V344.944C655.812 344.454 657.198 343.348 658.136 341.99L659.214 343.53C658.052 345.042 656.036 346.554 654.468 347.352C654.16 347.52 653.992 347.66 653.866 347.772L652.69 346.806ZM646.208 346.596C647.44 345.728 648.196 344.44 648.588 343.25C648.98 342.046 648.994 339.4 648.994 337.706C648.994 337.146 648.952 336.768 648.868 336.418H650.926C650.912 336.488 650.828 337.104 650.828 337.692C650.828 339.344 650.786 342.298 650.408 343.712C649.988 345.294 649.106 346.666 647.916 347.73L646.208 346.596ZM663.484 347.31C661.846 347.31 660.74 346.694 660.012 345.868L660.978 344.566C661.594 345.168 662.35 345.63 663.288 345.63C664.338 345.63 665.052 345.112 665.052 344.174C665.052 343.166 664.45 342.522 662.196 342.522V341.052C664.1 341.052 664.716 340.394 664.716 339.47C664.716 338.658 664.212 338.182 663.33 338.182C662.588 338.182 661.986 338.518 661.37 339.092L660.32 337.832C661.216 337.048 662.21 336.558 663.428 336.558C665.43 336.558 666.788 337.552 666.788 339.316C666.788 340.436 666.158 341.248 665.066 341.682V341.752C666.228 342.074 667.124 342.942 667.124 344.3C667.124 346.204 665.458 347.31 663.484 347.31Z" fill="white"/>
<rect x="574.148" y="357.114" width="138" height="8" rx="4" fill="white"/>
<rect x="771.648" y="298" width="83" height="23" rx="11.5" fill="#1A1A1A"/>
<path d="M790.378 314.44C790.546 314.09 790.56 313.852 790.56 313.53V305.942C790.56 305.41 790.49 304.752 790.406 304.346H792.604C792.52 304.892 792.464 305.396 792.464 305.942V313.222C794.746 312.564 797.868 310.772 799.66 308.588L800.654 310.17C798.736 312.466 795.838 314.132 792.534 315.21C792.338 315.28 792.03 315.378 791.708 315.588L790.378 314.44ZM811.574 305.298C811.966 305.872 812.582 306.894 812.89 307.538L811.63 308.084C811.224 307.202 810.874 306.516 810.356 305.802L811.574 305.298ZM813.45 304.528C813.856 305.088 814.486 306.082 814.808 306.712L813.59 307.3C813.142 306.418 812.764 305.774 812.246 305.074L813.45 304.528ZM802.138 311.01C802.558 310.674 802.866 310.366 803.3 309.946C803.93 309.302 805.022 307.93 805.988 306.782C806.814 305.802 807.64 305.648 808.732 306.67C809.67 307.552 810.748 308.672 811.588 309.582C812.526 310.576 813.954 312.13 815.032 313.278L813.492 314.93C812.554 313.768 811.364 312.326 810.538 311.36C809.726 310.394 808.48 309.036 807.976 308.518C807.528 308.07 807.234 308.098 806.828 308.602C806.282 309.302 805.288 310.688 804.728 311.444C804.406 311.892 804.07 312.382 803.818 312.746L802.138 311.01ZM822.69 314.692C822.746 314.426 822.802 314.034 822.802 313.656V305.494C822.802 304.864 822.704 304.332 822.69 304.29H824.776C824.762 304.332 824.678 304.878 824.678 305.508V312.83C825.812 312.34 827.198 311.234 828.136 309.876L829.214 311.416C828.052 312.928 826.036 314.44 824.468 315.238C824.16 315.406 823.992 315.546 823.866 315.658L822.69 314.692ZM816.208 314.482C817.44 313.614 818.196 312.326 818.588 311.136C818.98 309.932 818.994 307.286 818.994 305.592C818.994 305.032 818.952 304.654 818.868 304.304H820.926C820.912 304.374 820.828 304.99 820.828 305.578C820.828 307.23 820.786 310.184 820.408 311.598C819.988 313.18 819.106 314.552 817.916 315.616L816.208 314.482ZM831.944 310.744H834.366V308.63C834.366 308.028 834.408 307.09 834.436 306.474H834.38C834.128 307.034 833.848 307.608 833.554 308.168L831.944 310.744ZM834.366 315V312.312H829.942V310.912L833.806 304.626H836.284V310.744H837.502V312.312H836.284V315H834.366Z" fill="white"/>
<rect x="744.148" y="325" width="138" height="8" rx="4" fill="white"/>
<rect x="431.648" y="362.114" width="83" height="23" rx="11.5" fill="#1A1A1A"/>
<path d="M450.378 378.554C450.546 378.204 450.56 377.966 450.56 377.644V370.056C450.56 369.524 450.49 368.866 450.406 368.46H452.604C452.52 369.006 452.464 369.51 452.464 370.056V377.336C454.746 376.678 457.868 374.886 459.66 372.702L460.654 374.284C458.736 376.58 455.838 378.246 452.534 379.324C452.338 379.394 452.03 379.492 451.708 379.702L450.378 378.554ZM471.574 369.412C471.966 369.986 472.582 371.008 472.89 371.652L471.63 372.198C471.224 371.316 470.874 370.63 470.356 369.916L471.574 369.412ZM473.45 368.642C473.856 369.202 474.486 370.196 474.808 370.826L473.59 371.414C473.142 370.532 472.764 369.888 472.246 369.188L473.45 368.642ZM462.138 375.124C462.558 374.788 462.866 374.48 463.3 374.06C463.93 373.416 465.022 372.044 465.988 370.896C466.814 369.916 467.64 369.762 468.732 370.784C469.67 371.666 470.748 372.786 471.588 373.696C472.526 374.69 473.954 376.244 475.032 377.392L473.492 379.044C472.554 377.882 471.364 376.44 470.538 375.474C469.726 374.508 468.48 373.15 467.976 372.632C467.528 372.184 467.234 372.212 466.828 372.716C466.282 373.416 465.288 374.802 464.728 375.558C464.406 376.006 464.07 376.496 463.818 376.86L462.138 375.124ZM482.69 378.806C482.746 378.54 482.802 378.148 482.802 377.77V369.608C482.802 368.978 482.704 368.446 482.69 368.404H484.776C484.762 368.446 484.678 368.992 484.678 369.622V376.944C485.812 376.454 487.198 375.348 488.136 373.99L489.214 375.53C488.052 377.042 486.036 378.554 484.468 379.352C484.16 379.52 483.992 379.66 483.866 379.772L482.69 378.806ZM476.208 378.596C477.44 377.728 478.196 376.44 478.588 375.25C478.98 374.046 478.994 371.4 478.994 369.706C478.994 369.146 478.952 368.768 478.868 368.418H480.926C480.912 368.488 480.828 369.104 480.828 369.692C480.828 371.344 480.786 374.298 480.408 375.712C479.988 377.294 479.106 378.666 477.916 379.73L476.208 378.596ZM490.25 379.114V377.924C493.064 375.404 494.73 373.458 494.73 371.862C494.73 370.812 494.17 370.182 493.176 370.182C492.42 370.182 491.804 370.672 491.272 371.246L490.152 370.126C491.104 369.104 492.028 368.558 493.442 368.558C495.402 368.558 496.704 369.818 496.704 371.75C496.704 373.626 495.15 375.642 493.26 377.49C493.778 377.434 494.464 377.378 494.954 377.378H497.194V379.114H490.25Z" fill="white"/>
<rect x="404.148" y="389.114" width="138" height="8" rx="4" fill="white"/>
<rect x="261.648" y="394.114" width="83" height="23" rx="11.5" fill="#1A1A1A"/>
<path d="M280.378 410.554C280.546 410.204 280.56 409.966 280.56 409.644V402.056C280.56 401.524 280.49 400.866 280.406 400.46H282.604C282.52 401.006 282.464 401.51 282.464 402.056V409.336C284.746 408.678 287.868 406.886 289.66 404.702L290.654 406.284C288.736 408.58 285.838 410.246 282.534 411.324C282.338 411.394 282.03 411.492 281.708 411.702L280.378 410.554ZM301.574 401.412C301.966 401.986 302.582 403.008 302.89 403.652L301.63 404.198C301.224 403.316 300.874 402.63 300.356 401.916L301.574 401.412ZM303.45 400.642C303.856 401.202 304.486 402.196 304.808 402.826L303.59 403.414C303.142 402.532 302.764 401.888 302.246 401.188L303.45 400.642ZM292.138 407.124C292.558 406.788 292.866 406.48 293.3 406.06C293.93 405.416 295.022 404.044 295.988 402.896C296.814 401.916 297.64 401.762 298.732 402.784C299.67 403.666 300.748 404.786 301.588 405.696C302.526 406.69 303.954 408.244 305.032 409.392L303.492 411.044C302.554 409.882 301.364 408.44 300.538 407.474C299.726 406.508 298.48 405.15 297.976 404.632C297.528 404.184 297.234 404.212 296.828 404.716C296.282 405.416 295.288 406.802 294.728 407.558C294.406 408.006 294.07 408.496 293.818 408.86L292.138 407.124ZM312.69 410.806C312.746 410.54 312.802 410.148 312.802 409.77V401.608C312.802 400.978 312.704 400.446 312.69 400.404H314.776C314.762 400.446 314.678 400.992 314.678 401.622V408.944C315.812 408.454 317.198 407.348 318.136 405.99L319.214 407.53C318.052 409.042 316.036 410.554 314.468 411.352C314.16 411.52 313.992 411.66 313.866 411.772L312.69 410.806ZM306.208 410.596C307.44 409.728 308.196 408.44 308.588 407.25C308.98 406.046 308.994 403.4 308.994 401.706C308.994 401.146 308.952 400.768 308.868 400.418H310.926C310.912 400.488 310.828 401.104 310.828 401.692C310.828 403.344 310.786 406.298 310.408 407.712C309.988 409.294 309.106 410.666 307.916 411.73L306.208 410.596ZM320.796 411.114V409.448H323.022V402.896H321.146V401.622C322.182 401.426 322.896 401.16 323.554 400.74H325.08V409.448H327.026V411.114H320.796Z" fill="white"/>
<rect x="234.148" y="421.114" width="138" height="8" rx="4" fill="white"/>
<rect x="91.6484" y="415.114" width="83" height="23" rx="11.5" fill="#1A1A1A"/>
<path d="M110.378 431.554C110.546 431.204 110.56 430.966 110.56 430.644V423.056C110.56 422.524 110.49 421.866 110.406 421.46H112.604C112.52 422.006 112.464 422.51 112.464 423.056V430.336C114.746 429.678 117.868 427.886 119.66 425.702L120.654 427.284C118.736 429.58 115.838 431.246 112.534 432.324C112.338 432.394 112.03 432.492 111.708 432.702L110.378 431.554ZM131.574 422.412C131.966 422.986 132.582 424.008 132.89 424.652L131.63 425.198C131.224 424.316 130.874 423.63 130.356 422.916L131.574 422.412ZM133.45 421.642C133.856 422.202 134.486 423.196 134.808 423.826L133.59 424.414C133.142 423.532 132.764 422.888 132.246 422.188L133.45 421.642ZM122.138 428.124C122.558 427.788 122.866 427.48 123.3 427.06C123.93 426.416 125.022 425.044 125.988 423.896C126.814 422.916 127.64 422.762 128.732 423.784C129.67 424.666 130.748 425.786 131.588 426.696C132.526 427.69 133.954 429.244 135.032 430.392L133.492 432.044C132.554 430.882 131.364 429.44 130.538 428.474C129.726 427.508 128.48 426.15 127.976 425.632C127.528 425.184 127.234 425.212 126.828 425.716C126.282 426.416 125.288 427.802 124.728 428.558C124.406 429.006 124.07 429.496 123.818 429.86L122.138 428.124ZM142.69 431.806C142.746 431.54 142.802 431.148 142.802 430.77V422.608C142.802 421.978 142.704 421.446 142.69 421.404H144.776C144.762 421.446 144.678 421.992 144.678 422.622V429.944C145.812 429.454 147.198 428.348 148.136 426.99L149.214 428.53C148.052 430.042 146.036 431.554 144.468 432.352C144.16 432.52 143.992 432.66 143.866 432.772L142.69 431.806ZM136.208 431.596C137.44 430.728 138.196 429.44 138.588 428.25C138.98 427.046 138.994 424.4 138.994 422.706C138.994 422.146 138.952 421.768 138.868 421.418H140.926C140.912 421.488 140.828 422.104 140.828 422.692C140.828 424.344 140.786 427.298 140.408 428.712C139.988 430.294 139.106 431.666 137.916 432.73L136.208 431.596ZM153.778 432.31C151.664 432.31 150.264 430.462 150.264 426.892C150.264 423.308 151.664 421.558 153.778 421.558C155.892 421.558 157.278 423.322 157.278 426.892C157.278 430.462 155.892 432.31 153.778 432.31ZM153.778 430.7C154.674 430.7 155.332 429.804 155.332 426.892C155.332 423.994 154.674 423.154 153.778 423.154C152.882 423.154 152.21 423.994 152.21 426.892C152.21 429.804 152.882 430.7 153.778 430.7Z" fill="white"/>
<rect x="64.1484" y="442.114" width="138" height="8" rx="4" fill="white"/>
<defs>
<filter id="filter0_dd_10876_12767" x="225" y="57" width="156" height="156" filterUnits="userSpaceOnUse" color-interpolation-filters="sRGB">
<feFlood flood-opacity="0" result="BackgroundImageFix"/>
<feColorMatrix in="SourceAlpha" type="matrix" values="0 0 0 0 0 0 0 0 0 0 0 0 0 0 0 0 0 0 127 0" result="hardAlpha"/>
<feMorphology radius="1" operator="dilate" in="SourceAlpha" result="effect1_dropShadow_10876_12767"/>
<feOffset dy="2"/>
<feGaussianBlur stdDeviation="4"/>
<feComposite in2="hardAlpha" operator="out"/>
<feColorMatrix type="matrix" values="0 0 0 0 0 0 0 0 0 0 0 0 0 0 0 0 0 0 0.1 0"/>
<feBlend mode="normal" in2="BackgroundImageFix" result="effect1_dropShadow_10876_12767"/>
<feColorMatrix in="SourceAlpha" type="matrix" values="0 0 0 0 0 0 0 0 0 0 0 0 0 0 0 0 0 0 127 0" result="hardAlpha"/>
<feOffset dy="1"/>
<feGaussianBlur stdDeviation="2.5"/>
<feComposite in2="hardAlpha" operator="out"/>
<feColorMatrix type="matrix" values="0 0 0 0 0 0 0 0 0 0 0 0 0 0 0 0 0 0 0.3 0"/>
<feBlend mode="normal" in2="effect1_dropShadow_10876_12767" result="effect2_dropShadow_10876_12767"/>
<feBlend mode="normal" in="SourceGraphic" in2="effect2_dropShadow_10876_12767" result="shape"/>
</filter>
<filter id="filter1_dd_10876_12767" x="385" y="49" width="176" height="176" filterUnits="userSpaceOnUse" color-interpolation-filters="sRGB">
<feFlood flood-opacity="0" result="BackgroundImageFix"/>
<feColorMatrix in="SourceAlpha" type="matrix" values="0 0 0 0 0 0 0 0 0 0 0 0 0 0 0 0 0 0 127 0" result="hardAlpha"/>
<feMorphology radius="3" operator="dilate" in="SourceAlpha" result="effect1_dropShadow_10876_12767"/>
<feOffset dy="4"/>
<feGaussianBlur stdDeviation="8"/>
<feComposite in2="hardAlpha" operator="out"/>
<feColorMatrix type="matrix" values="0 0 0 0 0 0 0 0 0 0 0 0 0 0 0 0 0 0 0.1 0"/>
<feBlend mode="normal" in2="BackgroundImageFix" result="effect1_dropShadow_10876_12767"/>
<feColorMatrix in="SourceAlpha" type="matrix" values="0 0 0 0 0 0 0 0 0 0 0 0 0 0 0 0 0 0 127 0" result="hardAlpha"/>
<feOffset dy="1"/>
<feGaussianBlur stdDeviation="3"/>
<feComposite in2="hardAlpha" operator="out"/>
<feColorMatrix type="matrix" values="0 0 0 0 0 0 0 0 0 0 0 0 0 0 0 0 0 0 0.3 0"/>
<feBlend mode="normal" in2="effect1_dropShadow_10876_12767" result="effect2_dropShadow_10876_12767"/>
<feBlend mode="normal" in="SourceGraphic" in2="effect2_dropShadow_10876_12767" result="shape"/>
</filter>
<filter id="filter2_dd_10876_12767" x="545" y="43" width="196" height="196" filterUnits="userSpaceOnUse" color-interpolation-filters="sRGB">
<feFlood flood-opacity="0" result="BackgroundImageFix"/>
<feColorMatrix in="SourceAlpha" type="matrix" values="0 0 0 0 0 0 0 0 0 0 0 0 0 0 0 0 0 0 127 0" result="hardAlpha"/>
<feMorphology radius="5" operator="dilate" in="SourceAlpha" result="effect1_dropShadow_10876_12767"/>
<feOffset dy="8"/>
<feGaussianBlur stdDeviation="12"/>
<feComposite in2="hardAlpha" operator="out"/>
<feColorMatrix type="matrix" values="0 0 0 0 0 0 0 0 0 0 0 0 0 0 0 0 0 0 0.1 0"/>
<feBlend mode="normal" in2="BackgroundImageFix" result="effect1_dropShadow_10876_12767"/>
<feColorMatrix in="SourceAlpha" type="matrix" values="0 0 0 0 0 0 0 0 0 0 0 0 0 0 0 0 0 0 127 0" result="hardAlpha"/>
<feOffset dy="2"/>
<feGaussianBlur stdDeviation="5"/>
<feComposite in2="hardAlpha" operator="out"/>
<feColorMatrix type="matrix" values="0 0 0 0 0 0 0 0 0 0 0 0 0 0 0 0 0 0 0.3 0"/>
<feBlend mode="normal" in2="effect1_dropShadow_10876_12767" result="effect2_dropShadow_10876_12767"/>
<feBlend mode="normal" in="SourceGraphic" in2="effect2_dropShadow_10876_12767" result="shape"/>
</filter>
<filter id="filter3_dd_10876_12767" x="701" y="33" width="224" height="224" filterUnits="userSpaceOnUse" color-interpolation-filters="sRGB">
<feFlood flood-opacity="0" result="BackgroundImageFix"/>
<feColorMatrix in="SourceAlpha" type="matrix" values="0 0 0 0 0 0 0 0 0 0 0 0 0 0 0 0 0 0 127 0" result="hardAlpha"/>
<feMorphology radius="7" operator="dilate" in="SourceAlpha" result="effect1_dropShadow_10876_12767"/>
<feOffset dy="12"/>
<feGaussianBlur stdDeviation="18"/>
<feColorMatrix type="matrix" values="0 0 0 0 0 0 0 0 0 0 0 0 0 0 0 0 0 0 0.1 0"/>
<feBlend mode="normal" in2="BackgroundImageFix" result="effect1_dropShadow_10876_12767"/>
<feColorMatrix in="SourceAlpha" type="matrix" values="0 0 0 0 0 0 0 0 0 0 0 0 0 0 0 0 0 0 127 0" result="hardAlpha"/>
<feOffset dy="3"/>
<feGaussianBlur stdDeviation="7"/>
<feComposite in2="hardAlpha" operator="out"/>
<feColorMatrix type="matrix" values="0 0 0 0 0 0 0 0 0 0 0 0 0 0 0 0 0 0 0.3 0"/>
<feBlend mode="normal" in2="effect1_dropShadow_10876_12767" result="effect2_dropShadow_10876_12767"/>
<feBlend mode="normal" in="SourceGraphic" in2="effect2_dropShadow_10876_12767" result="shape"/>
</filter>
</defs>
</svg>
