<svg width="1432" height="677" viewBox="0 0 1432 677" fill="none" xmlns="http://www.w3.org/2000/svg">
<rect width="1432" height="677" fill="white"/>
<path opacity="0.9" d="M66.64 83.96C66.58 84.42 66.54 85.26 66.52 85.74C66.5 86.36 66.48 86.96 66.44 87.54H70.2C70.7 87.54 71.22 87.48 71.7 87.4L73.44 88.24C73.38 88.56 73.3 89.08 73.3 89.3C73.22 91.46 72.98 97.04 72.12 99.08C71.68 100.1 70.92 100.62 69.54 100.62C68.4 100.62 67.2 100.54 66.24 100.46L65.92 97.78C66.9 97.96 67.94 98.06 68.72 98.06C69.36 98.06 69.64 97.84 69.86 97.36C70.44 96.1 70.7 92.1 70.7 89.94H66.2C65.46 95.22 63.56 98.36 59.98 100.9L57.66 99.02C58.48 98.56 59.48 97.88 60.28 97.06C62.14 95.22 63.14 92.98 63.58 89.94H60.94C60.26 89.94 59.16 89.94 58.3 90.02V87.4C59.14 87.48 60.18 87.54 60.94 87.54H63.8C63.82 86.98 63.84 86.4 63.84 85.8C63.84 85.36 63.78 84.44 63.7 83.96H66.64ZM80.46 84.66C81.02 84.74 81.86 84.76 82.54 84.76H90.24C90.86 84.76 91.84 84.74 92.4 84.66V87.24C91.86 87.2 90.92 87.18 90.2 87.18H82.54C81.9 87.18 81.04 87.2 80.46 87.24V84.66ZM94.08 90.46C93.94 90.72 93.78 91.08 93.7 91.3C93.1 93.24 92.24 95.18 90.74 96.84C88.72 99.08 86.16 100.44 83.6 101.16L81.62 98.9C84.62 98.28 87.02 96.96 88.54 95.4C89.62 94.3 90.24 93.06 90.6 91.94H80.94C80.46 91.94 79.46 91.96 78.62 92.04V89.44C79.46 89.5 80.32 89.56 80.94 89.56H90.84C91.48 89.56 92.02 89.48 92.3 89.36L94.08 90.46ZM106.495 84.92C106.235 85.52 105.935 86.26 105.635 87.14C104.995 89.1 103.375 94.18 102.375 96.86C104.815 96.62 107.655 96.3 109.675 96.06C108.975 94.62 108.235 93.28 107.575 92.4L110.075 91.38C111.495 93.54 113.535 97.46 114.455 99.7L111.755 100.9C111.495 100.22 111.175 99.4 110.795 98.54C107.555 98.92 101.495 99.56 98.9745 99.82C98.4745 99.88 97.7345 99.98 97.0945 100.06L96.6345 97.14C97.3145 97.14 98.1745 97.14 98.8345 97.12C98.9945 97.12 99.1945 97.1 99.3745 97.1C100.535 94.14 102.255 88.66 102.835 86.58C103.115 85.56 103.235 84.94 103.315 84.26L106.495 84.92ZM129.075 83.98C128.995 84.6 128.955 85.38 128.955 86C128.955 86.44 128.975 86.92 128.975 87.44H131.475C132.135 87.44 133.075 87.36 133.555 87.28V89.94C132.915 89.92 132.155 89.88 131.615 89.88H129.035C129.095 92.8 129.175 96.14 129.215 98.84C129.235 100.12 128.495 100.86 126.975 100.86C125.755 100.86 124.635 100.82 123.495 100.74L123.275 98.14C124.175 98.3 125.255 98.38 125.935 98.38C126.435 98.38 126.635 98.12 126.635 97.54C126.635 96.2 126.635 94.2 126.595 92.14C124.835 94.44 121.595 97.22 118.435 98.9L116.595 96.82C120.495 94.98 123.795 92.16 125.395 89.88H119.935C119.215 89.88 118.355 89.92 117.655 89.96V87.3C118.235 87.38 119.195 87.44 119.875 87.44H126.495C126.475 86.92 126.455 86.44 126.435 86C126.375 85.14 126.315 84.5 126.235 83.98H129.075ZM153.175 86.68C152.995 87.08 152.835 87.66 152.735 88.08C152.275 90.04 151.395 93.14 149.735 95.36C147.915 97.76 145.255 99.74 141.695 100.88L139.515 98.5C143.475 97.56 145.735 95.82 147.355 93.8C148.675 92.14 149.435 89.86 149.695 88.16H140.375C139.475 88.16 138.515 88.2 137.995 88.24V85.42C138.595 85.48 139.735 85.58 140.395 85.58H149.635C150.035 85.58 150.675 85.56 151.215 85.42L153.175 86.68ZM161.035 97.34V91.88C159.255 92.24 157.675 92.56 156.835 92.76L156.355 90.14C157.295 90.02 159.055 89.72 161.035 89.36V86.5C161.035 85.84 160.975 84.82 160.875 84.2H163.855C163.775 84.82 163.675 85.82 163.675 86.5V88.86C166.595 88.3 169.395 87.74 170.295 87.52C170.855 87.4 171.335 87.26 171.715 87.06L173.635 88.54C173.455 88.82 173.155 89.28 172.975 89.64C172.095 91.3 170.275 94.04 168.835 95.46L166.635 94.16C167.955 92.98 169.275 91.16 169.835 90.1C169.215 90.24 166.515 90.76 163.675 91.34V96.64C163.675 97.88 164.035 98.32 166.235 98.32C168.335 98.32 170.555 98.04 172.535 97.64L172.455 100.36C170.795 100.6 168.395 100.8 166.255 100.8C161.695 100.8 161.035 99.7 161.035 97.34ZM185.495 88.12C185.875 88.98 186.855 91.58 187.135 92.5L184.735 93.34C184.495 92.36 183.615 89.94 183.115 88.9L185.495 88.12ZM192.875 89.58C192.635 90.22 192.515 90.64 192.395 91.04C191.875 93.06 191.035 95.14 189.675 96.9C187.815 99.3 185.315 100.98 182.975 101.86L180.875 99.72C183.075 99.14 185.855 97.62 187.515 95.54C188.875 93.84 189.835 91.18 190.075 88.68L192.875 89.58ZM180.855 89.18C181.355 90.2 182.315 92.62 182.715 93.74L180.275 94.66C179.935 93.58 178.935 90.92 178.455 90.04L180.855 89.18ZM201.675 98.08V86.58C201.675 85.88 201.615 84.88 201.475 84.18H204.595C204.515 84.88 204.415 85.76 204.415 86.58V89.54C207.095 90.32 210.935 91.74 212.775 92.64L211.635 95.4C209.575 94.32 206.575 93.16 204.415 92.42V98.08C204.415 98.66 204.515 100.06 204.595 100.88H201.475C201.595 100.08 201.675 98.88 201.675 98.08Z" fill="#1A1A1A"/>
<path opacity="0.9" d="M61.642 146.772V147.612H57.316V146.772H61.642ZM60.606 155.074H58.156V157.426H60.606V155.074ZM61.544 154.22V158.266H58.156V158.91H57.232V154.22H61.544ZM57.246 153.184V152.344H61.586V153.184H57.246ZM57.246 151.322V150.496H61.586V151.322H57.246ZM56.588 149.46V148.606H62.104V149.46H56.588ZM64.862 157.93H67.508C68.264 157.93 68.376 157.566 68.46 155.62C68.712 155.816 69.146 155.984 69.44 156.054C69.286 158.294 68.964 158.91 67.578 158.91H64.778C63.336 158.91 62.902 158.588 62.902 157.272V151.602H67.662V148.06H62.748V147.08H68.698V153.366H67.662V152.596H63.952V157.272C63.952 157.818 64.092 157.93 64.862 157.93ZM81.396 156.152V155.102H78.036V156.152H81.396ZM78.036 153.296V154.276H81.396V153.296H78.036ZM73.99 150.818H77V149.81H73.99V150.818ZM81.172 149.81H78.036V150.818H81.172V149.81ZM83.874 154.276V155.102H82.432V157.58H81.396V156.95H78.036V157.916C78.036 158.56 77.84 158.798 77.42 158.952C76.986 159.106 76.258 159.12 75.096 159.12C75.04 158.854 74.872 158.476 74.732 158.238C75.572 158.266 76.412 158.252 76.65 158.252C76.916 158.238 77 158.154 77 157.916V156.95H72.478V156.152H77V155.102H71.274V154.276H77V153.296H72.604V152.526H77V151.546H72.996V149.082H77V148.27H71.54V147.416H77V146.296H78.036V147.416H83.608V148.27H78.036V149.082H82.208V151.546H78.036V152.526H82.432V154.276H83.874ZM92.89 149.11C92.344 148.578 91.434 147.724 90.832 147.276L91.63 146.702C92.092 147.052 93.156 147.934 93.688 148.48L92.89 149.11ZM88.438 147.906C88.536 148.13 88.774 148.592 88.928 148.844C89.18 149.306 89.46 149.866 89.74 150.454C91.434 149.712 93.324 148.956 94.78 148.956C96.712 148.956 97.902 150.062 97.902 151.588C97.902 153.198 96.866 154.416 94.682 154.416C93.898 154.416 93.114 154.22 92.582 154.024L92.624 152.932C93.17 153.17 93.87 153.38 94.612 153.38C96.138 153.38 96.782 152.54 96.782 151.532C96.782 150.706 96.124 149.95 94.752 149.95C93.52 149.95 91.798 150.608 90.174 151.364C90.356 151.756 90.538 152.148 90.706 152.526C91.476 154.262 92.358 156.866 92.834 158.406L91.63 158.728C91.196 157.076 90.524 154.822 89.726 152.988C89.544 152.582 89.376 152.19 89.194 151.826C88.116 152.344 87.136 152.848 86.492 153.142L85.96 151.994C86.366 151.896 86.856 151.714 87.108 151.616C87.584 151.434 88.158 151.182 88.774 150.902C88.48 150.286 88.214 149.754 87.976 149.362C87.794 149.082 87.514 148.648 87.29 148.368L88.438 147.906ZM108.5 149.726V148.424H105.336V147.542H108.5V146.282H109.536V147.542H112.84V148.424H109.536V149.726H112.434V150.608H105.784V149.726H108.5ZM106.218 152.47V154.08H105.28V151.616H112.896V154.08H111.93V152.47H106.218ZM104.566 146.772V147.612H100.94V146.772H104.566ZM104.986 148.606V149.46H100.268V148.606H104.986ZM103.74 155.074H101.724V157.412H103.74V155.074ZM104.622 154.22V158.252H101.724V158.91H100.842V154.22H104.622ZM100.856 153.184V152.344H104.622V153.184H100.856ZM100.856 151.322V150.496H104.622V151.322H100.856ZM107.338 153.394H108.318C108.192 156.362 107.73 158.112 105.266 159.078C105.154 158.854 104.874 158.462 104.664 158.266C106.904 157.468 107.226 156.012 107.338 153.394ZM111.034 157.972H111.958C112.266 157.972 112.322 157.748 112.364 156.138C112.546 156.306 112.966 156.46 113.218 156.544C113.148 158.42 112.896 158.91 112.07 158.91H110.908C109.956 158.91 109.732 158.602 109.732 157.58V153.394H110.698V157.58C110.698 157.93 110.74 157.972 111.034 157.972ZM117.362 147.738C117.726 147.766 118.132 147.78 118.412 147.78C119.154 147.78 120.988 147.682 121.576 147.64C121.842 147.612 122.094 147.556 122.276 147.486L122.976 148.06C122.85 148.214 122.724 148.354 122.612 148.522C122.22 149.152 121.604 150.58 121.016 151.882C122.43 152.036 123.732 152.484 124.866 153.002C124.922 152.652 124.95 152.302 124.978 151.966C124.992 151.546 125.006 151.07 124.978 150.678L126.112 150.804C126.07 151.798 125.972 152.694 125.818 153.506C126.49 153.884 127.064 154.262 127.512 154.584L126.994 155.788C126.574 155.424 126.084 155.046 125.538 154.682C124.964 156.502 123.886 157.832 121.856 158.84L120.932 158.07C123.144 157.132 124.152 155.634 124.6 154.122C123.424 153.464 122.052 152.96 120.596 152.834C120.05 154.066 119.364 155.718 118.832 156.502C118.328 157.216 117.796 157.468 117.068 157.468C116.032 157.468 115.248 156.726 115.248 155.55C115.248 153.492 117.152 151.91 119.91 151.84C120.4 150.734 120.932 149.516 121.366 148.648C120.806 148.676 119.098 148.746 118.454 148.788C118.146 148.802 117.754 148.844 117.418 148.872L117.362 147.738ZM116.27 155.41C116.27 156.026 116.662 156.362 117.11 156.362C117.432 156.362 117.656 156.236 117.95 155.872C118.454 155.214 118.986 153.912 119.476 152.82C117.432 152.974 116.27 154.206 116.27 155.41ZM134.666 153.422L132.902 153.982V159.078H131.936V154.29C131.11 154.542 130.312 154.794 129.626 155.004L129.346 154.01C130.06 153.814 130.956 153.576 131.936 153.268V150.146H130.662C130.494 150.93 130.298 151.644 130.046 152.218C129.864 152.092 129.472 151.84 129.248 151.756C129.78 150.566 130.046 148.802 130.214 147.094L131.124 147.248C131.054 147.878 130.956 148.522 130.858 149.138H131.936V146.296H132.902V149.138H134.33V150.146H132.902V153.002L134.526 152.498L134.666 153.422ZM136.612 148.62H142.058C142.058 148.62 142.058 149.026 142.044 149.152C141.736 155.494 141.428 157.664 140.868 158.364C140.602 158.728 140.322 158.854 139.902 158.896C139.524 158.952 138.922 158.938 138.306 158.896C138.292 158.588 138.194 158.154 138.012 157.874C138.642 157.93 139.202 157.944 139.482 157.944C139.706 157.944 139.846 157.888 140 157.706C140.448 157.216 140.756 155.144 141.036 149.6H140.364C139.664 153.268 138.124 156.992 135.8 158.84C135.604 158.616 135.24 158.364 134.932 158.21C137.228 156.558 138.74 153.114 139.468 149.6H138.32C137.69 151.994 136.402 154.612 134.876 155.942C134.68 155.732 134.344 155.494 134.05 155.34C135.534 154.178 136.78 151.84 137.424 149.6H136.22C135.758 150.622 135.226 151.546 134.624 152.26C134.456 152.092 134.036 151.798 133.826 151.658C134.974 150.412 135.814 148.396 136.276 146.282L137.228 146.478C137.06 147.22 136.85 147.934 136.612 148.62ZM149.674 146.884C149.548 147.388 149.352 148.242 149.128 149.054C149.856 148.942 150.612 148.774 151.326 148.536L151.354 149.586C150.612 149.796 149.73 149.978 148.806 150.104C148.12 152.078 146.874 154.5 145.754 156.012L144.676 155.452C145.838 154.094 147.028 151.854 147.672 150.216C147.252 150.244 146.832 150.258 146.426 150.258C145.908 150.258 145.32 150.244 144.788 150.216L144.718 149.166C145.236 149.236 145.838 149.264 146.426 149.264C146.93 149.264 147.462 149.236 148.008 149.194C148.218 148.41 148.414 147.528 148.442 146.772L149.674 146.884ZM148.904 156.6C148.904 157.258 149.436 157.706 150.528 157.706C151.69 157.706 152.082 157.09 152.082 156.32C152.082 156.138 152.082 155.928 152.068 155.69C151.62 155.55 151.13 155.48 150.626 155.48C149.604 155.48 148.904 155.956 148.904 156.6ZM152.978 151.21C152.95 151.784 152.95 152.218 152.964 152.722C152.978 153.24 153.034 154.15 153.062 155.018C154.266 155.452 155.246 156.138 155.974 156.754L155.372 157.706C154.77 157.174 154.014 156.544 153.104 156.096C153.118 156.32 153.118 156.516 153.118 156.684C153.118 157.804 152.404 158.714 150.668 158.714C149.128 158.714 147.868 158.084 147.868 156.698C147.868 155.41 149.086 154.598 150.668 154.598C151.144 154.598 151.606 154.64 152.04 154.738C151.984 153.59 151.914 152.204 151.886 151.21H152.978ZM155.778 151.588C155.022 150.944 153.51 150.076 152.572 149.656L153.146 148.802C154.154 149.25 155.75 150.16 156.408 150.664L155.778 151.588ZM161.854 147.29C162.414 148.83 163.128 150.342 163.73 151.448C164.962 150.706 166.236 150.09 167.006 149.656C167.398 149.418 167.706 149.236 168 148.998L168.56 150.02C168.252 150.202 167.902 150.384 167.496 150.594C166.544 151.098 164.976 151.826 163.618 152.736C162.316 153.576 161.532 154.5 161.532 155.564C161.532 156.726 162.638 157.454 164.85 157.454C166.376 157.454 168.238 157.258 169.33 156.978L169.316 158.224C168.266 158.42 166.642 158.574 164.892 158.574C162.26 158.574 160.37 157.79 160.37 155.69C160.37 154.234 161.28 153.1 162.792 152.064C162.148 150.902 161.406 149.264 160.748 147.752L161.854 147.29ZM168.798 147.15C169.148 147.654 169.652 148.508 169.946 149.082L169.19 149.418C168.91 148.844 168.434 148.004 168.042 147.472L168.798 147.15ZM170.338 146.59C170.716 147.094 171.248 147.976 171.514 148.494L170.772 148.83C170.464 148.228 170.002 147.43 169.596 146.898L170.338 146.59ZM175.605 158.784C174.709 157.678 173.505 156.474 172.511 155.662L173.421 154.864C174.429 155.676 175.689 156.95 176.557 157.972L175.605 158.784ZM196.199 149.6C196.199 150.16 196.661 150.622 197.235 150.622C197.795 150.622 198.257 150.16 198.257 149.6C198.257 149.026 197.795 148.578 197.235 148.578C196.661 148.578 196.199 149.026 196.199 149.6ZM195.527 149.6C195.527 148.662 196.297 147.892 197.235 147.892C198.173 147.892 198.929 148.662 198.929 149.6C198.929 150.538 198.173 151.294 197.235 151.294C196.297 151.294 195.527 150.538 195.527 149.6ZM187.085 154.318C187.449 154.01 187.701 153.758 188.079 153.38C188.737 152.708 189.955 151.154 190.837 150.118C191.593 149.236 192.251 149.082 193.203 149.978C194.057 150.79 195.247 152.036 196.073 152.918C197.011 153.912 198.411 155.438 199.489 156.586L198.523 157.608C197.529 156.404 196.297 154.976 195.401 153.954C194.589 153.03 193.287 151.644 192.699 151.07C192.153 150.538 191.887 150.594 191.411 151.168C190.739 151.994 189.577 153.52 188.933 154.304C188.653 154.654 188.345 155.088 188.135 155.382L187.085 154.318ZM202.331 151.938C202.751 151.966 203.493 152.008 204.277 152.008H211.949C212.649 152.008 213.153 151.966 213.461 151.938V153.31C213.181 153.296 212.593 153.24 211.963 153.24H204.277C203.507 153.24 202.765 153.268 202.331 153.31V151.938ZM225.213 147.556C225.563 148.06 226.193 149.068 226.515 149.726L225.717 150.09C225.367 149.362 224.905 148.522 224.443 147.878L225.213 147.556ZM227.047 146.884C227.425 147.374 228.041 148.382 228.391 149.026L227.593 149.39C227.215 148.648 226.739 147.85 226.263 147.22L227.047 146.884ZM219.235 147.346C220.061 147.808 221.671 148.886 222.273 149.32L221.615 150.286C220.943 149.768 219.417 148.76 218.605 148.284L219.235 147.346ZM217.135 157.356C218.661 157.09 220.411 156.53 221.825 155.732C224.149 154.402 225.997 152.568 227.131 150.594L227.803 151.756C226.585 153.632 224.653 155.438 222.413 156.754C221.013 157.58 219.081 158.224 217.779 158.49L217.135 157.356ZM217.121 150.496C217.947 150.944 219.585 151.952 220.187 152.386L219.557 153.366C218.857 152.862 217.345 151.882 216.491 151.448L217.121 150.496ZM232.157 148.396C232.619 148.452 233.235 148.48 233.683 148.48H240.585C240.921 148.48 241.341 148.466 241.621 148.452C241.607 148.774 241.579 149.208 241.579 149.544V156.768C241.579 157.272 241.621 157.902 241.635 158.126H240.375C240.389 157.972 240.389 157.678 240.403 157.342H233.557C232.983 157.342 232.353 157.37 231.975 157.398V156.124C232.339 156.166 232.941 156.208 233.529 156.208H240.403V149.6H233.697C233.179 149.6 232.479 149.628 232.157 149.642V148.396ZM247.487 147.738C248.481 148.396 250.273 149.852 251.057 150.636L250.175 151.518C249.475 150.79 247.725 149.292 246.689 148.592L247.487 147.738ZM246.283 157.118C248.733 156.754 250.553 155.9 251.883 155.074C254.039 153.716 255.747 151.644 256.559 149.922L257.231 151.112C256.279 152.862 254.641 154.766 252.527 156.096C251.127 156.978 249.363 157.832 247.025 158.266L246.283 157.118ZM261.879 147.64C262.271 147.682 262.691 147.724 263.139 147.724H268.809C269.201 147.724 269.705 147.696 270.111 147.64V148.802C269.705 148.774 269.215 148.76 268.809 148.76H263.153C262.691 148.76 262.229 148.774 261.879 148.802V147.64ZM260.199 151.154C260.591 151.196 260.983 151.224 261.417 151.224H270.587C270.881 151.224 271.343 151.21 271.679 151.154V152.316C271.371 152.302 270.923 152.288 270.587 152.288H266.779C266.737 153.8 266.513 155.074 265.953 156.11C265.449 157.048 264.385 158.056 263.195 158.672L262.159 157.902C263.251 157.454 264.259 156.642 264.805 155.76C265.421 154.78 265.575 153.604 265.617 152.288H261.417C260.997 152.288 260.591 152.288 260.199 152.316V151.154ZM276.607 147.738C277.601 148.396 279.393 149.852 280.177 150.636L279.295 151.518C278.595 150.79 276.845 149.292 275.809 148.592L276.607 147.738ZM275.403 157.118C277.853 156.754 279.673 155.9 281.003 155.074C283.159 153.716 284.867 151.644 285.679 149.922L286.351 151.112C285.399 152.862 283.761 154.766 281.647 156.096C280.247 156.978 278.483 157.832 276.145 158.266L275.403 157.118ZM294.373 147.472C294.681 148.144 295.521 150.37 295.759 151.154L294.667 151.532C294.443 150.734 293.645 148.564 293.295 147.836L294.373 147.472ZM300.589 148.368C300.491 148.606 300.393 148.942 300.337 149.166C299.917 150.902 299.161 152.904 298.013 154.416C296.571 156.32 294.499 157.762 292.525 158.462L291.559 157.482C293.561 156.894 295.647 155.55 297.061 153.758C298.167 152.344 299.021 150.104 299.301 148.004L300.589 148.368ZM290.467 148.312C290.831 149.096 291.713 151.238 292.035 152.148L290.929 152.554C290.663 151.686 289.697 149.32 289.361 148.718L290.467 148.312ZM315.261 153.1C315.261 156.04 313.329 158 310.011 158.434L309.353 157.398C309.801 157.356 310.235 157.286 310.557 157.216C312.349 156.81 314.113 155.48 314.113 153.058C314.113 150.944 312.755 149.194 310.375 148.998C310.193 150.3 309.927 151.728 309.535 153.03C308.681 155.914 307.575 157.384 306.273 157.384C305.027 157.384 303.781 155.956 303.781 153.646C303.781 150.608 306.483 147.948 309.899 147.948C313.175 147.948 315.261 150.258 315.261 153.1ZM304.873 153.548C304.873 155.312 305.685 156.096 306.315 156.096C306.973 156.096 307.715 155.158 308.429 152.792C308.779 151.63 309.059 150.3 309.213 149.012C306.525 149.348 304.873 151.644 304.873 153.548ZM323.031 153.954L322.401 154.78C322.177 154.388 321.603 153.618 321.127 153.044V159.036H320.119V152.848C319.545 154.262 318.803 155.662 318.089 156.516C317.991 156.222 317.739 155.816 317.571 155.564C318.453 154.584 319.419 152.778 319.979 151.182H317.837V150.202H320.119V148.074C319.433 148.214 318.719 148.326 318.075 148.424C318.019 148.186 317.879 147.85 317.753 147.612C319.321 147.36 321.155 146.954 322.177 146.492L322.905 147.276C322.401 147.486 321.785 147.682 321.127 147.836V150.202H322.877V151.182H321.127V152.036C321.561 152.4 322.751 153.632 323.031 153.954ZM324.109 154.206H326.069V153.086H324.109V154.206ZM324.109 151.308V152.4H326.069V151.308H324.109ZM329.079 151.308H327.063V152.4H329.079V151.308ZM329.079 154.206V153.086H327.063V154.206H329.079ZM327.063 157.916H330.563V158.784H322.233V157.916H326.069V156.824H323.031V155.984H326.069V154.99H323.185V150.524H326.069V149.586H322.597V148.732H326.069V147.794C325.061 147.864 324.025 147.906 323.087 147.934C323.073 147.71 322.947 147.346 322.849 147.15C325.173 147.052 328.071 146.814 329.639 146.464L330.269 147.248C329.387 147.444 328.267 147.598 327.063 147.71V148.732H330.297V149.586H327.063V150.524H330.017V154.99H327.063V155.984H330.087V156.824H327.063V157.916ZM343.569 151.322V149.978H339.789V151.322H343.569ZM343.569 153.436V152.078H339.789V153.436H343.569ZM343.569 155.564V154.206H339.789V155.564H343.569ZM338.851 149.152H340.727C340.839 148.746 340.965 148.27 341.049 147.85H338.389V146.94H344.983V147.85H342.169C342.015 148.298 341.875 148.746 341.721 149.152H344.549V156.39H338.851V149.152ZM337.269 146.576L338.151 146.856C337.829 147.472 337.479 148.116 337.185 148.55L336.471 148.284C336.751 147.822 337.087 147.08 337.269 146.576ZM334.245 148.214L333.503 148.55C333.377 148.074 333.055 147.402 332.719 146.898L333.447 146.604C333.797 147.108 334.147 147.78 334.245 148.214ZM334.903 152.582V150.51C334.301 151.336 333.545 152.106 332.831 152.554C332.705 152.344 332.411 152.036 332.215 151.868C333.083 151.42 333.993 150.524 334.595 149.614H332.467V148.76H334.903V146.436H335.827V148.76H338.305V149.614H335.827V149.796C336.373 150.09 338.011 151.154 338.389 151.434L337.815 152.19C337.451 151.826 336.513 151.126 335.827 150.636V152.582H334.903ZM338.221 157.44L337.535 158.14C337.073 157.678 336.233 157.006 335.463 156.432C335.071 157.314 334.287 158.154 332.775 158.826C332.663 158.588 332.383 158.224 332.201 158.042C334.231 157.16 334.735 156.012 334.861 154.948H332.467V154.038H334.889V152.876H335.841V154.038H338.375V154.948H335.813C335.799 155.144 335.771 155.354 335.743 155.55C336.583 156.138 337.661 156.908 338.221 157.44ZM340.139 156.656L341.049 157.174C340.321 157.902 339.145 158.644 338.123 159.064C337.955 158.868 337.647 158.546 337.437 158.364C338.445 157.972 339.593 157.258 340.139 156.656ZM342.169 157.244L342.925 156.726C343.737 157.23 344.773 157.972 345.305 158.49L344.493 159.064C344.003 158.56 342.981 157.776 342.169 157.244ZM352.613 148.55C354.139 148.802 356.967 148.746 358.367 148.536V149.67C356.869 149.838 354.153 149.838 352.613 149.67V148.55ZM353.159 154.248C353.019 154.766 352.949 155.158 352.949 155.536C352.949 156.18 353.411 156.796 355.315 156.796C356.575 156.796 357.653 156.684 358.787 156.432L358.815 157.608C357.933 157.776 356.757 157.902 355.315 157.902C352.963 157.902 351.913 157.118 351.913 155.802C351.913 155.326 351.997 154.836 352.151 154.15L353.159 154.248ZM349.939 147.472C349.869 147.71 349.743 148.158 349.687 148.41C349.421 149.698 348.987 152.204 348.987 153.772C348.987 154.458 349.029 155.046 349.113 155.732C349.351 155.102 349.687 154.262 349.925 153.688L350.513 154.136C350.149 155.13 349.645 156.614 349.519 157.272C349.477 157.482 349.435 157.748 349.449 157.902C349.463 158.056 349.477 158.252 349.491 158.392L348.483 158.462C348.203 157.468 347.965 155.858 347.965 153.968C347.965 151.91 348.427 149.516 348.595 148.354C348.651 148.032 348.693 147.668 348.693 147.36L349.939 147.472ZM363.673 156.39C363.673 157.16 364.457 157.594 365.801 157.594C366.823 157.594 367.327 157.118 367.327 156.152C367.327 155.928 367.313 155.62 367.313 155.256C366.865 155.158 366.403 155.116 365.941 155.116C364.499 155.116 363.673 155.62 363.673 156.39ZM368.363 147.01C368.321 147.304 368.279 147.976 368.265 148.396C368.251 148.774 368.265 149.278 368.265 149.824C369.371 149.796 371.149 149.726 372.409 149.572L372.451 150.622C371.205 150.748 369.413 150.832 368.265 150.846C368.265 150.888 368.265 150.916 368.265 150.958C368.265 151.882 368.335 153.24 368.405 154.458C370.197 154.948 371.751 155.928 372.759 156.838L372.087 157.902C371.191 156.992 369.903 156.096 368.447 155.578C368.461 155.942 368.475 156.264 368.475 156.516C368.475 157.664 367.775 158.644 365.913 158.644C363.981 158.644 362.553 158.028 362.553 156.432C362.553 155.172 363.659 154.136 366.081 154.136C366.487 154.136 366.879 154.164 367.271 154.22C367.215 153.086 367.159 151.798 367.159 150.958C367.159 150.146 367.159 148.998 367.145 148.396C367.145 147.892 367.103 147.262 367.033 147.01H368.363ZM377.165 152.414C377.585 152.33 378.033 152.204 378.481 152.064C379.475 151.756 381.771 150.916 383.423 150.916C385.411 150.916 386.839 152.106 386.839 154.024C386.839 156.712 384.249 158.084 380.469 158.322L380.021 157.244C383.045 157.146 385.705 156.278 385.705 153.996C385.705 152.82 384.767 151.924 383.339 151.924C381.603 151.924 378.537 153.212 377.641 153.562L377.165 152.414ZM389.978 148.704C390.51 148.69 390.958 148.662 391.224 148.634C392.134 148.536 394.78 148.27 397.356 148.06C398.882 147.92 400.198 147.85 401.136 147.808V148.928C400.338 148.928 399.106 148.942 398.392 149.152C396.404 149.796 395.186 151.924 395.186 153.576C395.186 156.32 397.734 157.188 400.016 157.272L399.61 158.434C397.02 158.336 394.066 156.95 394.066 153.828C394.066 151.644 395.396 149.866 396.684 149.096C395.186 149.264 391.616 149.6 390.104 149.922L389.978 148.704ZM410.46 146.982C410.418 147.304 410.39 147.794 410.376 148.13C410.362 148.634 410.334 149.11 410.306 149.572H413.638C414.016 149.572 414.296 149.544 414.534 149.502L415.318 149.894C415.276 150.132 415.248 150.398 415.248 150.58C415.192 151.924 415.024 155.998 414.394 157.342C414.114 157.93 413.666 158.196 412.896 158.196C412.182 158.196 411.37 158.14 410.642 158.098L410.502 156.936C411.258 157.034 412 157.09 412.588 157.09C412.994 157.09 413.246 156.978 413.4 156.628C413.932 155.564 414.114 152.12 414.114 150.622H410.194C409.69 154.64 408.234 156.768 405.896 158.378L404.874 157.552C405.322 157.314 405.896 156.922 406.316 156.516C407.702 155.256 408.71 153.506 409.088 150.622H406.736C406.19 150.622 405.616 150.622 405.126 150.678V149.488C405.616 149.544 406.19 149.572 406.722 149.572H409.186C409.214 149.124 409.242 148.648 409.242 148.144C409.242 147.836 409.2 147.318 409.144 146.982H410.46ZM421.142 147.57C421.506 147.626 421.954 147.64 422.402 147.64H427.904C428.352 147.64 428.842 147.626 429.178 147.57V148.732C428.842 148.704 428.366 148.69 427.89 148.69H422.402C421.968 148.69 421.52 148.704 421.142 148.732V147.57ZM430.2 151.266C430.13 151.392 430.046 151.574 430.018 151.672C429.64 153.058 429.01 154.514 427.974 155.648C426.504 157.258 424.754 158.084 422.962 158.574L422.094 157.58C424.082 157.174 425.832 156.278 427.022 155.018C427.876 154.122 428.436 152.932 428.688 151.924H421.254C420.918 151.924 420.386 151.938 419.882 151.966V150.79C420.4 150.846 420.876 150.874 421.254 150.874H428.632C428.954 150.874 429.248 150.846 429.402 150.762L430.2 151.266ZM439.352 147.556C439.212 147.906 439.058 148.27 438.876 148.858C438.47 150.174 437.084 154.472 436.384 156.292C438.442 156.096 441.13 155.802 442.67 155.592C442.11 154.486 441.48 153.394 440.962 152.722L442.012 152.246C443.006 153.688 444.532 156.502 445.12 157.944L443.944 158.476C443.762 157.972 443.496 157.328 443.174 156.642C441.018 156.922 436.328 157.44 434.452 157.608C434.102 157.636 433.696 157.706 433.29 157.762L433.08 156.46C433.5 156.474 433.976 156.46 434.382 156.446C434.592 156.432 434.83 156.418 435.082 156.404C435.866 154.472 437.294 149.992 437.686 148.62C437.854 147.976 437.91 147.64 437.952 147.276L439.352 147.556ZM455.844 147.038C455.788 147.43 455.76 147.822 455.76 148.214C455.76 148.536 455.774 149.012 455.788 149.572H457.986C458.35 149.572 458.896 149.516 459.176 149.488V150.664C458.854 150.65 458.364 150.636 458.028 150.636H455.802C455.844 152.736 455.886 155.522 455.9 157.272C455.9 158 455.466 158.392 454.626 158.392C453.898 158.392 453.072 158.364 452.386 158.308L452.288 157.16C452.96 157.272 453.744 157.328 454.262 157.328C454.668 157.328 454.78 157.146 454.78 156.768C454.78 155.648 454.766 153.562 454.738 151.686C453.576 153.338 451.126 155.606 448.62 156.936L447.808 156.026C450.65 154.64 453.142 152.316 454.248 150.636H449.642C449.166 150.636 448.76 150.65 448.326 150.678V149.488C448.732 149.53 449.18 149.572 449.614 149.572H454.71C454.696 149.012 454.682 148.536 454.668 148.214C454.626 147.682 454.598 147.332 454.542 147.038H455.844ZM473.218 148.69C473.12 148.886 473.064 149.124 473.008 149.39C472.714 150.86 472.028 153.114 470.922 154.556C469.648 156.194 467.982 157.496 465.406 158.308L464.454 157.258C467.17 156.572 468.738 155.382 469.914 153.884C470.908 152.61 471.552 150.664 471.748 149.32H464.594C464.034 149.32 463.558 149.348 463.194 149.362V148.13C463.586 148.172 464.132 148.214 464.594 148.214H471.622C471.832 148.214 472.098 148.214 472.364 148.144L473.218 148.69ZM480.008 156.194V151.952C478.594 152.246 477.348 152.498 476.774 152.624L476.564 151.462C477.194 151.378 478.524 151.14 480.008 150.86V148.466C480.008 148.046 479.98 147.584 479.91 147.178H481.24C481.17 147.584 481.142 148.06 481.142 148.466V150.65C483.522 150.188 485.972 149.684 486.56 149.558C486.868 149.488 487.134 149.404 487.302 149.306L488.128 149.95C488.03 150.09 487.89 150.328 487.792 150.51C487.148 151.672 486.042 153.422 484.922 154.584L483.942 153.996C484.992 153.044 486.014 151.504 486.434 150.664C486.196 150.706 483.62 151.224 481.142 151.728V155.9C481.142 156.866 481.506 157.174 483.172 157.174C484.796 157.174 486.14 157.034 487.54 156.768L487.484 157.972C486.238 158.154 484.838 158.252 483.088 158.252C480.484 158.252 480.008 157.58 480.008 156.194ZM497.046 149.936C497.284 150.496 497.97 152.344 498.152 152.96L497.116 153.324C496.962 152.694 496.318 150.916 496.024 150.286L497.046 149.936ZM502.114 150.72C502.016 151.014 501.96 151.238 501.904 151.42C501.526 152.96 500.924 154.458 499.916 155.718C498.628 157.37 496.92 158.448 495.352 159.05L494.428 158.112C496.052 157.636 497.83 156.572 498.978 155.13C499.972 153.912 500.7 152.134 500.91 150.342L502.114 150.72ZM493.798 150.636C494.078 151.238 494.806 153.072 495.072 153.8L494.008 154.192C493.798 153.464 493.042 151.532 492.762 151.042L493.798 150.636ZM509.562 156.768V148.62C509.562 148.228 509.534 147.598 509.45 147.164H510.822C510.78 147.598 510.724 148.2 510.724 148.62C510.724 149.208 510.724 150.02 510.724 150.902C512.572 151.462 515.232 152.47 516.702 153.212L516.226 154.402C514.7 153.576 512.278 152.638 510.724 152.148C510.738 154.248 510.738 156.362 510.738 156.768C510.738 157.202 510.766 157.958 510.822 158.42H509.464C509.534 157.972 509.562 157.286 509.562 156.768ZM525.844 146.926C525.76 147.346 525.648 147.892 525.438 148.55C526.866 148.48 528.392 148.354 529.708 148.116L529.694 149.152C528.308 149.376 526.572 149.488 525.046 149.544C524.724 150.286 524.262 151.084 523.786 151.714C524.318 151.378 525.13 151.196 525.732 151.196C526.642 151.196 527.384 151.644 527.608 152.456C528.56 151.994 529.414 151.658 530.142 151.322C530.562 151.14 530.898 150.986 531.29 150.776L531.752 151.826C531.388 151.924 530.884 152.12 530.506 152.274C529.722 152.568 528.728 152.974 527.664 153.478C527.678 154.29 527.692 155.48 527.706 156.166H526.628C526.656 155.634 526.67 154.724 526.67 153.982C525.368 154.668 524.458 155.41 524.458 156.334C524.458 157.426 525.55 157.594 526.992 157.594C528.084 157.594 529.582 157.468 530.814 157.258L530.786 158.378C529.722 158.518 528.168 158.63 526.95 158.63C524.948 158.63 523.338 158.196 523.338 156.488C523.338 154.836 525.004 153.8 526.642 152.946C526.502 152.344 525.998 152.078 525.368 152.078C524.486 152.078 523.59 152.512 522.96 153.1C522.554 153.478 522.162 153.996 521.686 154.556L520.734 153.856C522.498 152.148 523.436 150.706 523.968 149.572C523.758 149.572 523.548 149.572 523.352 149.572C522.75 149.572 521.826 149.544 521.056 149.488V148.438C521.798 148.536 522.778 148.592 523.422 148.592C523.716 148.592 524.038 148.592 524.346 148.578C524.542 147.976 524.668 147.346 524.696 146.828L525.844 146.926ZM537.87 146.254L538.85 146.562C538.458 147.542 537.954 148.536 537.408 149.474V159.134H536.414V150.972C535.924 151.658 535.392 152.274 534.874 152.792C534.776 152.554 534.482 152.008 534.286 151.784C535.7 150.454 537.058 148.368 537.87 146.254ZM539.844 153.114H542.322C542.336 152.904 542.336 152.694 542.336 152.484V151.042H539.844V153.114ZM545.934 151.042H543.358V152.484C543.358 152.694 543.358 152.904 543.344 153.114H545.934V151.042ZM546.928 153.996H543.288C543.176 154.962 542.924 155.872 542.364 156.684C543.764 157.454 545.528 157.93 547.516 158.168C547.292 158.392 547.04 158.798 546.9 159.106C544.926 158.812 543.176 158.266 541.748 157.412C541.048 158.098 540.04 158.686 538.584 159.12C538.472 158.896 538.178 158.462 537.954 158.252C539.326 157.902 540.25 157.426 540.908 156.838C540.082 156.222 539.396 155.466 538.878 154.57L539.746 154.29C540.166 155.018 540.768 155.634 541.51 156.152C541.958 155.508 542.168 154.766 542.266 153.996H538.878V150.16H542.336V148.788H538.472V147.836H542.336V146.352H543.358V147.836H547.39V148.788H543.358V150.16H546.928V153.996ZM556.112 153.814H559.878V151.49H556.112V153.814ZM551.674 153.814H555.076V151.49H551.73V152.316C551.73 152.778 551.716 153.296 551.674 153.814ZM555.076 148.27H551.73V150.51H555.076V148.27ZM559.878 150.51V148.27H556.112V150.51H559.878ZM560.9 147.276V157.664C560.9 158.336 560.718 158.644 560.27 158.826C559.794 158.994 558.982 159.008 557.666 158.994C557.624 158.714 557.456 158.266 557.316 157.986C558.296 158.028 559.248 158.014 559.5 158.014C559.78 158 559.878 157.916 559.878 157.65V154.808H556.112V158.938H555.076V154.808H551.576C551.366 156.362 550.89 157.958 549.826 159.148C549.672 158.938 549.252 158.588 549.028 158.462C550.568 156.726 550.708 154.262 550.708 152.316V147.276H560.9ZM571.862 146.912C571.834 147.066 571.806 147.612 571.792 147.794C571.792 148.004 571.778 148.326 571.778 148.704C571.848 148.704 571.918 148.704 571.988 148.704C573.696 148.704 575.418 148.718 576.09 148.718L576.076 149.754C575.292 149.712 574.018 149.684 571.974 149.684C571.904 149.684 571.848 149.684 571.778 149.684C571.778 150.482 571.792 151.35 571.806 151.994C572.1 152.47 572.254 153.086 572.254 153.786C572.254 155.676 571.33 157.776 568.068 158.756L567.13 157.832C568.992 157.412 570.28 156.628 570.84 155.354C570.504 155.606 570.098 155.732 569.622 155.732C568.446 155.732 567.326 154.92 567.326 153.394C567.326 152.008 568.46 150.958 569.79 150.958C570.14 150.958 570.448 151.014 570.728 151.112C570.728 150.692 570.728 150.188 570.714 149.698C568.586 149.712 566.206 149.81 564.456 149.936L564.428 148.858C565.982 148.83 568.614 148.746 570.7 148.718C570.7 148.326 570.686 147.99 570.672 147.794C570.658 147.43 570.602 147.024 570.588 146.912H571.862ZM568.376 153.38C568.376 154.248 569.02 154.766 569.804 154.766C570.63 154.766 571.162 154.108 571.036 152.778C570.812 152.162 570.336 151.896 569.79 151.896C569.062 151.896 568.376 152.47 568.376 153.38ZM582.768 156.53C582.768 157.202 583.538 157.622 584.63 157.622C585.036 157.622 585.414 157.594 585.764 157.538C585.652 156.432 584.952 155.634 583.888 155.634C583.258 155.634 582.768 156.04 582.768 156.53ZM580.976 147.682C581.298 147.724 581.69 147.738 581.97 147.738C582.698 147.738 586.03 147.626 586.772 147.556C587.192 147.528 587.388 147.486 587.528 147.444L588.172 148.256C587.92 148.438 587.64 148.62 587.388 148.83C586.688 149.362 584.784 150.986 583.692 151.896C584.336 151.672 585.008 151.602 585.638 151.602C587.962 151.602 589.628 153.002 589.628 154.892C589.628 157.146 587.78 158.602 584.812 158.602C582.908 158.602 581.746 157.776 581.746 156.614C581.746 155.648 582.6 154.794 583.902 154.794C585.652 154.794 586.59 155.942 586.758 157.272C587.878 156.838 588.508 156.026 588.508 154.878C588.508 153.506 587.192 152.47 585.372 152.47C583.034 152.47 581.788 153.464 580.01 155.27L579.212 154.444C580.374 153.492 582.166 151.994 582.978 151.308C583.762 150.664 585.512 149.194 586.226 148.564C585.484 148.592 582.684 148.718 581.942 148.76C581.634 148.774 581.312 148.802 581.018 148.844L580.976 147.682ZM595.494 148.172C596.502 148.298 597.79 148.354 599.19 148.354C600.534 148.354 601.962 148.256 602.97 148.158V149.306C602.018 149.376 600.492 149.474 599.19 149.474C597.79 149.474 596.6 149.404 595.494 149.32V148.172ZM596.054 153.814C595.872 154.374 595.76 154.892 595.76 155.41C595.76 156.474 596.852 157.216 599.092 157.216C601.024 157.216 602.83 157.006 603.88 156.656L603.894 157.86C602.886 158.14 601.108 158.35 599.12 158.35C596.278 158.35 594.626 157.412 594.626 155.648C594.626 154.934 594.794 154.276 594.92 153.702L596.054 153.814ZM611.076 147.108C611.636 148.648 612.336 150.16 612.952 151.266C614.268 150.468 615.78 149.726 616.55 149.306C616.956 149.068 617.25 148.886 617.544 148.648L618.16 149.642C617.838 149.838 617.488 150.02 617.082 150.23C616.13 150.72 614.198 151.644 612.826 152.554C611.524 153.394 610.74 154.318 610.74 155.382C610.74 156.544 611.846 157.272 614.058 157.272C615.584 157.272 617.446 157.076 618.538 156.796V158.042C617.474 158.224 615.864 158.392 614.114 158.392C611.482 158.392 609.578 157.608 609.578 155.508C609.578 154.066 610.502 152.932 612 151.882C611.356 150.734 610.614 149.096 609.97 147.57L611.076 147.108ZM622.007 148.788C622.539 148.774 622.987 148.746 623.253 148.718C624.163 148.62 626.809 148.354 629.385 148.144C630.911 148.018 632.227 147.934 633.165 147.892V149.012C632.367 149.012 631.135 149.026 630.421 149.236C628.433 149.88 627.215 152.008 627.215 153.674C627.215 156.404 629.763 157.272 632.045 157.356L631.639 158.518C629.049 158.42 626.095 157.034 626.095 153.912C626.095 151.728 627.425 149.95 628.713 149.18C627.215 149.348 623.645 149.684 622.133 150.006L622.007 148.788ZM631.149 150.734C631.471 151.196 632.003 152.064 632.297 152.68L631.583 153.016C631.261 152.344 630.855 151.616 630.435 151.042L631.149 150.734ZM632.675 150.146C633.011 150.608 633.571 151.462 633.893 152.078L633.165 152.428C632.829 151.742 632.423 151.056 631.989 150.468L632.675 150.146ZM638.722 158.784C637.826 157.678 636.622 156.474 635.628 155.662L636.538 154.864C637.546 155.676 638.806 156.95 639.674 157.972L638.722 158.784ZM68.698 172.374V173.368H61.418V172.374H68.698ZM59.906 171.324L60.872 171.618C60.48 172.598 59.99 173.592 59.444 174.502V184.022H58.464V176C57.96 176.7 57.442 177.316 56.91 177.848C56.812 177.624 56.504 177.064 56.322 176.84C57.736 175.51 59.094 173.438 59.906 171.324ZM69.58 183.616L68.6 184.078C68.488 183.714 68.32 183.308 68.11 182.86C65.338 183.112 62.426 183.35 60.41 183.504L60.214 182.454C60.676 182.426 61.194 182.398 61.754 182.356C62.314 181.04 62.93 179.094 63.294 177.54H60.368V176.532H69.454V177.54H64.498C64.022 179.08 63.406 180.928 62.832 182.286C64.302 182.188 65.982 182.062 67.634 181.922C67.2 181.138 66.682 180.326 66.164 179.626L67.06 179.22C68.124 180.578 69.188 182.412 69.58 183.616ZM74.928 171.954C76.454 172.29 79.128 172.612 80.458 172.696L80.304 173.732C78.904 173.606 76.454 173.284 74.746 172.976L74.928 171.954ZM80.738 175.958C80.472 176.14 80.136 176.434 79.968 176.588C79.436 177.078 77.854 178.548 77.336 179.08C77.476 179.066 77.728 179.08 77.882 179.108C78.428 179.164 78.75 179.542 78.946 180.116C79.072 180.522 79.268 181.222 79.408 181.684C79.576 182.216 79.912 182.44 80.626 182.44C81.55 182.44 82.614 182.328 83.272 182.16L83.202 183.336C82.614 183.434 81.326 183.546 80.57 183.546C79.45 183.546 78.75 183.28 78.456 182.356C78.316 181.936 78.106 181.11 77.98 180.704C77.812 180.214 77.504 179.962 77.126 179.962C76.734 179.962 76.412 180.158 76.09 180.466C75.558 180.97 74.032 182.58 73.248 183.588L72.184 182.846C72.352 182.692 72.604 182.482 72.884 182.216C73.444 181.642 77.252 177.834 78.638 176.448C77.532 176.518 75.18 176.714 74.326 176.784C73.864 176.826 73.5 176.868 73.192 176.924L73.094 175.692C73.416 175.72 73.836 175.734 74.284 175.72C75.082 175.706 78.344 175.482 79.394 175.356C79.632 175.328 79.94 175.258 80.066 175.202L80.738 175.958ZM92.932 179.654C92.806 180.116 92.736 180.55 92.736 180.914C92.736 181.572 93.1 182.216 95.102 182.216C96.012 182.216 96.978 182.118 97.832 181.936L97.79 183.07C97.034 183.182 96.11 183.266 95.088 183.266C92.876 183.266 91.672 182.594 91.672 181.208C91.672 180.662 91.77 180.144 91.882 179.556L92.932 179.654ZM91.322 171.982C91.238 172.29 91.126 172.822 91.07 173.102C91.014 173.396 90.944 173.76 90.86 174.138C91.77 174.026 92.694 173.858 93.548 173.634V174.74C92.638 174.95 91.616 175.104 90.636 175.216C90.51 175.832 90.356 176.476 90.188 177.092C89.684 179.08 88.732 181.964 88.004 183.504L86.772 183.084C87.612 181.642 88.606 178.8 89.124 176.826C89.25 176.364 89.376 175.832 89.488 175.328C89.026 175.356 88.592 175.37 88.2 175.37C87.584 175.37 87.08 175.342 86.576 175.314L86.534 174.222C87.206 174.306 87.71 174.32 88.214 174.32C88.676 174.32 89.18 174.292 89.726 174.25C89.824 173.76 89.894 173.312 89.936 173.032C89.992 172.64 90.006 172.164 89.978 171.87L91.322 171.982ZM92.638 176.252C93.38 176.182 94.304 176.126 95.2 176.126C96.026 176.126 96.866 176.168 97.622 176.252L97.594 177.316C96.88 177.218 96.054 177.148 95.242 177.148C94.36 177.148 93.506 177.19 92.638 177.288V176.252ZM102.802 173.228C102.746 173.564 102.69 174.222 102.69 174.586C102.676 175.468 102.69 176.742 102.788 177.904C103.012 180.242 103.698 181.796 104.692 181.796C105.406 181.796 106.064 180.34 106.428 178.94L107.31 179.934C106.47 182.314 105.616 183.126 104.678 183.126C103.348 183.126 102.074 181.81 101.696 178.184C101.57 176.966 101.542 175.258 101.542 174.446C101.542 174.124 101.528 173.536 101.444 173.2L102.802 173.228ZM110.096 173.62C111.342 175.244 112.35 178.212 112.56 180.578L111.44 181.04C111.188 178.506 110.348 175.636 109.004 173.998L110.096 173.62ZM116.648 173.396C117.11 173.452 117.726 173.48 118.174 173.48H125.076C125.412 173.48 125.832 173.466 126.112 173.452C126.098 173.774 126.07 174.208 126.07 174.544V181.768C126.07 182.272 126.112 182.902 126.126 183.126H124.866C124.88 182.972 124.88 182.678 124.894 182.342H118.048C117.474 182.342 116.844 182.37 116.466 182.398V181.124C116.83 181.166 117.432 181.208 118.02 181.208H124.894V174.6H118.188C117.67 174.6 116.97 174.628 116.648 174.642V173.396ZM131.978 172.738C132.972 173.396 134.764 174.852 135.548 175.636L134.666 176.518C133.966 175.79 132.216 174.292 131.18 173.592L131.978 172.738ZM130.774 182.118C133.224 181.754 135.044 180.9 136.374 180.074C138.53 178.716 140.238 176.644 141.05 174.922L141.722 176.112C140.77 177.862 139.132 179.766 137.018 181.096C135.618 181.978 133.854 182.832 131.516 183.266L130.774 182.118ZM146.37 172.64C146.762 172.682 147.182 172.724 147.63 172.724H153.3C153.692 172.724 154.196 172.696 154.602 172.64V173.802C154.196 173.774 153.706 173.76 153.3 173.76H147.644C147.182 173.76 146.72 173.774 146.37 173.802V172.64ZM144.69 176.154C145.082 176.196 145.474 176.224 145.908 176.224H155.078C155.372 176.224 155.834 176.21 156.17 176.154V177.316C155.862 177.302 155.414 177.288 155.078 177.288H151.27C151.228 178.8 151.004 180.074 150.444 181.11C149.94 182.048 148.876 183.056 147.686 183.672L146.65 182.902C147.742 182.454 148.75 181.642 149.296 180.76C149.912 179.78 150.066 178.604 150.108 177.288H145.908C145.488 177.288 145.082 177.288 144.69 177.316V176.154ZM161.098 172.738C162.092 173.396 163.884 174.852 164.668 175.636L163.786 176.518C163.086 175.79 161.336 174.292 160.3 173.592L161.098 172.738ZM159.894 182.118C162.344 181.754 164.164 180.9 165.494 180.074C167.65 178.716 169.358 176.644 170.17 174.922L170.842 176.112C169.89 177.862 168.252 179.766 166.138 181.096C164.738 181.978 162.974 182.832 160.636 183.266L159.894 182.118ZM178.864 172.472C179.172 173.144 180.012 175.37 180.25 176.154L179.158 176.532C178.934 175.734 178.136 173.564 177.786 172.836L178.864 172.472ZM185.08 173.368C184.982 173.606 184.884 173.942 184.828 174.166C184.408 175.902 183.652 177.904 182.504 179.416C181.062 181.32 178.99 182.762 177.016 183.462L176.05 182.482C178.052 181.894 180.138 180.55 181.552 178.758C182.658 177.344 183.512 175.104 183.792 173.004L185.08 173.368ZM174.958 173.312C175.322 174.096 176.204 176.238 176.526 177.148L175.42 177.554C175.154 176.686 174.188 174.32 173.852 173.718L174.958 173.312ZM194.81 174.11C194.264 173.578 193.354 172.724 192.752 172.276L193.55 171.702C194.012 172.052 195.076 172.934 195.608 173.48L194.81 174.11ZM190.358 172.906C190.456 173.13 190.694 173.592 190.848 173.844C191.1 174.306 191.38 174.866 191.66 175.454C193.354 174.712 195.244 173.956 196.7 173.956C198.632 173.956 199.822 175.062 199.822 176.588C199.822 178.198 198.786 179.416 196.602 179.416C195.818 179.416 195.034 179.22 194.502 179.024L194.544 177.932C195.09 178.17 195.79 178.38 196.532 178.38C198.058 178.38 198.702 177.54 198.702 176.532C198.702 175.706 198.044 174.95 196.672 174.95C195.44 174.95 193.718 175.608 192.094 176.364C192.276 176.756 192.458 177.148 192.626 177.526C193.396 179.262 194.278 181.866 194.754 183.406L193.55 183.728C193.116 182.076 192.444 179.822 191.646 177.988C191.464 177.582 191.296 177.19 191.114 176.826C190.036 177.344 189.056 177.848 188.412 178.142L187.88 176.994C188.286 176.896 188.776 176.714 189.028 176.616C189.504 176.434 190.078 176.182 190.694 175.902C190.4 175.286 190.134 174.754 189.896 174.362C189.714 174.082 189.434 173.648 189.21 173.368L190.358 172.906ZM202.846 177.806L202.048 177.54C202.356 176.602 202.58 175.076 202.678 173.97L203.448 174.068C203.392 175.16 203.168 176.77 202.846 177.806ZM203.756 184.064V171.282H204.722V184.064H203.756ZM204.834 173.606L205.52 173.326C205.828 173.956 206.164 174.796 206.29 175.3L205.562 175.664C205.45 175.132 205.128 174.264 204.834 173.606ZM207.844 181.11H212.884V180.046H207.844V181.11ZM212.884 178.212H207.844V179.262H212.884V178.212ZM213.878 177.4V182.902C213.878 183.434 213.766 183.7 213.374 183.854C212.982 184.008 212.366 184.022 211.372 184.008C211.316 183.756 211.204 183.378 211.078 183.112C211.778 183.14 212.45 183.14 212.618 183.126C212.814 183.126 212.884 183.07 212.884 182.888V181.88H207.844V184.064H206.864V177.4H213.878ZM210.882 175.804H214.956V176.602H205.87V175.804H209.86V174.824H206.626V174.068H209.86V173.172H206.29V172.374H209.86V171.282H210.882V172.374H214.564V173.172H210.882V174.068H214.214V174.824H210.882V175.804ZM221.144 177.89L220.612 177.736C220.836 177.232 221.144 176.448 221.298 175.902H218.568C218.876 176.49 219.142 177.274 219.212 177.75L218.722 177.89H221.144ZM220.402 173.62V175.006H222.978V175.902H221.522L222.194 176.084C221.942 176.728 221.662 177.4 221.424 177.89H222.81V178.8H220.402V180.312H222.628V181.194H220.402V184.036H219.422V181.194H217.126V180.312H219.422V178.8H216.986V177.89H218.358C218.274 177.386 218.036 176.644 217.77 176.084L218.456 175.902H216.79V175.006H219.422V173.62H217.294V172.724H219.422V171.31H220.402V172.724H222.446V173.62H220.402ZM224.378 177.512V183.35C225.12 182.86 225.764 182.216 226.31 181.474C225.526 180.326 224.924 178.968 224.504 177.512H224.378ZM228.06 177.512H225.386C225.736 178.618 226.24 179.682 226.856 180.606C227.402 179.654 227.808 178.59 228.06 177.512ZM228.536 176.602L229.18 176.84C228.886 178.52 228.326 180.102 227.486 181.446C228.13 182.202 228.872 182.818 229.698 183.224C229.474 183.42 229.152 183.798 228.984 184.064C228.214 183.63 227.528 183.014 226.912 182.286C226.38 182.986 225.75 183.602 225.036 184.092C224.896 183.882 224.616 183.602 224.378 183.406V184.078H223.426V171.926H228.858V174.614C228.858 175.132 228.76 175.412 228.312 175.566C227.892 175.706 227.192 175.72 226.128 175.72C226.086 175.44 225.946 175.076 225.806 174.824C226.674 174.852 227.402 174.852 227.612 174.824C227.836 174.81 227.892 174.768 227.892 174.6V172.878H224.378V176.644H228.354L228.536 176.602ZM237.16 171.926C237.076 172.346 236.964 172.892 236.754 173.55C238.182 173.48 239.708 173.354 241.024 173.116L241.01 174.152C239.624 174.376 237.888 174.488 236.362 174.544C236.04 175.286 235.578 176.084 235.102 176.714C235.634 176.378 236.446 176.196 237.048 176.196C237.958 176.196 238.7 176.644 238.924 177.456C239.876 176.994 240.73 176.658 241.458 176.322C241.878 176.14 242.214 175.986 242.606 175.776L243.068 176.826C242.704 176.924 242.2 177.12 241.822 177.274C241.038 177.568 240.044 177.974 238.98 178.478C238.994 179.29 239.008 180.48 239.022 181.166H237.944C237.972 180.634 237.986 179.724 237.986 178.982C236.684 179.668 235.774 180.41 235.774 181.334C235.774 182.426 236.866 182.594 238.308 182.594C239.4 182.594 240.898 182.468 242.13 182.258L242.102 183.378C241.038 183.518 239.484 183.63 238.266 183.63C236.264 183.63 234.654 183.196 234.654 181.488C234.654 179.836 236.32 178.8 237.958 177.946C237.818 177.344 237.314 177.078 236.684 177.078C235.802 177.078 234.906 177.512 234.276 178.1C233.87 178.478 233.478 178.996 233.002 179.556L232.05 178.856C233.814 177.148 234.752 175.706 235.284 174.572C235.074 174.572 234.864 174.572 234.668 174.572C234.066 174.572 233.142 174.544 232.372 174.488V173.438C233.114 173.536 234.094 173.592 234.738 173.592C235.032 173.592 235.354 173.592 235.662 173.578C235.858 172.976 235.984 172.346 236.012 171.828L237.16 171.926ZM248.164 181.39C248.164 182.16 248.948 182.594 250.292 182.594C251.314 182.594 251.818 182.118 251.818 181.152C251.818 180.928 251.804 180.62 251.804 180.256C251.356 180.158 250.894 180.116 250.432 180.116C248.99 180.116 248.164 180.62 248.164 181.39ZM252.854 172.01C252.812 172.304 252.77 172.976 252.756 173.396C252.742 173.774 252.756 174.278 252.756 174.824C253.862 174.796 255.64 174.726 256.9 174.572L256.942 175.622C255.696 175.748 253.904 175.832 252.756 175.846C252.756 175.888 252.756 175.916 252.756 175.958C252.756 176.882 252.826 178.24 252.896 179.458C254.688 179.948 256.242 180.928 257.25 181.838L256.578 182.902C255.682 181.992 254.394 181.096 252.938 180.578C252.952 180.942 252.966 181.264 252.966 181.516C252.966 182.664 252.266 183.644 250.404 183.644C248.472 183.644 247.044 183.028 247.044 181.432C247.044 180.172 248.15 179.136 250.572 179.136C250.978 179.136 251.37 179.164 251.762 179.22C251.706 178.086 251.65 176.798 251.65 175.958C251.65 175.146 251.65 173.998 251.636 173.396C251.636 172.892 251.594 172.262 251.524 172.01H252.854ZM264.313 171.954C264.019 172.976 263.739 174.866 263.655 175.846C264.229 174.418 265.685 172.668 267.463 172.668C269.325 172.668 270.655 174.53 270.655 177.47C270.655 181.362 268.219 183.07 264.747 183.7L264.089 182.692C267.127 182.244 269.507 180.998 269.507 177.484C269.507 175.272 268.751 173.676 267.281 173.676C265.531 173.676 263.907 176.224 263.739 178.058C263.669 178.604 263.683 179.08 263.767 179.78L262.689 179.864C262.619 179.332 262.535 178.548 262.535 177.638C262.535 176.308 262.801 174.25 262.969 173.116C263.025 172.696 263.053 172.29 263.081 171.912L264.313 171.954ZM286.181 173.69C286.083 173.886 286.027 174.124 285.971 174.39C285.677 175.86 284.991 178.114 283.885 179.556C282.611 181.194 280.945 182.496 278.369 183.308L277.417 182.258C280.133 181.572 281.701 180.382 282.877 178.884C283.871 177.61 284.515 175.664 284.711 174.32H277.557C276.997 174.32 276.521 174.348 276.157 174.362V173.13C276.549 173.172 277.095 173.214 277.557 173.214H284.585C284.795 173.214 285.061 173.214 285.327 173.144L286.181 173.69ZM297.801 174.432C297.759 174.74 297.745 175.062 297.745 175.384C297.745 175.65 297.759 176.042 297.773 176.518H299.789C300.069 176.518 300.531 176.49 300.727 176.462V177.568C300.489 177.554 300.083 177.526 299.817 177.526H297.787C297.815 179.29 297.857 181.586 297.871 182.902C297.885 183.504 297.437 183.868 296.821 183.868C296.261 183.868 295.351 183.826 294.791 183.784L294.735 182.762C295.295 182.846 296.023 182.888 296.443 182.888C296.695 182.888 296.821 182.734 296.821 182.482C296.821 181.6 296.807 180.032 296.779 178.548C295.827 179.892 293.811 181.67 291.907 182.678L291.123 181.81C293.223 180.802 295.351 178.954 296.303 177.526H292.565C292.187 177.526 291.837 177.554 291.501 177.582V176.462C291.823 176.504 292.201 176.518 292.537 176.518H296.751C296.737 176.042 296.723 175.65 296.709 175.384C296.709 175.104 296.667 174.754 296.611 174.432H297.801ZM304.675 176.938C305.095 176.966 305.837 177.008 306.621 177.008H314.293C314.993 177.008 315.497 176.966 315.805 176.938V178.31C315.525 178.296 314.937 178.24 314.307 178.24H306.621C305.851 178.24 305.109 178.268 304.675 178.31V176.938ZM324.919 171.982C324.877 172.304 324.849 172.794 324.835 173.13C324.821 173.634 324.793 174.11 324.765 174.572H328.097C328.475 174.572 328.755 174.544 328.993 174.502L329.777 174.894C329.735 175.132 329.707 175.398 329.707 175.58C329.651 176.924 329.483 180.998 328.853 182.342C328.573 182.93 328.125 183.196 327.355 183.196C326.641 183.196 325.829 183.14 325.101 183.098L324.961 181.936C325.717 182.034 326.459 182.09 327.047 182.09C327.453 182.09 327.705 181.978 327.859 181.628C328.391 180.564 328.573 177.12 328.573 175.622H324.653C324.149 179.64 322.693 181.768 320.355 183.378L319.333 182.552C319.781 182.314 320.355 181.922 320.775 181.516C322.161 180.256 323.169 178.506 323.547 175.622H321.195C320.649 175.622 320.075 175.622 319.585 175.678V174.488C320.075 174.544 320.649 174.572 321.181 174.572H323.645C323.673 174.124 323.701 173.648 323.701 173.144C323.701 172.836 323.659 172.318 323.603 171.982H324.919ZM343.567 173.634C343.483 173.746 343.301 174.054 343.217 174.25C342.741 175.454 341.859 177.092 340.865 178.352C342.335 179.612 344.043 181.432 344.953 182.538L343.973 183.378C343.035 182.146 341.551 180.494 340.123 179.22C338.625 180.83 336.735 182.37 334.663 183.308L333.767 182.37C336.021 181.488 338.093 179.822 339.535 178.212C340.487 177.134 341.509 175.482 341.859 174.32H336.399C335.909 174.32 335.139 174.376 334.985 174.39V173.116C335.181 173.144 335.979 173.2 336.399 173.2H341.803C342.265 173.2 342.629 173.158 342.853 173.088L343.567 173.634ZM351.687 172.094C351.617 172.556 351.575 173.046 351.561 173.508C351.491 175.09 351.393 178.394 351.393 180.48C351.393 182.02 352.359 182.566 353.689 182.566C356.251 182.566 357.693 181.124 358.701 179.668L359.499 180.62C358.533 181.95 356.727 183.714 353.647 183.714C351.631 183.714 350.245 182.874 350.245 180.592C350.245 178.52 350.385 174.978 350.385 173.508C350.385 172.99 350.357 172.486 350.273 172.08L351.687 172.094ZM369.299 179.654C369.173 180.116 369.103 180.55 369.103 180.914C369.103 181.572 369.467 182.216 371.469 182.216C372.379 182.216 373.345 182.118 374.199 181.936L374.157 183.07C373.401 183.182 372.477 183.266 371.455 183.266C369.243 183.266 368.039 182.594 368.039 181.208C368.039 180.662 368.137 180.144 368.249 179.556L369.299 179.654ZM367.689 171.982C367.605 172.29 367.493 172.822 367.437 173.102C367.381 173.396 367.311 173.76 367.227 174.138C368.137 174.026 369.061 173.858 369.915 173.634V174.74C369.005 174.95 367.983 175.104 367.003 175.216C366.877 175.832 366.723 176.476 366.555 177.092C366.051 179.08 365.099 181.964 364.371 183.504L363.139 183.084C363.979 181.642 364.973 178.8 365.491 176.826C365.617 176.364 365.743 175.832 365.855 175.328C365.393 175.356 364.959 175.37 364.567 175.37C363.951 175.37 363.447 175.342 362.943 175.314L362.901 174.222C363.573 174.306 364.077 174.32 364.581 174.32C365.043 174.32 365.547 174.292 366.093 174.25C366.191 173.76 366.261 173.312 366.303 173.032C366.359 172.64 366.373 172.164 366.345 171.87L367.689 171.982ZM369.005 176.252C369.747 176.182 370.671 176.126 371.567 176.126C372.393 176.126 373.233 176.168 373.989 176.252L373.961 177.316C373.247 177.218 372.421 177.148 371.609 177.148C370.727 177.148 369.873 177.19 369.005 177.288V176.252ZM387.863 171.52L388.829 171.926C387.821 173.214 386.239 174.446 384.839 175.216C384.643 174.992 384.349 174.67 384.083 174.488C385.413 173.83 387.009 172.64 387.863 171.52ZM388.269 175.342L389.221 175.748C388.129 177.106 386.463 178.436 384.965 179.276C384.783 179.052 384.489 178.73 384.237 178.534C385.651 177.82 387.331 176.546 388.269 175.342ZM379.477 176.728H381.731V173.13H379.477V176.728ZM384.251 177.694H382.739V184.064H381.731V177.694H379.463C379.407 180.032 379.057 182.328 377.391 184.162C377.223 183.938 376.845 183.602 376.607 183.462C378.119 181.81 378.427 179.766 378.483 177.694H376.677V176.728H378.497V173.13H376.887V172.15H384.055V173.13H382.739V176.728H384.251V177.694ZM388.577 179.108L389.557 179.486C388.381 181.418 386.393 183.07 384.237 184.064C384.069 183.812 383.761 183.448 383.509 183.238C385.567 182.384 387.541 180.83 388.577 179.108ZM391.713 173.788C392.245 173.774 392.693 173.746 392.959 173.718C393.869 173.62 396.515 173.354 399.091 173.144C400.617 173.018 401.933 172.934 402.871 172.892V174.012C402.073 174.012 400.841 174.026 400.127 174.236C398.139 174.88 396.921 177.008 396.921 178.674C396.921 181.404 399.469 182.272 401.751 182.356L401.345 183.518C398.755 183.42 395.801 182.034 395.801 178.912C395.801 176.728 397.131 174.95 398.419 174.18C396.921 174.348 393.351 174.684 391.839 175.006L391.713 173.788ZM400.855 175.734C401.177 176.196 401.709 177.064 402.003 177.68L401.289 178.016C400.967 177.344 400.561 176.616 400.141 176.042L400.855 175.734ZM402.381 175.146C402.717 175.608 403.277 176.462 403.599 177.078L402.871 177.428C402.535 176.742 402.129 176.056 401.695 175.468L402.381 175.146ZM416.143 173.998C416.087 174.138 416.045 174.348 416.031 174.46C415.877 175.776 415.289 179.514 415.051 181.012H416.955C417.375 181.012 417.767 180.97 418.117 180.928V182.202C417.753 182.16 417.235 182.146 416.955 182.146H407.505C407.113 182.146 406.707 182.16 406.273 182.202V180.928C406.693 180.984 407.113 181.012 407.505 181.012H413.819C414.071 179.514 414.659 175.762 414.701 174.782H409.185C408.667 174.782 408.289 174.81 407.841 174.838V173.592C408.261 173.648 408.709 173.676 409.171 173.676H414.337C414.617 173.676 415.037 173.62 415.205 173.55L416.143 173.998ZM421.155 176.938C421.575 176.966 422.317 177.008 423.101 177.008H430.773C431.473 177.008 431.977 176.966 432.285 176.938V178.31C432.005 178.296 431.417 178.24 430.787 178.24H423.101C422.331 178.24 421.589 178.268 421.155 178.31V176.938ZM445.171 172.318C445.423 172.822 445.801 173.69 445.983 174.264L445.297 174.502C445.087 173.9 444.765 173.06 444.499 172.528L445.171 172.318ZM446.557 171.898C446.823 172.402 447.201 173.256 447.397 173.83L446.711 174.054C446.487 173.438 446.165 172.626 445.885 172.108L446.557 171.898ZM443.841 176.812C443.841 180.536 443.029 182.468 439.837 183.896L438.899 183C441.447 182.034 442.707 180.83 442.707 176.91V176.322H438.731V178.59C438.731 179.108 438.773 179.724 438.787 179.85H437.541C437.555 179.724 437.611 179.122 437.611 178.59V176.322H436.099C435.483 176.322 434.853 176.364 434.699 176.378V175.16C434.825 175.188 435.511 175.258 436.099 175.258H437.611V173.466C437.611 173.158 437.583 172.766 437.541 172.444H438.787C438.773 172.57 438.731 172.976 438.731 173.452V175.258H442.707V173.508C442.707 172.948 442.665 172.486 442.651 172.36H443.911C443.897 172.5 443.841 172.948 443.841 173.508V175.258H445.367C445.997 175.258 446.459 175.216 446.655 175.174V176.364C446.501 176.35 445.997 176.322 445.381 176.322H443.841V176.812ZM450.001 176.938C450.421 176.966 451.163 177.008 451.947 177.008H459.619C460.319 177.008 460.823 176.966 461.131 176.938V178.31C460.851 178.296 460.263 178.24 459.633 178.24H451.947C451.177 178.24 450.435 178.268 450.001 178.31V176.938ZM469.517 173.55C471.043 173.802 473.871 173.746 475.271 173.536V174.67C473.773 174.838 471.057 174.838 469.517 174.67V173.55ZM470.063 179.248C469.923 179.766 469.853 180.158 469.853 180.536C469.853 181.18 470.315 181.796 472.219 181.796C473.479 181.796 474.557 181.684 475.691 181.432L475.719 182.608C474.837 182.776 473.661 182.902 472.219 182.902C469.867 182.902 468.817 182.118 468.817 180.802C468.817 180.326 468.901 179.836 469.055 179.15L470.063 179.248ZM466.843 172.472C466.773 172.71 466.647 173.158 466.591 173.41C466.325 174.698 465.891 177.204 465.891 178.772C465.891 179.458 465.933 180.046 466.017 180.732C466.255 180.102 466.591 179.262 466.829 178.688L467.417 179.136C467.053 180.13 466.549 181.614 466.423 182.272C466.381 182.482 466.339 182.748 466.353 182.902C466.367 183.056 466.381 183.252 466.395 183.392L465.387 183.462C465.107 182.468 464.869 180.858 464.869 178.968C464.869 176.91 465.331 174.516 465.499 173.354C465.555 173.032 465.597 172.668 465.597 172.36L466.843 172.472ZM489.019 173.648V172.542H484.385V173.648H489.019ZM489.019 175.496V174.376H484.385V175.496H489.019ZM490.013 171.758V176.294H483.433V171.758H490.013ZM482.411 177.386L482.537 178.338C482.033 178.52 481.515 178.674 480.997 178.856V182.776C480.997 183.35 480.871 183.616 480.521 183.784C480.199 183.952 479.667 183.994 478.785 183.98C478.743 183.728 478.617 183.308 478.477 183.014C479.079 183.028 479.639 183.028 479.793 183.028C479.961 183.028 480.031 182.972 480.031 182.762V179.164C479.457 179.36 478.911 179.528 478.407 179.682L478.155 178.674C478.673 178.548 479.317 178.352 480.031 178.128V175.062H478.309V174.096H480.031V171.31H480.997V174.096H482.537V175.062H480.997V177.82L482.411 177.386ZM487.199 180.662V182.86C487.605 182.916 488.053 182.944 488.515 182.944C488.851 182.944 490.741 182.944 491.217 182.93C491.077 183.154 490.951 183.588 490.909 183.854H488.473C486.457 183.854 484.987 183.476 484.077 181.516C483.699 182.566 483.139 183.42 482.411 184.078C482.243 183.91 481.851 183.588 481.627 183.448C482.873 182.468 483.489 180.9 483.713 178.828L484.665 178.94C484.595 179.458 484.511 179.962 484.399 180.424C484.791 181.614 485.421 182.258 486.219 182.594V178.17H482.803V177.288H490.797V178.17H487.199V179.808H490.097V180.662H487.199ZM496.047 171.324L497.027 171.632C496.635 172.64 496.145 173.662 495.599 174.628V184.05H494.577V176.196C494.143 176.826 493.667 177.4 493.191 177.89C493.079 177.652 492.785 177.12 492.603 176.868C493.975 175.538 495.263 173.438 496.047 171.324ZM499.029 180.494L500.023 180.802C499.323 182.02 498.287 183.238 497.349 184.036C497.167 183.854 496.761 183.518 496.523 183.392C497.475 182.664 498.441 181.572 499.029 180.494ZM502.193 180.998L503.005 180.536C503.971 181.446 505.007 182.692 505.497 183.504L504.615 184.092C504.153 183.224 503.117 181.922 502.193 180.998ZM499.757 175.272V178.688H502.487V175.272H499.757ZM503.495 178.688H505.651V179.71H496.607V178.688H498.749V175.272H496.943V174.264H498.749V171.45H499.757V174.264H502.487V171.436H503.495V174.264H505.483V175.272H503.495V178.688ZM507.919 173.788C508.451 173.774 508.899 173.746 509.165 173.718C510.075 173.62 512.721 173.354 515.297 173.144C516.823 173.018 518.139 172.934 519.077 172.892V174.012C518.279 174.012 517.047 174.026 516.333 174.236C514.345 174.88 513.127 177.008 513.127 178.674C513.127 181.404 515.675 182.272 517.957 182.356L517.551 183.518C514.961 183.42 512.007 182.034 512.007 178.912C512.007 176.728 513.337 174.95 514.625 174.18C513.127 174.348 509.557 174.684 508.045 175.006L507.919 173.788ZM517.061 175.734C517.383 176.196 517.915 177.064 518.209 177.68L517.495 178.016C517.173 177.344 516.767 176.616 516.347 176.042L517.061 175.734ZM518.587 175.146C518.923 175.608 519.483 176.462 519.805 177.078L519.077 177.428C518.741 176.742 518.335 176.056 517.901 175.468L518.587 175.146ZM528.401 173.228C528.289 172.808 528.149 172.374 528.009 171.982L529.199 171.828C529.255 172.36 529.381 172.934 529.535 173.494C530.529 173.368 531.509 173.158 532.405 172.864L532.559 173.872C531.761 174.096 530.767 174.306 529.801 174.432C529.899 174.782 530.011 175.104 530.109 175.398C530.207 175.664 530.319 175.958 530.431 176.238C531.593 176.098 532.573 175.846 533.231 175.636L533.399 176.686C532.727 176.868 531.845 177.05 530.865 177.19C531.159 177.792 531.481 178.394 531.845 178.926C531.999 179.15 532.167 179.332 532.363 179.528L531.789 180.382C531.005 180.172 529.689 180.046 528.723 179.934L528.821 179.08C529.563 179.164 530.473 179.262 530.921 179.318C530.501 178.674 530.137 177.988 529.829 177.302C528.121 177.456 525.825 177.484 523.669 177.33L523.613 176.28C525.713 176.504 527.841 176.49 529.423 176.35C529.325 176.098 529.227 175.86 529.143 175.622C529.003 175.23 528.877 174.866 528.765 174.53C527.407 174.614 525.699 174.586 523.949 174.432L523.879 173.41C525.559 173.606 527.155 173.648 528.499 173.578C528.457 173.466 528.429 173.34 528.401 173.228ZM525.643 179.29C525.307 179.78 525.055 180.256 525.055 180.872C525.055 182.034 526.091 182.608 528.289 182.608C529.591 182.608 530.613 182.524 531.621 182.314L531.579 183.434C530.599 183.588 529.493 183.672 528.303 183.672C525.559 183.672 524.019 182.86 524.005 181.068C523.991 180.27 524.243 179.682 524.551 179.066L525.643 179.29ZM539.517 181.53C539.517 182.174 540.077 182.664 541.463 182.664C542.261 182.664 542.947 182.412 542.947 181.446C542.947 181.208 542.933 180.872 542.933 180.508C542.499 180.41 542.037 180.368 541.575 180.368C540.245 180.368 539.517 180.886 539.517 181.53ZM543.955 171.884C543.913 172.136 543.885 172.416 543.871 172.822C543.871 173.004 543.857 173.312 543.857 173.676C545.117 173.62 546.391 173.494 547.651 173.298L547.637 174.32C546.531 174.446 545.201 174.572 543.857 174.642C543.857 175.258 543.857 175.916 543.857 176.434C543.857 176.49 543.857 176.546 543.857 176.602C545.215 176.546 546.489 176.42 547.763 176.224L547.749 177.274C546.433 177.442 545.201 177.554 543.871 177.596C543.899 178.324 543.941 179.08 543.969 179.752C545.831 180.256 547.259 181.278 548.057 181.936L547.413 182.93C546.587 182.174 545.425 181.32 544.025 180.816C544.039 181.166 544.053 181.46 544.053 181.684C544.053 182.65 543.409 183.644 541.589 183.644C539.573 183.644 538.481 182.93 538.481 181.586C538.481 180.312 539.699 179.444 541.715 179.444C542.121 179.444 542.513 179.472 542.891 179.528C542.877 178.898 542.849 178.226 542.835 177.624C542.569 177.624 542.303 177.624 542.037 177.624C541.085 177.624 539.545 177.54 538.537 177.428L538.523 176.378C539.531 176.546 541.127 176.644 542.051 176.644C542.303 176.644 542.555 176.644 542.807 176.644C542.807 176.574 542.807 176.504 542.807 176.434C542.807 175.874 542.807 175.258 542.807 174.684C542.611 174.684 542.401 174.684 542.191 174.684C541.211 174.684 539.489 174.544 538.607 174.446L538.593 173.41C539.503 173.578 541.239 173.718 542.177 173.718C542.387 173.718 542.597 173.718 542.821 173.718C542.821 173.354 542.821 173.018 542.821 172.724C542.821 172.486 542.793 172.08 542.765 171.884H543.955ZM559.271 171.912C559.243 172.066 559.215 172.612 559.201 172.794C559.201 173.004 559.187 173.326 559.187 173.704C559.257 173.704 559.327 173.704 559.397 173.704C561.105 173.704 562.827 173.718 563.499 173.718L563.485 174.754C562.701 174.712 561.427 174.684 559.383 174.684C559.313 174.684 559.257 174.684 559.187 174.684C559.187 175.482 559.201 176.35 559.215 176.994C559.509 177.47 559.663 178.086 559.663 178.786C559.663 180.676 558.739 182.776 555.477 183.756L554.539 182.832C556.401 182.412 557.689 181.628 558.249 180.354C557.913 180.606 557.507 180.732 557.031 180.732C555.855 180.732 554.735 179.92 554.735 178.394C554.735 177.008 555.869 175.958 557.199 175.958C557.549 175.958 557.857 176.014 558.137 176.112C558.137 175.692 558.137 175.188 558.123 174.698C555.995 174.712 553.615 174.81 551.865 174.936L551.837 173.858C553.391 173.83 556.023 173.746 558.109 173.718C558.109 173.326 558.095 172.99 558.081 172.794C558.067 172.43 558.011 172.024 557.997 171.912H559.271ZM555.785 178.38C555.785 179.248 556.429 179.766 557.213 179.766C558.039 179.766 558.571 179.108 558.445 177.778C558.221 177.162 557.745 176.896 557.199 176.896C556.471 176.896 555.785 177.47 555.785 178.38ZM566.375 179.584C567.565 179.584 568.517 180.536 568.517 181.712C568.517 182.902 567.565 183.854 566.375 183.854C565.213 183.854 564.247 182.902 564.247 181.712C564.247 180.536 565.213 179.584 566.375 179.584ZM566.375 183.14C567.173 183.14 567.803 182.51 567.803 181.712C567.803 180.942 567.173 180.298 566.375 180.298C565.605 180.298 564.961 180.942 564.961 181.712C564.961 182.51 565.605 183.14 566.375 183.14Z" fill="#1A1A1A"/>
<rect x="56.5" y="248.5" width="1279" height="322" fill="#F8F8FB"/>
<rect x="56.5" y="248.5" width="1279" height="322" stroke="#E6E6E6"/>
<rect x="137" y="299" width="158" height="94" stroke="#CCCCCC" stroke-width="2" stroke-dasharray="4 4"/>
<rect x="328" y="298" width="736" height="96" fill="#CCCCCC"/>
<rect x="137" y="419" width="254" height="94" stroke="#CCCCCC" stroke-width="2" stroke-dasharray="4 4"/>
<rect x="424" y="418" width="544" height="96" fill="#CCCCCC"/>
<path opacity="0.9" d="M57.232 231.969V230.905H59.514V223.247H57.694V222.435C58.604 222.267 59.262 222.029 59.822 221.693H60.802V230.905H62.86V231.969H57.232ZM71.4376 220.951C71.3956 221.273 71.3676 221.763 71.3536 222.099C71.3396 222.603 71.3116 223.079 71.2836 223.541H74.6156C74.9936 223.541 75.2736 223.513 75.5116 223.471L76.2956 223.863C76.2536 224.101 76.2256 224.367 76.2256 224.549C76.1696 225.893 76.0016 229.967 75.3716 231.311C75.0916 231.899 74.6436 232.165 73.8736 232.165C73.1596 232.165 72.3476 232.109 71.6196 232.067L71.4796 230.905C72.2356 231.003 72.9776 231.059 73.5656 231.059C73.9716 231.059 74.2236 230.947 74.3776 230.597C74.9096 229.533 75.0916 226.089 75.0916 224.591H71.1716C70.6676 228.609 69.2116 230.737 66.8736 232.347L65.8516 231.521C66.2996 231.283 66.8736 230.891 67.2936 230.485C68.6796 229.225 69.6876 227.475 70.0656 224.591H67.7136C67.1676 224.591 66.5936 224.591 66.1036 224.647V223.457C66.5936 223.513 67.1676 223.541 67.6996 223.541H70.1636C70.1916 223.093 70.2196 222.617 70.2196 222.113C70.2196 221.805 70.1776 221.287 70.1216 220.951H71.4376ZM82.1196 221.539C82.4836 221.595 82.9316 221.609 83.3796 221.609H88.8816C89.3296 221.609 89.8196 221.595 90.1556 221.539V222.701C89.8196 222.673 89.3436 222.659 88.8676 222.659H83.3796C82.9456 222.659 82.4976 222.673 82.1196 222.701V221.539ZM91.1776 225.235C91.1076 225.361 91.0236 225.543 90.9956 225.641C90.6176 227.027 89.9876 228.483 88.9516 229.617C87.4816 231.227 85.7316 232.053 83.9396 232.543L83.0716 231.549C85.0596 231.143 86.8096 230.247 87.9996 228.987C88.8536 228.091 89.4136 226.901 89.6656 225.893H82.2316C81.8956 225.893 81.3636 225.907 80.8596 225.935V224.759C81.3776 224.815 81.8536 224.843 82.2316 224.843H89.6096C89.9316 224.843 90.2256 224.815 90.3796 224.731L91.1776 225.235ZM100.33 221.525C100.19 221.875 100.036 222.239 99.8538 222.827C99.4478 224.143 98.0618 228.441 97.3618 230.261C99.4198 230.065 102.108 229.771 103.648 229.561C103.088 228.455 102.458 227.363 101.94 226.691L102.99 226.215C103.984 227.657 105.51 230.471 106.098 231.913L104.922 232.445C104.74 231.941 104.474 231.297 104.152 230.611C101.996 230.891 97.3058 231.409 95.4298 231.577C95.0798 231.605 94.6738 231.675 94.2678 231.731L94.0578 230.429C94.4778 230.443 94.9538 230.429 95.3598 230.415C95.5698 230.401 95.8078 230.387 96.0598 230.373C96.8438 228.441 98.2718 223.961 98.6638 222.589C98.8318 221.945 98.8878 221.609 98.9298 221.245L100.33 221.525ZM110.69 231.521C110.788 231.297 110.83 231.115 110.83 230.835V222.827C110.83 222.463 110.76 221.833 110.704 221.553H112.09C112.034 221.903 111.992 222.421 111.992 222.827V230.765C114.666 230.093 117.914 228.245 119.65 225.991L120.28 226.971C118.46 229.225 115.576 230.961 112.09 231.969C111.936 232.011 111.726 232.081 111.502 232.221L110.69 231.521ZM123.346 226.915C125.768 226.257 127.91 225.277 129.464 224.297C130.92 223.387 132.32 222.169 133.286 221.007L134.224 221.875C133.16 222.981 131.872 224.045 130.444 224.997V230.905C130.444 231.437 130.472 232.123 130.528 232.403H129.156C129.198 232.137 129.24 231.437 129.24 230.905V225.725C127.77 226.565 125.852 227.405 123.906 228.007L123.346 226.915ZM149.736 222.505C149.638 222.645 149.456 222.855 149.358 223.009C148.798 223.961 147.468 225.767 145.872 226.873L144.948 226.131C146.236 225.389 147.552 223.863 148.014 222.995H140.034C139.516 222.995 138.984 223.023 138.438 223.079V221.805C138.928 221.875 139.516 221.931 140.034 221.931H148.07C148.336 221.931 148.84 221.889 149.05 221.847L149.736 222.505ZM144.15 224.353C144.15 228.147 143.814 230.709 140.244 232.487L139.208 231.647C139.6 231.521 140.076 231.297 140.468 231.017C142.638 229.687 142.946 227.699 142.946 225.361C142.946 225.025 142.932 224.717 142.89 224.353H144.15ZM158.836 220.755C158.766 221.189 158.752 221.511 158.752 221.805V223.107H161.888C162.406 223.107 162.672 223.065 162.854 222.995L163.61 223.471C163.54 223.681 163.456 224.045 163.4 224.311C163.218 225.431 162.812 227.181 162.028 228.525C160.978 230.359 159.046 231.787 156.484 232.487L155.574 231.437C156.05 231.367 156.582 231.213 157.03 231.045C158.43 230.597 159.97 229.547 160.824 228.231C161.58 227.041 162.028 225.347 162.154 224.143H154.328V226.649C154.328 226.901 154.342 227.265 154.384 227.489H153.166C153.194 227.237 153.208 226.859 153.208 226.593V224.129C153.208 223.835 153.208 223.359 153.166 223.051C153.572 223.093 153.978 223.107 154.468 223.107H157.562V221.805C157.562 221.511 157.548 221.189 157.492 220.755H158.836ZM170.54 230.737V222.589C170.54 222.197 170.512 221.567 170.428 221.133H171.8C171.758 221.567 171.702 222.169 171.702 222.589C171.702 223.177 171.702 223.989 171.702 224.871C173.55 225.431 176.21 226.439 177.68 227.181L177.204 228.371C175.678 227.545 173.256 226.607 171.702 226.117C171.716 228.217 171.716 230.331 171.716 230.737C171.716 231.171 171.744 231.927 171.8 232.389H170.442C170.512 231.941 170.54 231.255 170.54 230.737Z" fill="#1A1A1A"/>
</svg>
