<svg width="2058" height="1119" viewBox="0 0 2058 1119" fill="none" xmlns="http://www.w3.org/2000/svg">
<rect width="2058" height="1119" fill="white"/>
<path opacity="0.9" d="M66.64 83.96C66.58 84.42 66.54 85.26 66.52 85.74C66.5 86.36 66.48 86.96 66.44 87.54H70.2C70.7 87.54 71.22 87.48 71.7 87.4L73.44 88.24C73.38 88.56 73.3 89.08 73.3 89.3C73.22 91.46 72.98 97.04 72.12 99.08C71.68 100.1 70.92 100.62 69.54 100.62C68.4 100.62 67.2 100.54 66.24 100.46L65.92 97.78C66.9 97.96 67.94 98.06 68.72 98.06C69.36 98.06 69.64 97.84 69.86 97.36C70.44 96.1 70.7 92.1 70.7 89.94H66.2C65.46 95.22 63.56 98.36 59.98 100.9L57.66 99.02C58.48 98.56 59.48 97.88 60.28 97.06C62.14 95.22 63.14 92.98 63.58 89.94H60.94C60.26 89.94 59.16 89.94 58.3 90.02V87.4C59.14 87.48 60.18 87.54 60.94 87.54H63.8C63.82 86.98 63.84 86.4 63.84 85.8C63.84 85.36 63.78 84.44 63.7 83.96H66.64ZM80.46 84.66C81.02 84.74 81.86 84.76 82.54 84.76H90.24C90.86 84.76 91.84 84.74 92.4 84.66V87.24C91.86 87.2 90.92 87.18 90.2 87.18H82.54C81.9 87.18 81.04 87.2 80.46 87.24V84.66ZM94.08 90.46C93.94 90.72 93.78 91.08 93.7 91.3C93.1 93.24 92.24 95.18 90.74 96.84C88.72 99.08 86.16 100.44 83.6 101.16L81.62 98.9C84.62 98.28 87.02 96.96 88.54 95.4C89.62 94.3 90.24 93.06 90.6 91.94H80.94C80.46 91.94 79.46 91.96 78.62 92.04V89.44C79.46 89.5 80.32 89.56 80.94 89.56H90.84C91.48 89.56 92.02 89.48 92.3 89.36L94.08 90.46ZM106.495 84.92C106.235 85.52 105.935 86.26 105.635 87.14C104.995 89.1 103.375 94.18 102.375 96.86C104.815 96.62 107.655 96.3 109.675 96.06C108.975 94.62 108.235 93.28 107.575 92.4L110.075 91.38C111.495 93.54 113.535 97.46 114.455 99.7L111.755 100.9C111.495 100.22 111.175 99.4 110.795 98.54C107.555 98.92 101.495 99.56 98.9745 99.82C98.4745 99.88 97.7345 99.98 97.0945 100.06L96.6345 97.14C97.3145 97.14 98.1745 97.14 98.8345 97.12C98.9945 97.12 99.1945 97.1 99.3745 97.1C100.535 94.14 102.255 88.66 102.835 86.58C103.115 85.56 103.235 84.94 103.315 84.26L106.495 84.92ZM118.535 85.8C119.275 85.88 120.315 85.92 120.995 85.92H131.075C131.655 85.92 132.495 85.9 132.835 85.88C132.815 86.34 132.775 87.14 132.775 87.72V98.08C132.775 98.78 132.815 99.84 132.855 100.44H129.955C129.975 100.12 129.975 99.78 129.975 99.4H120.855C120.075 99.4 118.935 99.46 118.275 99.52V96.66C118.975 96.72 119.875 96.78 120.775 96.78H129.995V88.5H121.015C120.175 88.5 119.095 88.54 118.535 88.58V85.8ZM140.215 84.8C141.615 85.74 144.215 87.82 145.375 89.04L143.335 91.12C142.295 90 139.795 87.82 138.335 86.8L140.215 84.8ZM137.715 98.12C140.835 97.68 143.435 96.66 145.375 95.5C148.795 93.48 151.395 90.42 152.655 87.72L154.215 90.54C152.695 93.24 150.035 96 146.815 97.94C144.795 99.16 142.215 100.28 139.395 100.76L137.715 98.12ZM170.895 85C170.895 85.6 171.395 86.08 171.995 86.08C172.595 86.08 173.075 85.6 173.075 85C173.075 84.4 172.595 83.92 171.995 83.92C171.395 83.92 170.895 84.4 170.895 85ZM169.675 85C169.675 83.72 170.715 82.68 171.995 82.68C173.275 82.68 174.295 83.72 174.295 85C174.295 86.28 173.275 87.32 171.995 87.32C170.715 87.32 169.675 86.28 169.675 85ZM166.915 84.22C166.875 84.5 166.735 85.46 166.735 85.96V87.56H171.395C171.955 87.56 172.835 87.5 173.375 87.42V90.04C172.735 90 171.955 89.98 171.415 89.98H166.735V99.28C166.735 100.44 166.075 101.16 164.655 101.16C163.575 101.16 162.415 101.1 161.395 100.98L161.155 98.5C162.015 98.66 162.895 98.74 163.375 98.74C163.895 98.74 164.095 98.54 164.115 98.02C164.135 97.28 164.135 90.94 164.135 90V89.98H159.055C158.455 89.98 157.675 90 157.115 90.06V87.4C157.715 87.48 158.415 87.56 159.055 87.56H164.135V85.96C164.135 85.44 164.035 84.56 163.955 84.22H166.915ZM162.215 92.82C161.295 94.6 159.455 97.22 158.355 98.4L156.195 96.92C157.535 95.64 159.135 93.44 159.955 91.76L162.215 92.82ZM170.815 91.7C171.835 92.98 173.435 95.5 174.235 96.96L171.875 98.24C171.015 96.52 169.595 94.1 168.635 92.88L170.815 91.7ZM189.995 84.64C190.555 85.48 191.355 86.82 191.815 87.74L190.075 88.48C189.495 87.22 189.035 86.36 188.315 85.34L189.995 84.64ZM192.735 83.68C193.355 84.48 194.135 85.78 194.615 86.66L192.915 87.42C192.275 86.16 191.775 85.38 191.035 84.38L192.735 83.68ZM181.295 84.26C182.615 84.98 184.815 86.38 185.855 87.12L184.375 89.32C183.255 88.54 181.175 87.2 179.855 86.46L181.295 84.26ZM177.595 98.46C179.835 98.08 182.235 97.4 184.395 96.2C187.795 94.3 190.595 91.56 192.175 88.7L193.715 91.42C191.875 94.2 189.035 96.72 185.775 98.62C183.735 99.76 180.855 100.76 179.095 101.08L177.595 98.46ZM178.215 88.82C179.575 89.54 181.775 90.92 182.795 91.64L181.335 93.88C180.195 93.08 178.115 91.74 176.775 91.02L178.215 88.82ZM201.575 84.16C202.895 84.88 205.095 86.3 206.135 87.02L204.635 89.24C203.515 88.46 201.435 87.1 200.115 86.36L201.575 84.16ZM197.855 98.36C200.095 97.98 202.495 97.32 204.675 96.12C208.075 94.22 210.855 91.48 212.455 88.62L213.995 91.34C212.135 94.1 209.315 96.64 206.035 98.52C203.995 99.68 201.135 100.68 199.355 101L197.855 98.36ZM198.495 88.72C199.835 89.44 202.035 90.82 203.055 91.54L201.595 93.78C200.455 93 198.375 91.64 197.035 90.94L198.495 88.72ZM219.655 88.7C220.175 88.76 221.395 88.8 222.135 88.8H229.695C230.175 88.8 230.915 88.78 231.235 88.76C231.215 89.02 231.215 89.68 231.215 90.1V100.14C231.215 100.46 231.235 101.14 231.235 101.5H228.715C228.735 101.32 228.735 101 228.735 100.7H221.155C220.595 100.7 219.775 100.74 219.435 100.76V98.3C219.775 98.34 220.455 98.38 221.175 98.38H228.735V95.72H222.355C221.595 95.72 220.635 95.74 220.175 95.76V93.4C220.695 93.44 221.595 93.46 222.355 93.46H228.735V91.04H222.135C221.395 91.04 220.135 91.08 219.655 91.12V88.7ZM240.215 84.8C241.615 85.74 244.215 87.82 245.375 89.04L243.335 91.12C242.295 90 239.795 87.82 238.335 86.8L240.215 84.8ZM237.715 98.12C240.835 97.68 243.435 96.66 245.375 95.5C248.795 93.48 251.395 90.42 252.655 87.72L254.215 90.54C252.695 93.24 250.035 96 246.815 97.94C244.795 99.16 242.215 100.28 239.395 100.76L237.715 98.12Z" fill="#1A1A1A"/>
<path opacity="0.9" d="M66.71 146.8C67.06 147.304 67.564 148.144 67.858 148.718L67.102 149.054C66.822 148.494 66.346 147.64 65.968 147.122L66.71 146.8ZM68.25 146.24C68.614 146.758 69.16 147.626 69.426 148.144L68.67 148.48C68.362 147.878 67.9 147.08 67.508 146.562L68.25 146.24ZM62.944 147.472C62.72 147.836 62.468 148.312 62.328 148.564C62.23 148.76 62.118 148.956 62.006 149.152H65.8C66.178 149.152 66.486 149.11 66.71 149.026L67.634 149.586C67.522 149.782 67.382 150.104 67.312 150.328C66.934 151.742 66.08 153.632 64.834 155.158C63.56 156.712 61.88 157.986 59.262 158.966L58.24 158.042C60.816 157.286 62.566 156.026 63.84 154.528C64.918 153.254 65.786 151.434 66.066 150.16H61.348C60.494 151.35 59.332 152.596 57.792 153.604L56.826 152.89C59.234 151.448 60.606 149.404 61.222 148.158C61.362 147.906 61.572 147.402 61.656 147.038L62.944 147.472ZM81.424 147.374C81.396 147.724 81.382 148.116 81.382 148.592V150.86C81.382 154.22 80.92 155.326 79.912 156.53C79.002 157.622 77.602 158.224 76.58 158.574L75.67 157.608C76.958 157.286 78.148 156.726 79.016 155.746C80.01 154.584 80.178 153.45 80.178 150.804V148.592C80.178 148.116 80.15 147.724 80.108 147.374H81.424ZM74.928 147.486C74.9 147.752 74.872 148.158 74.872 148.494V153.17C74.872 153.52 74.9 153.982 74.928 154.234H73.64C73.668 154.024 73.71 153.576 73.71 153.156V148.494C73.71 148.242 73.682 147.752 73.654 147.486H74.928ZM91.882 149.936C92.12 150.496 92.806 152.344 92.988 152.96L91.952 153.324C91.798 152.694 91.154 150.916 90.86 150.286L91.882 149.936ZM96.95 150.72C96.852 151.014 96.796 151.238 96.74 151.42C96.362 152.96 95.76 154.458 94.752 155.718C93.464 157.37 91.756 158.448 90.188 159.05L89.264 158.112C90.888 157.636 92.666 156.572 93.814 155.13C94.808 153.912 95.536 152.134 95.746 150.342L96.95 150.72ZM88.634 150.636C88.914 151.238 89.642 153.072 89.908 153.8L88.844 154.192C88.634 153.464 87.878 151.532 87.598 151.042L88.634 150.636ZM108.864 147.92C109.214 148.438 109.816 149.376 110.138 150.034L109.34 150.398C108.99 149.67 108.556 148.9 108.094 148.27L108.864 147.92ZM110.558 147.22C110.922 147.71 111.538 148.648 111.874 149.292L111.09 149.684C110.712 148.942 110.264 148.2 109.788 147.584L110.558 147.22ZM103.95 156.95V148.802C103.95 148.41 103.922 147.78 103.838 147.346H105.224C105.168 147.78 105.126 148.382 105.126 148.802V151.084C106.974 151.658 109.62 152.652 111.104 153.394L110.614 154.584C109.102 153.758 106.68 152.834 105.126 152.344V156.95C105.126 157.398 105.168 158.154 105.21 158.602H103.866C103.922 158.154 103.95 157.468 103.95 156.95ZM117.348 157.552C117.446 157.328 117.488 157.146 117.488 156.866V148.858C117.488 148.494 117.418 147.864 117.362 147.584H118.748C118.692 147.934 118.65 148.452 118.65 148.858V156.796C121.324 156.124 124.572 154.276 126.308 152.022L126.938 153.002C125.118 155.256 122.234 156.992 118.748 158C118.594 158.042 118.384 158.112 118.16 158.252L117.348 157.552ZM130.004 152.946C132.426 152.288 134.568 151.308 136.122 150.328C137.578 149.418 138.978 148.2 139.944 147.038L140.882 147.906C139.818 149.012 138.53 150.076 137.102 151.028V156.936C137.102 157.468 137.13 158.154 137.186 158.434H135.814C135.856 158.168 135.898 157.468 135.898 156.936V151.756C134.428 152.596 132.51 153.436 130.564 154.038L130.004 152.946ZM156.394 148.536C156.296 148.676 156.114 148.886 156.016 149.04C155.456 149.992 154.126 151.798 152.53 152.904L151.606 152.162C152.894 151.42 154.21 149.894 154.672 149.026H146.692C146.174 149.026 145.642 149.054 145.096 149.11V147.836C145.586 147.906 146.174 147.962 146.692 147.962H154.728C154.994 147.962 155.498 147.92 155.708 147.878L156.394 148.536ZM150.808 150.384C150.808 154.178 150.472 156.74 146.902 158.518L145.866 157.678C146.258 157.552 146.734 157.328 147.126 157.048C149.296 155.718 149.604 153.73 149.604 151.392C149.604 151.056 149.59 150.748 149.548 150.384H150.808ZM165.494 146.786C165.424 147.22 165.41 147.542 165.41 147.836V149.138H168.546C169.064 149.138 169.33 149.096 169.512 149.026L170.268 149.502C170.198 149.712 170.114 150.076 170.058 150.342C169.876 151.462 169.47 153.212 168.686 154.556C167.636 156.39 165.704 157.818 163.142 158.518L162.232 157.468C162.708 157.398 163.24 157.244 163.688 157.076C165.088 156.628 166.628 155.578 167.482 154.262C168.238 153.072 168.686 151.378 168.812 150.174H160.986V152.68C160.986 152.932 161 153.296 161.042 153.52H159.824C159.852 153.268 159.866 152.89 159.866 152.624V150.16C159.866 149.866 159.866 149.39 159.824 149.082C160.23 149.124 160.636 149.138 161.126 149.138H164.22V147.836C164.22 147.542 164.206 147.22 164.15 146.786H165.494ZM177.198 156.768V148.62C177.198 148.228 177.17 147.598 177.086 147.164H178.458C178.416 147.598 178.36 148.2 178.36 148.62C178.36 149.208 178.36 150.02 178.36 150.902C180.208 151.462 182.868 152.47 184.338 153.212L183.862 154.402C182.336 153.576 179.914 152.638 178.36 152.148C178.374 154.248 178.374 156.362 178.374 156.768C178.374 157.202 178.402 157.958 178.458 158.42H177.1C177.17 157.972 177.198 157.286 177.198 156.768ZM193.48 146.926C193.396 147.346 193.284 147.892 193.074 148.55C194.502 148.48 196.028 148.354 197.344 148.116L197.33 149.152C195.944 149.376 194.208 149.488 192.682 149.544C192.36 150.286 191.898 151.084 191.422 151.714C191.954 151.378 192.766 151.196 193.368 151.196C194.278 151.196 195.02 151.644 195.244 152.456C196.196 151.994 197.05 151.658 197.778 151.322C198.198 151.14 198.534 150.986 198.926 150.776L199.388 151.826C199.024 151.924 198.52 152.12 198.142 152.274C197.358 152.568 196.364 152.974 195.3 153.478C195.314 154.29 195.328 155.48 195.342 156.166H194.264C194.292 155.634 194.306 154.724 194.306 153.982C193.004 154.668 192.094 155.41 192.094 156.334C192.094 157.426 193.186 157.594 194.628 157.594C195.72 157.594 197.218 157.468 198.45 157.258L198.422 158.378C197.358 158.518 195.804 158.63 194.586 158.63C192.584 158.63 190.974 158.196 190.974 156.488C190.974 154.836 192.64 153.8 194.278 152.946C194.138 152.344 193.634 152.078 193.004 152.078C192.122 152.078 191.226 152.512 190.596 153.1C190.19 153.478 189.798 153.996 189.322 154.556L188.37 153.856C190.134 152.148 191.072 150.706 191.604 149.572C191.394 149.572 191.184 149.572 190.988 149.572C190.386 149.572 189.462 149.544 188.692 149.488V148.438C189.434 148.536 190.414 148.592 191.058 148.592C191.352 148.592 191.674 148.592 191.982 148.578C192.178 147.976 192.304 147.346 192.332 146.828L193.48 146.926ZM207.802 146.996C207.704 147.374 207.662 147.668 207.62 147.976C207.578 148.34 207.508 148.83 207.424 149.418C208.502 149.418 209.454 149.362 210.266 149.236L210.238 150.286C209.342 150.37 208.53 150.412 207.396 150.412C207.368 150.412 207.326 150.412 207.298 150.412C207.2 151.238 207.088 152.12 206.99 152.946C207.088 152.946 207.172 152.946 207.256 152.946C208.208 152.946 209.188 152.904 210.168 152.764L210.14 153.828C209.216 153.926 208.348 153.968 207.396 153.968C207.228 153.968 207.06 153.968 206.892 153.968C206.836 154.528 206.808 155.018 206.808 155.354C206.808 156.712 207.564 157.552 209.16 157.552C211.288 157.552 212.646 156.614 212.646 155.172C212.646 154.234 212.142 153.184 211.12 152.316L212.352 152.064C213.318 153.128 213.78 154.094 213.78 155.298C213.78 157.384 211.932 158.644 209.16 158.644C207.256 158.644 205.73 157.818 205.73 155.522C205.73 155.13 205.772 154.57 205.842 153.912C204.792 153.828 203.77 153.674 202.916 153.408L202.972 152.33C203.896 152.652 204.96 152.82 205.954 152.904C206.038 152.078 206.15 151.196 206.262 150.37C205.24 150.286 204.134 150.104 203.252 149.88L203.308 148.858C204.19 149.138 205.338 149.306 206.374 149.376C206.444 148.816 206.5 148.312 206.528 147.906C206.57 147.43 206.57 147.178 206.542 146.912L207.802 146.996ZM220.199 147.108C220.759 148.648 221.459 150.16 222.075 151.266C223.391 150.468 224.903 149.726 225.673 149.306C226.079 149.068 226.373 148.886 226.667 148.648L227.283 149.642C226.961 149.838 226.611 150.02 226.205 150.23C225.253 150.72 223.321 151.644 221.949 152.554C220.647 153.394 219.863 154.318 219.863 155.382C219.863 156.544 220.969 157.272 223.181 157.272C224.707 157.272 226.569 157.076 227.661 156.796V158.042C226.597 158.224 224.987 158.392 223.237 158.392C220.605 158.392 218.701 157.608 218.701 155.508C218.701 154.066 219.625 152.932 221.123 151.882C220.479 150.734 219.737 149.096 219.093 147.57L220.199 147.108ZM236.831 148.55C238.357 148.802 241.185 148.746 242.585 148.536V149.67C241.087 149.838 238.371 149.838 236.831 149.67V148.55ZM237.377 154.248C237.237 154.766 237.167 155.158 237.167 155.536C237.167 156.18 237.629 156.796 239.533 156.796C240.793 156.796 241.871 156.684 243.005 156.432L243.033 157.608C242.151 157.776 240.975 157.902 239.533 157.902C237.181 157.902 236.131 157.118 236.131 155.802C236.131 155.326 236.215 154.836 236.369 154.15L237.377 154.248ZM234.157 147.472C234.087 147.71 233.961 148.158 233.905 148.41C233.639 149.698 233.205 152.204 233.205 153.772C233.205 154.458 233.247 155.046 233.331 155.732C233.569 155.102 233.905 154.262 234.143 153.688L234.731 154.136C234.367 155.13 233.863 156.614 233.737 157.272C233.695 157.482 233.653 157.748 233.667 157.902C233.681 158.056 233.695 158.252 233.709 158.392L232.701 158.462C232.421 157.468 232.183 155.858 232.183 153.968C232.183 151.91 232.645 149.516 232.813 148.354C232.869 148.032 232.911 147.668 232.911 147.36L234.157 147.472ZM248.401 147.542C248.737 147.584 249.087 147.598 249.507 147.598C250.123 147.598 253.007 147.472 253.819 147.374C254.141 147.346 254.407 147.29 254.575 147.248L255.289 148.046C255.093 148.158 254.729 148.41 254.533 148.564C253.497 149.432 251.467 151.126 250.347 152.008C252.475 151.784 254.995 151.602 257.011 151.602V152.638C255.639 152.568 254.295 152.582 253.455 152.694C252.097 152.89 250.767 154.052 250.767 155.368C250.767 156.782 251.901 157.258 253.175 157.426C254.001 157.538 254.687 157.51 255.191 157.468L254.953 158.602C251.537 158.756 249.675 157.678 249.675 155.536C249.675 154.332 250.585 153.324 251.299 152.89C249.801 153.016 247.939 153.226 246.259 153.506L246.161 152.456C246.917 152.372 247.869 152.26 248.583 152.176C250.095 151.126 252.321 149.18 253.203 148.396C252.587 148.438 250.123 148.55 249.521 148.592C249.171 148.62 248.751 148.662 248.457 148.69L248.401 147.542ZM263.395 147.92C263.395 147.612 263.395 147.234 263.339 146.884L264.655 146.926C264.585 147.276 264.473 148.06 264.375 149.04C264.403 149.026 264.431 149.026 264.459 149.012L264.865 149.502C264.683 149.754 264.445 150.132 264.235 150.482C264.207 150.748 264.193 151.014 264.165 151.294C265.257 150.286 267.063 148.928 268.477 148.928C269.779 148.928 270.423 149.67 270.423 150.804C270.423 152.204 269.905 154.612 269.905 156.04C269.905 156.502 270.129 156.894 270.633 156.894C271.305 156.894 272.033 156.488 272.747 155.732L272.929 156.936C272.187 157.678 271.305 158.098 270.353 158.098C269.429 158.098 268.799 157.496 268.799 156.334C268.799 154.78 269.331 152.484 269.331 151.112C269.331 150.3 268.911 149.964 268.197 149.964C267.063 149.964 265.369 151.28 264.081 152.652C264.053 153.24 264.039 153.8 264.039 154.304C264.039 155.578 264.025 156.432 264.095 157.678C264.109 157.93 264.137 158.28 264.165 158.532H262.947C262.975 158.28 262.989 157.93 262.989 157.706C263.003 156.362 263.003 155.648 263.031 154.122C263.031 153.982 263.045 153.786 263.045 153.562C262.359 154.598 261.435 155.928 260.763 156.88L260.049 155.914C260.833 154.934 262.457 152.75 263.157 151.658C263.185 151.196 263.227 150.72 263.255 150.272C262.625 150.356 261.393 150.524 260.511 150.65L260.399 149.502C260.707 149.516 260.973 149.502 261.309 149.488C261.771 149.46 262.597 149.376 263.325 149.25C263.367 148.592 263.395 148.074 263.395 147.92ZM277.101 147.542C277.437 147.57 277.787 147.584 278.207 147.584C278.823 147.584 281.707 147.458 282.519 147.374C282.841 147.332 283.107 147.29 283.275 147.234L283.989 148.032C283.793 148.158 283.429 148.396 283.233 148.564C282.197 149.418 280.167 151.112 279.047 152.008C281.175 151.77 283.695 151.588 285.711 151.588V152.624C284.339 152.554 282.995 152.568 282.155 152.694C280.797 152.89 279.453 154.038 279.453 155.354C279.453 156.768 280.601 157.244 281.875 157.426C282.701 157.524 283.387 157.496 283.877 157.454L283.653 158.602C280.237 158.742 278.375 157.678 278.375 155.522C278.375 154.332 279.285 153.31 279.999 152.876C278.501 153.002 276.639 153.226 274.959 153.492L274.861 152.442C275.617 152.372 276.569 152.246 277.269 152.162C278.795 151.112 281.007 149.166 281.903 148.382C281.273 148.424 278.823 148.536 278.221 148.592C277.871 148.62 277.451 148.662 277.157 148.69L277.101 147.542ZM284.045 148.998C284.367 149.474 284.801 150.146 285.095 150.776L284.381 151.112C284.087 150.496 283.737 149.866 283.331 149.306L284.045 148.998ZM285.515 148.438C285.851 148.872 286.313 149.6 286.621 150.188L285.907 150.538C285.599 149.936 285.221 149.278 284.815 148.76L285.515 148.438ZM292.515 147.92C292.515 147.612 292.515 147.234 292.459 146.884L293.775 146.926C293.705 147.276 293.593 148.06 293.495 149.04C293.523 149.026 293.551 149.026 293.579 149.012L293.985 149.502C293.803 149.754 293.565 150.132 293.355 150.482C293.327 150.748 293.313 151.014 293.285 151.294C294.377 150.286 296.183 148.928 297.597 148.928C298.899 148.928 299.543 149.67 299.543 150.804C299.543 152.204 299.025 154.612 299.025 156.04C299.025 156.502 299.249 156.894 299.753 156.894C300.425 156.894 301.153 156.488 301.867 155.732L302.049 156.936C301.307 157.678 300.425 158.098 299.473 158.098C298.549 158.098 297.919 157.496 297.919 156.334C297.919 154.78 298.451 152.484 298.451 151.112C298.451 150.3 298.031 149.964 297.317 149.964C296.183 149.964 294.489 151.28 293.201 152.652C293.173 153.24 293.159 153.8 293.159 154.304C293.159 155.578 293.145 156.432 293.215 157.678C293.229 157.93 293.257 158.28 293.285 158.532H292.067C292.095 158.28 292.109 157.93 292.109 157.706C292.123 156.362 292.123 155.648 292.151 154.122C292.151 153.982 292.165 153.786 292.165 153.562C291.479 154.598 290.555 155.928 289.883 156.88L289.169 155.914C289.953 154.934 291.577 152.75 292.277 151.658C292.305 151.196 292.347 150.72 292.375 150.272C291.745 150.356 290.513 150.524 289.631 150.65L289.519 149.502C289.827 149.516 290.093 149.502 290.429 149.488C290.891 149.46 291.717 149.376 292.445 149.25C292.487 148.592 292.515 148.074 292.515 147.92ZM315.685 153.1C315.685 156.04 313.753 158 310.435 158.434L309.777 157.398C310.225 157.356 310.659 157.286 310.981 157.216C312.773 156.81 314.537 155.48 314.537 153.058C314.537 150.944 313.179 149.194 310.799 148.998C310.617 150.3 310.351 151.728 309.959 153.03C309.105 155.914 307.999 157.384 306.697 157.384C305.451 157.384 304.205 155.956 304.205 153.646C304.205 150.608 306.907 147.948 310.323 147.948C313.599 147.948 315.685 150.258 315.685 153.1ZM305.297 153.548C305.297 155.312 306.109 156.096 306.739 156.096C307.397 156.096 308.139 155.158 308.853 152.792C309.203 151.63 309.483 150.3 309.637 149.012C306.949 149.348 305.297 151.644 305.297 153.548ZM324.645 146.982C324.603 147.304 324.575 147.794 324.561 148.13C324.547 148.634 324.519 149.11 324.491 149.572H327.823C328.201 149.572 328.481 149.544 328.719 149.502L329.503 149.894C329.461 150.132 329.433 150.398 329.433 150.58C329.377 151.924 329.209 155.998 328.579 157.342C328.299 157.93 327.851 158.196 327.081 158.196C326.367 158.196 325.555 158.14 324.827 158.098L324.687 156.936C325.443 157.034 326.185 157.09 326.773 157.09C327.179 157.09 327.431 156.978 327.585 156.628C328.117 155.564 328.299 152.12 328.299 150.622H324.379C323.875 154.64 322.419 156.768 320.081 158.378L319.059 157.552C319.507 157.314 320.081 156.922 320.501 156.516C321.887 155.256 322.895 153.506 323.273 150.622H320.921C320.375 150.622 319.801 150.622 319.311 150.678V149.488C319.801 149.544 320.375 149.572 320.907 149.572H323.371C323.399 149.124 323.427 148.648 323.427 148.144C323.427 147.836 323.385 147.318 323.329 146.982H324.645ZM335.327 147.57C335.691 147.626 336.139 147.64 336.587 147.64H342.089C342.537 147.64 343.027 147.626 343.363 147.57V148.732C343.027 148.704 342.551 148.69 342.075 148.69H336.587C336.153 148.69 335.705 148.704 335.327 148.732V147.57ZM344.385 151.266C344.315 151.392 344.231 151.574 344.203 151.672C343.825 153.058 343.195 154.514 342.159 155.648C340.689 157.258 338.939 158.084 337.147 158.574L336.279 157.58C338.267 157.174 340.017 156.278 341.207 155.018C342.061 154.122 342.621 152.932 342.873 151.924H335.439C335.103 151.924 334.571 151.938 334.067 151.966V150.79C334.585 150.846 335.061 150.874 335.439 150.874H342.817C343.139 150.874 343.433 150.846 343.587 150.762L344.385 151.266ZM353.537 147.556C353.397 147.906 353.243 148.27 353.061 148.858C352.655 150.174 351.269 154.472 350.569 156.292C352.627 156.096 355.315 155.802 356.855 155.592C356.295 154.486 355.665 153.394 355.147 152.722L356.197 152.246C357.191 153.688 358.717 156.502 359.305 157.944L358.129 158.476C357.947 157.972 357.681 157.328 357.359 156.642C355.203 156.922 350.513 157.44 348.637 157.608C348.287 157.636 347.881 157.706 347.475 157.762L347.265 156.46C347.685 156.474 348.161 156.46 348.567 156.446C348.777 156.432 349.015 156.418 349.267 156.404C350.051 154.472 351.479 149.992 351.871 148.62C352.039 147.976 352.095 147.64 352.137 147.276L353.537 147.556ZM367.173 155.536H363.393V157.51H367.173V155.536ZM362.455 159.022V154.738H368.153V158.882H367.173V158.308H363.393V159.022H362.455ZM367.985 149.712V148.41H362.553V149.712H364.751V148.802H365.717V149.712H367.985ZM365.745 146.324V147.57H368.937V149.782H368.139V150.496H365.717V151.406H367.985V152.162H365.717V153.128H368.797V153.954H361.615V153.128H364.751V152.162H362.469V151.406H364.751V150.496H362.371V149.782H361.615V147.57H364.723V146.324H365.745ZM370.771 147.794V155.466H369.791V147.794H370.771ZM372.633 146.548H373.627V157.622C373.627 158.336 373.473 158.644 373.039 158.826C372.605 158.994 371.807 159.022 370.743 159.022C370.687 158.728 370.533 158.238 370.365 157.93C371.233 157.972 372.059 157.958 372.325 157.958C372.549 157.944 372.633 157.874 372.633 157.636V146.548ZM380.095 146.954C379.801 147.976 379.521 149.866 379.437 150.846C380.011 149.418 381.467 147.668 383.245 147.668C385.107 147.668 386.437 149.53 386.437 152.47C386.437 156.362 384.001 158.07 380.529 158.7L379.871 157.692C382.909 157.244 385.289 155.998 385.289 152.484C385.289 150.272 384.533 148.676 383.063 148.676C381.313 148.676 379.689 151.224 379.521 153.058C379.451 153.604 379.465 154.08 379.549 154.78L378.471 154.864C378.401 154.332 378.317 153.548 378.317 152.638C378.317 151.308 378.583 149.25 378.751 148.116C378.807 147.696 378.835 147.29 378.863 146.912L380.095 146.954ZM396.349 146.926C396.265 147.346 396.153 147.892 395.943 148.55C397.371 148.48 398.897 148.354 400.213 148.116L400.199 149.152C398.813 149.376 397.077 149.488 395.551 149.544C395.229 150.286 394.767 151.084 394.291 151.714C394.823 151.378 395.635 151.196 396.237 151.196C397.147 151.196 397.889 151.644 398.113 152.456C399.065 151.994 399.919 151.658 400.647 151.322C401.067 151.14 401.403 150.986 401.795 150.776L402.257 151.826C401.893 151.924 401.389 152.12 401.011 152.274C400.227 152.568 399.233 152.974 398.169 153.478C398.183 154.29 398.197 155.48 398.211 156.166H397.133C397.161 155.634 397.175 154.724 397.175 153.982C395.873 154.668 394.963 155.41 394.963 156.334C394.963 157.426 396.055 157.594 397.497 157.594C398.589 157.594 400.087 157.468 401.319 157.258L401.291 158.378C400.227 158.518 398.673 158.63 397.455 158.63C395.453 158.63 393.843 158.196 393.843 156.488C393.843 154.836 395.509 153.8 397.147 152.946C397.007 152.344 396.503 152.078 395.873 152.078C394.991 152.078 394.095 152.512 393.465 153.1C393.059 153.478 392.667 153.996 392.191 154.556L391.239 153.856C393.003 152.148 393.941 150.706 394.473 149.572C394.263 149.572 394.053 149.572 393.857 149.572C393.255 149.572 392.331 149.544 391.561 149.488V148.438C392.303 148.536 393.283 148.592 393.927 148.592C394.221 148.592 394.543 148.592 394.851 148.578C395.047 147.976 395.173 147.346 395.201 146.828L396.349 146.926ZM409.817 146.772V147.612H405.785V146.772H409.817ZM410.335 148.606V149.46H405.057V148.606H410.335ZM408.935 155.074H406.597V157.426H408.935V155.074ZM409.845 154.22V158.266H406.597V158.91H405.687V154.22H409.845ZM405.715 153.184V152.344H409.859V153.184H405.715ZM405.715 151.322V150.496H409.859V151.322H405.715ZM412.421 147.654V148.424C412.421 149.628 412.113 151.098 410.629 152.078C410.475 151.896 410.083 151.532 409.873 151.392C411.217 150.538 411.427 149.376 411.427 148.41V146.73H415.795V150.146C415.795 150.454 415.837 150.51 416.061 150.51H416.761C417.013 150.51 417.069 150.328 417.097 148.984C417.293 149.152 417.699 149.306 417.965 149.362C417.881 151 417.629 151.406 416.887 151.406H415.921C415.067 151.406 414.815 151.14 414.815 150.146V147.654H412.421ZM416.453 152.26L417.125 152.526C416.649 154.248 415.823 155.606 414.759 156.656C415.669 157.342 416.747 157.86 417.979 158.168C417.755 158.378 417.447 158.798 417.307 159.05C416.033 158.672 414.927 158.098 413.975 157.328C412.939 158.126 411.735 158.686 410.461 159.064C410.363 158.812 410.097 158.364 409.901 158.154C411.091 157.846 412.225 157.342 413.205 156.614C412.379 155.76 411.721 154.738 411.245 153.562L412.169 153.282C412.575 154.304 413.191 155.214 413.975 155.984C414.759 155.242 415.389 154.332 415.809 153.254H410.517V152.302H416.271L416.453 152.26ZM421.241 148.872V150.916H420.219V147.892H425.469V146.296H426.547V147.892H431.839V150.916H430.775V148.872H421.241ZM426.547 154.822V157.678C427.233 157.804 428.003 157.846 428.815 157.846C429.319 157.846 431.727 157.846 432.399 157.832C432.231 158.084 432.049 158.574 432.007 158.882H428.759C425.861 158.882 423.775 158.378 422.501 156.012C422.011 157.3 421.325 158.336 420.415 159.134C420.247 158.952 419.813 158.588 419.561 158.434C421.115 157.23 421.871 155.242 422.179 152.736L423.243 152.834C423.159 153.492 423.047 154.108 422.907 154.696C423.439 156.166 424.335 156.964 425.483 157.398V151.532H422.011V150.552H430.117V151.532H426.547V153.856H430.691V154.822H426.547ZM438.349 147.094C438.279 147.556 438.237 148.046 438.223 148.508C438.153 150.09 438.055 153.394 438.055 155.48C438.055 157.02 439.021 157.566 440.351 157.566C442.913 157.566 444.355 156.124 445.363 154.668L446.161 155.62C445.195 156.95 443.389 158.714 440.309 158.714C438.293 158.714 436.907 157.874 436.907 155.592C436.907 153.52 437.047 149.978 437.047 148.508C437.047 147.99 437.019 147.486 436.935 147.08L438.349 147.094ZM451.733 156.53C451.733 157.174 452.293 157.664 453.679 157.664C454.477 157.664 455.163 157.412 455.163 156.446C455.163 156.208 455.149 155.872 455.149 155.508C454.715 155.41 454.253 155.368 453.791 155.368C452.461 155.368 451.733 155.886 451.733 156.53ZM456.171 146.884C456.129 147.136 456.101 147.416 456.087 147.822C456.087 148.004 456.073 148.312 456.073 148.676C457.333 148.62 458.607 148.494 459.867 148.298L459.853 149.32C458.747 149.446 457.417 149.572 456.073 149.642C456.073 150.258 456.073 150.916 456.073 151.434C456.073 151.49 456.073 151.546 456.073 151.602C457.431 151.546 458.705 151.42 459.979 151.224L459.965 152.274C458.649 152.442 457.417 152.554 456.087 152.596C456.115 153.324 456.157 154.08 456.185 154.752C458.047 155.256 459.475 156.278 460.273 156.936L459.629 157.93C458.803 157.174 457.641 156.32 456.241 155.816C456.255 156.166 456.269 156.46 456.269 156.684C456.269 157.65 455.625 158.644 453.805 158.644C451.789 158.644 450.697 157.93 450.697 156.586C450.697 155.312 451.915 154.444 453.931 154.444C454.337 154.444 454.729 154.472 455.107 154.528C455.093 153.898 455.065 153.226 455.051 152.624C454.785 152.624 454.519 152.624 454.253 152.624C453.301 152.624 451.761 152.54 450.753 152.428L450.739 151.378C451.747 151.546 453.343 151.644 454.267 151.644C454.519 151.644 454.771 151.644 455.023 151.644C455.023 151.574 455.023 151.504 455.023 151.434C455.023 150.874 455.023 150.258 455.023 149.684C454.827 149.684 454.617 149.684 454.407 149.684C453.427 149.684 451.705 149.544 450.823 149.446L450.809 148.41C451.719 148.578 453.455 148.718 454.393 148.718C454.603 148.718 454.813 148.718 455.037 148.718C455.037 148.354 455.037 148.018 455.037 147.724C455.037 147.486 455.009 147.08 454.981 146.884H456.171ZM471.487 146.912C471.459 147.066 471.431 147.612 471.417 147.794C471.417 148.004 471.403 148.326 471.403 148.704C471.473 148.704 471.543 148.704 471.613 148.704C473.321 148.704 475.043 148.718 475.715 148.718L475.701 149.754C474.917 149.712 473.643 149.684 471.599 149.684C471.529 149.684 471.473 149.684 471.403 149.684C471.403 150.482 471.417 151.35 471.431 151.994C471.725 152.47 471.879 153.086 471.879 153.786C471.879 155.676 470.955 157.776 467.693 158.756L466.755 157.832C468.617 157.412 469.905 156.628 470.465 155.354C470.129 155.606 469.723 155.732 469.247 155.732C468.071 155.732 466.951 154.92 466.951 153.394C466.951 152.008 468.085 150.958 469.415 150.958C469.765 150.958 470.073 151.014 470.353 151.112C470.353 150.692 470.353 150.188 470.339 149.698C468.211 149.712 465.831 149.81 464.081 149.936L464.053 148.858C465.607 148.83 468.239 148.746 470.325 148.718C470.325 148.326 470.311 147.99 470.297 147.794C470.283 147.43 470.227 147.024 470.213 146.912H471.487ZM468.001 153.38C468.001 154.248 468.645 154.766 469.429 154.766C470.255 154.766 470.787 154.108 470.661 152.778C470.437 152.162 469.961 151.896 469.415 151.896C468.687 151.896 468.001 152.47 468.001 153.38ZM478.591 154.584C479.781 154.584 480.733 155.536 480.733 156.712C480.733 157.902 479.781 158.854 478.591 158.854C477.429 158.854 476.463 157.902 476.463 156.712C476.463 155.536 477.429 154.584 478.591 154.584ZM478.591 158.14C479.389 158.14 480.019 157.51 480.019 156.712C480.019 155.942 479.389 155.298 478.591 155.298C477.821 155.298 477.177 155.942 477.177 156.712C477.177 157.51 477.821 158.14 478.591 158.14ZM491.681 152.806L490.883 152.54C491.191 151.602 491.415 150.076 491.513 148.97L492.283 149.068C492.227 150.16 492.003 151.77 491.681 152.806ZM492.591 159.064V146.282H493.557V159.064H492.591ZM493.669 148.606L494.355 148.326C494.663 148.956 494.999 149.796 495.125 150.3L494.397 150.664C494.285 150.132 493.963 149.264 493.669 148.606ZM496.679 156.11H501.719V155.046H496.679V156.11ZM501.719 153.212H496.679V154.262H501.719V153.212ZM502.713 152.4V157.902C502.713 158.434 502.601 158.7 502.209 158.854C501.817 159.008 501.201 159.022 500.207 159.008C500.151 158.756 500.039 158.378 499.913 158.112C500.613 158.14 501.285 158.14 501.453 158.126C501.649 158.126 501.719 158.07 501.719 157.888V156.88H496.679V159.064H495.699V152.4H502.713ZM499.717 150.804H503.791V151.602H494.705V150.804H498.695V149.824H495.461V149.068H498.695V148.172H495.125V147.374H498.695V146.282H499.717V147.374H503.399V148.172H499.717V149.068H503.049V149.824H499.717V150.804ZM509.979 152.89L509.447 152.736C509.671 152.232 509.979 151.448 510.133 150.902H507.403C507.711 151.49 507.977 152.274 508.047 152.75L507.557 152.89H509.979ZM509.237 148.62V150.006H511.813V150.902H510.357L511.029 151.084C510.777 151.728 510.497 152.4 510.259 152.89H511.645V153.8H509.237V155.312H511.463V156.194H509.237V159.036H508.257V156.194H505.961V155.312H508.257V153.8H505.821V152.89H507.193C507.109 152.386 506.871 151.644 506.605 151.084L507.291 150.902H505.625V150.006H508.257V148.62H506.129V147.724H508.257V146.31H509.237V147.724H511.281V148.62H509.237ZM513.213 152.512V158.35C513.955 157.86 514.599 157.216 515.145 156.474C514.361 155.326 513.759 153.968 513.339 152.512H513.213ZM516.895 152.512H514.221C514.571 153.618 515.075 154.682 515.691 155.606C516.237 154.654 516.643 153.59 516.895 152.512ZM517.371 151.602L518.015 151.84C517.721 153.52 517.161 155.102 516.321 156.446C516.965 157.202 517.707 157.818 518.533 158.224C518.309 158.42 517.987 158.798 517.819 159.064C517.049 158.63 516.363 158.014 515.747 157.286C515.215 157.986 514.585 158.602 513.871 159.092C513.731 158.882 513.451 158.602 513.213 158.406V159.078H512.261V146.926H517.693V149.614C517.693 150.132 517.595 150.412 517.147 150.566C516.727 150.706 516.027 150.72 514.963 150.72C514.921 150.44 514.781 150.076 514.641 149.824C515.509 149.852 516.237 149.852 516.447 149.824C516.671 149.81 516.727 149.768 516.727 149.6V147.878H513.213V151.644H517.189L517.371 151.602ZM531.427 152.988L532.253 153.632C531.371 154.346 530.223 155.102 529.285 155.648C530.223 156.796 531.483 157.636 533.051 158.112C532.813 158.308 532.519 158.742 532.379 159.022C529.397 158.014 527.605 155.76 526.625 152.596C526.051 153.17 525.337 153.73 524.553 154.234V157.398C525.659 157.132 526.849 156.838 528.011 156.544L528.123 157.468C525.925 158.056 523.545 158.644 521.879 159.064L521.543 158.112C522.103 157.986 522.775 157.832 523.503 157.65V154.864C522.565 155.368 521.585 155.802 520.689 156.096C520.521 155.83 520.227 155.466 520.017 155.242C521.837 154.724 523.951 153.688 525.323 152.526H520.479V151.616H526.009V150.356H521.627V149.502H526.009V148.354H520.997V147.444H526.009V146.282H527.045V147.444H532.141V148.354H527.045V149.502H531.609V150.356H527.045V151.616H532.617V152.526H527.605C527.899 153.422 528.277 154.248 528.781 154.976C529.677 154.402 530.755 153.618 531.427 152.988ZM539.715 154.486L539.841 155.41C538.091 155.928 536.229 156.474 534.871 156.88L534.591 155.886C535.207 155.732 535.963 155.536 536.789 155.298V151.91H535.025V150.944H536.789V147.962H534.857V147.01H539.631V147.962H537.783V150.944H539.505V151.91H537.783V155.032L539.715 154.486ZM541.255 152.246V153.674H545.791V152.246H541.255ZM541.255 150.006V151.406H545.791V150.006H541.255ZM541.255 147.78V149.18H545.791V147.78H541.255ZM545.315 158.07H546.407C546.729 158.07 546.785 157.86 546.827 156.418C547.023 156.6 547.443 156.754 547.695 156.824C547.625 158.532 547.359 158.966 546.519 158.966H545.161C544.167 158.966 543.915 158.672 543.915 157.664V154.556H542.543C542.263 156.782 541.507 158.308 538.791 159.148C538.693 158.91 538.413 158.49 538.203 158.294C540.667 157.622 541.297 156.362 541.521 154.556H540.275V146.898H546.813V154.556H544.909V157.664C544.909 158.014 544.965 158.07 545.315 158.07ZM555.059 148.55C556.585 148.802 559.413 148.746 560.813 148.536V149.67C559.315 149.838 556.599 149.838 555.059 149.67V148.55ZM555.605 154.248C555.465 154.766 555.395 155.158 555.395 155.536C555.395 156.18 555.857 156.796 557.761 156.796C559.021 156.796 560.099 156.684 561.233 156.432L561.261 157.608C560.379 157.776 559.203 157.902 557.761 157.902C555.409 157.902 554.359 157.118 554.359 155.802C554.359 155.326 554.443 154.836 554.597 154.15L555.605 154.248ZM552.385 147.472C552.315 147.71 552.189 148.158 552.133 148.41C551.867 149.698 551.433 152.204 551.433 153.772C551.433 154.458 551.475 155.046 551.559 155.732C551.797 155.102 552.133 154.262 552.371 153.688L552.959 154.136C552.595 155.13 552.091 156.614 551.965 157.272C551.923 157.482 551.881 157.748 551.895 157.902C551.909 158.056 551.923 158.252 551.937 158.392L550.929 158.462C550.649 157.468 550.411 155.858 550.411 153.968C550.411 151.91 550.873 149.516 551.041 148.354C551.097 148.032 551.139 147.668 551.139 147.36L552.385 147.472ZM573.749 148.438V147.472H566.749V148.438H573.749ZM573.749 150.118V149.138H566.749V150.118H573.749ZM574.771 146.73V150.86H565.769V146.73H574.771ZM574.631 154.206H571.747C572.069 154.976 572.545 155.676 573.119 156.264C573.749 155.676 574.267 154.99 574.631 154.206ZM566.259 155.998V157.118C567.057 157.034 567.925 156.95 568.793 156.852V155.998H566.259ZM566.259 154.234V155.214H568.793V154.234H566.259ZM568.793 152.512H566.259V153.45H568.793V152.512ZM575.275 153.352L575.905 153.604C575.471 154.934 574.743 156.026 573.847 156.894C574.645 157.51 575.597 157.972 576.675 158.238C576.451 158.434 576.171 158.812 576.045 159.05C574.925 158.728 573.945 158.196 573.119 157.51C572.265 158.168 571.313 158.644 570.333 158.98C570.221 158.742 569.969 158.378 569.787 158.196V159.064H568.793V157.706C567.085 157.916 565.377 158.112 564.075 158.266L563.977 157.342C564.369 157.314 564.817 157.272 565.307 157.216V152.512H564.103V151.644H576.339V152.512H569.787V158.182C570.711 157.902 571.621 157.454 572.419 156.852C571.775 156.152 571.257 155.326 570.879 154.388L571.481 154.206H570.277V153.38H575.093L575.275 153.352ZM587.665 149.74L587.511 149.698C587.735 149.32 588.001 148.746 588.169 148.298H584.725C584.991 148.718 585.229 149.292 585.313 149.67L585.061 149.74H587.665ZM587.595 155.088V153.884H585.383V155.088H587.595ZM583.787 148.424L584.277 148.298H582.051V147.458H585.915V146.282H586.937V147.458H590.997V148.298H588.841L589.205 148.396C588.953 148.872 588.687 149.362 588.463 149.74H590.507V155.9C590.507 156.404 590.409 156.67 590.045 156.838C589.681 156.978 589.107 156.992 588.281 156.992C588.239 156.74 588.099 156.348 587.959 156.096C588.589 156.124 589.135 156.124 589.317 156.11C589.485 156.11 589.527 156.054 589.527 155.9V150.566H586.867V151.504H588.967V152.218H586.867V153.226H588.365V155.746H585.383V156.278H584.627V153.226H586.069V152.218H583.983V151.504H586.069V150.566H583.507V157.006H582.555V149.74H584.375C584.263 149.334 584.025 148.816 583.787 148.424ZM581.673 148.914L580.833 149.558C580.413 148.858 579.475 147.892 578.621 147.22L579.419 146.632C580.273 147.276 581.239 148.228 581.673 148.914ZM581.253 151.77V156.264C581.911 157.3 583.143 157.776 584.781 157.832C586.321 157.902 589.541 157.86 591.221 157.748C591.095 157.986 590.927 158.462 590.885 158.77C589.317 158.84 586.363 158.868 584.795 158.798C582.961 158.728 581.701 158.238 580.833 157.146C580.217 157.748 579.573 158.336 578.887 158.938L578.341 157.944C578.929 157.51 579.643 156.922 580.273 156.334V152.75H578.495V151.77H581.253ZM598.669 146.884C598.543 147.388 598.347 148.242 598.123 149.054C598.851 148.942 599.607 148.774 600.321 148.536L600.349 149.586C599.607 149.796 598.725 149.978 597.801 150.104C597.115 152.078 595.869 154.5 594.749 156.012L593.671 155.452C594.833 154.094 596.023 151.854 596.667 150.216C596.247 150.244 595.827 150.258 595.421 150.258C594.903 150.258 594.315 150.244 593.783 150.216L593.713 149.166C594.231 149.236 594.833 149.264 595.421 149.264C595.925 149.264 596.457 149.236 597.003 149.194C597.213 148.41 597.409 147.528 597.437 146.772L598.669 146.884ZM597.899 156.6C597.899 157.258 598.431 157.706 599.523 157.706C600.685 157.706 601.077 157.09 601.077 156.32C601.077 156.138 601.077 155.928 601.063 155.69C600.615 155.55 600.125 155.48 599.621 155.48C598.599 155.48 597.899 155.956 597.899 156.6ZM601.973 151.21C601.945 151.784 601.945 152.218 601.959 152.722C601.973 153.24 602.029 154.15 602.057 155.018C603.261 155.452 604.241 156.138 604.969 156.754L604.367 157.706C603.765 157.174 603.009 156.544 602.099 156.096C602.113 156.32 602.113 156.516 602.113 156.684C602.113 157.804 601.399 158.714 599.663 158.714C598.123 158.714 596.863 158.084 596.863 156.698C596.863 155.41 598.081 154.598 599.663 154.598C600.139 154.598 600.601 154.64 601.035 154.738C600.979 153.59 600.909 152.204 600.881 151.21H601.973ZM604.773 151.588C604.017 150.944 602.505 150.076 601.567 149.656L602.141 148.802C603.149 149.25 604.745 150.16 605.403 150.664L604.773 151.588ZM614.027 146.982C613.985 147.304 613.957 147.794 613.943 148.13C613.929 148.634 613.901 149.11 613.873 149.572H617.205C617.583 149.572 617.863 149.544 618.101 149.502L618.885 149.894C618.843 150.132 618.815 150.398 618.815 150.58C618.759 151.924 618.591 155.998 617.961 157.342C617.681 157.93 617.233 158.196 616.463 158.196C615.749 158.196 614.937 158.14 614.209 158.098L614.069 156.936C614.825 157.034 615.567 157.09 616.155 157.09C616.561 157.09 616.813 156.978 616.967 156.628C617.499 155.564 617.681 152.12 617.681 150.622H613.761C613.257 154.64 611.801 156.768 609.463 158.378L608.441 157.552C608.889 157.314 609.463 156.922 609.883 156.516C611.269 155.256 612.277 153.506 612.655 150.622H610.303C609.757 150.622 609.183 150.622 608.693 150.678V149.488C609.183 149.544 609.757 149.572 610.289 149.572H612.753C612.781 149.124 612.809 148.648 612.809 148.144C612.809 147.836 612.767 147.318 612.711 146.982H614.027ZM624.709 147.57C625.073 147.626 625.521 147.64 625.969 147.64H631.471C631.919 147.64 632.409 147.626 632.745 147.57V148.732C632.409 148.704 631.933 148.69 631.457 148.69H625.969C625.535 148.69 625.087 148.704 624.709 148.732V147.57ZM633.767 151.266C633.697 151.392 633.613 151.574 633.585 151.672C633.207 153.058 632.577 154.514 631.541 155.648C630.071 157.258 628.321 158.084 626.529 158.574L625.661 157.58C627.649 157.174 629.399 156.278 630.589 155.018C631.443 154.122 632.003 152.932 632.255 151.924H624.821C624.485 151.924 623.953 151.938 623.449 151.966V150.79C623.967 150.846 624.443 150.874 624.821 150.874H632.199C632.521 150.874 632.815 150.846 632.969 150.762L633.767 151.266ZM642.919 147.556C642.779 147.906 642.625 148.27 642.443 148.858C642.037 150.174 640.651 154.472 639.951 156.292C642.009 156.096 644.697 155.802 646.237 155.592C645.677 154.486 645.047 153.394 644.529 152.722L645.579 152.246C646.573 153.688 648.099 156.502 648.687 157.944L647.511 158.476C647.329 157.972 647.063 157.328 646.741 156.642C644.585 156.922 639.895 157.44 638.019 157.608C637.669 157.636 637.263 157.706 636.857 157.762L636.647 156.46C637.067 156.474 637.543 156.46 637.949 156.446C638.159 156.432 638.397 156.418 638.649 156.404C639.433 154.472 640.861 149.992 641.253 148.62C641.421 147.976 641.477 147.64 641.519 147.276L642.919 147.556ZM653.279 157.552C653.377 157.328 653.419 157.146 653.419 156.866V148.858C653.419 148.494 653.349 147.864 653.293 147.584H654.679C654.623 147.934 654.581 148.452 654.581 148.858V156.796C657.255 156.124 660.503 154.276 662.239 152.022L662.869 153.002C661.049 155.256 658.165 156.992 654.679 158C654.525 158.042 654.315 158.112 654.091 158.252L653.279 157.552ZM665.935 152.946C668.357 152.288 670.499 151.308 672.053 150.328C673.509 149.418 674.909 148.2 675.875 147.038L676.813 147.906C675.749 149.012 674.461 150.076 673.033 151.028V156.936C673.033 157.468 673.061 158.154 673.117 158.434H671.745C671.787 158.168 671.829 157.468 671.829 156.936V151.756C670.359 152.596 668.441 153.436 666.495 154.038L665.935 152.946ZM692.325 148.536C692.227 148.676 692.045 148.886 691.947 149.04C691.387 149.992 690.057 151.798 688.461 152.904L687.537 152.162C688.825 151.42 690.141 149.894 690.603 149.026H682.623C682.105 149.026 681.573 149.054 681.027 149.11V147.836C681.517 147.906 682.105 147.962 682.623 147.962H690.659C690.925 147.962 691.429 147.92 691.639 147.878L692.325 148.536ZM686.739 150.384C686.739 154.178 686.403 156.74 682.833 158.518L681.797 157.678C682.189 157.552 682.665 157.328 683.057 157.048C685.227 155.718 685.535 153.73 685.535 151.392C685.535 151.056 685.521 150.748 685.479 150.384H686.739ZM701.425 146.786C701.355 147.22 701.341 147.542 701.341 147.836V149.138H704.477C704.995 149.138 705.261 149.096 705.443 149.026L706.199 149.502C706.129 149.712 706.045 150.076 705.989 150.342C705.807 151.462 705.401 153.212 704.617 154.556C703.567 156.39 701.635 157.818 699.073 158.518L698.163 157.468C698.639 157.398 699.171 157.244 699.619 157.076C701.019 156.628 702.559 155.578 703.413 154.262C704.169 153.072 704.617 151.378 704.743 150.174H696.917V152.68C696.917 152.932 696.931 153.296 696.973 153.52H695.755C695.783 153.268 695.797 152.89 695.797 152.624V150.16C695.797 149.866 695.797 149.39 695.755 149.082C696.161 149.124 696.567 149.138 697.057 149.138H700.151V147.836C700.151 147.542 700.137 147.22 700.081 146.786H701.425ZM713.129 156.768V148.62C713.129 148.228 713.101 147.598 713.017 147.164H714.389C714.347 147.598 714.291 148.2 714.291 148.62C714.291 149.208 714.291 150.02 714.291 150.902C716.139 151.462 718.799 152.47 720.269 153.212L719.793 154.402C718.267 153.576 715.845 152.638 714.291 152.148C714.305 154.248 714.305 156.362 714.305 156.768C714.305 157.202 714.333 157.958 714.389 158.42H713.031C713.101 157.972 713.129 157.286 713.129 156.768ZM729.411 146.926C729.327 147.346 729.215 147.892 729.005 148.55C730.433 148.48 731.959 148.354 733.275 148.116L733.261 149.152C731.875 149.376 730.139 149.488 728.613 149.544C728.291 150.286 727.829 151.084 727.353 151.714C727.885 151.378 728.697 151.196 729.299 151.196C730.209 151.196 730.951 151.644 731.175 152.456C732.127 151.994 732.981 151.658 733.709 151.322C734.129 151.14 734.465 150.986 734.857 150.776L735.319 151.826C734.955 151.924 734.451 152.12 734.073 152.274C733.289 152.568 732.295 152.974 731.231 153.478C731.245 154.29 731.259 155.48 731.273 156.166H730.195C730.223 155.634 730.237 154.724 730.237 153.982C728.935 154.668 728.025 155.41 728.025 156.334C728.025 157.426 729.117 157.594 730.559 157.594C731.651 157.594 733.149 157.468 734.381 157.258L734.353 158.378C733.289 158.518 731.735 158.63 730.517 158.63C728.515 158.63 726.905 158.196 726.905 156.488C726.905 154.836 728.571 153.8 730.209 152.946C730.069 152.344 729.565 152.078 728.935 152.078C728.053 152.078 727.157 152.512 726.527 153.1C726.121 153.478 725.729 153.996 725.253 154.556L724.301 153.856C726.065 152.148 727.003 150.706 727.535 149.572C727.325 149.572 727.115 149.572 726.919 149.572C726.317 149.572 725.393 149.544 724.623 149.488V148.438C725.365 148.536 726.345 148.592 726.989 148.592C727.283 148.592 727.605 148.592 727.913 148.578C728.109 147.976 728.235 147.346 728.263 146.828L729.411 146.926ZM749.263 148.466V147.556H746.309V146.828H750.187V149.194H747.457V149.908C747.457 150.174 747.541 150.23 748.003 150.23H749.669C750.005 150.23 750.075 150.146 750.117 149.488C750.299 149.614 750.635 149.726 750.887 149.782C750.789 150.72 750.523 150.972 749.781 150.972H747.905C746.869 150.972 746.575 150.762 746.575 149.922V148.466H749.263ZM744.755 148.466V147.556H741.759V146.828H745.637V149.194H742.879V149.922C742.879 150.174 742.949 150.23 743.397 150.23H744.909C745.245 150.23 745.315 150.146 745.357 149.53C745.539 149.67 745.875 149.782 746.127 149.824C746.029 150.734 745.763 150.972 745.049 150.972H743.313C742.277 150.972 742.011 150.762 742.011 149.922V148.466H744.755ZM744.979 152.96V154.29H747.275V152.96H744.979ZM750.803 154.29V155.102H741.493V154.29H744.013V152.96H741.941V152.162H744.013V151.154H744.979V152.162H747.275V151.154H748.269V152.162H750.369V152.96H748.269V154.29H750.803ZM750.593 156.964L749.585 157.412C748.997 156.894 747.989 156.236 747.023 155.746L747.765 155.284C748.787 155.774 749.935 156.446 750.593 156.964ZM744.475 155.256L745.399 155.578C744.685 156.25 743.565 156.936 742.641 157.384C742.473 157.202 742.095 156.866 741.871 156.726C742.823 156.348 743.859 155.816 744.475 155.256ZM741.227 148.942L740.359 149.53C739.995 148.83 739.099 147.836 738.287 147.15L739.085 146.618C739.911 147.276 740.835 148.242 741.227 148.942ZM740.905 151.77V156.264C741.563 157.314 742.809 157.79 744.447 157.86C746.029 157.93 749.291 157.888 750.999 157.776C750.873 158 750.705 158.462 750.663 158.756C749.081 158.826 746.057 158.854 744.475 158.798C742.627 158.728 741.353 158.224 740.485 157.118C739.897 157.734 739.267 158.322 738.595 158.938L738.049 157.972C738.637 157.538 739.323 156.95 739.939 156.362V152.75H738.217V151.77H740.905ZM757.873 153.38L755.871 153.884V157.804C755.871 158.42 755.717 158.714 755.325 158.882C754.947 159.036 754.331 159.064 753.253 159.064C753.225 158.798 753.085 158.364 752.945 158.112C753.687 158.14 754.373 158.126 754.583 158.112C754.779 158.098 754.877 158.042 754.877 157.818V154.136L752.875 154.64L752.609 153.618C753.253 153.492 754.023 153.31 754.877 153.114V150.09H752.791V149.124H754.877V146.296H755.871V149.124H757.775V150.09H755.871V152.876L757.775 152.428L757.873 153.38ZM763.935 148.06H759.497V151.7H763.935V148.06ZM764.957 152.694H762.255C762.815 155.172 763.907 157.272 765.727 158.196C765.489 158.392 765.167 158.812 764.999 159.092C762.983 157.944 761.835 155.606 761.233 152.694H759.483C759.399 154.808 758.993 157.356 757.341 159.064C757.173 158.868 756.767 158.49 756.543 158.364C758.307 156.544 758.475 153.898 758.475 151.826V147.08H764.957V152.694ZM771.411 147.094C771.341 147.556 771.299 148.046 771.285 148.508C771.215 150.09 771.117 153.394 771.117 155.48C771.117 157.02 772.083 157.566 773.413 157.566C775.975 157.566 777.417 156.124 778.425 154.668L779.223 155.62C778.257 156.95 776.451 158.714 773.371 158.714C771.355 158.714 769.969 157.874 769.969 155.592C769.969 153.52 770.109 149.978 770.109 148.508C770.109 147.99 770.081 147.486 769.997 147.08L771.411 147.094ZM781.977 148.704C782.509 148.69 782.957 148.662 783.223 148.634C784.133 148.536 786.779 148.27 789.355 148.06C790.881 147.92 792.197 147.85 793.135 147.808V148.928C792.337 148.928 791.105 148.942 790.391 149.152C788.403 149.796 787.185 151.924 787.185 153.576C787.185 156.32 789.733 157.188 792.015 157.272L791.609 158.434C789.019 158.336 786.065 156.95 786.065 153.828C786.065 151.644 787.395 149.866 788.683 149.096C787.185 149.264 783.615 149.6 782.103 149.922L781.977 148.704ZM804.779 147.668C804.485 147.906 804.051 148.27 803.813 148.466C802.861 149.306 800.845 150.902 799.809 151.77C798.969 152.484 798.955 152.708 799.851 153.464C801.125 154.5 803.603 156.502 805.087 157.986L804.093 158.91C803.799 158.574 803.477 158.224 803.127 157.888C802.147 156.88 800.019 155.06 798.717 153.982C797.387 152.876 797.555 152.274 798.815 151.21C799.865 150.328 801.993 148.648 802.945 147.682C803.225 147.402 803.575 147.01 803.743 146.744L804.779 147.668ZM816.875 154.85C816.749 155.312 816.679 155.746 816.679 156.11C816.679 156.768 817.043 157.412 819.045 157.412C819.955 157.412 820.921 157.314 821.775 157.132L821.733 158.266C820.977 158.378 820.053 158.476 819.031 158.476C816.819 158.476 815.615 157.79 815.615 156.404C815.615 155.872 815.699 155.34 815.825 154.752L816.875 154.85ZM815.265 147.192C815.181 147.486 815.069 148.018 815.013 148.298C814.957 148.606 814.873 148.956 814.803 149.334C815.713 149.222 816.637 149.054 817.491 148.844V149.936C816.581 150.146 815.559 150.3 814.579 150.412C814.439 151.028 814.299 151.672 814.131 152.288C813.627 154.276 812.675 157.174 811.947 158.7L810.715 158.28C811.555 156.838 812.549 153.996 813.067 152.022C813.193 151.56 813.319 151.028 813.431 150.524C812.969 150.552 812.535 150.566 812.143 150.566C811.527 150.566 811.023 150.538 810.519 150.51L810.477 149.418C811.149 149.502 811.653 149.516 812.157 149.516C812.619 149.516 813.123 149.488 813.669 149.446C813.767 148.956 813.837 148.508 813.879 148.228C813.935 147.836 813.949 147.36 813.921 147.08L815.265 147.192ZM816.581 151.448C817.323 151.378 818.247 151.322 819.143 151.322C819.969 151.322 820.809 151.364 821.565 151.448L821.537 152.512C820.823 152.414 819.997 152.344 819.185 152.344C818.303 152.344 817.449 152.4 816.581 152.498V151.448ZM820.053 147.612C820.417 148.116 820.921 148.97 821.201 149.544L820.445 149.88C820.165 149.306 819.689 148.466 819.311 147.934L820.053 147.612ZM821.593 147.038C821.971 147.57 822.517 148.438 822.783 148.97L822.027 149.306C821.719 148.69 821.257 147.892 820.865 147.36L821.593 147.038ZM831.379 148.074C831.281 147.78 831.155 147.346 831.029 146.982L832.219 146.828C832.331 147.486 832.583 148.41 832.863 149.222C833.871 149.082 835.033 148.858 835.985 148.536L836.111 149.628C835.257 149.88 834.151 150.076 833.213 150.202C833.647 151.28 834.263 152.358 834.781 153.086C834.977 153.352 835.187 153.59 835.397 153.828L834.823 154.612C834.151 154.458 832.457 154.304 831.449 154.234L831.533 153.296C832.317 153.366 833.353 153.45 833.857 153.506C833.311 152.708 832.639 151.476 832.163 150.314C830.497 150.468 828.481 150.454 826.283 150.286L826.255 149.166C828.313 149.418 830.259 149.446 831.785 149.334C831.617 148.816 831.477 148.396 831.379 148.074ZM828.411 153.632C827.991 154.304 827.753 154.906 827.753 155.578C827.753 156.908 828.971 157.496 831.043 157.51C832.471 157.524 833.675 157.384 834.655 157.16L834.599 158.28C833.731 158.434 832.541 158.588 830.987 158.588C828.327 158.574 826.647 157.608 826.647 155.704C826.647 154.934 826.927 154.206 827.319 153.38L828.411 153.632ZM841.725 148.228C841.669 148.564 841.613 149.222 841.613 149.586C841.599 150.468 841.613 151.742 841.711 152.904C841.935 155.242 842.621 156.796 843.615 156.796C844.329 156.796 844.987 155.34 845.351 153.94L846.233 154.934C845.393 157.314 844.539 158.126 843.601 158.126C842.271 158.126 840.997 156.81 840.619 153.184C840.493 151.966 840.465 150.258 840.465 149.446C840.465 149.124 840.451 148.536 840.367 148.2L841.725 148.228ZM849.019 148.62C850.265 150.244 851.273 153.212 851.483 155.578L850.363 156.04C850.111 153.506 849.271 150.636 847.927 148.998L849.019 148.62ZM855.879 154.584C857.069 154.584 858.021 155.536 858.021 156.712C858.021 157.902 857.069 158.854 855.879 158.854C854.717 158.854 853.751 157.902 853.751 156.712C853.751 155.536 854.717 154.584 855.879 154.584ZM855.879 158.14C856.677 158.14 857.307 157.51 857.307 156.712C857.307 155.942 856.677 155.298 855.879 155.298C855.109 155.298 854.465 155.942 854.465 156.712C854.465 157.51 855.109 158.14 855.879 158.14Z" fill="#1A1A1A"/>
<rect x="56.5" y="222.5" width="1919" height="821" fill="#F8F8FB"/>
<rect x="56.5" y="222.5" width="1919" height="821" stroke="#E6E6E6"/>
<rect x="56" y="254" width="352" height="96" fill="#CCCCCC"/>
<rect x="440" y="254" width="1504" height="96" fill="#CCCCCC"/>
<rect x="88" y="386" width="1504" height="96" fill="#CCCCCC"/>
<rect x="1624" y="386" width="352" height="96" fill="#CCCCCC"/>
<rect x="56" y="518" width="352" height="96" fill="#CCCCCC"/>
<rect x="440" y="518" width="1152" height="96" fill="#CCCCCC"/>
<rect x="1624" y="518" width="352" height="96" fill="#CCCCCC"/>
<rect x="88" y="650" width="1856" height="96" fill="#CCCCCC"/>
<rect x="88" y="782" width="597.333" height="96" fill="#CCCCCC"/>
<rect x="717.333" y="782" width="597.333" height="96" fill="#CCCCCC"/>
<rect x="1346.67" y="782" width="597.333" height="96" fill="#CCCCCC"/>
<rect x="88" y="914" width="440" height="96" fill="#CCCCCC"/>
<rect x="560" y="914" width="440" height="96" fill="#CCCCCC"/>
<rect x="1032" y="914" width="440" height="96" fill="#CCCCCC"/>
<rect x="1504" y="914" width="440" height="96" fill="#CCCCCC"/>
</svg>
