<svg width="1280" height="340" viewBox="0 0 1280 340" fill="none" xmlns="http://www.w3.org/2000/svg">
<rect width="1280" height="340" fill="white"/>
<path opacity="0.9" d="M58.408 127.396C58.87 127.452 59.486 127.48 59.934 127.48H66.836C67.172 127.48 67.592 127.466 67.872 127.452C67.858 127.774 67.83 128.208 67.83 128.544V135.768C67.83 136.272 67.872 136.902 67.886 137.126H66.626C66.64 136.972 66.64 136.678 66.654 136.342H59.808C59.234 136.342 58.604 136.37 58.226 136.398V135.124C58.59 135.166 59.192 135.208 59.78 135.208H66.654V128.6H59.948C59.43 128.6 58.73 128.628 58.408 128.642V127.396ZM73.738 126.738C74.732 127.396 76.524 128.852 77.308 129.636L76.426 130.518C75.726 129.79 73.976 128.292 72.94 127.592L73.738 126.738ZM72.534 136.118C74.984 135.754 76.804 134.9 78.134 134.074C80.29 132.716 81.998 130.644 82.81 128.922L83.482 130.112C82.53 131.862 80.892 133.766 78.778 135.096C77.378 135.978 75.614 136.832 73.276 137.266L72.534 136.118ZM95.69 126.654C95.69 127.158 96.082 127.55 96.572 127.55C97.076 127.55 97.482 127.158 97.482 126.654C97.482 126.164 97.076 125.758 96.572 125.758C96.082 125.758 95.69 126.164 95.69 126.654ZM95.046 126.654C95.046 125.814 95.732 125.114 96.572 125.114C97.426 125.114 98.112 125.814 98.112 126.654C98.112 127.508 97.426 128.18 96.572 128.18C95.732 128.18 95.046 127.508 95.046 126.654ZM92.708 126.206C92.666 126.402 92.624 126.906 92.624 127.214V128.642H96.32C96.656 128.642 97.118 128.614 97.468 128.572V129.734C97.09 129.706 96.67 129.706 96.334 129.706H92.624V136.482C92.624 137.224 92.26 137.602 91.42 137.602C90.832 137.602 89.992 137.56 89.432 137.504L89.334 136.384C89.936 136.496 90.58 136.552 90.944 136.552C91.322 136.552 91.49 136.384 91.49 136.02V129.706H87.598C87.178 129.706 86.786 129.72 86.408 129.748V128.572C86.8 128.614 87.15 128.642 87.598 128.642H91.49V127.2C91.49 126.892 91.448 126.416 91.392 126.206H92.708ZM95.48 131.4C96.222 132.296 97.342 134.046 97.902 135.054L96.866 135.628C96.32 134.536 95.27 132.786 94.528 131.904L95.48 131.4ZM89.628 131.862C89.04 133.066 87.724 134.844 86.94 135.698L85.974 135.054C86.898 134.186 88.102 132.52 88.648 131.386L89.628 131.862ZM101.108 130.938C101.528 130.966 102.27 131.008 103.054 131.008H110.726C111.426 131.008 111.93 130.966 112.238 130.938V132.31C111.958 132.296 111.37 132.24 110.74 132.24H103.054C102.284 132.24 101.542 132.268 101.108 132.31V130.938ZM121.982 125.786C121.926 126.094 121.898 126.626 121.898 127.018V127.914H124.208C124.53 127.914 124.852 127.9 125.09 127.83L125.818 128.53C125.566 128.796 125.258 129.118 125.034 129.37C124.334 130.21 123.158 131.386 121.87 132.282C121.87 133.43 121.856 135.11 121.856 136.048C121.856 136.538 121.898 137.154 121.926 137.588H120.652C120.694 137.182 120.736 136.538 120.736 136.048C120.736 135.236 120.75 133.948 120.75 132.996C119.448 133.752 117.908 134.368 116.018 134.942L115.346 133.906C117.992 133.276 119.742 132.352 121.016 131.526C122.262 130.728 123.382 129.622 123.858 128.964H118.048C117.558 128.964 116.76 128.992 116.326 129.02V127.844C116.774 127.9 117.558 127.914 118.02 127.914H120.764V127.018C120.764 126.626 120.75 126.094 120.694 125.786H121.982ZM126.476 135.124C125.258 134.228 124.418 133.668 123.102 132.968L123.83 132.142C125.146 132.842 125.902 133.29 127.204 134.172L126.476 135.124ZM131.978 126.738C132.972 127.396 134.764 128.852 135.548 129.636L134.666 130.518C133.966 129.79 132.216 128.292 131.18 127.592L131.978 126.738ZM130.774 136.118C133.224 135.754 135.044 134.9 136.374 134.074C138.53 132.716 140.238 130.644 141.05 128.922L141.722 130.112C140.77 131.862 139.132 133.766 137.018 135.096C135.618 135.978 133.854 136.832 131.516 137.266L130.774 136.118ZM148.078 135.768V127.62C148.078 127.228 148.05 126.598 147.966 126.164H149.338C149.296 126.598 149.24 127.2 149.24 127.62C149.24 128.208 149.24 129.02 149.24 129.902C151.088 130.462 153.748 131.47 155.218 132.212L154.742 133.402C153.216 132.576 150.794 131.638 149.24 131.148C149.254 133.248 149.254 135.362 149.254 135.768C149.254 136.202 149.282 136.958 149.338 137.42H147.98C148.05 136.972 148.078 136.286 148.078 135.768ZM170.632 132.1C170.632 135.04 168.7 137 165.382 137.434L164.724 136.398C165.172 136.356 165.606 136.286 165.928 136.216C167.72 135.81 169.484 134.48 169.484 132.058C169.484 129.944 168.126 128.194 165.746 127.998C165.564 129.3 165.298 130.728 164.906 132.03C164.052 134.914 162.946 136.384 161.644 136.384C160.398 136.384 159.152 134.956 159.152 132.646C159.152 129.608 161.854 126.948 165.27 126.948C168.546 126.948 170.632 129.258 170.632 132.1ZM160.244 132.548C160.244 134.312 161.056 135.096 161.686 135.096C162.344 135.096 163.086 134.158 163.8 131.792C164.15 130.63 164.43 129.3 164.584 128.012C161.896 128.348 160.244 130.644 160.244 132.548ZM178.402 132.954L177.772 133.78C177.548 133.388 176.974 132.618 176.498 132.044V138.036H175.49V131.848C174.916 133.262 174.174 134.662 173.46 135.516C173.362 135.222 173.11 134.816 172.942 134.564C173.824 133.584 174.79 131.778 175.35 130.182H173.208V129.202H175.49V127.074C174.804 127.214 174.09 127.326 173.446 127.424C173.39 127.186 173.25 126.85 173.124 126.612C174.692 126.36 176.526 125.954 177.548 125.492L178.276 126.276C177.772 126.486 177.156 126.682 176.498 126.836V129.202H178.248V130.182H176.498V131.036C176.932 131.4 178.122 132.632 178.402 132.954ZM179.48 133.206H181.44V132.086H179.48V133.206ZM179.48 130.308V131.4H181.44V130.308H179.48ZM184.45 130.308H182.434V131.4H184.45V130.308ZM184.45 133.206V132.086H182.434V133.206H184.45ZM182.434 136.916H185.934V137.784H177.604V136.916H181.44V135.824H178.402V134.984H181.44V133.99H178.556V129.524H181.44V128.586H177.968V127.732H181.44V126.794C180.432 126.864 179.396 126.906 178.458 126.934C178.444 126.71 178.318 126.346 178.22 126.15C180.544 126.052 183.442 125.814 185.01 125.464L185.64 126.248C184.758 126.444 183.638 126.598 182.434 126.71V127.732H185.668V128.586H182.434V129.524H185.388V133.99H182.434V134.984H185.458V135.824H182.434V136.916ZM198.94 130.322V128.978H195.16V130.322H198.94ZM198.94 132.436V131.078H195.16V132.436H198.94ZM198.94 134.564V133.206H195.16V134.564H198.94ZM194.222 128.152H196.098C196.21 127.746 196.336 127.27 196.42 126.85H193.76V125.94H200.354V126.85H197.54C197.386 127.298 197.246 127.746 197.092 128.152H199.92V135.39H194.222V128.152ZM192.64 125.576L193.522 125.856C193.2 126.472 192.85 127.116 192.556 127.55L191.842 127.284C192.122 126.822 192.458 126.08 192.64 125.576ZM189.616 127.214L188.874 127.55C188.748 127.074 188.426 126.402 188.09 125.898L188.818 125.604C189.168 126.108 189.518 126.78 189.616 127.214ZM190.274 131.582V129.51C189.672 130.336 188.916 131.106 188.202 131.554C188.076 131.344 187.782 131.036 187.586 130.868C188.454 130.42 189.364 129.524 189.966 128.614H187.838V127.76H190.274V125.436H191.198V127.76H193.676V128.614H191.198V128.796C191.744 129.09 193.382 130.154 193.76 130.434L193.186 131.19C192.822 130.826 191.884 130.126 191.198 129.636V131.582H190.274ZM193.592 136.44L192.906 137.14C192.444 136.678 191.604 136.006 190.834 135.432C190.442 136.314 189.658 137.154 188.146 137.826C188.034 137.588 187.754 137.224 187.572 137.042C189.602 136.16 190.106 135.012 190.232 133.948H187.838V133.038H190.26V131.876H191.212V133.038H193.746V133.948H191.184C191.17 134.144 191.142 134.354 191.114 134.55C191.954 135.138 193.032 135.908 193.592 136.44ZM195.51 135.656L196.42 136.174C195.692 136.902 194.516 137.644 193.494 138.064C193.326 137.868 193.018 137.546 192.808 137.364C193.816 136.972 194.964 136.258 195.51 135.656ZM197.54 136.244L198.296 135.726C199.108 136.23 200.144 136.972 200.676 137.49L199.864 138.064C199.374 137.56 198.352 136.776 197.54 136.244ZM209.37 128.11C208.824 127.578 207.914 126.724 207.312 126.276L208.11 125.702C208.572 126.052 209.636 126.934 210.168 127.48L209.37 128.11ZM204.918 126.906C205.016 127.13 205.254 127.592 205.408 127.844C205.66 128.306 205.94 128.866 206.22 129.454C207.914 128.712 209.804 127.956 211.26 127.956C213.192 127.956 214.382 129.062 214.382 130.588C214.382 132.198 213.346 133.416 211.162 133.416C210.378 133.416 209.594 133.22 209.062 133.024L209.104 131.932C209.65 132.17 210.35 132.38 211.092 132.38C212.618 132.38 213.262 131.54 213.262 130.532C213.262 129.706 212.604 128.95 211.232 128.95C210 128.95 208.278 129.608 206.654 130.364C206.836 130.756 207.018 131.148 207.186 131.526C207.956 133.262 208.838 135.866 209.314 137.406L208.11 137.728C207.676 136.076 207.004 133.822 206.206 131.988C206.024 131.582 205.856 131.19 205.674 130.826C204.596 131.344 203.616 131.848 202.972 132.142L202.44 130.994C202.846 130.896 203.336 130.714 203.588 130.616C204.064 130.434 204.638 130.182 205.254 129.902C204.96 129.286 204.694 128.754 204.456 128.362C204.274 128.082 203.994 127.648 203.77 127.368L204.918 126.906ZM223.748 132.814H227.514V130.49H223.748V132.814ZM219.31 132.814H222.712V130.49H219.366V131.316C219.366 131.778 219.352 132.296 219.31 132.814ZM222.712 127.27H219.366V129.51H222.712V127.27ZM227.514 129.51V127.27H223.748V129.51H227.514ZM228.536 126.276V136.664C228.536 137.336 228.354 137.644 227.906 137.826C227.43 137.994 226.618 138.008 225.302 137.994C225.26 137.714 225.092 137.266 224.952 136.986C225.932 137.028 226.884 137.014 227.136 137.014C227.416 137 227.514 136.916 227.514 136.65V133.808H223.748V137.938H222.712V133.808H219.212C219.002 135.362 218.526 136.958 217.462 138.148C217.308 137.938 216.888 137.588 216.664 137.462C218.204 135.726 218.344 133.262 218.344 131.316V126.276H228.536ZM238.77 125.324H239.778C240.87 126.738 242.578 128.054 244.16 128.754C243.936 129.006 243.684 129.398 243.544 129.692C242.046 128.88 240.282 127.522 239.33 126.262C238.462 127.466 236.824 128.88 235.172 129.734C235.06 129.496 234.808 129.09 234.626 128.88C236.292 128.054 237.958 126.626 238.77 125.324ZM243.754 130.994V131.876H239.89V135.068C239.89 135.586 239.792 135.838 239.428 135.978C239.05 136.118 238.504 136.132 237.622 136.132C237.58 135.866 237.454 135.516 237.342 135.25C237.944 135.264 238.49 135.264 238.658 135.25C238.826 135.25 238.882 135.208 238.882 135.054V131.876H235.242V130.994H238.882V129.734H236.838V128.866H241.976V129.734H239.89V130.994H243.754ZM243.726 135.04L242.858 135.474C242.522 134.732 241.696 133.626 240.954 132.828L241.766 132.436C242.522 133.206 243.362 134.298 243.726 135.04ZM236.684 132.478L237.608 132.702C237.118 133.766 236.334 134.83 235.592 135.516C235.41 135.362 235.018 135.11 234.78 134.984C235.55 134.34 236.264 133.402 236.684 132.478ZM234.626 127.858L233.828 128.53C233.394 127.844 232.442 126.878 231.574 126.234L232.344 125.618C233.212 126.248 234.192 127.172 234.626 127.858ZM234.234 130.77V135.236C234.92 136.272 236.166 136.734 237.846 136.804C239.372 136.86 242.508 136.818 244.16 136.706C244.034 136.958 243.866 137.448 243.81 137.77C242.284 137.826 239.386 137.854 237.846 137.798C235.984 137.728 234.682 137.238 233.786 136.146C233.156 136.734 232.498 137.336 231.798 137.938L231.238 136.902C231.868 136.468 232.582 135.866 233.226 135.292V131.75H231.448V130.77H234.234ZM251.664 127.55C253.19 127.802 256.018 127.746 257.418 127.536V128.67C255.92 128.838 253.204 128.838 251.664 128.67V127.55ZM252.21 133.248C252.07 133.766 252 134.158 252 134.536C252 135.18 252.462 135.796 254.366 135.796C255.626 135.796 256.704 135.684 257.838 135.432L257.866 136.608C256.984 136.776 255.808 136.902 254.366 136.902C252.014 136.902 250.964 136.118 250.964 134.802C250.964 134.326 251.048 133.836 251.202 133.15L252.21 133.248ZM248.99 126.472C248.92 126.71 248.794 127.158 248.738 127.41C248.472 128.698 248.038 131.204 248.038 132.772C248.038 133.458 248.08 134.046 248.164 134.732C248.402 134.102 248.738 133.262 248.976 132.688L249.564 133.136C249.2 134.13 248.696 135.614 248.57 136.272C248.528 136.482 248.486 136.748 248.5 136.902C248.514 137.056 248.528 137.252 248.542 137.392L247.534 137.462C247.254 136.468 247.016 134.858 247.016 132.968C247.016 130.91 247.478 128.516 247.646 127.354C247.702 127.032 247.744 126.668 247.744 126.36L248.99 126.472ZM262.724 135.39C262.724 136.16 263.508 136.594 264.852 136.594C265.874 136.594 266.378 136.118 266.378 135.152C266.378 134.928 266.364 134.62 266.364 134.256C265.916 134.158 265.454 134.116 264.992 134.116C263.55 134.116 262.724 134.62 262.724 135.39ZM267.414 126.01C267.372 126.304 267.33 126.976 267.316 127.396C267.302 127.774 267.316 128.278 267.316 128.824C268.422 128.796 270.2 128.726 271.46 128.572L271.502 129.622C270.256 129.748 268.464 129.832 267.316 129.846C267.316 129.888 267.316 129.916 267.316 129.958C267.316 130.882 267.386 132.24 267.456 133.458C269.248 133.948 270.802 134.928 271.81 135.838L271.138 136.902C270.242 135.992 268.954 135.096 267.498 134.578C267.512 134.942 267.526 135.264 267.526 135.516C267.526 136.664 266.826 137.644 264.964 137.644C263.032 137.644 261.604 137.028 261.604 135.432C261.604 134.172 262.71 133.136 265.132 133.136C265.538 133.136 265.93 133.164 266.322 133.22C266.266 132.086 266.21 130.798 266.21 129.958C266.21 129.146 266.21 127.998 266.196 127.396C266.196 126.892 266.154 126.262 266.084 126.01H267.414ZM276.216 131.414C276.636 131.33 277.084 131.204 277.532 131.064C278.526 130.756 280.822 129.916 282.474 129.916C284.462 129.916 285.89 131.106 285.89 133.024C285.89 135.712 283.3 137.084 279.52 137.322L279.072 136.244C282.096 136.146 284.756 135.278 284.756 132.996C284.756 131.82 283.818 130.924 282.39 130.924C280.654 130.924 277.588 132.212 276.692 132.562L276.216 131.414ZM289.029 127.704C289.561 127.69 290.009 127.662 290.275 127.634C291.185 127.536 293.831 127.27 296.407 127.06C297.933 126.92 299.249 126.85 300.187 126.808V127.928C299.389 127.928 298.157 127.942 297.443 128.152C295.455 128.796 294.237 130.924 294.237 132.576C294.237 135.32 296.785 136.188 299.067 136.272L298.661 137.434C296.071 137.336 293.117 135.95 293.117 132.828C293.117 130.644 294.447 128.866 295.735 128.096C294.237 128.264 290.667 128.6 289.155 128.922L289.029 127.704ZM310.211 134.088H313.529V132.142H310.211V134.088ZM309.203 132.142H306.123C306.109 132.758 306.067 133.416 305.941 134.088H309.203V132.142ZM310.701 126.976H307.313C306.963 127.48 306.571 127.97 306.123 128.46H309.721C310.057 128.026 310.421 127.48 310.701 126.976ZM306.123 129.398V131.246H309.203V129.398H306.123ZM313.529 131.246V129.398H310.211V131.246H313.529ZM314.537 128.46V136.748C314.537 137.42 314.369 137.756 313.851 137.91C313.333 138.078 312.437 138.092 311.009 138.092C310.953 137.812 310.771 137.35 310.603 137.084C311.737 137.126 312.829 137.126 313.137 137.098C313.431 137.098 313.529 137.014 313.529 136.734V134.998H305.731C305.381 136.146 304.751 137.266 303.631 138.134C303.505 137.91 303.127 137.546 302.917 137.392C304.891 135.866 305.115 133.71 305.115 131.932V129.468C304.765 129.79 304.387 130.084 303.995 130.378C303.813 130.126 303.491 129.79 303.239 129.636C305.101 128.362 306.431 126.64 307.131 125.254L308.265 125.45C308.139 125.66 308.013 125.884 307.887 126.108H311.261L311.429 126.052L312.129 126.514C311.807 127.144 311.331 127.858 310.855 128.46H314.537ZM66.976 161.832H68.194C68.614 161.832 68.684 161.398 68.726 159.312C68.964 159.508 69.412 159.704 69.692 159.788C69.608 162.126 69.356 162.854 68.292 162.854H66.808C65.786 162.854 65.45 162.504 65.45 161.216V154.3H62.244C62.146 155.476 61.978 156.638 61.656 157.73C62.608 158.388 63.462 159.06 64.036 159.634L63.252 160.474C62.776 159.97 62.076 159.382 61.278 158.78C60.55 160.544 59.318 162.056 57.232 163.092C57.092 162.84 56.742 162.476 56.476 162.28C58.534 161.3 59.71 159.844 60.382 158.122C59.528 157.534 58.618 156.96 57.792 156.498L58.506 155.784C59.206 156.162 59.976 156.61 60.718 157.1C60.956 156.204 61.096 155.266 61.166 154.3H57.232V153.278H61.236C61.278 152.298 61.278 151.304 61.278 150.338H62.356C62.356 151.304 62.342 152.298 62.3 153.278H66.528V161.23C66.528 161.748 66.598 161.832 66.976 161.832ZM83.272 157.1C83.272 160.04 81.34 162 78.022 162.434L77.364 161.398C77.812 161.356 78.246 161.286 78.568 161.216C80.36 160.81 82.124 159.48 82.124 157.058C82.124 154.944 80.766 153.194 78.386 152.998C78.204 154.3 77.938 155.728 77.546 157.03C76.692 159.914 75.586 161.384 74.284 161.384C73.038 161.384 71.792 159.956 71.792 157.646C71.792 154.608 74.494 151.948 77.91 151.948C81.186 151.948 83.272 154.258 83.272 157.1ZM72.884 157.548C72.884 159.312 73.696 160.096 74.326 160.096C74.984 160.096 75.726 159.158 76.44 156.792C76.79 155.63 77.07 154.3 77.224 153.012C74.536 153.348 72.884 155.644 72.884 157.548ZM96.32 152.634C96.236 152.746 96.054 153.054 95.97 153.25C95.494 154.454 94.612 156.092 93.618 157.352C95.088 158.612 96.796 160.432 97.706 161.538L96.726 162.378C95.788 161.146 94.304 159.494 92.876 158.22C91.378 159.83 89.488 161.37 87.416 162.308L86.52 161.37C88.774 160.488 90.846 158.822 92.288 157.212C93.24 156.134 94.262 154.482 94.612 153.32H89.152C88.662 153.32 87.892 153.376 87.738 153.39V152.116C87.934 152.144 88.732 152.2 89.152 152.2H94.556C95.018 152.2 95.382 152.158 95.606 152.088L96.32 152.634ZM107.184 151.01C106.946 151.374 106.694 151.85 106.554 152.102C106.47 152.27 106.372 152.438 106.26 152.606H110.054C110.432 152.606 110.74 152.55 110.978 152.466L111.902 153.026C111.776 153.222 111.65 153.558 111.566 153.782C111.202 155.07 110.446 156.708 109.382 158.136C109.97 158.57 110.53 159.004 110.978 159.368L110.152 160.334C109.732 159.956 109.2 159.522 108.626 159.06C107.38 160.446 105.658 161.734 103.292 162.616L102.284 161.748C104.65 161.02 106.442 159.732 107.702 158.374C106.694 157.646 105.63 156.918 104.734 156.358L105.49 155.588C106.414 156.12 107.464 156.792 108.444 157.478C109.354 156.26 110.068 154.748 110.348 153.6H105.616C104.72 154.86 103.474 156.232 101.906 157.31L100.968 156.582C103.376 155.084 104.804 152.984 105.462 151.71C105.602 151.458 105.826 150.968 105.91 150.604L107.184 151.01ZM115.444 156.946C117.866 156.288 120.008 155.308 121.562 154.328C123.018 153.418 124.418 152.2 125.384 151.038L126.322 151.906C125.258 153.012 123.97 154.076 122.542 155.028V160.936C122.542 161.468 122.57 162.154 122.626 162.434H121.254C121.296 162.168 121.338 161.468 121.338 160.936V155.756C119.868 156.596 117.95 157.436 116.004 158.038L115.444 156.946ZM136.136 161.706C136.192 161.482 136.234 161.202 136.234 160.922V152.536C136.234 152.004 136.164 151.598 136.15 151.5H137.438C137.424 151.598 137.382 152.004 137.382 152.536V160.614C138.67 160.026 140.392 158.752 141.47 157.17L142.128 158.122C140.924 159.76 138.978 161.202 137.354 162C137.13 162.126 136.976 162.238 136.878 162.322L136.136 161.706ZM129.724 161.636C130.9 160.796 131.74 159.55 132.16 158.192C132.566 156.918 132.58 154.118 132.58 152.564C132.58 152.144 132.538 151.836 132.482 151.542H133.77C133.756 151.71 133.7 152.13 133.7 152.55C133.7 154.104 133.644 157.1 133.266 158.5C132.846 159.998 131.95 161.37 130.774 162.35L129.724 161.636ZM149.8 150.926C149.716 151.346 149.604 151.892 149.394 152.55C150.822 152.48 152.348 152.354 153.664 152.116L153.65 153.152C152.264 153.376 150.528 153.488 149.002 153.544C148.68 154.286 148.218 155.084 147.742 155.714C148.274 155.378 149.086 155.196 149.688 155.196C150.598 155.196 151.34 155.644 151.564 156.456C152.516 155.994 153.37 155.658 154.098 155.322C154.518 155.14 154.854 154.986 155.246 154.776L155.708 155.826C155.344 155.924 154.84 156.12 154.462 156.274C153.678 156.568 152.684 156.974 151.62 157.478C151.634 158.29 151.648 159.48 151.662 160.166H150.584C150.612 159.634 150.626 158.724 150.626 157.982C149.324 158.668 148.414 159.41 148.414 160.334C148.414 161.426 149.506 161.594 150.948 161.594C152.04 161.594 153.538 161.468 154.77 161.258L154.742 162.378C153.678 162.518 152.124 162.63 150.906 162.63C148.904 162.63 147.294 162.196 147.294 160.488C147.294 158.836 148.96 157.8 150.598 156.946C150.458 156.344 149.954 156.078 149.324 156.078C148.442 156.078 147.546 156.512 146.916 157.1C146.51 157.478 146.118 157.996 145.642 158.556L144.69 157.856C146.454 156.148 147.392 154.706 147.924 153.572C147.714 153.572 147.504 153.572 147.308 153.572C146.706 153.572 145.782 153.544 145.012 153.488V152.438C145.754 152.536 146.734 152.592 147.378 152.592C147.672 152.592 147.994 152.592 148.302 152.578C148.498 151.976 148.624 151.346 148.652 150.828L149.8 150.926ZM161.742 162.784C160.846 161.678 159.642 160.474 158.648 159.662L159.558 158.864C160.566 159.676 161.826 160.95 162.694 161.972L161.742 162.784ZM178.78 159.004L179.564 158.528C180.25 159.186 181.02 160.11 181.342 160.754L180.502 161.286C180.208 160.642 179.452 159.69 178.78 159.004ZM185.85 155.49H184.128V157.17H185.766V158.122H184.128V161.79C184.128 162.406 183.988 162.714 183.554 162.896C183.12 163.05 182.378 163.064 181.3 163.064C181.258 162.77 181.132 162.322 180.964 162.028C181.818 162.056 182.574 162.056 182.812 162.042C183.05 162.028 183.106 161.986 183.106 161.776V158.122H178.052V157.366L176.582 157.828V163.064H175.63V158.122L173.306 158.836L173.026 157.856C173.74 157.66 174.65 157.408 175.63 157.114V154.09H174.342C174.174 154.86 173.964 155.574 173.712 156.148C173.558 156.022 173.152 155.784 172.942 155.686C173.46 154.51 173.726 152.732 173.894 151.038L174.804 151.192C174.734 151.836 174.636 152.48 174.538 153.11H175.63V150.296H176.582V153.11H178.024V154.09H176.582V156.834L178.206 156.344L178.332 157.17H183.106V155.49H177.814V154.524H181.37V152.746H178.64V151.794H181.37V150.282H182.406V151.794H185.206V152.746H182.406V154.524H185.85V155.49ZM189.252 152.872V154.916H188.23V151.892H193.48V150.296H194.558V151.892H199.85V154.916H198.786V152.872H189.252ZM194.558 158.822V161.678C195.244 161.804 196.014 161.846 196.826 161.846C197.33 161.846 199.738 161.846 200.41 161.832C200.242 162.084 200.06 162.574 200.018 162.882H196.77C193.872 162.882 191.786 162.378 190.512 160.012C190.022 161.3 189.336 162.336 188.426 163.134C188.258 162.952 187.824 162.588 187.572 162.434C189.126 161.23 189.882 159.242 190.19 156.736L191.254 156.834C191.17 157.492 191.058 158.108 190.918 158.696C191.45 160.166 192.346 160.964 193.494 161.398V155.532H190.022V154.552H198.128V155.532H194.558V157.856H198.702V158.822H194.558ZM214.312 157.1C214.312 160.04 212.38 162 209.062 162.434L208.404 161.398C208.852 161.356 209.286 161.286 209.608 161.216C211.4 160.81 213.164 159.48 213.164 157.058C213.164 154.944 211.806 153.194 209.426 152.998C209.244 154.3 208.978 155.728 208.586 157.03C207.732 159.914 206.626 161.384 205.324 161.384C204.078 161.384 202.832 159.956 202.832 157.646C202.832 154.608 205.534 151.948 208.95 151.948C212.226 151.948 214.312 154.258 214.312 157.1ZM203.924 157.548C203.924 159.312 204.736 160.096 205.366 160.096C206.024 160.096 206.766 159.158 207.48 156.792C207.83 155.63 208.11 154.3 208.264 153.012C205.576 153.348 203.924 155.644 203.924 157.548ZM223.972 159.088H227.29V157.142H223.972V159.088ZM222.964 157.142H219.884C219.87 157.758 219.828 158.416 219.702 159.088H222.964V157.142ZM224.462 151.976H221.074C220.724 152.48 220.332 152.97 219.884 153.46H223.482C223.818 153.026 224.182 152.48 224.462 151.976ZM219.884 154.398V156.246H222.964V154.398H219.884ZM227.29 156.246V154.398H223.972V156.246H227.29ZM228.298 153.46V161.748C228.298 162.42 228.13 162.756 227.612 162.91C227.094 163.078 226.198 163.092 224.77 163.092C224.714 162.812 224.532 162.35 224.364 162.084C225.498 162.126 226.59 162.126 226.898 162.098C227.192 162.098 227.29 162.014 227.29 161.734V159.998H219.492C219.142 161.146 218.512 162.266 217.392 163.134C217.266 162.91 216.888 162.546 216.678 162.392C218.652 160.866 218.876 158.71 218.876 156.932V154.468C218.526 154.79 218.148 155.084 217.756 155.378C217.574 155.126 217.252 154.79 217 154.636C218.862 153.362 220.192 151.64 220.892 150.254L222.026 150.45C221.9 150.66 221.774 150.884 221.648 151.108H225.022L225.19 151.052L225.89 151.514C225.568 152.144 225.092 152.858 224.616 153.46H228.298ZM237.104 152.55C238.63 152.802 241.458 152.746 242.858 152.536V153.67C241.36 153.838 238.644 153.838 237.104 153.67V152.55ZM237.65 158.248C237.51 158.766 237.44 159.158 237.44 159.536C237.44 160.18 237.902 160.796 239.806 160.796C241.066 160.796 242.144 160.684 243.278 160.432L243.306 161.608C242.424 161.776 241.248 161.902 239.806 161.902C237.454 161.902 236.404 161.118 236.404 159.802C236.404 159.326 236.488 158.836 236.642 158.15L237.65 158.248ZM234.43 151.472C234.36 151.71 234.234 152.158 234.178 152.41C233.912 153.698 233.478 156.204 233.478 157.772C233.478 158.458 233.52 159.046 233.604 159.732C233.842 159.102 234.178 158.262 234.416 157.688L235.004 158.136C234.64 159.13 234.136 160.614 234.01 161.272C233.968 161.482 233.926 161.748 233.94 161.902C233.954 162.056 233.968 162.252 233.982 162.392L232.974 162.462C232.694 161.468 232.456 159.858 232.456 157.968C232.456 155.91 232.918 153.516 233.086 152.354C233.142 152.032 233.184 151.668 233.184 151.36L234.43 151.472ZM252.672 158.85C252.546 159.312 252.476 159.746 252.476 160.11C252.476 160.768 252.84 161.412 254.842 161.412C255.752 161.412 256.718 161.314 257.572 161.132L257.53 162.266C256.774 162.378 255.85 162.476 254.828 162.476C252.616 162.476 251.412 161.79 251.412 160.404C251.412 159.872 251.496 159.34 251.622 158.752L252.672 158.85ZM251.062 151.192C250.978 151.486 250.866 152.018 250.81 152.298C250.754 152.606 250.67 152.956 250.6 153.334C251.51 153.222 252.434 153.054 253.288 152.844V153.936C252.378 154.146 251.356 154.3 250.376 154.412C250.236 155.028 250.096 155.672 249.928 156.288C249.424 158.276 248.472 161.174 247.744 162.7L246.512 162.28C247.352 160.838 248.346 157.996 248.864 156.022C248.99 155.56 249.116 155.028 249.228 154.524C248.766 154.552 248.332 154.566 247.94 154.566C247.324 154.566 246.82 154.538 246.316 154.51L246.274 153.418C246.946 153.502 247.45 153.516 247.954 153.516C248.416 153.516 248.92 153.488 249.466 153.446C249.564 152.956 249.634 152.508 249.676 152.228C249.732 151.836 249.746 151.36 249.718 151.08L251.062 151.192ZM252.378 155.448C253.12 155.378 254.044 155.322 254.94 155.322C255.766 155.322 256.606 155.364 257.362 155.448L257.334 156.512C256.62 156.414 255.794 156.344 254.982 156.344C254.1 156.344 253.246 156.4 252.378 156.498V155.448ZM255.85 151.612C256.214 152.116 256.718 152.97 256.998 153.544L256.242 153.88C255.962 153.306 255.486 152.466 255.108 151.934L255.85 151.612ZM257.39 151.038C257.768 151.57 258.314 152.438 258.58 152.97L257.824 153.306C257.516 152.69 257.054 151.892 256.662 151.36L257.39 151.038ZM270.494 151.08C270.466 151.318 270.452 151.598 270.452 151.906C270.438 152.214 270.452 153.152 270.466 154.02C271.292 153.95 272.09 153.852 272.748 153.698V154.846C272.104 154.944 271.32 155.028 270.48 155.084C270.48 155.28 270.48 155.448 270.48 155.574C270.48 158.794 270.48 161.076 267.512 162.826L266.49 162.028C266.938 161.846 267.512 161.496 267.848 161.16C269.346 159.844 269.43 158.262 269.43 155.574C269.43 155.448 269.43 155.308 269.43 155.14C268.828 155.168 268.226 155.182 267.652 155.182C266.98 155.182 265.986 155.14 265.384 155.098V153.978C265.986 154.076 266.882 154.132 267.638 154.132C268.212 154.132 268.814 154.118 269.402 154.09C269.388 153.208 269.346 152.27 269.318 151.92C269.29 151.598 269.234 151.304 269.192 151.08H270.494ZM263.41 151.29C263.34 151.556 263.242 151.934 263.172 152.2C262.724 154.23 262.248 157.296 262.78 159.592C262.976 159.004 263.27 158.15 263.536 157.45L264.138 157.814C263.802 158.794 263.382 160.222 263.228 160.908C263.172 161.118 263.144 161.384 263.158 161.538C263.172 161.678 263.186 161.874 263.2 162.014L262.248 162.126C261.968 161.272 261.506 159.452 261.506 157.688C261.506 155.42 261.87 153.264 262.038 152.102C262.094 151.78 262.108 151.416 262.108 151.164L263.41 151.29ZM277.522 155.448H280.126C280.126 155.448 280.126 155.784 280.112 155.924C280.014 160.558 279.93 162.126 279.58 162.588C279.356 162.896 279.132 162.994 278.768 163.036C278.432 163.078 277.858 163.064 277.284 163.036C277.256 162.77 277.172 162.364 277.018 162.112C277.592 162.168 278.11 162.168 278.306 162.168C278.516 162.168 278.628 162.14 278.74 161.972C278.978 161.65 279.062 160.292 279.146 156.4H277.466C277.298 159.06 276.864 161.482 275.688 163.064C275.52 162.84 275.184 162.532 274.904 162.378C276.36 160.446 276.528 156.974 276.584 153.53H275.058V152.564H277.522V150.31H278.502V152.564H280.938V153.53H277.578C277.564 154.174 277.55 154.818 277.522 155.448ZM287.714 153.194H282.324C281.932 154.062 281.484 154.832 280.966 155.448C280.798 155.266 280.392 154.888 280.168 154.72C281.12 153.67 281.834 152.004 282.226 150.282L283.234 150.492C283.094 151.094 282.912 151.682 282.716 152.242H287.714V153.194ZM283.458 162.112H286.174C286.79 162.112 286.902 161.846 286.958 160.502C287.196 160.656 287.56 160.824 287.84 160.88C287.714 162.532 287.406 162.994 286.23 162.994H283.388C282.002 162.994 281.624 162.686 281.624 161.454V158.024L280.784 158.416L280.392 157.562L281.624 156.988V154.804H282.562V156.54L283.878 155.924V153.712H284.774V155.504L286.314 154.79L286.384 154.72L286.552 154.594L287.21 154.832L287.168 155C287.168 156.988 287.14 158.752 287.084 159.144C287.042 159.592 286.818 159.816 286.454 159.9C286.146 159.984 285.726 159.998 285.404 159.984C285.376 159.732 285.292 159.396 285.18 159.172C285.446 159.2 285.796 159.186 285.908 159.186C286.076 159.186 286.16 159.158 286.202 158.92C286.244 158.71 286.272 157.478 286.272 155.812L284.774 156.526V160.712H283.878V156.946L282.562 157.576V161.468C282.562 162 282.688 162.112 283.458 162.112ZM297.738 150.912C297.71 151.066 297.682 151.612 297.668 151.794C297.668 152.004 297.654 152.326 297.654 152.704C297.724 152.704 297.794 152.704 297.864 152.704C299.572 152.704 301.294 152.718 301.966 152.718L301.952 153.754C301.168 153.712 299.894 153.684 297.85 153.684C297.78 153.684 297.724 153.684 297.654 153.684C297.654 154.482 297.668 155.35 297.682 155.994C297.976 156.47 298.13 157.086 298.13 157.786C298.13 159.676 297.206 161.776 293.944 162.756L293.006 161.832C294.868 161.412 296.156 160.628 296.716 159.354C296.38 159.606 295.974 159.732 295.498 159.732C294.322 159.732 293.202 158.92 293.202 157.394C293.202 156.008 294.336 154.958 295.666 154.958C296.016 154.958 296.324 155.014 296.604 155.112C296.604 154.692 296.604 154.188 296.59 153.698C294.462 153.712 292.082 153.81 290.332 153.936L290.304 152.858C291.858 152.83 294.49 152.746 296.576 152.718C296.576 152.326 296.562 151.99 296.548 151.794C296.534 151.43 296.478 151.024 296.464 150.912H297.738ZM294.252 157.38C294.252 158.248 294.896 158.766 295.68 158.766C296.506 158.766 297.038 158.108 296.912 156.778C296.688 156.162 296.212 155.896 295.666 155.896C294.938 155.896 294.252 156.47 294.252 157.38ZM306.404 160.39C306.404 161.16 307.188 161.594 308.532 161.594C309.554 161.594 310.058 161.118 310.058 160.152C310.058 159.928 310.044 159.62 310.044 159.256C309.596 159.158 309.134 159.116 308.672 159.116C307.23 159.116 306.404 159.62 306.404 160.39ZM311.094 151.01C311.052 151.304 311.01 151.976 310.996 152.396C310.982 152.774 310.996 153.278 310.996 153.824C312.102 153.796 313.88 153.726 315.14 153.572L315.182 154.622C313.936 154.748 312.144 154.832 310.996 154.846C310.996 154.888 310.996 154.916 310.996 154.958C310.996 155.882 311.066 157.24 311.136 158.458C312.928 158.948 314.482 159.928 315.49 160.838L314.818 161.902C313.922 160.992 312.634 160.096 311.178 159.578C311.192 159.942 311.206 160.264 311.206 160.516C311.206 161.664 310.506 162.644 308.644 162.644C306.712 162.644 305.284 162.028 305.284 160.432C305.284 159.172 306.39 158.136 308.812 158.136C309.218 158.136 309.61 158.164 310.002 158.22C309.946 157.086 309.89 155.798 309.89 154.958C309.89 154.146 309.89 152.998 309.876 152.396C309.876 151.892 309.834 151.262 309.764 151.01H311.094ZM66.08 182.338C66.08 181.162 65.128 180.322 63.686 180.322C62.062 180.322 60.69 180.784 59.864 181.022C59.43 181.162 59.024 181.316 58.688 181.456L58.324 180.154C58.716 180.126 59.192 180.042 59.612 179.944C60.592 179.72 62.188 179.272 63.798 179.272C65.786 179.272 67.27 180.378 67.27 182.38C67.27 185.418 64.54 187.126 60.914 187.672L60.284 186.608C63.686 186.188 66.08 184.844 66.08 182.338ZM60.2 176.038C61.74 176.388 64.778 176.668 66.15 176.682L65.982 177.76C64.428 177.662 61.6 177.382 60.018 177.102L60.2 176.038ZM76.944 177.55C78.47 177.802 81.298 177.746 82.698 177.536V178.67C81.2 178.838 78.484 178.838 76.944 178.67V177.55ZM77.49 183.248C77.35 183.766 77.28 184.158 77.28 184.536C77.28 185.18 77.742 185.796 79.646 185.796C80.906 185.796 81.984 185.684 83.118 185.432L83.146 186.608C82.264 186.776 81.088 186.902 79.646 186.902C77.294 186.902 76.244 186.118 76.244 184.802C76.244 184.326 76.328 183.836 76.482 183.15L77.49 183.248ZM74.27 176.472C74.2 176.71 74.074 177.158 74.018 177.41C73.752 178.698 73.318 181.204 73.318 182.772C73.318 183.458 73.36 184.046 73.444 184.732C73.682 184.102 74.018 183.262 74.256 182.688L74.844 183.136C74.48 184.13 73.976 185.614 73.85 186.272C73.808 186.482 73.766 186.748 73.78 186.902C73.794 187.056 73.808 187.252 73.822 187.392L72.814 187.462C72.534 186.468 72.296 184.858 72.296 182.968C72.296 180.91 72.758 178.516 72.926 177.354C72.982 177.032 73.024 176.668 73.024 176.36L74.27 176.472ZM90.468 175.772V176.612H86.436V175.772H90.468ZM90.986 177.606V178.46H85.708V177.606H90.986ZM89.586 184.074H87.248V186.426H89.586V184.074ZM90.496 183.22V187.266H87.248V187.91H86.338V183.22H90.496ZM86.366 182.184V181.344H90.51V182.184H86.366ZM86.366 180.322V179.496H90.51V180.322H86.366ZM93.072 176.654V177.424C93.072 178.628 92.764 180.098 91.28 181.078C91.126 180.896 90.734 180.532 90.524 180.392C91.868 179.538 92.078 178.376 92.078 177.41V175.73H96.446V179.146C96.446 179.454 96.488 179.51 96.712 179.51H97.412C97.664 179.51 97.72 179.328 97.748 177.984C97.944 178.152 98.35 178.306 98.616 178.362C98.532 180 98.28 180.406 97.538 180.406H96.572C95.718 180.406 95.466 180.14 95.466 179.146V176.654H93.072ZM97.104 181.26L97.776 181.526C97.3 183.248 96.474 184.606 95.41 185.656C96.32 186.342 97.398 186.86 98.63 187.168C98.406 187.378 98.098 187.798 97.958 188.05C96.684 187.672 95.578 187.098 94.626 186.328C93.59 187.126 92.386 187.686 91.112 188.064C91.014 187.812 90.748 187.364 90.552 187.154C91.742 186.846 92.876 186.342 93.856 185.614C93.03 184.76 92.372 183.738 91.896 182.562L92.82 182.282C93.226 183.304 93.842 184.214 94.626 184.984C95.41 184.242 96.04 183.332 96.46 182.254H91.168V181.302H96.922L97.104 181.26ZM101.892 177.872V179.916H100.87V176.892H106.12V175.296H107.198V176.892H112.49V179.916H111.426V177.872H101.892ZM107.198 183.822V186.678C107.884 186.804 108.654 186.846 109.466 186.846C109.97 186.846 112.378 186.846 113.05 186.832C112.882 187.084 112.7 187.574 112.658 187.882H109.41C106.512 187.882 104.426 187.378 103.152 185.012C102.662 186.3 101.976 187.336 101.066 188.134C100.898 187.952 100.464 187.588 100.212 187.434C101.766 186.23 102.522 184.242 102.83 181.736L103.894 181.834C103.81 182.492 103.698 183.108 103.558 183.696C104.09 185.166 104.986 185.964 106.134 186.398V180.532H102.662V179.552H110.768V180.532H107.198V182.856H111.342V183.822H107.198ZM123.018 175.912C122.99 176.066 122.962 176.612 122.948 176.794C122.948 177.004 122.934 177.326 122.934 177.704C123.004 177.704 123.074 177.704 123.144 177.704C124.852 177.704 126.574 177.718 127.246 177.718L127.232 178.754C126.448 178.712 125.174 178.684 123.13 178.684C123.06 178.684 123.004 178.684 122.934 178.684C122.934 179.482 122.948 180.35 122.962 180.994C123.256 181.47 123.41 182.086 123.41 182.786C123.41 184.676 122.486 186.776 119.224 187.756L118.286 186.832C120.148 186.412 121.436 185.628 121.996 184.354C121.66 184.606 121.254 184.732 120.778 184.732C119.602 184.732 118.482 183.92 118.482 182.394C118.482 181.008 119.616 179.958 120.946 179.958C121.296 179.958 121.604 180.014 121.884 180.112C121.884 179.692 121.884 179.188 121.87 178.698C119.742 178.712 117.362 178.81 115.612 178.936L115.584 177.858C117.138 177.83 119.77 177.746 121.856 177.718C121.856 177.326 121.842 176.99 121.828 176.794C121.814 176.43 121.758 176.024 121.744 175.912H123.018ZM119.532 182.38C119.532 183.248 120.176 183.766 120.96 183.766C121.786 183.766 122.318 183.108 122.192 181.778C121.968 181.162 121.492 180.896 120.946 180.896C120.218 180.896 119.532 181.47 119.532 182.38ZM133.924 185.53C133.924 186.202 134.694 186.622 135.786 186.622C136.192 186.622 136.57 186.594 136.92 186.538C136.808 185.432 136.108 184.634 135.044 184.634C134.414 184.634 133.924 185.04 133.924 185.53ZM132.132 176.682C132.454 176.724 132.846 176.738 133.126 176.738C133.854 176.738 137.186 176.626 137.928 176.556C138.348 176.528 138.544 176.486 138.684 176.444L139.328 177.256C139.076 177.438 138.796 177.62 138.544 177.83C137.844 178.362 135.94 179.986 134.848 180.896C135.492 180.672 136.164 180.602 136.794 180.602C139.118 180.602 140.784 182.002 140.784 183.892C140.784 186.146 138.936 187.602 135.968 187.602C134.064 187.602 132.902 186.776 132.902 185.614C132.902 184.648 133.756 183.794 135.058 183.794C136.808 183.794 137.746 184.942 137.914 186.272C139.034 185.838 139.664 185.026 139.664 183.878C139.664 182.506 138.348 181.47 136.528 181.47C134.19 181.47 132.944 182.464 131.166 184.27L130.368 183.444C131.53 182.492 133.322 180.994 134.134 180.308C134.918 179.664 136.668 178.194 137.382 177.564C136.64 177.592 133.84 177.718 133.098 177.76C132.79 177.774 132.468 177.802 132.174 177.844L132.132 176.682ZM154.798 177.592V176.486H150.318V177.592H154.798ZM154.798 179.44V178.32H150.318V179.44H154.798ZM155.764 175.702V180.224H149.366V175.702H155.764ZM148.176 182.576L148.4 183.5C146.986 184.214 145.46 184.956 144.284 185.516L143.878 184.494C144.41 184.27 145.068 183.99 145.782 183.668V179.286H144.144V178.306H145.782V175.394H146.748V178.306H148.26V179.286H146.748V183.22L148.176 182.576ZM156.758 181.89H151.004C150.822 182.226 150.626 182.562 150.402 182.87H156.422C156.422 182.87 156.408 183.15 156.38 183.29C156.17 186.174 155.946 187.266 155.554 187.672C155.344 187.91 155.092 187.98 154.77 188.022C154.462 188.036 153.944 188.036 153.384 188.008C153.384 187.756 153.286 187.378 153.146 187.168C153.664 187.21 154.126 187.224 154.336 187.224C154.532 187.224 154.658 187.21 154.756 187.07C154.994 186.818 155.204 185.936 155.386 183.738H154.294C153.734 185.404 152.642 187.21 151.438 188.12C151.27 187.91 150.948 187.672 150.696 187.518C151.83 186.762 152.852 185.25 153.426 183.738H152.068C151.326 185.18 149.954 186.706 148.666 187.518C148.512 187.294 148.232 187.042 147.98 186.874C149.142 186.244 150.374 184.984 151.13 183.738H149.716C149.156 184.368 148.526 184.914 147.896 185.334C147.756 185.166 147.392 184.83 147.182 184.69C148.288 184.032 149.296 183.038 149.954 181.89H147.994V181.008H156.758V181.89ZM168.14 183.444H161.714V186.566H168.14V183.444ZM160.692 188.078V182.506H169.204V188.078H168.14V187.504H161.714V188.078H160.692ZM161.42 179.832H168.434V180.756H161.42V179.832ZM164.304 175.324H165.354C166.838 177.382 169.302 179.328 171.5 180.322C171.248 180.56 170.996 180.924 170.814 181.218C168.644 180.084 166.194 178.124 164.892 176.332C163.744 178.04 161.476 180.028 159.082 181.302C158.956 181.064 158.676 180.7 158.438 180.476C160.874 179.244 163.212 177.116 164.304 175.324ZM178.682 175.996C178.584 176.374 178.542 176.668 178.5 176.976C178.458 177.34 178.388 177.83 178.304 178.418C179.382 178.418 180.334 178.362 181.146 178.236L181.118 179.286C180.222 179.37 179.41 179.412 178.276 179.412C178.248 179.412 178.206 179.412 178.178 179.412C178.08 180.238 177.968 181.12 177.87 181.946C177.968 181.946 178.052 181.946 178.136 181.946C179.088 181.946 180.068 181.904 181.048 181.764L181.02 182.828C180.096 182.926 179.228 182.968 178.276 182.968C178.108 182.968 177.94 182.968 177.772 182.968C177.716 183.528 177.688 184.018 177.688 184.354C177.688 185.712 178.444 186.552 180.04 186.552C182.168 186.552 183.526 185.614 183.526 184.172C183.526 183.234 183.022 182.184 182 181.316L183.232 181.064C184.198 182.128 184.66 183.094 184.66 184.298C184.66 186.384 182.812 187.644 180.04 187.644C178.136 187.644 176.61 186.818 176.61 184.522C176.61 184.13 176.652 183.57 176.722 182.912C175.672 182.828 174.65 182.674 173.796 182.408L173.852 181.33C174.776 181.652 175.84 181.82 176.834 181.904C176.918 181.078 177.03 180.196 177.142 179.37C176.12 179.286 175.014 179.104 174.132 178.88L174.188 177.858C175.07 178.138 176.218 178.306 177.254 178.376C177.324 177.816 177.38 177.312 177.408 176.906C177.45 176.43 177.45 176.178 177.422 175.912L178.682 175.996ZM193.648 175.912C193.578 176.094 193.522 176.346 193.48 176.542C193.424 176.836 193.368 177.2 193.312 177.606C195.09 177.522 196.798 177.34 198.226 177.004L198.24 178.04C196.77 178.292 194.908 178.488 193.2 178.572C193.13 179.118 193.088 179.706 193.046 180.294C193.83 180.07 194.684 179.944 195.398 179.944C195.58 179.944 195.748 179.944 195.916 179.958C195.93 179.916 195.944 179.874 195.958 179.818C196.028 179.608 196.098 179.244 196.112 179.006L197.218 179.286C197.134 179.482 197.008 179.86 196.938 180.084C196.938 180.098 196.924 180.112 196.924 180.14C198.674 180.602 199.71 181.89 199.71 183.43C199.71 185.446 198.38 187.182 195.132 187.7L194.53 186.762C197.064 186.496 198.632 185.194 198.632 183.374C198.632 182.31 197.918 181.358 196.616 180.98C195.818 182.968 194.684 184.522 193.494 185.53C193.606 185.936 193.718 186.314 193.83 186.664L192.822 186.972C192.738 186.734 192.668 186.468 192.598 186.188C191.828 186.65 190.988 186.958 190.218 186.958C189.294 186.958 188.566 186.384 188.566 185.194C188.566 183.388 190.134 181.554 192.066 180.658C192.094 179.958 192.164 179.258 192.22 178.6C191.926 178.614 191.646 178.614 191.366 178.614C190.764 178.614 189.672 178.558 189.098 178.516L189.07 177.466C189.56 177.55 190.778 177.648 191.38 177.648C191.702 177.648 192.01 177.648 192.332 177.634C192.374 177.228 192.416 176.864 192.444 176.556C192.458 176.304 192.486 176.052 192.472 175.884L193.648 175.912ZM193.004 181.848C193.004 182.744 193.102 183.598 193.242 184.41C194.18 183.528 195.034 182.394 195.622 180.826C195.552 180.826 195.468 180.826 195.384 180.826C194.474 180.826 193.662 181.036 193.018 181.274C193.004 181.47 193.004 181.652 193.004 181.848ZM189.63 185.012C189.63 185.586 189.896 185.88 190.428 185.88C190.974 185.88 191.646 185.642 192.36 185.138C192.164 184.144 192.024 183.01 192.024 181.96C192.024 181.876 192.024 181.792 192.024 181.708C190.666 182.478 189.63 183.864 189.63 185.012ZM206.346 175.954C206.052 176.976 205.772 178.866 205.688 179.846C206.262 178.418 207.718 176.668 209.496 176.668C211.358 176.668 212.688 178.53 212.688 181.47C212.688 185.362 210.252 187.07 206.78 187.7L206.122 186.692C209.16 186.244 211.54 184.998 211.54 181.484C211.54 179.272 210.784 177.676 209.314 177.676C207.564 177.676 205.94 180.224 205.772 182.058C205.702 182.604 205.716 183.08 205.8 183.78L204.722 183.864C204.652 183.332 204.568 182.548 204.568 181.638C204.568 180.308 204.834 178.25 205.002 177.116C205.058 176.696 205.086 176.29 205.114 175.912L206.346 175.954ZM219.744 185.53C219.744 186.174 220.304 186.664 221.69 186.664C222.488 186.664 223.174 186.412 223.174 185.446C223.174 185.208 223.16 184.872 223.16 184.508C222.726 184.41 222.264 184.368 221.802 184.368C220.472 184.368 219.744 184.886 219.744 185.53ZM224.182 175.884C224.14 176.136 224.112 176.416 224.098 176.822C224.098 177.004 224.084 177.312 224.084 177.676C225.344 177.62 226.618 177.494 227.878 177.298L227.864 178.32C226.758 178.446 225.428 178.572 224.084 178.642C224.084 179.258 224.084 179.916 224.084 180.434C224.084 180.49 224.084 180.546 224.084 180.602C225.442 180.546 226.716 180.42 227.99 180.224L227.976 181.274C226.66 181.442 225.428 181.554 224.098 181.596C224.126 182.324 224.168 183.08 224.196 183.752C226.058 184.256 227.486 185.278 228.284 185.936L227.64 186.93C226.814 186.174 225.652 185.32 224.252 184.816C224.266 185.166 224.28 185.46 224.28 185.684C224.28 186.65 223.636 187.644 221.816 187.644C219.8 187.644 218.708 186.93 218.708 185.586C218.708 184.312 219.926 183.444 221.942 183.444C222.348 183.444 222.74 183.472 223.118 183.528C223.104 182.898 223.076 182.226 223.062 181.624C222.796 181.624 222.53 181.624 222.264 181.624C221.312 181.624 219.772 181.54 218.764 181.428L218.75 180.378C219.758 180.546 221.354 180.644 222.278 180.644C222.53 180.644 222.782 180.644 223.034 180.644C223.034 180.574 223.034 180.504 223.034 180.434C223.034 179.874 223.034 179.258 223.034 178.684C222.838 178.684 222.628 178.684 222.418 178.684C221.438 178.684 219.716 178.544 218.834 178.446L218.82 177.41C219.73 177.578 221.466 177.718 222.404 177.718C222.614 177.718 222.824 177.718 223.048 177.718C223.048 177.354 223.048 177.018 223.048 176.724C223.048 176.486 223.02 176.08 222.992 175.884H224.182ZM239.498 175.912C239.47 176.066 239.442 176.612 239.428 176.794C239.428 177.004 239.414 177.326 239.414 177.704C239.484 177.704 239.554 177.704 239.624 177.704C241.332 177.704 243.054 177.718 243.726 177.718L243.712 178.754C242.928 178.712 241.654 178.684 239.61 178.684C239.54 178.684 239.484 178.684 239.414 178.684C239.414 179.482 239.428 180.35 239.442 180.994C239.736 181.47 239.89 182.086 239.89 182.786C239.89 184.676 238.966 186.776 235.704 187.756L234.766 186.832C236.628 186.412 237.916 185.628 238.476 184.354C238.14 184.606 237.734 184.732 237.258 184.732C236.082 184.732 234.962 183.92 234.962 182.394C234.962 181.008 236.096 179.958 237.426 179.958C237.776 179.958 238.084 180.014 238.364 180.112C238.364 179.692 238.364 179.188 238.35 178.698C236.222 178.712 233.842 178.81 232.092 178.936L232.064 177.858C233.618 177.83 236.25 177.746 238.336 177.718C238.336 177.326 238.322 176.99 238.308 176.794C238.294 176.43 238.238 176.024 238.224 175.912H239.498ZM236.012 182.38C236.012 183.248 236.656 183.766 237.44 183.766C238.266 183.766 238.798 183.108 238.672 181.778C238.448 181.162 237.972 180.896 237.426 180.896C236.698 180.896 236.012 181.47 236.012 182.38ZM246.601 183.584C247.791 183.584 248.743 184.536 248.743 185.712C248.743 186.902 247.791 187.854 246.601 187.854C245.439 187.854 244.473 186.902 244.473 185.712C244.473 184.536 245.439 183.584 246.601 183.584ZM246.601 187.14C247.399 187.14 248.029 186.51 248.029 185.712C248.029 184.942 247.399 184.298 246.601 184.298C245.831 184.298 245.187 184.942 245.187 185.712C245.187 186.51 245.831 187.14 246.601 187.14Z" fill="#1A1A1A"/>
<path opacity="0.9" d="M60.92 70.26H71.08C69 68.74 67.08 66.92 65.92 65.3C64.78 66.92 63 68.72 60.92 70.26ZM67.18 76.74V79.12H74.58V81.26H57.56V79.12H64.7V76.74H59.16V74.66H64.7V72.36H60.18V70.78C59.46 71.28 58.72 71.74 57.96 72.16C57.66 71.6 57 70.74 56.46 70.24C59.88 68.52 63.1 65.44 64.58 63H67.04C69.18 66.04 72.44 68.66 75.6 70C74.98 70.64 74.46 71.4 74.02 72.14C73.3 71.74 72.58 71.3 71.86 70.8V72.36H67.18V74.66H72.78V76.74H67.18ZM80.46 63.14L82.72 63.82C82.28 65.1 81.74 66.4 81.12 67.68V81.7H78.86V71.54C78.46 72.08 78.04 72.62 77.64 73.1C77.42 72.52 76.76 71.22 76.32 70.62C78 68.8 79.56 65.96 80.46 63.14ZM89.64 76.26H92.1C91.16 74.72 90.32 72.92 89.64 71.04V76.26ZM84.88 76.26H87.32V71.18C86.66 73.02 85.82 74.78 84.88 76.26ZM95.16 68.88H90.82C91.92 71.96 93.76 75.08 95.7 76.9C95.16 77.32 94.34 78.12 93.92 78.74C93.36 78.12 92.84 77.42 92.32 76.62V78.38H89.64V81.6H87.32V78.38H84.7V76.54C84.14 77.4 83.56 78.16 82.92 78.8C82.52 78.24 81.76 77.4 81.22 77C83.24 75.2 85.1 72.04 86.2 68.88H82.26V66.62H87.32V63.16H89.64V66.62H95.16V68.88ZM99.68 77.58H102.86V73.66H99.68V77.58ZM102.86 71.6V68.36H99.68V71.6H102.86ZM109.22 66.14H114.84C114.84 66.14 114.84 66.94 114.82 67.22C114.56 76.16 114.34 79.34 113.52 80.4C112.96 81.14 112.4 81.36 111.6 81.5C110.84 81.6 109.64 81.58 108.46 81.54C108.42 80.88 108.1 79.88 107.68 79.22C108.96 79.34 110.14 79.34 110.66 79.34C111.06 79.34 111.28 79.26 111.54 79C112.12 78.36 112.38 75.36 112.6 68.3H108.32C107.8 69.5 107.18 70.6 106.56 71.46C106.24 71.16 105.56 70.7 105.02 70.34V79.68H99.68V81.14H97.52V66.28H99.78C100.04 65.28 100.28 64 100.36 63.06L102.96 63.42C102.62 64.42 102.26 65.42 101.92 66.28H105.02V69.52C106.18 67.84 107.14 65.42 107.72 63.08L110 63.6C109.78 64.46 109.52 65.3 109.22 66.14ZM111.52 75.26L109.5 76.5C108.94 75.3 107.7 73.34 106.72 71.88L108.58 70.82C109.58 72.2 110.9 74.1 111.52 75.26ZM125.44 63.9C125.28 64.54 125.02 65.56 124.72 66.64C125.7 66.46 126.64 66.24 127.42 66L127.5 68.32C126.58 68.56 125.34 68.82 124 69.02C123.04 71.82 121.34 75.32 119.72 77.58L117.3 76.34C118.88 74.38 120.5 71.44 121.38 69.28C121.02 69.3 120.68 69.3 120.34 69.3C119.52 69.3 118.7 69.28 117.84 69.22L117.66 66.9C118.52 67 119.58 67.04 120.32 67.04C120.92 67.04 121.52 67.02 122.14 66.96C122.42 65.86 122.64 64.66 122.68 63.62L125.44 63.9ZM124.4 77.74C124.4 78.48 125.02 78.98 126.12 78.98C127.5 78.98 127.92 78.22 127.92 77.12C127.92 77 127.92 76.88 127.92 76.72C127.4 76.6 126.86 76.52 126.3 76.52C125.14 76.52 124.4 77.04 124.4 77.74ZM130.12 70.12C130.06 70.96 130.1 71.8 130.12 72.68C130.14 73.26 130.2 74.22 130.24 75.22C131.96 75.86 133.36 76.86 134.38 77.78L133.04 79.92C132.34 79.28 131.44 78.44 130.34 77.78C130.34 77.84 130.34 77.92 130.34 77.98C130.34 79.84 129.32 81.28 126.48 81.28C124 81.28 122.04 80.18 122.04 77.98C122.04 76.02 123.68 74.52 126.46 74.52C126.94 74.52 127.38 74.56 127.84 74.6C127.76 73.12 127.66 71.34 127.62 70.12H130.12ZM133.56 71.18C132.4 70.26 130.12 68.96 128.76 68.34L130.04 66.36C131.48 66.98 133.96 68.34 134.98 69.08L133.56 71.18ZM147.68 75.4H151.36V73.5H147.68V75.4ZM145.42 73.5H141.98C141.96 74.12 141.92 74.76 141.82 75.4H145.42V73.5ZM146.98 66.1H143.08C142.72 66.6 142.34 67.12 141.92 67.6H146.04C146.36 67.14 146.7 66.6 146.98 66.1ZM142 69.68V71.5H145.42V69.68H142ZM151.36 71.5V69.68H147.68V71.5H151.36ZM153.72 67.6V79.06C153.72 80.36 153.4 81 152.48 81.38C151.56 81.74 150.18 81.78 148.2 81.78C148.08 81.12 147.64 80.1 147.3 79.48C148.7 79.56 150.34 79.54 150.78 79.54C151.2 79.52 151.36 79.4 151.36 79.02V77.44H141.36C140.84 79.1 139.88 80.68 138.24 81.84C137.92 81.38 137.04 80.5 136.56 80.18C139.42 78.16 139.7 75.22 139.7 72.8V69.82C139.36 70.12 139 70.4 138.64 70.68C138.28 70.12 137.48 69.28 136.96 68.94C139.5 67.22 141.22 64.96 142.16 62.98L144.7 63.42C144.58 63.66 144.44 63.92 144.3 64.16H148.26L148.64 64.06L150.26 65.12C149.82 65.9 149.24 66.78 148.64 67.6H153.72ZM171.86 79.12H172.94C173.38 79.12 173.46 78.48 173.52 75.52C174.08 75.96 175.1 76.42 175.76 76.6C175.56 80.2 175 81.44 173.16 81.44H171.42C169.54 81.44 168.94 80.72 168.94 78.14V69.58H165.4C165.26 71.08 165.02 72.54 164.62 73.9C165.84 74.76 166.94 75.64 167.68 76.38L165.88 78.32C165.34 77.74 164.58 77.04 163.68 76.34C162.6 78.5 160.9 80.38 158.24 81.76C157.88 81.14 157.12 80.3 156.5 79.84C159.12 78.56 160.68 76.82 161.62 74.78C160.52 74 159.38 73.24 158.36 72.62L159.98 70.96C160.74 71.4 161.58 71.9 162.42 72.44C162.64 71.52 162.78 70.56 162.88 69.58H157.64V67.22H163.02C163.06 65.88 163.06 64.52 163.06 63.12H165.62C165.6 64.5 165.6 65.88 165.54 67.22H171.4V78.14C171.4 78.98 171.46 79.12 171.86 79.12ZM182.6 64.06C183.36 66.14 184.3 68.06 185.1 69.6C186.74 68.64 188.48 67.78 189.42 67.24C190.18 66.8 190.76 66.46 191.28 66.02L192.66 68.34C192.06 68.7 191.42 69.04 190.68 69.42C189.44 70.04 186.92 71.2 185.1 72.38C183.44 73.48 182.32 74.62 182.32 76.02C182.32 77.46 183.7 78.22 186.48 78.22C188.54 78.22 191.24 77.92 193.02 77.48L192.98 80.36C191.28 80.66 189.16 80.86 186.56 80.86C182.58 80.86 179.56 79.76 179.56 76.32C179.56 74.12 180.96 72.46 182.88 71.04C181.96 69.34 181 67.2 180.1 65.08L182.6 64.06ZM206.8 64.98V67.04H197.16V64.98H200.82V63.2H203.12V64.98H206.8ZM203.82 76.06H200.08V78.7H203.82V76.06ZM197.88 81.76V74H206.14V81.68H203.82V80.76H200.08V81.76H197.88ZM203.64 67.1L205.88 67.58C205.46 68.68 205.04 69.76 204.7 70.54H207.02V72.7H196.74V70.54H199.02C198.96 69.74 198.66 68.5 198.32 67.58L200.26 67.18C200.68 68.08 201 69.28 201.08 70.1L199.2 70.54H204.44L202.82 70.12C203.12 69.28 203.48 68.02 203.64 67.1ZM213.64 64.12L215.38 65.2C214.68 67.12 213.8 69.42 213 71.12C214.7 72.92 215 74.48 215 75.8C215 77.26 214.68 78.24 213.92 78.78C213.54 79.04 213.06 79.2 212.56 79.28C212.1 79.34 211.52 79.34 210.96 79.32C210.96 78.68 210.76 77.66 210.38 77C210.82 77.02 211.2 77.04 211.5 77.02C211.78 77.02 212.04 76.96 212.24 76.86C212.6 76.64 212.72 76.18 212.72 75.5C212.72 74.42 212.28 72.98 210.68 71.42C211.26 70 211.9 67.96 212.38 66.44H209.96V81.74H207.64V64.2H213.28L213.64 64.12ZM227.4 64.22L229.74 63.28C231 65.82 233.5 68.72 235.68 70.4C235.04 70.9 234.12 71.86 233.66 72.54C233.24 72.16 232.82 71.72 232.38 71.26V71.4C232.16 77.44 231.92 79.8 231.22 80.64C230.72 81.28 230.18 81.48 229.4 81.58C228.72 81.68 227.56 81.68 226.38 81.64C226.34 80.92 226.02 79.92 225.6 79.24C226.7 79.32 227.74 79.34 228.24 79.34C228.6 79.34 228.82 79.3 229.04 79.06C229.44 78.64 229.66 76.86 229.84 72.68H225.9C225.4 76.52 224.1 79.94 218.92 81.88C218.62 81.2 217.92 80.22 217.34 79.68C221.86 78.22 222.9 75.6 223.3 72.68H219.92V71.28C219.4 71.82 218.86 72.3 218.32 72.72C217.88 72.18 216.86 71.22 216.28 70.8C218.78 69.12 220.98 66.36 222.18 63.32L224.74 64.06C223.76 66.36 222.36 68.56 220.78 70.36H231.58C230 68.52 228.5 66.32 227.4 64.22ZM239.68 77.58H242.86V73.66H239.68V77.58ZM242.86 71.6V68.36H239.68V71.6H242.86ZM249.22 66.14H254.84C254.84 66.14 254.84 66.94 254.82 67.22C254.56 76.16 254.34 79.34 253.52 80.4C252.96 81.14 252.4 81.36 251.6 81.5C250.84 81.6 249.64 81.58 248.46 81.54C248.42 80.88 248.1 79.88 247.68 79.22C248.96 79.34 250.14 79.34 250.66 79.34C251.06 79.34 251.28 79.26 251.54 79C252.12 78.36 252.38 75.36 252.6 68.3H248.32C247.8 69.5 247.18 70.6 246.56 71.46C246.24 71.16 245.56 70.7 245.02 70.34V79.68H239.68V81.14H237.52V66.28H239.78C240.04 65.28 240.28 64 240.36 63.06L242.96 63.42C242.62 64.42 242.26 65.42 241.92 66.28H245.02V69.52C246.18 67.84 247.14 65.42 247.72 63.08L250 63.6C249.78 64.46 249.52 65.3 249.22 66.14ZM251.52 75.26L249.5 76.5C248.94 75.3 247.7 73.34 246.72 71.88L248.58 70.82C249.58 72.2 250.9 74.1 251.52 75.26ZM265.44 63.9C265.28 64.54 265.02 65.56 264.72 66.64C265.7 66.46 266.64 66.24 267.42 66L267.5 68.32C266.58 68.56 265.34 68.82 264 69.02C263.04 71.82 261.34 75.32 259.72 77.58L257.3 76.34C258.88 74.38 260.5 71.44 261.38 69.28C261.02 69.3 260.68 69.3 260.34 69.3C259.52 69.3 258.7 69.28 257.84 69.22L257.66 66.9C258.52 67 259.58 67.04 260.32 67.04C260.92 67.04 261.52 67.02 262.14 66.96C262.42 65.86 262.64 64.66 262.68 63.62L265.44 63.9ZM264.4 77.74C264.4 78.48 265.02 78.98 266.12 78.98C267.5 78.98 267.92 78.22 267.92 77.12C267.92 77 267.92 76.88 267.92 76.72C267.4 76.6 266.86 76.52 266.3 76.52C265.14 76.52 264.4 77.04 264.4 77.74ZM270.12 70.12C270.06 70.96 270.1 71.8 270.12 72.68C270.14 73.26 270.2 74.22 270.24 75.22C271.96 75.86 273.36 76.86 274.38 77.78L273.04 79.92C272.34 79.28 271.44 78.44 270.34 77.78C270.34 77.84 270.34 77.92 270.34 77.98C270.34 79.84 269.32 81.28 266.48 81.28C264 81.28 262.04 80.18 262.04 77.98C262.04 76.02 263.68 74.52 266.46 74.52C266.94 74.52 267.38 74.56 267.84 74.6C267.76 73.12 267.66 71.34 267.62 70.12H270.12ZM273.56 71.18C272.4 70.26 270.12 68.96 268.76 68.34L270.04 66.36C271.48 66.98 273.96 68.34 274.98 69.08L273.56 71.18ZM287.68 75.4H291.36V73.5H287.68V75.4ZM285.42 73.5H281.98C281.96 74.12 281.92 74.76 281.82 75.4H285.42V73.5ZM286.98 66.1H283.08C282.72 66.6 282.34 67.12 281.92 67.6H286.04C286.36 67.14 286.7 66.6 286.98 66.1ZM282 69.68V71.5H285.42V69.68H282ZM291.36 71.5V69.68H287.68V71.5H291.36ZM293.72 67.6V79.06C293.72 80.36 293.4 81 292.48 81.38C291.56 81.74 290.18 81.78 288.2 81.78C288.08 81.12 287.64 80.1 287.3 79.48C288.7 79.56 290.34 79.54 290.78 79.54C291.2 79.52 291.36 79.4 291.36 79.02V77.44H281.36C280.84 79.1 279.88 80.68 278.24 81.84C277.92 81.38 277.04 80.5 276.56 80.18C279.42 78.16 279.7 75.22 279.7 72.8V69.82C279.36 70.12 279 70.4 278.64 70.68C278.28 70.12 277.48 69.28 276.96 68.94C279.5 67.22 281.22 64.96 282.16 62.98L284.7 63.42C284.58 63.66 284.44 63.92 284.3 64.16H288.26L288.64 64.06L290.26 65.12C289.82 65.9 289.24 66.78 288.64 67.6H293.72ZM311.86 79.12H312.94C313.38 79.12 313.46 78.48 313.52 75.52C314.08 75.96 315.1 76.42 315.76 76.6C315.56 80.2 315 81.44 313.16 81.44H311.42C309.54 81.44 308.94 80.72 308.94 78.14V69.58H305.4C305.26 71.08 305.02 72.54 304.62 73.9C305.84 74.76 306.94 75.64 307.68 76.38L305.88 78.32C305.34 77.74 304.58 77.04 303.68 76.34C302.6 78.5 300.9 80.38 298.24 81.76C297.88 81.14 297.12 80.3 296.5 79.84C299.12 78.56 300.68 76.82 301.62 74.78C300.52 74 299.38 73.24 298.36 72.62L299.98 70.96C300.74 71.4 301.58 71.9 302.42 72.44C302.64 71.52 302.78 70.56 302.88 69.58H297.64V67.22H303.02C303.06 65.88 303.06 64.52 303.06 63.12H305.62C305.6 64.5 305.6 65.88 305.54 67.22H311.4V78.14C311.4 78.98 311.46 79.12 311.86 79.12Z" fill="#1A1A1A"/>
<rect x="449.679" y="118" width="212" height="120" rx="24" fill="#949494"/>
<path d="M709.828 142C709.828 128.745 720.573 118 733.828 118H921.828V238H709.828V142Z" fill="#949494"/>
<path d="M969.977 142C969.977 128.745 980.722 118 993.977 118H1157.98C1171.23 118 1181.98 128.745 1181.98 142V237.549H969.977V142Z" fill="#949494"/>
</svg>
