<svg width="724" height="372" viewBox="0 0 724 372" fill="none" xmlns="http://www.w3.org/2000/svg">
<path opacity="0.9" d="M7.376 124.56H8.576V128.352C8.576 128.976 8.416 129.28 7.92 129.44C7.408 129.616 6.64 129.616 5.504 129.616C5.424 129.296 5.2 128.864 5.008 128.56C5.936 128.608 6.8 128.608 7.056 128.576C7.296 128.576 7.376 128.528 7.376 128.32V124.56ZM11.248 127.52L12.4 128.032C10.112 130.656 5.632 131.936 1.36 132.624C1.216 132.336 0.848 131.808 0.608 131.552C4.944 131.008 9.264 129.824 11.248 127.52ZM4.32 125.408L5.488 125.776C4.56 127.168 3.12 128.512 1.792 129.36C1.584 129.152 1.12 128.72 0.848 128.528C2.176 127.776 3.504 126.624 4.32 125.408ZM10.752 125.904L11.696 125.312C12.976 126.176 14.528 127.456 15.296 128.352L14.272 129.024C13.568 128.144 12.032 126.816 10.752 125.904ZM3.856 131.152H13.248V139.232H12.032V132.112H5.024V139.312H3.856V131.152ZM4.432 133.392H12.576V134.272H4.432V133.392ZM4.432 135.6H12.576V136.48H4.432V135.6ZM4.432 137.792H12.576V138.736H4.432V137.792ZM20.624 130.208H31.744V131.344H20.624V130.208ZM25.808 130.64H27.024V137.824C27.024 138.576 26.832 138.928 26.256 139.12C25.68 139.296 24.72 139.312 23.2 139.312C23.136 138.976 22.944 138.464 22.768 138.128C23.952 138.176 25.072 138.16 25.408 138.16C25.696 138.144 25.808 138.064 25.808 137.808V130.64ZM19.152 126.56H31.856V127.712H19.152V126.56ZM18.496 126.56H19.68V130.88C19.68 133.296 19.472 136.864 18.128 139.248C17.904 139.056 17.376 138.704 17.088 138.592C18.368 136.336 18.496 133.136 18.496 130.864V126.56ZM24.464 124.576H25.696V127.184H24.464V124.576ZM33.328 138L37.296 126.272H38.96L42.928 138H41.376L39.312 131.44C38.896 130.128 38.528 128.848 38.144 127.488H38.08C37.696 128.848 37.328 130.128 36.896 131.44L34.832 138H33.328ZM35.408 134.416V133.248H40.816V134.416H35.408Z" fill="#1A1A1C"/>
<path opacity="0.9" d="M7.376 70.56H8.576V74.352C8.576 74.976 8.416 75.28 7.92 75.44C7.408 75.616 6.64 75.616 5.504 75.616C5.424 75.296 5.2 74.864 5.008 74.56C5.936 74.608 6.8 74.608 7.056 74.576C7.296 74.576 7.376 74.528 7.376 74.32V70.56ZM11.248 73.52L12.4 74.032C10.112 76.656 5.632 77.936 1.36 78.624C1.216 78.336 0.848 77.808 0.608 77.552C4.944 77.008 9.264 75.824 11.248 73.52ZM4.32 71.408L5.488 71.776C4.56 73.168 3.12 74.512 1.792 75.36C1.584 75.152 1.12 74.72 0.848 74.528C2.176 73.776 3.504 72.624 4.32 71.408ZM10.752 71.904L11.696 71.312C12.976 72.176 14.528 73.456 15.296 74.352L14.272 75.024C13.568 74.144 12.032 72.816 10.752 71.904ZM3.856 77.152H13.248V85.232H12.032V78.112H5.024V85.312H3.856V77.152ZM4.432 79.392H12.576V80.272H4.432V79.392ZM4.432 81.6H12.576V82.48H4.432V81.6ZM4.432 83.792H12.576V84.736H4.432V83.792ZM20.624 76.208H31.744V77.344H20.624V76.208ZM25.808 76.64H27.024V83.824C27.024 84.576 26.832 84.928 26.256 85.12C25.68 85.296 24.72 85.312 23.2 85.312C23.136 84.976 22.944 84.464 22.768 84.128C23.952 84.176 25.072 84.16 25.408 84.16C25.696 84.144 25.808 84.064 25.808 83.808V76.64ZM19.152 72.56H31.856V73.712H19.152V72.56ZM18.496 72.56H19.68V76.88C19.68 79.296 19.472 82.864 18.128 85.248C17.904 85.056 17.376 84.704 17.088 84.592C18.368 82.336 18.496 79.136 18.496 76.864V72.56ZM24.464 70.576H25.696V73.184H24.464V70.576ZM44.8 76.656C44.8 80.912 43.872 83.104 40.224 84.752L39.152 83.728C42.064 82.624 43.504 81.248 43.504 76.752V72.864C43.504 72.24 43.456 71.712 43.424 71.568H44.88C44.864 71.728 44.8 72.24 44.8 72.864V76.656ZM39.024 71.664C39.008 71.808 38.96 72.272 38.96 72.816V78.688C38.96 79.28 39.008 79.984 39.024 80.128H37.6C37.616 79.984 37.68 79.296 37.68 78.688V72.816C37.68 72.48 37.648 72.032 37.6 71.664H39.024ZM34.352 74.768C34.496 74.784 35.28 74.88 35.952 74.88H46.544C47.264 74.88 47.792 74.816 48.016 74.784V76.144C47.84 76.128 47.264 76.096 46.56 76.096H35.952C35.248 76.096 34.528 76.144 34.352 76.144V74.768ZM51.296 78.224C54.064 77.488 56.496 76.352 58.272 75.248C59.952 74.192 61.552 72.816 62.656 71.472L63.728 72.48C62.352 73.904 60.672 75.248 58.8 76.416C57.04 77.504 54.496 78.672 51.92 79.472L51.296 78.224ZM58.016 75.904L59.392 75.488V82.8C59.392 83.392 59.424 84.192 59.504 84.496H57.92C57.968 84.192 58.016 83.392 58.016 82.8V75.904ZM71.936 82.592C71.936 81.696 71.936 74.624 71.936 73.296C71.936 72.832 71.904 72.128 71.824 71.616H73.392C73.328 72.112 73.28 72.8 73.28 73.296C73.28 75.776 73.296 81.84 73.296 82.592C73.296 83.104 73.328 83.968 73.392 84.496H71.84C71.92 83.984 71.936 83.184 71.936 82.592ZM72.992 75.824C75.104 76.432 78.336 77.664 80.112 78.528L79.552 79.888C77.728 78.912 74.736 77.776 72.992 77.232V75.824Z" fill="#1A1A1C"/>
<path d="M1 105V94H345V105" stroke="#1A1A1C"/>
<path d="M1 43V32H722V43" stroke="#1A1A1C"/>
<path opacity="0.9" d="M3.872 10.776H12.08V11.848H3.872V10.776ZM4.32 14.12H11.696V15.176H4.32V14.12ZM3.632 17.88H12.432V18.904H3.632V17.88ZM7.344 11.112H8.464V18.424H7.344V11.112ZM9.472 15.88L10.24 15.448C10.848 15.976 11.552 16.712 11.872 17.208L11.056 17.704C10.736 17.208 10.048 16.424 9.472 15.88ZM1.36 8.296H14.624V22.296H13.344V9.4H2.576V22.296H1.36V8.296ZM2.016 20.376H13.936V21.48H2.016V20.376ZM25.648 10.088C25.44 11.752 25.12 13.624 24.624 15.336C23.648 18.616 22.368 20.312 20.896 20.312C19.456 20.312 18.032 18.68 18.032 16.024C18.032 12.552 21.12 9.528 25.04 9.528C28.784 9.528 31.168 12.168 31.168 15.416C31.168 18.76 28.96 21 25.152 21.496L24.416 20.312C24.928 20.264 25.408 20.2 25.792 20.12C27.84 19.656 29.856 18.12 29.856 15.352C29.856 12.792 28.08 10.68 25.008 10.68C21.488 10.68 19.296 13.576 19.296 15.928C19.296 17.944 20.208 18.84 20.928 18.84C21.68 18.84 22.544 17.752 23.36 15.048C23.824 13.528 24.16 11.72 24.32 10.056L25.648 10.088ZM40.24 8.536H48.096V9.688H40.24V8.536ZM44.912 13.304H46.128V20.744C46.128 21.496 45.952 21.864 45.408 22.056C44.864 22.232 43.952 22.248 42.384 22.248C42.336 21.912 42.176 21.416 42 21.064C43.136 21.096 44.208 21.096 44.496 21.08C44.816 21.064 44.912 21 44.912 20.728V13.304ZM39.536 12.952H48.56V14.088H39.536V12.952ZM36.336 14.184L37.392 13.144L37.536 13.208V22.328H36.336V14.184ZM38.192 10.984L39.328 11.416C38.08 13.448 36.192 15.512 34.512 16.856C34.336 16.616 33.92 16.088 33.664 15.864C35.328 14.68 37.088 12.824 38.192 10.984ZM37.536 7.56L38.688 8.024C37.616 9.432 35.968 10.984 34.544 12.008C34.368 11.752 34.048 11.288 33.84 11.048C35.168 10.152 36.72 8.712 37.536 7.56ZM50.72 8.696H58.08V9.848H50.72V8.696ZM54.672 13.368H57.488V14.52H54.672V13.368ZM54.128 9.32H55.296V19.432H54.128V9.32ZM51.408 12.28H52.496V19.88H51.408V12.28ZM50.448 19.608C52.32 19.256 55.28 18.584 58.064 17.96L58.176 19.064C55.504 19.704 52.672 20.36 50.672 20.808L50.448 19.608ZM59.168 10.552H65.264V11.672H59.168V10.552ZM59.712 7.56L60.912 7.768C60.32 10.76 59.328 13.56 57.984 15.4C57.776 15.176 57.296 14.776 57.008 14.6C58.336 12.936 59.216 10.296 59.712 7.56ZM63.04 11.128L64.24 11.256C63.424 16.776 61.712 20.216 57.712 22.328C57.6 22.04 57.232 21.528 57.008 21.272C60.784 19.448 62.352 16.2 63.04 11.128ZM59.68 11.576C60.464 16.04 62.16 19.752 65.408 21.272C65.136 21.512 64.768 21.976 64.576 22.296C61.184 20.504 59.504 16.664 58.624 11.768L59.68 11.576ZM78.08 13.656C78.08 17.912 77.152 20.104 73.504 21.752L72.432 20.728C75.344 19.624 76.784 18.248 76.784 13.752V9.864C76.784 9.24 76.736 8.712 76.704 8.568H78.16C78.144 8.728 78.08 9.24 78.08 9.864V13.656ZM72.304 8.664C72.288 8.808 72.24 9.272 72.24 9.816V15.688C72.24 16.28 72.288 16.984 72.304 17.128H70.88C70.896 16.984 70.96 16.296 70.96 15.688V9.816C70.96 9.48 70.928 9.032 70.88 8.664H72.304ZM67.632 11.768C67.776 11.784 68.56 11.88 69.232 11.88H79.824C80.544 11.88 81.072 11.816 81.296 11.784V13.144C81.12 13.128 80.544 13.096 79.84 13.096H69.232C68.528 13.096 67.808 13.144 67.632 13.144V11.768ZM84.816 14.072C85.312 14.12 86.144 14.168 87.056 14.168C88.224 14.168 94.64 14.168 95.824 14.168C96.624 14.168 97.184 14.104 97.552 14.072V15.64C97.216 15.624 96.544 15.576 95.84 15.576C94.624 15.576 88.24 15.576 87.056 15.576C86.176 15.576 85.328 15.608 84.816 15.64V14.072ZM111.488 8.472C111.888 9.048 112.464 10.008 112.784 10.664L111.92 11.048C111.6 10.408 111.072 9.448 110.64 8.84L111.488 8.472ZM113.232 7.832C113.664 8.424 114.272 9.416 114.576 10.008L113.712 10.392C113.376 9.704 112.848 8.792 112.4 8.2L113.232 7.832ZM104.304 9C104.256 9.384 104.208 9.848 104.208 10.296C104.208 11.16 104.208 17.592 104.208 18.744C104.208 19.576 104.56 19.784 105.328 19.928C105.84 20.024 106.656 20.056 107.44 20.056C109.136 20.056 111.584 19.896 112.928 19.544V21.016C111.536 21.224 109.136 21.336 107.392 21.336C106.432 21.336 105.488 21.304 104.816 21.192C103.6 20.968 102.912 20.408 102.912 19.096C102.912 17.56 102.912 11.16 102.912 10.296C102.912 9.912 102.88 9.384 102.816 9H104.304ZM103.616 14.056C105.552 13.64 108.448 12.76 110.304 11.976C110.784 11.752 111.248 11.528 111.712 11.24L112.272 12.52C111.808 12.712 111.232 12.968 110.752 13.16C108.768 13.96 105.6 14.888 103.632 15.384L103.616 14.056ZM129.264 10.312C129.168 10.44 128.96 10.792 128.88 11C128.24 12.584 127.024 14.824 125.696 16.296C123.904 18.296 121.616 20.2 119.088 21.352L118.064 20.28C120.656 19.288 123.008 17.368 124.656 15.544C125.744 14.312 126.912 12.408 127.328 11.08C126.752 11.08 121.632 11.08 121.088 11.08C120.512 11.08 119.648 11.144 119.472 11.16V9.72C119.68 9.752 120.592 9.816 121.088 9.816C121.712 9.816 126.656 9.816 127.264 9.816C127.776 9.816 128.208 9.768 128.464 9.688L129.264 10.312ZM125.904 15.464C127.632 16.904 129.76 19.144 130.848 20.472L129.744 21.448C128.592 19.928 126.72 17.88 124.992 16.36L125.904 15.464Z" fill="#1A1A1C"/>
<path opacity="0.9" d="M130.376 124.56H131.576V128.352C131.576 128.976 131.416 129.28 130.92 129.44C130.408 129.616 129.64 129.616 128.504 129.616C128.424 129.296 128.2 128.864 128.008 128.56C128.936 128.608 129.8 128.608 130.056 128.576C130.296 128.576 130.376 128.528 130.376 128.32V124.56ZM134.248 127.52L135.4 128.032C133.112 130.656 128.632 131.936 124.36 132.624C124.216 132.336 123.848 131.808 123.608 131.552C127.944 131.008 132.264 129.824 134.248 127.52ZM127.32 125.408L128.488 125.776C127.56 127.168 126.12 128.512 124.792 129.36C124.584 129.152 124.12 128.72 123.848 128.528C125.176 127.776 126.504 126.624 127.32 125.408ZM133.752 125.904L134.696 125.312C135.976 126.176 137.528 127.456 138.296 128.352L137.272 129.024C136.568 128.144 135.032 126.816 133.752 125.904ZM126.856 131.152H136.248V139.232H135.032V132.112H128.024V139.312H126.856V131.152ZM127.432 133.392H135.576V134.272H127.432V133.392ZM127.432 135.6H135.576V136.48H127.432V135.6ZM127.432 137.792H135.576V138.736H127.432V137.792ZM143.624 130.208H154.744V131.344H143.624V130.208ZM148.808 130.64H150.024V137.824C150.024 138.576 149.832 138.928 149.256 139.12C148.68 139.296 147.72 139.312 146.2 139.312C146.136 138.976 145.944 138.464 145.768 138.128C146.952 138.176 148.072 138.16 148.408 138.16C148.696 138.144 148.808 138.064 148.808 137.808V130.64ZM142.152 126.56H154.856V127.712H142.152V126.56ZM141.496 126.56H142.68V130.88C142.68 133.296 142.472 136.864 141.128 139.248C140.904 139.056 140.376 138.704 140.088 138.592C141.368 136.336 141.496 133.136 141.496 130.864V126.56ZM147.464 124.576H148.696V127.184H147.464V124.576ZM157.88 138V126.272H161.352C163.736 126.272 165.384 127.088 165.384 129.152C165.384 130.304 164.776 131.328 163.672 131.696V131.76C165.08 132.032 166.056 132.976 166.056 134.576C166.056 136.864 164.232 138 161.624 138H157.88ZM159.368 131.264H161.096C163.112 131.264 163.928 130.528 163.928 129.328C163.928 127.952 163 127.44 161.176 127.44H159.368V131.264ZM159.368 136.832H161.416C163.416 136.832 164.616 136.112 164.616 134.528C164.616 133.072 163.464 132.4 161.416 132.4H159.368V136.832Z" fill="#1A1A1C"/>
<path opacity="0.9" d="M253.376 124.56H254.576V128.352C254.576 128.976 254.416 129.28 253.92 129.44C253.408 129.616 252.64 129.616 251.504 129.616C251.424 129.296 251.2 128.864 251.008 128.56C251.936 128.608 252.8 128.608 253.056 128.576C253.296 128.576 253.376 128.528 253.376 128.32V124.56ZM257.248 127.52L258.4 128.032C256.112 130.656 251.632 131.936 247.36 132.624C247.216 132.336 246.848 131.808 246.608 131.552C250.944 131.008 255.264 129.824 257.248 127.52ZM250.32 125.408L251.488 125.776C250.56 127.168 249.12 128.512 247.792 129.36C247.584 129.152 247.12 128.72 246.848 128.528C248.176 127.776 249.504 126.624 250.32 125.408ZM256.752 125.904L257.696 125.312C258.976 126.176 260.528 127.456 261.296 128.352L260.272 129.024C259.568 128.144 258.032 126.816 256.752 125.904ZM249.856 131.152H259.248V139.232H258.032V132.112H251.024V139.312H249.856V131.152ZM250.432 133.392H258.576V134.272H250.432V133.392ZM250.432 135.6H258.576V136.48H250.432V135.6ZM250.432 137.792H258.576V138.736H250.432V137.792ZM266.624 130.208H277.744V131.344H266.624V130.208ZM271.808 130.64H273.024V137.824C273.024 138.576 272.832 138.928 272.256 139.12C271.68 139.296 270.72 139.312 269.2 139.312C269.136 138.976 268.944 138.464 268.768 138.128C269.952 138.176 271.072 138.16 271.408 138.16C271.696 138.144 271.808 138.064 271.808 137.808V130.64ZM265.152 126.56H277.856V127.712H265.152V126.56ZM264.496 126.56H265.68V130.88C265.68 133.296 265.472 136.864 264.128 139.248C263.904 139.056 263.376 138.704 263.088 138.592C264.368 136.336 264.496 133.136 264.496 130.864V126.56ZM270.464 124.576H271.696V127.184H270.464V124.576ZM285.312 138.224C282.384 138.224 280.208 135.952 280.208 132.144C280.208 128.368 282.432 126.064 285.408 126.064C286.832 126.064 287.936 126.752 288.624 127.504L287.808 128.464C287.2 127.808 286.416 127.36 285.424 127.36C283.2 127.36 281.728 129.184 281.728 132.112C281.728 135.072 283.136 136.912 285.376 136.912C286.48 136.912 287.344 136.432 288.096 135.6L288.896 136.528C287.968 137.616 286.832 138.224 285.312 138.224Z" fill="#1A1A1C"/>
<rect x="0.5" y="155.5" width="98" height="216" fill="white"/>
<rect x="0.5" y="155.5" width="98" height="216" stroke="#D8D8DB"/>
<rect y="310" width="99" height="62" fill="#F1F1F4"/>
<rect x="11" y="219" width="76" height="6" rx="3" fill="#F1F1F4"/>
<rect x="29" y="171" width="58" height="6" rx="3" fill="#F1F1F4"/>
<rect x="11" y="200" width="56" height="10" rx="5" fill="#F1F1F4"/>
<rect x="11" y="239" width="56" height="6" rx="3" fill="#F1F1F4"/>
<rect x="11" y="229" width="61" height="6" rx="3" fill="#F1F1F4"/>
<rect x="11" y="255" width="23" height="10" rx="5" fill="#0017C1"/>
<rect x="11" y="168" width="12" height="12" rx="6" fill="#1A1A1C"/>
<rect x="379.5" y="155.5" width="98" height="216" fill="white"/>
<rect x="379.5" y="155.5" width="98" height="216" stroke="#D8D8DB"/>
<rect x="379" y="310" width="99" height="62" fill="#F1F1F4"/>
<rect x="390" y="219" width="76" height="6" rx="3" fill="#F1F1F4"/>
<rect x="408" y="171" width="58" height="6" rx="3" fill="#F1F1F4"/>
<rect x="390" y="200" width="56" height="10" rx="5" fill="#F1F1F4"/>
<rect x="390" y="239" width="56" height="6" rx="3" fill="#F1F1F4"/>
<rect x="390" y="229" width="61" height="6" rx="3" fill="#F1F1F4"/>
<rect x="390" y="255" width="23" height="10" rx="5" fill="#0017C1"/>
<rect x="390" y="168" width="12" height="12" rx="2" fill="#1A1A1C"/>
<rect x="123.5" y="155.5" width="98" height="216" fill="white"/>
<rect x="123.5" y="155.5" width="98" height="216" stroke="#D8D8DB"/>
<rect x="123" y="310" width="99" height="62" fill="#F1F1F4"/>
<rect x="134" y="219" width="76" height="6" rx="3" fill="#F1F1F4"/>
<rect x="152" y="171" width="58" height="6" rx="3" fill="#F1F1F4"/>
<rect x="134" y="200" width="56" height="10" rx="5" fill="#F1F1F4"/>
<rect x="134" y="239" width="56" height="6" rx="3" fill="#F1F1F4"/>
<rect x="134" y="229" width="61" height="6" rx="3" fill="#F1F1F4"/>
<rect x="134" y="255" width="23" height="10" rx="5" fill="#0017C1"/>
<rect x="134" y="168" width="12" height="12" rx="6" fill="#1A1A1C"/>
<rect x="502.5" y="155.5" width="98" height="216" fill="white"/>
<rect x="502.5" y="155.5" width="98" height="216" stroke="#D8D8DB"/>
<rect x="502" y="310" width="99" height="62" fill="#F1F1F4"/>
<rect x="513" y="219" width="76" height="6" rx="3" fill="#F1F1F4"/>
<rect x="531" y="171" width="58" height="6" rx="3" fill="#F1F1F4"/>
<rect x="513" y="200" width="56" height="10" rx="5" fill="#F1F1F4"/>
<rect x="513" y="239" width="56" height="6" rx="3" fill="#F1F1F4"/>
<rect x="513" y="229" width="61" height="6" rx="3" fill="#F1F1F4"/>
<rect x="513" y="255" width="23" height="10" rx="5" fill="#0017C1"/>
<rect x="513" y="168" width="12" height="12" rx="2" fill="#1A1A1C"/>
<rect x="246.5" y="155.5" width="98" height="216" fill="white"/>
<rect x="246.5" y="155.5" width="98" height="216" stroke="#D8D8DB"/>
<rect x="246" y="310" width="99" height="62" fill="#F1F1F4"/>
<rect x="257" y="219" width="76" height="6" rx="3" fill="#F1F1F4"/>
<rect x="275" y="171" width="58" height="6" rx="3" fill="#F1F1F4"/>
<rect x="257" y="200" width="56" height="10" rx="5" fill="#F1F1F4"/>
<rect x="257" y="239" width="56" height="6" rx="3" fill="#F1F1F4"/>
<rect x="257" y="229" width="61" height="6" rx="3" fill="#F1F1F4"/>
<rect x="257" y="255" width="23" height="10" rx="5" fill="#0017C1"/>
<rect x="257" y="168" width="12" height="12" rx="6" fill="#1A1A1C"/>
<rect x="625.5" y="155.5" width="98" height="216" fill="white"/>
<rect x="625.5" y="155.5" width="98" height="216" stroke="#D8D8DB"/>
<rect x="625" y="310" width="99" height="62" fill="#F1F1F4"/>
<rect x="636" y="219" width="76" height="6" rx="3" fill="#F1F1F4"/>
<rect x="654" y="171" width="58" height="6" rx="3" fill="#F1F1F4"/>
<rect x="636" y="200" width="56" height="10" rx="5" fill="#F1F1F4"/>
<rect x="636" y="239" width="56" height="6" rx="3" fill="#F1F1F4"/>
<rect x="636" y="229" width="61" height="6" rx="3" fill="#F1F1F4"/>
<rect x="636" y="255" width="23" height="10" rx="5" fill="#0017C1"/>
<rect x="636" y="168" width="12" height="12" rx="2" fill="#1A1A1C"/>
</svg>
