<svg width="1280" height="506" viewBox="0 0 1280 506" fill="none" xmlns="http://www.w3.org/2000/svg">
<rect width="1280" height="506" fill="white"/>
<path opacity="0.9" d="M61.8 68.92V70.16H70.2V68.92H61.8ZM61.8 72.12V73.36H70.2V72.12H61.8ZM61.8 65.74V66.98H70.2V65.74H61.8ZM59.48 63.64H72.64V75.46H59.48V63.64ZM66.92 73.84H69.36V78.64C69.36 79.28 69.5 79.38 70.22 79.38C70.56 79.38 71.9 79.38 72.32 79.38C73.02 79.38 73.14 79.04 73.24 76.68C73.72 77.08 74.78 77.48 75.44 77.64C75.18 80.82 74.54 81.64 72.54 81.64C72.04 81.64 70.36 81.64 69.9 81.64C67.5 81.64 66.92 80.92 66.92 78.64V73.84ZM62.02 74.66H64.6C64.26 78.3 63.32 80.66 57.92 81.88C57.72 81.24 57.08 80.26 56.58 79.74C61.22 78.88 61.76 77.34 62.02 74.66ZM79.18 78.28H92.86V80.64H79.18V78.28ZM84.62 63.22H87.12V79.72H84.62V63.22ZM78 73.28H80.44V81.8H78V73.28ZM91.58 73.28H94.08V81.78H91.58V73.28ZM78.8 64.9H81.2V69.88H90.74V64.9H93.28V72.2H78.8V64.9ZM103.42 64.14C103.3 64.98 103.2 66.02 103.16 66.82C103.06 68.98 102.92 73.44 102.92 75.92C102.92 77.94 104.12 78.6 105.68 78.6C108.98 78.6 111.06 76.7 112.52 74.52L114.34 76.74C113.04 78.66 110.2 81.32 105.64 81.32C102.36 81.32 100.26 79.88 100.26 76.46C100.26 73.78 100.44 68.54 100.44 66.82C100.44 65.86 100.36 64.9 100.2 64.12L103.42 64.14ZM124.94 66.02C127.4 66.36 131.4 66.26 133.54 66V68.58C131.1 68.82 127.46 68.82 124.96 68.58L124.94 66.02ZM126.54 74.56C126.38 75.24 126.3 75.72 126.3 76.24C126.3 77.14 127.08 77.68 129.12 77.68C130.9 77.68 132.38 77.52 134.12 77.14L134.18 79.84C132.88 80.1 131.26 80.24 129 80.24C125.56 80.24 123.9 79 123.9 76.96C123.9 76.16 124.02 75.38 124.26 74.36L126.54 74.56ZM121.86 64.68C121.72 65.1 121.46 66.12 121.38 66.48C121.1 67.8 120.4 71.8 120.4 73.8C120.4 74.2 120.42 74.7 120.48 75.1C120.78 74.42 121.1 73.74 121.4 73.06L122.64 74.04C122.06 75.72 121.4 77.88 121.2 78.94C121.14 79.24 121.08 79.68 121.08 79.88C121.1 80.1 121.1 80.44 121.12 80.72L118.82 80.86C118.42 79.5 118.04 77.06 118.04 74.34C118.04 71.32 118.64 67.96 118.86 66.4C118.94 65.86 119.04 65.1 119.06 64.46L121.86 64.68ZM144.72 63.76C144.64 64.14 144.56 65 144.54 65.5C144.44 67.08 144.38 69.24 144.38 71.1C144.38 73.28 144.5 76.74 144.5 77.9C144.5 80.36 143.62 81.04 142.3 81.04C140.36 81.04 137.6 79.36 137.6 77.24C137.6 75.3 140.1 73.26 142.88 72.28C144.66 71.64 146.68 71.32 148.2 71.32C151.28 71.32 153.72 72.92 153.72 75.68C153.72 78.06 152.48 79.84 149.3 80.62C148.38 80.82 147.48 80.88 146.66 80.96L145.76 78.36C146.64 78.36 147.52 78.36 148.2 78.22C149.82 77.94 151.12 77.12 151.12 75.68C151.12 74.3 149.92 73.52 148.18 73.52C146.48 73.52 144.72 73.88 143.16 74.5C141.36 75.18 140.08 76.26 140.08 77.12C140.08 77.76 141.02 78.3 141.54 78.3C141.9 78.3 142.16 78.14 142.16 77.44C142.16 76.4 142.06 73.62 142.06 71.2C142.06 68.92 142.08 66.44 142.08 65.52C142.08 65.12 142.02 64.12 141.96 63.76H144.72ZM150.42 65.94C151.94 66.68 154.26 67.98 155.34 68.74L154.12 70.78C153.16 69.98 150.56 68.48 149.32 67.88L150.42 65.94ZM138.14 67.04C139.32 67.18 140.18 67.18 140.9 67.18C142.98 67.18 146.1 66.8 148.16 66.2L148.22 68.68C145.96 69.2 142.74 69.56 140.98 69.56C139.66 69.56 138.88 69.54 138.2 69.46L138.14 67.04ZM171.56 64.1C171.48 64.54 171.46 65.02 171.46 65.48C171.42 66.4 171.46 70.18 171.46 71.36C171.46 76.06 171.1 78.98 167.12 81.5L164.8 79.7C165.58 79.36 166.58 78.72 167.14 78.1C168.66 76.5 169 74.7 169 71.34C169 69.84 168.96 66.6 168.86 65.48C168.82 65 168.72 64.42 168.64 64.1H171.56ZM163.66 68.02C164.64 68.16 165.62 68.22 166.7 68.22C169.28 68.22 172.48 68.04 174.44 67.68V70.28C172.54 70.5 169.46 70.66 166.76 70.66C165.88 70.66 164.66 70.6 163.66 70.54V68.02ZM161.6 64.44C161.44 64.94 161.24 65.66 161.14 66.08C160.64 68.3 159.92 72.5 160.46 74.98C160.72 74.36 161.1 73.38 161.42 72.66L162.68 73.46C162.08 75.18 161.56 77.18 161.32 78.32C161.24 78.64 161.18 79.08 161.2 79.3C161.2 79.52 161.22 79.86 161.24 80.14L159 80.36C158.56 79.14 157.86 76.36 157.86 73.88C157.86 70.6 158.26 67.52 158.52 65.88C158.6 65.34 158.62 64.66 158.64 64.16L161.6 64.44ZM180.4 64.78C180.96 64.84 181.64 64.88 182.2 64.88C183.28 64.88 187.54 64.78 188.68 64.68C189.52 64.62 189.98 64.54 190.22 64.46L191.5 66.26C191.04 66.56 190.56 66.84 190.12 67.18C189.04 67.94 186.94 69.7 185.66 70.7C186.34 70.52 186.94 70.48 187.56 70.48C190.96 70.48 193.54 72.6 193.54 75.5C193.54 78.66 191.14 81.16 186.3 81.16C183.52 81.16 181.42 79.9 181.42 77.88C181.42 76.26 182.9 74.78 185.02 74.78C187.76 74.78 189.28 76.62 189.34 78.82L187 79.12C186.96 77.68 186.2 76.68 185.02 76.68C184.28 76.68 183.78 77.14 183.78 77.66C183.78 78.4 184.6 78.9 185.82 78.9C189.2 78.9 190.92 77.62 190.92 75.48C190.92 73.66 189.12 72.44 186.78 72.44C183.7 72.44 181.72 74.08 179.58 76.5L177.76 74.62C179.18 73.5 181.6 71.46 182.76 70.48C183.88 69.56 185.98 67.88 186.96 67C185.94 67.04 183.18 67.14 182.1 67.22C181.56 67.26 180.94 67.3 180.48 67.38L180.4 64.78ZM212.66 66.46C212.5 66.68 212.14 67.28 211.96 67.7C211.14 69.6 209.66 72.32 207.94 74.32C205.7 76.9 202.68 79.38 199.58 80.84L197.5 78.68C200.74 77.48 203.82 75.04 205.7 72.96C207.02 71.46 208.24 69.48 208.7 68.06C207.86 68.06 202.76 68.06 201.9 68.06C201.08 68.06 199.98 68.16 199.54 68.2V65.34C200.08 65.42 201.32 65.48 201.9 65.48C202.96 65.48 208.08 65.48 208.96 65.48C209.84 65.48 210.62 65.38 211.04 65.24L212.66 66.46ZM208.2 72.66C210.26 74.34 213.1 77.32 214.4 78.92L212.12 80.9C210.64 78.84 208.46 76.46 206.32 74.52L208.2 72.66ZM229.034 67.76C229.034 68.46 229.614 69.04 230.314 69.04C231.014 69.04 231.574 68.46 231.574 67.76C231.574 67.06 231.014 66.5 230.314 66.5C229.614 66.5 229.034 67.06 229.034 67.76ZM227.714 67.76C227.714 66.32 228.874 65.16 230.314 65.16C231.754 65.16 232.914 66.32 232.914 67.76C232.914 69.2 231.754 70.36 230.314 70.36C228.874 70.36 227.714 69.2 227.714 67.76ZM215.294 74.32C215.874 73.82 216.314 73.4 216.934 72.78C217.834 71.88 219.394 69.92 220.774 68.28C221.974 66.86 223.154 66.64 224.694 68.1C226.054 69.38 227.574 70.96 228.774 72.26C230.114 73.7 232.174 75.9 233.714 77.54L231.494 79.92C230.154 78.26 228.474 76.18 227.294 74.8C226.114 73.42 224.354 71.48 223.634 70.74C222.974 70.1 222.554 70.14 221.994 70.86C221.194 71.88 219.794 73.84 218.974 74.94C218.514 75.56 218.054 76.28 217.694 76.8L215.294 74.32ZM236.414 70.74C237.154 70.8 238.594 70.88 239.634 70.88C241.994 70.88 248.594 70.88 250.374 70.88C251.314 70.88 252.194 70.78 252.734 70.74V73.9C252.254 73.88 251.234 73.78 250.394 73.78C248.574 73.78 241.994 73.78 239.634 73.78C238.514 73.78 237.174 73.84 236.414 73.9V70.74ZM260.363 64.18C261.683 64.9 263.883 66.3 264.923 67.04L263.443 69.24C262.323 68.46 260.243 67.12 258.923 66.38L260.363 64.18ZM256.663 78.38C258.903 78 261.283 77.32 263.463 76.12C266.863 74.22 269.663 71.48 271.243 68.62L272.783 71.34C270.943 74.12 268.103 76.64 264.843 78.54C262.803 79.68 259.923 80.68 258.163 81L256.663 78.38ZM257.283 68.74C258.623 69.46 260.823 70.82 261.863 71.56L260.383 73.8C259.263 73 257.183 71.66 255.843 70.94L257.283 68.74ZM279.023 64.8C280.403 65.74 283.003 67.82 284.183 69.04L282.143 71.12C281.103 70 278.583 67.82 277.123 66.82L279.023 64.8ZM276.503 78.12C279.643 77.68 282.223 76.66 284.163 75.52C287.583 73.48 290.183 70.44 291.463 67.74L293.003 70.54C291.503 73.26 288.843 76.02 285.623 77.96C283.583 79.18 281.003 80.28 278.203 80.76L276.503 78.12ZM309.783 63.62C310.283 64.36 310.983 65.62 311.363 66.36L309.763 67.06C309.343 66.24 308.723 65.04 308.183 64.28L309.783 63.62ZM312.143 62.72C312.663 63.48 313.403 64.74 313.763 65.44L312.163 66.12C311.743 65.3 311.103 64.12 310.563 63.38L312.143 62.72ZM311.563 68.02C311.343 68.42 311.063 68.96 310.903 69.46C310.363 71.24 309.223 73.92 307.423 76.14C305.523 78.46 303.103 80.3 299.343 81.78L296.983 79.68C301.083 78.44 303.303 76.7 305.043 74.72C306.403 73.16 307.563 70.76 307.883 69.28H301.143L302.063 67C302.963 67 307.143 67 307.783 67C308.403 67 309.063 66.92 309.523 66.76L311.563 68.02ZM305.043 64.86C304.583 65.56 304.063 66.48 303.823 66.9C302.483 69.32 300.083 72.14 297.223 74.1L294.963 72.44C298.483 70.3 300.223 67.72 301.223 66C301.523 65.52 301.943 64.58 302.123 63.9L305.043 64.86ZM66.04 109.56C66.14 109.18 66.2 108.64 66.2 108.1C66.2 107.04 66.2 98.06 66.2 96.44C66.2 95.54 66.06 94.76 66.06 94.72H69.02C69.02 94.76 68.88 95.56 68.88 96.46C68.88 98.06 68.88 105.68 68.88 106.9C70.52 106.2 72.48 104.62 73.84 102.68L75.36 104.9C73.7 107.06 70.84 109.22 68.58 110.36C68.16 110.58 67.92 110.8 67.72 110.94L66.04 109.56ZM56.78 109.28C58.56 108.04 59.64 106.2 60.18 104.48C60.76 102.78 60.78 98.98 60.78 96.58C60.78 95.76 60.7 95.24 60.58 94.74H63.52C63.52 94.82 63.38 95.72 63.38 96.54C63.38 98.92 63.32 103.14 62.8 105.16C62.18 107.4 60.94 109.38 59.22 110.9L56.78 109.28ZM77.82 100.74C78.56 100.8 80 100.88 81.04 100.88C83.4 100.88 90 100.88 91.78 100.88C92.72 100.88 93.6 100.78 94.14 100.74V103.9C93.66 103.88 92.64 103.78 91.8 103.78C89.98 103.78 83.4 103.78 81.04 103.78C79.92 103.78 78.58 103.84 77.82 103.9V100.74ZM106.04 109.56C106.14 109.18 106.2 108.64 106.2 108.1C106.2 107.04 106.2 98.06 106.2 96.44C106.2 95.54 106.06 94.76 106.06 94.72H109.02C109.02 94.76 108.88 95.56 108.88 96.46C108.88 98.06 108.88 105.68 108.88 106.9C110.52 106.2 112.48 104.62 113.84 102.68L115.36 104.9C113.7 107.06 110.84 109.22 108.58 110.36C108.16 110.58 107.92 110.8 107.72 110.94L106.04 109.56ZM96.78 109.28C98.56 108.04 99.64 106.2 100.18 104.48C100.76 102.78 100.78 98.98 100.78 96.58C100.78 95.76 100.7 95.24 100.58 94.74H103.52C103.52 94.82 103.38 95.72 103.38 96.54C103.38 98.92 103.32 103.14 102.8 105.16C102.18 107.4 100.94 109.38 99.22 110.9L96.78 109.28Z" fill="#1A1A1A"/>
<path d="M456 56H779V112H456V56Z" fill="#F2F2F2"/>
<path d="M456 112H539V448H456V112Z" fill="#F2F2F2"/>
<path d="M472.6 203V191.272H474.088V196.184H479.56V191.272H481.032V203H479.56V197.48H474.088V203H472.6ZM483.985 203V202.152C487.425 198.728 489.345 196.664 489.345 194.792C489.345 193.496 488.657 192.568 487.201 192.568C486.241 192.568 485.409 193.176 484.753 193.944L483.905 193.112C484.865 192.072 485.889 191.4 487.377 191.4C489.473 191.4 490.785 192.712 490.785 194.744C490.785 196.888 488.817 199.016 486.113 201.864C486.721 201.8 487.441 201.752 488.033 201.752H491.345V203H483.985Z" fill="black"/>
<path d="M472.6 147V135.272H474.088V140.184H479.56V135.272H481.032V147H479.56V141.48H474.088V147H472.6ZM484.689 147V145.784H487.297V137.384H485.201V136.44C486.257 136.248 487.009 135.976 487.633 135.608H488.753V145.784H491.121V147H484.689Z" fill="black"/>
<path d="M552.04 147.224C549.784 147.224 547.768 145.512 547.768 141.544C547.768 137.144 549.976 135.256 552.36 135.256C553.816 135.256 554.872 135.864 555.576 136.584L554.328 138.008C553.912 137.528 553.192 137.16 552.504 137.16C551.08 137.16 549.928 138.248 549.928 141.544C549.928 144.408 550.824 145.448 551.976 145.448C552.888 145.448 553.608 144.76 553.608 143.4C553.608 142.104 552.936 141.512 551.912 141.512C551.272 141.512 550.536 141.864 549.928 142.872L549.832 141.272C550.472 140.376 551.544 139.848 552.344 139.848C554.328 139.848 555.752 140.984 555.752 143.4C555.752 145.752 554.056 147.224 552.04 147.224ZM562.454 147V140.04C562.454 139.352 562.518 138.248 562.55 137.56H562.486C562.182 138.184 561.862 138.776 561.526 139.432L559.702 142.328H566.054V144.136H557.414V142.52L561.814 135.464H564.646V147H562.454ZM568.419 150.44V138.056H570.323L570.515 138.984H570.563C571.299 138.328 572.227 137.832 573.187 137.832C575.395 137.832 576.707 139.624 576.707 142.392C576.707 145.464 574.867 147.224 572.899 147.224C572.131 147.224 571.363 146.888 570.691 146.264L570.771 147.72V150.44H568.419ZM572.387 145.288C573.459 145.288 574.291 144.36 574.291 142.424C574.291 140.696 573.763 139.752 572.515 139.752C571.923 139.752 571.379 140.056 570.771 140.68V144.632C571.331 145.128 571.907 145.288 572.387 145.288ZM577.816 147L580.632 142.344L578.008 138.056H580.52L581.432 139.624C581.672 140.152 581.944 140.648 582.216 141.16H582.296C582.504 140.648 582.728 140.152 582.952 139.624L583.688 138.056H586.12L583.496 142.6L586.312 147H583.784L582.792 145.352C582.504 144.84 582.216 144.296 581.912 143.8H581.832C581.576 144.296 581.336 144.824 581.08 145.352L580.264 147H577.816Z" fill="black"/>
<path d="M552.04 203.224C549.784 203.224 547.768 201.512 547.768 197.544C547.768 193.144 549.976 191.256 552.36 191.256C553.816 191.256 554.872 191.864 555.576 192.584L554.328 194.008C553.912 193.528 553.192 193.16 552.504 193.16C551.08 193.16 549.928 194.248 549.928 197.544C549.928 200.408 550.824 201.448 551.976 201.448C552.888 201.448 553.608 200.76 553.608 199.4C553.608 198.104 552.936 197.512 551.912 197.512C551.272 197.512 550.536 197.864 549.928 198.872L549.832 197.272C550.472 196.376 551.544 195.848 552.344 195.848C554.328 195.848 555.752 196.984 555.752 199.4C555.752 201.752 554.056 203.224 552.04 203.224ZM562.454 203V196.04C562.454 195.352 562.518 194.248 562.55 193.56H562.486C562.182 194.184 561.862 194.776 561.526 195.432L559.702 198.328H566.054V200.136H557.414V198.52L561.814 191.464H564.646V203H562.454ZM568.419 206.44V194.056H570.323L570.515 194.984H570.563C571.299 194.328 572.227 193.832 573.187 193.832C575.395 193.832 576.707 195.624 576.707 198.392C576.707 201.464 574.867 203.224 572.899 203.224C572.131 203.224 571.363 202.888 570.691 202.264L570.771 203.72V206.44H568.419ZM572.387 201.288C573.459 201.288 574.291 200.36 574.291 198.424C574.291 196.696 573.763 195.752 572.515 195.752C571.923 195.752 571.379 196.056 570.771 196.68V200.632C571.331 201.128 571.907 201.288 572.387 201.288ZM577.816 203L580.632 198.344L578.008 194.056H580.52L581.432 195.624C581.672 196.152 581.944 196.648 582.216 197.16H582.296C582.504 196.648 582.728 196.152 582.952 195.624L583.688 194.056H586.12L583.496 198.6L586.312 203H583.784L582.792 201.352C582.504 200.84 582.216 200.296 581.912 199.8H581.832C581.576 200.296 581.336 200.824 581.08 201.352L580.264 203H577.816Z" fill="black"/>
<path d="M552.376 259V252.04C552.376 251.352 552.44 250.248 552.472 249.56H552.408C552.104 250.184 551.784 250.776 551.448 251.432L549.624 254.328H555.976V256.136H547.336V254.52L551.736 247.464H554.568V259H552.376ZM561.798 259.224C559.35 259.224 557.782 257.112 557.782 253.192C557.782 249.272 559.35 247.256 561.798 247.256C564.214 247.256 565.798 249.288 565.798 253.192C565.798 257.112 564.214 259.224 561.798 259.224ZM561.798 257.384C562.822 257.384 563.574 256.408 563.574 253.192C563.574 249.976 562.822 249.08 561.798 249.08C560.774 249.08 560.006 249.976 560.006 253.192C560.006 256.408 560.774 257.384 561.798 257.384ZM568.419 262.44V250.056H570.323L570.515 250.984H570.563C571.299 250.328 572.227 249.832 573.187 249.832C575.395 249.832 576.707 251.624 576.707 254.392C576.707 257.464 574.867 259.224 572.899 259.224C572.131 259.224 571.363 258.888 570.691 258.264L570.771 259.72V262.44H568.419ZM572.387 257.288C573.459 257.288 574.291 256.36 574.291 254.424C574.291 252.696 573.763 251.752 572.515 251.752C571.923 251.752 571.379 252.056 570.771 252.68V256.632C571.331 257.128 571.907 257.288 572.387 257.288ZM577.816 259L580.632 254.344L578.008 250.056H580.52L581.432 251.624C581.672 252.152 581.944 252.648 582.216 253.16H582.296C582.504 252.648 582.728 252.152 582.952 251.624L583.688 250.056H586.12L583.496 254.6L586.312 259H583.784L582.792 257.352C582.504 256.84 582.216 256.296 581.912 255.8H581.832C581.576 256.296 581.336 256.824 581.08 257.352L580.264 259H577.816Z" fill="black"/>
<path d="M552.376 315V308.04C552.376 307.352 552.44 306.248 552.472 305.56H552.408C552.104 306.184 551.784 306.776 551.448 307.432L549.624 310.328H555.976V312.136H547.336V310.52L551.736 303.464H554.568V315H552.376ZM561.798 315.224C559.35 315.224 557.782 313.112 557.782 309.192C557.782 305.272 559.35 303.256 561.798 303.256C564.214 303.256 565.798 305.288 565.798 309.192C565.798 313.112 564.214 315.224 561.798 315.224ZM561.798 313.384C562.822 313.384 563.574 312.408 563.574 309.192C563.574 305.976 562.822 305.08 561.798 305.08C560.774 305.08 560.006 305.976 560.006 309.192C560.006 312.408 560.774 313.384 561.798 313.384ZM568.419 318.44V306.056H570.323L570.515 306.984H570.563C571.299 306.328 572.227 305.832 573.187 305.832C575.395 305.832 576.707 307.624 576.707 310.392C576.707 313.464 574.867 315.224 572.899 315.224C572.131 315.224 571.363 314.888 570.691 314.264L570.771 315.72V318.44H568.419ZM572.387 313.288C573.459 313.288 574.291 312.36 574.291 310.424C574.291 308.696 573.763 307.752 572.515 307.752C571.923 307.752 571.379 308.056 570.771 308.68V312.632C571.331 313.128 571.907 313.288 572.387 313.288ZM577.816 315L580.632 310.344L578.008 306.056H580.52L581.432 307.624C581.672 308.152 581.944 308.648 582.216 309.16H582.296C582.504 308.648 582.728 308.152 582.952 307.624L583.688 306.056H586.12L583.496 310.6L586.312 315H583.784L582.792 313.352C582.504 312.84 582.216 312.296 581.912 311.8H581.832C581.576 312.296 581.336 312.824 581.08 313.352L580.264 315H577.816Z" fill="black"/>
<path d="M552.376 371V364.04C552.376 363.352 552.44 362.248 552.472 361.56H552.408C552.104 362.184 551.784 362.776 551.448 363.432L549.624 366.328H555.976V368.136H547.336V366.52L551.736 359.464H554.568V371H552.376ZM561.798 371.224C559.35 371.224 557.782 369.112 557.782 365.192C557.782 361.272 559.35 359.256 561.798 359.256C564.214 359.256 565.798 361.288 565.798 365.192C565.798 369.112 564.214 371.224 561.798 371.224ZM561.798 369.384C562.822 369.384 563.574 368.408 563.574 365.192C563.574 361.976 562.822 361.08 561.798 361.08C560.774 361.08 560.006 361.976 560.006 365.192C560.006 368.408 560.774 369.384 561.798 369.384ZM568.419 374.44V362.056H570.323L570.515 362.984H570.563C571.299 362.328 572.227 361.832 573.187 361.832C575.395 361.832 576.707 363.624 576.707 366.392C576.707 369.464 574.867 371.224 572.899 371.224C572.131 371.224 571.363 370.888 570.691 370.264L570.771 371.72V374.44H568.419ZM572.387 369.288C573.459 369.288 574.291 368.36 574.291 366.424C574.291 364.696 573.763 363.752 572.515 363.752C571.923 363.752 571.379 364.056 570.771 364.68V368.632C571.331 369.128 571.907 369.288 572.387 369.288ZM577.816 371L580.632 366.344L578.008 362.056H580.52L581.432 363.624C581.672 364.152 581.944 364.648 582.216 365.16H582.296C582.504 364.648 582.728 364.152 582.952 363.624L583.688 362.056H586.12L583.496 366.6L586.312 371H583.784L582.792 369.352C582.504 368.84 582.216 368.296 581.912 367.8H581.832C581.576 368.296 581.336 368.824 581.08 369.352L580.264 371H577.816Z" fill="black"/>
<path d="M547.672 427V425.656C550.76 422.696 552.792 420.696 552.792 418.968C552.792 417.8 552.168 417.096 551.032 417.096C550.152 417.096 549.464 417.688 548.856 418.328L547.56 417.048C548.648 415.88 549.72 415.256 551.336 415.256C553.56 415.256 555.064 416.664 555.064 418.856C555.064 420.856 553.192 422.952 551.08 425.16C551.672 425.096 552.456 425.016 553.016 425.016H555.608V427H547.672ZM562.454 427V420.04C562.454 419.352 562.518 418.248 562.55 417.56H562.486C562.182 418.184 561.862 418.776 561.526 419.432L559.702 422.328H566.054V424.136H557.414V422.52L561.814 415.464H564.646V427H562.454ZM568.419 430.44V418.056H570.323L570.515 418.984H570.563C571.299 418.328 572.227 417.832 573.187 417.832C575.395 417.832 576.707 419.624 576.707 422.392C576.707 425.464 574.867 427.224 572.899 427.224C572.131 427.224 571.363 426.888 570.691 426.264L570.771 427.72V430.44H568.419ZM572.387 425.288C573.459 425.288 574.291 424.36 574.291 422.424C574.291 420.696 573.763 419.752 572.515 419.752C571.923 419.752 571.379 420.056 570.771 420.68V424.632C571.331 425.128 571.907 425.288 572.387 425.288ZM577.816 427L580.632 422.344L578.008 418.056H580.52L581.432 419.624C581.672 420.152 581.944 420.648 582.216 421.16H582.296C582.504 420.648 582.728 420.152 582.952 419.624L583.688 418.056H586.12L583.496 422.6L586.312 427H583.784L582.792 425.352C582.504 424.84 582.216 424.296 581.912 423.8H581.832C581.576 424.296 581.336 424.824 581.08 425.352L580.264 427H577.816Z" fill="black"/>
<path d="M667.672 260V258.656C670.76 255.696 672.792 253.696 672.792 251.968C672.792 250.8 672.168 250.096 671.032 250.096C670.152 250.096 669.464 250.688 668.856 251.328L667.56 250.048C668.648 248.88 669.72 248.256 671.336 248.256C673.56 248.256 675.064 249.664 675.064 251.856C675.064 253.856 673.192 255.952 671.08 258.16C671.672 258.096 672.456 258.016 673.016 258.016H675.608V260H667.672ZM682.454 260V253.04C682.454 252.352 682.518 251.248 682.55 250.56H682.486C682.182 251.184 681.862 251.776 681.526 252.432L679.702 255.328H686.054V257.136H677.414V255.52L681.814 248.464H684.646V260H682.454ZM688.419 263.44V251.056H690.323L690.515 251.984H690.563C691.299 251.328 692.227 250.832 693.187 250.832C695.395 250.832 696.707 252.624 696.707 255.392C696.707 258.464 694.867 260.224 692.899 260.224C692.131 260.224 691.363 259.888 690.691 259.264L690.771 260.72V263.44H688.419ZM692.387 258.288C693.459 258.288 694.291 257.36 694.291 255.424C694.291 253.696 693.763 252.752 692.515 252.752C691.923 252.752 691.379 253.056 690.771 253.68V257.632C691.331 258.128 691.907 258.288 692.387 258.288ZM697.816 260L700.632 255.344L698.008 251.056H700.52L701.432 252.624C701.672 253.152 701.944 253.648 702.216 254.16H702.296C702.504 253.648 702.728 253.152 702.952 252.624L703.688 251.056H706.12L703.496 255.6L706.312 260H703.784L702.792 258.352C702.504 257.84 702.216 257.296 701.912 256.8H701.832C701.576 257.296 701.336 257.824 701.08 258.352L700.264 260H697.816Z" fill="black"/>
<path d="M667.672 204V202.656C670.76 199.696 672.792 197.696 672.792 195.968C672.792 194.8 672.168 194.096 671.032 194.096C670.152 194.096 669.464 194.688 668.856 195.328L667.56 194.048C668.648 192.88 669.72 192.256 671.336 192.256C673.56 192.256 675.064 193.664 675.064 195.856C675.064 197.856 673.192 199.952 671.08 202.16C671.672 202.096 672.456 202.016 673.016 202.016H675.608V204H667.672ZM682.454 204V197.04C682.454 196.352 682.518 195.248 682.55 194.56H682.486C682.182 195.184 681.862 195.776 681.526 196.432L679.702 199.328H686.054V201.136H677.414V199.52L681.814 192.464H684.646V204H682.454ZM688.419 207.44V195.056H690.323L690.515 195.984H690.563C691.299 195.328 692.227 194.832 693.187 194.832C695.395 194.832 696.707 196.624 696.707 199.392C696.707 202.464 694.867 204.224 692.899 204.224C692.131 204.224 691.363 203.888 690.691 203.264L690.771 204.72V207.44H688.419ZM692.387 202.288C693.459 202.288 694.291 201.36 694.291 199.424C694.291 197.696 693.763 196.752 692.515 196.752C691.923 196.752 691.379 197.056 690.771 197.68V201.632C691.331 202.128 691.907 202.288 692.387 202.288ZM697.816 204L700.632 199.344L698.008 195.056H700.52L701.432 196.624C701.672 197.152 701.944 197.648 702.216 198.16H702.296C702.504 197.648 702.728 197.152 702.952 196.624L703.688 195.056H706.12L703.496 199.6L706.312 204H703.784L702.792 202.352C702.504 201.84 702.216 201.296 701.912 200.8H701.832C701.576 201.296 701.336 201.824 701.08 202.352L700.264 204H697.816Z" fill="black"/>
<path d="M667.672 148V146.656C670.76 143.696 672.792 141.696 672.792 139.968C672.792 138.8 672.168 138.096 671.032 138.096C670.152 138.096 669.464 138.688 668.856 139.328L667.56 138.048C668.648 136.88 669.72 136.256 671.336 136.256C673.56 136.256 675.064 137.664 675.064 139.856C675.064 141.856 673.192 143.952 671.08 146.16C671.672 146.096 672.456 146.016 673.016 146.016H675.608V148H667.672ZM682.454 148V141.04C682.454 140.352 682.518 139.248 682.55 138.56H682.486C682.182 139.184 681.862 139.776 681.526 140.432L679.702 143.328H686.054V145.136H677.414V143.52L681.814 136.464H684.646V148H682.454ZM688.419 151.44V139.056H690.323L690.515 139.984H690.563C691.299 139.328 692.227 138.832 693.187 138.832C695.395 138.832 696.707 140.624 696.707 143.392C696.707 146.464 694.867 148.224 692.899 148.224C692.131 148.224 691.363 147.888 690.691 147.264L690.771 148.72V151.44H688.419ZM692.387 146.288C693.459 146.288 694.291 145.36 694.291 143.424C694.291 141.696 693.763 140.752 692.515 140.752C691.923 140.752 691.379 141.056 690.771 141.68V145.632C691.331 146.128 691.907 146.288 692.387 146.288ZM697.816 148L700.632 143.344L698.008 139.056H700.52L701.432 140.624C701.672 141.152 701.944 141.648 702.216 142.16H702.296C702.504 141.648 702.728 141.152 702.952 140.624L703.688 139.056H706.12L703.496 143.6L706.312 148H703.784L702.792 146.352C702.504 145.84 702.216 145.296 701.912 144.8H701.832C701.576 145.296 701.336 145.824 701.08 146.352L700.264 148H697.816Z" fill="black"/>
<path d="M668.296 428V426.096H670.856V418.928H668.696V417.472C669.896 417.232 670.696 416.928 671.464 416.464H673.208V426.096H675.432V428H668.296ZM682.118 428.224C679.862 428.224 677.846 426.512 677.846 422.544C677.846 418.144 680.054 416.256 682.438 416.256C683.894 416.256 684.95 416.864 685.654 417.584L684.406 419.008C683.99 418.528 683.27 418.16 682.582 418.16C681.158 418.16 680.006 419.248 680.006 422.544C680.006 425.408 680.902 426.448 682.054 426.448C682.966 426.448 683.686 425.76 683.686 424.4C683.686 423.104 683.014 422.512 681.99 422.512C681.35 422.512 680.614 422.864 680.006 423.872L679.91 422.272C680.55 421.376 681.622 420.848 682.422 420.848C684.406 420.848 685.83 421.984 685.83 424.4C685.83 426.752 684.134 428.224 682.118 428.224ZM688.419 431.44V419.056H690.323L690.515 419.984H690.563C691.299 419.328 692.227 418.832 693.187 418.832C695.395 418.832 696.707 420.624 696.707 423.392C696.707 426.464 694.867 428.224 692.899 428.224C692.131 428.224 691.363 427.888 690.691 427.264L690.771 428.72V431.44H688.419ZM692.387 426.288C693.459 426.288 694.291 425.36 694.291 423.424C694.291 421.696 693.763 420.752 692.515 420.752C691.923 420.752 691.379 421.056 690.771 421.68V425.632C691.331 426.128 691.907 426.288 692.387 426.288ZM697.816 428L700.632 423.344L698.008 419.056H700.52L701.432 420.624C701.672 421.152 701.944 421.648 702.216 422.16H702.296C702.504 421.648 702.728 421.152 702.952 420.624L703.688 419.056H706.12L703.496 423.6L706.312 428H703.784L702.792 426.352C702.504 425.84 702.216 425.296 701.912 424.8H701.832C701.576 425.296 701.336 425.824 701.08 426.352L700.264 428H697.816Z" fill="black"/>
<path d="M668.296 372V370.096H670.856V362.928H668.696V361.472C669.896 361.232 670.696 360.928 671.464 360.464H673.208V370.096H675.432V372H668.296ZM682.118 372.224C679.862 372.224 677.846 370.512 677.846 366.544C677.846 362.144 680.054 360.256 682.438 360.256C683.894 360.256 684.95 360.864 685.654 361.584L684.406 363.008C683.99 362.528 683.27 362.16 682.582 362.16C681.158 362.16 680.006 363.248 680.006 366.544C680.006 369.408 680.902 370.448 682.054 370.448C682.966 370.448 683.686 369.76 683.686 368.4C683.686 367.104 683.014 366.512 681.99 366.512C681.35 366.512 680.614 366.864 680.006 367.872L679.91 366.272C680.55 365.376 681.622 364.848 682.422 364.848C684.406 364.848 685.83 365.984 685.83 368.4C685.83 370.752 684.134 372.224 682.118 372.224ZM688.419 375.44V363.056H690.323L690.515 363.984H690.563C691.299 363.328 692.227 362.832 693.187 362.832C695.395 362.832 696.707 364.624 696.707 367.392C696.707 370.464 694.867 372.224 692.899 372.224C692.131 372.224 691.363 371.888 690.691 371.264L690.771 372.72V375.44H688.419ZM692.387 370.288C693.459 370.288 694.291 369.36 694.291 367.424C694.291 365.696 693.763 364.752 692.515 364.752C691.923 364.752 691.379 365.056 690.771 365.68V369.632C691.331 370.128 691.907 370.288 692.387 370.288ZM697.816 372L700.632 367.344L698.008 363.056H700.52L701.432 364.624C701.672 365.152 701.944 365.648 702.216 366.16H702.296C702.504 365.648 702.728 365.152 702.952 364.624L703.688 363.056H706.12L703.496 367.6L706.312 372H703.784L702.792 370.352C702.504 369.84 702.216 369.296 701.912 368.8H701.832C701.576 369.296 701.336 369.824 701.08 370.352L700.264 372H697.816Z" fill="black"/>
<path d="M668.296 316V314.096H670.856V306.928H668.696V305.472C669.896 305.232 670.696 304.928 671.464 304.464H673.208V314.096H675.432V316H668.296ZM682.118 316.224C679.862 316.224 677.846 314.512 677.846 310.544C677.846 306.144 680.054 304.256 682.438 304.256C683.894 304.256 684.95 304.864 685.654 305.584L684.406 307.008C683.99 306.528 683.27 306.16 682.582 306.16C681.158 306.16 680.006 307.248 680.006 310.544C680.006 313.408 680.902 314.448 682.054 314.448C682.966 314.448 683.686 313.76 683.686 312.4C683.686 311.104 683.014 310.512 681.99 310.512C681.35 310.512 680.614 310.864 680.006 311.872L679.91 310.272C680.55 309.376 681.622 308.848 682.422 308.848C684.406 308.848 685.83 309.984 685.83 312.4C685.83 314.752 684.134 316.224 682.118 316.224ZM688.419 319.44V307.056H690.323L690.515 307.984H690.563C691.299 307.328 692.227 306.832 693.187 306.832C695.395 306.832 696.707 308.624 696.707 311.392C696.707 314.464 694.867 316.224 692.899 316.224C692.131 316.224 691.363 315.888 690.691 315.264L690.771 316.72V319.44H688.419ZM692.387 314.288C693.459 314.288 694.291 313.36 694.291 311.424C694.291 309.696 693.763 308.752 692.515 308.752C691.923 308.752 691.379 309.056 690.771 309.68V313.632C691.331 314.128 691.907 314.288 692.387 314.288ZM697.816 316L700.632 311.344L698.008 307.056H700.52L701.432 308.624C701.672 309.152 701.944 309.648 702.216 310.16H702.296C702.504 309.648 702.728 309.152 702.952 308.624L703.688 307.056H706.12L703.496 311.6L706.312 316H703.784L702.792 314.352C702.504 313.84 702.216 313.296 701.912 312.8H701.832C701.576 313.296 701.336 313.824 701.08 314.352L700.264 316H697.816Z" fill="black"/>
<path d="M548.6 91V79.272H550.088V84.184H555.56V79.272H557.032V91H555.56V85.48H550.088V91H548.6ZM568.289 80.088C568.081 81.752 567.761 83.624 567.265 85.336C566.289 88.616 565.009 90.312 563.537 90.312C562.097 90.312 560.673 88.68 560.673 86.024C560.673 82.552 563.761 79.528 567.681 79.528C571.425 79.528 573.809 82.168 573.809 85.416C573.809 88.76 571.601 91 567.793 91.496L567.057 90.312C567.569 90.264 568.049 90.2 568.433 90.12C570.481 89.656 572.497 88.12 572.497 85.352C572.497 82.792 570.721 80.68 567.649 80.68C564.129 80.68 561.937 83.576 561.937 85.928C561.937 87.944 562.849 88.84 563.569 88.84C564.321 88.84 565.185 87.752 566.001 85.048C566.465 83.528 566.801 81.72 566.961 80.056L568.289 80.088ZM583.441 82.744H590.017V83.944H583.441V82.744ZM576.737 90.328H591.105V91.528H576.737V90.328ZM582.753 77.8H584.017V90.968H582.753V77.8Z" fill="black"/>
<path d="M668.6 91V79.272H670.088V84.184H675.56V79.272H677.032V91H675.56V85.48H670.088V91H668.6ZM692.289 81.464C691.937 81.672 691.537 81.896 691.057 82.136C689.985 82.696 687.761 83.752 686.193 84.776C684.705 85.752 683.809 86.808 683.809 88.008C683.809 89.336 685.089 90.168 687.617 90.168C689.345 90.168 691.489 89.944 692.737 89.624L692.721 91.064C691.521 91.272 689.665 91.448 687.665 91.448C684.657 91.448 682.481 90.552 682.481 88.152C682.481 86.424 683.649 85.064 685.537 83.816C687.169 82.728 689.409 81.656 690.449 81.064C690.913 80.792 691.265 80.584 691.601 80.312L692.289 81.464ZM684.193 78.552C684.929 80.6 685.921 82.6 686.657 83.896L685.569 84.552C684.753 83.24 683.793 81.08 682.929 79.096L684.193 78.552ZM697.521 91V79.272H700.993C703.377 79.272 705.025 80.088 705.025 82.152C705.025 83.304 704.417 84.328 703.313 84.696V84.76C704.721 85.032 705.697 85.976 705.697 87.576C705.697 89.864 703.873 91 701.265 91H697.521ZM699.009 84.264H700.737C702.753 84.264 703.569 83.528 703.569 82.328C703.569 80.952 702.641 80.44 700.817 80.44H699.009V84.264ZM699.009 89.832H701.057C703.057 89.832 704.257 89.112 704.257 87.528C704.257 86.072 703.105 85.4 701.057 85.4H699.009V89.832ZM711.924 91.224C709.78 91.224 707.892 89.544 707.892 86.68C707.892 83.768 709.78 82.104 711.924 82.104C714.052 82.104 715.94 83.768 715.94 86.68C715.94 89.544 714.052 91.224 711.924 91.224ZM711.924 90.008C713.428 90.008 714.436 88.664 714.436 86.68C714.436 84.664 713.428 83.32 711.924 83.32C710.404 83.32 709.396 84.664 709.396 86.68C709.396 88.664 710.404 90.008 711.924 90.008ZM721.835 91.224C719.659 91.224 718.251 89.576 718.251 86.68C718.251 83.848 720.043 82.104 722.027 82.104C723.035 82.104 723.707 82.472 724.459 83.112L724.395 81.608V78.28H725.851V91H724.651L724.523 89.976H724.491C723.803 90.664 722.891 91.224 721.835 91.224ZM722.155 89.992C722.971 89.992 723.675 89.592 724.395 88.808V84.248C723.659 83.576 722.987 83.32 722.267 83.32C720.875 83.32 719.771 84.68 719.771 86.664C719.771 88.744 720.635 89.992 722.155 89.992ZM729.581 94.76C729.181 94.76 728.845 94.696 728.573 94.584L728.861 93.416C729.021 93.48 729.277 93.544 729.517 93.544C730.493 93.544 731.117 92.744 731.485 91.672L731.677 91.016L728.189 82.312H729.693L731.469 87.144C731.741 87.912 732.029 88.792 732.317 89.592H732.397C732.637 88.792 732.893 87.928 733.117 87.144L734.685 82.312H736.109L732.829 91.736C732.221 93.448 731.325 94.76 729.581 94.76ZM745.973 80.088C745.765 81.752 745.445 83.624 744.949 85.336C743.973 88.616 742.693 90.312 741.221 90.312C739.781 90.312 738.357 88.68 738.357 86.024C738.357 82.552 741.445 79.528 745.365 79.528C749.109 79.528 751.493 82.168 751.493 85.416C751.493 88.76 749.285 91 745.477 91.496L744.741 90.312C745.253 90.264 745.733 90.2 746.117 90.12C748.165 89.656 750.181 88.12 750.181 85.352C750.181 82.792 748.405 80.68 745.333 80.68C741.813 80.68 739.621 83.576 739.621 85.928C739.621 87.944 740.533 88.84 741.253 88.84C742.005 88.84 742.869 87.752 743.685 85.048C744.149 83.528 744.485 81.72 744.645 80.056L745.973 80.088ZM759.157 87.368H764.005V88.296H759.157V87.368ZM759.109 84.952H764.565V90.792H759.109V89.864H763.429V85.896H759.109V84.952ZM758.581 84.952H759.685V91.608H758.581V84.952ZM755.637 80.52H760.085V81.4H755.637V80.52ZM763.013 80.52H767.541V81.4H763.013V80.52ZM767.045 78.248H768.245V90.696C768.245 91.464 768.069 91.864 767.557 92.072C767.045 92.264 766.181 92.28 764.837 92.28C764.789 91.944 764.597 91.384 764.421 91.048C765.397 91.096 766.373 91.08 766.661 91.064C766.949 91.064 767.045 90.968 767.045 90.696V78.248ZM755.733 78.248H760.853V83.752H755.733V82.824H759.717V79.176H755.733V78.248ZM767.637 78.248V79.176H763.445V82.856H767.637V83.768H762.293V78.248H767.637ZM755.045 78.248H756.229V92.296H755.045V78.248Z" fill="black"/>
<path d="M472.6 259V247.272H474.088V252.184H479.56V247.272H481.032V259H479.56V253.48H474.088V259H472.6ZM487.489 259.224C485.649 259.224 484.513 258.456 483.745 257.608L484.481 256.648C485.169 257.368 486.049 258.008 487.393 258.008C488.785 258.008 489.777 257.192 489.777 255.912C489.777 254.552 488.833 253.64 486.129 253.64V252.52C488.545 252.52 489.361 251.576 489.361 250.376C489.361 249.272 488.609 248.568 487.393 248.568C486.449 248.568 485.617 249.064 484.961 249.736L484.177 248.808C485.057 247.992 486.097 247.4 487.441 247.4C489.409 247.4 490.849 248.44 490.849 250.28C490.849 251.656 490.017 252.536 488.769 253V253.064C490.145 253.384 491.265 254.408 491.265 255.96C491.265 257.992 489.585 259.224 487.489 259.224Z" fill="black"/>
<path d="M472.6 315V303.272H474.088V308.184H479.56V303.272H481.032V315H479.56V309.48H474.088V315H472.6ZM488.705 315V307.352C488.705 306.76 488.753 305.768 488.801 305.176H488.721C488.433 305.704 488.113 306.216 487.793 306.776L485.121 310.696H491.649V311.848H483.585V310.888L488.465 303.608H490.081V315H488.705Z" fill="black"/>
<path d="M472.6 371V359.272H474.088V364.184H479.56V359.272H481.032V371H479.56V365.48H474.088V371H472.6ZM487.457 371.224C485.633 371.224 484.513 370.456 483.713 369.656L484.449 368.696C485.105 369.384 485.969 370.008 487.313 370.008C488.705 370.008 489.809 369 489.809 367.4C489.809 365.832 488.849 364.888 487.393 364.888C486.609 364.888 486.113 365.144 485.441 365.592L484.657 365.096L485.025 359.608H490.737V360.856H486.305L486.001 364.248C486.529 363.96 487.057 363.784 487.761 363.784C489.713 363.784 491.297 364.888 491.297 367.352C491.297 369.832 489.425 371.224 487.457 371.224Z" fill="black"/>
<path d="M472.6 427V415.272H474.088V420.184H479.56V415.272H481.032V427H479.56V421.48H474.088V427H472.6ZM488.081 427.224C485.825 427.224 484.129 425.4 484.129 421.736C484.129 417.144 486.209 415.4 488.481 415.4C489.697 415.4 490.593 415.912 491.217 416.584L490.417 417.496C489.953 416.952 489.249 416.616 488.529 416.616C486.897 416.616 485.521 417.896 485.521 421.736C485.521 424.552 486.417 426.072 488.065 426.072C489.201 426.072 490.065 425.064 490.065 423.56C490.065 422.072 489.361 421.128 487.937 421.128C487.201 421.128 486.273 421.576 485.473 422.76L485.425 421.592C486.161 420.632 487.217 420.04 488.177 420.04C490.145 420.04 491.441 421.224 491.441 423.56C491.441 425.752 489.889 427.224 488.081 427.224Z" fill="black"/>
<path d="M539 56V448" stroke="#CCCCCC"/>
<path d="M659 56V448" stroke="#CCCCCC"/>
<path d="M779 56V448" stroke="#CCCCCC"/>
<path d="M779 112L456 112" stroke="#CCCCCC"/>
<path d="M779 168L456 168" stroke="#CCCCCC"/>
<path d="M779 224L456 224" stroke="#CCCCCC"/>
<path d="M779 280L456 280" stroke="#CCCCCC"/>
<path d="M779 336L456 336" stroke="#CCCCCC"/>
<path d="M779 392L456 392" stroke="#CCCCCC"/>
<path d="M779 448L456 448" stroke="#CCCCCC"/>
<path d="M779 56L456 56" stroke="#CCCCCC"/>
<path d="M456 56V448" stroke="#CCCCCC"/>
<path opacity="0.9" d="M59.598 159.006V160.448H66.388V159.006H59.598ZM59.598 161.33V162.786H66.388V161.33H59.598ZM59.598 156.682V158.11H66.388V156.682H59.598ZM58.576 155.744H67.452V163.738H58.576V155.744ZM63.896 163.052H64.96V166.538C64.96 166.944 65.072 167.014 65.674 167.014C65.968 167.014 67.382 167.014 67.76 167.014C68.334 167.014 68.432 166.776 68.488 165.026C68.712 165.222 69.174 165.39 69.468 165.46C69.342 167.504 69.034 168.022 67.844 168.022C67.55 168.022 65.856 168.022 65.576 168.022C64.246 168.022 63.896 167.7 63.896 166.538V163.052ZM60.522 163.346H61.656C61.362 165.838 60.522 167.364 57.148 168.134C57.05 167.868 56.756 167.434 56.546 167.21C59.626 166.594 60.284 165.39 60.522 163.346ZM72.646 166.216H82.53V167.252H72.646V166.216ZM76.944 155.324H78.022V166.804H76.944V155.324ZM72.128 162.31H73.192V168.134H72.128V162.31ZM81.97 162.31H83.048V168.092H81.97V162.31ZM72.674 156.584H73.71V160.392H81.396V156.584H82.488V161.414H72.674V156.584ZM89.88 156.094C89.81 156.556 89.768 157.046 89.74 157.508C89.684 159.09 89.572 162.408 89.572 164.494C89.572 166.034 90.538 166.566 91.868 166.566C94.43 166.566 95.886 165.138 96.894 163.682L97.678 164.634C96.726 165.964 94.906 167.714 91.84 167.714C89.824 167.714 88.438 166.888 88.438 164.592C88.438 162.52 88.578 158.978 88.578 157.508C88.578 156.99 88.536 156.5 88.452 156.094H89.88ZM107.562 157.452C107.38 158.908 107.1 160.546 106.666 162.044C105.812 164.914 104.692 166.398 103.404 166.398C102.144 166.398 100.898 164.97 100.898 162.646C100.898 159.608 103.6 156.962 107.03 156.962C110.306 156.962 112.392 159.272 112.392 162.114C112.392 165.04 110.46 167 107.128 167.434L106.484 166.398C106.932 166.356 107.352 166.3 107.688 166.23C109.48 165.824 111.244 164.48 111.244 162.058C111.244 159.818 109.69 157.97 107.002 157.97C103.922 157.97 102.004 160.504 102.004 162.562C102.004 164.326 102.802 165.11 103.432 165.11C104.09 165.11 104.846 164.158 105.56 161.792C105.966 160.462 106.26 158.88 106.4 157.424L107.562 157.452ZM120.82 159.776H126.574V160.826H120.82V159.776ZM114.954 166.412H127.526V167.462H114.954V166.412ZM120.218 155.45H121.324V166.972H120.218V155.45ZM132.622 167.784C131.712 166.678 130.508 165.488 129.514 164.676L130.424 163.878C131.432 164.69 132.692 165.95 133.574 166.972L132.622 167.784ZM146.958 159.006V160.448H153.748V159.006H146.958ZM146.958 161.33V162.786H153.748V161.33H146.958ZM146.958 156.682V158.11H153.748V156.682H146.958ZM145.936 155.744H154.812V163.738H145.936V155.744ZM151.256 163.052H152.32V166.538C152.32 166.944 152.432 167.014 153.034 167.014C153.328 167.014 154.742 167.014 155.12 167.014C155.694 167.014 155.792 166.776 155.848 165.026C156.072 165.222 156.534 165.39 156.828 165.46C156.702 167.504 156.394 168.022 155.204 168.022C154.91 168.022 153.216 168.022 152.936 168.022C151.606 168.022 151.256 167.7 151.256 166.538V163.052ZM147.882 163.346H149.016C148.722 165.838 147.882 167.364 144.508 168.134C144.41 167.868 144.116 167.434 143.906 167.21C146.986 166.594 147.644 165.39 147.882 163.346ZM160.006 166.216H169.89V167.252H160.006V166.216ZM164.304 155.324H165.382V166.804H164.304V155.324ZM159.488 162.31H160.552V168.134H159.488V162.31ZM169.33 162.31H170.408V168.092H169.33V162.31ZM160.034 156.584H161.07V160.392H168.756V156.584H169.848V161.414H160.034V156.584ZM177.24 156.094C177.17 156.556 177.128 157.046 177.1 157.508C177.044 159.09 176.932 162.408 176.932 164.494C176.932 166.034 177.898 166.566 179.228 166.566C181.79 166.566 183.246 165.138 184.254 163.682L185.038 164.634C184.086 165.964 182.266 167.714 179.2 167.714C177.184 167.714 175.798 166.888 175.798 164.592C175.798 162.52 175.938 158.978 175.938 157.508C175.938 156.99 175.896 156.5 175.812 156.094H177.24ZM198.422 158.656C198.114 158.838 197.764 159.034 197.344 159.244C196.406 159.734 194.46 160.658 193.088 161.554C191.786 162.408 191.002 163.332 191.002 164.382C191.002 165.544 192.122 166.272 194.334 166.272C195.846 166.272 197.722 166.076 198.814 165.796L198.8 167.056C197.75 167.238 196.126 167.392 194.376 167.392C191.744 167.392 189.84 166.608 189.84 164.508C189.84 162.996 190.862 161.806 192.514 160.714C193.942 159.762 195.902 158.824 196.812 158.306C197.218 158.068 197.526 157.886 197.82 157.648L198.422 158.656ZM191.338 156.108C191.982 157.9 192.85 159.65 193.494 160.784L192.542 161.358C191.828 160.21 190.988 158.32 190.232 156.584L191.338 156.108ZM202.496 158.194H214.718V159.258H202.496V158.194ZM205.296 164.438H211.82V165.502H205.296V164.438ZM208.026 155.254H209.132V168.12H208.026V155.254ZM207.704 158.544L208.642 158.866C207.396 161.834 205.198 164.508 202.776 165.922C202.608 165.656 202.258 165.264 202.02 165.054C204.358 163.836 206.584 161.232 207.704 158.544ZM209.482 158.586C210.588 161.246 212.786 163.794 215.208 164.956C214.942 165.18 214.578 165.6 214.41 165.894C211.932 164.522 209.776 161.848 208.544 158.908L209.482 158.586ZM226.296 158.152L227.402 158.474C225.638 163.612 222.46 166.496 217.364 168.148C217.252 167.882 216.916 167.378 216.692 167.126C221.69 165.698 224.728 162.954 226.296 158.152ZM219.94 158.222C221.452 162.702 224.602 165.922 229.656 167.098C229.404 167.35 229.068 167.826 228.9 168.134C223.706 166.776 220.626 163.444 218.904 158.544L219.94 158.222ZM216.86 157.62H229.516V158.656H216.86V157.62ZM222.6 155.24H223.678V158.25H222.6V155.24ZM242.102 158.656C241.794 158.838 241.444 159.034 241.024 159.244C240.086 159.734 238.14 160.658 236.768 161.554C235.466 162.408 234.682 163.332 234.682 164.382C234.682 165.544 235.802 166.272 238.014 166.272C239.526 166.272 241.402 166.076 242.494 165.796L242.48 167.056C241.43 167.238 239.806 167.392 238.056 167.392C235.424 167.392 233.52 166.608 233.52 164.508C233.52 162.996 234.542 161.806 236.194 160.714C237.622 159.762 239.582 158.824 240.492 158.306C240.898 158.068 241.206 157.886 241.5 157.648L242.102 158.656ZM235.018 156.108C235.662 157.9 236.53 159.65 237.174 160.784L236.222 161.358C235.508 160.21 234.668 158.32 233.912 156.584L235.018 156.108ZM253.025 157.452C252.843 158.908 252.563 160.546 252.129 162.044C251.275 164.914 250.155 166.398 248.867 166.398C247.607 166.398 246.361 164.97 246.361 162.646C246.361 159.608 249.063 156.962 252.493 156.962C255.769 156.962 257.855 159.272 257.855 162.114C257.855 165.04 255.923 167 252.591 167.434L251.947 166.398C252.395 166.356 252.815 166.3 253.151 166.23C254.943 165.824 256.707 164.48 256.707 162.058C256.707 159.818 255.153 157.97 252.465 157.97C249.385 157.97 247.467 160.504 247.467 162.562C247.467 164.326 248.265 165.11 248.895 165.11C249.553 165.11 250.309 164.158 251.023 161.792C251.429 160.462 251.723 158.88 251.863 157.424L253.025 157.452ZM264.561 163.822H268.803V164.634H264.561V163.822ZM264.519 161.708H269.293V166.818H264.519V166.006H268.299V162.534H264.519V161.708ZM264.057 161.708H265.023V167.532H264.057V161.708ZM261.481 157.83H265.373V158.6H261.481V157.83ZM267.935 157.83H271.897V158.6H267.935V157.83ZM271.463 155.842H272.513V166.734C272.513 167.406 272.359 167.756 271.911 167.938C271.463 168.106 270.707 168.12 269.531 168.12C269.489 167.826 269.321 167.336 269.167 167.042C270.021 167.084 270.875 167.07 271.127 167.056C271.379 167.056 271.463 166.972 271.463 166.734V155.842ZM261.565 155.842H266.045V160.658H261.565V159.846H265.051V156.654H261.565V155.842ZM271.981 155.842V156.654H268.313V159.874H271.981V160.672H267.305V155.842H271.981ZM260.963 155.842H261.999V168.134H260.963V155.842ZM280.633 157.55C282.159 157.816 285.001 157.76 286.387 157.55V158.684C284.889 158.852 282.173 158.852 280.647 158.684L280.633 157.55ZM281.179 163.262C281.053 163.766 280.983 164.158 280.983 164.536C280.983 165.18 281.431 165.81 283.349 165.81C284.595 165.81 285.687 165.698 286.807 165.432L286.835 166.608C285.967 166.79 284.791 166.902 283.335 166.902C280.997 166.902 279.947 166.118 279.947 164.802C279.947 164.34 280.017 163.836 280.171 163.164L281.179 163.262ZM277.973 156.472C277.889 156.71 277.777 157.158 277.721 157.41C277.455 158.712 277.021 161.204 277.021 162.786C277.021 163.458 277.063 164.046 277.147 164.732C277.385 164.102 277.707 163.262 277.945 162.688L278.533 163.15C278.183 164.144 277.665 165.614 277.539 166.286C277.497 166.482 277.469 166.748 277.469 166.916C277.483 167.056 277.497 167.252 277.511 167.406L276.517 167.476C276.237 166.482 275.999 164.872 275.999 162.968C275.999 160.91 276.461 158.516 276.629 157.354C276.671 157.032 276.713 156.682 276.727 156.374L277.973 156.472ZM293.303 156.794H302.291V157.774H293.303V156.794ZM294.689 160.028V162.128H300.807V160.028H294.689ZM293.723 159.132H301.829V163.024H293.723V159.132ZM294.591 163.304C295.907 165.502 298.777 166.804 302.417 167.21C302.193 167.434 301.927 167.854 301.787 168.148C298.077 167.616 295.207 166.16 293.723 163.598L294.591 163.304ZM297.195 155.296H298.231V161.498C298.231 164.2 297.769 166.888 293.429 168.176C293.303 167.938 293.009 167.518 292.799 167.294C296.957 166.244 297.195 163.85 297.195 161.484V155.296ZM292.701 155.212L293.695 155.52C292.743 157.886 291.245 160.238 289.691 161.792C289.593 161.554 289.299 161.008 289.103 160.756C290.517 159.426 291.889 157.34 292.701 155.212ZM291.231 158.88L292.225 157.886L292.239 157.9V168.19H291.231V158.88ZM313.449 162.352C313.449 161.162 312.497 160.336 311.055 160.336C309.445 160.336 308.059 160.798 307.247 161.036C306.813 161.162 306.393 161.316 306.057 161.456L305.707 160.168C306.099 160.14 306.561 160.042 306.995 159.958C307.975 159.734 309.557 159.286 311.181 159.286C313.169 159.286 314.639 160.392 314.639 162.394C314.639 165.432 311.923 167.126 308.297 167.686L307.653 166.622C311.055 166.188 313.449 164.858 313.449 162.352ZM307.569 156.038C309.123 156.388 312.161 156.682 313.519 156.696L313.351 157.774C311.797 157.662 308.983 157.382 307.401 157.102L307.569 156.038ZM67.186 182.648C67.102 182.76 66.92 183.068 66.85 183.25C66.29 184.636 65.226 186.596 64.064 187.884C62.496 189.634 60.494 191.3 58.282 192.308L57.386 191.37C59.654 190.502 61.712 188.822 63.154 187.226C64.106 186.148 65.128 184.482 65.492 183.32C64.988 183.32 60.508 183.32 60.032 183.32C59.528 183.32 58.772 183.376 58.618 183.39V182.13C58.8 182.158 59.598 182.214 60.032 182.214C60.578 182.214 64.904 182.214 65.436 182.214C65.884 182.214 66.262 182.172 66.486 182.102L67.186 182.648ZM64.246 187.156C65.758 188.416 67.62 190.376 68.572 191.538L67.606 192.392C66.598 191.062 64.96 189.27 63.448 187.94L64.246 187.156ZM79.4316 183.6C79.4316 184.174 79.8936 184.636 80.4536 184.636C81.0276 184.636 81.4756 184.174 81.4756 183.6C81.4756 183.04 81.0276 182.578 80.4536 182.578C79.8936 182.578 79.4316 183.04 79.4316 183.6ZM78.7596 183.6C78.7596 182.662 79.5156 181.906 80.4536 181.906C81.3916 181.906 82.1616 182.662 82.1616 183.6C82.1616 184.538 81.3916 185.308 80.4536 185.308C79.5156 185.308 78.7596 184.538 78.7596 183.6ZM70.3176 188.318C70.6676 188.01 70.9336 187.758 71.2976 187.394C71.9696 186.722 73.1876 185.168 74.0696 184.118C74.8116 183.236 75.4696 183.082 76.4216 183.992C77.2756 184.79 78.4796 186.05 79.2916 186.918C80.2436 187.926 81.6436 189.438 82.7216 190.6L81.7556 191.622C80.7616 190.418 79.5296 188.976 78.6196 187.954C77.8076 187.044 76.5196 185.658 75.9316 185.07C75.3856 184.552 75.1196 184.594 74.6436 185.182C73.9716 185.994 72.7956 187.534 72.1656 188.304C71.8716 188.668 71.5776 189.102 71.3536 189.382L70.3176 188.318ZM85.5496 185.938C85.9836 185.98 86.7116 186.022 87.5096 186.022C88.5316 186.022 94.1456 186.022 95.1816 186.022C95.8816 186.022 96.3716 185.966 96.6936 185.938V187.31C96.3996 187.296 95.8116 187.254 95.1956 187.254C94.1316 187.254 88.5456 187.254 87.5096 187.254C86.7396 187.254 85.9976 187.282 85.5496 187.31V185.938ZM102.622 181.248C103.448 181.71 105.058 182.788 105.674 183.236L105.016 184.188C104.344 183.67 102.818 182.662 102.006 182.2L102.622 181.248ZM100.522 191.258C102.062 190.992 103.798 190.432 105.226 189.634C107.55 188.304 109.398 186.47 110.518 184.496L111.204 185.658C109.986 187.534 108.054 189.34 105.814 190.656C104.4 191.482 102.468 192.126 101.18 192.392L100.522 191.258ZM100.522 184.398C101.348 184.846 102.986 185.854 103.588 186.288L102.944 187.268C102.258 186.764 100.746 185.798 99.8922 185.35L100.522 184.398ZM116.16 181.752C117.14 182.41 118.946 183.866 119.716 184.636L118.848 185.532C118.134 184.804 116.398 183.292 115.348 182.606L116.16 181.752ZM114.956 191.132C117.392 190.768 119.212 189.914 120.542 189.088C122.712 187.73 124.406 185.658 125.218 183.922L125.89 185.126C124.938 186.862 123.314 188.766 121.2 190.096C119.786 190.978 118.022 191.846 115.684 192.28L114.956 191.132ZM138.252 180.8C138.602 181.304 139.106 182.158 139.386 182.718L138.63 183.068C138.35 182.494 137.874 181.654 137.496 181.122L138.252 180.8ZM139.778 180.24C140.156 180.758 140.688 181.626 140.954 182.144L140.198 182.48C139.89 181.878 139.442 181.08 139.05 180.562L139.778 180.24ZM139.176 183.586C139.064 183.796 138.924 184.118 138.854 184.342C138.476 185.742 137.608 187.646 136.376 189.158C135.102 190.712 133.422 192 130.79 192.966L129.782 192.056C132.358 191.3 134.094 190.026 135.368 188.542C136.46 187.254 137.314 185.448 137.608 184.174H132.414L132.862 183.166C133.436 183.166 136.894 183.166 137.328 183.166C137.706 183.166 138.014 183.124 138.252 183.026L139.176 183.586ZM134.486 181.472C134.262 181.836 134.01 182.312 133.87 182.578C133.044 184.118 131.574 186.12 129.334 187.618L128.354 186.89C130.776 185.448 132.148 183.418 132.764 182.158C132.904 181.92 133.114 181.402 133.198 181.052L134.486 181.472ZM147.674 183.726C148.472 183.81 149.228 183.852 150.054 183.852C151.734 183.852 153.456 183.726 154.87 183.432V184.51C153.386 184.762 151.678 184.874 150.04 184.874C149.228 184.874 148.5 184.846 147.688 184.79L147.674 183.726ZM152.574 181.22C152.532 181.5 152.504 181.794 152.49 182.06C152.462 182.578 152.448 183.572 152.448 184.398C152.448 186.554 152.658 188.738 152.658 190.18C152.658 191.328 152.126 192.448 150.236 192.448C148.36 192.448 147.338 191.692 147.338 190.432C147.338 189.256 148.374 188.332 150.222 188.332C152.574 188.332 154.212 189.522 155.388 190.586L154.786 191.51C153.316 190.138 151.902 189.186 150.124 189.186C149.074 189.186 148.346 189.648 148.346 190.32C148.346 191.048 149.032 191.426 150.054 191.426C151.23 191.426 151.566 190.838 151.566 189.9C151.566 188.892 151.384 186.274 151.384 184.426C151.384 183.46 151.37 182.578 151.37 182.088C151.37 181.836 151.356 181.472 151.314 181.22H152.574ZM145.672 181.318C145.588 181.542 145.476 182.004 145.42 182.256C145.14 183.558 144.72 186.33 144.72 187.898C144.72 188.584 144.762 189.172 144.86 189.858C145.084 189.214 145.434 188.36 145.672 187.786L146.246 188.234C145.896 189.214 145.378 190.642 145.238 191.328C145.196 191.524 145.168 191.804 145.182 191.958C145.196 192.098 145.21 192.308 145.224 192.448L144.23 192.532C143.964 191.524 143.698 189.984 143.698 188.094C143.698 186.036 144.174 183.362 144.342 182.214C144.398 181.878 144.426 181.514 144.44 181.206L145.672 181.318ZM160.484 192.784C159.574 191.678 158.37 190.488 157.376 189.676L158.286 188.878C159.294 189.69 160.554 190.95 161.436 191.972L160.484 192.784ZM172.118 182.858H184.354V183.88H172.118V182.858ZM175.604 191.328H182.646V192.35H175.604V191.328ZM174.974 186.596H183.346V193.078H182.24V187.618H176.01V193.148H174.974V186.596ZM176.976 180.24L178.082 180.45C177.172 184.272 175.562 188.094 172.356 190.362C172.202 190.124 171.88 189.746 171.656 189.536C174.708 187.45 176.234 183.782 176.976 180.24ZM193.664 182.452C193.482 183.908 193.202 185.546 192.768 187.044C191.914 189.914 190.794 191.398 189.506 191.398C188.246 191.398 187 189.97 187 187.646C187 184.608 189.702 181.962 193.132 181.962C196.408 181.962 198.494 184.272 198.494 187.114C198.494 190.04 196.562 192 193.23 192.434L192.586 191.398C193.034 191.356 193.454 191.3 193.79 191.23C195.582 190.824 197.346 189.48 197.346 187.058C197.346 184.818 195.792 182.97 193.104 182.97C190.024 182.97 188.106 185.504 188.106 187.562C188.106 189.326 188.904 190.11 189.534 190.11C190.192 190.11 190.948 189.158 191.662 186.792C192.068 185.462 192.362 183.88 192.502 182.424L193.664 182.452ZM201.728 181.416H212.97V182.326H201.728V181.416ZM202.372 183.474H212.424V184.356H202.372V183.474ZM201.21 185.616H213.446V186.54H201.21V185.616ZM206.768 180.24H207.832V186.33H206.768V180.24ZM206.726 185.924L207.636 186.358C206.18 187.954 203.59 189.424 201.42 190.138C201.252 189.872 200.958 189.48 200.734 189.27C202.89 188.654 205.424 187.31 206.726 185.924ZM208.252 186.064C209.092 189.06 210.912 191.272 213.88 192.154C213.642 192.364 213.348 192.798 213.194 193.078C210.1 192.014 208.266 189.648 207.3 186.26L208.252 186.064ZM212.242 187.002L213.082 187.66C212.088 188.458 210.758 189.312 209.75 189.872L209.106 189.298C210.086 188.71 211.444 187.744 212.242 187.002ZM202.288 192.154C203.898 191.804 206.418 191.174 208.812 190.586L208.91 191.524C206.698 192.098 204.304 192.7 202.624 193.12L202.288 192.154ZM204.262 188.528L205.018 187.772L205.312 187.856V192.084H204.262V188.528ZM221.342 180.94C221.216 181.486 221.062 182.256 220.698 183.194C220.348 184.048 219.83 184.986 219.27 185.714C219.816 185.392 220.614 185.196 221.23 185.196C222.308 185.196 223.148 185.84 223.148 186.974C223.148 187.702 223.176 189.312 223.19 190.18H222.112C222.168 189.438 222.182 187.996 222.168 187.268C222.154 186.456 221.594 186.078 220.866 186.078C219.97 186.078 219.088 186.526 218.444 187.1C218.038 187.492 217.646 187.996 217.184 188.57L216.218 187.856C218.234 185.924 219.172 184.3 219.648 183.11C219.956 182.34 220.152 181.5 220.194 180.842L221.342 180.94ZM216.54 182.452C217.296 182.55 218.262 182.592 218.906 182.592C220.796 182.592 223.218 182.48 225.192 182.13V183.166C223.232 183.46 220.628 183.586 218.85 183.586C218.248 183.586 217.324 183.558 216.54 183.502V182.452ZM227.236 185.826C226.886 185.938 226.382 186.134 226.004 186.274C225.01 186.666 223.68 187.198 222.322 187.898C220.936 188.626 219.956 189.382 219.956 190.348C219.956 191.44 221.034 191.608 222.476 191.608C223.568 191.608 225.08 191.482 226.312 191.258L226.27 192.392C225.206 192.518 223.652 192.63 222.434 192.63C220.446 192.63 218.836 192.196 218.836 190.502C218.836 188.794 220.572 187.744 222.238 186.89C223.568 186.204 224.702 185.77 225.626 185.336C226.046 185.14 226.396 184.986 226.788 184.79L227.236 185.826ZM230.75 181.598H242.216V182.494H230.75V181.598ZM231.198 191.86H241.796V192.742H231.198V191.86ZM233.508 183.418H239.402V184.216H233.508V183.418ZM233.508 185.182H239.402V185.98H233.508V185.182ZM230.092 186.988H242.818V187.87H230.092V186.988ZM233.032 189.494H239.906V190.362H233.032V189.494ZM232.878 180.254H233.928V187.478H232.878V180.254ZM239.038 180.254H240.088V187.478H239.038V180.254ZM235.888 188.318H236.966V192.35H235.888V188.318ZM233.62 187.226L234.502 187.562C233.648 189.004 232.108 190.334 230.638 191.02C230.484 190.782 230.19 190.418 229.952 190.222C231.366 189.662 232.864 188.458 233.62 187.226ZM239.346 187.226C240.088 188.416 241.544 189.522 243 190.04C242.762 190.236 242.454 190.6 242.3 190.852C240.816 190.222 239.332 188.92 238.52 187.548L239.346 187.226ZM244.918 183.194H257.14V184.258H244.918V183.194ZM247.718 189.438H254.242V190.502H247.718V189.438ZM250.448 180.254H251.554V193.12H250.448V180.254ZM250.126 183.544L251.064 183.866C249.818 186.834 247.62 189.508 245.198 190.922C245.03 190.656 244.68 190.264 244.442 190.054C246.78 188.836 249.006 186.232 250.126 183.544ZM251.904 183.586C253.01 186.246 255.208 188.794 257.63 189.956C257.364 190.18 257 190.6 256.832 190.894C254.354 189.522 252.198 186.848 250.966 183.908L251.904 183.586ZM269.964 183.656C269.656 183.838 269.306 184.034 268.886 184.244C267.948 184.734 266.002 185.658 264.63 186.554C263.328 187.408 262.544 188.332 262.544 189.382C262.544 190.544 263.664 191.272 265.876 191.272C267.388 191.272 269.264 191.076 270.356 190.796L270.342 192.056C269.292 192.238 267.668 192.392 265.918 192.392C263.286 192.392 261.382 191.608 261.382 189.508C261.382 187.996 262.404 186.806 264.056 185.714C265.484 184.762 267.444 183.824 268.354 183.306C268.76 183.068 269.068 182.886 269.362 182.648L269.964 183.656ZM262.88 181.108C263.524 182.9 264.392 184.65 265.036 185.784L264.084 186.358C263.37 185.21 262.53 183.32 261.774 181.584L262.88 181.108ZM277.902 181.094C277.832 181.556 277.79 182.046 277.762 182.508C277.706 184.09 277.594 187.408 277.594 189.494C277.594 191.034 278.56 191.566 279.89 191.566C282.452 191.566 283.908 190.138 284.916 188.682L285.7 189.634C284.748 190.964 282.928 192.714 279.862 192.714C277.846 192.714 276.46 191.888 276.46 189.592C276.46 187.52 276.6 183.978 276.6 182.508C276.6 181.99 276.558 181.5 276.474 181.094H277.902ZM295.71 180.898C295.682 181.136 295.654 181.416 295.64 181.836C295.612 182.396 295.612 184.272 295.612 185.448C295.612 187.296 295.822 189.746 295.822 190.684C295.822 191.664 295.178 192.658 293.358 192.658C291.342 192.658 290.236 191.944 290.236 190.586C290.236 189.312 291.454 188.458 293.47 188.458C296.424 188.458 298.734 190.054 299.812 190.936L299.168 191.93C297.908 190.768 295.836 189.368 293.344 189.368C292 189.368 291.286 189.886 291.286 190.53C291.286 191.188 291.832 191.664 293.218 191.664C294.03 191.664 294.716 191.426 294.716 190.446C294.716 189.368 294.576 186.68 294.576 185.448C294.576 184.188 294.576 182.718 294.576 181.738C294.576 181.5 294.562 181.08 294.52 180.898H295.71ZM290.362 182.41C291.258 182.578 293.008 182.718 293.932 182.718C295.71 182.718 297.586 182.592 299.406 182.298V183.32C297.824 183.502 295.822 183.684 293.946 183.684C292.98 183.684 291.258 183.558 290.376 183.446L290.362 182.41ZM290.292 185.392C291.286 185.546 292.882 185.644 293.806 185.644C295.836 185.644 297.698 185.504 299.518 185.238V186.288C297.614 186.526 295.906 186.624 293.806 186.624C292.84 186.624 291.3 186.554 290.306 186.442L290.292 185.392ZM64.778 205.912C64.75 206.08 64.708 206.626 64.708 206.794C64.666 207.704 64.694 210.406 64.708 211.526L63.644 210.98C63.644 210.364 63.63 207.578 63.588 206.808C63.56 206.43 63.518 206.038 63.49 205.912H64.778ZM57.33 207.872C59.234 207.844 62.734 207.718 64.89 207.718C66.598 207.718 68.334 207.718 68.992 207.732L68.978 208.768C68.194 208.726 66.934 208.698 64.876 208.698C62.468 208.698 59.472 208.796 57.358 208.95L57.33 207.872ZM64.68 211.932C64.68 213.808 63.812 214.746 62.538 214.746C61.362 214.746 60.228 213.92 60.228 212.394C60.228 211.008 61.376 209.972 62.706 209.972C64.33 209.972 65.156 211.176 65.156 212.786C65.156 214.69 64.232 216.79 60.984 217.756L60.046 216.846C62.594 216.244 64.078 214.998 64.078 212.688C64.078 211.428 63.462 210.896 62.706 210.896C61.964 210.896 61.278 211.47 61.278 212.38C61.278 213.262 61.936 213.766 62.706 213.766C63.574 213.766 64.134 213.038 63.91 211.54L64.68 211.932ZM71.8815 213.598C73.0575 213.598 74.0095 214.55 74.0095 215.726C74.0095 216.902 73.0575 217.854 71.8815 217.854C70.7055 217.854 69.7395 216.902 69.7395 215.726C69.7395 214.55 70.7055 213.598 71.8815 213.598ZM71.8815 217.14C72.6655 217.14 73.2955 216.51 73.2955 215.726C73.2955 214.942 72.6655 214.312 71.8815 214.312C71.0975 214.312 70.4535 214.942 70.4535 215.726C70.4535 216.51 71.0975 217.14 71.8815 217.14ZM86.2595 207.074C86.6235 207.102 87.0435 207.116 87.5195 207.116C88.5135 207.116 93.1475 207.116 94.1695 207.116C94.6315 207.116 95.0095 207.102 95.3175 207.074V208.18C94.9815 208.166 94.6595 208.152 94.1695 208.152C93.1475 208.152 88.2475 208.152 87.5195 208.152C87.0435 208.152 86.6235 208.166 86.2595 208.18V207.074ZM90.5435 211.568C90.5435 212.604 90.5435 214.48 90.5435 214.97C90.5435 215.67 91.0195 216.104 92.3215 216.104C93.6375 216.104 94.7855 216.048 95.9895 215.908L95.9195 217.084C94.8415 217.154 93.4835 217.21 92.1535 217.21C90.0395 217.21 89.3675 216.468 89.3675 215.334C89.3675 214.312 89.3675 212.632 89.3675 211.526C89.3675 210.952 89.3675 208.404 89.3675 207.83H90.5435C90.5435 208.39 90.5435 211.176 90.5435 211.568ZM85.3355 211.036C85.7135 211.078 86.2735 211.106 86.6515 211.106C87.6595 211.106 94.3795 211.106 95.2475 211.106C95.5415 211.106 96.1015 211.078 96.4235 211.05V212.198C96.1015 212.17 95.5835 212.17 95.2755 212.17C94.3655 212.17 87.6595 212.17 86.6515 212.17C86.2875 212.17 85.7135 212.184 85.3355 212.212V211.036ZM108.995 206.094C109.345 206.598 109.849 207.452 110.143 208.012L109.373 208.348C109.107 207.788 108.631 206.948 108.253 206.416L108.995 206.094ZM110.535 205.534C110.899 206.052 111.445 206.92 111.697 207.438L110.955 207.774C110.647 207.172 110.185 206.374 109.793 205.856L110.535 205.534ZM101.323 212.8C101.939 211.344 102.513 209.216 102.709 207.606L103.955 207.858C103.857 208.166 103.759 208.586 103.689 208.88C103.507 209.748 103.017 211.82 102.429 213.262C101.911 214.536 101.141 215.978 100.357 217.112L99.1675 216.608C100.049 215.432 100.847 213.962 101.323 212.8ZM108.225 212.268C107.665 210.826 106.797 208.88 106.195 207.83L107.329 207.452C107.875 208.474 108.771 210.406 109.373 211.876C109.933 213.262 110.675 215.404 111.053 216.678L109.807 217.07C109.457 215.656 108.799 213.752 108.225 212.268ZM114.049 211.946C116.471 211.302 118.599 210.308 120.153 209.342C121.623 208.418 123.023 207.214 123.989 206.038L124.927 206.92C123.723 208.166 122.253 209.342 120.615 210.364C119.075 211.316 116.849 212.338 114.595 213.038L114.049 211.946ZM119.929 209.916L121.133 209.552V215.95C121.133 216.468 121.161 217.168 121.231 217.434H119.845C119.887 217.168 119.929 216.468 119.929 215.95V209.916ZM134.727 216.706C134.783 216.496 134.825 216.202 134.825 215.922C134.825 215.278 134.825 208.418 134.825 207.536C134.825 207.004 134.755 206.612 134.755 206.5H136.043C136.029 206.612 135.973 207.018 135.973 207.55C135.973 208.418 135.973 215.194 135.973 215.614C137.275 215.026 138.997 213.752 140.061 212.17L140.733 213.136C139.515 214.774 137.583 216.202 135.959 217.014C135.721 217.126 135.581 217.252 135.469 217.322L134.727 216.706ZM128.315 216.65C129.505 215.81 130.331 214.564 130.751 213.206C131.171 211.918 131.171 209.132 131.171 207.564C131.171 207.158 131.143 206.85 131.073 206.556H132.361C132.347 206.71 132.291 207.144 132.291 207.55C132.291 209.104 132.249 212.114 131.871 213.514C131.451 215.012 130.555 216.37 129.379 217.35L128.315 216.65ZM145.787 217.784C144.877 216.678 143.673 215.488 142.679 214.676L143.589 213.878C144.597 214.69 145.857 215.95 146.739 216.972L145.787 217.784ZM162.335 210.588C164.127 211.638 166.423 213.248 167.809 214.368L166.983 215.348C165.695 214.172 163.301 212.45 161.565 211.372L162.335 210.588ZM168.733 208.04C168.621 208.236 168.481 208.558 168.411 208.782C167.991 210.21 167.109 212.072 165.877 213.584C164.603 215.152 162.783 216.65 160.123 217.63L159.129 216.748C161.733 215.964 163.637 214.48 164.897 212.982C165.975 211.694 166.857 209.916 167.179 208.614H161.999L162.447 207.606H166.899C167.277 207.606 167.585 207.564 167.809 207.48L168.733 208.04ZM164.015 206.01C163.777 206.374 163.525 206.85 163.385 207.116C162.559 208.656 160.977 210.77 158.737 212.31L157.813 211.596C160.207 210.098 161.649 207.998 162.293 206.71C162.433 206.472 162.657 205.968 162.741 205.604L164.015 206.01ZM181.655 205.366C181.991 205.856 182.495 206.682 182.775 207.214L181.991 207.564C181.711 206.99 181.235 206.192 180.885 205.688L181.655 205.366ZM183.461 205.016C183.797 205.492 184.315 206.318 184.609 206.864L183.825 207.2C183.517 206.626 183.069 205.814 182.691 205.338L183.461 205.016ZM182.915 207.886C182.831 208.082 182.761 208.32 182.705 208.586C182.411 210.056 181.725 212.324 180.619 213.752C179.345 215.404 177.679 216.692 175.117 217.504L174.165 216.454C176.867 215.768 178.449 214.578 179.611 213.08C180.605 211.82 181.263 209.86 181.445 208.516C180.647 208.516 175.089 208.516 174.291 208.516C173.731 208.516 173.255 208.544 172.891 208.572V207.326C173.283 207.368 173.829 207.424 174.291 207.424C175.089 207.424 180.675 207.424 181.319 207.424C181.529 207.424 181.809 207.41 182.061 207.34L182.915 207.886ZM188.753 216.566C188.851 216.342 188.879 216.146 188.879 215.88C188.879 214.998 188.879 209.202 188.879 207.872C188.879 207.494 188.823 206.864 188.767 206.598H190.139C190.097 206.934 190.041 207.466 190.041 207.858C190.041 209.188 190.041 215.096 190.041 215.81C192.729 215.124 195.963 213.29 197.713 211.036L198.343 212.016C196.523 214.27 193.639 215.992 190.139 217.014C189.999 217.056 189.775 217.126 189.551 217.252L188.753 216.566ZM206.967 208.95C207.205 209.51 207.891 211.358 208.059 211.96L207.023 212.338C206.869 211.694 206.225 209.916 205.931 209.3L206.967 208.95ZM212.035 209.734C211.937 210.014 211.867 210.238 211.811 210.42C211.447 211.96 210.831 213.472 209.837 214.732C208.535 216.37 206.827 217.462 205.273 218.05L204.349 217.112C205.959 216.636 207.751 215.572 208.899 214.144C209.893 212.926 210.607 211.134 210.831 209.342L212.035 209.734ZM203.705 209.65C203.985 210.238 204.727 212.072 204.979 212.814L203.929 213.206C203.705 212.478 202.949 210.532 202.669 210.042L203.705 209.65ZM219.469 215.768C219.469 214.984 219.469 208.796 219.469 207.634C219.469 207.228 219.441 206.612 219.371 206.164H220.743C220.687 206.598 220.645 207.2 220.645 207.634C220.645 209.804 220.659 215.11 220.659 215.768C220.659 216.216 220.687 216.972 220.743 217.434H219.385C219.455 216.986 219.469 216.286 219.469 215.768ZM220.393 209.846C222.241 210.378 225.069 211.456 226.623 212.212L226.133 213.402C224.537 212.548 221.919 211.554 220.393 211.078V209.846ZM232.874 217.784C231.964 216.678 230.76 215.488 229.766 214.676L230.676 213.878C231.684 214.69 232.944 215.95 233.826 216.972L232.874 217.784ZM246.454 206.78C246.846 206.822 247.266 206.85 247.714 206.85C248.526 206.85 251.788 206.85 252.572 206.85C252.964 206.85 253.468 206.822 253.874 206.78V207.942C253.454 207.914 252.964 207.886 252.572 207.886C251.788 207.886 248.526 207.886 247.742 207.886C247.266 207.886 246.818 207.914 246.454 207.942V206.78ZM244.788 210.294C245.166 210.336 245.572 210.364 246.006 210.364C246.818 210.364 254.42 210.364 255.162 210.364C255.456 210.364 255.918 210.336 256.268 210.294V211.456C255.96 211.428 255.512 211.414 255.162 211.414C254.42 211.414 246.818 211.414 246.006 211.414C245.586 211.414 245.166 211.428 244.788 211.456V210.294ZM251.382 210.854C251.382 212.618 251.158 214.074 250.542 215.25C250.024 216.188 248.974 217.196 247.784 217.798L246.748 217.042C247.826 216.58 248.834 215.782 249.394 214.886C250.094 213.78 250.192 212.408 250.206 210.868L251.382 210.854ZM254.602 205.632C254.952 206.136 255.456 206.99 255.736 207.55L254.98 207.886C254.714 207.326 254.238 206.486 253.86 205.954L254.602 205.632ZM256.128 205.072C256.506 205.59 257.038 206.458 257.304 206.976L256.562 207.312C256.254 206.71 255.792 205.912 255.4 205.394L256.128 205.072ZM269.358 207.648C269.274 207.76 269.092 208.068 269.022 208.25C268.462 209.636 267.398 211.596 266.236 212.884C264.668 214.634 262.666 216.3 260.454 217.308L259.558 216.37C261.826 215.502 263.884 213.822 265.326 212.226C266.278 211.148 267.3 209.482 267.664 208.32C267.16 208.32 262.68 208.32 262.204 208.32C261.7 208.32 260.944 208.376 260.79 208.39V207.13C260.972 207.158 261.77 207.214 262.204 207.214C262.75 207.214 267.076 207.214 267.608 207.214C268.056 207.214 268.434 207.172 268.658 207.102L269.358 207.648ZM266.418 212.156C267.93 213.416 269.792 215.376 270.744 216.538L269.778 217.392C268.77 216.062 267.132 214.27 265.62 212.94L266.418 212.156ZM284.926 208.25C284.814 208.446 284.674 208.768 284.604 208.992C284.226 210.406 283.372 212.296 282.126 213.822C280.852 215.376 279.172 216.65 276.554 217.63L275.532 216.706C278.108 215.95 279.844 214.69 281.132 213.192C282.21 211.918 283.078 210.098 283.358 208.824H278.178L278.626 207.816C279.186 207.816 282.644 207.816 283.078 207.816C283.456 207.816 283.778 207.774 284.002 207.69L284.926 208.25ZM280.236 206.136C280.012 206.5 279.76 206.976 279.62 207.228C278.794 208.782 277.338 210.784 275.084 212.268L274.104 211.554C276.526 210.112 277.898 208.068 278.514 206.822C278.654 206.57 278.864 206.066 278.948 205.702L280.236 206.136ZM291.996 215.768C291.996 214.984 291.996 208.796 291.996 207.634C291.996 207.228 291.968 206.612 291.898 206.164H293.27C293.214 206.598 293.172 207.2 293.172 207.634C293.172 209.804 293.186 215.11 293.186 215.768C293.186 216.216 293.214 216.972 293.27 217.434H291.912C291.982 216.986 291.996 216.286 291.996 215.768ZM292.92 209.846C294.768 210.378 297.596 211.456 299.15 212.212L298.66 213.402C297.064 212.548 294.446 211.554 292.92 211.078V209.846ZM308.614 208.95C308.852 209.51 309.538 211.358 309.706 211.96L308.67 212.338C308.516 211.694 307.872 209.916 307.578 209.3L308.614 208.95ZM313.682 209.734C313.584 210.014 313.514 210.238 313.458 210.42C313.094 211.96 312.478 213.472 311.484 214.732C310.182 216.37 308.474 217.462 306.92 218.05L305.996 217.112C307.606 216.636 309.398 215.572 310.546 214.144C311.54 212.926 312.254 211.134 312.478 209.342L313.682 209.734ZM305.352 209.65C305.632 210.238 306.374 212.072 306.626 212.814L305.576 213.206C305.352 212.478 304.596 210.532 304.316 210.042L305.352 209.65ZM67.27 231.948C67.27 232.466 67.676 232.872 68.194 232.872C68.698 232.872 69.118 232.466 69.118 231.948C69.118 231.444 68.698 231.024 68.194 231.024C67.676 231.024 67.27 231.444 67.27 231.948ZM66.626 231.948C66.626 231.08 67.326 230.38 68.194 230.38C69.062 230.38 69.762 231.08 69.762 231.948C69.762 232.816 69.062 233.516 68.194 233.516C67.326 233.516 66.626 232.816 66.626 231.948ZM67.844 232.886C67.746 233.082 67.69 233.32 67.634 233.586C67.326 235.056 66.654 237.324 65.534 238.752C64.26 240.404 62.594 241.692 60.032 242.504L59.08 241.454C61.796 240.768 63.364 239.578 64.54 238.08C65.534 236.82 66.178 234.86 66.374 233.516C65.562 233.516 60.018 233.516 59.206 233.516C58.646 233.516 58.17 233.544 57.82 233.572V232.326C58.198 232.368 58.758 232.424 59.22 232.424C60.018 232.424 65.604 232.424 66.234 232.424C66.458 232.424 66.724 232.41 66.99 232.34L67.844 232.886ZM74.48 230.366H75.558V238.206H74.48V230.366ZM79.548 230.366H80.64V238.206H79.548V230.366ZM71.232 237.548H83.944V238.57H71.232V237.548ZM71.792 233.208H83.44V234.216H71.792V233.208ZM78.778 239.9L79.688 239.368C80.99 240.292 82.74 241.636 83.636 242.476L82.642 243.12C81.802 242.28 80.108 240.894 78.778 239.9ZM75.152 239.382L76.244 239.802C75.25 241.034 73.654 242.322 72.24 243.134C72.03 242.91 71.666 242.588 71.414 242.392C72.8 241.65 74.368 240.432 75.152 239.382ZM88.732 235.77V240.726H87.738V236.75H85.694V235.77H88.732ZM88.732 240.306C89.418 241.342 90.622 241.818 92.274 241.874C93.814 241.944 97.048 241.902 98.728 241.79C98.602 242.028 98.448 242.518 98.392 242.826C96.838 242.896 93.842 242.924 92.274 242.854C90.44 242.784 89.166 242.294 88.298 241.188C87.584 241.79 86.828 242.406 86.03 243.008L85.512 241.972C86.212 241.538 87.08 240.908 87.822 240.306H88.732ZM85.932 231.22L86.66 230.562C87.556 231.192 88.606 232.144 89.068 232.83L88.27 233.558C87.836 232.872 86.814 231.878 85.932 231.22ZM91.532 232.592L92.204 232.004C93.52 232.466 95.284 233.236 96.222 233.796L95.508 234.454C94.626 233.908 92.89 233.11 91.532 232.592ZM90.202 233.768H97.44V234.58H91.196V241.02H90.202V233.768ZM96.936 233.768H97.944V239.97C97.944 240.488 97.846 240.726 97.468 240.88C97.104 241.048 96.516 241.048 95.578 241.048C95.536 240.782 95.41 240.418 95.284 240.18C95.942 240.208 96.53 240.194 96.712 240.194C96.894 240.194 96.936 240.138 96.936 239.956V233.768ZM90.202 230.828H97.188V231.668H90.202V230.828ZM90.748 235.812H97.342V236.596H90.748V235.812ZM90.748 237.87H97.342V238.682H90.748V237.87ZM93.548 234.104H94.5V240.964H93.548V234.104ZM96.838 230.828H97.076L97.3 230.772L97.944 231.276C97.006 232.158 95.592 233.026 94.318 233.558C94.178 233.376 93.912 233.096 93.758 232.942C94.906 232.494 96.208 231.682 96.838 231.024V230.828ZM100.772 232.788C101.304 232.774 101.752 232.746 102.032 232.718C102.928 232.62 105.574 232.368 108.15 232.144C109.69 232.018 110.992 231.934 111.93 231.906L111.944 233.026C111.132 233.012 109.914 233.04 109.2 233.236C107.198 233.88 105.98 236.022 105.98 237.674C105.98 240.404 108.542 241.286 110.81 241.37L110.404 242.518C107.814 242.42 104.874 241.048 104.874 237.912C104.874 235.742 106.204 233.95 107.478 233.194C105.98 233.348 102.41 233.698 100.898 234.02L100.772 232.788ZM109.914 234.734C110.236 235.196 110.768 236.064 111.076 236.694L110.348 237.016C110.026 236.344 109.634 235.63 109.214 235.042L109.914 234.734ZM111.44 234.146C111.79 234.608 112.336 235.462 112.658 236.078L111.944 236.428C111.608 235.756 111.188 235.056 110.754 234.468L111.44 234.146ZM117.516 232.186C118.524 232.298 119.812 232.354 121.226 232.354C122.57 232.354 123.984 232.27 124.992 232.158V233.306C124.04 233.376 122.514 233.474 121.226 233.474C119.826 233.474 118.622 233.418 117.516 233.32V232.186ZM118.076 237.828C117.908 238.374 117.796 238.892 117.796 239.41C117.796 240.488 118.888 241.216 121.128 241.216C123.046 241.216 124.852 241.006 125.916 240.67L125.93 241.874C124.922 242.14 123.144 242.35 121.156 242.35C118.314 242.35 116.662 241.426 116.662 239.662C116.662 238.934 116.816 238.276 116.942 237.716L118.076 237.828ZM136.682 232.452C136.5 233.908 136.22 235.546 135.786 237.044C134.932 239.914 133.812 241.398 132.524 241.398C131.264 241.398 130.018 239.97 130.018 237.646C130.018 234.608 132.72 231.962 136.15 231.962C139.426 231.962 141.512 234.272 141.512 237.114C141.512 240.04 139.58 242 136.248 242.434L135.604 241.398C136.052 241.356 136.472 241.3 136.808 241.23C138.6 240.824 140.364 239.48 140.364 237.058C140.364 234.818 138.81 232.97 136.122 232.97C133.042 232.97 131.124 235.504 131.124 237.562C131.124 239.326 131.922 240.11 132.552 240.11C133.21 240.11 133.966 239.158 134.68 236.792C135.086 235.462 135.38 233.88 135.52 232.424L136.682 232.452ZM150.682 241.706C150.738 241.496 150.78 241.202 150.78 240.922C150.78 240.278 150.78 233.418 150.78 232.536C150.78 232.004 150.71 231.612 150.71 231.5H151.998C151.984 231.612 151.928 232.018 151.928 232.55C151.928 233.418 151.928 240.194 151.928 240.614C153.23 240.026 154.952 238.752 156.016 237.17L156.688 238.136C155.47 239.774 153.538 241.202 151.914 242.014C151.676 242.126 151.536 242.252 151.424 242.322L150.682 241.706ZM144.27 241.65C145.46 240.81 146.286 239.564 146.706 238.206C147.126 236.918 147.126 234.132 147.126 232.564C147.126 232.158 147.098 231.85 147.028 231.556H148.316C148.302 231.71 148.246 232.144 148.246 232.55C148.246 234.104 148.204 237.114 147.826 238.514C147.406 240.012 146.51 241.37 145.334 242.35L144.27 241.65ZM159.334 235.938C159.768 235.98 160.496 236.022 161.294 236.022C162.316 236.022 167.93 236.022 168.966 236.022C169.666 236.022 170.156 235.966 170.478 235.938V237.31C170.184 237.296 169.596 237.254 168.98 237.254C167.916 237.254 162.33 237.254 161.294 237.254C160.524 237.254 159.782 237.282 159.334 237.31V235.938ZM179.802 241.706C179.858 241.496 179.9 241.202 179.9 240.922C179.9 240.278 179.9 233.418 179.9 232.536C179.9 232.004 179.83 231.612 179.83 231.5H181.118C181.104 231.612 181.048 232.018 181.048 232.55C181.048 233.418 181.048 240.194 181.048 240.614C182.35 240.026 184.072 238.752 185.136 237.17L185.808 238.136C184.59 239.774 182.658 241.202 181.034 242.014C180.796 242.126 180.656 242.252 180.544 242.322L179.802 241.706ZM173.39 241.65C174.58 240.81 175.406 239.564 175.826 238.206C176.246 236.918 176.246 234.132 176.246 232.564C176.246 232.158 176.218 231.85 176.148 231.556H177.436C177.422 231.71 177.366 232.144 177.366 232.55C177.366 234.104 177.324 237.114 176.946 238.514C176.526 240.012 175.63 241.37 174.454 242.35L173.39 241.65ZM193.48 230.94C193.354 231.486 193.2 232.256 192.836 233.194C192.486 234.048 191.968 234.986 191.408 235.714C191.954 235.392 192.752 235.196 193.368 235.196C194.446 235.196 195.286 235.84 195.286 236.974C195.286 237.702 195.314 239.312 195.328 240.18H194.25C194.306 239.438 194.32 237.996 194.306 237.268C194.292 236.456 193.732 236.078 193.004 236.078C192.108 236.078 191.226 236.526 190.582 237.1C190.176 237.492 189.784 237.996 189.322 238.57L188.356 237.856C190.372 235.924 191.31 234.3 191.786 233.11C192.094 232.34 192.29 231.5 192.332 230.842L193.48 230.94ZM188.678 232.452C189.434 232.55 190.4 232.592 191.044 232.592C192.934 232.592 195.356 232.48 197.33 232.13V233.166C195.37 233.46 192.766 233.586 190.988 233.586C190.386 233.586 189.462 233.558 188.678 233.502V232.452ZM199.374 235.826C199.024 235.938 198.52 236.134 198.142 236.274C197.148 236.666 195.818 237.198 194.46 237.898C193.074 238.626 192.094 239.382 192.094 240.348C192.094 241.44 193.172 241.608 194.614 241.608C195.706 241.608 197.218 241.482 198.45 241.258L198.408 242.392C197.344 242.518 195.79 242.63 194.572 242.63C192.584 242.63 190.974 242.196 190.974 240.502C190.974 238.794 192.71 237.744 194.376 236.89C195.706 236.204 196.84 235.77 197.764 235.336C198.184 235.14 198.534 234.986 198.926 234.79L199.374 235.826ZM206.08 231.794H215.068V232.774H206.08V231.794ZM207.466 235.028V237.128H213.584V235.028H207.466ZM206.5 234.132H214.606V238.024H206.5V234.132ZM207.368 238.304C208.684 240.502 211.554 241.804 215.194 242.21C214.97 242.434 214.704 242.854 214.564 243.148C210.854 242.616 207.984 241.16 206.5 238.598L207.368 238.304ZM209.972 230.296H211.008V236.498C211.008 239.2 210.546 241.888 206.206 243.176C206.08 242.938 205.786 242.518 205.576 242.294C209.734 241.244 209.972 238.85 209.972 236.484V230.296ZM205.478 230.212L206.472 230.52C205.52 232.886 204.022 235.238 202.468 236.792C202.37 236.554 202.076 236.008 201.88 235.756C203.294 234.426 204.666 232.34 205.478 230.212ZM204.008 233.88L205.002 232.886L205.016 232.9V243.19H204.008V233.88ZM219.282 232.242C219.212 232.564 219.17 233.236 219.156 233.6C219.142 234.468 219.156 235.756 219.254 236.904C219.492 239.242 220.164 240.796 221.172 240.796C221.886 240.796 222.544 239.354 222.908 237.954L223.79 238.948C222.936 241.314 222.096 242.126 221.144 242.126C219.814 242.126 218.554 240.81 218.162 237.184C218.036 235.98 218.008 234.272 218.008 233.46C218.008 233.138 218.008 232.536 217.924 232.214L219.282 232.242ZM226.562 232.62C227.822 234.244 228.83 237.226 229.04 239.592L227.906 240.04C227.668 237.52 226.814 234.636 225.484 232.998L226.562 232.62ZM238.728 230.898C238.7 231.136 238.672 231.416 238.658 231.836C238.63 232.396 238.63 234.272 238.63 235.448C238.63 237.296 238.84 239.746 238.84 240.684C238.84 241.664 238.196 242.658 236.376 242.658C234.36 242.658 233.254 241.944 233.254 240.586C233.254 239.312 234.472 238.458 236.488 238.458C239.442 238.458 241.752 240.054 242.83 240.936L242.186 241.93C240.926 240.768 238.854 239.368 236.362 239.368C235.018 239.368 234.304 239.886 234.304 240.53C234.304 241.188 234.85 241.664 236.236 241.664C237.048 241.664 237.734 241.426 237.734 240.446C237.734 239.368 237.594 236.68 237.594 235.448C237.594 234.188 237.594 232.718 237.594 231.738C237.594 231.5 237.58 231.08 237.538 230.898H238.728ZM233.38 232.41C234.276 232.578 236.026 232.718 236.95 232.718C238.728 232.718 240.604 232.592 242.424 232.298V233.32C240.842 233.502 238.84 233.684 236.964 233.684C235.998 233.684 234.276 233.558 233.394 233.446L233.38 232.41ZM233.31 235.392C234.304 235.546 235.9 235.644 236.824 235.644C238.854 235.644 240.716 235.504 242.536 235.238V236.288C240.632 236.526 238.924 236.624 236.824 236.624C235.858 236.624 234.318 236.554 233.324 236.442L233.31 235.392ZM254.058 230.912C254.03 231.08 253.988 231.626 253.988 231.794C253.946 232.704 253.974 235.406 253.988 236.526L252.924 235.98C252.924 235.364 252.91 232.578 252.868 231.808C252.84 231.43 252.798 231.038 252.77 230.912H254.058ZM246.61 232.872C248.514 232.844 252.014 232.718 254.17 232.718C255.878 232.718 257.614 232.718 258.272 232.732L258.258 233.768C257.474 233.726 256.214 233.698 254.156 233.698C251.748 233.698 248.752 233.796 246.638 233.95L246.61 232.872ZM253.96 236.932C253.96 238.808 253.092 239.746 251.818 239.746C250.642 239.746 249.508 238.92 249.508 237.394C249.508 236.008 250.656 234.972 251.986 234.972C253.61 234.972 254.436 236.176 254.436 237.786C254.436 239.69 253.512 241.79 250.264 242.756L249.326 241.846C251.874 241.244 253.358 239.998 253.358 237.688C253.358 236.428 252.742 235.896 251.986 235.896C251.244 235.896 250.558 236.47 250.558 237.38C250.558 238.262 251.216 238.766 251.986 238.766C252.854 238.766 253.414 238.038 253.19 236.54L253.96 236.932ZM261.161 238.598C262.337 238.598 263.289 239.55 263.289 240.726C263.289 241.902 262.337 242.854 261.161 242.854C259.985 242.854 259.019 241.902 259.019 240.726C259.019 239.55 259.985 238.598 261.161 238.598ZM261.161 242.14C261.945 242.14 262.575 241.51 262.575 240.726C262.575 239.942 261.945 239.312 261.161 239.312C260.377 239.312 259.733 239.942 259.733 240.726C259.733 241.51 260.377 242.14 261.161 242.14Z" fill="#1A1A1A"/>
</svg>
