<svg width="1535" height="289" viewBox="0 0 1535 289" fill="none" xmlns="http://www.w3.org/2000/svg">
<path d="M16.08 9.34C16.08 9.96 16.6 10.48 17.24 10.48C17.86 10.48 18.38 9.96 18.38 9.34C18.38 8.7 17.86 8.18 17.24 8.18C16.6 8.18 16.08 8.7 16.08 9.34ZM14.84 9.34C14.84 8.02 15.92 6.94 17.24 6.94C18.54 6.94 19.62 8.02 19.62 9.34C19.62 10.64 18.54 11.72 17.24 11.72C17.16 11.72 17.06 11.72 16.98 11.7C16.92 11.92 16.88 12.12 16.82 12.3C16.36 14.26 15.5 17.36 13.82 19.58C12.02 21.98 9.34 23.96 5.78 25.12L3.6 22.72C7.56 21.8 9.82 20.06 11.44 18.02C12.76 16.36 13.52 14.1 13.78 12.38H4.48C3.56 12.38 2.6 12.42 2.1 12.46V9.64C2.68 9.72 3.82 9.8 4.48 9.8H13.74C14.02 9.8 14.46 9.78 14.88 9.72C14.86 9.6 14.84 9.48 14.84 9.34ZM36.06 8.48C36.02 9.04 35.98 9.68 35.98 10.48V14.44C35.98 18.74 35.14 20.6 33.66 22.24C32.34 23.68 30.26 24.66 28.8 25.12L26.72 22.92C28.7 22.46 30.32 21.7 31.52 20.4C32.9 18.9 33.16 17.4 33.16 14.28V10.48C33.16 9.68 33.12 9.04 33.04 8.48H36.06ZM26.78 8.64C26.74 9.1 26.72 9.54 26.72 10.18V16.94C26.72 17.44 26.74 18.22 26.78 18.68H23.88C23.9 18.3 23.98 17.52 23.98 16.92V10.18C23.98 9.8 23.96 9.1 23.9 8.64H26.78ZM45.7 8.34C48.32 8.66 54.08 9.82 56.6 10.7L55.58 13.2C53.26 12.34 47.58 11.06 44.76 10.7L45.7 8.34ZM44.78 13.72C47.64 14.2 52.72 15.28 55.24 16.16L54.26 18.66C51.96 17.78 46.84 16.62 43.86 16.14L44.78 13.72ZM43.76 19.44C47.18 19.98 53.34 21.42 56.08 22.44L54.98 24.94C52.28 23.82 45.96 22.44 42.76 21.96L43.76 19.44ZM64.02 8.66C64.68 8.76 65.5 8.8 66.16 8.8H74.2C74.88 8.8 75.68 8.76 76.36 8.66V11.24C75.68 11.2 74.9 11.16 74.2 11.16H66.18C65.48 11.16 64.64 11.2 64.02 11.24V8.66ZM61.7 13.78C62.3 13.84 63 13.9 63.62 13.9H76.72C77.14 13.9 78.02 13.86 78.54 13.78V16.38C78.04 16.34 77.28 16.32 76.72 16.32H71.9C71.78 18.38 71.34 20.06 70.62 21.46C69.92 22.84 68.38 24.4 66.6 25.3L64.26 23.6C65.68 23.06 67.08 21.9 67.88 20.74C68.7 19.5 69.04 18 69.12 16.32H63.62C63.02 16.32 62.26 16.36 61.7 16.4V13.78ZM80.9486 18.3C83.5486 17.74 86.5286 16.4 88.1086 15.44C90.0486 14.26 92.0686 12.46 93.0886 11.16L95.0686 13.1C94.1286 14.14 92.3686 15.56 90.5886 16.74V23.6C90.5886 24.3 90.6086 25.36 90.7286 25.76H87.7686C87.8086 25.36 87.8686 24.3 87.8686 23.6V18.32C86.1086 19.2 83.8686 20.12 82.1286 20.66L80.9486 18.3ZM113.989 7.14C114.509 7.9 115.169 9.06 115.529 9.78L114.789 10.08L116.069 10.92C115.869 11.3 115.729 11.88 115.629 12.3C115.149 14.26 114.289 17.36 112.609 19.58C110.809 21.98 108.149 23.96 104.569 25.12L102.389 22.72C106.349 21.8 108.609 20.06 110.229 18.02C111.549 16.36 112.309 14.1 112.569 12.38H103.269C102.349 12.38 101.409 12.42 100.889 12.46V9.64C101.469 9.72 102.609 9.8 103.269 9.8H112.529C112.769 9.8 113.109 9.8 113.469 9.76C113.129 9.1 112.729 8.4 112.349 7.82L113.989 7.14ZM116.789 6.64C117.289 7.36 118.009 8.58 118.389 9.28L116.729 10C116.289 9.18 115.669 8.04 115.129 7.3L116.789 6.64ZM129.449 7.96C129.389 8.42 129.349 9.26 129.329 9.74C129.309 10.36 129.289 10.96 129.249 11.54H133.009C133.509 11.54 134.029 11.48 134.509 11.4L136.249 12.24C136.189 12.56 136.109 13.08 136.109 13.3C136.029 15.46 135.789 21.04 134.929 23.08C134.489 24.1 133.729 24.62 132.349 24.62C131.209 24.62 130.009 24.54 129.049 24.46L128.729 21.78C129.709 21.96 130.749 22.06 131.529 22.06C132.169 22.06 132.449 21.84 132.669 21.36C133.249 20.1 133.509 16.1 133.509 13.94H129.009C128.269 19.22 126.369 22.36 122.789 24.9L120.469 23.02C121.289 22.56 122.289 21.88 123.089 21.06C124.949 19.22 125.949 16.98 126.389 13.94H123.749C123.069 13.94 121.969 13.94 121.109 14.02V11.4C121.949 11.48 122.989 11.54 123.749 11.54H126.609C126.629 10.98 126.649 10.4 126.649 9.8C126.649 9.36 126.589 8.44 126.509 7.96H129.449ZM143.269 8.66C143.829 8.74 144.669 8.76 145.349 8.76H153.049C153.669 8.76 154.649 8.74 155.209 8.66V11.24C154.669 11.2 153.729 11.18 153.009 11.18H145.349C144.709 11.18 143.849 11.2 143.269 11.24V8.66ZM156.889 14.46C156.749 14.72 156.589 15.08 156.509 15.3C155.909 17.24 155.049 19.18 153.549 20.84C151.529 23.08 148.969 24.44 146.409 25.16L144.429 22.9C147.429 22.28 149.829 20.96 151.349 19.4C152.429 18.3 153.049 17.06 153.409 15.94H143.749C143.269 15.94 142.269 15.96 141.429 16.04V13.44C142.269 13.5 143.129 13.56 143.749 13.56H153.649C154.289 13.56 154.829 13.48 155.109 13.36L156.889 14.46ZM160.649 14.74C161.369 14.8 162.829 14.86 163.869 14.86H174.609C175.549 14.86 176.429 14.78 176.949 14.74V17.88C176.469 17.86 175.449 17.78 174.609 17.78H163.869C162.729 17.78 161.389 17.82 160.649 17.88V14.74ZM188.529 7.96C188.429 8.46 188.289 9.12 188.029 9.96C189.929 9.86 191.929 9.68 193.689 9.38L193.669 11.7C191.769 11.98 189.309 12.14 187.149 12.2C186.809 12.94 186.409 13.66 186.009 14.24C186.529 14 187.609 13.84 188.269 13.84C189.489 13.84 190.489 14.36 190.929 15.38C191.969 14.9 192.809 14.56 193.629 14.2C194.409 13.86 195.109 13.54 195.849 13.16L196.849 15.48C196.209 15.66 195.149 16.06 194.469 16.32C193.569 16.68 192.429 17.12 191.209 17.68C191.229 18.8 191.269 20.28 191.289 21.2H188.889C188.949 20.6 188.969 19.64 188.989 18.76C187.489 19.62 186.689 20.4 186.689 21.4C186.689 22.5 187.629 22.8 189.589 22.8C191.289 22.8 193.509 22.58 195.269 22.24L195.189 24.82C193.869 25 191.409 25.16 189.529 25.16C186.389 25.16 184.069 24.4 184.069 21.82C184.069 19.26 186.469 17.66 188.749 16.48C188.449 15.98 187.909 15.8 187.349 15.8C186.229 15.8 184.989 16.44 184.229 17.18C183.629 17.78 183.049 18.5 182.369 19.38L180.229 17.78C182.329 15.84 183.749 14.06 184.649 12.26C184.549 12.26 184.469 12.26 184.389 12.26C183.569 12.26 182.109 12.22 181.009 12.14V9.8C182.029 9.96 183.509 10.04 184.529 10.04C184.829 10.04 185.169 10.04 185.489 10.04C185.709 9.24 185.849 8.46 185.889 7.74L188.529 7.96ZM210.209 17.66H214.429V15.2H210.209V17.66ZM203.989 17.66H207.809V15.2H204.049V15.56C204.049 16.2 204.029 16.92 203.989 17.66ZM207.809 10.66H204.049V12.98H207.809V10.66ZM214.429 12.98V10.66H210.209V12.98H214.429ZM216.789 8.4V22.92C216.789 24.2 216.509 24.84 215.709 25.2C214.889 25.6 213.669 25.64 211.869 25.62C211.789 24.98 211.409 23.96 211.109 23.34C212.229 23.4 213.549 23.38 213.909 23.38C214.289 23.38 214.429 23.26 214.429 22.9V19.9H210.209V25.48H207.809V19.9H203.729C203.369 22.08 202.649 24.28 201.209 25.84C200.829 25.4 199.869 24.58 199.329 24.3C201.509 21.9 201.689 18.34 201.689 15.54V8.4H216.789ZM224.009 9.7C223.869 10.42 223.769 11.58 223.769 12.14C223.749 13.44 223.769 14.94 223.889 16.38C224.169 19.26 224.769 21.24 226.029 21.24C226.969 21.24 227.769 18.9 228.149 17.3L230.149 19.74C228.829 23.22 227.569 24.44 225.969 24.44C223.769 24.44 221.869 22.46 221.309 17.1C221.109 15.26 221.089 12.92 221.089 11.7C221.089 11.14 221.049 10.28 220.929 9.66L224.009 9.7ZM234.009 10.16C235.909 12.46 237.429 17.46 237.649 20.52L235.029 21.54C234.709 18.32 233.649 13.46 231.469 10.98L234.009 10.16ZM250.549 19.12C250.389 19.68 250.269 20.34 250.269 20.78C250.269 21.66 250.869 22.32 253.009 22.32C254.349 22.32 255.729 22.16 257.169 21.9L257.069 24.46C255.949 24.6 254.589 24.74 252.989 24.74C249.629 24.74 247.809 23.58 247.809 21.56C247.809 20.64 248.009 19.68 248.169 18.88L250.549 19.12ZM248.289 8.04C248.129 8.58 247.949 9.48 247.869 9.92C247.829 10.14 247.769 10.4 247.709 10.68C248.829 10.52 249.949 10.3 251.049 10.04V12.54C249.849 12.82 248.489 13.04 247.149 13.2C246.969 14.06 246.769 14.94 246.549 15.76C245.829 18.56 244.489 22.64 243.369 25.02L240.589 24.08C241.789 22.08 243.309 17.88 244.049 15.08C244.189 14.54 244.349 13.98 244.469 13.4C244.009 13.42 243.569 13.44 243.149 13.44C242.189 13.44 241.429 13.4 240.729 13.36L240.669 10.86C241.689 10.98 242.369 11.02 243.189 11.02C243.769 11.02 244.369 11 244.989 10.96C245.069 10.52 245.129 10.14 245.169 9.82C245.249 9.08 245.289 8.26 245.229 7.8L248.289 8.04ZM249.469 14.08C250.589 13.98 252.029 13.88 253.309 13.88C254.449 13.88 255.649 13.94 256.829 14.06L256.769 16.46C255.769 16.34 254.549 16.22 253.329 16.22C251.969 16.22 250.729 16.28 249.469 16.42V14.08ZM277.909 10.46C277.689 10.72 277.309 11.2 277.129 11.5C276.189 13.06 274.289 15.58 272.329 16.98L270.249 15.32C271.849 14.34 273.409 12.58 273.929 11.6H263.509C262.669 11.6 262.009 11.66 261.069 11.74V8.96C261.829 9.08 262.669 9.16 263.509 9.16H274.289C274.849 9.16 275.949 9.1 276.329 8.98L277.909 10.46ZM269.749 13.16C269.749 18.12 269.649 22.2 264.209 25.12L261.869 23.22C262.509 23 263.229 22.66 263.969 22.12C266.509 20.36 266.989 18.24 266.989 14.96C266.989 14.34 266.949 13.8 266.849 13.16H269.749ZM289.273 8.4C288.813 9.1 288.293 10 288.053 10.44C288.033 10.48 288.013 10.5 287.993 10.54H292.013C292.633 10.54 293.293 10.44 293.753 10.3L295.793 11.56C295.573 11.94 295.293 12.5 295.133 13C294.593 14.78 293.453 17.44 291.653 19.68C289.753 22 287.333 23.84 283.573 25.32L281.213 23.2C285.313 21.98 287.533 20.24 289.273 18.26C290.633 16.7 291.793 14.3 292.113 12.8H286.493C285.153 14.54 283.413 16.3 281.453 17.64L279.213 15.98C282.713 13.84 284.453 11.26 285.453 9.54C285.753 9.04 286.173 8.12 286.353 7.44L289.273 8.4ZM303.453 21.34V15.88C301.673 16.24 300.093 16.56 299.253 16.76L298.773 14.14C299.713 14.02 301.473 13.72 303.453 13.36V10.5C303.453 9.84 303.393 8.82 303.293 8.2H306.273C306.193 8.82 306.093 9.82 306.093 10.5V12.86C309.013 12.3 311.813 11.74 312.713 11.52C313.273 11.4 313.753 11.26 314.133 11.06L316.053 12.54C315.873 12.82 315.573 13.28 315.393 13.64C314.513 15.3 312.693 18.04 311.253 19.46L309.053 18.16C310.373 16.98 311.693 15.16 312.253 14.1C311.633 14.24 308.933 14.76 306.093 15.34V20.64C306.093 21.88 306.453 22.32 308.653 22.32C310.753 22.32 312.973 22.04 314.953 21.64L314.873 24.36C313.213 24.6 310.813 24.8 308.673 24.8C304.113 24.8 303.453 23.7 303.453 21.34ZM322.633 8.8C324.033 9.74 326.633 11.82 327.793 13.04L325.753 15.12C324.713 14 322.213 11.82 320.752 10.8L322.633 8.8ZM320.133 22.12C323.253 21.68 325.853 20.66 327.793 19.5C331.213 17.48 333.813 14.42 335.073 11.72L336.633 14.54C335.113 17.24 332.453 20 329.233 21.94C327.213 23.16 324.633 24.28 321.813 24.76L320.133 22.12ZM344.093 22.08V10.58C344.093 9.88 344.033 8.88 343.893 8.18H347.013C346.933 8.88 346.833 9.76 346.833 10.58V13.54C349.513 14.32 353.353 15.74 355.193 16.64L354.053 19.4C351.993 18.32 348.993 17.16 346.833 16.42V22.08C346.833 22.66 346.933 24.06 347.013 24.88H343.893C344.013 24.08 344.093 22.88 344.093 22.08ZM368.453 7.96C368.393 8.42 368.353 9.26 368.333 9.74C368.313 10.36 368.293 10.96 368.253 11.54H372.013C372.513 11.54 373.033 11.48 373.513 11.4L375.253 12.24C375.193 12.56 375.113 13.08 375.113 13.3C375.033 15.46 374.793 21.04 373.933 23.08C373.493 24.1 372.733 24.62 371.353 24.62C370.213 24.62 369.013 24.54 368.053 24.46L367.733 21.78C368.713 21.96 369.753 22.06 370.533 22.06C371.173 22.06 371.453 21.84 371.673 21.36C372.253 20.1 372.513 16.1 372.513 13.94H368.013C367.273 19.22 365.373 22.36 361.793 24.9L359.473 23.02C360.293 22.56 361.293 21.88 362.093 21.06C363.953 19.22 364.953 16.98 365.393 13.94H362.753C362.073 13.94 360.973 13.94 360.113 14.02V11.4C360.953 11.48 361.993 11.54 362.753 11.54H365.613C365.633 10.98 365.653 10.4 365.653 9.8C365.653 9.36 365.593 8.44 365.513 7.96H368.453ZM382.273 8.66C382.833 8.74 383.673 8.76 384.353 8.76H392.053C392.673 8.76 393.653 8.74 394.213 8.66V11.24C393.673 11.2 392.733 11.18 392.013 11.18H384.353C383.713 11.18 382.853 11.2 382.273 11.24V8.66ZM395.893 14.46C395.753 14.72 395.593 15.08 395.513 15.3C394.913 17.24 394.053 19.18 392.553 20.84C390.533 23.08 387.973 24.44 385.413 25.16L383.433 22.9C386.433 22.28 388.832 20.96 390.353 19.4C391.433 18.3 392.053 17.06 392.413 15.94H382.753C382.273 15.94 381.273 15.96 380.433 16.04V13.44C381.273 13.5 382.133 13.56 382.753 13.56H392.653C393.293 13.56 393.833 13.48 394.113 13.36L395.893 14.46ZM399.653 14.74C400.373 14.8 401.833 14.86 402.873 14.86H413.613C414.553 14.86 415.433 14.78 415.953 14.74V17.88C415.473 17.86 414.453 17.78 413.613 17.78H402.873C401.733 17.78 400.393 17.82 399.653 17.88V14.74ZM436.353 16.96C436.353 21.18 433.773 24.16 428.733 24.94L427.233 22.56C427.993 22.48 428.553 22.36 429.093 22.24C431.653 21.64 433.653 19.8 433.653 16.88C433.653 14.12 432.153 12.06 429.453 11.6C429.173 13.3 428.832 15.14 428.253 17.02C427.053 21.06 425.333 23.54 423.153 23.54C420.933 23.54 419.093 21.1 419.093 17.72C419.093 13.1 423.092 9.16 428.273 9.16C433.233 9.16 436.353 12.6 436.353 16.96ZM421.653 17.46C421.653 19.48 422.453 20.46 423.233 20.46C424.073 20.46 424.853 19.2 425.673 16.5C426.133 15.02 426.513 13.32 426.733 11.66C423.433 12.34 421.653 15.26 421.653 17.46ZM442.653 11.78V17.8C444.173 15.88 444.973 12.76 445.373 10.02H444.053V8.32C443.653 9.48 443.173 10.64 442.653 11.78ZM448.372 14.24H446.653C446.453 14.84 446.253 15.42 446.033 15.98C446.593 16.38 447.233 16.86 447.693 17.3C447.973 16.36 448.193 15.34 448.372 14.24ZM453.093 21H450.993V10.02H447.633C447.493 10.72 447.353 11.46 447.193 12.18H448.973L449.353 12.1L450.733 12.52C450.013 18.98 447.912 23.5 444.853 25.74C444.553 25.2 443.813 24.28 443.373 23.92C444.833 22.92 445.993 21.44 446.873 19.5C446.453 19 445.753 18.36 445.133 17.86C444.793 18.48 444.413 19.04 443.973 19.54C443.673 19.08 443.073 18.36 442.653 17.94V25.72H440.473V15.7C440.073 16.3 439.653 16.86 439.233 17.34C439.053 16.78 438.472 15.4 438.093 14.78C439.693 12.92 441.173 10 442.053 7.08L444.253 7.74L444.193 7.94H451.133V9.36H453.093V21ZM454.353 7.44H456.553V23.04C456.553 24.3 456.333 24.92 455.593 25.3C454.873 25.68 453.753 25.76 452.173 25.76C452.093 25.12 451.773 24.08 451.453 23.42C452.533 23.48 453.553 23.48 453.913 23.46C454.233 23.44 454.353 23.36 454.353 23.02V7.44Z" fill="#1A1A1A"/>
<rect y="62" width="140" height="140" rx="8" fill="#A565F8"/>
<path d="M5.82 229V214.2H10.68C13.94 214.2 16.46 215.34 16.46 218.86C16.46 222.24 13.94 223.74 10.76 223.74H8.78V229H5.82ZM8.78 221.4H10.56C12.6 221.4 13.58 220.54 13.58 218.86C13.58 217.12 12.5 216.56 10.46 216.56H8.78V221.4ZM23.0598 229.28C20.6398 229.28 19.5798 227.62 19.5798 224.8V217.82H22.5198V224.44C22.5198 226.16 22.9998 226.76 24.0998 226.76C25.0198 226.76 25.6198 226.36 26.3798 225.36V217.82H29.2998V229H26.8998L26.6798 227.4H26.6198C25.6398 228.54 24.5798 229.28 23.0598 229.28ZM33.2542 229V217.82H35.6342L35.8742 219.8H35.9342C36.7342 218.32 37.9542 217.54 39.1142 217.54C39.7142 217.54 40.0742 217.62 40.4142 217.78L39.9142 220.3C39.5142 220.2 39.2142 220.12 38.7342 220.12C37.8742 220.12 36.8142 220.72 36.1942 222.34V229H33.2542ZM42.7847 233.3V217.82H45.1647L45.4047 218.98H45.4647C46.3847 218.16 47.5447 217.54 48.7447 217.54C51.5047 217.54 53.1447 219.78 53.1447 223.24C53.1447 227.08 50.8447 229.28 48.3847 229.28C47.4247 229.28 46.4647 228.86 45.6247 228.08L45.7247 229.9V233.3H42.7847ZM47.7447 226.86C49.0847 226.86 50.1247 225.7 50.1247 223.28C50.1247 221.12 49.4647 219.94 47.9047 219.94C47.1647 219.94 46.4847 220.32 45.7247 221.1V226.04C46.4247 226.66 47.1447 226.86 47.7447 226.86ZM59.2158 229.28C57.1558 229.28 56.4558 227.94 56.4558 225.86V213.06H59.3958V225.98C59.3958 226.68 59.6958 226.9 59.9758 226.9C60.0758 226.9 60.1558 226.9 60.3558 226.86L60.7158 229.04C60.3758 229.16 59.9158 229.28 59.2158 229.28ZM68.4444 229.28C65.3044 229.28 62.8644 227.12 62.8644 223.42C62.8644 219.78 65.4244 217.54 68.0644 217.54C71.1644 217.54 72.7444 219.78 72.7444 222.88C72.7444 223.44 72.6844 223.96 72.6244 224.24H65.7044C65.9644 226.08 67.1644 227.02 68.8244 227.02C69.7244 227.02 70.5244 226.74 71.3444 226.24L72.3244 228.06C71.2244 228.82 69.8244 229.28 68.4444 229.28ZM65.6644 222.28H70.2444C70.2444 220.76 69.5644 219.8 68.1244 219.8C66.9444 219.8 65.9044 220.64 65.6644 222.28ZM75.3255 224.12V222.72H80.4455V224.12H75.3255ZM87.3591 229.28C85.0791 229.28 83.6791 228.32 82.6791 227.32L83.5991 226.12C84.4191 226.98 85.4991 227.76 87.1791 227.76C88.9191 227.76 90.2991 226.42 90.2991 224.3C90.2991 222.2 89.0991 220.94 87.2791 220.94C86.2991 220.94 85.6791 221.26 84.8391 221.82L83.8591 221.2L84.3191 214.34H91.4591V215.9H85.9191L85.5391 220.14C86.1991 219.78 86.8591 219.56 87.7391 219.56C90.1791 219.56 92.1591 221 92.1591 224.24C92.1591 227.44 89.8191 229.28 87.3591 229.28ZM99.5928 229.28C96.7928 229.28 95.0128 226.74 95.0128 221.62C95.0128 216.54 96.7928 214.08 99.5928 214.08C102.353 214.08 104.133 216.54 104.133 221.62C104.133 226.74 102.353 229.28 99.5928 229.28ZM99.5928 227.8C101.253 227.8 102.373 225.94 102.373 221.62C102.373 217.36 101.253 215.54 99.5928 215.54C97.9128 215.54 96.7728 217.36 96.7728 221.62C96.7728 225.94 97.9128 227.8 99.5928 227.8ZM111.487 229.28C108.687 229.28 106.907 226.74 106.907 221.62C106.907 216.54 108.687 214.08 111.487 214.08C114.247 214.08 116.027 216.54 116.027 221.62C116.027 226.74 114.247 229.28 111.487 229.28ZM111.487 227.8C113.147 227.8 114.267 225.94 114.267 221.62C114.267 217.36 113.147 215.54 111.487 215.54C109.807 215.54 108.667 217.36 108.667 221.62C108.667 225.94 109.807 227.8 111.487 227.8Z" fill="#1A1A1A"/>
<rect x="172" y="62" width="140" height="140" rx="8" fill="#3460FB"/>
<path d="M177.82 229V214.2H182.7C185.74 214.2 188.06 215.1 188.06 217.86C188.06 219.22 187.32 220.6 186.06 221.06V221.14C187.64 221.52 188.82 222.66 188.82 224.64C188.82 227.62 186.34 229 183.1 229H177.82ZM180.78 220.22H182.5C184.38 220.22 185.18 219.48 185.18 218.28C185.18 216.98 184.32 216.48 182.54 216.48H180.78V220.22ZM180.78 226.72H182.84C184.84 226.72 185.94 226 185.94 224.48C185.94 223.04 184.88 222.42 182.84 222.42H180.78V226.72ZM194.753 229.28C192.693 229.28 191.993 227.94 191.993 225.86V213.06H194.933V225.98C194.933 226.68 195.233 226.9 195.513 226.9C195.613 226.9 195.693 226.9 195.893 226.86L196.253 229.04C195.913 229.16 195.453 229.28 194.753 229.28ZM202.442 229.28C200.022 229.28 198.962 227.62 198.962 224.8V217.82H201.902V224.44C201.902 226.16 202.382 226.76 203.482 226.76C204.402 226.76 205.002 226.36 205.762 225.36V217.82H208.682V229H206.282L206.062 227.4H206.002C205.022 228.54 203.962 229.28 202.442 229.28ZM217.516 229.28C214.376 229.28 211.936 227.12 211.936 223.42C211.936 219.78 214.496 217.54 217.136 217.54C220.236 217.54 221.816 219.78 221.816 222.88C221.816 223.44 221.756 223.96 221.696 224.24H214.776C215.036 226.08 216.236 227.02 217.896 227.02C218.796 227.02 219.596 226.74 220.416 226.24L221.396 228.06C220.296 228.82 218.896 229.28 217.516 229.28ZM214.736 222.28H219.316C219.316 220.76 218.636 219.8 217.196 219.8C216.016 219.8 214.976 220.64 214.736 222.28ZM224.397 224.12V222.72H229.517V224.12H224.397ZM237.231 229.28C234.411 229.28 232.311 226.86 232.311 222.02C232.311 216.28 234.891 214.08 237.731 214.08C239.251 214.08 240.371 214.72 241.171 215.58L240.151 216.7C239.591 216.02 238.691 215.6 237.811 215.6C235.751 215.6 234.031 217.22 234.031 222.02C234.031 225.78 235.171 227.84 237.231 227.84C238.631 227.84 239.711 226.5 239.711 224.52C239.711 222.52 238.831 221.26 237.071 221.26C236.131 221.26 234.951 221.82 233.971 223.28L233.911 221.82C234.811 220.64 236.171 219.92 237.351 219.92C239.831 219.92 241.431 221.44 241.431 224.52C241.431 227.36 239.491 229.28 237.231 229.28ZM248.665 229.28C245.865 229.28 244.085 226.74 244.085 221.62C244.085 216.54 245.865 214.08 248.665 214.08C251.425 214.08 253.205 216.54 253.205 221.62C253.205 226.74 251.425 229.28 248.665 229.28ZM248.665 227.8C250.325 227.8 251.445 225.94 251.445 221.62C251.445 217.36 250.325 215.54 248.665 215.54C246.985 215.54 245.845 217.36 245.845 221.62C245.845 225.94 246.985 227.8 248.665 227.8ZM260.558 229.28C257.758 229.28 255.978 226.74 255.978 221.62C255.978 216.54 257.758 214.08 260.558 214.08C263.318 214.08 265.098 216.54 265.098 221.62C265.098 226.74 263.318 229.28 260.558 229.28ZM260.558 227.8C262.218 227.8 263.338 225.94 263.338 221.62C263.338 217.36 262.218 215.54 260.558 215.54C258.878 215.54 257.738 217.36 257.738 221.62C257.738 225.94 258.878 227.8 260.558 227.8Z" fill="#1A1A1A"/>
<rect x="344" y="62" width="140" height="140" rx="8" fill="#008BF2"/>
<path d="M349.82 229V214.2H352.78V226.52H358.8V229H349.82ZM361.943 229V217.82H364.883V229H361.943ZM363.403 216C362.383 216 361.703 215.36 361.703 214.38C361.703 213.42 362.383 212.8 363.403 212.8C364.423 212.8 365.123 213.42 365.123 214.38C365.123 215.36 364.423 216 363.403 216ZM372.737 233.86C370.117 233.86 368.077 232.96 368.077 231C368.077 230.06 368.637 229.24 369.677 228.68V228.58C369.097 228.2 368.657 227.6 368.657 226.68C368.657 225.84 369.217 225.08 369.917 224.6V224.52C369.137 223.96 368.397 222.9 368.397 221.58C368.397 218.94 370.557 217.54 372.917 217.54C373.557 217.54 374.157 217.64 374.617 217.82H378.657V219.98H376.737C377.037 220.36 377.257 220.98 377.257 221.66C377.257 224.2 375.337 225.46 372.917 225.46C372.477 225.46 371.977 225.38 371.477 225.2C371.177 225.48 370.997 225.72 370.997 226.18C370.997 226.76 371.457 227.1 372.757 227.1H374.677C377.377 227.1 378.857 227.92 378.857 229.9C378.857 232.16 376.477 233.86 372.737 233.86ZM372.917 223.66C373.897 223.66 374.677 222.9 374.677 221.58C374.677 220.26 373.917 219.54 372.917 219.54C371.937 219.54 371.157 220.26 371.157 221.58C371.157 222.9 371.937 223.66 372.917 223.66ZM373.197 232C374.877 232 376.017 231.26 376.017 230.4C376.017 229.6 375.357 229.38 374.157 229.38H372.797C372.117 229.38 371.657 229.34 371.257 229.22C370.737 229.64 370.517 230.08 370.517 230.54C370.517 231.48 371.557 232 373.197 232ZM381.55 229V213.06H384.49V217.08L384.35 219.18C385.23 218.34 386.35 217.54 387.87 217.54C390.27 217.54 391.33 219.22 391.33 222.02V229H388.39V222.4C388.39 220.64 387.89 220.06 386.81 220.06C385.89 220.06 385.31 220.5 384.49 221.3V229H381.55ZM399.223 229.28C396.563 229.28 395.543 227.6 395.543 225.1V220.12H393.983V217.94L395.723 217.82L396.043 214.78H398.483V217.82H401.263V220.12H398.483V225.1C398.483 226.38 399.023 226.98 400.003 226.98C400.383 226.98 400.803 226.84 401.123 226.72L401.603 228.86C401.003 229.06 400.223 229.28 399.223 229.28ZM409.932 229V214.2H414.812C417.852 214.2 420.173 215.1 420.173 217.86C420.173 219.22 419.433 220.6 418.172 221.06V221.14C419.752 221.52 420.932 222.66 420.932 224.64C420.932 227.62 418.452 229 415.212 229H409.932ZM412.892 220.22H414.612C416.492 220.22 417.292 219.48 417.292 218.28C417.292 216.98 416.432 216.48 414.652 216.48H412.892V220.22ZM412.892 226.72H414.952C416.952 226.72 418.052 226 418.052 224.48C418.052 223.04 416.992 222.42 414.952 222.42H412.892V226.72ZM426.866 229.28C424.806 229.28 424.106 227.94 424.106 225.86V213.06H427.046V225.98C427.046 226.68 427.346 226.9 427.626 226.9C427.726 226.9 427.806 226.9 428.006 226.86L428.366 229.04C428.026 229.16 427.566 229.28 426.866 229.28ZM434.554 229.28C432.134 229.28 431.074 227.62 431.074 224.8V217.82H434.014V224.44C434.014 226.16 434.494 226.76 435.594 226.76C436.514 226.76 437.114 226.36 437.874 225.36V217.82H440.794V229H438.394L438.174 227.4H438.114C437.134 228.54 436.074 229.28 434.554 229.28ZM449.629 229.28C446.489 229.28 444.049 227.12 444.049 223.42C444.049 219.78 446.609 217.54 449.249 217.54C452.349 217.54 453.929 219.78 453.929 222.88C453.929 223.44 453.869 223.96 453.809 224.24H446.889C447.149 226.08 448.349 227.02 450.009 227.02C450.909 227.02 451.709 226.74 452.529 226.24L453.509 228.06C452.409 228.82 451.009 229.28 449.629 229.28ZM446.849 222.28H451.429C451.429 220.76 450.749 219.8 449.309 219.8C448.129 219.8 447.089 220.64 446.849 222.28ZM456.51 224.12V222.72H461.63V224.12H456.51ZM469.343 229.28C466.523 229.28 464.423 226.86 464.423 222.02C464.423 216.28 467.003 214.08 469.843 214.08C471.363 214.08 472.483 214.72 473.283 215.58L472.263 216.7C471.703 216.02 470.803 215.6 469.923 215.6C467.863 215.6 466.143 217.22 466.143 222.02C466.143 225.78 467.283 227.84 469.343 227.84C470.743 227.84 471.823 226.5 471.823 224.52C471.823 222.52 470.943 221.26 469.183 221.26C468.243 221.26 467.063 221.82 466.083 223.28L466.023 221.82C466.923 220.64 468.283 219.92 469.463 219.92C471.943 219.92 473.543 221.44 473.543 224.52C473.543 227.36 471.603 229.28 469.343 229.28ZM480.777 229.28C477.977 229.28 476.197 226.74 476.197 221.62C476.197 216.54 477.977 214.08 480.777 214.08C483.537 214.08 485.317 216.54 485.317 221.62C485.317 226.74 483.537 229.28 480.777 229.28ZM480.777 227.8C482.437 227.8 483.557 225.94 483.557 221.62C483.557 217.36 482.437 215.54 480.777 215.54C479.097 215.54 477.957 217.36 477.957 221.62C477.957 225.94 479.097 227.8 480.777 227.8ZM492.671 229.28C489.871 229.28 488.091 226.74 488.091 221.62C488.091 216.54 489.871 214.08 492.671 214.08C495.431 214.08 497.211 216.54 497.211 221.62C497.211 226.74 495.431 229.28 492.671 229.28ZM492.671 227.8C494.331 227.8 495.451 225.94 495.451 221.62C495.451 217.36 494.331 215.54 492.671 215.54C490.991 215.54 489.851 217.36 489.851 221.62C489.851 225.94 490.991 227.8 492.671 227.8Z" fill="#1A1A1A"/>
<rect x="535" y="62" width="140" height="140" rx="8" fill="#00A3BF"/>
<path d="M546.84 229.28C543.1 229.28 540.08 226.6 540.08 221.66C540.08 216.78 543.2 213.94 546.96 213.94C548.84 213.94 550.34 214.82 551.3 215.82L549.74 217.72C548.98 216.98 548.14 216.48 547 216.48C544.78 216.48 543.1 218.4 543.1 221.56C543.1 224.8 544.6 226.72 546.96 226.72C548.22 226.72 549.22 226.12 550 225.26L551.56 227.12C550.34 228.54 548.76 229.28 546.84 229.28ZM554.977 233.5C554.337 233.5 553.877 233.42 553.457 233.28L553.997 231.02C554.197 231.08 554.497 231.18 554.777 231.18C555.897 231.18 556.537 230.46 556.877 229.46L557.057 228.8L552.697 217.82H555.677L557.437 223C557.777 224.02 558.057 225.1 558.397 226.18H558.497C558.737 225.12 559.017 224.06 559.277 223L560.837 217.82H563.657L559.677 229.36C558.697 231.98 557.497 233.5 554.977 233.5ZM568.475 229.28C566.475 229.28 565.175 227.88 565.175 225.96C565.175 223.58 567.115 222.32 571.615 221.82C571.555 220.72 571.095 219.9 569.715 219.9C568.675 219.9 567.655 220.34 566.635 220.96L565.575 219C566.895 218.2 568.475 217.54 570.255 217.54C573.095 217.54 574.555 219.22 574.555 222.48V229H572.155L571.935 227.82H571.855C570.875 228.66 569.755 229.28 568.475 229.28ZM569.435 226.98C570.275 226.98 570.895 226.6 571.615 225.9V223.64C568.875 223.98 567.975 224.72 567.975 225.74C567.975 226.6 568.575 226.98 569.435 226.98ZM578.351 229V217.82H580.731L580.971 219.3H581.031C581.991 218.34 583.151 217.54 584.671 217.54C587.071 217.54 588.131 219.22 588.131 222.02V229H585.191V222.4C585.191 220.64 584.691 220.06 583.611 220.06C582.691 220.06 582.111 220.5 581.291 221.3V229H578.351ZM591.304 224.12V222.72H596.424V224.12H591.304ZM604.137 229.28C601.317 229.28 599.217 226.86 599.217 222.02C599.217 216.28 601.797 214.08 604.637 214.08C606.157 214.08 607.277 214.72 608.077 215.58L607.057 216.7C606.497 216.02 605.597 215.6 604.717 215.6C602.657 215.6 600.937 217.22 600.937 222.02C600.937 225.78 602.077 227.84 604.137 227.84C605.537 227.84 606.617 226.5 606.617 224.52C606.617 222.52 605.737 221.26 603.977 221.26C603.037 221.26 601.857 221.82 600.877 223.28L600.817 221.82C601.717 220.64 603.077 219.92 604.257 219.92C606.737 219.92 608.337 221.44 608.337 224.52C608.337 227.36 606.397 229.28 604.137 229.28ZM615.571 229.28C612.771 229.28 610.991 226.74 610.991 221.62C610.991 216.54 612.771 214.08 615.571 214.08C618.331 214.08 620.111 216.54 620.111 221.62C620.111 226.74 618.331 229.28 615.571 229.28ZM615.571 227.8C617.231 227.8 618.351 225.94 618.351 221.62C618.351 217.36 617.231 215.54 615.571 215.54C613.891 215.54 612.751 217.36 612.751 221.62C612.751 225.94 613.891 227.8 615.571 227.8ZM627.465 229.28C624.665 229.28 622.885 226.74 622.885 221.62C622.885 216.54 624.665 214.08 627.465 214.08C630.225 214.08 632.005 216.54 632.005 221.62C632.005 226.74 630.225 229.28 627.465 229.28ZM627.465 227.8C629.125 227.8 630.245 225.94 630.245 221.62C630.245 217.36 629.125 215.54 627.465 215.54C625.785 215.54 624.645 217.36 624.645 221.62C624.645 225.94 625.785 227.8 627.465 227.8Z" fill="#1A1A1A"/>
<rect x="707" y="62" width="140" height="140" rx="8" fill="#197A4B"/>
<path d="M719.18 229.28C715.16 229.28 712.08 226.6 712.08 221.66C712.08 216.78 715.24 213.94 719.18 213.94C721.3 213.94 722.78 214.86 723.74 215.82L722.18 217.72C721.44 217.02 720.6 216.48 719.28 216.48C716.8 216.48 715.1 218.4 715.1 221.56C715.1 224.8 716.58 226.72 719.48 226.72C720.2 226.72 720.92 226.52 721.34 226.18V223.26H718.7V220.84H723.98V227.5C722.98 228.5 721.22 229.28 719.18 229.28ZM727.716 229V217.82H730.096L730.336 219.8H730.396C731.196 218.32 732.416 217.54 733.576 217.54C734.176 217.54 734.536 217.62 734.876 217.78L734.376 220.3C733.976 220.2 733.676 220.12 733.196 220.12C732.336 220.12 731.276 220.72 730.656 222.34V229H727.716ZM741.794 229.28C738.654 229.28 736.214 227.12 736.214 223.42C736.214 219.78 738.774 217.54 741.414 217.54C744.514 217.54 746.094 219.78 746.094 222.88C746.094 223.44 746.034 223.96 745.974 224.24H739.054C739.314 226.08 740.514 227.02 742.174 227.02C743.074 227.02 743.874 226.74 744.694 226.24L745.674 228.06C744.574 228.82 743.174 229.28 741.794 229.28ZM739.014 222.28H743.594C743.594 220.76 742.914 219.8 741.474 219.8C740.294 219.8 739.254 220.64 739.014 222.28ZM754.215 229.28C751.075 229.28 748.635 227.12 748.635 223.42C748.635 219.78 751.195 217.54 753.835 217.54C756.935 217.54 758.515 219.78 758.515 222.88C758.515 223.44 758.455 223.96 758.395 224.24H751.475C751.735 226.08 752.935 227.02 754.595 227.02C755.495 227.02 756.295 226.74 757.115 226.24L758.095 228.06C756.995 228.82 755.595 229.28 754.215 229.28ZM751.435 222.28H756.015C756.015 220.76 755.335 219.8 753.895 219.8C752.715 219.8 751.675 220.64 751.435 222.28ZM761.757 229V217.82H764.137L764.377 219.3H764.437C765.397 218.34 766.557 217.54 768.077 217.54C770.477 217.54 771.537 219.22 771.537 222.02V229H768.597V222.4C768.597 220.64 768.097 220.06 767.017 220.06C766.097 220.06 765.517 220.5 764.697 221.3V229H761.757ZM774.709 224.12V222.72H779.829V224.12H774.709ZM787.103 229.28C784.403 229.28 782.423 227.64 782.423 225.38C782.423 223.4 783.783 222.04 785.123 221.32V221.24C784.043 220.5 783.123 219.38 783.123 217.84C783.123 215.62 784.863 214.14 787.163 214.14C789.663 214.14 791.183 215.74 791.183 217.98C791.183 219.54 790.103 220.84 789.223 221.52V221.62C790.503 222.36 791.703 223.48 791.703 225.48C791.703 227.62 789.843 229.28 787.103 229.28ZM788.103 221.06C789.103 220.18 789.623 219.18 789.623 218.08C789.623 216.64 788.703 215.48 787.123 215.48C785.783 215.48 784.803 216.44 784.803 217.84C784.803 219.6 786.383 220.38 788.103 221.06ZM787.143 227.9C788.823 227.9 789.943 226.88 789.943 225.42C789.943 223.46 788.143 222.72 786.083 221.88C784.883 222.64 784.063 223.8 784.063 225.2C784.063 226.76 785.383 227.9 787.143 227.9ZM798.976 229.28C796.176 229.28 794.396 226.74 794.396 221.62C794.396 216.54 796.176 214.08 798.976 214.08C801.736 214.08 803.516 216.54 803.516 221.62C803.516 226.74 801.736 229.28 798.976 229.28ZM798.976 227.8C800.636 227.8 801.756 225.94 801.756 221.62C801.756 217.36 800.636 215.54 798.976 215.54C797.296 215.54 796.156 217.36 796.156 221.62C796.156 225.94 797.296 227.8 798.976 227.8ZM810.87 229.28C808.07 229.28 806.29 226.74 806.29 221.62C806.29 216.54 808.07 214.08 810.87 214.08C813.63 214.08 815.41 216.54 815.41 221.62C815.41 226.74 813.63 229.28 810.87 229.28ZM810.87 227.8C812.53 227.8 813.65 225.94 813.65 221.62C813.65 217.36 812.53 215.54 810.87 215.54C809.19 215.54 808.05 217.36 808.05 221.62C808.05 225.94 809.19 227.8 810.87 227.8Z" fill="#1A1A1A"/>
<rect x="879" y="62" width="140" height="140" rx="8" fill="#6FA104"/>
<path d="M884.82 229V214.2H887.78V226.52H893.8V229H884.82ZM896.943 229V217.82H899.883V229H896.943ZM898.403 216C897.383 216 896.703 215.36 896.703 214.38C896.703 213.42 897.383 212.8 898.403 212.8C899.423 212.8 900.123 213.42 900.123 214.38C900.123 215.36 899.423 216 898.403 216ZM903.817 229V217.82H906.197L906.437 219.3H906.497C907.437 218.34 908.477 217.54 909.917 217.54C911.537 217.54 912.477 218.24 912.997 219.48C914.037 218.42 915.117 217.54 916.577 217.54C918.957 217.54 920.037 219.22 920.037 222.02V229H917.097V222.4C917.097 220.64 916.617 220.06 915.537 220.06C914.897 220.06 914.197 220.46 913.397 221.3V229H910.457V222.4C910.457 220.64 909.957 220.06 908.877 220.06C908.257 220.06 907.517 220.46 906.757 221.3V229H903.817ZM928.774 229.28C925.634 229.28 923.194 227.12 923.194 223.42C923.194 219.78 925.754 217.54 928.394 217.54C931.494 217.54 933.074 219.78 933.074 222.88C933.074 223.44 933.014 223.96 932.954 224.24H926.034C926.294 226.08 927.494 227.02 929.154 227.02C930.054 227.02 930.854 226.74 931.674 226.24L932.654 228.06C931.554 228.82 930.154 229.28 928.774 229.28ZM925.994 222.28H930.574C930.574 220.76 929.894 219.8 928.454 219.8C927.274 219.8 926.234 220.64 925.994 222.28ZM935.655 224.12V222.72H940.775V224.12H935.655ZM946.409 229C946.669 223.46 947.669 219.9 950.549 215.9H943.449V214.34H952.609V215.44C949.169 219.86 948.549 223.28 948.309 229H946.409ZM959.923 229.28C957.123 229.28 955.343 226.74 955.343 221.62C955.343 216.54 957.123 214.08 959.923 214.08C962.683 214.08 964.463 216.54 964.463 221.62C964.463 226.74 962.683 229.28 959.923 229.28ZM959.923 227.8C961.583 227.8 962.703 225.94 962.703 221.62C962.703 217.36 961.583 215.54 959.923 215.54C958.243 215.54 957.103 217.36 957.103 221.62C957.103 225.94 958.243 227.8 959.923 227.8ZM971.816 229.28C969.016 229.28 967.236 226.74 967.236 221.62C967.236 216.54 969.016 214.08 971.816 214.08C974.576 214.08 976.356 216.54 976.356 221.62C976.356 226.74 974.576 229.28 971.816 229.28ZM971.816 227.8C973.476 227.8 974.596 225.94 974.596 221.62C974.596 217.36 973.476 215.54 971.816 215.54C970.136 215.54 968.996 217.36 968.996 221.62C968.996 225.94 970.136 227.8 971.816 227.8Z" fill="#1A1A1A"/>
<rect x="1051" y="62" width="140" height="140" rx="8" fill="#B78F00"/>
<path d="M1059.32 229V223.6L1054.86 214.2H1058L1059.48 217.82C1059.92 218.92 1060.32 219.96 1060.76 221.1H1060.84C1061.3 219.96 1061.74 218.92 1062.18 217.82L1063.64 214.2H1066.72L1062.26 223.6V229H1059.32ZM1072.59 229.28C1069.45 229.28 1067.01 227.12 1067.01 223.42C1067.01 219.78 1069.57 217.54 1072.21 217.54C1075.31 217.54 1076.89 219.78 1076.89 222.88C1076.89 223.44 1076.83 223.96 1076.77 224.24H1069.85C1070.11 226.08 1071.31 227.02 1072.97 227.02C1073.87 227.02 1074.67 226.74 1075.49 226.24L1076.47 228.06C1075.37 228.82 1073.97 229.28 1072.59 229.28ZM1069.81 222.28H1074.39C1074.39 220.76 1073.71 219.8 1072.27 219.8C1071.09 219.8 1070.05 220.64 1069.81 222.28ZM1082.89 229.28C1080.83 229.28 1080.13 227.94 1080.13 225.86V213.06H1083.07V225.98C1083.07 226.68 1083.37 226.9 1083.65 226.9C1083.75 226.9 1083.83 226.9 1084.03 226.86L1084.39 229.04C1084.05 229.16 1083.59 229.28 1082.89 229.28ZM1090 229.28C1087.94 229.28 1087.24 227.94 1087.24 225.86V213.06H1090.18V225.98C1090.18 226.68 1090.48 226.9 1090.76 226.9C1090.86 226.9 1090.94 226.9 1091.14 226.86L1091.5 229.04C1091.16 229.16 1090.7 229.28 1090 229.28ZM1099.03 229.28C1096.21 229.28 1093.65 227.12 1093.65 223.42C1093.65 219.7 1096.21 217.54 1099.03 217.54C1101.83 217.54 1104.39 219.7 1104.39 223.42C1104.39 227.12 1101.83 229.28 1099.03 229.28ZM1099.03 226.9C1100.55 226.9 1101.39 225.52 1101.39 223.42C1101.39 221.3 1100.55 219.94 1099.03 219.94C1097.49 219.94 1096.65 221.3 1096.65 223.42C1096.65 225.52 1097.49 226.9 1099.03 226.9ZM1109.24 229L1106.36 217.82H1109.28L1110.52 223.34C1110.72 224.44 1110.86 225.5 1111.06 226.6H1111.16C1111.36 225.5 1111.56 224.42 1111.84 223.34L1113.2 217.82H1115.8L1117.2 223.34C1117.46 224.44 1117.68 225.5 1117.92 226.6H1118.02C1118.22 225.5 1118.36 224.44 1118.58 223.34L1119.78 217.82H1122.52L1119.74 229H1116.28L1115.1 224.12C1114.86 223.08 1114.68 222.06 1114.46 220.86H1114.36C1114.16 222.06 1113.98 223.08 1113.74 224.14L1112.6 229H1109.24ZM1124.8 224.12V222.72H1129.92V224.12H1124.8ZM1135.56 229C1135.82 223.46 1136.82 219.9 1139.7 215.9H1132.6V214.34H1141.76V215.44C1138.32 219.86 1137.7 223.28 1137.46 229H1135.56ZM1149.07 229.28C1146.27 229.28 1144.49 226.74 1144.49 221.62C1144.49 216.54 1146.27 214.08 1149.07 214.08C1151.83 214.08 1153.61 216.54 1153.61 221.62C1153.61 226.74 1151.83 229.28 1149.07 229.28ZM1149.07 227.8C1150.73 227.8 1151.85 225.94 1151.85 221.62C1151.85 217.36 1150.73 215.54 1149.07 215.54C1147.39 215.54 1146.25 217.36 1146.25 221.62C1146.25 225.94 1147.39 227.8 1149.07 227.8ZM1160.96 229.28C1158.16 229.28 1156.38 226.74 1156.38 221.62C1156.38 216.54 1158.16 214.08 1160.96 214.08C1163.72 214.08 1165.5 216.54 1165.5 221.62C1165.5 226.74 1163.72 229.28 1160.96 229.28ZM1160.96 227.8C1162.62 227.8 1163.74 225.94 1163.74 221.62C1163.74 217.36 1162.62 215.54 1160.96 215.54C1159.28 215.54 1158.14 217.36 1158.14 221.62C1158.14 225.94 1159.28 227.8 1160.96 227.8Z" fill="#1A1A1A"/>
<rect x="1223" y="62" width="140" height="140" rx="8" fill="#FB5B01"/>
<path d="M1234.7 229.28C1230.76 229.28 1228.08 226.36 1228.08 221.54C1228.08 216.72 1230.76 213.94 1234.7 213.94C1238.62 213.94 1241.3 216.74 1241.3 221.54C1241.3 226.36 1238.62 229.28 1234.7 229.28ZM1234.7 226.72C1236.9 226.72 1238.3 224.7 1238.3 221.54C1238.3 218.38 1236.9 216.48 1234.7 216.48C1232.48 216.48 1231.1 218.38 1231.1 221.54C1231.1 224.7 1232.48 226.72 1234.7 226.72ZM1244.77 229V217.82H1247.15L1247.39 219.8H1247.45C1248.25 218.32 1249.47 217.54 1250.63 217.54C1251.23 217.54 1251.59 217.62 1251.93 217.78L1251.43 220.3C1251.03 220.2 1250.73 220.12 1250.25 220.12C1249.39 220.12 1248.33 220.72 1247.71 222.34V229H1244.77ZM1256.32 229.28C1254.32 229.28 1253.02 227.88 1253.02 225.96C1253.02 223.58 1254.96 222.32 1259.46 221.82C1259.4 220.72 1258.94 219.9 1257.56 219.9C1256.52 219.9 1255.5 220.34 1254.48 220.96L1253.42 219C1254.74 218.2 1256.32 217.54 1258.1 217.54C1260.94 217.54 1262.4 219.22 1262.4 222.48V229H1260L1259.78 227.82H1259.7C1258.72 228.66 1257.6 229.28 1256.32 229.28ZM1257.28 226.98C1258.12 226.98 1258.74 226.6 1259.46 225.9V223.64C1256.72 223.98 1255.82 224.72 1255.82 225.74C1255.82 226.6 1256.42 226.98 1257.28 226.98ZM1266.19 229V217.82H1268.57L1268.81 219.3H1268.87C1269.83 218.34 1270.99 217.54 1272.51 217.54C1274.91 217.54 1275.97 219.22 1275.97 222.02V229H1273.03V222.4C1273.03 220.64 1272.53 220.06 1271.45 220.06C1270.53 220.06 1269.95 220.5 1269.13 221.3V229H1266.19ZM1283.73 233.86C1281.11 233.86 1279.07 232.96 1279.07 231C1279.07 230.06 1279.63 229.24 1280.67 228.68V228.58C1280.09 228.2 1279.65 227.6 1279.65 226.68C1279.65 225.84 1280.21 225.08 1280.91 224.6V224.52C1280.13 223.96 1279.39 222.9 1279.39 221.58C1279.39 218.94 1281.55 217.54 1283.91 217.54C1284.55 217.54 1285.15 217.64 1285.61 217.82H1289.65V219.98H1287.73C1288.03 220.36 1288.25 220.98 1288.25 221.66C1288.25 224.2 1286.33 225.46 1283.91 225.46C1283.47 225.46 1282.97 225.38 1282.47 225.2C1282.17 225.48 1281.99 225.72 1281.99 226.18C1281.99 226.76 1282.45 227.1 1283.75 227.1H1285.67C1288.37 227.1 1289.85 227.92 1289.85 229.9C1289.85 232.16 1287.47 233.86 1283.73 233.86ZM1283.91 223.66C1284.89 223.66 1285.67 222.9 1285.67 221.58C1285.67 220.26 1284.91 219.54 1283.91 219.54C1282.93 219.54 1282.15 220.26 1282.15 221.58C1282.15 222.9 1282.93 223.66 1283.91 223.66ZM1284.19 232C1285.87 232 1287.01 231.26 1287.01 230.4C1287.01 229.6 1286.35 229.38 1285.15 229.38H1283.79C1283.11 229.38 1282.65 229.34 1282.25 229.22C1281.73 229.64 1281.51 230.08 1281.51 230.54C1281.51 231.48 1282.55 232 1284.19 232ZM1296.93 229.28C1293.79 229.28 1291.35 227.12 1291.35 223.42C1291.35 219.78 1293.91 217.54 1296.55 217.54C1299.65 217.54 1301.23 219.78 1301.23 222.88C1301.23 223.44 1301.17 223.96 1301.11 224.24H1294.19C1294.45 226.08 1295.65 227.02 1297.31 227.02C1298.21 227.02 1299.01 226.74 1299.83 226.24L1300.81 228.06C1299.71 228.82 1298.31 229.28 1296.93 229.28ZM1294.15 222.28H1298.73C1298.73 220.76 1298.05 219.8 1296.61 219.8C1295.43 219.8 1294.39 220.64 1294.15 222.28ZM1303.81 224.12V222.72H1308.93V224.12H1303.81ZM1316.65 229.28C1313.83 229.28 1311.73 226.86 1311.73 222.02C1311.73 216.28 1314.31 214.08 1317.15 214.08C1318.67 214.08 1319.79 214.72 1320.59 215.58L1319.57 216.7C1319.01 216.02 1318.11 215.6 1317.23 215.6C1315.17 215.6 1313.45 217.22 1313.45 222.02C1313.45 225.78 1314.59 227.84 1316.65 227.84C1318.05 227.84 1319.13 226.5 1319.13 224.52C1319.13 222.52 1318.25 221.26 1316.49 221.26C1315.55 221.26 1314.37 221.82 1313.39 223.28L1313.33 221.82C1314.23 220.64 1315.59 219.92 1316.77 219.92C1319.25 219.92 1320.85 221.44 1320.85 224.52C1320.85 227.36 1318.91 229.28 1316.65 229.28ZM1328.08 229.28C1325.28 229.28 1323.5 226.74 1323.5 221.62C1323.5 216.54 1325.28 214.08 1328.08 214.08C1330.84 214.08 1332.62 216.54 1332.62 221.62C1332.62 226.74 1330.84 229.28 1328.08 229.28ZM1328.08 227.8C1329.74 227.8 1330.86 225.94 1330.86 221.62C1330.86 217.36 1329.74 215.54 1328.08 215.54C1326.4 215.54 1325.26 217.36 1325.26 221.62C1325.26 225.94 1326.4 227.8 1328.08 227.8ZM1339.97 229.28C1337.17 229.28 1335.39 226.74 1335.39 221.62C1335.39 216.54 1337.17 214.08 1339.97 214.08C1342.73 214.08 1344.51 216.54 1344.51 221.62C1344.51 226.74 1342.73 229.28 1339.97 229.28ZM1339.97 227.8C1341.63 227.8 1342.75 225.94 1342.75 221.62C1342.75 217.36 1341.63 215.54 1339.97 215.54C1338.29 215.54 1337.15 217.36 1337.15 221.62C1337.15 225.94 1338.29 227.8 1339.97 227.8Z" fill="#1A1A1A"/>
<rect x="1395" y="62" width="140" height="140" rx="8" fill="#6D2700"/>
<path d="M1406.7 229.28C1402.76 229.28 1400.08 226.36 1400.08 221.54C1400.08 216.72 1402.76 213.94 1406.7 213.94C1410.62 213.94 1413.3 216.74 1413.3 221.54C1413.3 226.36 1410.62 229.28 1406.7 229.28ZM1406.7 226.72C1408.9 226.72 1410.3 224.7 1410.3 221.54C1410.3 218.38 1408.9 216.48 1406.7 216.48C1404.48 216.48 1403.1 218.38 1403.1 221.54C1403.1 224.7 1404.48 226.72 1406.7 226.72ZM1416.77 229V217.82H1419.15L1419.39 219.8H1419.45C1420.25 218.32 1421.47 217.54 1422.63 217.54C1423.23 217.54 1423.59 217.62 1423.93 217.78L1423.43 220.3C1423.03 220.2 1422.73 220.12 1422.25 220.12C1421.39 220.12 1420.33 220.72 1419.71 222.34V229H1416.77ZM1428.32 229.28C1426.32 229.28 1425.02 227.88 1425.02 225.96C1425.02 223.58 1426.96 222.32 1431.46 221.82C1431.4 220.72 1430.94 219.9 1429.56 219.9C1428.52 219.9 1427.5 220.34 1426.48 220.96L1425.42 219C1426.74 218.2 1428.32 217.54 1430.1 217.54C1432.94 217.54 1434.4 219.22 1434.4 222.48V229H1432L1431.78 227.82H1431.7C1430.72 228.66 1429.6 229.28 1428.32 229.28ZM1429.28 226.98C1430.12 226.98 1430.74 226.6 1431.46 225.9V223.64C1428.72 223.98 1427.82 224.72 1427.82 225.74C1427.82 226.6 1428.42 226.98 1429.28 226.98ZM1438.19 229V217.82H1440.57L1440.81 219.3H1440.87C1441.83 218.34 1442.99 217.54 1444.51 217.54C1446.91 217.54 1447.97 219.22 1447.97 222.02V229H1445.03V222.4C1445.03 220.64 1444.53 220.06 1443.45 220.06C1442.53 220.06 1441.95 220.5 1441.13 221.3V229H1438.19ZM1455.73 233.86C1453.11 233.86 1451.07 232.96 1451.07 231C1451.07 230.06 1451.63 229.24 1452.67 228.68V228.58C1452.09 228.2 1451.65 227.6 1451.65 226.68C1451.65 225.84 1452.21 225.08 1452.91 224.6V224.52C1452.13 223.96 1451.39 222.9 1451.39 221.58C1451.39 218.94 1453.55 217.54 1455.91 217.54C1456.55 217.54 1457.15 217.64 1457.61 217.82H1461.65V219.98H1459.73C1460.03 220.36 1460.25 220.98 1460.25 221.66C1460.25 224.2 1458.33 225.46 1455.91 225.46C1455.47 225.46 1454.97 225.38 1454.47 225.2C1454.17 225.48 1453.99 225.72 1453.99 226.18C1453.99 226.76 1454.45 227.1 1455.75 227.1H1457.67C1460.37 227.1 1461.85 227.92 1461.85 229.9C1461.85 232.16 1459.47 233.86 1455.73 233.86ZM1455.91 223.66C1456.89 223.66 1457.67 222.9 1457.67 221.58C1457.67 220.26 1456.91 219.54 1455.91 219.54C1454.93 219.54 1454.15 220.26 1454.15 221.58C1454.15 222.9 1454.93 223.66 1455.91 223.66ZM1456.19 232C1457.87 232 1459.01 231.26 1459.01 230.4C1459.01 229.6 1458.35 229.38 1457.15 229.38H1455.79C1455.11 229.38 1454.65 229.34 1454.25 229.22C1453.73 229.64 1453.51 230.08 1453.51 230.54C1453.51 231.48 1454.55 232 1456.19 232ZM1468.93 229.28C1465.79 229.28 1463.35 227.12 1463.35 223.42C1463.35 219.78 1465.91 217.54 1468.55 217.54C1471.65 217.54 1473.23 219.78 1473.23 222.88C1473.23 223.44 1473.17 223.96 1473.11 224.24H1466.19C1466.45 226.08 1467.65 227.02 1469.31 227.02C1470.21 227.02 1471.01 226.74 1471.83 226.24L1472.81 228.06C1471.71 228.82 1470.31 229.28 1468.93 229.28ZM1466.15 222.28H1470.73C1470.73 220.76 1470.05 219.8 1468.61 219.8C1467.43 219.8 1466.39 220.64 1466.15 222.28ZM1475.81 224.12V222.72H1480.93V224.12H1475.81ZM1484.39 229V227.48H1487.65V216.56H1485.03V215.38C1486.35 215.16 1487.29 214.82 1488.07 214.34H1489.47V227.48H1492.43V229H1484.39ZM1496.28 229V227.48H1499.54V216.56H1496.92V215.38C1498.24 215.16 1499.18 214.82 1499.96 214.34H1501.36V227.48H1504.32V229H1496.28ZM1511.97 229.28C1509.17 229.28 1507.39 226.74 1507.39 221.62C1507.39 216.54 1509.17 214.08 1511.97 214.08C1514.73 214.08 1516.51 216.54 1516.51 221.62C1516.51 226.74 1514.73 229.28 1511.97 229.28ZM1511.97 227.8C1513.63 227.8 1514.75 225.94 1514.75 221.62C1514.75 217.36 1513.63 215.54 1511.97 215.54C1510.29 215.54 1509.15 217.36 1509.15 221.62C1509.15 225.94 1510.29 227.8 1511.97 227.8ZM1523.87 229.28C1521.07 229.28 1519.29 226.74 1519.29 221.62C1519.29 216.54 1521.07 214.08 1523.87 214.08C1526.63 214.08 1528.41 216.54 1528.41 221.62C1528.41 226.74 1526.63 229.28 1523.87 229.28ZM1523.87 227.8C1525.53 227.8 1526.65 225.94 1526.65 221.62C1526.65 217.36 1525.53 215.54 1523.87 215.54C1522.19 215.54 1521.05 217.36 1521.05 221.62C1521.05 225.94 1522.19 227.8 1523.87 227.8Z" fill="#1A1A1A"/>
<path d="M5.264 270.416L4.576 271.392C3.952 270.8 2.656 270.048 1.584 269.616L2.224 268.736C3.296 269.136 4.608 269.84 5.264 270.416ZM4.416 274.512L3.76 275.52C3.088 275.008 1.76 274.336 0.672 273.936L1.296 273.04C2.352 273.392 3.712 274 4.416 274.512ZM4.288 277.088L5.152 277.872C4.32 279.552 3.2 281.52 2.256 283.008L1.264 282.208C2.112 280.992 3.376 278.896 4.288 277.088ZM10.72 281.6H15.328V282.736H4.88V281.6H9.504V277.728H6.016V276.608H9.504V273.168H5.408V272.048H11.056C10.304 271.248 8.768 270.144 7.456 269.472L8.224 268.576C9.536 269.232 11.136 270.288 11.92 271.072L11.12 272.048H14.992V273.168H10.72V276.608H14.416V277.728H10.72V281.6ZM27.184 270.64H22.128C22.432 271.152 22.704 271.792 22.816 272.224L22.352 272.352H26.8L26.4 272.24C26.656 271.792 26.976 271.136 27.184 270.64ZM31.504 272.352V273.328H17.856V272.352H21.648C21.52 271.888 21.248 271.248 20.976 270.768L21.52 270.64H18.576V269.68H24.032V268.608H25.2V269.68H30.688V270.64H27.84L28.448 270.768C28.144 271.344 27.824 271.904 27.536 272.352H31.504ZM28.592 275.968V275.024H20.784V275.968H28.592ZM28.592 277.776V276.8H20.784V277.776H28.592ZM29.744 274.128V278.672H23.792C24.72 279.072 25.76 279.68 26.304 280.16L25.568 280.912C25.024 280.4 23.888 279.696 22.912 279.264L23.52 278.672H19.648V274.128H29.744ZM18.288 282.864L17.376 282.24C18.48 281.6 19.232 280.528 19.616 279.472L20.624 279.84C20.16 280.992 19.472 282.16 18.288 282.864ZM23.552 282.096H26.368C27.056 282.096 27.152 281.904 27.232 280.48C27.472 280.656 27.952 280.8 28.24 280.88C28.128 282.656 27.76 283.072 26.48 283.072H23.456C21.856 283.072 21.424 282.784 21.424 281.632V279.584H22.592V281.632C22.592 282.016 22.72 282.096 23.552 282.096ZM28.192 279.888L29.104 279.328C30.192 280.128 31.392 281.296 31.952 282.16L30.992 282.752C30.48 281.904 29.28 280.704 28.192 279.888ZM41.28 273.296C40.64 273.296 40.08 272.832 40.08 272.096C40.08 271.36 40.64 270.896 41.28 270.896C41.92 270.896 42.496 271.36 42.496 272.096C42.496 272.832 41.92 273.296 41.28 273.296ZM41.28 281.136C40.64 281.136 40.08 280.656 40.08 279.936C40.08 279.2 40.64 278.72 41.28 278.72C41.92 278.72 42.496 279.2 42.496 279.936C42.496 280.656 41.92 281.136 41.28 281.136ZM64.816 271.184C64.704 271.344 64.496 271.584 64.384 271.76C63.744 272.848 62.224 274.912 60.4 276.176L59.344 275.328C60.816 274.48 62.32 272.736 62.848 271.744H53.728C53.136 271.744 52.528 271.776 51.904 271.84V270.384C52.464 270.464 53.136 270.528 53.728 270.528H62.912C63.216 270.528 63.792 270.48 64.032 270.432L64.816 271.184ZM58.432 273.296C58.432 277.632 58.048 280.56 53.968 282.592L52.784 281.632C53.232 281.488 53.776 281.232 54.224 280.912C56.704 279.392 57.056 277.12 57.056 274.448C57.056 274.064 57.04 273.712 56.992 273.296H58.432ZM74.3551 269.568C74.0831 269.984 73.7951 270.528 73.6511 270.832C73.5391 271.056 73.4111 271.28 73.2671 271.504H77.6031C78.0351 271.504 78.3871 271.456 78.6431 271.344L79.7151 272C79.5871 272.224 79.4271 272.592 79.3471 272.848C78.9151 274.464 77.9231 276.624 76.4991 278.352C75.0431 280.128 73.1391 281.6 70.1311 282.704L68.9791 281.664C71.9071 280.8 73.9071 279.344 75.3631 277.648C76.6111 276.176 77.5871 274.112 77.9231 272.656H72.5151C71.5391 274 70.1951 275.424 68.4511 276.592L67.3471 275.76C70.0991 274.112 71.6831 271.792 72.3711 270.352C72.5311 270.08 72.7711 269.504 72.8671 269.088L74.3551 269.568ZM87.2991 279.936V275.088C85.6831 275.424 84.2591 275.712 83.6031 275.856L83.3631 274.528C84.0831 274.432 85.6031 274.16 87.2991 273.84V271.104C87.2991 270.624 87.2671 270.096 87.1871 269.632H88.7071C88.6271 270.096 88.5951 270.64 88.5951 271.104V273.6C91.3151 273.072 94.1151 272.496 94.7871 272.352C95.1391 272.272 95.4431 272.176 95.6351 272.064L96.5791 272.8C96.4671 272.96 96.3071 273.232 96.1951 273.44C95.4591 274.768 94.1951 276.768 92.9151 278.096L91.7951 277.424C92.9951 276.336 94.1631 274.576 94.6431 273.616C94.3711 273.664 91.4271 274.256 88.5951 274.832V279.6C88.5951 280.704 89.0111 281.056 90.9151 281.056C92.7711 281.056 94.3071 280.896 95.9071 280.592L95.8431 281.968C94.4191 282.176 92.8191 282.288 90.8191 282.288C87.8431 282.288 87.2991 281.52 87.2991 279.936ZM102.675 270.272C103.811 271.024 105.859 272.688 106.755 273.584L105.747 274.592C104.947 273.76 102.947 272.048 101.763 271.248L102.675 270.272ZM101.299 280.992C104.099 280.576 106.179 279.6 107.699 278.656C110.163 277.104 112.115 274.736 113.043 272.768L113.811 274.128C112.723 276.128 110.851 278.304 108.435 279.824C106.835 280.832 104.819 281.808 102.147 282.304L101.299 280.992ZM121.075 280.592V271.28C121.075 270.832 121.043 270.112 120.947 269.616H122.515C122.467 270.112 122.403 270.8 122.403 271.28C122.403 271.952 122.403 272.88 122.403 273.888C124.515 274.528 127.555 275.68 129.235 276.528L128.691 277.888C126.947 276.944 124.179 275.872 122.403 275.312C122.419 277.712 122.419 280.128 122.419 280.592C122.419 281.088 122.451 281.952 122.515 282.48H120.963C121.043 281.968 121.075 281.184 121.075 280.592ZM140.451 269.408C140.403 269.776 140.371 270.336 140.355 270.72C140.339 271.296 140.307 271.84 140.275 272.368H144.083C144.515 272.368 144.835 272.336 145.107 272.288L146.003 272.736C145.955 273.008 145.923 273.312 145.923 273.52C145.859 275.056 145.667 279.712 144.947 281.248C144.627 281.92 144.115 282.224 143.235 282.224C142.419 282.224 141.491 282.16 140.659 282.112L140.499 280.784C141.363 280.896 142.211 280.96 142.883 280.96C143.347 280.96 143.635 280.832 143.811 280.432C144.419 279.216 144.627 275.28 144.627 273.568H140.147C139.571 278.16 137.907 280.592 135.235 282.432L134.067 281.488C134.579 281.216 135.235 280.768 135.715 280.304C137.299 278.864 138.451 276.864 138.883 273.568H136.195C135.571 273.568 134.915 273.568 134.355 273.632V272.272C134.915 272.336 135.571 272.368 136.179 272.368H138.995C139.027 271.856 139.059 271.312 139.059 270.736C139.059 270.384 139.011 269.792 138.947 269.408H140.451ZM152.659 270.08C153.075 270.144 153.587 270.16 154.099 270.16H160.387C160.899 270.16 161.459 270.144 161.843 270.08V271.408C161.459 271.376 160.915 271.36 160.371 271.36H154.099C153.603 271.36 153.091 271.376 152.659 271.408V270.08ZM163.011 274.304C162.931 274.448 162.835 274.656 162.803 274.768C162.371 276.352 161.651 278.016 160.467 279.312C158.787 281.152 156.787 282.096 154.739 282.656L153.747 281.52C156.019 281.056 158.019 280.032 159.379 278.592C160.355 277.568 160.995 276.208 161.283 275.056H152.787C152.403 275.056 151.795 275.072 151.219 275.104V273.76C151.811 273.824 152.355 273.856 152.787 273.856H161.219C161.587 273.856 161.923 273.824 162.099 273.728L163.011 274.304ZM167.235 275.072C167.715 275.104 168.563 275.152 169.459 275.152H178.227C179.027 275.152 179.603 275.104 179.955 275.072V276.64C179.635 276.624 178.963 276.56 178.243 276.56H169.459C168.579 276.56 167.731 276.592 167.235 276.64V275.072ZM189.603 269.344C189.507 269.824 189.379 270.448 189.139 271.2C190.771 271.12 192.515 270.976 194.019 270.704L194.003 271.888C192.419 272.144 190.435 272.272 188.691 272.336C188.323 273.184 187.795 274.096 187.251 274.816C187.859 274.432 188.787 274.224 189.475 274.224C190.515 274.224 191.363 274.736 191.619 275.664C192.707 275.136 193.683 274.752 194.515 274.368C194.995 274.16 195.379 273.984 195.827 273.744L196.355 274.944C195.939 275.056 195.363 275.28 194.931 275.456C194.035 275.792 192.899 276.256 191.683 276.832C191.699 277.76 191.715 279.12 191.731 279.904H190.499C190.531 279.296 190.547 278.256 190.547 277.408C189.059 278.192 188.019 279.04 188.019 280.096C188.019 281.344 189.267 281.536 190.915 281.536C192.163 281.536 193.875 281.392 195.283 281.152L195.251 282.432C194.035 282.592 192.259 282.72 190.867 282.72C188.579 282.72 186.739 282.224 186.739 280.272C186.739 278.384 188.643 277.2 190.515 276.224C190.355 275.536 189.779 275.232 189.059 275.232C188.051 275.232 187.027 275.728 186.307 276.4C185.843 276.832 185.395 277.424 184.851 278.064L183.763 277.264C185.779 275.312 186.851 273.664 187.459 272.368C187.219 272.368 186.979 272.368 186.755 272.368C186.067 272.368 185.011 272.336 184.131 272.272V271.072C184.979 271.184 186.099 271.248 186.835 271.248C187.171 271.248 187.539 271.248 187.891 271.232C188.115 270.544 188.259 269.824 188.291 269.232L189.603 269.344ZM208.915 274.384V271.856H205.123V270.8H208.915V268.608H210.115V270.8H214.035V271.856H210.115V274.384H213.555V275.424H205.619V274.384H208.915ZM204.323 268.608V276.08H203.219V268.608H204.323ZM202.723 271.136L201.971 271.888C201.587 271.376 200.739 270.656 200.035 270.176L200.755 269.504C201.459 269.952 202.323 270.624 202.723 271.136ZM202.787 272.832L203.027 273.808C201.971 274.304 200.867 274.816 199.939 275.232L199.523 274.256C200.371 273.92 201.571 273.392 202.787 272.832ZM212.275 278.32L213.139 278.944C212.275 279.536 211.139 280.144 210.195 280.576C211.315 281.392 212.691 281.984 214.259 282.304C214.003 282.544 213.699 282.992 213.555 283.28C210.387 282.496 208.083 280.72 206.787 278.048H206.755C206.115 278.608 205.315 279.136 204.419 279.584V281.696C205.587 281.536 206.851 281.376 208.083 281.2L208.131 282.192C205.795 282.528 203.347 282.88 201.603 283.104L201.395 282.08C201.939 282.016 202.595 281.936 203.299 281.84V280.096C202.291 280.528 201.219 280.864 200.211 281.088C200.067 280.816 199.763 280.432 199.539 280.208C201.523 279.84 203.747 279.04 205.235 278.048H199.763V277.104H206.259V275.824H207.443V277.104H214.019V278.048H207.939C208.339 278.768 208.851 279.424 209.475 279.984C210.419 279.52 211.571 278.832 212.275 278.32ZM226.291 273.936V271.84H224.627C224.275 272.624 223.875 273.328 223.443 273.936H226.291ZM218.355 277.072H221.107V275.792H218.355V277.072ZM221.107 273.696H218.355V274.96H221.107V273.696ZM230.723 271.84H227.379V273.936H230.419V279.728C230.419 280.224 230.323 280.528 230.003 280.704C229.667 280.864 229.187 280.88 228.451 280.88C228.419 280.592 228.243 280.16 228.099 279.888C228.579 279.904 228.979 279.904 229.123 279.888C229.267 279.888 229.315 279.84 229.315 279.712V275.008H227.379V283.216H226.291V275.008H224.499V280.864H223.427V273.968C223.331 274.112 223.219 274.24 223.123 274.368C222.931 274.176 222.435 273.84 222.163 273.664V277.984H218.355V280.976C219.123 280.784 219.955 280.576 220.803 280.368C220.531 279.888 220.211 279.408 219.907 278.992L220.819 278.56C221.683 279.68 222.531 281.168 222.851 282.16L221.843 282.64C221.731 282.24 221.523 281.76 221.283 281.248C219.619 281.728 217.891 282.208 216.563 282.576L216.195 281.488C216.515 281.408 216.883 281.328 217.283 281.232V272.896C217.075 273.088 216.851 273.28 216.627 273.472C216.467 273.232 216.115 272.864 215.875 272.72C217.411 271.52 218.467 269.888 219.059 268.624H220.195C221.171 269.44 222.291 270.592 222.819 271.408L222.035 272.288C221.571 271.552 220.659 270.416 219.779 269.632C219.235 270.608 218.451 271.76 217.363 272.816H219.363V271.296H220.387V272.816H222.163V273.632C223.235 272.432 224.035 270.528 224.499 268.608L225.667 268.848C225.507 269.488 225.299 270.144 225.075 270.752H230.723V271.84ZM241.603 274.416L240.483 275.024C240.051 273.92 239.027 272.288 238.019 271.12L239.075 270.592C240.131 271.76 241.155 273.328 241.603 274.416ZM239.331 277.52L239.603 278.656C237.395 279.664 234.979 280.72 233.219 281.488L232.787 280.256C233.411 280.016 234.163 279.712 234.995 279.36L234.723 269.472L235.939 269.424L236.179 278.864C237.203 278.432 238.275 277.968 239.331 277.52ZM247.635 282.256L246.643 283.168C245.907 282.064 244.419 280.384 243.059 278.944C241.811 280.832 240.067 282.224 237.571 283.264C237.411 283.024 236.915 282.48 236.627 282.24C242.115 280.224 243.811 276.352 244.515 269.44L245.811 269.568C245.427 272.992 244.819 275.712 243.699 277.856C245.123 279.296 246.819 281.072 247.635 282.256ZM256.243 272.16H253.123C252.755 272.96 252.371 273.712 251.939 274.384C252.979 274.992 254.163 275.792 254.931 276.48C255.491 275.216 255.939 273.776 256.243 272.16ZM260.803 268.624V275.968C261.939 277.04 263.235 277.92 264.499 278.496C264.227 278.72 263.859 279.184 263.651 279.504C262.691 279.008 261.715 278.32 260.803 277.52V283.184H259.587V276.352C258.675 275.376 257.843 274.304 257.203 273.216C256.035 278.256 253.635 281.44 250.595 283.136C250.387 282.864 249.939 282.432 249.651 282.256C251.555 281.264 253.187 279.712 254.387 277.552C253.651 276.848 252.435 275.952 251.331 275.28C250.995 275.728 250.643 276.144 250.275 276.512C250.083 276.304 249.571 275.92 249.299 275.744C251.059 274.112 252.387 271.472 253.123 268.608L254.291 268.848C254.083 269.6 253.843 270.352 253.571 271.056H256.579L256.803 270.992L257.571 271.28C257.507 271.744 257.411 272.192 257.331 272.624L257.955 272.384C258.387 273.184 258.947 273.968 259.587 274.72V268.624H260.803ZM279.971 276.4C279.971 279.76 277.763 282 273.971 282.496L273.219 281.312C273.731 281.264 274.227 281.184 274.595 281.104C276.643 280.64 278.659 279.12 278.659 276.352C278.659 273.936 277.107 271.936 274.387 271.712C274.179 273.2 273.875 274.832 273.427 276.32C272.451 279.616 271.187 281.296 269.699 281.296C268.275 281.296 266.851 279.664 266.851 277.024C266.851 273.552 269.939 270.512 273.843 270.512C277.587 270.512 279.971 273.152 279.971 276.4ZM268.099 276.912C268.099 278.928 269.027 279.824 269.747 279.824C270.499 279.824 271.347 278.752 272.163 276.048C272.563 274.72 272.883 273.2 273.059 271.728C269.987 272.112 268.099 274.736 268.099 276.912ZM290.755 277.216H295.059V274.56H290.755V277.216ZM285.683 277.216H289.571V274.56H285.747V275.504C285.747 276.032 285.731 276.624 285.683 277.216ZM289.571 270.88H285.747V273.44H289.571V270.88ZM295.059 273.44V270.88H290.755V273.44H295.059ZM296.227 269.744V281.616C296.227 282.384 296.019 282.736 295.507 282.944C294.963 283.136 294.035 283.152 292.531 283.136C292.483 282.816 292.291 282.304 292.131 281.984C293.251 282.032 294.339 282.016 294.627 282.016C294.947 282 295.059 281.904 295.059 281.6V278.352H290.755V283.072H289.571V278.352H285.571C285.331 280.128 284.787 281.952 283.571 283.312C283.395 283.072 282.915 282.672 282.659 282.528C284.419 280.544 284.579 277.728 284.579 275.504V269.744H296.227ZM307.923 268.656H309.075C310.323 270.272 312.275 271.776 314.083 272.576C313.827 272.864 313.539 273.312 313.379 273.648C311.667 272.72 309.651 271.168 308.563 269.728C307.571 271.104 305.699 272.72 303.811 273.696C303.683 273.424 303.395 272.96 303.187 272.72C305.091 271.776 306.995 270.144 307.923 268.656ZM313.619 275.136V276.144H309.203V279.792C309.203 280.384 309.091 280.672 308.675 280.832C308.243 280.992 307.619 281.008 306.611 281.008C306.563 280.704 306.419 280.304 306.291 280C306.979 280.016 307.603 280.016 307.795 280C307.987 280 308.051 279.952 308.051 279.776V276.144H303.891V275.136H308.051V273.696H305.715V272.704H311.587V273.696H309.203V275.136H313.619ZM313.587 279.76L312.595 280.256C312.211 279.408 311.267 278.144 310.419 277.232L311.347 276.784C312.211 277.664 313.171 278.912 313.587 279.76ZM305.539 276.832L306.595 277.088C306.035 278.304 305.139 279.52 304.291 280.304C304.083 280.128 303.635 279.84 303.363 279.696C304.243 278.96 305.059 277.888 305.539 276.832ZM303.187 271.552L302.275 272.32C301.779 271.536 300.691 270.432 299.699 269.696L300.579 268.992C301.571 269.712 302.691 270.768 303.187 271.552ZM302.739 274.88V279.984C303.523 281.168 304.947 281.696 306.867 281.776C308.611 281.84 312.195 281.792 314.083 281.664C313.939 281.952 313.747 282.512 313.683 282.88C311.939 282.944 308.627 282.976 306.867 282.912C304.739 282.832 303.251 282.272 302.227 281.024C301.507 281.696 300.755 282.384 299.955 283.072L299.315 281.888C300.035 281.392 300.851 280.704 301.587 280.048V276H299.555V274.88H302.739ZM324.243 271.84C323.619 271.232 322.579 270.256 321.891 269.744L322.803 269.088C323.331 269.488 324.547 270.496 325.155 271.12L324.243 271.84ZM319.155 270.464C319.267 270.72 319.539 271.248 319.715 271.536C320.003 272.064 320.323 272.704 320.643 273.376C322.579 272.528 324.739 271.664 326.403 271.664C328.611 271.664 329.971 272.928 329.971 274.672C329.971 276.512 328.787 277.904 326.291 277.904C325.395 277.904 324.499 277.68 323.891 277.456L323.939 276.208C324.563 276.48 325.363 276.72 326.211 276.72C327.955 276.72 328.691 275.76 328.691 274.608C328.691 273.664 327.939 272.8 326.371 272.8C324.963 272.8 322.995 273.552 321.139 274.416C321.347 274.864 321.555 275.312 321.747 275.744C322.627 277.728 323.635 280.704 324.179 282.464L322.803 282.832C322.307 280.944 321.539 278.368 320.627 276.272C320.419 275.808 320.227 275.36 320.019 274.944C318.787 275.536 317.667 276.112 316.931 276.448L316.323 275.136C316.787 275.024 317.347 274.816 317.635 274.704C318.179 274.496 318.835 274.208 319.539 273.888C319.203 273.184 318.899 272.576 318.627 272.128C318.419 271.808 318.099 271.312 317.843 270.992L319.155 270.464ZM342.979 274.432L343.491 274.4C343.795 274 344.131 273.52 344.451 272.992C344.051 272.48 343.379 271.84 342.771 271.376L343.267 270.72C343.379 270.816 343.507 270.896 343.635 271.008C343.987 270.32 344.387 269.424 344.611 268.768L345.539 269.136C345.139 269.936 344.627 270.864 344.227 271.504C344.483 271.76 344.739 272 344.931 272.224C345.315 271.568 345.667 270.912 345.923 270.352L346.787 270.768C346.115 271.904 345.267 273.28 344.499 274.336L346.195 274.224C346.051 273.904 345.891 273.584 345.731 273.312L346.467 273.008C346.899 273.744 347.347 274.704 347.459 275.312L346.691 275.68C346.659 275.488 346.595 275.264 346.499 275.024C345.299 275.152 344.163 275.232 343.155 275.328L342.979 274.432ZM337.459 274.592L338.019 274.56C338.355 274.112 338.723 273.568 339.091 273.008C338.675 272.496 337.987 271.84 337.395 271.376L337.891 270.72C338.019 270.816 338.147 270.912 338.275 271.008C338.627 270.32 339.011 269.424 339.235 268.768L340.163 269.136C339.747 269.92 339.267 270.864 338.867 271.52C339.139 271.76 339.379 272 339.555 272.224C339.939 271.568 340.291 270.912 340.547 270.352L341.411 270.768C340.723 271.952 339.827 273.408 339.011 274.496L340.579 274.4C340.451 274.048 340.307 273.712 340.147 273.408L340.883 273.136C341.299 273.856 341.667 274.832 341.779 275.44L340.995 275.776C340.963 275.616 340.931 275.424 340.867 275.232C339.715 275.328 338.611 275.44 337.635 275.536L337.459 274.592ZM345.171 277.952L346.195 278.336C345.747 279.296 345.107 280.16 344.339 280.912C344.787 281.76 345.315 282.224 345.923 282.224C346.387 282.224 346.563 281.84 346.643 280.4C346.851 280.624 347.219 280.832 347.459 280.928C347.267 282.72 346.915 283.248 345.859 283.248C344.899 283.248 344.147 282.656 343.539 281.6C342.723 282.24 341.779 282.784 340.755 283.2C340.611 283.008 340.323 282.64 340.115 282.448C341.251 282 342.275 281.408 343.107 280.688C342.771 279.856 342.499 278.848 342.291 277.696H339.795C339.779 278.016 339.731 278.32 339.699 278.624C340.483 279.104 341.411 279.744 341.907 280.192L341.235 281.008C340.851 280.64 340.179 280.128 339.507 279.664C339.171 281.088 338.579 282.336 337.411 283.184C337.251 282.944 336.947 282.576 336.691 282.4C338.147 281.392 338.579 279.6 338.739 277.696H337.603V276.8L337.107 277.504C336.899 276.992 336.403 276.016 335.971 275.216V283.2H334.899V275.808C334.419 277.504 333.795 279.136 333.139 280.16C333.011 279.872 332.739 279.424 332.547 279.168C333.459 277.84 334.355 275.312 334.787 273.152H332.883V272.064H334.899V268.608H335.971V272.064H337.699V273.152H335.971V273.872C336.387 274.448 337.475 276.192 337.715 276.64L337.651 276.736H342.131C341.779 274.416 341.635 271.632 341.619 268.624H342.691C342.659 271.744 342.835 274.512 343.171 276.736H345.347C344.963 276.416 344.451 276.048 344.003 275.808L344.563 275.232C345.171 275.552 345.891 276.016 346.259 276.384L345.923 276.736H347.235V277.696H343.331C343.491 278.544 343.683 279.28 343.907 279.904C344.435 279.312 344.867 278.656 345.171 277.952ZM362.115 275.584H359.379C357.859 275.584 357.459 275.232 357.459 273.92V268.64H358.627V271.312C359.987 270.864 361.411 270.288 362.323 269.808L363.123 270.672C361.859 271.264 360.163 271.84 358.627 272.288V273.904C358.627 274.416 358.755 274.512 359.475 274.512H362.019C362.627 274.512 362.739 274.256 362.803 272.672C363.059 272.864 363.539 273.056 363.891 273.136C363.747 275.072 363.379 275.584 362.115 275.584ZM351.411 279.04H354.787V277.568H351.411V279.04ZM354.787 275.264H351.411V276.64H354.787V275.264ZM355.955 274.272V281.856C355.955 282.448 355.843 282.784 355.411 282.976C354.963 283.152 354.275 283.168 353.267 283.168C353.203 282.864 353.043 282.384 352.883 282.096C353.635 282.128 354.307 282.112 354.531 282.096C354.739 282.096 354.787 282.048 354.787 281.84V279.952H351.411V283.2H350.307V274.272H355.955ZM353.987 270.112L354.963 269.728C355.795 270.832 356.707 272.304 357.043 273.28L356.035 273.728C355.939 273.456 355.795 273.136 355.619 272.784C353.379 272.912 351.075 273.024 349.443 273.12L349.331 272C349.699 271.984 350.099 271.968 350.547 271.952C351.091 270.944 351.683 269.584 352.019 268.608L353.219 268.896C352.787 269.872 352.275 270.992 351.779 271.904L355.059 271.76C354.723 271.184 354.355 270.608 353.987 270.112ZM359.523 282.032H362.147C362.819 282.032 362.931 281.712 363.011 279.92C363.283 280.112 363.747 280.304 364.083 280.368C363.923 282.512 363.571 283.072 362.243 283.072H359.395C357.875 283.072 357.459 282.72 357.459 281.408V276.032H358.627V278.56C360.083 278.096 361.603 277.472 362.515 276.88L363.299 277.776C362.067 278.48 360.243 279.088 358.627 279.552V281.408C358.627 281.936 358.771 282.032 359.523 282.032ZM372.643 269.344C372.547 269.824 372.419 270.448 372.179 271.2C373.811 271.12 375.555 270.976 377.059 270.704L377.043 271.888C375.459 272.144 373.475 272.272 371.731 272.336C371.363 273.184 370.835 274.096 370.291 274.816C370.899 274.432 371.827 274.224 372.515 274.224C373.555 274.224 374.403 274.736 374.659 275.664C375.747 275.136 376.723 274.752 377.555 274.368C378.035 274.16 378.419 273.984 378.867 273.744L379.395 274.944C378.979 275.056 378.403 275.28 377.971 275.456C377.075 275.792 375.939 276.256 374.723 276.832C374.739 277.76 374.755 279.12 374.771 279.904H373.539C373.571 279.296 373.587 278.256 373.587 277.408C372.099 278.192 371.059 279.04 371.059 280.096C371.059 281.344 372.307 281.536 373.955 281.536C375.203 281.536 376.915 281.392 378.323 281.152L378.291 282.432C377.075 282.592 375.299 282.72 373.907 282.72C371.619 282.72 369.779 282.224 369.779 280.272C369.779 278.384 371.683 277.2 373.555 276.224C373.395 275.536 372.819 275.232 372.099 275.232C371.091 275.232 370.067 275.728 369.347 276.4C368.883 276.832 368.435 277.424 367.891 278.064L366.803 277.264C368.819 275.312 369.891 273.664 370.499 272.368C370.259 272.368 370.019 272.368 369.795 272.368C369.107 272.368 368.051 272.336 367.171 272.272V271.072C368.019 271.184 369.139 271.248 369.875 271.248C370.211 271.248 370.579 271.248 370.931 271.232C371.155 270.544 371.299 269.824 371.331 269.232L372.643 269.344ZM387.379 275.568L387.539 276.656L385.795 277.216V281.792C385.795 282.448 385.651 282.768 385.251 282.96C384.883 283.152 384.275 283.2 383.267 283.184C383.219 282.88 383.075 282.4 382.915 282.064C383.603 282.096 384.227 282.096 384.403 282.08C384.611 282.08 384.691 282.016 384.691 281.792V277.584C383.987 277.824 383.315 278.032 382.723 278.208L382.419 277.072C383.043 276.896 383.827 276.656 384.691 276.384V272.928H382.643V271.824H384.691V268.624H385.795V271.824H387.475V272.928H385.795V276.064L387.379 275.568ZM389.091 278.736L390.003 278.192C390.707 279.024 391.491 280.176 391.827 280.944L390.835 281.536C390.547 280.768 389.779 279.568 389.091 278.736ZM397.235 274.896H395.171V276.656H397.139V277.744H395.171V281.776C395.171 282.512 395.011 282.832 394.547 283.008C394.067 283.2 393.283 283.216 392.115 283.216C392.067 282.864 391.907 282.4 391.747 282.064C392.643 282.096 393.491 282.096 393.715 282.08C393.971 282.064 394.035 282 394.035 281.776V277.744H387.907V276.656H394.035V274.896H387.715V273.792H391.923V271.76H388.531V270.672H391.923V268.688H393.059V270.672H396.467V271.76H393.059V273.792H397.235V274.896ZM401.123 275.616C401.603 275.52 402.115 275.376 402.627 275.216C403.763 274.864 406.387 273.904 408.275 273.904C410.547 273.904 412.179 275.264 412.179 277.456C412.179 280.528 409.219 282.096 404.899 282.368L404.387 281.136C407.843 281.024 410.883 280.032 410.883 277.424C410.883 276.08 409.811 275.056 408.179 275.056C406.195 275.056 402.691 276.528 401.667 276.928L401.123 275.616ZM424.131 278.176C423.987 278.704 423.907 279.2 423.907 279.616C423.907 280.368 424.323 281.104 426.611 281.104C427.651 281.104 428.755 280.992 429.731 280.784L429.683 282.08C428.819 282.208 427.763 282.304 426.595 282.304C424.067 282.304 422.691 281.536 422.691 279.952C422.691 279.328 422.803 278.736 422.931 278.064L424.131 278.176ZM422.291 269.408C422.195 269.76 422.067 270.368 422.003 270.688C421.939 271.024 421.859 271.44 421.763 271.872C422.803 271.744 423.859 271.552 424.835 271.296V272.56C423.795 272.8 422.627 272.976 421.507 273.104C421.363 273.808 421.187 274.544 420.995 275.248C420.419 277.52 419.331 280.816 418.499 282.576L417.091 282.096C418.051 280.448 419.187 277.2 419.779 274.944C419.923 274.416 420.067 273.808 420.195 273.232C419.667 273.264 419.171 273.28 418.723 273.28C418.019 273.28 417.443 273.248 416.867 273.216L416.819 271.968C417.587 272.064 418.163 272.08 418.739 272.08C419.267 272.08 419.843 272.048 420.467 272C420.579 271.44 420.659 270.928 420.707 270.608C420.771 270.16 420.787 269.616 420.755 269.28L422.291 269.408ZM423.795 274.288C424.643 274.208 425.699 274.144 426.723 274.144C427.667 274.144 428.627 274.192 429.491 274.288L429.459 275.504C428.643 275.392 427.699 275.312 426.771 275.312C425.763 275.312 424.787 275.36 423.795 275.472V274.288ZM434.595 271.024C435.123 271.088 435.827 271.12 436.339 271.12H444.227C444.611 271.12 445.091 271.104 445.411 271.088C445.395 271.456 445.363 271.952 445.363 272.336V280.592C445.363 281.168 445.411 281.888 445.427 282.144H443.987C444.003 281.968 444.003 281.632 444.019 281.248H436.195C435.539 281.248 434.819 281.28 434.387 281.312V279.856C434.803 279.904 435.491 279.952 436.163 279.952H444.019V272.4H436.355C435.763 272.4 434.963 272.432 434.595 272.448V271.024ZM452.115 270.272C453.251 271.024 455.299 272.688 456.195 273.584L455.187 274.592C454.387 273.76 452.387 272.048 451.203 271.248L452.115 270.272ZM450.739 280.992C453.539 280.576 455.619 279.6 457.139 278.656C459.603 277.104 461.555 274.736 462.483 272.768L463.251 274.128C462.163 276.128 460.291 278.304 457.875 279.824C456.275 280.832 454.259 281.808 451.587 282.304L450.739 280.992ZM477.203 270.176C477.203 270.752 477.651 271.2 478.211 271.2C478.787 271.2 479.251 270.752 479.251 270.176C479.251 269.616 478.787 269.152 478.211 269.152C477.651 269.152 477.203 269.616 477.203 270.176ZM476.467 270.176C476.467 269.216 477.251 268.416 478.211 268.416C479.187 268.416 479.971 269.216 479.971 270.176C479.971 271.152 479.187 271.92 478.211 271.92C477.251 271.92 476.467 271.152 476.467 270.176ZM473.795 269.664C473.747 269.888 473.699 270.464 473.699 270.816V272.448H477.923C478.307 272.448 478.835 272.416 479.235 272.368V273.696C478.803 273.664 478.323 273.664 477.939 273.664H473.699V281.408C473.699 282.256 473.283 282.688 472.323 282.688C471.651 282.688 470.691 282.64 470.051 282.576L469.939 281.296C470.627 281.424 471.363 281.488 471.779 281.488C472.211 281.488 472.403 281.296 472.403 280.88V273.664H467.955C467.475 273.664 467.027 273.68 466.595 273.712V272.368C467.043 272.416 467.443 272.448 467.955 272.448H472.403V270.8C472.403 270.448 472.355 269.904 472.291 269.664H473.795ZM476.963 275.6C477.811 276.624 479.091 278.624 479.731 279.776L478.547 280.432C477.923 279.184 476.723 277.184 475.875 276.176L476.963 275.6ZM470.275 276.128C469.603 277.504 468.099 279.536 467.203 280.512L466.099 279.776C467.155 278.784 468.531 276.88 469.155 275.584L470.275 276.128ZM483.395 275.072C483.875 275.104 484.723 275.152 485.619 275.152H494.387C495.187 275.152 495.763 275.104 496.115 275.072V276.64C495.795 276.624 495.123 276.56 494.403 276.56H485.619C484.739 276.56 483.891 276.592 483.395 276.64V275.072ZM507.251 269.184C507.187 269.536 507.155 270.144 507.155 270.592V271.616H509.795C510.163 271.616 510.531 271.6 510.803 271.52L511.635 272.32C511.347 272.624 510.995 272.992 510.739 273.28C509.939 274.24 508.595 275.584 507.123 276.608C507.123 277.92 507.107 279.84 507.107 280.912C507.107 281.472 507.155 282.176 507.187 282.672H505.731C505.779 282.208 505.827 281.472 505.827 280.912C505.827 279.984 505.843 278.512 505.843 277.424C504.355 278.288 502.595 278.992 500.435 279.648L499.667 278.464C502.691 277.744 504.691 276.688 506.147 275.744C507.571 274.832 508.851 273.568 509.395 272.816H502.755C502.195 272.816 501.283 272.848 500.787 272.88V271.536C501.299 271.6 502.195 271.616 502.723 271.616H505.859V270.592C505.859 270.144 505.843 269.536 505.779 269.184H507.251ZM512.387 279.856C510.995 278.832 510.035 278.192 508.531 277.392L509.363 276.448C510.867 277.248 511.731 277.76 513.219 278.768L512.387 279.856ZM518.675 270.272C519.811 271.024 521.859 272.688 522.755 273.584L521.747 274.592C520.947 273.76 518.947 272.048 517.763 271.248L518.675 270.272ZM517.299 280.992C520.099 280.576 522.179 279.6 523.699 278.656C526.163 277.104 528.115 274.736 529.043 272.768L529.811 274.128C528.723 276.128 526.851 278.304 524.435 279.824C522.835 280.832 520.819 281.808 518.147 282.304L517.299 280.992ZM537.075 280.592V271.28C537.075 270.832 537.043 270.112 536.947 269.616H538.515C538.467 270.112 538.403 270.8 538.403 271.28C538.403 271.952 538.403 272.88 538.403 273.888C540.515 274.528 543.555 275.68 545.235 276.528L544.691 277.888C542.947 276.944 540.179 275.872 538.403 275.312C538.419 277.712 538.419 280.128 538.419 280.592C538.419 281.088 538.451 281.952 538.515 282.48H536.963C537.043 281.968 537.075 281.184 537.075 280.592ZM555.619 271.2C557.363 271.488 560.595 271.424 562.195 271.184V272.48C560.483 272.672 557.379 272.672 555.619 272.48V271.2ZM556.243 277.712C556.083 278.304 556.003 278.752 556.003 279.184C556.003 279.92 556.531 280.624 558.707 280.624C560.147 280.624 561.379 280.496 562.675 280.208L562.707 281.552C561.699 281.744 560.355 281.888 558.707 281.888C556.019 281.888 554.819 280.992 554.819 279.488C554.819 278.944 554.915 278.384 555.091 277.6L556.243 277.712ZM552.563 269.968C552.483 270.24 552.339 270.752 552.275 271.04C551.971 272.512 551.475 275.376 551.475 277.168C551.475 277.952 551.523 278.624 551.619 279.408C551.891 278.688 552.275 277.728 552.547 277.072L553.219 277.584C552.803 278.72 552.227 280.416 552.083 281.168C552.035 281.408 551.987 281.712 552.003 281.888C552.019 282.064 552.035 282.288 552.051 282.448L550.899 282.528C550.579 281.392 550.307 279.552 550.307 277.392C550.307 275.04 550.835 272.304 551.027 270.976C551.091 270.608 551.139 270.192 551.139 269.84L552.563 269.968ZM569.427 268.576L570.547 268.928C570.099 270.048 569.523 271.184 568.899 272.256V283.296H567.763V273.968C567.203 274.752 566.595 275.456 566.003 276.048C565.891 275.776 565.555 275.152 565.331 274.896C566.947 273.376 568.499 270.992 569.427 268.576ZM571.683 276.416H574.515C574.531 276.176 574.531 275.936 574.531 275.696V274.048H571.683V276.416ZM578.643 274.048H575.699V275.696C575.699 275.936 575.699 276.176 575.683 276.416H578.643V274.048ZM579.779 277.424H575.619C575.491 278.528 575.203 279.568 574.563 280.496C576.163 281.376 578.179 281.92 580.451 282.192C580.195 282.448 579.907 282.912 579.747 283.264C577.491 282.928 575.491 282.304 573.859 281.328C573.059 282.112 571.907 282.784 570.243 283.28C570.115 283.024 569.779 282.528 569.523 282.288C571.091 281.888 572.147 281.344 572.899 280.672C571.955 279.968 571.171 279.104 570.579 278.08L571.571 277.76C572.051 278.592 572.739 279.296 573.587 279.888C574.099 279.152 574.339 278.304 574.451 277.424H570.579V273.04H574.531V271.472H570.115V270.384H574.531V268.688H575.699V270.384H580.307V271.472H575.699V273.04H579.779V277.424ZM590.275 277.216H594.579V274.56H590.275V277.216ZM585.203 277.216H589.091V274.56H585.267V275.504C585.267 276.032 585.251 276.624 585.203 277.216ZM589.091 270.88H585.267V273.44H589.091V270.88ZM594.579 273.44V270.88H590.275V273.44H594.579ZM595.747 269.744V281.616C595.747 282.384 595.539 282.736 595.027 282.944C594.483 283.136 593.555 283.152 592.051 283.136C592.003 282.816 591.811 282.304 591.651 281.984C592.771 282.032 593.859 282.016 594.147 282.016C594.467 282 594.579 281.904 594.579 281.6V278.352H590.275V283.072H589.091V278.352H585.091C584.851 280.128 584.307 281.952 583.091 283.312C582.915 283.072 582.435 282.672 582.179 282.528C583.939 280.544 584.099 277.728 584.099 275.504V269.744H595.747ZM608.275 269.328C608.243 269.504 608.211 270.128 608.195 270.336C608.195 270.576 608.179 270.944 608.179 271.376C608.259 271.376 608.339 271.376 608.419 271.376C610.371 271.376 612.339 271.392 613.107 271.392L613.091 272.576C612.195 272.528 610.739 272.496 608.403 272.496C608.323 272.496 608.259 272.496 608.179 272.496C608.179 273.408 608.195 274.4 608.211 275.136C608.547 275.68 608.723 276.384 608.723 277.184C608.723 279.344 607.667 281.744 603.939 282.864L602.867 281.808C604.995 281.328 606.467 280.432 607.107 278.976C606.723 279.264 606.259 279.408 605.715 279.408C604.371 279.408 603.091 278.48 603.091 276.736C603.091 275.152 604.387 273.952 605.907 273.952C606.307 273.952 606.659 274.016 606.979 274.128C606.979 273.648 606.979 273.072 606.963 272.512C604.531 272.528 601.811 272.64 599.811 272.784L599.779 271.552C601.555 271.52 604.563 271.424 606.947 271.392C606.947 270.944 606.931 270.56 606.915 270.336C606.899 269.92 606.835 269.456 606.819 269.328H608.275ZM604.291 276.72C604.291 277.712 605.027 278.304 605.923 278.304C606.867 278.304 607.475 277.552 607.331 276.032C607.075 275.328 606.531 275.024 605.907 275.024C605.075 275.024 604.291 275.68 604.291 276.72ZM620.739 280.32C620.739 281.088 621.619 281.568 622.867 281.568C623.331 281.568 623.763 281.536 624.163 281.472C624.035 280.208 623.235 279.296 622.019 279.296C621.299 279.296 620.739 279.76 620.739 280.32ZM618.691 270.208C619.059 270.256 619.507 270.272 619.827 270.272C620.659 270.272 624.467 270.144 625.315 270.064C625.795 270.032 626.019 269.984 626.179 269.936L626.915 270.864C626.627 271.072 626.307 271.28 626.019 271.52C625.219 272.128 623.043 273.984 621.795 275.024C622.531 274.768 623.299 274.688 624.019 274.688C626.675 274.688 628.579 276.288 628.579 278.448C628.579 281.024 626.467 282.688 623.075 282.688C620.899 282.688 619.571 281.744 619.571 280.416C619.571 279.312 620.547 278.336 622.035 278.336C624.035 278.336 625.107 279.648 625.299 281.168C626.579 280.672 627.299 279.744 627.299 278.432C627.299 276.864 625.795 275.68 623.715 275.68C621.043 275.68 619.619 276.816 617.587 278.88L616.675 277.936C618.003 276.848 620.051 275.136 620.979 274.352C621.875 273.616 623.875 271.936 624.691 271.216C623.843 271.248 620.643 271.392 619.795 271.44C619.443 271.456 619.075 271.488 618.739 271.536L618.691 270.208ZM644.595 271.248V269.984H639.475V271.248H644.595ZM644.595 273.36V272.08H639.475V273.36H644.595ZM645.699 269.088V274.256H638.387V269.088H645.699ZM637.027 276.944L637.283 278C635.667 278.816 633.923 279.664 632.579 280.304L632.115 279.136C632.723 278.88 633.475 278.56 634.291 278.192V273.184H632.419V272.064H634.291V268.736H635.395V272.064H637.123V273.184H635.395V277.68L637.027 276.944ZM646.835 276.16H640.259C640.051 276.544 639.827 276.928 639.571 277.28H646.451C646.451 277.28 646.435 277.6 646.403 277.76C646.163 281.056 645.907 282.304 645.459 282.768C645.219 283.04 644.931 283.12 644.563 283.168C644.211 283.184 643.619 283.184 642.979 283.152C642.979 282.864 642.867 282.432 642.707 282.192C643.299 282.24 643.827 282.256 644.067 282.256C644.291 282.256 644.435 282.24 644.547 282.08C644.819 281.792 645.059 280.784 645.267 278.272H644.019C643.379 280.176 642.131 282.24 640.755 283.28C640.563 283.04 640.195 282.768 639.907 282.592C641.203 281.728 642.371 280 643.027 278.272H641.475C640.627 279.92 639.059 281.664 637.587 282.592C637.411 282.336 637.091 282.048 636.803 281.856C638.131 281.136 639.539 279.696 640.403 278.272H638.787C638.147 278.992 637.427 279.616 636.707 280.096C636.547 279.904 636.131 279.52 635.891 279.36C637.155 278.608 638.307 277.472 639.059 276.16H636.819V275.152H646.835V276.16ZM659.843 277.936H652.499V281.504H659.843V277.936ZM651.331 283.232V276.864H661.059V283.232H659.843V282.576H652.499V283.232H651.331ZM652.163 273.808H660.179V274.864H652.163V273.808ZM655.459 268.656H656.659C658.355 271.008 661.171 273.232 663.683 274.368C663.395 274.64 663.107 275.056 662.899 275.392C660.419 274.096 657.619 271.856 656.131 269.808C654.819 271.76 652.227 274.032 649.491 275.488C649.347 275.216 649.027 274.8 648.755 274.544C651.539 273.136 654.211 270.704 655.459 268.656ZM671.939 280.08C671.939 280.896 672.739 281.344 673.891 281.344C675.235 281.344 675.635 280.656 675.635 279.6C675.635 279.44 675.635 279.248 675.619 279.04C675.107 278.88 674.563 278.784 673.987 278.784C672.787 278.784 671.939 279.296 671.939 280.08ZM676.787 269.68C676.739 270 676.707 270.32 676.691 270.64C676.675 271.072 676.659 271.824 676.643 272.576C677.619 272.496 678.563 272.368 679.411 272.208V273.44C678.531 273.584 677.603 273.68 676.643 273.744C676.659 275.36 676.771 276.96 676.835 278.304C678.131 278.816 679.171 279.616 680.003 280.368L679.299 281.44C678.499 280.688 677.699 280.048 676.883 279.584C676.883 279.696 676.883 279.808 676.883 279.92C676.883 281.232 676.275 282.496 674.115 282.496C671.971 282.496 670.787 281.648 670.787 280.208C670.787 278.864 671.987 277.792 674.083 277.792C674.611 277.792 675.107 277.84 675.571 277.936C675.523 276.704 675.427 275.136 675.411 273.824C674.899 273.84 674.387 273.856 673.875 273.856C672.963 273.856 672.131 273.808 671.187 273.744V272.544C672.099 272.624 672.947 272.672 673.907 272.672C674.403 272.672 674.915 272.656 675.411 272.64V270.656C675.411 270.384 675.379 269.952 675.347 269.68H676.787ZM668.883 269.776C668.787 270.048 668.659 270.576 668.611 270.864C668.291 272.352 667.811 275.52 667.811 277.312C667.811 278.08 667.859 278.752 667.971 279.536C668.227 278.816 668.611 277.84 668.883 277.184L669.539 277.696C669.155 278.816 668.563 280.448 668.403 281.232C668.355 281.456 668.323 281.76 668.339 281.952C668.339 282.112 668.355 282.336 668.371 282.512L667.251 282.592C666.931 281.456 666.643 279.696 666.643 277.536C666.643 275.184 667.171 272.128 667.379 270.8C667.427 270.432 667.475 270 667.475 269.664L668.883 269.776ZM684.195 271.024C684.723 271.088 685.427 271.12 685.939 271.12H693.827C694.211 271.12 694.691 271.104 695.011 271.088C694.995 271.456 694.963 271.952 694.963 272.336V280.592C694.963 281.168 695.011 281.888 695.027 282.144H693.587C693.603 281.968 693.603 281.632 693.619 281.248H685.795C685.139 281.248 684.419 281.28 683.987 281.312V279.856C684.403 279.904 685.091 279.952 685.763 279.952H693.619V272.4H685.955C685.363 272.4 684.563 272.432 684.195 272.448V271.024ZM701.715 270.272C702.851 271.024 704.899 272.688 705.795 273.584L704.787 274.592C703.987 273.76 701.987 272.048 700.803 271.248L701.715 270.272ZM700.339 280.992C703.139 280.576 705.219 279.6 706.739 278.656C709.203 277.104 711.155 274.736 712.083 272.768L712.851 274.128C711.763 276.128 709.891 278.304 707.475 279.824C705.875 280.832 703.859 281.808 701.187 282.304L700.339 280.992ZM720.115 280.592V271.28C720.115 270.832 720.083 270.112 719.987 269.616H721.555C721.507 270.112 721.443 270.8 721.443 271.28C721.443 271.952 721.443 272.88 721.443 273.888C723.555 274.528 726.595 275.68 728.275 276.528L727.731 277.888C725.987 276.944 723.219 275.872 721.443 275.312C721.459 277.712 721.459 280.128 721.459 280.592C721.459 281.088 721.491 281.952 721.555 282.48H720.003C720.083 281.968 720.115 281.184 720.115 280.592ZM735.059 270.08C735.475 270.144 735.987 270.16 736.499 270.16H742.787C743.299 270.16 743.859 270.144 744.243 270.08V271.408C743.859 271.376 743.315 271.36 742.771 271.36H736.499C736.003 271.36 735.491 271.376 735.059 271.408V270.08ZM745.411 274.304C745.331 274.448 745.235 274.656 745.203 274.768C744.771 276.352 744.051 278.016 742.867 279.312C741.187 281.152 739.187 282.096 737.139 282.656L736.147 281.52C738.419 281.056 740.419 280.032 741.779 278.592C742.755 277.568 743.395 276.208 743.683 275.056H735.187C734.803 275.056 734.195 275.072 733.619 275.104V273.76C734.211 273.824 734.755 273.856 735.187 273.856H743.619C743.987 273.856 744.323 273.824 744.499 273.728L745.411 274.304ZM760.491 271.296C760.395 271.424 760.187 271.776 760.091 272C759.547 273.376 758.539 275.248 757.403 276.688C759.083 278.128 761.035 280.208 762.075 281.472L760.955 282.432C759.883 281.024 758.187 279.136 756.555 277.68C754.843 279.52 752.683 281.28 750.315 282.352L749.291 281.28C751.867 280.272 754.235 278.368 755.883 276.528C756.971 275.296 758.139 273.408 758.539 272.08H752.299C751.739 272.08 750.859 272.144 750.683 272.16V270.704C750.907 270.736 751.819 270.8 752.299 270.8H758.475C759.003 270.8 759.419 270.752 759.675 270.672L760.491 271.296ZM769.723 280.592V271.28C769.723 270.832 769.691 270.112 769.595 269.616H771.163C771.115 270.112 771.051 270.8 771.051 271.28C771.051 271.952 771.051 272.88 771.051 273.888C773.163 274.528 776.203 275.68 777.883 276.528L777.339 277.888C775.595 276.944 772.827 275.872 771.051 275.312C771.067 277.712 771.067 280.128 771.067 280.592C771.067 281.088 771.099 281.952 771.163 282.48H769.611C769.691 281.968 769.723 281.184 769.723 280.592ZM784.987 274.672V280.944C786.299 280.656 787.723 280.32 789.083 280L789.195 281.136C786.683 281.76 783.995 282.4 782.027 282.864L781.643 281.632C782.267 281.52 783.003 281.376 783.787 281.2V268.704H784.987V273.536H788.571V274.672H784.987ZM791.867 281.744H794.347C795.083 281.744 795.195 281.168 795.291 278.864C795.595 279.104 796.075 279.296 796.411 279.376C796.251 281.984 795.931 282.88 794.411 282.88H791.739C790.187 282.88 789.771 282.416 789.771 280.688V268.704H790.971V274.4C792.443 273.696 793.963 272.832 794.907 272.08L795.787 273.088C794.459 273.952 792.651 274.832 790.971 275.552V280.704C790.971 281.584 791.099 281.744 791.867 281.744ZM812.139 276.4C812.139 279.76 809.931 282 806.139 282.496L805.387 281.312C805.899 281.264 806.395 281.184 806.763 281.104C808.811 280.64 810.827 279.12 810.827 276.352C810.827 273.936 809.275 271.936 806.555 271.712C806.347 273.2 806.043 274.832 805.595 276.32C804.619 279.616 803.355 281.296 801.867 281.296C800.443 281.296 799.019 279.664 799.019 277.024C799.019 273.552 802.107 270.512 806.011 270.512C809.755 270.512 812.139 273.152 812.139 276.4ZM800.267 276.912C800.267 278.928 801.195 279.824 801.915 279.824C802.667 279.824 803.515 278.752 804.331 276.048C804.731 274.72 805.051 273.2 805.227 271.728C802.155 272.112 800.267 274.736 800.267 276.912ZM823.003 279.84V281.504H825.163V279.84H823.003ZM825.163 276.288V274.656H823.003V276.288H825.163ZM825.163 278.912V277.216H823.003V278.912H825.163ZM819.307 280.224V275.36H817.243V280.224H819.307ZM829.547 281.504V282.528H823.003V283.216H821.883V275.632C821.611 275.904 821.323 276.144 821.035 276.384C820.891 276.192 820.555 275.856 820.315 275.632V281.264H817.243V282.512H816.267V277.36C815.995 277.92 815.707 278.448 815.371 278.912C815.243 278.64 814.907 278.064 814.699 277.808C815.867 276.112 816.539 273.552 816.955 270.784H815.147V269.696H820.763V270.784H818.075C817.899 272.016 817.659 273.216 817.355 274.336H820.315V275.424C821.659 274.4 822.747 272.976 823.547 271.28H821.835V272.96H820.795V270.24H823.995C824.203 269.712 824.379 269.168 824.523 268.608L825.659 268.832C825.515 269.312 825.371 269.792 825.211 270.24H829.467V272.96H828.395V271.28H824.795C824.411 272.128 823.995 272.928 823.499 273.648H825.451C825.723 273.04 826.011 272.304 826.171 271.76L827.291 272.032C827.035 272.576 826.763 273.152 826.523 273.648H829.051V274.656H826.283V276.288H828.795V277.216H826.283V278.912H828.795V279.84H826.283V281.504H829.547ZM835.339 268.656L836.459 268.992C835.995 270.144 835.451 271.28 834.827 272.32V283.184H833.691V274.064C833.147 274.832 832.555 275.52 831.979 276.112C831.851 275.856 831.515 275.232 831.307 274.96C832.891 273.44 834.427 271.072 835.339 268.656ZM838.107 270.432V273.36H844.043V270.432H838.107ZM846.107 277.488H842.315C843.371 279.168 844.987 280.784 846.523 281.616C846.267 281.824 845.883 282.256 845.675 282.56C844.251 281.632 842.715 279.968 841.627 278.224V283.232H840.443V278.272C839.323 280.032 837.723 281.632 836.171 282.528C835.963 282.24 835.611 281.808 835.339 281.584C836.987 280.768 838.683 279.184 839.755 277.488H835.803V276.4H840.443V274.416H836.987V269.36H845.227V274.416H841.627V276.4H846.107V277.488ZM854.827 271.2C856.571 271.488 859.803 271.424 861.403 271.184V272.48C859.691 272.672 856.587 272.672 854.827 272.48V271.2ZM855.451 277.712C855.291 278.304 855.211 278.752 855.211 279.184C855.211 279.92 855.739 280.624 857.915 280.624C859.355 280.624 860.587 280.496 861.883 280.208L861.915 281.552C860.907 281.744 859.563 281.888 857.915 281.888C855.227 281.888 854.027 280.992 854.027 279.488C854.027 278.944 854.123 278.384 854.299 277.6L855.451 277.712ZM851.771 269.968C851.691 270.24 851.547 270.752 851.483 271.04C851.179 272.512 850.683 275.376 850.683 277.168C850.683 277.952 850.731 278.624 850.827 279.408C851.099 278.688 851.483 277.728 851.755 277.072L852.427 277.584C852.011 278.72 851.435 280.416 851.291 281.168C851.243 281.408 851.195 281.712 851.211 281.888C851.227 282.064 851.243 282.288 851.259 282.448L850.107 282.528C849.787 281.392 849.515 279.552 849.515 277.392C849.515 275.04 850.043 272.304 850.235 270.976C850.299 270.608 850.347 270.192 850.347 269.84L851.771 269.968ZM872.059 274.688L871.019 275.232C870.939 274.992 870.811 274.736 870.651 274.448C868.715 274.976 866.699 275.52 865.195 275.92L864.875 274.784C865.291 274.688 865.771 274.576 866.283 274.448L866.123 269.6L867.147 269.888C868.475 269.552 869.931 269.104 870.811 268.672L871.627 269.536C870.427 270.032 868.795 270.48 867.307 270.784L867.451 274.176C868.283 273.968 869.179 273.744 870.091 273.52C869.739 272.992 869.323 272.496 868.923 272.064L869.867 271.568C870.779 272.496 871.707 273.776 872.059 274.688ZM871.579 277.536H868.107V279.104H871.579V277.536ZM876.315 279.104V277.536H872.699V279.104H876.315ZM872.699 281.648H876.315V280.016H872.699V281.648ZM868.107 281.648H871.579V280.016H868.107V281.648ZM866.987 283.216V276.56H877.483V283.152H876.315V282.64H868.107V283.216H866.987ZM872.187 269.504H878.795C878.795 269.504 878.795 269.824 878.779 270C878.619 273.472 878.475 274.736 878.075 275.184C877.835 275.472 877.547 275.584 877.131 275.632C876.747 275.664 876.043 275.648 875.339 275.616C875.307 275.28 875.195 274.864 875.019 274.56C875.707 274.624 876.363 274.624 876.603 274.624C876.843 274.64 876.987 274.624 877.115 274.464C877.339 274.208 877.483 273.184 877.611 270.512H875.179C874.907 273.056 874.203 275.008 871.835 276.096C871.723 275.84 871.403 275.44 871.147 275.248C873.243 274.336 873.835 272.656 874.059 270.512H872.187V269.504ZM891.355 270.64H886.299C886.603 271.152 886.875 271.792 886.987 272.224L886.523 272.352H890.971L890.571 272.24C890.827 271.792 891.147 271.136 891.355 270.64ZM895.675 272.352V273.328H882.027V272.352H885.819C885.691 271.888 885.419 271.248 885.147 270.768L885.691 270.64H882.747V269.68H888.203V268.608H889.371V269.68H894.859V270.64H892.011L892.619 270.768C892.315 271.344 891.995 271.904 891.707 272.352H895.675ZM892.763 275.968V275.024H884.955V275.968H892.763ZM892.763 277.776V276.8H884.955V277.776H892.763ZM893.915 274.128V278.672H887.963C888.891 279.072 889.931 279.68 890.475 280.16L889.739 280.912C889.195 280.4 888.059 279.696 887.083 279.264L887.691 278.672H883.819V274.128H893.915ZM882.459 282.864L881.547 282.24C882.651 281.6 883.403 280.528 883.787 279.472L884.795 279.84C884.331 280.992 883.643 282.16 882.459 282.864ZM887.723 282.096H890.539C891.227 282.096 891.323 281.904 891.403 280.48C891.643 280.656 892.123 280.8 892.411 280.88C892.299 282.656 891.931 283.072 890.651 283.072H887.627C886.027 283.072 885.595 282.784 885.595 281.632V279.584H886.763V281.632C886.763 282.016 886.891 282.096 887.723 282.096ZM892.363 279.888L893.275 279.328C894.363 280.128 895.563 281.296 896.123 282.16L895.163 282.752C894.651 281.904 893.451 280.704 892.363 279.888ZM902.891 269.536C902.811 270.064 902.763 270.624 902.747 271.152C902.667 272.96 902.555 276.736 902.555 279.12C902.555 280.88 903.659 281.504 905.179 281.504C908.107 281.504 909.755 279.856 910.907 278.192L911.819 279.28C910.715 280.8 908.651 282.816 905.131 282.816C902.827 282.816 901.243 281.856 901.243 279.248C901.243 276.88 901.403 272.832 901.403 271.152C901.403 270.56 901.371 269.984 901.275 269.52L902.891 269.536ZM914.966 271.376C915.574 271.36 916.086 271.328 916.39 271.296C917.43 271.184 920.454 270.88 923.398 270.64C925.142 270.48 926.646 270.4 927.718 270.352V271.632C926.806 271.632 925.398 271.648 924.582 271.888C922.31 272.624 920.918 275.056 920.918 276.944C920.918 280.08 923.83 281.072 926.438 281.168L925.974 282.496C923.014 282.384 919.638 280.8 919.638 277.232C919.638 274.736 921.158 272.704 922.63 271.824C920.918 272.016 916.838 272.4 915.11 272.768L914.966 271.376ZM941.026 270.192C940.69 270.464 940.194 270.88 939.922 271.104C938.834 272.064 936.53 273.888 935.346 274.88C934.386 275.696 934.37 275.952 935.394 276.816C936.85 278 939.682 280.288 941.378 281.984L940.242 283.04C939.906 282.656 939.538 282.256 939.138 281.872C938.018 280.72 935.586 278.64 934.098 277.408C932.578 276.144 932.77 275.456 934.21 274.24C935.41 273.232 937.842 271.312 938.93 270.208C939.25 269.888 939.65 269.44 939.842 269.136L941.026 270.192ZM954.85 278.4C954.706 278.928 954.626 279.424 954.626 279.84C954.626 280.592 955.042 281.328 957.33 281.328C958.37 281.328 959.474 281.216 960.45 281.008L960.402 282.304C959.538 282.432 958.482 282.544 957.314 282.544C954.786 282.544 953.41 281.76 953.41 280.176C953.41 279.568 953.506 278.96 953.65 278.288L954.85 278.4ZM953.01 269.648C952.914 269.984 952.786 270.592 952.722 270.912C952.658 271.264 952.562 271.664 952.482 272.096C953.522 271.968 954.578 271.776 955.554 271.536V272.784C954.514 273.024 953.346 273.2 952.226 273.328C952.066 274.032 951.906 274.768 951.714 275.472C951.138 277.744 950.05 281.056 949.218 282.8L947.81 282.32C948.77 280.672 949.906 277.424 950.498 275.168C950.642 274.64 950.786 274.032 950.914 273.456C950.386 273.488 949.89 273.504 949.442 273.504C948.738 273.504 948.162 273.472 947.586 273.44L947.538 272.192C948.306 272.288 948.882 272.304 949.458 272.304C949.986 272.304 950.562 272.272 951.186 272.224C951.298 271.664 951.378 271.152 951.426 270.832C951.49 270.384 951.506 269.84 951.474 269.52L953.01 269.648ZM954.514 274.512C955.362 274.432 956.418 274.368 957.442 274.368C958.386 274.368 959.346 274.416 960.21 274.512L960.178 275.728C959.362 275.616 958.418 275.536 957.49 275.536C956.482 275.536 955.506 275.6 954.514 275.712V274.512ZM958.482 270.128C958.898 270.704 959.474 271.68 959.794 272.336L958.93 272.72C958.61 272.064 958.066 271.104 957.634 270.496L958.482 270.128ZM960.242 269.472C960.674 270.08 961.298 271.072 961.602 271.68L960.738 272.064C960.386 271.36 959.858 270.448 959.41 269.84L960.242 269.472ZM971.426 270.656C971.314 270.32 971.17 269.824 971.026 269.408L972.386 269.232C972.514 269.984 972.802 271.04 973.122 271.968C974.274 271.808 975.602 271.552 976.69 271.184L976.834 272.432C975.858 272.72 974.594 272.944 973.522 273.088C974.018 274.32 974.722 275.552 975.314 276.384C975.538 276.688 975.778 276.96 976.018 277.232L975.362 278.128C974.594 277.952 972.658 277.776 971.506 277.696L971.602 276.624C972.498 276.704 973.682 276.8 974.258 276.864C973.634 275.952 972.866 274.544 972.322 273.216C970.418 273.392 968.114 273.376 965.602 273.184L965.57 271.904C967.922 272.192 970.146 272.224 971.89 272.096C971.698 271.504 971.538 271.024 971.426 270.656ZM968.034 277.008C967.554 277.776 967.282 278.464 967.282 279.232C967.282 280.752 968.674 281.424 971.042 281.44C972.674 281.456 974.05 281.296 975.17 281.04L975.106 282.32C974.114 282.496 972.754 282.672 970.978 282.672C967.938 282.656 966.018 281.552 966.018 279.376C966.018 278.496 966.338 277.664 966.786 276.72L968.034 277.008ZM983.25 270.832C983.186 271.216 983.122 271.968 983.122 272.384C983.106 273.392 983.122 274.848 983.234 276.176C983.49 278.848 984.274 280.624 985.41 280.624C986.226 280.624 986.978 278.96 987.394 277.36L988.402 278.496C987.442 281.216 986.466 282.144 985.394 282.144C983.874 282.144 982.418 280.64 981.986 276.496C981.842 275.104 981.81 273.152 981.81 272.224C981.81 271.856 981.794 271.184 981.698 270.8L983.25 270.832ZM991.586 271.28C993.01 273.136 994.162 276.528 994.402 279.232L993.122 279.76C992.834 276.864 991.874 273.584 990.338 271.712L991.586 271.28ZM999.426 278.096C1000.79 278.096 1001.87 279.184 1001.87 280.528C1001.87 281.888 1000.79 282.976 999.426 282.976C998.098 282.976 996.994 281.888 996.994 280.528C996.994 279.184 998.098 278.096 999.426 278.096ZM999.426 282.16C1000.34 282.16 1001.06 281.44 1001.06 280.528C1001.06 279.648 1000.34 278.912 999.426 278.912C998.546 278.912 997.81 279.648 997.81 280.528C997.81 281.44 998.546 282.16 999.426 282.16Z" fill="#1A1A1A"/>
</svg>
