<svg width="296" height="221" viewBox="0 0 296 221" fill="none" xmlns="http://www.w3.org/2000/svg">
<path d="M4.344 22L0.6 4.408H2.88L4.728 14.008C5.088 15.88 5.424 17.776 5.784 19.696H5.88C6.288 17.776 6.72 15.88 7.152 14.008L9.576 4.408H11.592L14.04 14.008C14.472 15.88 14.88 17.776 15.312 19.696H15.432C15.768 17.776 16.104 15.88 16.416 14.008L18.288 4.408H20.424L16.776 22H14.088L11.448 11.392C11.136 10.024 10.848 8.752 10.584 7.384H10.488C10.2 8.752 9.888 10.024 9.6 11.392L6.984 22H4.344ZM24.2383 22V2.92H26.4223V8.128L26.3503 10.816C27.5503 9.64 28.8703 8.656 30.6703 8.656C33.4063 8.656 34.6543 10.432 34.6543 13.744V22H32.4463V14.032C32.4463 11.584 31.7023 10.552 29.9743 10.552C28.6543 10.552 27.7183 11.248 26.4223 12.544V22H24.2383ZM39.7764 22V8.968H41.9604V22H39.7764ZM40.8804 6.28C40.0164 6.28 39.4164 5.728 39.4164 4.816C39.4164 3.976 40.0164 3.424 40.8804 3.424C41.7204 3.424 42.3444 3.976 42.3444 4.816C42.3444 5.728 41.7204 6.28 40.8804 6.28ZM51.4258 22.336C48.6418 22.336 47.7298 20.584 47.7298 17.992V10.744H45.7858V9.112L47.8258 8.968L48.0658 5.296H49.9138V8.968H53.4418V10.744H49.9138V18.04C49.9138 19.624 50.4178 20.56 51.9298 20.56C52.3858 20.56 52.9858 20.368 53.3938 20.2L53.8258 21.832C53.1058 22.096 52.2418 22.336 51.4258 22.336ZM62.1868 22.336C58.7068 22.336 55.9468 19.792 55.9468 15.52C55.9468 11.272 58.8028 8.656 61.8028 8.656C65.1148 8.656 66.9868 11.032 66.9868 14.776C66.9868 15.232 66.9628 15.688 66.8908 16.024H58.1068C58.2748 18.784 59.9548 20.584 62.4508 20.584C63.6988 20.584 64.7308 20.176 65.6908 19.528L66.4828 20.992C65.3308 21.736 63.9628 22.336 62.1868 22.336ZM58.0828 14.44H65.0668C65.0668 11.824 63.8908 10.408 61.8268 10.408C60.0028 10.408 58.3708 11.872 58.0828 14.44Z" fill="#1A1A1A"/>
<path d="M1.616 47L2.048 43.352H0.624V42.328H2.176L2.512 39.688H0.992V38.664H2.624L3.04 35.384H3.984L3.568 38.664H5.936L6.368 35.384H7.312L6.896 38.664H8.336V39.688H6.784L6.448 42.328H7.984V43.352H6.32L5.888 47H4.944L5.36 43.352H3.008L2.56 47H1.616ZM3.12 42.328H5.504L5.824 39.688H3.44L3.12 42.328ZM11.115 47V35.272H17.867V36.52H12.603V40.504H17.067V41.736H12.603V47H11.115ZM20.5831 47V35.272H27.3351V36.52H22.0711V40.504H26.5351V41.736H22.0711V47H20.5831ZM30.0513 47V35.272H36.8033V36.52H31.5393V40.504H36.0033V41.736H31.5393V47H30.0513ZM39.5194 47V35.272H46.2714V36.52H41.0074V40.504H45.4714V41.736H41.0074V47H39.5194ZM48.9875 47V35.272H55.7395V36.52H50.4755V40.504H54.9395V41.736H50.4755V47H48.9875ZM58.4556 47V35.272H65.2076V36.52H59.9436V40.504H64.4076V41.736H59.9436V47H58.4556Z" fill="#1A1A1A"/>
<rect x="0.5" y="60.5" width="107" height="159.112" rx="3.5" fill="white" stroke="#949494"/>
<path d="M190.4 22V4.408H195.608C199.184 4.408 201.656 5.632 201.656 8.728C201.656 10.456 200.744 11.992 199.088 12.544V12.64C201.2 13.048 202.664 14.464 202.664 16.864C202.664 20.296 199.928 22 196.016 22H190.4ZM192.632 11.896H195.224C198.248 11.896 199.472 10.792 199.472 8.992C199.472 6.928 198.08 6.16 195.344 6.16H192.632V11.896ZM192.632 20.248H195.704C198.704 20.248 200.504 19.168 200.504 16.792C200.504 14.608 198.776 13.6 195.704 13.6H192.632V20.248ZM209.245 22.336C207.589 22.336 206.941 21.28 206.941 19.408V2.92H209.125V19.552C209.125 20.248 209.413 20.512 209.749 20.512C209.845 20.512 209.941 20.512 210.205 20.464L210.493 22.144C210.181 22.24 209.845 22.336 209.245 22.336ZM217.722 22.336C215.538 22.336 213.906 20.968 213.906 18.616C213.906 15.784 216.354 14.368 221.898 13.744C221.898 12.064 221.37 10.456 219.234 10.456C217.698 10.456 216.33 11.176 215.322 11.872L214.458 10.336C215.658 9.568 217.482 8.656 219.57 8.656C222.762 8.656 224.106 10.768 224.106 14.008V22H222.306L222.114 20.464H222.018C220.794 21.496 219.33 22.336 217.722 22.336ZM218.322 20.56C219.594 20.56 220.65 19.96 221.898 18.832V15.208C217.506 15.712 216.042 16.792 216.042 18.472C216.042 19.96 217.05 20.56 218.322 20.56ZM234.317 22.336C230.861 22.336 228.221 19.816 228.221 15.52C228.221 11.152 231.149 8.656 234.485 8.656C236.189 8.656 237.389 9.352 238.301 10.192L237.197 11.632C236.429 10.936 235.613 10.48 234.605 10.48C232.205 10.48 230.477 12.496 230.477 15.52C230.477 18.496 232.133 20.512 234.533 20.512C235.709 20.512 236.789 19.936 237.605 19.216L238.541 20.68C237.389 21.712 235.877 22.336 234.317 22.336ZM242.4 22V2.92H244.56V15.856H244.632L250.176 8.968H252.624L248.28 14.224L253.176 22H250.8L246.984 15.712L244.56 18.568V22H242.4Z" fill="#1A1A1A"/>
<path d="M189.616 47L190.048 43.352H188.624V42.328H190.176L190.512 39.688H188.992V38.664H190.624L191.04 35.384H191.984L191.568 38.664H193.936L194.368 35.384H195.312L194.896 38.664H196.336V39.688H194.784L194.448 42.328H195.984V43.352H194.32L193.888 47H192.944L193.36 43.352H191.008L190.56 47H189.616ZM191.12 42.328H193.504L193.824 39.688H191.44L191.12 42.328ZM201.963 47.224C199.723 47.224 198.299 45.192 198.299 41.096C198.299 37.032 199.723 35.064 201.963 35.064C204.171 35.064 205.595 37.032 205.595 41.096C205.595 45.192 204.171 47.224 201.963 47.224ZM201.963 46.04C203.291 46.04 204.187 44.552 204.187 41.096C204.187 37.688 203.291 36.232 201.963 36.232C200.619 36.232 199.707 37.688 199.707 41.096C199.707 44.552 200.619 46.04 201.963 46.04ZM211.478 47.224C209.238 47.224 207.814 45.192 207.814 41.096C207.814 37.032 209.238 35.064 211.478 35.064C213.686 35.064 215.11 37.032 215.11 41.096C215.11 45.192 213.686 47.224 211.478 47.224ZM211.478 46.04C212.806 46.04 213.702 44.552 213.702 41.096C213.702 37.688 212.806 36.232 211.478 36.232C210.134 36.232 209.222 37.688 209.222 41.096C209.222 44.552 210.134 46.04 211.478 46.04ZM220.993 47.224C218.753 47.224 217.329 45.192 217.329 41.096C217.329 37.032 218.753 35.064 220.993 35.064C223.201 35.064 224.625 37.032 224.625 41.096C224.625 45.192 223.201 47.224 220.993 47.224ZM220.993 46.04C222.321 46.04 223.217 44.552 223.217 41.096C223.217 37.688 222.321 36.232 220.993 36.232C219.649 36.232 218.737 37.688 218.737 41.096C218.737 44.552 219.649 46.04 220.993 46.04ZM230.508 47.224C228.268 47.224 226.844 45.192 226.844 41.096C226.844 37.032 228.268 35.064 230.508 35.064C232.716 35.064 234.14 37.032 234.14 41.096C234.14 45.192 232.716 47.224 230.508 47.224ZM230.508 46.04C231.836 46.04 232.732 44.552 232.732 41.096C232.732 37.688 231.836 36.232 230.508 36.232C229.164 36.232 228.252 37.688 228.252 41.096C228.252 44.552 229.164 46.04 230.508 46.04ZM240.023 47.224C237.783 47.224 236.359 45.192 236.359 41.096C236.359 37.032 237.783 35.064 240.023 35.064C242.231 35.064 243.655 37.032 243.655 41.096C243.655 45.192 242.231 47.224 240.023 47.224ZM240.023 46.04C241.351 46.04 242.247 44.552 242.247 41.096C242.247 37.688 241.351 36.232 240.023 36.232C238.679 36.232 237.767 37.688 237.767 41.096C237.767 44.552 238.679 46.04 240.023 46.04ZM249.538 47.224C247.298 47.224 245.874 45.192 245.874 41.096C245.874 37.032 247.298 35.064 249.538 35.064C251.746 35.064 253.17 37.032 253.17 41.096C253.17 45.192 251.746 47.224 249.538 47.224ZM249.538 46.04C250.866 46.04 251.762 44.552 251.762 41.096C251.762 37.688 250.866 36.232 249.538 36.232C248.194 36.232 247.282 37.688 247.282 41.096C247.282 44.552 248.194 46.04 249.538 46.04Z" fill="#1A1A1A"/>
<rect x="188.5" y="60.5" width="107" height="159.112" rx="3.5" fill="black" stroke="#949494"/>
</svg>
