<svg width="1452" height="341" viewBox="0 0 1452 341" fill="none" xmlns="http://www.w3.org/2000/svg">
<path d="M6.264 76.336C3.528 76.336 1.848 75.184 0.648 73.984L1.752 72.544C2.736 73.576 4.032 74.512 6.048 74.512C8.136 74.512 9.792 72.904 9.792 70.36C9.792 67.84 8.352 66.328 6.168 66.328C4.992 66.328 4.248 66.712 3.24 67.384L2.064 66.64L2.616 58.408H11.184V60.28H4.536L4.08 65.368C4.872 64.936 5.664 64.672 6.72 64.672C9.648 64.672 12.024 66.4 12.024 70.288C12.024 74.128 9.216 76.336 6.264 76.336ZM20.9445 76.336C17.5845 76.336 15.4485 73.288 15.4485 67.144C15.4485 61.048 17.5845 58.096 20.9445 58.096C24.2565 58.096 26.3925 61.048 26.3925 67.144C26.3925 73.288 24.2565 76.336 20.9445 76.336ZM20.9445 74.56C22.9365 74.56 24.2805 72.328 24.2805 67.144C24.2805 62.032 22.9365 59.848 20.9445 59.848C18.9285 59.848 17.5605 62.032 17.5605 67.144C17.5605 72.328 18.9285 74.56 20.9445 74.56Z" fill="#1A1A1A"/>
<path d="M1.616 101L2.048 97.352H0.624V96.328H2.176L2.512 93.688H0.992V92.664H2.624L3.04 89.384H3.984L3.568 92.664H5.936L6.368 89.384H7.312L6.896 92.664H8.336V93.688H6.784L6.448 96.328H7.984V97.352H6.32L5.888 101H4.944L5.36 97.352H3.008L2.56 101H1.616ZM3.12 96.328H5.504L5.824 93.688H3.44L3.12 96.328ZM11.115 101V89.272H17.867V90.52H12.603V94.2H17.035V95.464H12.603V99.752H18.043V101H11.115ZM24.0409 101.224C21.8809 101.224 20.2969 99.912 20.2969 98.104C20.2969 96.6 21.3849 95.576 22.4569 95.016V94.952C21.6089 94.36 20.8569 93.512 20.8569 92.312C20.8569 90.552 22.2489 89.4 24.0889 89.4C26.0889 89.4 27.3049 90.648 27.3049 92.424C27.3049 93.624 26.4249 94.632 25.7369 95.16V95.24C26.7449 95.848 27.7209 96.648 27.7209 98.184C27.7209 99.896 26.2329 101.224 24.0409 101.224ZM24.8409 94.792C25.6249 94.088 26.0569 93.336 26.0569 92.488C26.0569 91.368 25.3209 90.472 24.0569 90.472C22.9849 90.472 22.2009 91.208 22.2009 92.312C22.2009 93.672 23.4649 94.248 24.8409 94.792ZM24.0729 100.12C25.4169 100.12 26.3129 99.304 26.3129 98.136C26.3129 96.648 24.8729 96.136 23.2249 95.464C22.2809 96.072 21.6089 96.904 21.6089 97.96C21.6089 99.208 22.6649 100.12 24.0729 100.12ZM30.6919 101V89.272H37.4439V90.52H32.1799V94.504H36.6439V95.736H32.1799V101H30.6919ZM39.968 101V99.784H42.576V91.384H40.48V90.44C41.536 90.248 42.288 89.976 42.912 89.608H44.032V99.784H46.4V101H39.968ZM49.675 101V89.272H56.427V90.52H51.163V94.504H55.627V95.736H51.163V101H49.675ZM59.1431 101V89.272H65.8951V90.52H60.6311V94.2H65.0631V95.464H60.6311V99.752H66.0711V101H59.1431Z" fill="#1A1A1A"/>
<rect y="114" width="108" height="160.112" rx="4" fill="#E8F1FE"/>
<path d="M114.112 76V74.176H118.024V61.072H114.88V59.656C116.464 59.392 117.592 58.984 118.528 58.408H120.208V74.176H123.76V76H114.112ZM132.945 76.336C129.585 76.336 127.449 73.288 127.449 67.144C127.449 61.048 129.585 58.096 132.945 58.096C136.257 58.096 138.392 61.048 138.392 67.144C138.392 73.288 136.257 76.336 132.945 76.336ZM132.945 74.56C134.937 74.56 136.281 72.328 136.281 67.144C136.281 62.032 134.937 59.848 132.945 59.848C130.929 59.848 129.561 62.032 129.561 67.144C129.561 72.328 130.929 74.56 132.945 74.56ZM147.217 76.336C143.857 76.336 141.721 73.288 141.721 67.144C141.721 61.048 143.857 58.096 147.217 58.096C150.529 58.096 152.665 61.048 152.665 67.144C152.665 73.288 150.529 76.336 147.217 76.336ZM147.217 74.56C149.209 74.56 150.553 72.328 150.553 67.144C150.553 62.032 149.209 59.848 147.217 59.848C145.201 59.848 143.833 62.032 143.833 67.144C143.833 72.328 145.201 74.56 147.217 74.56Z" fill="#1A1A1A"/>
<path d="M113.616 101L114.048 97.352H112.624V96.328H114.176L114.512 93.688H112.992V92.664H114.624L115.04 89.384H115.984L115.568 92.664H117.936L118.368 89.384H119.312L118.896 92.664H120.336V93.688H118.784L118.448 96.328H119.984V97.352H118.32L117.888 101H116.944L117.36 97.352H115.008L114.56 101H113.616ZM115.12 96.328H117.504L117.824 93.688H115.44L115.12 96.328ZM123.115 101V89.272H126.043C129.659 89.272 131.579 91.368 131.579 95.096C131.579 98.824 129.659 101 126.123 101H123.115ZM124.603 99.784H125.931C128.683 99.784 130.059 98.072 130.059 95.096C130.059 92.12 128.683 90.488 125.931 90.488H124.603V99.784ZM136.835 101.224C135.603 101.224 134.707 100.712 134.083 100.024L134.899 99.096C135.363 99.672 136.067 100.008 136.771 100.008C138.419 100.008 139.795 98.712 139.795 94.872C139.795 92.056 138.883 90.536 137.235 90.536C136.115 90.536 135.251 91.528 135.251 93.048C135.251 94.536 135.955 95.48 137.363 95.48C138.115 95.48 139.043 95.032 139.811 93.848L139.891 95.016C139.155 95.976 138.083 96.568 137.123 96.568C135.139 96.568 133.875 95.384 133.875 93.048C133.875 90.872 135.411 89.4 137.235 89.4C139.491 89.4 141.171 91.208 141.171 94.872C141.171 99.464 139.091 101.224 136.835 101.224ZM144.286 101V89.272H151.038V90.52H145.774V94.2H150.206V95.464H145.774V99.752H151.214V101H144.286ZM157.548 101.224C155.292 101.224 153.596 99.4 153.596 95.736C153.596 91.144 155.676 89.4 157.948 89.4C159.164 89.4 160.06 89.912 160.684 90.584L159.884 91.496C159.42 90.952 158.716 90.616 157.996 90.616C156.364 90.616 154.988 91.896 154.988 95.736C154.988 98.552 155.884 100.072 157.532 100.072C158.668 100.072 159.532 99.064 159.532 97.56C159.532 96.072 158.828 95.128 157.404 95.128C156.668 95.128 155.74 95.576 154.94 96.76L154.892 95.592C155.628 94.632 156.684 94.04 157.644 94.04C159.612 94.04 160.908 95.224 160.908 97.56C160.908 99.752 159.356 101.224 157.548 101.224ZM163.863 101V89.272H170.615V90.52H165.351V94.504H169.815V95.736H165.351V101H163.863ZM173.331 101V89.272H180.083V90.52H174.819V94.504H179.283V95.736H174.819V101H173.331Z" fill="#1A1A1A"/>
<rect x="112" y="114" width="108" height="160.112" rx="4" fill="#D9E6FF"/>
<path d="M225.056 76V74.728C230.576 69.904 233.096 66.376 233.096 63.376C233.096 61.36 232.064 59.872 229.88 59.872C228.44 59.872 227.192 60.76 226.208 61.912L224.936 60.688C226.376 59.128 227.912 58.096 230.144 58.096C233.288 58.096 235.256 60.136 235.256 63.28C235.256 66.808 232.496 70.384 228.344 74.296C229.28 74.2 230.336 74.128 231.224 74.128H236.096V76H225.056ZM244.945 76.336C241.585 76.336 239.449 73.288 239.449 67.144C239.449 61.048 241.585 58.096 244.945 58.096C248.257 58.096 250.392 61.048 250.392 67.144C250.392 73.288 248.257 76.336 244.945 76.336ZM244.945 74.56C246.937 74.56 248.281 72.328 248.281 67.144C248.281 62.032 246.937 59.848 244.945 59.848C242.929 59.848 241.561 62.032 241.561 67.144C241.561 72.328 242.929 74.56 244.945 74.56ZM259.217 76.336C255.857 76.336 253.721 73.288 253.721 67.144C253.721 61.048 255.857 58.096 259.217 58.096C262.529 58.096 264.665 61.048 264.665 67.144C264.665 73.288 262.529 76.336 259.217 76.336ZM259.217 74.56C261.209 74.56 262.553 72.328 262.553 67.144C262.553 62.032 261.209 59.848 259.217 59.848C257.201 59.848 255.833 62.032 255.833 67.144C255.833 72.328 257.201 74.56 259.217 74.56Z" fill="#1A1A1A"/>
<path d="M225.616 101L226.048 97.352H224.624V96.328H226.176L226.512 93.688H224.992V92.664H226.624L227.04 89.384H227.984L227.568 92.664H229.936L230.368 89.384H231.312L230.896 92.664H232.336V93.688H230.784L230.448 96.328H231.984V97.352H230.32L229.888 101H228.944L229.36 97.352H227.008L226.56 101H225.616ZM227.12 96.328H229.504L229.824 93.688H227.44L227.12 96.328ZM239.547 101.224C236.619 101.224 234.443 98.952 234.443 95.144C234.443 91.368 236.667 89.064 239.643 89.064C241.067 89.064 242.171 89.752 242.859 90.504L242.043 91.464C241.435 90.808 240.651 90.36 239.659 90.36C237.435 90.36 235.963 92.184 235.963 95.112C235.963 98.072 237.371 99.912 239.611 99.912C240.715 99.912 241.579 99.432 242.331 98.6L243.131 99.528C242.203 100.616 241.067 101.224 239.547 101.224ZM248.534 101.224C246.71 101.224 245.59 100.456 244.79 99.656L245.526 98.696C246.182 99.384 247.046 100.008 248.39 100.008C249.782 100.008 250.886 99 250.886 97.4C250.886 95.832 249.926 94.888 248.47 94.888C247.686 94.888 247.19 95.144 246.518 95.592L245.734 95.096L246.102 89.608H251.814V90.856H247.382L247.078 94.248C247.606 93.96 248.134 93.784 248.838 93.784C250.79 93.784 252.374 94.888 252.374 97.352C252.374 99.832 250.502 101.224 248.534 101.224ZM255.473 101V89.272H258.401C262.017 89.272 263.937 91.368 263.937 95.096C263.937 98.824 262.017 101 258.481 101H255.473ZM256.961 99.784H258.289C261.041 99.784 262.417 98.072 262.417 95.096C262.417 92.12 261.041 90.488 258.289 90.488H256.961V99.784ZM268.681 101C268.889 96.712 269.753 93.976 271.993 90.856H266.313V89.608H273.641V90.504C270.953 93.944 270.393 96.552 270.201 101H268.681ZM276.644 101V89.272H283.396V90.52H278.132V94.504H282.596V95.736H278.132V101H276.644ZM286.112 101V89.272H289.584C291.968 89.272 293.616 90.088 293.616 92.152C293.616 93.304 293.008 94.328 291.904 94.696V94.76C293.312 95.032 294.288 95.976 294.288 97.576C294.288 99.864 292.464 101 289.856 101H286.112ZM287.6 94.264H289.328C291.344 94.264 292.16 93.528 292.16 92.328C292.16 90.952 291.232 90.44 289.408 90.44H287.6V94.264ZM287.6 99.832H289.648C291.648 99.832 292.848 99.112 292.848 97.528C292.848 96.072 291.696 95.4 289.648 95.4H287.6V99.832Z" fill="#1A1A1A"/>
<rect x="224" y="114" width="108" height="160.112" rx="4" fill="#C5D7FB"/>
<path d="M342.312 76.336C339.552 76.336 337.848 75.184 336.696 73.912L337.8 72.472C338.832 73.552 340.152 74.512 342.168 74.512C344.256 74.512 345.744 73.24 345.744 71.224C345.744 69.112 344.328 67.72 340.272 67.72V66.016C343.896 66.016 345.12 64.576 345.12 62.656C345.12 60.976 343.992 59.872 342.168 59.872C340.752 59.872 339.504 60.592 338.52 61.6L337.344 60.184C338.664 58.984 340.224 58.096 342.24 58.096C345.192 58.096 347.352 59.704 347.352 62.512C347.352 64.648 346.104 66.064 344.232 66.736V66.832C346.296 67.336 347.976 68.896 347.976 71.32C347.976 74.44 345.456 76.336 342.312 76.336ZM356.945 76.336C353.585 76.336 351.449 73.288 351.449 67.144C351.449 61.048 353.585 58.096 356.945 58.096C360.257 58.096 362.392 61.048 362.392 67.144C362.392 73.288 360.257 76.336 356.945 76.336ZM356.945 74.56C358.937 74.56 360.281 72.328 360.281 67.144C360.281 62.032 358.937 59.848 356.945 59.848C354.929 59.848 353.561 62.032 353.561 67.144C353.561 72.328 354.929 74.56 356.945 74.56ZM371.217 76.336C367.857 76.336 365.721 73.288 365.721 67.144C365.721 61.048 367.857 58.096 371.217 58.096C374.529 58.096 376.665 61.048 376.665 67.144C376.665 73.288 374.529 76.336 371.217 76.336ZM371.217 74.56C373.209 74.56 374.553 72.328 374.553 67.144C374.553 62.032 373.209 59.848 371.217 59.848C369.201 59.848 367.833 62.032 367.833 67.144C367.833 72.328 369.201 74.56 371.217 74.56Z" fill="#1A1A1A"/>
<path d="M337.616 101L338.048 97.352H336.624V96.328H338.176L338.512 93.688H336.992V92.664H338.624L339.04 89.384H339.984L339.568 92.664H341.936L342.368 89.384H343.312L342.896 92.664H344.336V93.688H342.784L342.448 96.328H343.984V97.352H342.32L341.888 101H340.944L341.36 97.352H339.008L338.56 101H337.616ZM339.12 96.328H341.504L341.824 93.688H339.44L339.12 96.328ZM349.179 101.224C347.947 101.224 347.051 100.712 346.427 100.024L347.243 99.096C347.707 99.672 348.411 100.008 349.115 100.008C350.763 100.008 352.139 98.712 352.139 94.872C352.139 92.056 351.227 90.536 349.579 90.536C348.459 90.536 347.595 91.528 347.595 93.048C347.595 94.536 348.299 95.48 349.707 95.48C350.459 95.48 351.387 95.032 352.155 93.848L352.235 95.016C351.499 95.976 350.427 96.568 349.467 96.568C347.483 96.568 346.219 95.384 346.219 93.048C346.219 90.872 347.755 89.4 349.579 89.4C351.835 89.4 353.515 91.208 353.515 94.872C353.515 99.464 351.435 101.224 349.179 101.224ZM356.63 101V89.272H359.558C363.174 89.272 365.094 91.368 365.094 95.096C365.094 98.824 363.174 101 359.638 101H356.63ZM358.118 99.784H359.446C362.198 99.784 363.574 98.072 363.574 95.096C363.574 92.12 362.198 90.488 359.446 90.488H358.118V99.784ZM368.286 101V89.272H371.758C374.142 89.272 375.79 90.088 375.79 92.152C375.79 93.304 375.182 94.328 374.078 94.696V94.76C375.486 95.032 376.462 95.976 376.462 97.576C376.462 99.864 374.638 101 372.03 101H368.286ZM369.774 94.264H371.502C373.518 94.264 374.334 93.528 374.334 92.328C374.334 90.952 373.406 90.44 371.582 90.44H369.774V94.264ZM369.774 99.832H371.822C373.822 99.832 375.022 99.112 375.022 97.528C375.022 96.072 373.87 95.4 371.822 95.4H369.774V99.832ZM380.993 101C381.201 96.712 382.065 93.976 384.305 90.856H378.625V89.608H385.953V90.504C383.265 93.944 382.705 96.552 382.513 101H380.993ZM388.956 101V89.272H395.708V90.52H390.444V94.504H394.908V95.736H390.444V101H388.956ZM400.488 101.224C399.256 101.224 398.36 100.712 397.736 100.024L398.552 99.096C399.016 99.672 399.72 100.008 400.424 100.008C402.072 100.008 403.448 98.712 403.448 94.872C403.448 92.056 402.536 90.536 400.888 90.536C399.768 90.536 398.904 91.528 398.904 93.048C398.904 94.536 399.608 95.48 401.016 95.48C401.768 95.48 402.696 95.032 403.464 93.848L403.544 95.016C402.808 95.976 401.736 96.568 400.776 96.568C398.792 96.568 397.528 95.384 397.528 93.048C397.528 90.872 399.064 89.4 400.888 89.4C403.144 89.4 404.824 91.208 404.824 94.872C404.824 99.464 402.744 101.224 400.488 101.224Z" fill="#1A1A1A"/>
<rect x="336" y="114" width="108" height="160.112" rx="4" fill="#9DB7F9"/>
<path d="M456.136 76V64.024C456.136 63.136 456.208 61.72 456.28 60.808H456.16C455.728 61.672 455.248 62.56 454.768 63.424L450.76 69.424H460.552V71.152H448.456V69.712L455.776 58.408H458.2V76H456.136ZM468.945 76.336C465.585 76.336 463.449 73.288 463.449 67.144C463.449 61.048 465.585 58.096 468.945 58.096C472.257 58.096 474.392 61.048 474.392 67.144C474.392 73.288 472.257 76.336 468.945 76.336ZM468.945 74.56C470.937 74.56 472.281 72.328 472.281 67.144C472.281 62.032 470.937 59.848 468.945 59.848C466.929 59.848 465.561 62.032 465.561 67.144C465.561 72.328 466.929 74.56 468.945 74.56ZM483.217 76.336C479.857 76.336 477.721 73.288 477.721 67.144C477.721 61.048 479.857 58.096 483.217 58.096C486.529 58.096 488.665 61.048 488.665 67.144C488.665 73.288 486.529 76.336 483.217 76.336ZM483.217 74.56C485.209 74.56 486.553 72.328 486.553 67.144C486.553 62.032 485.209 59.848 483.217 59.848C481.201 59.848 479.833 62.032 479.833 67.144C479.833 72.328 481.201 74.56 483.217 74.56Z" fill="#1A1A1A"/>
<path d="M449.616 101L450.048 97.352H448.624V96.328H450.176L450.512 93.688H448.992V92.664H450.624L451.04 89.384H451.984L451.568 92.664H453.936L454.368 89.384H455.312L454.896 92.664H456.336V93.688H454.784L454.448 96.328H455.984V97.352H454.32L453.888 101H452.944L453.36 97.352H451.008L450.56 101H449.616ZM451.12 96.328H453.504L453.824 93.688H451.44L451.12 96.328ZM460.667 101C460.875 96.712 461.739 93.976 463.979 90.856H458.299V89.608H465.627V90.504C462.939 93.944 462.379 96.552 462.187 101H460.667ZM471.478 101.224C469.19 101.224 467.814 99.096 467.814 95.272C467.814 91.448 469.19 89.4 471.478 89.4C473.734 89.4 475.11 91.448 475.11 95.272C475.11 99.096 473.734 101.224 471.478 101.224ZM471.478 100.04C472.806 100.04 473.702 98.616 473.702 95.272C473.702 91.912 472.806 90.568 471.478 90.568C470.134 90.568 469.222 91.912 469.222 95.272C469.222 98.616 470.134 100.04 471.478 100.04ZM480.209 101.224C478.977 101.224 478.081 100.712 477.457 100.024L478.273 99.096C478.737 99.672 479.441 100.008 480.145 100.008C481.793 100.008 483.169 98.712 483.169 94.872C483.169 92.056 482.257 90.536 480.609 90.536C479.489 90.536 478.625 91.528 478.625 93.048C478.625 94.536 479.329 95.48 480.737 95.48C481.489 95.48 482.417 95.032 483.185 93.848L483.265 95.016C482.529 95.976 481.457 96.568 480.497 96.568C478.513 96.568 477.249 95.384 477.249 93.048C477.249 90.872 478.785 89.4 480.609 89.4C482.865 89.4 484.545 91.208 484.545 94.872C484.545 99.464 482.465 101.224 480.209 101.224ZM490.86 101.224C488.604 101.224 486.908 99.4 486.908 95.736C486.908 91.144 488.988 89.4 491.26 89.4C492.476 89.4 493.372 89.912 493.996 90.584L493.196 91.496C492.732 90.952 492.028 90.616 491.308 90.616C489.676 90.616 488.3 91.896 488.3 95.736C488.3 98.552 489.196 100.072 490.844 100.072C491.98 100.072 492.844 99.064 492.844 97.56C492.844 96.072 492.14 95.128 490.716 95.128C489.98 95.128 489.052 95.576 488.252 96.76L488.204 95.592C488.94 94.632 489.996 94.04 490.956 94.04C492.924 94.04 494.22 95.224 494.22 97.56C494.22 99.752 492.668 101.224 490.86 101.224ZM497.175 101V89.272H503.927V90.52H498.663V94.504H503.127V95.736H498.663V101H497.175ZM509.507 101.224C507.347 101.224 505.763 99.912 505.763 98.104C505.763 96.6 506.851 95.576 507.923 95.016V94.952C507.075 94.36 506.323 93.512 506.323 92.312C506.323 90.552 507.715 89.4 509.555 89.4C511.555 89.4 512.771 90.648 512.771 92.424C512.771 93.624 511.891 94.632 511.203 95.16V95.24C512.211 95.848 513.187 96.648 513.187 98.184C513.187 99.896 511.699 101.224 509.507 101.224ZM510.307 94.792C511.091 94.088 511.523 93.336 511.523 92.488C511.523 91.368 510.787 90.472 509.523 90.472C508.451 90.472 507.667 91.208 507.667 92.312C507.667 93.672 508.931 94.248 510.307 94.792ZM509.539 100.12C510.883 100.12 511.779 99.304 511.779 98.136C511.779 96.648 510.339 96.136 508.691 95.464C507.747 96.072 507.075 96.904 507.075 97.96C507.075 99.208 508.131 100.12 509.539 100.12Z" fill="#1A1A1A"/>
<rect x="448" y="114" width="108" height="160.112" rx="4" fill="#7096F8"/>
<path d="M566.264 76.336C563.528 76.336 561.848 75.184 560.648 73.984L561.752 72.544C562.736 73.576 564.032 74.512 566.048 74.512C568.136 74.512 569.792 72.904 569.792 70.36C569.792 67.84 568.352 66.328 566.168 66.328C564.992 66.328 564.248 66.712 563.24 67.384L562.064 66.64L562.616 58.408H571.184V60.28H564.536L564.08 65.368C564.872 64.936 565.664 64.672 566.72 64.672C569.648 64.672 572.024 66.4 572.024 70.288C572.024 74.128 569.216 76.336 566.264 76.336ZM580.945 76.336C577.585 76.336 575.449 73.288 575.449 67.144C575.449 61.048 577.585 58.096 580.945 58.096C584.257 58.096 586.392 61.048 586.392 67.144C586.392 73.288 584.257 76.336 580.945 76.336ZM580.945 74.56C582.937 74.56 584.281 72.328 584.281 67.144C584.281 62.032 582.937 59.848 580.945 59.848C578.929 59.848 577.561 62.032 577.561 67.144C577.561 72.328 578.929 74.56 580.945 74.56ZM595.217 76.336C591.857 76.336 589.721 73.288 589.721 67.144C589.721 61.048 591.857 58.096 595.217 58.096C598.529 58.096 600.665 61.048 600.665 67.144C600.665 73.288 598.529 76.336 595.217 76.336ZM595.217 74.56C597.209 74.56 598.553 72.328 598.553 67.144C598.553 62.032 597.209 59.848 595.217 59.848C593.201 59.848 591.833 62.032 591.833 67.144C591.833 72.328 593.201 74.56 595.217 74.56Z" fill="#1A1A1A"/>
<path d="M561.616 101L562.048 97.352H560.624V96.328H562.176L562.512 93.688H560.992V92.664H562.624L563.04 89.384H563.984L563.568 92.664H565.936L566.368 89.384H567.312L566.896 92.664H568.336V93.688H566.784L566.448 96.328H567.984V97.352H566.32L565.888 101H564.944L565.36 97.352H563.008L562.56 101H561.616ZM563.12 96.328H565.504L565.824 93.688H563.44L563.12 96.328ZM574.939 101V93.352C574.939 92.76 574.987 91.768 575.035 91.176H574.955C574.667 91.704 574.347 92.216 574.027 92.776L571.355 96.696H577.883V97.848H569.819V96.888L574.699 89.608H576.315V101H574.939ZM582.694 101.224C581.462 101.224 580.566 100.712 579.942 100.024L580.758 99.096C581.222 99.672 581.926 100.008 582.63 100.008C584.278 100.008 585.654 98.712 585.654 94.872C585.654 92.056 584.742 90.536 583.094 90.536C581.974 90.536 581.11 91.528 581.11 93.048C581.11 94.536 581.814 95.48 583.222 95.48C583.974 95.48 584.902 95.032 585.67 93.848L585.75 95.016C585.014 95.976 583.942 96.568 582.982 96.568C580.998 96.568 579.734 95.384 579.734 93.048C579.734 90.872 581.27 89.4 583.094 89.4C585.35 89.4 587.03 91.208 587.03 94.872C587.03 99.464 584.95 101.224 582.694 101.224ZM591.697 101C591.905 96.712 592.769 93.976 595.009 90.856H589.329V89.608H596.657V90.504C593.969 93.944 593.409 96.552 593.217 101H591.697ZM601.724 101.224C600.492 101.224 599.596 100.712 598.972 100.024L599.788 99.096C600.252 99.672 600.956 100.008 601.66 100.008C603.308 100.008 604.684 98.712 604.684 94.872C604.684 92.056 603.772 90.536 602.124 90.536C601.004 90.536 600.14 91.528 600.14 93.048C600.14 94.536 600.844 95.48 602.252 95.48C603.004 95.48 603.932 95.032 604.7 93.848L604.78 95.016C604.044 95.976 602.972 96.568 602.012 96.568C600.028 96.568 598.764 95.384 598.764 93.048C598.764 90.872 600.3 89.4 602.124 89.4C604.38 89.4 606.06 91.208 606.06 94.872C606.06 99.464 603.98 101.224 601.724 101.224ZM609.175 101V89.272H615.927V90.52H610.663V94.504H615.127V95.736H610.663V101H609.175ZM621.219 101.224C619.395 101.224 618.275 100.456 617.475 99.656L618.211 98.696C618.867 99.384 619.731 100.008 621.075 100.008C622.467 100.008 623.571 99 623.571 97.4C623.571 95.832 622.611 94.888 621.155 94.888C620.371 94.888 619.875 95.144 619.203 95.592L618.419 95.096L618.787 89.608H624.499V90.856H620.067L619.763 94.248C620.291 93.96 620.819 93.784 621.523 93.784C623.475 93.784 625.059 94.888 625.059 97.352C625.059 99.832 623.187 101.224 621.219 101.224Z" fill="#1A1A1A"/>
<rect x="560" y="114" width="108" height="160.112" rx="4" fill="#4979F5"/>
<path d="M679.224 76.336C675.84 76.336 673.32 73.432 673.32 67.624C673.32 60.736 676.416 58.096 679.824 58.096C681.648 58.096 682.992 58.864 683.952 59.896L682.728 61.24C682.056 60.424 680.976 59.92 679.92 59.92C677.448 59.92 675.384 61.864 675.384 67.624C675.384 72.136 676.752 74.608 679.224 74.608C680.904 74.608 682.2 73 682.2 70.624C682.2 68.224 681.144 66.712 679.032 66.712C677.904 66.712 676.488 67.384 675.312 69.136L675.24 67.384C676.32 65.968 677.952 65.104 679.368 65.104C682.344 65.104 684.264 66.928 684.264 70.624C684.264 74.032 681.936 76.336 679.224 76.336ZM692.945 76.336C689.585 76.336 687.449 73.288 687.449 67.144C687.449 61.048 689.585 58.096 692.945 58.096C696.257 58.096 698.392 61.048 698.392 67.144C698.392 73.288 696.257 76.336 692.945 76.336ZM692.945 74.56C694.937 74.56 696.281 72.328 696.281 67.144C696.281 62.032 694.937 59.848 692.945 59.848C690.929 59.848 689.561 62.032 689.561 67.144C689.561 72.328 690.929 74.56 692.945 74.56ZM707.217 76.336C703.857 76.336 701.721 73.288 701.721 67.144C701.721 61.048 703.857 58.096 707.217 58.096C710.529 58.096 712.665 61.048 712.665 67.144C712.665 73.288 710.529 76.336 707.217 76.336ZM707.217 74.56C709.209 74.56 710.553 72.328 710.553 67.144C710.553 62.032 709.209 59.848 707.217 59.848C705.201 59.848 703.833 62.032 703.833 67.144C703.833 72.328 705.201 74.56 707.217 74.56Z" fill="#1A1A1A"/>
<path d="M673.616 101L674.048 97.352H672.624V96.328H674.176L674.512 93.688H672.992V92.664H674.624L675.04 89.384H675.984L675.568 92.664H677.936L678.368 89.384H679.312L678.896 92.664H680.336V93.688H678.784L678.448 96.328H679.984V97.352H678.32L677.888 101H676.944L677.36 97.352H675.008L674.56 101H673.616ZM675.12 96.328H677.504L677.824 93.688H675.44L675.12 96.328ZM685.723 101.224C683.883 101.224 682.747 100.456 681.979 99.608L682.715 98.648C683.403 99.368 684.283 100.008 685.627 100.008C687.019 100.008 688.011 99.192 688.011 97.912C688.011 96.552 687.067 95.64 684.363 95.64V94.52C686.779 94.52 687.595 93.576 687.595 92.376C687.595 91.272 686.843 90.568 685.627 90.568C684.683 90.568 683.851 91.064 683.195 91.736L682.411 90.808C683.291 89.992 684.331 89.4 685.675 89.4C687.643 89.4 689.083 90.44 689.083 92.28C689.083 93.656 688.251 94.536 687.003 95V95.064C688.379 95.384 689.499 96.408 689.499 97.96C689.499 99.992 687.819 101.224 685.723 101.224ZM696.454 101V93.352C696.454 92.76 696.502 91.768 696.55 91.176H696.47C696.182 91.704 695.862 92.216 695.542 92.776L692.87 96.696H699.398V97.848H691.334V96.888L696.214 89.608H697.83V101H696.454ZM705.345 101.224C703.089 101.224 701.393 99.4 701.393 95.736C701.393 91.144 703.473 89.4 705.745 89.4C706.961 89.4 707.857 89.912 708.481 90.584L707.681 91.496C707.217 90.952 706.513 90.616 705.793 90.616C704.161 90.616 702.785 91.896 702.785 95.736C702.785 98.552 703.681 100.072 705.329 100.072C706.465 100.072 707.329 99.064 707.329 97.56C707.329 96.072 706.625 95.128 705.201 95.128C704.465 95.128 703.537 95.576 702.737 96.76L702.689 95.592C703.425 94.632 704.481 94.04 705.441 94.04C707.409 94.04 708.705 95.224 708.705 97.56C708.705 99.752 707.153 101.224 705.345 101.224ZM714.508 101.224C712.22 101.224 710.844 99.096 710.844 95.272C710.844 91.448 712.22 89.4 714.508 89.4C716.764 89.4 718.14 91.448 718.14 95.272C718.14 99.096 716.764 101.224 714.508 101.224ZM714.508 100.04C715.836 100.04 716.732 98.616 716.732 95.272C716.732 91.912 715.836 90.568 714.508 90.568C713.164 90.568 712.252 91.912 712.252 95.272C712.252 98.616 713.164 100.04 714.508 100.04ZM721.175 101V89.272H727.927V90.52H722.663V94.504H727.127V95.736H722.663V101H721.175ZM730.643 101V89.272H734.115C736.499 89.272 738.147 90.088 738.147 92.152C738.147 93.304 737.539 94.328 736.435 94.696V94.76C737.843 95.032 738.819 95.976 738.819 97.576C738.819 99.864 736.995 101 734.387 101H730.643ZM732.131 94.264H733.859C735.875 94.264 736.691 93.528 736.691 92.328C736.691 90.952 735.763 90.44 733.939 90.44H732.131V94.264ZM732.131 99.832H734.179C736.179 99.832 737.379 99.112 737.379 97.528C737.379 96.072 736.227 95.4 734.179 95.4H732.131V99.832Z" fill="#1A1A1A"/>
<rect x="672" y="114" width="108" height="160.112" rx="4" fill="#3460FB"/>
<path d="M788.728 76C789.04 69.352 790.24 65.08 793.696 60.28H785.176V58.408H796.168V59.728C792.04 65.032 791.296 69.136 791.008 76H788.728ZM804.945 76.336C801.585 76.336 799.449 73.288 799.449 67.144C799.449 61.048 801.585 58.096 804.945 58.096C808.257 58.096 810.392 61.048 810.392 67.144C810.392 73.288 808.257 76.336 804.945 76.336ZM804.945 74.56C806.937 74.56 808.281 72.328 808.281 67.144C808.281 62.032 806.937 59.848 804.945 59.848C802.929 59.848 801.561 62.032 801.561 67.144C801.561 72.328 802.929 74.56 804.945 74.56ZM819.217 76.336C815.857 76.336 813.721 73.288 813.721 67.144C813.721 61.048 815.857 58.096 819.217 58.096C822.529 58.096 824.665 61.048 824.665 67.144C824.665 73.288 822.529 76.336 819.217 76.336ZM819.217 74.56C821.209 74.56 822.553 72.328 822.553 67.144C822.553 62.032 821.209 59.848 819.217 59.848C817.201 59.848 815.833 62.032 815.833 67.144C815.833 72.328 817.201 74.56 819.217 74.56Z" fill="#1A1A1A"/>
<path d="M785.616 101L786.048 97.352H784.624V96.328H786.176L786.512 93.688H784.992V92.664H786.624L787.04 89.384H787.984L787.568 92.664H789.936L790.368 89.384H791.312L790.896 92.664H792.336V93.688H790.784L790.448 96.328H791.984V97.352H790.32L789.888 101H788.944L789.36 97.352H787.008L786.56 101H785.616ZM787.12 96.328H789.504L789.824 93.688H787.44L787.12 96.328ZM794.219 101V100.152C797.659 96.728 799.579 94.664 799.579 92.792C799.579 91.496 798.891 90.568 797.435 90.568C796.475 90.568 795.643 91.176 794.987 91.944L794.139 91.112C795.099 90.072 796.123 89.4 797.611 89.4C799.707 89.4 801.019 90.712 801.019 92.744C801.019 94.888 799.051 97.016 796.347 99.864C796.955 99.8 797.675 99.752 798.267 99.752H801.579V101H794.219ZM807.83 101.224C805.574 101.224 803.878 99.4 803.878 95.736C803.878 91.144 805.958 89.4 808.23 89.4C809.446 89.4 810.342 89.912 810.966 90.584L810.166 91.496C809.702 90.952 808.998 90.616 808.278 90.616C806.646 90.616 805.27 91.896 805.27 95.736C805.27 98.552 806.166 100.072 807.814 100.072C808.95 100.072 809.814 99.064 809.814 97.56C809.814 96.072 809.11 95.128 807.686 95.128C806.95 95.128 806.022 95.576 805.222 96.76L805.174 95.592C805.91 94.632 806.966 94.04 807.926 94.04C809.894 94.04 811.19 95.224 811.19 97.56C811.19 99.752 809.638 101.224 807.83 101.224ZM817.969 101V93.352C817.969 92.76 818.017 91.768 818.065 91.176H817.985C817.697 91.704 817.377 92.216 817.057 92.776L814.385 96.696H820.913V97.848H812.849V96.888L817.729 89.608H819.345V101H817.969ZM822.108 101L826.076 89.272H827.74L831.708 101H830.156L828.092 94.44C827.676 93.128 827.308 91.848 826.924 90.488H826.86C826.476 91.848 826.108 93.128 825.676 94.44L823.612 101H822.108ZM824.188 97.416V96.248H829.596V97.416H824.188ZM834.034 101V89.272H840.786V90.52H835.522V94.504H839.986V95.736H835.522V101H834.034ZM847.327 101V93.352C847.327 92.76 847.375 91.768 847.423 91.176H847.343C847.055 91.704 846.735 92.216 846.415 92.776L843.743 96.696H850.271V97.848H842.207V96.888L847.087 89.608H848.703V101H847.327Z" fill="#1A1A1A"/>
<rect x="784" y="114" width="108" height="160.112" rx="4" fill="#264AF4"/>
<path d="M902.696 76.336C899.456 76.336 897.08 74.368 897.08 71.656C897.08 69.28 898.712 67.648 900.32 66.784V66.688C899.024 65.8 897.92 64.456 897.92 62.608C897.92 59.944 900.008 58.168 902.768 58.168C905.768 58.168 907.592 60.088 907.592 62.776C907.592 64.648 906.296 66.208 905.24 67.024V67.144C906.776 68.032 908.216 69.376 908.216 71.776C908.216 74.344 905.984 76.336 902.696 76.336ZM903.896 66.472C905.096 65.416 905.72 64.216 905.72 62.896C905.72 61.168 904.616 59.776 902.72 59.776C901.112 59.776 899.936 60.928 899.936 62.608C899.936 64.72 901.832 65.656 903.896 66.472ZM902.744 74.68C904.76 74.68 906.104 73.456 906.104 71.704C906.104 69.352 903.944 68.464 901.472 67.456C900.032 68.368 899.048 69.76 899.048 71.44C899.048 73.312 900.632 74.68 902.744 74.68ZM916.945 76.336C913.585 76.336 911.449 73.288 911.449 67.144C911.449 61.048 913.585 58.096 916.945 58.096C920.257 58.096 922.392 61.048 922.392 67.144C922.392 73.288 920.257 76.336 916.945 76.336ZM916.945 74.56C918.937 74.56 920.281 72.328 920.281 67.144C920.281 62.032 918.937 59.848 916.945 59.848C914.929 59.848 913.561 62.032 913.561 67.144C913.561 72.328 914.929 74.56 916.945 74.56ZM931.217 76.336C927.857 76.336 925.721 73.288 925.721 67.144C925.721 61.048 927.857 58.096 931.217 58.096C934.529 58.096 936.665 61.048 936.665 67.144C936.665 73.288 934.529 76.336 931.217 76.336ZM931.217 74.56C933.209 74.56 934.553 72.328 934.553 67.144C934.553 62.032 933.209 59.848 931.217 59.848C929.201 59.848 927.833 62.032 927.833 67.144C927.833 72.328 929.201 74.56 931.217 74.56Z" fill="#1A1A1A"/>
<path d="M897.616 101L898.048 97.352H896.624V96.328H898.176L898.512 93.688H896.992V92.664H898.624L899.04 89.384H899.984L899.568 92.664H901.936L902.368 89.384H903.312L902.896 92.664H904.336V93.688H902.784L902.448 96.328H903.984V97.352H902.32L901.888 101H900.944L901.36 97.352H899.008L898.56 101H897.616ZM899.12 96.328H901.504L901.824 93.688H899.44L899.12 96.328ZM909.963 101.224C907.675 101.224 906.299 99.096 906.299 95.272C906.299 91.448 907.675 89.4 909.963 89.4C912.219 89.4 913.595 91.448 913.595 95.272C913.595 99.096 912.219 101.224 909.963 101.224ZM909.963 100.04C911.291 100.04 912.187 98.616 912.187 95.272C912.187 91.912 911.291 90.568 909.963 90.568C908.619 90.568 907.707 91.912 907.707 95.272C907.707 98.616 908.619 100.04 909.963 100.04ZM919.478 101.224C917.19 101.224 915.814 99.096 915.814 95.272C915.814 91.448 917.19 89.4 919.478 89.4C921.734 89.4 923.11 91.448 923.11 95.272C923.11 99.096 921.734 101.224 919.478 101.224ZM919.478 100.04C920.806 100.04 921.702 98.616 921.702 95.272C921.702 91.912 920.806 90.568 919.478 90.568C918.134 90.568 917.222 91.912 917.222 95.272C917.222 98.616 918.134 100.04 919.478 100.04ZM928.753 101.224C926.913 101.224 925.777 100.456 925.009 99.608L925.745 98.648C926.433 99.368 927.313 100.008 928.657 100.008C930.049 100.008 931.041 99.192 931.041 97.912C931.041 96.552 930.097 95.64 927.393 95.64V94.52C929.809 94.52 930.625 93.576 930.625 92.376C930.625 91.272 929.873 90.568 928.657 90.568C927.713 90.568 926.881 91.064 926.225 91.736L925.441 90.808C926.321 89.992 927.361 89.4 928.705 89.4C930.673 89.4 932.113 90.44 932.113 92.28C932.113 93.656 931.281 94.536 930.033 95V95.064C931.409 95.384 932.529 96.408 932.529 97.96C932.529 99.992 930.849 101.224 928.753 101.224ZM935.468 101V99.784H938.076V91.384H935.98V90.44C937.036 90.248 937.788 89.976 938.412 89.608H939.532V99.784H941.9V101H935.468ZM945.175 101V89.272H948.103C951.719 89.272 953.639 91.368 953.639 95.096C953.639 98.824 951.719 101 948.183 101H945.175ZM946.663 99.784H947.991C950.743 99.784 952.119 98.072 952.119 95.096C952.119 92.12 950.743 90.488 947.991 90.488H946.663V99.784ZM959.695 101.224C957.535 101.224 955.951 99.912 955.951 98.104C955.951 96.6 957.039 95.576 958.111 95.016V94.952C957.263 94.36 956.511 93.512 956.511 92.312C956.511 90.552 957.903 89.4 959.743 89.4C961.743 89.4 962.959 90.648 962.959 92.424C962.959 93.624 962.079 94.632 961.391 95.16V95.24C962.399 95.848 963.375 96.648 963.375 98.184C963.375 99.896 961.887 101.224 959.695 101.224ZM960.495 94.792C961.279 94.088 961.711 93.336 961.711 92.488C961.711 91.368 960.975 90.472 959.711 90.472C958.639 90.472 957.855 91.208 957.855 92.312C957.855 93.672 959.119 94.248 960.495 94.792ZM959.727 100.12C961.071 100.12 961.967 99.304 961.967 98.136C961.967 96.648 960.527 96.136 958.879 95.464C957.935 96.072 957.263 96.904 957.263 97.96C957.263 99.208 958.319 100.12 959.727 100.12Z" fill="#1A1A1A"/>
<rect x="896" y="114" width="108" height="160.112" rx="4" fill="#0031D8"/>
<path d="M1013.62 76.336C1011.7 76.336 1010.35 75.568 1009.37 74.536L1010.59 73.144C1011.34 74.008 1012.42 74.512 1013.54 74.512C1015.9 74.512 1017.94 72.472 1017.94 66.448C1017.94 62.128 1016.57 59.8 1014.1 59.8C1012.42 59.8 1011.12 61.384 1011.12 63.808C1011.12 66.16 1012.18 67.72 1014.26 67.72C1015.44 67.72 1016.81 67.024 1017.96 65.272L1018.08 67.024C1016.98 68.416 1015.42 69.328 1013.9 69.328C1010.95 69.328 1009.06 67.456 1009.06 63.808C1009.06 60.4 1011.36 58.096 1014.1 58.096C1017.48 58.096 1020 60.856 1020 66.448C1020 73.6 1016.93 76.336 1013.62 76.336ZM1028.94 76.336C1025.58 76.336 1023.45 73.288 1023.45 67.144C1023.45 61.048 1025.58 58.096 1028.94 58.096C1032.26 58.096 1034.39 61.048 1034.39 67.144C1034.39 73.288 1032.26 76.336 1028.94 76.336ZM1028.94 74.56C1030.94 74.56 1032.28 72.328 1032.28 67.144C1032.28 62.032 1030.94 59.848 1028.94 59.848C1026.93 59.848 1025.56 62.032 1025.56 67.144C1025.56 72.328 1026.93 74.56 1028.94 74.56ZM1043.22 76.336C1039.86 76.336 1037.72 73.288 1037.72 67.144C1037.72 61.048 1039.86 58.096 1043.22 58.096C1046.53 58.096 1048.66 61.048 1048.66 67.144C1048.66 73.288 1046.53 76.336 1043.22 76.336ZM1043.22 74.56C1045.21 74.56 1046.55 72.328 1046.55 67.144C1046.55 62.032 1045.21 59.848 1043.22 59.848C1041.2 59.848 1039.83 62.032 1039.83 67.144C1039.83 72.328 1041.2 74.56 1043.22 74.56Z" fill="#1A1A1A"/>
<path d="M1009.62 101L1010.05 97.352H1008.62V96.328H1010.18L1010.51 93.688H1008.99V92.664H1010.62L1011.04 89.384H1011.98L1011.57 92.664H1013.94L1014.37 89.384H1015.31L1014.9 92.664H1016.34V93.688H1014.78L1014.45 96.328H1015.98V97.352H1014.32L1013.89 101H1012.94L1013.36 97.352H1011.01L1010.56 101H1009.62ZM1011.12 96.328H1013.5L1013.82 93.688H1011.44L1011.12 96.328ZM1021.96 101.224C1019.68 101.224 1018.3 99.096 1018.3 95.272C1018.3 91.448 1019.68 89.4 1021.96 89.4C1024.22 89.4 1025.6 91.448 1025.6 95.272C1025.6 99.096 1024.22 101.224 1021.96 101.224ZM1021.96 100.04C1023.29 100.04 1024.19 98.616 1024.19 95.272C1024.19 91.912 1023.29 90.568 1021.96 90.568C1020.62 90.568 1019.71 91.912 1019.71 95.272C1019.71 98.616 1020.62 100.04 1021.96 100.04ZM1031.48 101.224C1029.19 101.224 1027.81 99.096 1027.81 95.272C1027.81 91.448 1029.19 89.4 1031.48 89.4C1033.73 89.4 1035.11 91.448 1035.11 95.272C1035.11 99.096 1033.73 101.224 1031.48 101.224ZM1031.48 100.04C1032.81 100.04 1033.7 98.616 1033.7 95.272C1033.7 91.912 1032.81 90.568 1031.48 90.568C1030.13 90.568 1029.22 91.912 1029.22 95.272C1029.22 98.616 1030.13 100.04 1031.48 100.04ZM1037.95 101V99.784H1040.56V91.384H1038.47V90.44C1039.52 90.248 1040.27 89.976 1040.9 89.608H1042.02V99.784H1044.39V101H1037.95ZM1049.21 101C1049.42 96.712 1050.28 93.976 1052.52 90.856H1046.84V89.608H1054.17V90.504C1051.48 93.944 1050.92 96.552 1050.73 101H1049.21ZM1061.61 101.224C1058.68 101.224 1056.5 98.952 1056.5 95.144C1056.5 91.368 1058.73 89.064 1061.7 89.064C1063.13 89.064 1064.23 89.752 1064.92 90.504L1064.1 91.464C1063.5 90.808 1062.71 90.36 1061.72 90.36C1059.5 90.36 1058.02 92.184 1058.02 95.112C1058.02 98.072 1059.43 99.912 1061.67 99.912C1062.78 99.912 1063.64 99.432 1064.39 98.6L1065.19 99.528C1064.26 100.616 1063.13 101.224 1061.61 101.224ZM1067.83 101V99.784H1070.43V91.384H1068.34V90.44C1069.39 90.248 1070.15 89.976 1070.77 89.608H1071.89V99.784H1074.26V101H1067.83Z" fill="#1A1A1A"/>
<rect x="1008" y="114" width="108" height="160.112" rx="4" fill="#0017C1"/>
<path d="M1122.11 76V74.176H1126.02V61.072H1122.88V59.656C1124.46 59.392 1125.59 58.984 1126.53 58.408H1128.21V74.176H1131.76V76H1122.11ZM1140.94 76.336C1137.58 76.336 1135.45 73.288 1135.45 67.144C1135.45 61.048 1137.58 58.096 1140.94 58.096C1144.26 58.096 1146.39 61.048 1146.39 67.144C1146.39 73.288 1144.26 76.336 1140.94 76.336ZM1140.94 74.56C1142.94 74.56 1144.28 72.328 1144.28 67.144C1144.28 62.032 1142.94 59.848 1140.94 59.848C1138.93 59.848 1137.56 62.032 1137.56 67.144C1137.56 72.328 1138.93 74.56 1140.94 74.56ZM1155.22 76.336C1151.86 76.336 1149.72 73.288 1149.72 67.144C1149.72 61.048 1151.86 58.096 1155.22 58.096C1158.53 58.096 1160.66 61.048 1160.66 67.144C1160.66 73.288 1158.53 76.336 1155.22 76.336ZM1155.22 74.56C1157.21 74.56 1158.55 72.328 1158.55 67.144C1158.55 62.032 1157.21 59.848 1155.22 59.848C1153.2 59.848 1151.83 62.032 1151.83 67.144C1151.83 72.328 1153.2 74.56 1155.22 74.56ZM1169.49 76.336C1166.13 76.336 1163.99 73.288 1163.99 67.144C1163.99 61.048 1166.13 58.096 1169.49 58.096C1172.8 58.096 1174.94 61.048 1174.94 67.144C1174.94 73.288 1172.8 76.336 1169.49 76.336ZM1169.49 74.56C1171.48 74.56 1172.83 72.328 1172.83 67.144C1172.83 62.032 1171.48 59.848 1169.49 59.848C1167.47 59.848 1166.11 62.032 1166.11 67.144C1166.11 72.328 1167.47 74.56 1169.49 74.56Z" fill="#1A1A1A"/>
<path d="M1121.62 101L1122.05 97.352H1120.62V96.328H1122.18L1122.51 93.688H1120.99V92.664H1122.62L1123.04 89.384H1123.98L1123.57 92.664H1125.94L1126.37 89.384H1127.31L1126.9 92.664H1128.34V93.688H1126.78L1126.45 96.328H1127.98V97.352H1126.32L1125.89 101H1124.94L1125.36 97.352H1123.01L1122.56 101H1121.62ZM1123.12 96.328H1125.5L1125.82 93.688H1123.44L1123.12 96.328ZM1133.96 101.224C1131.68 101.224 1130.3 99.096 1130.3 95.272C1130.3 91.448 1131.68 89.4 1133.96 89.4C1136.22 89.4 1137.6 91.448 1137.6 95.272C1137.6 99.096 1136.22 101.224 1133.96 101.224ZM1133.96 100.04C1135.29 100.04 1136.19 98.616 1136.19 95.272C1136.19 91.912 1135.29 90.568 1133.96 90.568C1132.62 90.568 1131.71 91.912 1131.71 95.272C1131.71 98.616 1132.62 100.04 1133.96 100.04ZM1143.48 101.224C1141.19 101.224 1139.81 99.096 1139.81 95.272C1139.81 91.448 1141.19 89.4 1143.48 89.4C1145.73 89.4 1147.11 91.448 1147.11 95.272C1147.11 99.096 1145.73 101.224 1143.48 101.224ZM1143.48 100.04C1144.81 100.04 1145.7 98.616 1145.7 95.272C1145.7 91.912 1144.81 90.568 1143.48 90.568C1142.13 90.568 1141.22 91.912 1141.22 95.272C1141.22 98.616 1142.13 100.04 1143.48 100.04ZM1149.95 101V99.784H1152.56V91.384H1150.47V90.44C1151.52 90.248 1152.27 89.976 1152.9 89.608H1154.02V99.784H1156.39V101H1149.95ZM1159.47 101V99.784H1162.08V91.384H1159.98V90.44C1161.04 90.248 1161.79 89.976 1162.41 89.608H1163.53V99.784H1165.9V101H1159.47ZM1172.04 101.224C1169.88 101.224 1168.3 99.912 1168.3 98.104C1168.3 96.6 1169.38 95.576 1170.46 95.016V94.952C1169.61 94.36 1168.86 93.512 1168.86 92.312C1168.86 90.552 1170.25 89.4 1172.09 89.4C1174.09 89.4 1175.3 90.648 1175.3 92.424C1175.3 93.624 1174.42 94.632 1173.74 95.16V95.24C1174.74 95.848 1175.72 96.648 1175.72 98.184C1175.72 99.896 1174.23 101.224 1172.04 101.224ZM1172.84 94.792C1173.62 94.088 1174.06 93.336 1174.06 92.488C1174.06 91.368 1173.32 90.472 1172.06 90.472C1170.98 90.472 1170.2 91.208 1170.2 92.312C1170.2 93.672 1171.46 94.248 1172.84 94.792ZM1172.07 100.12C1173.42 100.12 1174.31 99.304 1174.31 98.136C1174.31 96.648 1172.87 96.136 1171.22 95.464C1170.28 96.072 1169.61 96.904 1169.61 97.96C1169.61 99.208 1170.66 100.12 1172.07 100.12ZM1178.69 101V89.272H1185.44V90.52H1180.18V94.504H1184.64V95.736H1180.18V101H1178.69Z" fill="#1A1A1A"/>
<rect x="1120" y="114" width="108" height="160.112" rx="4" fill="#00118F"/>
<path d="M1234.11 76V74.176H1238.02V61.072H1234.88V59.656C1236.46 59.392 1237.59 58.984 1238.53 58.408H1240.21V74.176H1243.76V76H1234.11ZM1248.38 76V74.176H1252.3V61.072H1249.15V59.656C1250.74 59.392 1251.86 58.984 1252.8 58.408H1254.48V74.176H1258.03V76H1248.38ZM1267.22 76.336C1263.86 76.336 1261.72 73.288 1261.72 67.144C1261.72 61.048 1263.86 58.096 1267.22 58.096C1270.53 58.096 1272.66 61.048 1272.66 67.144C1272.66 73.288 1270.53 76.336 1267.22 76.336ZM1267.22 74.56C1269.21 74.56 1270.55 72.328 1270.55 67.144C1270.55 62.032 1269.21 59.848 1267.22 59.848C1265.2 59.848 1263.83 62.032 1263.83 67.144C1263.83 72.328 1265.2 74.56 1267.22 74.56ZM1281.49 76.336C1278.13 76.336 1275.99 73.288 1275.99 67.144C1275.99 61.048 1278.13 58.096 1281.49 58.096C1284.8 58.096 1286.94 61.048 1286.94 67.144C1286.94 73.288 1284.8 76.336 1281.49 76.336ZM1281.49 74.56C1283.48 74.56 1284.83 72.328 1284.83 67.144C1284.83 62.032 1283.48 59.848 1281.49 59.848C1279.47 59.848 1278.11 62.032 1278.11 67.144C1278.11 72.328 1279.47 74.56 1281.49 74.56Z" fill="#1A1A1A"/>
<path d="M1233.62 101L1234.05 97.352H1232.62V96.328H1234.18L1234.51 93.688H1232.99V92.664H1234.62L1235.04 89.384H1235.98L1235.57 92.664H1237.94L1238.37 89.384H1239.31L1238.9 92.664H1240.34V93.688H1238.78L1238.45 96.328H1239.98V97.352H1238.32L1237.89 101H1236.94L1237.36 97.352H1235.01L1234.56 101H1233.62ZM1235.12 96.328H1237.5L1237.82 93.688H1235.44L1235.12 96.328ZM1245.96 101.224C1243.72 101.224 1242.3 99.192 1242.3 95.096C1242.3 91.032 1243.72 89.064 1245.96 89.064C1248.17 89.064 1249.6 91.032 1249.6 95.096C1249.6 99.192 1248.17 101.224 1245.96 101.224ZM1245.96 100.04C1247.29 100.04 1248.19 98.552 1248.19 95.096C1248.19 91.688 1247.29 90.232 1245.96 90.232C1244.62 90.232 1243.71 91.688 1243.71 95.096C1243.71 98.552 1244.62 100.04 1245.96 100.04ZM1255.48 101.224C1253.24 101.224 1251.81 99.192 1251.81 95.096C1251.81 91.032 1253.24 89.064 1255.48 89.064C1257.69 89.064 1259.11 91.032 1259.11 95.096C1259.11 99.192 1257.69 101.224 1255.48 101.224ZM1255.48 100.04C1256.81 100.04 1257.7 98.552 1257.7 95.096C1257.7 91.688 1256.81 90.232 1255.48 90.232C1254.13 90.232 1253.22 91.688 1253.22 95.096C1253.22 98.552 1254.13 100.04 1255.48 100.04ZM1264.99 101.224C1262.75 101.224 1261.33 99.192 1261.33 95.096C1261.33 91.032 1262.75 89.064 1264.99 89.064C1267.2 89.064 1268.62 91.032 1268.62 95.096C1268.62 99.192 1267.2 101.224 1264.99 101.224ZM1264.99 100.04C1266.32 100.04 1267.22 98.552 1267.22 95.096C1267.22 91.688 1266.32 90.232 1264.99 90.232C1263.65 90.232 1262.74 91.688 1262.74 95.096C1262.74 98.552 1263.65 100.04 1264.99 100.04ZM1274.51 101.224C1272.27 101.224 1270.84 99.192 1270.84 95.096C1270.84 91.032 1272.27 89.064 1274.51 89.064C1276.72 89.064 1278.14 91.032 1278.14 95.096C1278.14 99.192 1276.72 101.224 1274.51 101.224ZM1274.51 100.04C1275.84 100.04 1276.73 98.552 1276.73 95.096C1276.73 91.688 1275.84 90.232 1274.51 90.232C1273.16 90.232 1272.25 91.688 1272.25 95.096C1272.25 98.552 1273.16 100.04 1274.51 100.04ZM1282.73 101C1282.94 96.568 1283.74 93.72 1286.04 90.52H1280.36V89.272H1287.69V90.152C1284.94 93.688 1284.44 96.424 1284.25 101H1282.73ZM1290.5 101V99.784H1293.11V91.048H1291.01V90.104C1292.07 89.928 1292.82 89.656 1293.44 89.272H1294.56V99.784H1296.93V101H1290.5Z" fill="#1A1A1A"/>
<rect x="1232" y="114" width="108" height="160.112" rx="4" fill="#000071"/>
<path d="M1346.11 76V74.176H1350.02V61.072H1346.88V59.656C1348.46 59.392 1349.59 58.984 1350.53 58.408H1352.21V74.176H1355.76V76H1346.11ZM1359.33 76V74.728C1364.85 69.904 1367.37 66.376 1367.37 63.376C1367.37 61.36 1366.34 59.872 1364.15 59.872C1362.71 59.872 1361.46 60.76 1360.48 61.912L1359.21 60.688C1360.65 59.128 1362.18 58.096 1364.42 58.096C1367.56 58.096 1369.53 60.136 1369.53 63.28C1369.53 66.808 1366.77 70.384 1362.62 74.296C1363.55 74.2 1364.61 74.128 1365.5 74.128H1370.37V76H1359.33ZM1379.22 76.336C1375.86 76.336 1373.72 73.288 1373.72 67.144C1373.72 61.048 1375.86 58.096 1379.22 58.096C1382.53 58.096 1384.66 61.048 1384.66 67.144C1384.66 73.288 1382.53 76.336 1379.22 76.336ZM1379.22 74.56C1381.21 74.56 1382.55 72.328 1382.55 67.144C1382.55 62.032 1381.21 59.848 1379.22 59.848C1377.2 59.848 1375.83 62.032 1375.83 67.144C1375.83 72.328 1377.2 74.56 1379.22 74.56ZM1393.49 76.336C1390.13 76.336 1387.99 73.288 1387.99 67.144C1387.99 61.048 1390.13 58.096 1393.49 58.096C1396.8 58.096 1398.94 61.048 1398.94 67.144C1398.94 73.288 1396.8 76.336 1393.49 76.336ZM1393.49 74.56C1395.48 74.56 1396.83 72.328 1396.83 67.144C1396.83 62.032 1395.48 59.848 1393.49 59.848C1391.47 59.848 1390.11 62.032 1390.11 67.144C1390.11 72.328 1391.47 74.56 1393.49 74.56Z" fill="#1A1A1A"/>
<path d="M1345.62 101L1346.05 97.352H1344.62V96.328H1346.18L1346.51 93.688H1344.99V92.664H1346.62L1347.04 89.384H1347.98L1347.57 92.664H1349.94L1350.37 89.384H1351.31L1350.9 92.664H1352.34V93.688H1350.78L1350.45 96.328H1351.98V97.352H1350.32L1349.89 101H1348.94L1349.36 97.352H1347.01L1346.56 101H1345.62ZM1347.12 96.328H1349.5L1349.82 93.688H1347.44L1347.12 96.328ZM1357.96 101.224C1355.72 101.224 1354.3 99.192 1354.3 95.096C1354.3 91.032 1355.72 89.064 1357.96 89.064C1360.17 89.064 1361.6 91.032 1361.6 95.096C1361.6 99.192 1360.17 101.224 1357.96 101.224ZM1357.96 100.04C1359.29 100.04 1360.19 98.552 1360.19 95.096C1360.19 91.688 1359.29 90.232 1357.96 90.232C1356.62 90.232 1355.71 91.688 1355.71 95.096C1355.71 98.552 1356.62 100.04 1357.96 100.04ZM1367.48 101.224C1365.24 101.224 1363.81 99.192 1363.81 95.096C1363.81 91.032 1365.24 89.064 1367.48 89.064C1369.69 89.064 1371.11 91.032 1371.11 95.096C1371.11 99.192 1369.69 101.224 1367.48 101.224ZM1367.48 100.04C1368.81 100.04 1369.7 98.552 1369.7 95.096C1369.7 91.688 1368.81 90.232 1367.48 90.232C1366.13 90.232 1365.22 91.688 1365.22 95.096C1365.22 98.552 1366.13 100.04 1367.48 100.04ZM1376.99 101.224C1374.75 101.224 1373.33 99.192 1373.33 95.096C1373.33 91.032 1374.75 89.064 1376.99 89.064C1379.2 89.064 1380.62 91.032 1380.62 95.096C1380.62 99.192 1379.2 101.224 1376.99 101.224ZM1376.99 100.04C1378.32 100.04 1379.22 98.552 1379.22 95.096C1379.22 91.688 1378.32 90.232 1376.99 90.232C1375.65 90.232 1374.74 91.688 1374.74 95.096C1374.74 98.552 1375.65 100.04 1376.99 100.04ZM1386.51 101.224C1384.27 101.224 1382.84 99.192 1382.84 95.096C1382.84 91.032 1384.27 89.064 1386.51 89.064C1388.72 89.064 1390.14 91.032 1390.14 95.096C1390.14 99.192 1388.72 101.224 1386.51 101.224ZM1386.51 100.04C1387.84 100.04 1388.73 98.552 1388.73 95.096C1388.73 91.688 1387.84 90.232 1386.51 90.232C1385.16 90.232 1384.25 91.688 1384.25 95.096C1384.25 98.552 1385.16 100.04 1386.51 100.04ZM1396.39 101.224C1394.14 101.224 1392.46 99.288 1392.46 95.416C1392.46 90.824 1394.52 89.064 1396.79 89.064C1398.01 89.064 1398.9 89.576 1399.54 90.264L1398.73 91.16C1398.28 90.616 1397.56 90.28 1396.86 90.28C1395.21 90.28 1393.83 91.576 1393.83 95.416C1393.83 98.424 1394.74 100.072 1396.39 100.072C1397.51 100.072 1398.38 99 1398.38 97.416C1398.38 95.816 1397.67 94.808 1396.26 94.808C1395.51 94.808 1394.57 95.256 1393.78 96.424L1393.74 95.256C1394.46 94.312 1395.54 93.736 1396.49 93.736C1398.47 93.736 1399.75 94.952 1399.75 97.416C1399.75 99.688 1398.2 101.224 1396.39 101.224ZM1405.54 101.224C1403.3 101.224 1401.87 99.192 1401.87 95.096C1401.87 91.032 1403.3 89.064 1405.54 89.064C1407.75 89.064 1409.17 91.032 1409.17 95.096C1409.17 99.192 1407.75 101.224 1405.54 101.224ZM1405.54 100.04C1406.87 100.04 1407.76 98.552 1407.76 95.096C1407.76 91.688 1406.87 90.232 1405.54 90.232C1404.19 90.232 1403.28 91.688 1403.28 95.096C1403.28 98.552 1404.19 100.04 1405.54 100.04Z" fill="#1A1A1A"/>
<rect x="1344" y="114" width="108" height="160.112" rx="4" fill="#000060"/>
<rect x="588" y="284.611" width="64" height="23" rx="11.5" fill="white"/>
<rect x="588" y="284.611" width="64" height="23" rx="11.5" stroke="#949494"/>
<path d="M603.724 303.319C601.884 303.319 600.732 302.551 599.964 301.719L600.7 300.759C601.388 301.479 602.284 302.103 603.612 302.103C605.004 302.103 605.996 301.271 605.996 299.911C605.996 298.519 605.052 297.575 602.348 297.575V296.455C604.764 296.455 605.596 295.479 605.596 294.215C605.596 293.095 604.828 292.359 603.612 292.359C602.668 292.359 601.836 292.823 601.18 293.495L600.396 292.567C601.276 291.751 602.316 291.159 603.676 291.159C605.644 291.159 607.084 292.247 607.084 294.103C607.084 295.527 606.236 296.471 605.004 296.935V296.999C606.38 297.319 607.484 298.375 607.484 299.975C607.484 302.071 605.804 303.319 603.724 303.319ZM611.239 296.871C610.663 296.871 610.183 296.407 610.183 295.767C610.183 295.095 610.663 294.631 611.239 294.631C611.815 294.631 612.295 295.095 612.295 295.767C612.295 296.407 611.815 296.871 611.239 296.871ZM611.239 303.319C610.663 303.319 610.183 302.871 610.183 302.215C610.183 301.543 610.663 301.079 611.239 301.079C611.815 301.079 612.295 301.543 612.295 302.215C612.295 302.871 611.815 303.319 611.239 303.319ZM615.516 303.111V301.895H618.124V293.143H616.044V292.215C617.084 292.023 617.836 291.751 618.476 291.367H619.596V301.895H621.948V303.111H615.516ZM636.599 296.487C635.783 295.863 634.727 294.855 634.007 293.863L634.967 293.303C636.039 294.711 637.639 296.119 639.063 297.031C637.639 297.943 636.039 299.351 634.967 300.759L634.007 300.199C634.727 299.207 635.783 298.199 636.599 297.575H624.263V296.487H636.599Z" fill="black"/>
<rect x="689" y="284.611" width="78" height="23" rx="11.5" fill="white"/>
<rect x="689" y="284.611" width="78" height="23" rx="11.5" stroke="#949494"/>
<path d="M702.34 298.711H705.94V295.111C705.94 294.535 705.988 293.591 706.02 292.983H705.956C705.668 293.559 705.348 294.135 705.012 294.711L702.34 298.711ZM705.94 303.111V299.879H700.82V298.919L705.7 291.367H707.316V298.711H708.868V299.879H707.316V303.111H705.94ZM712.239 303.319C711.663 303.319 711.183 302.871 711.183 302.215C711.183 301.543 711.663 301.079 712.239 301.079C712.815 301.079 713.295 301.543 713.295 302.215C713.295 302.871 712.815 303.319 712.239 303.319ZM719.284 303.319C717.46 303.319 716.34 302.551 715.556 301.767L716.276 300.807C716.948 301.479 717.796 302.103 719.156 302.103C720.532 302.103 721.652 301.047 721.652 299.335C721.652 297.655 720.692 296.663 719.22 296.663C718.436 296.663 717.94 296.903 717.268 297.351L716.484 296.871L716.852 291.367H722.564V292.631H718.132L717.844 296.023C718.372 295.735 718.884 295.559 719.588 295.559C721.54 295.559 723.124 296.711 723.124 299.287C723.124 301.863 721.268 303.319 719.284 303.319ZM726.847 296.871C726.271 296.871 725.791 296.407 725.791 295.767C725.791 295.095 726.271 294.631 726.847 294.631C727.423 294.631 727.903 295.095 727.903 295.767C727.903 296.407 727.423 296.871 726.847 296.871ZM726.847 303.319C726.271 303.319 725.791 302.871 725.791 302.215C725.791 301.543 726.271 301.079 726.847 301.079C727.423 301.079 727.903 301.543 727.903 302.215C727.903 302.871 727.423 303.319 726.847 303.319ZM731.124 303.111V301.895H733.732V293.143H731.652V292.215C732.692 292.023 733.444 291.751 734.084 291.367H735.204V301.895H737.556V303.111H731.124ZM752.207 296.487C751.391 295.863 750.335 294.855 749.615 293.863L750.575 293.303C751.647 294.711 753.247 296.119 754.671 297.031C753.247 297.943 751.647 299.351 750.575 300.759L749.615 300.199C750.335 299.207 751.391 298.199 752.207 297.575H739.871V296.487H752.207Z" fill="black"/>
<rect x="805.5" y="316.111" width="65" height="24" rx="12" fill="black"/>
<path d="M820.508 329.591C821.34 330.199 822.38 331.223 823.116 332.199L822.156 332.775C821.068 331.367 819.484 329.943 818.06 329.031C819.484 328.135 821.068 326.711 822.156 325.303L823.116 325.879C822.38 326.855 821.34 327.879 820.508 328.487H832.86V329.591H820.508ZM838.348 335.335C836.508 335.335 835.372 334.567 834.604 333.719L835.34 332.759C836.028 333.479 836.908 334.119 838.252 334.119C839.644 334.119 840.636 333.271 840.636 331.927C840.636 330.519 839.692 329.591 836.988 329.591V328.455C839.404 328.455 840.22 327.495 840.22 326.215C840.22 325.095 839.468 324.359 838.252 324.359C837.308 324.359 836.476 324.839 835.82 325.511L835.036 324.567C835.916 323.767 836.956 323.175 838.3 323.175C840.268 323.175 841.708 324.247 841.708 326.119C841.708 327.543 840.876 328.487 839.628 328.935V328.999C841.004 329.335 842.124 330.375 842.124 331.991C842.124 334.071 840.444 335.335 838.348 335.335ZM845.863 328.871C845.287 328.871 844.823 328.423 844.823 327.767C844.823 327.095 845.287 326.647 845.863 326.647C846.455 326.647 846.935 327.095 846.935 327.767C846.935 328.423 846.455 328.871 845.863 328.871ZM845.863 335.335C845.287 335.335 844.823 334.871 844.823 334.215C844.823 333.543 845.287 333.095 845.863 333.095C846.455 333.095 846.935 333.543 846.935 334.215C846.935 334.871 846.455 335.335 845.863 335.335ZM850.156 335.111V333.895H852.764V325.159H850.668V324.215C851.724 324.039 852.476 323.767 853.1 323.383H854.22V333.895H856.588V335.111H850.156Z" fill="white"/>
<rect x="581.5" y="316.111" width="79" height="24" rx="12" fill="black"/>
<path d="M596.508 329.591C597.34 330.199 598.38 331.223 599.116 332.199L598.156 332.775C597.068 331.367 595.484 329.943 594.06 329.031C595.484 328.135 597.068 326.711 598.156 325.303L599.116 325.879C598.38 326.855 597.34 327.879 596.508 328.487H608.86V329.591H596.508ZM615.564 335.111V327.127C615.564 326.535 615.612 325.591 615.66 324.983H615.58C615.292 325.559 614.972 326.151 614.652 326.727L611.98 330.727H618.508V331.879H610.444V330.919L615.324 323.383H616.94V335.111H615.564ZM621.863 335.335C621.287 335.335 620.823 334.871 620.823 334.215C620.823 333.543 621.287 333.095 621.863 333.095C622.455 333.095 622.935 333.543 622.935 334.215C622.935 334.871 622.455 335.335 621.863 335.335ZM628.924 335.335C627.1 335.335 625.98 334.567 625.18 333.767L625.916 332.807C626.572 333.495 627.436 334.119 628.78 334.119C630.172 334.119 631.276 333.047 631.276 331.351C631.276 329.671 630.316 328.663 628.86 328.663C628.076 328.663 627.58 328.919 626.908 329.367L626.124 328.871L626.492 323.383H632.204V324.631H627.772L627.468 328.023C627.996 327.735 628.524 327.559 629.228 327.559C631.18 327.559 632.764 328.711 632.764 331.303C632.764 333.863 630.892 335.335 628.924 335.335ZM636.471 328.871C635.895 328.871 635.431 328.423 635.431 327.767C635.431 327.095 635.895 326.647 636.471 326.647C637.063 326.647 637.543 327.095 637.543 327.767C637.543 328.423 637.063 328.871 636.471 328.871ZM636.471 335.335C635.895 335.335 635.431 334.871 635.431 334.215C635.431 333.543 635.895 333.095 636.471 333.095C637.063 333.095 637.543 333.543 637.543 334.215C637.543 334.871 637.063 335.335 636.471 335.335ZM640.764 335.111V333.895H643.372V325.159H641.276V324.215C642.332 324.039 643.084 323.767 643.708 323.383H644.828V333.895H647.196V335.111H640.764Z" fill="white"/>
<path d="M1.82 16V1.18H6.72C9.76 1.18 12.08 2.08 12.08 4.84C12.08 6.2 11.32 7.6 10.06 8.04V8.14C11.66 8.52 12.84 9.64 12.84 11.64C12.84 14.62 10.36 16 7.1 16H1.82ZM4.78 7.22H6.5C8.38 7.22 9.2 6.46 9.2 5.28C9.2 3.98 8.32 3.46 6.54 3.46H4.78V7.22ZM4.78 13.72H6.84C8.86 13.72 9.96 13 9.96 11.46C9.96 10.02 8.88 9.4 6.84 9.4H4.78V13.72ZM17.9533 16.28C15.9133 16.28 15.1933 14.94 15.1933 12.86V0.0399992H18.1333V12.98C18.1333 13.66 18.4333 13.88 18.7133 13.88C18.8333 13.88 18.9133 13.88 19.1133 13.84L19.4733 16.02C19.1333 16.16 18.6533 16.28 17.9533 16.28ZM24.8419 16.28C22.4219 16.28 21.3819 14.6 21.3819 11.8V4.8H24.3219V11.42C24.3219 13.14 24.8019 13.76 25.8819 13.76C26.8019 13.76 27.4019 13.36 28.1619 12.36V4.8H31.1019V16H28.7019L28.4819 14.4H28.4019C27.4419 15.54 26.3619 16.28 24.8419 16.28ZM39.1163 16.28C35.9763 16.28 33.5363 14.1 33.5363 10.4C33.5363 6.78 36.0963 4.52 38.7563 4.52C41.8363 4.52 43.4363 6.78 43.4363 9.86C43.4363 10.42 43.3763 10.96 43.2963 11.22H36.3963C36.6363 13.06 37.8363 14.02 39.4963 14.02C40.4163 14.02 41.2163 13.74 42.0163 13.24L43.0163 15.04C41.9163 15.8 40.4963 16.28 39.1163 16.28ZM36.3563 9.26H40.9163C40.9163 7.76 40.2363 6.8 38.7963 6.8C37.6163 6.8 36.5763 7.64 36.3563 9.26Z" fill="#1A1A1A"/>
</svg>
