<svg width="1452" height="339" viewBox="0 0 1452 339" fill="none" xmlns="http://www.w3.org/2000/svg">
<path d="M6.264 74.336C3.528 74.336 1.848 73.184 0.648 71.984L1.752 70.544C2.736 71.576 4.032 72.512 6.048 72.512C8.136 72.512 9.792 70.904 9.792 68.36C9.792 65.84 8.352 64.328 6.168 64.328C4.992 64.328 4.248 64.712 3.24 65.384L2.064 64.64L2.616 56.408H11.184V58.28H4.536L4.08 63.368C4.872 62.936 5.664 62.672 6.72 62.672C9.648 62.672 12.024 64.4 12.024 68.288C12.024 72.128 9.216 74.336 6.264 74.336ZM20.9445 74.336C17.5845 74.336 15.4485 71.288 15.4485 65.144C15.4485 59.048 17.5845 56.096 20.9445 56.096C24.2565 56.096 26.3925 59.048 26.3925 65.144C26.3925 71.288 24.2565 74.336 20.9445 74.336ZM20.9445 72.56C22.9365 72.56 24.2805 70.328 24.2805 65.144C24.2805 60.032 22.9365 57.848 20.9445 57.848C18.9285 57.848 17.5605 60.032 17.5605 65.144C17.5605 70.328 18.9285 72.56 20.9445 72.56Z" fill="#1A1A1A"/>
<path d="M1.616 99L2.048 95.352H0.624V94.328H2.176L2.512 91.688H0.992V90.664H2.624L3.04 87.384H3.984L3.568 90.664H5.936L6.368 87.384H7.312L6.896 90.664H8.336V91.688H6.784L6.448 94.328H7.984V95.352H6.32L5.888 99H4.944L5.36 95.352H3.008L2.56 99H1.616ZM3.12 94.328H5.504L5.824 91.688H3.44L3.12 94.328ZM11.115 99V87.272H17.867V88.52H12.603V92.2H17.035V93.464H12.603V97.752H18.043V99H11.115ZM24.3769 99.224C22.1209 99.224 20.4249 97.4 20.4249 93.736C20.4249 89.144 22.5049 87.4 24.7769 87.4C25.9929 87.4 26.8889 87.912 27.5129 88.584L26.7129 89.496C26.2489 88.952 25.5449 88.616 24.8249 88.616C23.1929 88.616 21.8169 89.896 21.8169 93.736C21.8169 96.552 22.7129 98.072 24.3609 98.072C25.4969 98.072 26.3609 97.064 26.3609 95.56C26.3609 94.072 25.6569 93.128 24.2329 93.128C23.4969 93.128 22.5689 93.576 21.7689 94.76L21.7209 93.592C22.4569 92.632 23.5129 92.04 24.4729 92.04C26.4409 92.04 27.7369 93.224 27.7369 95.56C27.7369 97.752 26.1849 99.224 24.3769 99.224ZM30.6919 99V87.272H37.4439V88.52H32.1799V92.504H36.6439V93.736H32.1799V99H30.6919ZM44.3733 99.224C41.4453 99.224 39.2693 96.952 39.2693 93.144C39.2693 89.368 41.4933 87.064 44.4693 87.064C45.8933 87.064 46.9973 87.752 47.6853 88.504L46.8693 89.464C46.2613 88.808 45.4773 88.36 44.4853 88.36C42.2613 88.36 40.7893 90.184 40.7893 93.112C40.7893 96.072 42.1973 97.912 44.4373 97.912C45.5413 97.912 46.4053 97.432 47.1573 96.6L47.9573 97.528C47.0293 98.616 45.8933 99.224 44.3733 99.224ZM50.7844 99V87.272H57.5364V88.52H52.2724V92.504H56.7364V93.736H52.2724V99H50.7844ZM60.2525 99V87.272H67.0045V88.52H61.7405V92.504H66.2045V93.736H61.7405V99H60.2525Z" fill="#1A1A1A"/>
<rect y="112" width="108" height="160.112" rx="4" fill="#E9F7F9"/>
<path d="M114.112 74V72.176H118.024V59.072H114.88V57.656C116.464 57.392 117.592 56.984 118.528 56.408H120.208V72.176H123.76V74H114.112ZM132.945 74.336C129.585 74.336 127.449 71.288 127.449 65.144C127.449 59.048 129.585 56.096 132.945 56.096C136.257 56.096 138.392 59.048 138.392 65.144C138.392 71.288 136.257 74.336 132.945 74.336ZM132.945 72.56C134.937 72.56 136.281 70.328 136.281 65.144C136.281 60.032 134.937 57.848 132.945 57.848C130.929 57.848 129.561 60.032 129.561 65.144C129.561 70.328 130.929 72.56 132.945 72.56ZM147.217 74.336C143.857 74.336 141.721 71.288 141.721 65.144C141.721 59.048 143.857 56.096 147.217 56.096C150.529 56.096 152.665 59.048 152.665 65.144C152.665 71.288 150.529 74.336 147.217 74.336ZM147.217 72.56C149.209 72.56 150.553 70.328 150.553 65.144C150.553 60.032 149.209 57.848 147.217 57.848C145.201 57.848 143.833 60.032 143.833 65.144C143.833 70.328 145.201 72.56 147.217 72.56Z" fill="#1A1A1A"/>
<path d="M113.616 99L114.048 95.352H112.624V94.328H114.176L114.512 91.688H112.992V90.664H114.624L115.04 87.384H115.984L115.568 90.664H117.936L118.368 87.384H119.312L118.896 90.664H120.336V91.688H118.784L118.448 94.328H119.984V95.352H118.32L117.888 99H116.944L117.36 95.352H115.008L114.56 99H113.616ZM115.12 94.328H117.504L117.824 91.688H115.44L115.12 94.328ZM127.547 99.224C124.619 99.224 122.443 96.952 122.443 93.144C122.443 89.368 124.667 87.064 127.643 87.064C129.067 87.064 130.171 87.752 130.859 88.504L130.043 89.464C129.435 88.808 128.651 88.36 127.659 88.36C125.435 88.36 123.963 90.184 123.963 93.112C123.963 96.072 125.371 97.912 127.611 97.912C128.715 97.912 129.579 97.432 130.331 96.6L131.131 97.528C130.203 98.616 129.067 99.224 127.547 99.224ZM136.822 99.224C134.662 99.224 133.078 97.912 133.078 96.104C133.078 94.6 134.166 93.576 135.238 93.016V92.952C134.39 92.36 133.638 91.512 133.638 90.312C133.638 88.552 135.03 87.4 136.87 87.4C138.87 87.4 140.086 88.648 140.086 90.424C140.086 91.624 139.206 92.632 138.518 93.16V93.24C139.526 93.848 140.502 94.648 140.502 96.184C140.502 97.896 139.014 99.224 136.822 99.224ZM137.622 92.792C138.406 92.088 138.838 91.336 138.838 90.488C138.838 89.368 138.102 88.472 136.838 88.472C135.766 88.472 134.982 89.208 134.982 90.312C134.982 91.672 136.246 92.248 137.622 92.792ZM136.854 98.12C138.198 98.12 139.094 97.304 139.094 96.136C139.094 94.648 137.654 94.136 136.006 93.464C135.062 94.072 134.39 94.904 134.39 95.96C134.39 97.208 135.446 98.12 136.854 98.12ZM143.473 99V87.272H150.225V88.52H144.961V92.504H149.425V93.736H144.961V99H143.473ZM155.805 99.224C153.645 99.224 152.061 97.912 152.061 96.104C152.061 94.6 153.149 93.576 154.221 93.016V92.952C153.373 92.36 152.621 91.512 152.621 90.312C152.621 88.552 154.013 87.4 155.853 87.4C157.853 87.4 159.069 88.648 159.069 90.424C159.069 91.624 158.189 92.632 157.501 93.16V93.24C158.509 93.848 159.485 94.648 159.485 96.184C159.485 97.896 157.997 99.224 155.805 99.224ZM156.605 92.792C157.389 92.088 157.821 91.336 157.821 90.488C157.821 89.368 157.085 88.472 155.821 88.472C154.749 88.472 153.965 89.208 153.965 90.312C153.965 91.672 155.229 92.248 156.605 92.792ZM155.837 98.12C157.181 98.12 158.077 97.304 158.077 96.136C158.077 94.648 156.637 94.136 154.989 93.464C154.045 94.072 153.373 94.904 153.373 95.96C153.373 97.208 154.429 98.12 155.837 98.12ZM162.456 99V87.272H169.208V88.52H163.944V92.504H168.408V93.736H163.944V99H162.456ZM171.924 99V87.272H178.676V88.52H173.412V92.504H177.876V93.736H173.412V99H171.924Z" fill="#1A1A1A"/>
<rect x="112" y="112" width="108" height="160.112" rx="4" fill="#C8F8FF"/>
<path d="M225.056 74V72.728C230.576 67.904 233.096 64.376 233.096 61.376C233.096 59.36 232.064 57.872 229.88 57.872C228.44 57.872 227.192 58.76 226.208 59.912L224.936 58.688C226.376 57.128 227.912 56.096 230.144 56.096C233.288 56.096 235.256 58.136 235.256 61.28C235.256 64.808 232.496 68.384 228.344 72.296C229.28 72.2 230.336 72.128 231.224 72.128H236.096V74H225.056ZM244.945 74.336C241.585 74.336 239.449 71.288 239.449 65.144C239.449 59.048 241.585 56.096 244.945 56.096C248.257 56.096 250.392 59.048 250.392 65.144C250.392 71.288 248.257 74.336 244.945 74.336ZM244.945 72.56C246.937 72.56 248.281 70.328 248.281 65.144C248.281 60.032 246.937 57.848 244.945 57.848C242.929 57.848 241.561 60.032 241.561 65.144C241.561 70.328 242.929 72.56 244.945 72.56ZM259.217 74.336C255.857 74.336 253.721 71.288 253.721 65.144C253.721 59.048 255.857 56.096 259.217 56.096C262.529 56.096 264.665 59.048 264.665 65.144C264.665 71.288 262.529 74.336 259.217 74.336ZM259.217 72.56C261.209 72.56 262.553 70.328 262.553 65.144C262.553 60.032 261.209 57.848 259.217 57.848C257.201 57.848 255.833 60.032 255.833 65.144C255.833 70.328 257.201 72.56 259.217 72.56Z" fill="#1A1A1A"/>
<path d="M225.616 99L226.048 95.352H224.624V94.328H226.176L226.512 91.688H224.992V90.664H226.624L227.04 87.384H227.984L227.568 90.664H229.936L230.368 87.384H231.312L230.896 90.664H232.336V91.688H230.784L230.448 94.328H231.984V95.352H230.32L229.888 99H228.944L229.36 95.352H227.008L226.56 99H225.616ZM227.12 94.328H229.504L229.824 91.688H227.44L227.12 94.328ZM237.179 99.224C235.947 99.224 235.051 98.712 234.427 98.024L235.243 97.096C235.707 97.672 236.411 98.008 237.115 98.008C238.763 98.008 240.139 96.712 240.139 92.872C240.139 90.056 239.227 88.536 237.579 88.536C236.459 88.536 235.595 89.528 235.595 91.048C235.595 92.536 236.299 93.48 237.707 93.48C238.459 93.48 239.387 93.032 240.155 91.848L240.235 93.016C239.499 93.976 238.427 94.568 237.467 94.568C235.483 94.568 234.219 93.384 234.219 91.048C234.219 88.872 235.755 87.4 237.579 87.4C239.835 87.4 241.515 89.208 241.515 92.872C241.515 97.464 239.435 99.224 237.179 99.224ZM246.694 99.224C245.462 99.224 244.566 98.712 243.942 98.024L244.758 97.096C245.222 97.672 245.926 98.008 246.63 98.008C248.278 98.008 249.654 96.712 249.654 92.872C249.654 90.056 248.742 88.536 247.094 88.536C245.974 88.536 245.11 89.528 245.11 91.048C245.11 92.536 245.814 93.48 247.222 93.48C247.974 93.48 248.902 93.032 249.67 91.848L249.75 93.016C249.014 93.976 247.942 94.568 246.982 94.568C244.998 94.568 243.734 93.384 243.734 91.048C243.734 88.872 245.27 87.4 247.094 87.4C249.35 87.4 251.03 89.208 251.03 92.872C251.03 97.464 248.95 99.224 246.694 99.224ZM254.145 99V87.272H260.897V88.52H255.633V92.504H260.097V93.736H255.633V99H254.145ZM262.717 99V98.152C266.157 94.728 268.077 92.664 268.077 90.792C268.077 89.496 267.389 88.568 265.933 88.568C264.973 88.568 264.141 89.176 263.485 89.944L262.637 89.112C263.597 88.072 264.621 87.4 266.109 87.4C268.205 87.4 269.517 88.712 269.517 90.744C269.517 92.888 267.549 95.016 264.845 97.864C265.453 97.8 266.173 97.752 266.765 97.752H270.077V99H262.717ZM273.128 99V87.272H279.88V88.52H274.616V92.504H279.08V93.736H274.616V99H273.128ZM282.596 99V87.272H289.348V88.52H284.084V92.504H288.548V93.736H284.084V99H282.596Z" fill="#1A1A1A"/>
<rect x="224" y="112" width="108" height="160.112" rx="4" fill="#99F2FF"/>
<path d="M342.312 74.336C339.552 74.336 337.848 73.184 336.696 71.912L337.8 70.472C338.832 71.552 340.152 72.512 342.168 72.512C344.256 72.512 345.744 71.24 345.744 69.224C345.744 67.112 344.328 65.72 340.272 65.72V64.016C343.896 64.016 345.12 62.576 345.12 60.656C345.12 58.976 343.992 57.872 342.168 57.872C340.752 57.872 339.504 58.592 338.52 59.6L337.344 58.184C338.664 56.984 340.224 56.096 342.24 56.096C345.192 56.096 347.352 57.704 347.352 60.512C347.352 62.648 346.104 64.064 344.232 64.736V64.832C346.296 65.336 347.976 66.896 347.976 69.32C347.976 72.44 345.456 74.336 342.312 74.336ZM356.945 74.336C353.585 74.336 351.449 71.288 351.449 65.144C351.449 59.048 353.585 56.096 356.945 56.096C360.257 56.096 362.392 59.048 362.392 65.144C362.392 71.288 360.257 74.336 356.945 74.336ZM356.945 72.56C358.937 72.56 360.281 70.328 360.281 65.144C360.281 60.032 358.937 57.848 356.945 57.848C354.929 57.848 353.561 60.032 353.561 65.144C353.561 70.328 354.929 72.56 356.945 72.56ZM371.217 74.336C367.857 74.336 365.721 71.288 365.721 65.144C365.721 59.048 367.857 56.096 371.217 56.096C374.529 56.096 376.665 59.048 376.665 65.144C376.665 71.288 374.529 74.336 371.217 74.336ZM371.217 72.56C373.209 72.56 374.553 70.328 374.553 65.144C374.553 60.032 373.209 57.848 371.217 57.848C369.201 57.848 367.833 60.032 367.833 65.144C367.833 70.328 369.201 72.56 371.217 72.56Z" fill="#1A1A1A"/>
<path d="M337.616 99L338.048 95.352H336.624V94.328H338.176L338.512 91.688H336.992V90.664H338.624L339.04 87.384H339.984L339.568 90.664H341.936L342.368 87.384H343.312L342.896 90.664H344.336V91.688H342.784L342.448 94.328H343.984V95.352H342.32L341.888 99H340.944L341.36 95.352H339.008L338.56 99H337.616ZM339.12 94.328H341.504L341.824 91.688H339.44L339.12 94.328ZM348.667 99C348.875 94.712 349.739 91.976 351.979 88.856H346.299V87.608H353.627V88.504C350.939 91.944 350.379 94.552 350.187 99H348.667ZM358.694 99.224C357.462 99.224 356.566 98.712 355.942 98.024L356.758 97.096C357.222 97.672 357.926 98.008 358.63 98.008C360.278 98.008 361.654 96.712 361.654 92.872C361.654 90.056 360.742 88.536 359.094 88.536C357.974 88.536 357.11 89.528 357.11 91.048C357.11 92.536 357.814 93.48 359.222 93.48C359.974 93.48 360.902 93.032 361.67 91.848L361.75 93.016C361.014 93.976 359.942 94.568 358.982 94.568C356.998 94.568 355.734 93.384 355.734 91.048C355.734 88.872 357.27 87.4 359.094 87.4C361.35 87.4 363.03 89.208 363.03 92.872C363.03 97.464 360.95 99.224 358.694 99.224ZM366.145 99V87.272H372.897V88.52H367.633V92.2H372.065V93.464H367.633V97.752H373.073V99H366.145ZM375.311 99V98.152C378.751 94.728 380.671 92.664 380.671 90.792C380.671 89.496 379.983 88.568 378.527 88.568C377.567 88.568 376.735 89.176 376.079 89.944L375.231 89.112C376.191 88.072 377.215 87.4 378.703 87.4C380.799 87.4 382.111 88.712 382.111 90.744C382.111 92.888 380.143 95.016 377.439 97.864C378.047 97.8 378.767 97.752 379.359 97.752H382.671V99H375.311ZM385.722 99V87.272H392.474V88.52H387.21V92.504H391.674V93.736H387.21V99H385.722ZM394.294 99V98.152C397.734 94.728 399.654 92.664 399.654 90.792C399.654 89.496 398.966 88.568 397.51 88.568C396.55 88.568 395.718 89.176 395.062 89.944L394.214 89.112C395.174 88.072 396.198 87.4 397.686 87.4C399.782 87.4 401.094 88.712 401.094 90.744C401.094 92.888 399.126 95.016 396.422 97.864C397.03 97.8 397.75 97.752 398.342 97.752H401.654V99H394.294Z" fill="#1A1A1A"/>
<rect x="336" y="112" width="108" height="160.112" rx="4" fill="#79E2F2"/>
<path d="M456.136 74V62.024C456.136 61.136 456.208 59.72 456.28 58.808H456.16C455.728 59.672 455.248 60.56 454.768 61.424L450.76 67.424H460.552V69.152H448.456V67.712L455.776 56.408H458.2V74H456.136ZM468.945 74.336C465.585 74.336 463.449 71.288 463.449 65.144C463.449 59.048 465.585 56.096 468.945 56.096C472.257 56.096 474.392 59.048 474.392 65.144C474.392 71.288 472.257 74.336 468.945 74.336ZM468.945 72.56C470.937 72.56 472.281 70.328 472.281 65.144C472.281 60.032 470.937 57.848 468.945 57.848C466.929 57.848 465.561 60.032 465.561 65.144C465.561 70.328 466.929 72.56 468.945 72.56ZM483.217 74.336C479.857 74.336 477.721 71.288 477.721 65.144C477.721 59.048 479.857 56.096 483.217 56.096C486.529 56.096 488.665 59.048 488.665 65.144C488.665 71.288 486.529 74.336 483.217 74.336ZM483.217 72.56C485.209 72.56 486.553 70.328 486.553 65.144C486.553 60.032 485.209 57.848 483.217 57.848C481.201 57.848 479.833 60.032 479.833 65.144C479.833 70.328 481.201 72.56 483.217 72.56Z" fill="#1A1A1A"/>
<path d="M449.616 99L450.048 95.352H448.624V94.328H450.176L450.512 91.688H448.992V90.664H450.624L451.04 87.384H451.984L451.568 90.664H453.936L454.368 87.384H455.312L454.896 90.664H456.336V91.688H454.784L454.448 94.328H455.984V95.352H454.32L453.888 99H452.944L453.36 95.352H451.008L450.56 99H449.616ZM451.12 94.328H453.504L453.824 91.688H451.44L451.12 94.328ZM458.219 99V98.152C461.659 94.728 463.579 92.664 463.579 90.792C463.579 89.496 462.891 88.568 461.435 88.568C460.475 88.568 459.643 89.176 458.987 89.944L458.139 89.112C459.099 88.072 460.123 87.4 461.611 87.4C463.707 87.4 465.019 88.712 465.019 90.744C465.019 92.888 463.051 95.016 460.347 97.864C460.955 97.8 461.675 97.752 462.267 97.752H465.579V99H458.219ZM468.63 99V87.272H472.102C474.486 87.272 476.134 88.088 476.134 90.152C476.134 91.304 475.526 92.328 474.422 92.696V92.76C475.83 93.032 476.806 93.976 476.806 95.576C476.806 97.864 474.982 99 472.374 99H468.63ZM470.118 92.264H471.846C473.862 92.264 474.678 91.528 474.678 90.328C474.678 88.952 473.75 88.44 471.926 88.44H470.118V92.264ZM470.118 97.832H472.166C474.166 97.832 475.366 97.112 475.366 95.528C475.366 94.072 474.214 93.4 472.166 93.4H470.118V97.832ZM484.218 99.224C481.29 99.224 479.114 96.952 479.114 93.144C479.114 89.368 481.338 87.064 484.314 87.064C485.738 87.064 486.842 87.752 487.53 88.504L486.714 89.464C486.106 88.808 485.322 88.36 484.33 88.36C482.106 88.36 480.634 90.184 480.634 93.112C480.634 96.072 482.042 97.912 484.282 97.912C485.386 97.912 486.25 97.432 487.002 96.6L487.802 97.528C486.874 98.616 485.738 99.224 484.218 99.224ZM493.493 99.224C491.333 99.224 489.749 97.912 489.749 96.104C489.749 94.6 490.837 93.576 491.909 93.016V92.952C491.061 92.36 490.309 91.512 490.309 90.312C490.309 88.552 491.701 87.4 493.541 87.4C495.541 87.4 496.757 88.648 496.757 90.424C496.757 91.624 495.877 92.632 495.189 93.16V93.24C496.197 93.848 497.173 94.648 497.173 96.184C497.173 97.896 495.685 99.224 493.493 99.224ZM494.293 92.792C495.077 92.088 495.509 91.336 495.509 90.488C495.509 89.368 494.773 88.472 493.509 88.472C492.437 88.472 491.653 89.208 491.653 90.312C491.653 91.672 492.917 92.248 494.293 92.792ZM493.525 98.12C494.869 98.12 495.765 97.304 495.765 96.136C495.765 94.648 494.325 94.136 492.677 93.464C491.733 94.072 491.061 94.904 491.061 95.96C491.061 97.208 492.117 98.12 493.525 98.12ZM500.144 99V87.272H506.896V88.52H501.632V92.2H506.064V93.464H501.632V97.752H507.072V99H500.144ZM514.03 99V91.352C514.03 90.76 514.078 89.768 514.126 89.176H514.046C513.758 89.704 513.438 90.216 513.118 90.776L510.446 94.696H516.974V95.848H508.91V94.888L513.79 87.608H515.406V99H514.03Z" fill="#1A1A1A"/>
<rect x="448" y="112" width="108" height="160.112" rx="4" fill="#2BC8E4"/>
<path d="M566.264 74.336C563.528 74.336 561.848 73.184 560.648 71.984L561.752 70.544C562.736 71.576 564.032 72.512 566.048 72.512C568.136 72.512 569.792 70.904 569.792 68.36C569.792 65.84 568.352 64.328 566.168 64.328C564.992 64.328 564.248 64.712 563.24 65.384L562.064 64.64L562.616 56.408H571.184V58.28H564.536L564.08 63.368C564.872 62.936 565.664 62.672 566.72 62.672C569.648 62.672 572.024 64.4 572.024 68.288C572.024 72.128 569.216 74.336 566.264 74.336ZM580.945 74.336C577.585 74.336 575.449 71.288 575.449 65.144C575.449 59.048 577.585 56.096 580.945 56.096C584.257 56.096 586.392 59.048 586.392 65.144C586.392 71.288 584.257 74.336 580.945 74.336ZM580.945 72.56C582.937 72.56 584.281 70.328 584.281 65.144C584.281 60.032 582.937 57.848 580.945 57.848C578.929 57.848 577.561 60.032 577.561 65.144C577.561 70.328 578.929 72.56 580.945 72.56ZM595.217 74.336C591.857 74.336 589.721 71.288 589.721 65.144C589.721 59.048 591.857 56.096 595.217 56.096C598.529 56.096 600.665 59.048 600.665 65.144C600.665 71.288 598.529 74.336 595.217 74.336ZM595.217 72.56C597.209 72.56 598.553 70.328 598.553 65.144C598.553 60.032 597.209 57.848 595.217 57.848C593.201 57.848 591.833 60.032 591.833 65.144C591.833 70.328 593.201 72.56 595.217 72.56Z" fill="#1A1A1A"/>
<path d="M561.616 99L562.048 95.352H560.624V94.328H562.176L562.512 91.688H560.992V90.664H562.624L563.04 87.384H563.984L563.568 90.664H565.936L566.368 87.384H567.312L566.896 90.664H568.336V91.688H566.784L566.448 94.328H567.984V95.352H566.32L565.888 99H564.944L565.36 95.352H563.008L562.56 99H561.616ZM563.12 94.328H565.504L565.824 91.688H563.44L563.12 94.328ZM573.963 99.224C571.675 99.224 570.299 97.096 570.299 93.272C570.299 89.448 571.675 87.4 573.963 87.4C576.219 87.4 577.595 89.448 577.595 93.272C577.595 97.096 576.219 99.224 573.963 99.224ZM573.963 98.04C575.291 98.04 576.187 96.616 576.187 93.272C576.187 89.912 575.291 88.568 573.963 88.568C572.619 88.568 571.707 89.912 571.707 93.272C571.707 96.616 572.619 98.04 573.963 98.04ZM580.438 99V97.784H583.046V89.384H580.95V88.44C582.006 88.248 582.758 87.976 583.382 87.608H584.502V97.784H586.87V99H580.438ZM590.145 99V87.272H593.617C596.001 87.272 597.649 88.088 597.649 90.152C597.649 91.304 597.041 92.328 595.937 92.696V92.76C597.345 93.032 598.321 93.976 598.321 95.576C598.321 97.864 596.497 99 593.889 99H590.145ZM591.633 92.264H593.361C595.377 92.264 596.193 91.528 596.193 90.328C596.193 88.952 595.265 88.44 593.441 88.44H591.633V92.264ZM591.633 97.832H593.681C595.681 97.832 596.881 97.112 596.881 95.528C596.881 94.072 595.729 93.4 593.681 93.4H591.633V97.832ZM602.853 99C603.061 94.712 603.925 91.976 606.165 88.856H600.485V87.608H607.813V88.504C605.125 91.944 604.565 94.552 604.373 99H602.853ZM610.816 99V87.272H613.744C617.36 87.272 619.28 89.368 619.28 93.096C619.28 96.824 617.36 99 613.824 99H610.816ZM612.304 97.784H613.632C616.384 97.784 617.76 96.072 617.76 93.096C617.76 90.12 616.384 88.488 613.632 88.488H612.304V97.784ZM625.671 99.224C623.415 99.224 621.719 97.4 621.719 93.736C621.719 89.144 623.799 87.4 626.071 87.4C627.287 87.4 628.183 87.912 628.807 88.584L628.007 89.496C627.543 88.952 626.839 88.616 626.119 88.616C624.487 88.616 623.111 89.896 623.111 93.736C623.111 96.552 624.007 98.072 625.655 98.072C626.791 98.072 627.655 97.064 627.655 95.56C627.655 94.072 626.951 93.128 625.527 93.128C624.791 93.128 623.863 93.576 623.063 94.76L623.015 93.592C623.751 92.632 624.807 92.04 625.767 92.04C627.735 92.04 629.031 93.224 629.031 95.56C629.031 97.752 627.479 99.224 625.671 99.224Z" fill="#1A1A1A"/>
<rect x="560" y="112" width="108" height="160.112" rx="4" fill="#01B7D6"/>
<path d="M679.224 74.336C675.84 74.336 673.32 71.432 673.32 65.624C673.32 58.736 676.416 56.096 679.824 56.096C681.648 56.096 682.992 56.864 683.952 57.896L682.728 59.24C682.056 58.424 680.976 57.92 679.92 57.92C677.448 57.92 675.384 59.864 675.384 65.624C675.384 70.136 676.752 72.608 679.224 72.608C680.904 72.608 682.2 71 682.2 68.624C682.2 66.224 681.144 64.712 679.032 64.712C677.904 64.712 676.488 65.384 675.312 67.136L675.24 65.384C676.32 63.968 677.952 63.104 679.368 63.104C682.344 63.104 684.264 64.928 684.264 68.624C684.264 72.032 681.936 74.336 679.224 74.336ZM692.945 74.336C689.585 74.336 687.449 71.288 687.449 65.144C687.449 59.048 689.585 56.096 692.945 56.096C696.257 56.096 698.392 59.048 698.392 65.144C698.392 71.288 696.257 74.336 692.945 74.336ZM692.945 72.56C694.937 72.56 696.281 70.328 696.281 65.144C696.281 60.032 694.937 57.848 692.945 57.848C690.929 57.848 689.561 60.032 689.561 65.144C689.561 70.328 690.929 72.56 692.945 72.56ZM707.217 74.336C703.857 74.336 701.721 71.288 701.721 65.144C701.721 59.048 703.857 56.096 707.217 56.096C710.529 56.096 712.665 59.048 712.665 65.144C712.665 71.288 710.529 74.336 707.217 74.336ZM707.217 72.56C709.209 72.56 710.553 70.328 710.553 65.144C710.553 60.032 709.209 57.848 707.217 57.848C705.201 57.848 703.833 60.032 703.833 65.144C703.833 70.328 705.201 72.56 707.217 72.56Z" fill="#1A1A1A"/>
<path d="M673.616 99L674.048 95.352H672.624V94.328H674.176L674.512 91.688H672.992V90.664H674.624L675.04 87.384H675.984L675.568 90.664H677.936L678.368 87.384H679.312L678.896 90.664H680.336V91.688H678.784L678.448 94.328H679.984V95.352H678.32L677.888 99H676.944L677.36 95.352H675.008L674.56 99H673.616ZM675.12 94.328H677.504L677.824 91.688H675.44L675.12 94.328ZM685.963 99.224C683.675 99.224 682.299 97.096 682.299 93.272C682.299 89.448 683.675 87.4 685.963 87.4C688.219 87.4 689.595 89.448 689.595 93.272C689.595 97.096 688.219 99.224 685.963 99.224ZM685.963 98.04C687.291 98.04 688.187 96.616 688.187 93.272C688.187 89.912 687.291 88.568 685.963 88.568C684.619 88.568 683.707 89.912 683.707 93.272C683.707 96.616 684.619 98.04 685.963 98.04ZM695.478 99.224C693.19 99.224 691.814 97.096 691.814 93.272C691.814 89.448 693.19 87.4 695.478 87.4C697.734 87.4 699.11 89.448 699.11 93.272C699.11 97.096 697.734 99.224 695.478 99.224ZM695.478 98.04C696.806 98.04 697.702 96.616 697.702 93.272C697.702 89.912 696.806 88.568 695.478 88.568C694.134 88.568 693.222 89.912 693.222 93.272C693.222 96.616 694.134 98.04 695.478 98.04ZM700.593 99L704.561 87.272H706.225L710.193 99H708.641L706.577 92.44C706.161 91.128 705.793 89.848 705.409 88.488H705.345C704.961 89.848 704.593 91.128 704.161 92.44L702.097 99H700.593ZM702.673 95.416V94.248H708.081V95.416H702.673ZM715.127 99.224C713.287 99.224 712.151 98.456 711.383 97.608L712.119 96.648C712.807 97.368 713.687 98.008 715.031 98.008C716.423 98.008 717.415 97.192 717.415 95.912C717.415 94.552 716.471 93.64 713.767 93.64V92.52C716.183 92.52 716.999 91.576 716.999 90.376C716.999 89.272 716.247 88.568 715.031 88.568C714.087 88.568 713.255 89.064 712.599 89.736L711.815 88.808C712.695 87.992 713.735 87.4 715.079 87.4C717.047 87.4 718.487 88.44 718.487 90.28C718.487 91.656 717.655 92.536 716.407 93V93.064C717.783 93.384 718.903 94.408 718.903 95.96C718.903 97.992 717.223 99.224 715.127 99.224ZM722.034 99V87.272H725.506C727.89 87.272 729.538 88.088 729.538 90.152C729.538 91.304 728.93 92.328 727.826 92.696V92.76C729.234 93.032 730.21 93.976 730.21 95.576C730.21 97.864 728.386 99 725.778 99H722.034ZM723.522 92.264H725.25C727.266 92.264 728.082 91.528 728.082 90.328C728.082 88.952 727.154 88.44 725.33 88.44H723.522V92.264ZM723.522 97.832H725.57C727.57 97.832 728.77 97.112 728.77 95.528C728.77 94.072 727.618 93.4 725.57 93.4H723.522V97.832ZM733.19 99V87.272H739.942V88.52H734.678V92.504H739.142V93.736H734.678V99H733.19Z" fill="#1A1A1A"/>
<rect x="672" y="112" width="108" height="160.112" rx="4" fill="#00A3BF"/>
<path d="M788.728 74C789.04 67.352 790.24 63.08 793.696 58.28H785.176V56.408H796.168V57.728C792.04 63.032 791.296 67.136 791.008 74H788.728ZM804.945 74.336C801.585 74.336 799.449 71.288 799.449 65.144C799.449 59.048 801.585 56.096 804.945 56.096C808.257 56.096 810.392 59.048 810.392 65.144C810.392 71.288 808.257 74.336 804.945 74.336ZM804.945 72.56C806.937 72.56 808.281 70.328 808.281 65.144C808.281 60.032 806.937 57.848 804.945 57.848C802.929 57.848 801.561 60.032 801.561 65.144C801.561 70.328 802.929 72.56 804.945 72.56ZM819.217 74.336C815.857 74.336 813.721 71.288 813.721 65.144C813.721 59.048 815.857 56.096 819.217 56.096C822.529 56.096 824.665 59.048 824.665 65.144C824.665 71.288 822.529 74.336 819.217 74.336ZM819.217 72.56C821.209 72.56 822.553 70.328 822.553 65.144C822.553 60.032 821.209 57.848 819.217 57.848C817.201 57.848 815.833 60.032 815.833 65.144C815.833 70.328 817.201 72.56 819.217 72.56Z" fill="#1A1A1A"/>
<path d="M785.616 99L786.048 95.352H784.624V94.328H786.176L786.512 91.688H784.992V90.664H786.624L787.04 87.384H787.984L787.568 90.664H789.936L790.368 87.384H791.312L790.896 90.664H792.336V91.688H790.784L790.448 94.328H791.984V95.352H790.32L789.888 99H788.944L789.36 95.352H787.008L786.56 99H785.616ZM787.12 94.328H789.504L789.824 91.688H787.44L787.12 94.328ZM797.963 99.224C795.675 99.224 794.299 97.096 794.299 93.272C794.299 89.448 795.675 87.4 797.963 87.4C800.219 87.4 801.595 89.448 801.595 93.272C801.595 97.096 800.219 99.224 797.963 99.224ZM797.963 98.04C799.291 98.04 800.187 96.616 800.187 93.272C800.187 89.912 799.291 88.568 797.963 88.568C796.619 88.568 795.707 89.912 795.707 93.272C795.707 96.616 796.619 98.04 797.963 98.04ZM807.478 99.224C805.19 99.224 803.814 97.096 803.814 93.272C803.814 89.448 805.19 87.4 807.478 87.4C809.734 87.4 811.11 89.448 811.11 93.272C811.11 97.096 809.734 99.224 807.478 99.224ZM807.478 98.04C808.806 98.04 809.702 96.616 809.702 93.272C809.702 89.912 808.806 88.568 807.478 88.568C806.134 88.568 805.222 89.912 805.222 93.272C805.222 96.616 806.134 98.04 807.478 98.04ZM817.009 99.224C814.849 99.224 813.265 97.912 813.265 96.104C813.265 94.6 814.353 93.576 815.425 93.016V92.952C814.577 92.36 813.825 91.512 813.825 90.312C813.825 88.552 815.217 87.4 817.057 87.4C819.057 87.4 820.273 88.648 820.273 90.424C820.273 91.624 819.393 92.632 818.705 93.16V93.24C819.713 93.848 820.689 94.648 820.689 96.184C820.689 97.896 819.201 99.224 817.009 99.224ZM817.809 92.792C818.593 92.088 819.025 91.336 819.025 90.488C819.025 89.368 818.289 88.472 817.025 88.472C815.953 88.472 815.169 89.208 815.169 90.312C815.169 91.672 816.433 92.248 817.809 92.792ZM817.041 98.12C818.385 98.12 819.281 97.304 819.281 96.136C819.281 94.648 817.841 94.136 816.193 93.464C815.249 94.072 814.577 94.904 814.577 95.96C814.577 97.208 815.633 98.12 817.041 98.12ZM823.66 99V87.272H826.588C830.204 87.272 832.124 89.368 832.124 93.096C832.124 96.824 830.204 99 826.668 99H823.66ZM825.148 97.784H826.476C829.228 97.784 830.604 96.072 830.604 93.096C830.604 90.12 829.228 88.488 826.476 88.488H825.148V97.784ZM833.545 99L837.513 87.272H839.177L843.145 99H841.593L839.529 92.44C839.113 91.128 838.745 89.848 838.361 88.488H838.297C837.913 89.848 837.545 91.128 837.113 92.44L835.049 99H833.545ZM835.625 95.416V94.248H841.033V95.416H835.625ZM848.671 99.224C846.415 99.224 844.719 97.4 844.719 93.736C844.719 89.144 846.799 87.4 849.071 87.4C850.287 87.4 851.183 87.912 851.807 88.584L851.007 89.496C850.543 88.952 849.839 88.616 849.119 88.616C847.487 88.616 846.111 89.896 846.111 93.736C846.111 96.552 847.007 98.072 848.655 98.072C849.791 98.072 850.655 97.064 850.655 95.56C850.655 94.072 849.951 93.128 848.527 93.128C847.791 93.128 846.863 93.576 846.063 94.76L846.015 93.592C846.751 92.632 847.807 92.04 848.767 92.04C850.735 92.04 852.031 93.224 852.031 95.56C852.031 97.752 850.479 99.224 848.671 99.224Z" fill="#1A1A1A"/>
<rect x="784" y="112" width="108" height="160.112" rx="4" fill="#008DA6"/>
<path d="M902.696 74.336C899.456 74.336 897.08 72.368 897.08 69.656C897.08 67.28 898.712 65.648 900.32 64.784V64.688C899.024 63.8 897.92 62.456 897.92 60.608C897.92 57.944 900.008 56.168 902.768 56.168C905.768 56.168 907.592 58.088 907.592 60.776C907.592 62.648 906.296 64.208 905.24 65.024V65.144C906.776 66.032 908.216 67.376 908.216 69.776C908.216 72.344 905.984 74.336 902.696 74.336ZM903.896 64.472C905.096 63.416 905.72 62.216 905.72 60.896C905.72 59.168 904.616 57.776 902.72 57.776C901.112 57.776 899.936 58.928 899.936 60.608C899.936 62.72 901.832 63.656 903.896 64.472ZM902.744 72.68C904.76 72.68 906.104 71.456 906.104 69.704C906.104 67.352 903.944 66.464 901.472 65.456C900.032 66.368 899.048 67.76 899.048 69.44C899.048 71.312 900.632 72.68 902.744 72.68ZM916.945 74.336C913.585 74.336 911.449 71.288 911.449 65.144C911.449 59.048 913.585 56.096 916.945 56.096C920.257 56.096 922.392 59.048 922.392 65.144C922.392 71.288 920.257 74.336 916.945 74.336ZM916.945 72.56C918.937 72.56 920.281 70.328 920.281 65.144C920.281 60.032 918.937 57.848 916.945 57.848C914.929 57.848 913.561 60.032 913.561 65.144C913.561 70.328 914.929 72.56 916.945 72.56ZM931.217 74.336C927.857 74.336 925.721 71.288 925.721 65.144C925.721 59.048 927.857 56.096 931.217 56.096C934.529 56.096 936.665 59.048 936.665 65.144C936.665 71.288 934.529 74.336 931.217 74.336ZM931.217 72.56C933.209 72.56 934.553 70.328 934.553 65.144C934.553 60.032 933.209 57.848 931.217 57.848C929.201 57.848 927.833 60.032 927.833 65.144C927.833 70.328 929.201 72.56 931.217 72.56Z" fill="#1A1A1A"/>
<path d="M897.616 99L898.048 95.352H896.624V94.328H898.176L898.512 91.688H896.992V90.664H898.624L899.04 87.384H899.984L899.568 90.664H901.936L902.368 87.384H903.312L902.896 90.664H904.336V91.688H902.784L902.448 94.328H903.984V95.352H902.32L901.888 99H900.944L901.36 95.352H899.008L898.56 99H897.616ZM899.12 94.328H901.504L901.824 91.688H899.44L899.12 94.328ZM909.963 99.224C907.723 99.224 906.299 97.192 906.299 93.096C906.299 89.032 907.723 87.064 909.963 87.064C912.171 87.064 913.595 89.032 913.595 93.096C913.595 97.192 912.171 99.224 909.963 99.224ZM909.963 98.04C911.291 98.04 912.187 96.552 912.187 93.096C912.187 89.688 911.291 88.232 909.963 88.232C908.619 88.232 907.707 89.688 907.707 93.096C907.707 96.552 908.619 98.04 909.963 98.04ZM919.478 99.224C917.238 99.224 915.814 97.192 915.814 93.096C915.814 89.032 917.238 87.064 919.478 87.064C921.686 87.064 923.11 89.032 923.11 93.096C923.11 97.192 921.686 99.224 919.478 99.224ZM919.478 98.04C920.806 98.04 921.702 96.552 921.702 93.096C921.702 89.688 920.806 88.232 919.478 88.232C918.134 88.232 917.222 89.688 917.222 93.096C917.222 96.552 918.134 98.04 919.478 98.04ZM929.009 99.224C926.849 99.224 925.265 97.912 925.265 96.104C925.265 94.52 926.353 93.432 927.425 92.856V92.792C926.561 92.2 925.825 91.304 925.825 90.072C925.825 88.296 927.217 87.112 929.057 87.112C931.057 87.112 932.273 88.392 932.273 90.184C932.273 91.432 931.409 92.472 930.705 93.016V93.096C931.729 93.688 932.689 94.584 932.689 96.184C932.689 97.896 931.201 99.224 929.009 99.224ZM929.809 92.648C930.609 91.944 931.025 91.144 931.025 90.264C931.025 89.112 930.289 88.184 929.025 88.184C927.953 88.184 927.169 88.952 927.169 90.072C927.169 91.48 928.433 92.104 929.809 92.648ZM929.041 98.12C930.385 98.12 931.281 97.304 931.281 96.136C931.281 94.568 929.841 93.976 928.193 93.304C927.233 93.912 926.577 94.84 926.577 95.96C926.577 97.208 927.633 98.12 929.041 98.12ZM934.764 99V98.152C938.444 94.936 940.124 92.584 940.124 90.584C940.124 89.24 939.436 88.248 937.98 88.248C937.02 88.248 936.188 88.84 935.532 89.608L934.684 88.792C935.644 87.752 936.668 87.064 938.156 87.064C940.252 87.064 941.564 88.424 941.564 90.52C941.564 92.872 939.724 95.256 936.956 97.864C937.58 97.8 938.284 97.752 938.876 97.752H942.124V99H934.764ZM947.319 99.224C946.039 99.224 945.143 98.712 944.487 98.024L945.303 97.096C945.799 97.672 946.519 98.008 947.271 98.008C948.839 98.008 950.199 96.648 950.199 92.632C950.199 89.752 949.287 88.2 947.639 88.2C946.519 88.2 945.655 89.256 945.655 90.872C945.655 92.44 946.359 93.48 947.751 93.48C948.535 93.48 949.447 93.016 950.215 91.848L950.295 93.016C949.559 93.944 948.519 94.552 947.511 94.552C945.543 94.552 944.279 93.304 944.279 90.872C944.279 88.6 945.815 87.064 947.639 87.064C949.895 87.064 951.575 88.904 951.575 92.632C951.575 97.4 949.527 99.224 947.319 99.224ZM956.834 99.224C955.554 99.224 954.658 98.712 954.002 98.024L954.818 97.096C955.314 97.672 956.034 98.008 956.786 98.008C958.354 98.008 959.714 96.648 959.714 92.632C959.714 89.752 958.802 88.2 957.154 88.2C956.034 88.2 955.17 89.256 955.17 90.872C955.17 92.44 955.874 93.48 957.266 93.48C958.05 93.48 958.962 93.016 959.73 91.848L959.81 93.016C959.074 93.944 958.034 94.552 957.026 94.552C955.058 94.552 953.794 93.304 953.794 90.872C953.794 88.6 955.33 87.064 957.154 87.064C959.41 87.064 961.09 88.904 961.09 92.632C961.09 97.4 959.042 99.224 956.834 99.224Z" fill="#1A1A1A"/>
<rect x="896" y="112" width="108" height="160.112" rx="4" fill="#008299"/>
<path d="M1013.62 74.336C1011.7 74.336 1010.35 73.568 1009.37 72.536L1010.59 71.144C1011.34 72.008 1012.42 72.512 1013.54 72.512C1015.9 72.512 1017.94 70.472 1017.94 64.448C1017.94 60.128 1016.57 57.8 1014.1 57.8C1012.42 57.8 1011.12 59.384 1011.12 61.808C1011.12 64.16 1012.18 65.72 1014.26 65.72C1015.44 65.72 1016.81 65.024 1017.96 63.272L1018.08 65.024C1016.98 66.416 1015.42 67.328 1013.9 67.328C1010.95 67.328 1009.06 65.456 1009.06 61.808C1009.06 58.4 1011.36 56.096 1014.1 56.096C1017.48 56.096 1020 58.856 1020 64.448C1020 71.6 1016.93 74.336 1013.62 74.336ZM1028.94 74.336C1025.58 74.336 1023.45 71.288 1023.45 65.144C1023.45 59.048 1025.58 56.096 1028.94 56.096C1032.26 56.096 1034.39 59.048 1034.39 65.144C1034.39 71.288 1032.26 74.336 1028.94 74.336ZM1028.94 72.56C1030.94 72.56 1032.28 70.328 1032.28 65.144C1032.28 60.032 1030.94 57.848 1028.94 57.848C1026.93 57.848 1025.56 60.032 1025.56 65.144C1025.56 70.328 1026.93 72.56 1028.94 72.56ZM1043.22 74.336C1039.86 74.336 1037.72 71.288 1037.72 65.144C1037.72 59.048 1039.86 56.096 1043.22 56.096C1046.53 56.096 1048.66 59.048 1048.66 65.144C1048.66 71.288 1046.53 74.336 1043.22 74.336ZM1043.22 72.56C1045.21 72.56 1046.55 70.328 1046.55 65.144C1046.55 60.032 1045.21 57.848 1043.22 57.848C1041.2 57.848 1039.83 60.032 1039.83 65.144C1039.83 70.328 1041.2 72.56 1043.22 72.56Z" fill="#1A1A1A"/>
<path d="M1009.62 99L1010.05 95.352H1008.62V94.328H1010.18L1010.51 91.688H1008.99V90.664H1010.62L1011.04 87.384H1011.98L1011.57 90.664H1013.94L1014.37 87.384H1015.31L1014.9 90.664H1016.34V91.688H1014.78L1014.45 94.328H1015.98V95.352H1014.32L1013.89 99H1012.94L1013.36 95.352H1011.01L1010.56 99H1009.62ZM1011.12 94.328H1013.5L1013.82 91.688H1011.44L1011.12 94.328ZM1021.96 99.224C1019.68 99.224 1018.3 97.096 1018.3 93.272C1018.3 89.448 1019.68 87.4 1021.96 87.4C1024.22 87.4 1025.6 89.448 1025.6 93.272C1025.6 97.096 1024.22 99.224 1021.96 99.224ZM1021.96 98.04C1023.29 98.04 1024.19 96.616 1024.19 93.272C1024.19 89.912 1023.29 88.568 1021.96 88.568C1020.62 88.568 1019.71 89.912 1019.71 93.272C1019.71 96.616 1020.62 98.04 1021.96 98.04ZM1031.48 99.224C1029.19 99.224 1027.81 97.096 1027.81 93.272C1027.81 89.448 1029.19 87.4 1031.48 87.4C1033.73 87.4 1035.11 89.448 1035.11 93.272C1035.11 97.096 1033.73 99.224 1031.48 99.224ZM1031.48 98.04C1032.81 98.04 1033.7 96.616 1033.7 93.272C1033.7 89.912 1032.81 88.568 1031.48 88.568C1030.13 88.568 1029.22 89.912 1029.22 93.272C1029.22 96.616 1030.13 98.04 1031.48 98.04ZM1041.35 99.224C1039.09 99.224 1037.39 97.4 1037.39 93.736C1037.39 89.144 1039.47 87.4 1041.75 87.4C1042.96 87.4 1043.86 87.912 1044.48 88.584L1043.68 89.496C1043.22 88.952 1042.51 88.616 1041.79 88.616C1040.16 88.616 1038.79 89.896 1038.79 93.736C1038.79 96.552 1039.68 98.072 1041.33 98.072C1042.47 98.072 1043.33 97.064 1043.33 95.56C1043.33 94.072 1042.63 93.128 1041.2 93.128C1040.47 93.128 1039.54 93.576 1038.74 94.76L1038.69 93.592C1039.43 92.632 1040.48 92.04 1041.44 92.04C1043.41 92.04 1044.71 93.224 1044.71 95.56C1044.71 97.752 1043.15 99.224 1041.35 99.224ZM1047.66 99V87.272H1054.41V88.52H1049.15V92.504H1053.61V93.736H1049.15V99H1047.66ZM1059.99 99.224C1057.83 99.224 1056.25 97.912 1056.25 96.104C1056.25 94.6 1057.34 93.576 1058.41 93.016V92.952C1057.56 92.36 1056.81 91.512 1056.81 90.312C1056.81 88.552 1058.2 87.4 1060.04 87.4C1062.04 87.4 1063.26 88.648 1063.26 90.424C1063.26 91.624 1062.38 92.632 1061.69 93.16V93.24C1062.7 93.848 1063.67 94.648 1063.67 96.184C1063.67 97.896 1062.18 99.224 1059.99 99.224ZM1060.79 92.792C1061.58 92.088 1062.01 91.336 1062.01 90.488C1062.01 89.368 1061.27 88.472 1060.01 88.472C1058.94 88.472 1058.15 89.208 1058.15 90.312C1058.15 91.672 1059.42 92.248 1060.79 92.792ZM1060.02 98.12C1061.37 98.12 1062.26 97.304 1062.26 96.136C1062.26 94.648 1060.82 94.136 1059.18 93.464C1058.23 94.072 1057.56 94.904 1057.56 95.96C1057.56 97.208 1058.62 98.12 1060.02 98.12ZM1069.25 99.224C1067.41 99.224 1066.28 98.456 1065.51 97.608L1066.24 96.648C1066.93 97.368 1067.81 98.008 1069.16 98.008C1070.55 98.008 1071.54 97.192 1071.54 95.912C1071.54 94.552 1070.6 93.64 1067.89 93.64V92.52C1070.31 92.52 1071.12 91.576 1071.12 90.376C1071.12 89.272 1070.37 88.568 1069.16 88.568C1068.21 88.568 1067.38 89.064 1066.72 89.736L1065.94 88.808C1066.82 87.992 1067.86 87.4 1069.2 87.4C1071.17 87.4 1072.61 88.44 1072.61 90.28C1072.61 91.656 1071.78 92.536 1070.53 93V93.064C1071.91 93.384 1073.03 94.408 1073.03 95.96C1073.03 97.992 1071.35 99.224 1069.25 99.224Z" fill="#1A1A1A"/>
<rect x="1008" y="112" width="108" height="160.112" rx="4" fill="#006F83"/>
<path d="M1122.11 74V72.176H1126.02V59.072H1122.88V57.656C1124.46 57.392 1125.59 56.984 1126.53 56.408H1128.21V72.176H1131.76V74H1122.11ZM1140.94 74.336C1137.58 74.336 1135.45 71.288 1135.45 65.144C1135.45 59.048 1137.58 56.096 1140.94 56.096C1144.26 56.096 1146.39 59.048 1146.39 65.144C1146.39 71.288 1144.26 74.336 1140.94 74.336ZM1140.94 72.56C1142.94 72.56 1144.28 70.328 1144.28 65.144C1144.28 60.032 1142.94 57.848 1140.94 57.848C1138.93 57.848 1137.56 60.032 1137.56 65.144C1137.56 70.328 1138.93 72.56 1140.94 72.56ZM1155.22 74.336C1151.86 74.336 1149.72 71.288 1149.72 65.144C1149.72 59.048 1151.86 56.096 1155.22 56.096C1158.53 56.096 1160.66 59.048 1160.66 65.144C1160.66 71.288 1158.53 74.336 1155.22 74.336ZM1155.22 72.56C1157.21 72.56 1158.55 70.328 1158.55 65.144C1158.55 60.032 1157.21 57.848 1155.22 57.848C1153.2 57.848 1151.83 60.032 1151.83 65.144C1151.83 70.328 1153.2 72.56 1155.22 72.56ZM1169.49 74.336C1166.13 74.336 1163.99 71.288 1163.99 65.144C1163.99 59.048 1166.13 56.096 1169.49 56.096C1172.8 56.096 1174.94 59.048 1174.94 65.144C1174.94 71.288 1172.8 74.336 1169.49 74.336ZM1169.49 72.56C1171.48 72.56 1172.83 70.328 1172.83 65.144C1172.83 60.032 1171.48 57.848 1169.49 57.848C1167.47 57.848 1166.11 60.032 1166.11 65.144C1166.11 70.328 1167.47 72.56 1169.49 72.56Z" fill="#1A1A1A"/>
<path d="M1121.62 99L1122.05 95.352H1120.62V94.328H1122.18L1122.51 91.688H1120.99V90.664H1122.62L1123.04 87.384H1123.98L1123.57 90.664H1125.94L1126.37 87.384H1127.31L1126.9 90.664H1128.34V91.688H1126.78L1126.45 94.328H1127.98V95.352H1126.32L1125.89 99H1124.94L1125.36 95.352H1123.01L1122.56 99H1121.62ZM1123.12 94.328H1125.5L1125.82 91.688H1123.44L1123.12 94.328ZM1133.96 99.224C1131.72 99.224 1130.3 97.192 1130.3 93.096C1130.3 89.032 1131.72 87.064 1133.96 87.064C1136.17 87.064 1137.6 89.032 1137.6 93.096C1137.6 97.192 1136.17 99.224 1133.96 99.224ZM1133.96 98.04C1135.29 98.04 1136.19 96.552 1136.19 93.096C1136.19 89.688 1135.29 88.232 1133.96 88.232C1132.62 88.232 1131.71 89.688 1131.71 93.096C1131.71 96.552 1132.62 98.04 1133.96 98.04ZM1143.48 99.224C1141.24 99.224 1139.81 97.192 1139.81 93.096C1139.81 89.032 1141.24 87.064 1143.48 87.064C1145.69 87.064 1147.11 89.032 1147.11 93.096C1147.11 97.192 1145.69 99.224 1143.48 99.224ZM1143.48 98.04C1144.81 98.04 1145.7 96.552 1145.7 93.096C1145.7 89.688 1144.81 88.232 1143.48 88.232C1142.13 88.232 1141.22 89.688 1141.22 93.096C1141.22 96.552 1142.13 98.04 1143.48 98.04ZM1153.36 99.224C1151.11 99.224 1149.43 97.288 1149.43 93.416C1149.43 88.824 1151.49 87.064 1153.76 87.064C1154.98 87.064 1155.87 87.576 1156.51 88.264L1155.7 89.16C1155.25 88.616 1154.53 88.28 1153.83 88.28C1152.18 88.28 1150.8 89.576 1150.8 93.416C1150.8 96.424 1151.71 98.072 1153.36 98.072C1154.48 98.072 1155.35 97 1155.35 95.416C1155.35 93.816 1154.64 92.808 1153.23 92.808C1152.48 92.808 1151.54 93.256 1150.75 94.424L1150.71 93.256C1151.43 92.312 1152.51 91.736 1153.46 91.736C1155.44 91.736 1156.72 92.952 1156.72 95.416C1156.72 97.688 1155.17 99.224 1153.36 99.224ZM1159.47 99V97.784H1162.08V89.048H1159.98V88.104C1161.04 87.928 1161.79 87.656 1162.41 87.272H1163.53V97.784H1165.9V99H1159.47ZM1170.73 99C1170.94 94.568 1171.74 91.72 1174.04 88.52H1168.36V87.272H1175.69V88.152C1172.94 91.688 1172.44 94.424 1172.25 99H1170.73ZM1181.3 99.224C1179.46 99.224 1178.32 98.456 1177.55 97.608L1178.29 96.648C1178.98 97.368 1179.86 98.008 1181.2 98.008C1182.59 98.008 1183.59 97.16 1183.59 95.816C1183.59 94.408 1182.64 93.48 1179.94 93.48V92.344C1182.35 92.344 1183.17 91.384 1183.17 90.104C1183.17 88.984 1182.42 88.248 1181.2 88.248C1180.26 88.248 1179.43 88.728 1178.77 89.4L1177.99 88.456C1178.87 87.656 1179.91 87.064 1181.25 87.064C1183.22 87.064 1184.66 88.136 1184.66 90.008C1184.66 91.432 1183.83 92.376 1182.58 92.824V92.888C1183.95 93.224 1185.07 94.264 1185.07 95.88C1185.07 97.96 1183.39 99.224 1181.3 99.224Z" fill="#1A1A1A"/>
<rect x="1120" y="112" width="108" height="160.112" rx="4" fill="#006173"/>
<path d="M1234.11 74V72.176H1238.02V59.072H1234.88V57.656C1236.46 57.392 1237.59 56.984 1238.53 56.408H1240.21V72.176H1243.76V74H1234.11ZM1248.38 74V72.176H1252.3V59.072H1249.15V57.656C1250.74 57.392 1251.86 56.984 1252.8 56.408H1254.48V72.176H1258.03V74H1248.38ZM1267.22 74.336C1263.86 74.336 1261.72 71.288 1261.72 65.144C1261.72 59.048 1263.86 56.096 1267.22 56.096C1270.53 56.096 1272.66 59.048 1272.66 65.144C1272.66 71.288 1270.53 74.336 1267.22 74.336ZM1267.22 72.56C1269.21 72.56 1270.55 70.328 1270.55 65.144C1270.55 60.032 1269.21 57.848 1267.22 57.848C1265.2 57.848 1263.83 60.032 1263.83 65.144C1263.83 70.328 1265.2 72.56 1267.22 72.56ZM1281.49 74.336C1278.13 74.336 1275.99 71.288 1275.99 65.144C1275.99 59.048 1278.13 56.096 1281.49 56.096C1284.8 56.096 1286.94 59.048 1286.94 65.144C1286.94 71.288 1284.8 74.336 1281.49 74.336ZM1281.49 72.56C1283.48 72.56 1284.83 70.328 1284.83 65.144C1284.83 60.032 1283.48 57.848 1281.49 57.848C1279.47 57.848 1278.11 60.032 1278.11 65.144C1278.11 70.328 1279.47 72.56 1281.49 72.56Z" fill="#1A1A1A"/>
<path d="M1233.62 99L1234.05 95.352H1232.62V94.328H1234.18L1234.51 91.688H1232.99V90.664H1234.62L1235.04 87.384H1235.98L1235.57 90.664H1237.94L1238.37 87.384H1239.31L1238.9 90.664H1240.34V91.688H1238.78L1238.45 94.328H1239.98V95.352H1238.32L1237.89 99H1236.94L1237.36 95.352H1235.01L1234.56 99H1233.62ZM1235.12 94.328H1237.5L1237.82 91.688H1235.44L1235.12 94.328ZM1245.96 99.224C1243.68 99.224 1242.3 97.096 1242.3 93.272C1242.3 89.448 1243.68 87.4 1245.96 87.4C1248.22 87.4 1249.6 89.448 1249.6 93.272C1249.6 97.096 1248.22 99.224 1245.96 99.224ZM1245.96 98.04C1247.29 98.04 1248.19 96.616 1248.19 93.272C1248.19 89.912 1247.29 88.568 1245.96 88.568C1244.62 88.568 1243.71 89.912 1243.71 93.272C1243.71 96.616 1244.62 98.04 1245.96 98.04ZM1255.48 99.224C1253.19 99.224 1251.81 97.096 1251.81 93.272C1251.81 89.448 1253.19 87.4 1255.48 87.4C1257.73 87.4 1259.11 89.448 1259.11 93.272C1259.11 97.096 1257.73 99.224 1255.48 99.224ZM1255.48 98.04C1256.81 98.04 1257.7 96.616 1257.7 93.272C1257.7 89.912 1256.81 88.568 1255.48 88.568C1254.13 88.568 1253.22 89.912 1253.22 93.272C1253.22 96.616 1254.13 98.04 1255.48 98.04ZM1265.97 99V91.352C1265.97 90.76 1266.02 89.768 1266.07 89.176H1265.99C1265.7 89.704 1265.38 90.216 1265.06 90.776L1262.39 94.696H1268.91V95.848H1260.85V94.888L1265.73 87.608H1267.35V99H1265.97ZM1276.09 99.224C1273.16 99.224 1270.99 96.952 1270.99 93.144C1270.99 89.368 1273.21 87.064 1276.19 87.064C1277.61 87.064 1278.72 87.752 1279.4 88.504L1278.59 89.464C1277.98 88.808 1277.2 88.36 1276.2 88.36C1273.98 88.36 1272.51 90.184 1272.51 93.112C1272.51 96.072 1273.92 97.912 1276.16 97.912C1277.26 97.912 1278.12 97.432 1278.88 96.6L1279.68 97.528C1278.75 98.616 1277.61 99.224 1276.09 99.224ZM1285.08 99.224C1283.26 99.224 1282.14 98.456 1281.34 97.656L1282.07 96.696C1282.73 97.384 1283.59 98.008 1284.94 98.008C1286.33 98.008 1287.43 97 1287.43 95.4C1287.43 93.832 1286.47 92.888 1285.02 92.888C1284.23 92.888 1283.74 93.144 1283.06 93.592L1282.28 93.096L1282.65 87.608H1288.36V88.856H1283.93L1283.62 92.248C1284.15 91.96 1284.68 91.784 1285.38 91.784C1287.34 91.784 1288.92 92.888 1288.92 95.352C1288.92 97.832 1287.05 99.224 1285.08 99.224ZM1294.08 99.224C1292.85 99.224 1291.95 98.712 1291.33 98.024L1292.15 97.096C1292.61 97.672 1293.31 98.008 1294.02 98.008C1295.67 98.008 1297.04 96.712 1297.04 92.872C1297.04 90.056 1296.13 88.536 1294.48 88.536C1293.36 88.536 1292.5 89.528 1292.5 91.048C1292.5 92.536 1293.2 93.48 1294.61 93.48C1295.36 93.48 1296.29 93.032 1297.06 91.848L1297.14 93.016C1296.4 93.976 1295.33 94.568 1294.37 94.568C1292.39 94.568 1291.12 93.384 1291.12 91.048C1291.12 88.872 1292.66 87.4 1294.48 87.4C1296.74 87.4 1298.42 89.208 1298.42 92.872C1298.42 97.464 1296.34 99.224 1294.08 99.224Z" fill="#1A1A1A"/>
<rect x="1232" y="112" width="108" height="160.112" rx="4" fill="#004C59"/>
<path d="M1346.11 74V72.176H1350.02V59.072H1346.88V57.656C1348.46 57.392 1349.59 56.984 1350.53 56.408H1352.21V72.176H1355.76V74H1346.11ZM1359.33 74V72.728C1364.85 67.904 1367.37 64.376 1367.37 61.376C1367.37 59.36 1366.34 57.872 1364.15 57.872C1362.71 57.872 1361.46 58.76 1360.48 59.912L1359.21 58.688C1360.65 57.128 1362.18 56.096 1364.42 56.096C1367.56 56.096 1369.53 58.136 1369.53 61.28C1369.53 64.808 1366.77 68.384 1362.62 72.296C1363.55 72.2 1364.61 72.128 1365.5 72.128H1370.37V74H1359.33ZM1379.22 74.336C1375.86 74.336 1373.72 71.288 1373.72 65.144C1373.72 59.048 1375.86 56.096 1379.22 56.096C1382.53 56.096 1384.66 59.048 1384.66 65.144C1384.66 71.288 1382.53 74.336 1379.22 74.336ZM1379.22 72.56C1381.21 72.56 1382.55 70.328 1382.55 65.144C1382.55 60.032 1381.21 57.848 1379.22 57.848C1377.2 57.848 1375.83 60.032 1375.83 65.144C1375.83 70.328 1377.2 72.56 1379.22 72.56ZM1393.49 74.336C1390.13 74.336 1387.99 71.288 1387.99 65.144C1387.99 59.048 1390.13 56.096 1393.49 56.096C1396.8 56.096 1398.94 59.048 1398.94 65.144C1398.94 71.288 1396.8 74.336 1393.49 74.336ZM1393.49 72.56C1395.48 72.56 1396.83 70.328 1396.83 65.144C1396.83 60.032 1395.48 57.848 1393.49 57.848C1391.47 57.848 1390.11 60.032 1390.11 65.144C1390.11 70.328 1391.47 72.56 1393.49 72.56Z" fill="#1A1A1A"/>
<path d="M1345.62 99L1346.05 95.352H1344.62V94.328H1346.18L1346.51 91.688H1344.99V90.664H1346.62L1347.04 87.384H1347.98L1347.57 90.664H1349.94L1350.37 87.384H1351.31L1350.9 90.664H1352.34V91.688H1350.78L1350.45 94.328H1351.98V95.352H1350.32L1349.89 99H1348.94L1349.36 95.352H1347.01L1346.56 99H1345.62ZM1347.12 94.328H1349.5L1349.82 91.688H1347.44L1347.12 94.328ZM1357.96 99.224C1355.72 99.224 1354.3 97.192 1354.3 93.096C1354.3 89.032 1355.72 87.064 1357.96 87.064C1360.17 87.064 1361.6 89.032 1361.6 93.096C1361.6 97.192 1360.17 99.224 1357.96 99.224ZM1357.96 98.04C1359.29 98.04 1360.19 96.552 1360.19 93.096C1360.19 89.688 1359.29 88.232 1357.96 88.232C1356.62 88.232 1355.71 89.688 1355.71 93.096C1355.71 96.552 1356.62 98.04 1357.96 98.04ZM1367.48 99.224C1365.24 99.224 1363.81 97.192 1363.81 93.096C1363.81 89.032 1365.24 87.064 1367.48 87.064C1369.69 87.064 1371.11 89.032 1371.11 93.096C1371.11 97.192 1369.69 99.224 1367.48 99.224ZM1367.48 98.04C1368.81 98.04 1369.7 96.552 1369.7 93.096C1369.7 89.688 1368.81 88.232 1367.48 88.232C1366.13 88.232 1365.22 89.688 1365.22 93.096C1365.22 96.552 1366.13 98.04 1367.48 98.04ZM1376.75 99.224C1374.91 99.224 1373.78 98.456 1373.01 97.608L1373.75 96.648C1374.43 97.368 1375.31 98.008 1376.66 98.008C1378.05 98.008 1379.04 97.16 1379.04 95.816C1379.04 94.408 1378.1 93.48 1375.39 93.48V92.344C1377.81 92.344 1378.63 91.384 1378.63 90.104C1378.63 88.984 1377.87 88.248 1376.66 88.248C1375.71 88.248 1374.88 88.728 1374.23 89.4L1373.44 88.456C1374.32 87.656 1375.36 87.064 1376.71 87.064C1378.67 87.064 1380.11 88.136 1380.11 90.008C1380.11 91.432 1379.28 92.376 1378.03 92.824V92.888C1379.41 93.224 1380.53 94.264 1380.53 95.88C1380.53 97.96 1378.85 99.224 1376.75 99.224ZM1385.21 99C1385.42 94.568 1386.22 91.72 1388.52 88.52H1382.84V87.272H1390.17V88.152C1387.42 91.688 1386.92 94.424 1386.73 99H1385.21ZM1397 99V91.016C1397 90.424 1397.05 89.48 1397.1 88.872H1397.02C1396.73 89.448 1396.41 90.04 1396.09 90.616L1393.42 94.616H1399.94V95.768H1391.88V94.808L1396.76 87.272H1398.38V99H1397ZM1402.5 99V97.784H1405.11V89.048H1403.01V88.104C1404.07 87.928 1404.82 87.656 1405.44 87.272H1406.56V97.784H1408.93V99H1402.5Z" fill="#1A1A1A"/>
<rect x="1344" y="112" width="108" height="160.112" rx="4" fill="#003741"/>
<rect x="686" y="282.611" width="64" height="23" rx="11.5" fill="white"/>
<rect x="686" y="282.611" width="64" height="23" rx="11.5" stroke="#949494"/>
<path d="M701.708 301.335C699.868 301.335 698.732 300.567 697.964 299.719L698.7 298.759C699.388 299.479 700.268 300.119 701.612 300.119C703.004 300.119 703.996 299.271 703.996 297.927C703.996 296.519 703.052 295.591 700.348 295.591V294.455C702.764 294.455 703.58 293.495 703.58 292.215C703.58 291.095 702.828 290.359 701.612 290.359C700.668 290.359 699.836 290.839 699.18 291.511L698.396 290.567C699.276 289.767 700.316 289.175 701.66 289.175C703.628 289.175 705.068 290.247 705.068 292.119C705.068 293.543 704.236 294.487 702.988 294.935V294.999C704.364 295.335 705.484 296.375 705.484 297.991C705.484 300.071 703.804 301.335 701.708 301.335ZM709.223 294.871C708.647 294.871 708.183 294.423 708.183 293.767C708.183 293.095 708.647 292.647 709.223 292.647C709.815 292.647 710.295 293.095 710.295 293.767C710.295 294.423 709.815 294.871 709.223 294.871ZM709.223 301.335C708.647 301.335 708.183 300.871 708.183 300.215C708.183 299.543 708.647 299.095 709.223 299.095C709.815 299.095 710.295 299.543 710.295 300.215C710.295 300.871 709.815 301.335 709.223 301.335ZM713.516 301.111V299.895H716.124V291.159H714.028V290.215C715.084 290.039 715.836 289.767 716.46 289.383H717.58V299.895H719.948V301.111H713.516ZM734.599 294.487C733.767 293.879 732.727 292.855 731.991 291.879L732.951 291.303C734.039 292.711 735.623 294.135 737.063 295.031C735.623 295.943 734.039 297.367 732.951 298.775L731.991 298.199C732.727 297.223 733.767 296.199 734.599 295.591H722.263V294.487H734.599Z" fill="black"/>
<rect x="908" y="282.611" width="78" height="23" rx="11.5" fill="white"/>
<rect x="908" y="282.611" width="78" height="23" rx="11.5" stroke="#949494"/>
<path d="M924.924 301.111V293.127C924.924 292.535 924.972 291.591 925.02 290.983H924.94C924.652 291.559 924.332 292.151 924.012 292.727L921.34 296.727H927.868V297.879H919.804V296.919L924.684 289.383H926.3V301.111H924.924ZM931.223 301.335C930.647 301.335 930.183 300.871 930.183 300.215C930.183 299.543 930.647 299.095 931.223 299.095C931.815 299.095 932.295 299.543 932.295 300.215C932.295 300.871 931.815 301.335 931.223 301.335ZM938.284 301.335C936.46 301.335 935.34 300.567 934.54 299.767L935.276 298.807C935.932 299.495 936.796 300.119 938.14 300.119C939.532 300.119 940.636 299.047 940.636 297.351C940.636 295.671 939.676 294.663 938.22 294.663C937.436 294.663 936.94 294.919 936.268 295.367L935.484 294.871L935.852 289.383H941.564V290.631H937.132L936.828 294.023C937.356 293.735 937.884 293.559 938.588 293.559C940.54 293.559 942.124 294.711 942.124 297.303C942.124 299.863 940.252 301.335 938.284 301.335ZM945.831 294.871C945.255 294.871 944.791 294.423 944.791 293.767C944.791 293.095 945.255 292.647 945.831 292.647C946.423 292.647 946.903 293.095 946.903 293.767C946.903 294.423 946.423 294.871 945.831 294.871ZM945.831 301.335C945.255 301.335 944.791 300.871 944.791 300.215C944.791 299.543 945.255 299.095 945.831 299.095C946.423 299.095 946.903 299.543 946.903 300.215C946.903 300.871 946.423 301.335 945.831 301.335ZM950.124 301.111V299.895H952.732V291.159H950.636V290.215C951.692 290.039 952.444 289.767 953.068 289.383H954.188V299.895H956.556V301.111H950.124ZM971.207 294.487C970.375 293.879 969.335 292.855 968.599 291.879L969.559 291.303C970.647 292.711 972.231 294.135 973.671 295.031C972.231 295.943 970.647 297.367 969.559 298.775L968.599 298.199C969.335 297.223 970.375 296.199 971.207 295.591H958.871V294.487H971.207Z" fill="black"/>
<rect x="1029.5" y="314.037" width="65" height="24" rx="12" fill="black"/>
<path d="M1044.51 327.517C1045.34 328.125 1046.38 329.149 1047.12 330.125L1046.16 330.701C1045.07 329.293 1043.48 327.869 1042.06 326.957C1043.48 326.061 1045.07 324.637 1046.16 323.229L1047.12 323.805C1046.38 324.781 1045.34 325.805 1044.51 326.413H1056.86V327.517H1044.51ZM1062.35 333.261C1060.51 333.261 1059.37 332.493 1058.6 331.645L1059.34 330.685C1060.03 331.405 1060.91 332.045 1062.25 332.045C1063.64 332.045 1064.64 331.197 1064.64 329.853C1064.64 328.445 1063.69 327.517 1060.99 327.517V326.381C1063.4 326.381 1064.22 325.421 1064.22 324.141C1064.22 323.021 1063.47 322.285 1062.25 322.285C1061.31 322.285 1060.48 322.765 1059.82 323.437L1059.04 322.493C1059.92 321.693 1060.96 321.101 1062.3 321.101C1064.27 321.101 1065.71 322.173 1065.71 324.045C1065.71 325.469 1064.88 326.413 1063.63 326.861V326.925C1065 327.261 1066.12 328.301 1066.12 329.917C1066.12 331.997 1064.44 333.261 1062.35 333.261ZM1069.86 326.797C1069.29 326.797 1068.82 326.349 1068.82 325.693C1068.82 325.021 1069.29 324.573 1069.86 324.573C1070.46 324.573 1070.94 325.021 1070.94 325.693C1070.94 326.349 1070.46 326.797 1069.86 326.797ZM1069.86 333.261C1069.29 333.261 1068.82 332.797 1068.82 332.141C1068.82 331.469 1069.29 331.021 1069.86 331.021C1070.46 331.021 1070.94 331.469 1070.94 332.141C1070.94 332.797 1070.46 333.261 1069.86 333.261ZM1074.16 333.037V331.821H1076.76V323.085H1074.67V322.141C1075.72 321.965 1076.48 321.693 1077.1 321.309H1078.22V331.821H1080.59V333.037H1074.16Z" fill="white"/>
<rect x="907.5" y="314.037" width="79" height="24" rx="12" fill="black"/>
<path d="M922.508 327.517C923.34 328.125 924.38 329.149 925.116 330.125L924.156 330.701C923.068 329.293 921.484 327.869 920.06 326.957C921.484 326.061 923.068 324.637 924.156 323.229L925.116 323.805C924.38 324.781 923.34 325.805 922.508 326.413H934.86V327.517H922.508ZM941.564 333.037V325.053C941.564 324.461 941.612 323.517 941.66 322.909H941.58C941.292 323.485 940.972 324.077 940.652 324.653L937.98 328.653H944.508V329.805H936.444V328.845L941.324 321.309H942.94V333.037H941.564ZM947.863 333.261C947.287 333.261 946.823 332.797 946.823 332.141C946.823 331.469 947.287 331.021 947.863 331.021C948.455 331.021 948.935 331.469 948.935 332.141C948.935 332.797 948.455 333.261 947.863 333.261ZM954.924 333.261C953.1 333.261 951.98 332.493 951.18 331.693L951.916 330.733C952.572 331.421 953.436 332.045 954.78 332.045C956.172 332.045 957.276 330.973 957.276 329.277C957.276 327.597 956.316 326.589 954.86 326.589C954.076 326.589 953.58 326.845 952.908 327.293L952.124 326.797L952.492 321.309H958.204V322.557H953.772L953.468 325.949C953.996 325.661 954.524 325.485 955.228 325.485C957.18 325.485 958.764 326.637 958.764 329.229C958.764 331.789 956.892 333.261 954.924 333.261ZM962.471 326.797C961.895 326.797 961.431 326.349 961.431 325.693C961.431 325.021 961.895 324.573 962.471 324.573C963.063 324.573 963.543 325.021 963.543 325.693C963.543 326.349 963.063 326.797 962.471 326.797ZM962.471 333.261C961.895 333.261 961.431 332.797 961.431 332.141C961.431 331.469 961.895 331.021 962.471 331.021C963.063 331.021 963.543 331.469 963.543 332.141C963.543 332.797 963.063 333.261 962.471 333.261ZM966.764 333.037V331.821H969.372V323.085H967.276V322.141C968.332 321.965 969.084 321.693 969.708 321.309H970.828V331.821H973.196V333.037H966.764Z" fill="white"/>
<path d="M7.86 16.28C4.12 16.28 1.08 13.6 1.08 8.66C1.08 3.78 4.22 0.92 7.96 0.92C9.84 0.92 11.34 1.82 12.3 2.82L10.76 4.7C10 3.98 9.14 3.46 8.02 3.46C5.78 3.46 4.1 5.38 4.1 8.56C4.1 11.78 5.62 13.72 7.96 13.72C9.24 13.72 10.22 13.12 11.02 12.26L12.58 14.1C11.36 15.52 9.78 16.28 7.86 16.28ZM15.3334 20.5C14.6734 20.5 14.2334 20.42 13.7934 20.28L14.3334 18.02C14.5334 18.08 14.8534 18.16 15.1134 18.16C16.2534 18.16 16.8934 17.44 17.2134 16.46L17.4134 15.8L13.0534 4.8H16.0134L17.7934 10C18.1334 11 18.4134 12.08 18.7334 13.16H18.8334C19.0934 12.12 19.3734 11.04 19.6334 10L21.1734 4.8H23.9934L20.0134 16.34C19.0334 18.98 17.8334 20.5 15.3334 20.5ZM28.1291 16.28C26.1291 16.28 24.8091 14.86 24.8091 12.96C24.8091 10.56 26.7491 9.3 31.2691 8.82C31.2091 7.72 30.7291 6.88 29.3491 6.88C28.3091 6.88 27.3091 7.34 26.2691 7.94L25.2091 6C26.5291 5.18 28.1291 4.52 29.8891 4.52C32.7291 4.52 34.1891 6.22 34.1891 9.46V16H31.7891L31.5891 14.8H31.5091C30.5291 15.64 29.4091 16.28 28.1291 16.28ZM29.0891 13.98C29.9291 13.98 30.5491 13.58 31.2691 12.88V10.62C28.5291 10.96 27.6091 11.72 27.6091 12.72C27.6091 13.6 28.2291 13.98 29.0891 13.98ZM37.1855 16V4.8H39.5855L39.8055 6.28H39.8655C40.8455 5.32 41.9855 4.52 43.5055 4.52C45.9255 4.52 46.9655 6.2 46.9655 9.02V16H44.0255V9.38C44.0255 7.64 43.5455 7.04 42.4455 7.04C41.5255 7.04 40.9455 7.48 40.1255 8.3V16H37.1855Z" fill="#1A1A1A"/>
</svg>
