<svg width="1452" height="340" viewBox="0 0 1452 340" fill="none" xmlns="http://www.w3.org/2000/svg">
<path d="M6.264 76.336C3.528 76.336 1.848 75.184 0.648 73.984L1.752 72.544C2.736 73.576 4.032 74.512 6.048 74.512C8.136 74.512 9.792 72.904 9.792 70.36C9.792 67.84 8.352 66.328 6.168 66.328C4.992 66.328 4.248 66.712 3.24 67.384L2.064 66.64L2.616 58.408H11.184V60.28H4.536L4.08 65.368C4.872 64.936 5.664 64.672 6.72 64.672C9.648 64.672 12.024 66.4 12.024 70.288C12.024 74.128 9.216 76.336 6.264 76.336ZM20.9445 76.336C17.5845 76.336 15.4485 73.288 15.4485 67.144C15.4485 61.048 17.5845 58.096 20.9445 58.096C24.2565 58.096 26.3925 61.048 26.3925 67.144C26.3925 73.288 24.2565 76.336 20.9445 76.336ZM20.9445 74.56C22.9365 74.56 24.2805 72.328 24.2805 67.144C24.2805 62.032 22.9365 59.848 20.9445 59.848C18.9285 59.848 17.5605 62.032 17.5605 67.144C17.5605 72.328 18.9285 74.56 20.9445 74.56Z" fill="#1A1A1A"/>
<path d="M1.616 101L2.048 97.352H0.624V96.328H2.176L2.512 93.688H0.992V92.664H2.624L3.04 89.384H3.984L3.568 92.664H5.936L6.368 89.384H7.312L6.896 92.664H8.336V93.688H6.784L6.448 96.328H7.984V97.352H6.32L5.888 101H4.944L5.36 97.352H3.008L2.56 101H1.616ZM3.12 96.328H5.504L5.824 93.688H3.44L3.12 96.328ZM11.115 101V89.272H17.867V90.52H12.603V94.2H17.035V95.464H12.603V99.752H18.043V101H11.115ZM24.3769 101.224C22.1209 101.224 20.4249 99.4 20.4249 95.736C20.4249 91.144 22.5049 89.4 24.7769 89.4C25.9929 89.4 26.8889 89.912 27.5129 90.584L26.7129 91.496C26.2489 90.952 25.5449 90.616 24.8249 90.616C23.1929 90.616 21.8169 91.896 21.8169 95.736C21.8169 98.552 22.7129 100.072 24.3609 100.072C25.4969 100.072 26.3609 99.064 26.3609 97.56C26.3609 96.072 25.6569 95.128 24.2329 95.128C23.4969 95.128 22.5689 95.576 21.7689 96.76L21.7209 95.592C22.4569 94.632 23.5129 94.04 24.4729 94.04C26.4409 94.04 27.7369 95.224 27.7369 97.56C27.7369 99.752 26.1849 101.224 24.3769 101.224ZM30.6919 101V89.272H37.4439V90.52H32.1799V94.504H36.6439V95.736H32.1799V101H30.6919ZM42.736 101.224C40.912 101.224 39.792 100.456 38.992 99.656L39.728 98.696C40.384 99.384 41.248 100.008 42.592 100.008C43.984 100.008 45.088 99 45.088 97.4C45.088 95.832 44.128 94.888 42.672 94.888C41.888 94.888 41.392 95.144 40.72 95.592L39.936 95.096L40.304 89.608H46.016V90.856H41.584L41.28 94.248C41.808 93.96 42.336 93.784 43.04 93.784C44.992 93.784 46.576 94.888 46.576 97.352C46.576 99.832 44.704 101.224 42.736 101.224ZM49.675 101V89.272H56.427V90.52H51.163V94.2H55.595V95.464H51.163V99.752H56.603V101H49.675ZM64.1689 101.224C61.2409 101.224 59.0649 98.952 59.0649 95.144C59.0649 91.368 61.2889 89.064 64.2649 89.064C65.6889 89.064 66.7929 89.752 67.4809 90.504L66.6649 91.464C66.0569 90.808 65.2729 90.36 64.2809 90.36C62.0569 90.36 60.5849 92.184 60.5849 95.112C60.5849 98.072 61.9929 99.912 64.2329 99.912C65.3369 99.912 66.2009 99.432 66.9529 98.6L67.7529 99.528C66.8249 100.616 65.6889 101.224 64.1689 101.224Z" fill="#1A1A1A"/>
<rect y="114" width="108" height="160.112" rx="4" fill="#E6F5EC"/>
<path d="M114.112 76V74.176H118.024V61.072H114.88V59.656C116.464 59.392 117.592 58.984 118.528 58.408H120.208V74.176H123.76V76H114.112ZM132.945 76.336C129.585 76.336 127.449 73.288 127.449 67.144C127.449 61.048 129.585 58.096 132.945 58.096C136.257 58.096 138.392 61.048 138.392 67.144C138.392 73.288 136.257 76.336 132.945 76.336ZM132.945 74.56C134.937 74.56 136.281 72.328 136.281 67.144C136.281 62.032 134.937 59.848 132.945 59.848C130.929 59.848 129.561 62.032 129.561 67.144C129.561 72.328 130.929 74.56 132.945 74.56ZM147.217 76.336C143.857 76.336 141.721 73.288 141.721 67.144C141.721 61.048 143.857 58.096 147.217 58.096C150.529 58.096 152.665 61.048 152.665 67.144C152.665 73.288 150.529 76.336 147.217 76.336ZM147.217 74.56C149.209 74.56 150.553 72.328 150.553 67.144C150.553 62.032 149.209 59.848 147.217 59.848C145.201 59.848 143.833 62.032 143.833 67.144C143.833 72.328 145.201 74.56 147.217 74.56Z" fill="#1A1A1A"/>
<path d="M113.616 101L114.048 97.352H112.624V96.328H114.176L114.512 93.688H112.992V92.664H114.624L115.04 89.384H115.984L115.568 92.664H117.936L118.368 89.384H119.312L118.896 92.664H120.336V93.688H118.784L118.448 96.328H119.984V97.352H118.32L117.888 101H116.944L117.36 97.352H115.008L114.56 101H113.616ZM115.12 96.328H117.504L117.824 93.688H115.44L115.12 96.328ZM127.547 101.224C124.619 101.224 122.443 98.952 122.443 95.144C122.443 91.368 124.667 89.064 127.643 89.064C129.067 89.064 130.171 89.752 130.859 90.504L130.043 91.464C129.435 90.808 128.651 90.36 127.659 90.36C125.435 90.36 123.963 92.184 123.963 95.112C123.963 98.072 125.371 99.912 127.611 99.912C128.715 99.912 129.579 99.432 130.331 98.6L131.131 99.528C130.203 100.616 129.067 101.224 127.547 101.224ZM133.062 101V100.152C136.502 96.728 138.422 94.664 138.422 92.792C138.422 91.496 137.734 90.568 136.278 90.568C135.318 90.568 134.486 91.176 133.83 91.944L132.982 91.112C133.942 90.072 134.966 89.4 136.454 89.4C138.55 89.4 139.862 90.712 139.862 92.744C139.862 94.888 137.894 97.016 135.19 99.864C135.798 99.8 136.518 99.752 137.11 99.752H140.422V101H133.062ZM143.473 101V89.272H150.225V90.52H144.961V94.2H149.393V95.464H144.961V99.752H150.401V101H143.473ZM156.111 101.224C154.287 101.224 153.167 100.456 152.367 99.656L153.103 98.696C153.759 99.384 154.623 100.008 155.967 100.008C157.359 100.008 158.463 99 158.463 97.4C158.463 95.832 157.503 94.888 156.047 94.888C155.263 94.888 154.767 95.144 154.095 95.592L153.311 95.096L153.679 89.608H159.391V90.856H154.959L154.655 94.248C155.183 93.96 155.711 93.784 156.415 93.784C158.367 93.784 159.951 94.888 159.951 97.352C159.951 99.832 158.079 101.224 156.111 101.224ZM163.05 101V89.272H165.978C169.594 89.272 171.514 91.368 171.514 95.096C171.514 98.824 169.594 101 166.058 101H163.05ZM164.538 99.784H165.866C168.618 99.784 169.994 98.072 169.994 95.096C169.994 92.12 168.618 90.488 165.866 90.488H164.538V99.784ZM174.514 101V99.784H177.122V91.384H175.026V90.44C176.082 90.248 176.834 89.976 177.458 89.608H178.578V99.784H180.946V101H174.514Z" fill="#1A1A1A"/>
<rect x="112" y="114" width="108" height="160.112" rx="4" fill="#C2E5D1"/>
<path d="M225.056 76V74.728C230.576 69.904 233.096 66.376 233.096 63.376C233.096 61.36 232.064 59.872 229.88 59.872C228.44 59.872 227.192 60.76 226.208 61.912L224.936 60.688C226.376 59.128 227.912 58.096 230.144 58.096C233.288 58.096 235.256 60.136 235.256 63.28C235.256 66.808 232.496 70.384 228.344 74.296C229.28 74.2 230.336 74.128 231.224 74.128H236.096V76H225.056ZM244.945 76.336C241.585 76.336 239.449 73.288 239.449 67.144C239.449 61.048 241.585 58.096 244.945 58.096C248.257 58.096 250.392 61.048 250.392 67.144C250.392 73.288 248.257 76.336 244.945 76.336ZM244.945 74.56C246.937 74.56 248.281 72.328 248.281 67.144C248.281 62.032 246.937 59.848 244.945 59.848C242.929 59.848 241.561 62.032 241.561 67.144C241.561 72.328 242.929 74.56 244.945 74.56ZM259.217 76.336C255.857 76.336 253.721 73.288 253.721 67.144C253.721 61.048 255.857 58.096 259.217 58.096C262.529 58.096 264.665 61.048 264.665 67.144C264.665 73.288 262.529 76.336 259.217 76.336ZM259.217 74.56C261.209 74.56 262.553 72.328 262.553 67.144C262.553 62.032 261.209 59.848 259.217 59.848C257.201 59.848 255.833 62.032 255.833 67.144C255.833 72.328 257.201 74.56 259.217 74.56Z" fill="#1A1A1A"/>
<path d="M225.616 101L226.048 97.352H224.624V96.328H226.176L226.512 93.688H224.992V92.664H226.624L227.04 89.384H227.984L227.568 92.664H229.936L230.368 89.384H231.312L230.896 92.664H232.336V93.688H230.784L230.448 96.328H231.984V97.352H230.32L229.888 101H228.944L229.36 97.352H227.008L226.56 101H225.616ZM227.12 96.328H229.504L229.824 93.688H227.44L227.12 96.328ZM237.179 101.224C235.947 101.224 235.051 100.712 234.427 100.024L235.243 99.096C235.707 99.672 236.411 100.008 237.115 100.008C238.763 100.008 240.139 98.712 240.139 94.872C240.139 92.056 239.227 90.536 237.579 90.536C236.459 90.536 235.595 91.528 235.595 93.048C235.595 94.536 236.299 95.48 237.707 95.48C238.459 95.48 239.387 95.032 240.155 93.848L240.235 95.016C239.499 95.976 238.427 96.568 237.467 96.568C235.483 96.568 234.219 95.384 234.219 93.048C234.219 90.872 235.755 89.4 237.579 89.4C239.835 89.4 241.515 91.208 241.515 94.872C241.515 99.464 239.435 101.224 237.179 101.224ZM244.63 101V89.272H248.102C250.486 89.272 252.134 90.088 252.134 92.152C252.134 93.304 251.526 94.328 250.422 94.696V94.76C251.83 95.032 252.806 95.976 252.806 97.576C252.806 99.864 250.982 101 248.374 101H244.63ZM246.118 94.264H247.846C249.862 94.264 250.678 93.528 250.678 92.328C250.678 90.952 249.75 90.44 247.926 90.44H246.118V94.264ZM246.118 99.832H248.166C250.166 99.832 251.366 99.112 251.366 97.528C251.366 96.072 250.214 95.4 248.166 95.4H246.118V99.832ZM255.786 101V89.272H258.714C262.33 89.272 264.25 91.368 264.25 95.096C264.25 98.824 262.33 101 258.794 101H255.786ZM257.274 99.784H258.602C261.354 99.784 262.73 98.072 262.73 95.096C262.73 92.12 261.354 90.488 258.602 90.488H257.274V99.784ZM271.265 101V93.352C271.265 92.76 271.313 91.768 271.361 91.176H271.281C270.993 91.704 270.673 92.216 270.353 92.776L267.681 96.696H274.209V97.848H266.145V96.888L271.025 89.608H272.641V101H271.265ZM276.956 101V89.272H280.428C282.812 89.272 284.46 90.088 284.46 92.152C284.46 93.304 283.852 94.328 282.748 94.696V94.76C284.156 95.032 285.132 95.976 285.132 97.576C285.132 99.864 283.308 101 280.7 101H276.956ZM278.444 94.264H280.172C282.188 94.264 283.004 93.528 283.004 92.328C283.004 90.952 282.076 90.44 280.252 90.44H278.444V94.264ZM278.444 99.832H280.492C282.492 99.832 283.692 99.112 283.692 97.528C283.692 96.072 282.54 95.4 280.492 95.4H278.444V99.832ZM290.688 101.224C288.864 101.224 287.744 100.456 286.944 99.656L287.68 98.696C288.336 99.384 289.2 100.008 290.544 100.008C291.936 100.008 293.04 99 293.04 97.4C293.04 95.832 292.08 94.888 290.624 94.888C289.84 94.888 289.344 95.144 288.672 95.592L287.888 95.096L288.256 89.608H293.968V90.856H289.536L289.232 94.248C289.76 93.96 290.288 93.784 290.992 93.784C292.944 93.784 294.528 94.888 294.528 97.352C294.528 99.832 292.656 101.224 290.688 101.224Z" fill="#1A1A1A"/>
<rect x="224" y="114" width="108" height="160.112" rx="4" fill="#9BD4B5"/>
<path d="M342.312 76.336C339.552 76.336 337.848 75.184 336.696 73.912L337.8 72.472C338.832 73.552 340.152 74.512 342.168 74.512C344.256 74.512 345.744 73.24 345.744 71.224C345.744 69.112 344.328 67.72 340.272 67.72V66.016C343.896 66.016 345.12 64.576 345.12 62.656C345.12 60.976 343.992 59.872 342.168 59.872C340.752 59.872 339.504 60.592 338.52 61.6L337.344 60.184C338.664 58.984 340.224 58.096 342.24 58.096C345.192 58.096 347.352 59.704 347.352 62.512C347.352 64.648 346.104 66.064 344.232 66.736V66.832C346.296 67.336 347.976 68.896 347.976 71.32C347.976 74.44 345.456 76.336 342.312 76.336ZM356.945 76.336C353.585 76.336 351.449 73.288 351.449 67.144C351.449 61.048 353.585 58.096 356.945 58.096C360.257 58.096 362.392 61.048 362.392 67.144C362.392 73.288 360.257 76.336 356.945 76.336ZM356.945 74.56C358.937 74.56 360.281 72.328 360.281 67.144C360.281 62.032 358.937 59.848 356.945 59.848C354.929 59.848 353.561 62.032 353.561 67.144C353.561 72.328 354.929 74.56 356.945 74.56ZM371.217 76.336C367.857 76.336 365.721 73.288 365.721 67.144C365.721 61.048 367.857 58.096 371.217 58.096C374.529 58.096 376.665 61.048 376.665 67.144C376.665 73.288 374.529 76.336 371.217 76.336ZM371.217 74.56C373.209 74.56 374.553 72.328 374.553 67.144C374.553 62.032 373.209 59.848 371.217 59.848C369.201 59.848 367.833 62.032 367.833 67.144C367.833 72.328 369.201 74.56 371.217 74.56Z" fill="#1A1A1A"/>
<path d="M337.616 101L338.048 97.352H336.624V96.328H338.176L338.512 93.688H336.992V92.664H338.624L339.04 89.384H339.984L339.568 92.664H341.936L342.368 89.384H343.312L342.896 92.664H344.336V93.688H342.784L342.448 96.328H343.984V97.352H342.32L341.888 101H340.944L341.36 97.352H339.008L338.56 101H337.616ZM339.12 96.328H341.504L341.824 93.688H339.44L339.12 96.328ZM348.667 101C348.875 96.712 349.739 93.976 351.979 90.856H346.299V89.608H353.627V90.504C350.939 93.944 350.379 96.552 350.187 101H348.667ZM356.438 101V99.784H359.046V91.384H356.95V90.44C358.006 90.248 358.758 89.976 359.382 89.608H360.502V99.784H362.87V101H356.438ZM370.577 101.224C367.649 101.224 365.473 98.952 365.473 95.144C365.473 91.368 367.697 89.064 370.673 89.064C372.097 89.064 373.201 89.752 373.889 90.504L373.073 91.464C372.465 90.808 371.681 90.36 370.689 90.36C368.465 90.36 366.993 92.184 366.993 95.112C366.993 98.072 368.401 99.912 370.641 99.912C371.745 99.912 372.609 99.432 373.361 98.6L374.161 99.528C373.233 100.616 372.097 101.224 370.577 101.224ZM379.564 101.224C377.74 101.224 376.62 100.456 375.82 99.656L376.556 98.696C377.212 99.384 378.076 100.008 379.42 100.008C380.812 100.008 381.916 99 381.916 97.4C381.916 95.832 380.956 94.888 379.5 94.888C378.716 94.888 378.22 95.144 377.548 95.592L376.764 95.096L377.132 89.608H382.844V90.856H378.412L378.108 94.248C378.636 93.96 379.164 93.784 379.868 93.784C381.82 93.784 383.404 94.888 383.404 97.352C383.404 99.832 381.532 101.224 379.564 101.224ZM388.567 101.224C387.335 101.224 386.439 100.712 385.815 100.024L386.631 99.096C387.095 99.672 387.799 100.008 388.503 100.008C390.151 100.008 391.527 98.712 391.527 94.872C391.527 92.056 390.615 90.536 388.967 90.536C387.847 90.536 386.983 91.528 386.983 93.048C386.983 94.536 387.687 95.48 389.095 95.48C389.847 95.48 390.775 95.032 391.543 93.848L391.623 95.016C390.887 95.976 389.815 96.568 388.855 96.568C386.871 96.568 385.607 95.384 385.607 93.048C385.607 90.872 387.143 89.4 388.967 89.4C391.223 89.4 392.903 91.208 392.903 94.872C392.903 99.464 390.823 101.224 388.567 101.224ZM398.882 101.224C396.722 101.224 395.138 99.912 395.138 98.104C395.138 96.6 396.226 95.576 397.298 95.016V94.952C396.45 94.36 395.698 93.512 395.698 92.312C395.698 90.552 397.09 89.4 398.93 89.4C400.93 89.4 402.146 90.648 402.146 92.424C402.146 93.624 401.266 94.632 400.578 95.16V95.24C401.586 95.848 402.562 96.648 402.562 98.184C402.562 99.896 401.074 101.224 398.882 101.224ZM399.682 94.792C400.466 94.088 400.898 93.336 400.898 92.488C400.898 91.368 400.162 90.472 398.898 90.472C397.826 90.472 397.042 91.208 397.042 92.312C397.042 93.672 398.306 94.248 399.682 94.792ZM398.914 100.12C400.258 100.12 401.154 99.304 401.154 98.136C401.154 96.648 399.714 96.136 398.066 95.464C397.122 96.072 396.45 96.904 396.45 97.96C396.45 99.208 397.506 100.12 398.914 100.12Z" fill="#1A1A1A"/>
<rect x="336" y="114" width="108" height="160.112" rx="4" fill="#71C598"/>
<path d="M456.136 76V64.024C456.136 63.136 456.208 61.72 456.28 60.808H456.16C455.728 61.672 455.248 62.56 454.768 63.424L450.76 69.424H460.552V71.152H448.456V69.712L455.776 58.408H458.2V76H456.136ZM468.945 76.336C465.585 76.336 463.449 73.288 463.449 67.144C463.449 61.048 465.585 58.096 468.945 58.096C472.257 58.096 474.392 61.048 474.392 67.144C474.392 73.288 472.257 76.336 468.945 76.336ZM468.945 74.56C470.937 74.56 472.281 72.328 472.281 67.144C472.281 62.032 470.937 59.848 468.945 59.848C466.929 59.848 465.561 62.032 465.561 67.144C465.561 72.328 466.929 74.56 468.945 74.56ZM483.217 76.336C479.857 76.336 477.721 73.288 477.721 67.144C477.721 61.048 479.857 58.096 483.217 58.096C486.529 58.096 488.665 61.048 488.665 67.144C488.665 73.288 486.529 76.336 483.217 76.336ZM483.217 74.56C485.209 74.56 486.553 72.328 486.553 67.144C486.553 62.032 485.209 59.848 483.217 59.848C481.201 59.848 479.833 62.032 479.833 67.144C479.833 72.328 481.201 74.56 483.217 74.56Z" fill="#1A1A1A"/>
<path d="M449.616 101L450.048 97.352H448.624V96.328H450.176L450.512 93.688H448.992V92.664H450.624L451.04 89.384H451.984L451.568 92.664H453.936L454.368 89.384H455.312L454.896 92.664H456.336V93.688H454.784L454.448 96.328H455.984V97.352H454.32L453.888 101H452.944L453.36 97.352H451.008L450.56 101H449.616ZM451.12 96.328H453.504L453.824 93.688H451.44L451.12 96.328ZM461.691 101.224C459.867 101.224 458.747 100.456 457.947 99.656L458.683 98.696C459.339 99.384 460.203 100.008 461.547 100.008C462.939 100.008 464.043 99 464.043 97.4C464.043 95.832 463.083 94.888 461.627 94.888C460.843 94.888 460.347 95.144 459.675 95.592L458.891 95.096L459.259 89.608H464.971V90.856H460.539L460.235 94.248C460.763 93.96 461.291 93.784 461.995 93.784C463.947 93.784 465.531 94.888 465.531 97.352C465.531 99.832 463.659 101.224 461.691 101.224ZM468.438 101V99.784H471.046V91.384H468.95V90.44C470.006 90.248 470.758 89.976 471.382 89.608H472.502V99.784H474.87V101H468.438ZM478.145 101V89.272H481.617C484.001 89.272 485.649 90.088 485.649 92.152C485.649 93.304 485.041 94.328 483.937 94.696V94.76C485.345 95.032 486.321 95.976 486.321 97.576C486.321 99.864 484.497 101 481.889 101H478.145ZM479.633 94.264H481.361C483.377 94.264 484.193 93.528 484.193 92.328C484.193 90.952 483.265 90.44 481.441 90.44H479.633V94.264ZM479.633 99.832H481.681C483.681 99.832 484.881 99.112 484.881 97.528C484.881 96.072 483.729 95.4 481.681 95.4H479.633V99.832ZM492.165 101.224C490.005 101.224 488.421 99.912 488.421 98.104C488.421 96.6 489.509 95.576 490.581 95.016V94.952C489.733 94.36 488.981 93.512 488.981 92.312C488.981 90.552 490.373 89.4 492.213 89.4C494.213 89.4 495.429 90.648 495.429 92.424C495.429 93.624 494.549 94.632 493.861 95.16V95.24C494.869 95.848 495.845 96.648 495.845 98.184C495.845 99.896 494.357 101.224 492.165 101.224ZM492.965 94.792C493.749 94.088 494.181 93.336 494.181 92.488C494.181 91.368 493.445 90.472 492.181 90.472C491.109 90.472 490.325 91.208 490.325 92.312C490.325 93.672 491.589 94.248 492.965 94.792ZM492.197 100.12C493.541 100.12 494.437 99.304 494.437 98.136C494.437 96.648 492.997 96.136 491.349 95.464C490.405 96.072 489.733 96.904 489.733 97.96C489.733 99.208 490.789 100.12 492.197 100.12ZM501.68 101.224C499.52 101.224 497.936 99.912 497.936 98.104C497.936 96.6 499.024 95.576 500.096 95.016V94.952C499.248 94.36 498.496 93.512 498.496 92.312C498.496 90.552 499.888 89.4 501.728 89.4C503.728 89.4 504.944 90.648 504.944 92.424C504.944 93.624 504.064 94.632 503.376 95.16V95.24C504.384 95.848 505.36 96.648 505.36 98.184C505.36 99.896 503.872 101.224 501.68 101.224ZM502.48 94.792C503.264 94.088 503.696 93.336 503.696 92.488C503.696 91.368 502.96 90.472 501.696 90.472C500.624 90.472 499.84 91.208 499.84 92.312C499.84 93.672 501.104 94.248 502.48 94.792ZM501.712 100.12C503.056 100.12 503.952 99.304 503.952 98.136C503.952 96.648 502.512 96.136 500.864 95.464C499.92 96.072 499.248 96.904 499.248 97.96C499.248 99.208 500.304 100.12 501.712 100.12ZM510.939 101.224C509.099 101.224 507.963 100.456 507.195 99.608L507.931 98.648C508.619 99.368 509.499 100.008 510.843 100.008C512.235 100.008 513.227 99.192 513.227 97.912C513.227 96.552 512.283 95.64 509.579 95.64V94.52C511.995 94.52 512.811 93.576 512.811 92.376C512.811 91.272 512.059 90.568 510.843 90.568C509.899 90.568 509.067 91.064 508.411 91.736L507.627 90.808C508.507 89.992 509.547 89.4 510.891 89.4C512.859 89.4 514.299 90.44 514.299 92.28C514.299 93.656 513.467 94.536 512.219 95V95.064C513.595 95.384 514.715 96.408 514.715 97.96C514.715 99.992 513.035 101.224 510.939 101.224Z" fill="#1A1A1A"/>
<rect x="448" y="114" width="108" height="160.112" rx="4" fill="#51B883"/>
<path d="M566.264 76.336C563.528 76.336 561.848 75.184 560.648 73.984L561.752 72.544C562.736 73.576 564.032 74.512 566.048 74.512C568.136 74.512 569.792 72.904 569.792 70.36C569.792 67.84 568.352 66.328 566.168 66.328C564.992 66.328 564.248 66.712 563.24 67.384L562.064 66.64L562.616 58.408H571.184V60.28H564.536L564.08 65.368C564.872 64.936 565.664 64.672 566.72 64.672C569.648 64.672 572.024 66.4 572.024 70.288C572.024 74.128 569.216 76.336 566.264 76.336ZM580.945 76.336C577.585 76.336 575.449 73.288 575.449 67.144C575.449 61.048 577.585 58.096 580.945 58.096C584.257 58.096 586.392 61.048 586.392 67.144C586.392 73.288 584.257 76.336 580.945 76.336ZM580.945 74.56C582.937 74.56 584.281 72.328 584.281 67.144C584.281 62.032 582.937 59.848 580.945 59.848C578.929 59.848 577.561 62.032 577.561 67.144C577.561 72.328 578.929 74.56 580.945 74.56ZM595.217 76.336C591.857 76.336 589.721 73.288 589.721 67.144C589.721 61.048 591.857 58.096 595.217 58.096C598.529 58.096 600.665 61.048 600.665 67.144C600.665 73.288 598.529 76.336 595.217 76.336ZM595.217 74.56C597.209 74.56 598.553 72.328 598.553 67.144C598.553 62.032 597.209 59.848 595.217 59.848C593.201 59.848 591.833 62.032 591.833 67.144C591.833 72.328 593.201 74.56 595.217 74.56Z" fill="#1A1A1A"/>
<path d="M561.616 101L562.048 97.352H560.624V96.328H562.176L562.512 93.688H560.992V92.664H562.624L563.04 89.384H563.984L563.568 92.664H565.936L566.368 89.384H567.312L566.896 92.664H568.336V93.688H566.784L566.448 96.328H567.984V97.352H566.32L565.888 101H564.944L565.36 97.352H563.008L562.56 101H561.616ZM563.12 96.328H565.504L565.824 93.688H563.44L563.12 96.328ZM570.219 101V100.152C573.659 96.728 575.579 94.664 575.579 92.792C575.579 91.496 574.891 90.568 573.435 90.568C572.475 90.568 571.643 91.176 570.987 91.944L570.139 91.112C571.099 90.072 572.123 89.4 573.611 89.4C575.707 89.4 577.019 90.712 577.019 92.744C577.019 94.888 575.051 97.016 572.347 99.864C572.955 99.8 573.675 99.752 574.267 99.752H577.579V101H570.219ZM585.062 101.224C582.134 101.224 579.958 98.952 579.958 95.144C579.958 91.368 582.182 89.064 585.158 89.064C586.582 89.064 587.686 89.752 588.374 90.504L587.558 91.464C586.95 90.808 586.166 90.36 585.174 90.36C582.95 90.36 581.478 92.184 581.478 95.112C581.478 98.072 582.886 99.912 585.126 99.912C586.23 99.912 587.094 99.432 587.846 98.6L588.646 99.528C587.718 100.616 586.582 101.224 585.062 101.224ZM589.921 101L593.889 89.272H595.553L599.521 101H597.969L595.905 94.44C595.489 93.128 595.121 91.848 594.737 90.488H594.673C594.289 91.848 593.921 93.128 593.489 94.44L591.425 101H589.921ZM592.001 97.416V96.248H597.409V97.416H592.001ZM606.061 101.224C603.133 101.224 600.957 98.952 600.957 95.144C600.957 91.368 603.181 89.064 606.157 89.064C607.581 89.064 608.685 89.752 609.373 90.504L608.557 91.464C607.949 90.808 607.165 90.36 606.173 90.36C603.949 90.36 602.477 92.184 602.477 95.112C602.477 98.072 603.885 99.912 606.125 99.912C607.229 99.912 608.093 99.432 608.845 98.6L609.645 99.528C608.717 100.616 607.581 101.224 606.061 101.224ZM615.672 101.224C613.416 101.224 611.72 99.4 611.72 95.736C611.72 91.144 613.8 89.4 616.072 89.4C617.288 89.4 618.184 89.912 618.808 90.584L618.008 91.496C617.544 90.952 616.84 90.616 616.12 90.616C614.488 90.616 613.112 91.896 613.112 95.736C613.112 98.552 614.008 100.072 615.656 100.072C616.792 100.072 617.656 99.064 617.656 97.56C617.656 96.072 616.952 95.128 615.528 95.128C614.792 95.128 613.864 95.576 613.064 96.76L613.016 95.592C613.752 94.632 614.808 94.04 615.768 94.04C617.736 94.04 619.032 95.224 619.032 97.56C619.032 99.752 617.48 101.224 615.672 101.224ZM621.987 101V89.272H628.739V90.52H623.475V94.2H627.907V95.464H623.475V99.752H628.915V101H621.987Z" fill="#1A1A1A"/>
<rect x="560" y="114" width="108" height="160.112" rx="4" fill="#2CAC6E"/>
<path d="M679.224 76.336C675.84 76.336 673.32 73.432 673.32 67.624C673.32 60.736 676.416 58.096 679.824 58.096C681.648 58.096 682.992 58.864 683.952 59.896L682.728 61.24C682.056 60.424 680.976 59.92 679.92 59.92C677.448 59.92 675.384 61.864 675.384 67.624C675.384 72.136 676.752 74.608 679.224 74.608C680.904 74.608 682.2 73 682.2 70.624C682.2 68.224 681.144 66.712 679.032 66.712C677.904 66.712 676.488 67.384 675.312 69.136L675.24 67.384C676.32 65.968 677.952 65.104 679.368 65.104C682.344 65.104 684.264 66.928 684.264 70.624C684.264 74.032 681.936 76.336 679.224 76.336ZM692.945 76.336C689.585 76.336 687.449 73.288 687.449 67.144C687.449 61.048 689.585 58.096 692.945 58.096C696.257 58.096 698.392 61.048 698.392 67.144C698.392 73.288 696.257 76.336 692.945 76.336ZM692.945 74.56C694.937 74.56 696.281 72.328 696.281 67.144C696.281 62.032 694.937 59.848 692.945 59.848C690.929 59.848 689.561 62.032 689.561 67.144C689.561 72.328 690.929 74.56 692.945 74.56ZM707.217 76.336C703.857 76.336 701.721 73.288 701.721 67.144C701.721 61.048 703.857 58.096 707.217 58.096C710.529 58.096 712.665 61.048 712.665 67.144C712.665 73.288 710.529 76.336 707.217 76.336ZM707.217 74.56C709.209 74.56 710.553 72.328 710.553 67.144C710.553 62.032 709.209 59.848 707.217 59.848C705.201 59.848 703.833 62.032 703.833 67.144C703.833 72.328 705.201 74.56 707.217 74.56Z" fill="#1A1A1A"/>
<path d="M673.616 101L674.048 97.352H672.624V96.328H674.176L674.512 93.688H672.992V92.664H674.624L675.04 89.384H675.984L675.568 92.664H677.936L678.368 89.384H679.312L678.896 92.664H680.336V93.688H678.784L678.448 96.328H679.984V97.352H678.32L677.888 101H676.944L677.36 97.352H675.008L674.56 101H673.616ZM675.12 96.328H677.504L677.824 93.688H675.44L675.12 96.328ZM682.219 101V100.152C685.659 96.728 687.579 94.664 687.579 92.792C687.579 91.496 686.891 90.568 685.435 90.568C684.475 90.568 683.643 91.176 682.987 91.944L682.139 91.112C683.099 90.072 684.123 89.4 685.611 89.4C687.707 89.4 689.019 90.712 689.019 92.744C689.019 94.888 687.051 97.016 684.347 99.864C684.955 99.8 685.675 99.752 686.267 99.752H689.579V101H682.219ZM695.206 101.224C693.382 101.224 692.262 100.456 691.462 99.656L692.198 98.696C692.854 99.384 693.718 100.008 695.062 100.008C696.454 100.008 697.558 99 697.558 97.4C697.558 95.832 696.598 94.888 695.142 94.888C694.358 94.888 693.862 95.144 693.19 95.592L692.406 95.096L692.774 89.608H698.486V90.856H694.054L693.75 94.248C694.278 93.96 694.806 93.784 695.51 93.784C697.462 93.784 699.046 94.888 699.046 97.352C699.046 99.832 697.174 101.224 695.206 101.224ZM704.209 101.224C702.977 101.224 702.081 100.712 701.457 100.024L702.273 99.096C702.737 99.672 703.441 100.008 704.145 100.008C705.793 100.008 707.169 98.712 707.169 94.872C707.169 92.056 706.257 90.536 704.609 90.536C703.489 90.536 702.625 91.528 702.625 93.048C702.625 94.536 703.329 95.48 704.737 95.48C705.489 95.48 706.417 95.032 707.185 93.848L707.265 95.016C706.529 95.976 705.457 96.568 704.497 96.568C702.513 96.568 701.249 95.384 701.249 93.048C701.249 90.872 702.785 89.4 704.609 89.4C706.865 89.4 708.545 91.208 708.545 94.872C708.545 99.464 706.465 101.224 704.209 101.224ZM711.66 101V89.272H714.588C718.204 89.272 720.124 91.368 720.124 95.096C720.124 98.824 718.204 101 714.668 101H711.66ZM713.148 99.784H714.476C717.228 99.784 718.604 98.072 718.604 95.096C718.604 92.12 717.228 90.488 714.476 90.488H713.148V99.784ZM726.516 101.224C724.26 101.224 722.564 99.4 722.564 95.736C722.564 91.144 724.644 89.4 726.916 89.4C728.132 89.4 729.028 89.912 729.652 90.584L728.852 91.496C728.388 90.952 727.684 90.616 726.964 90.616C725.332 90.616 723.956 91.896 723.956 95.736C723.956 98.552 724.852 100.072 726.5 100.072C727.636 100.072 728.5 99.064 728.5 97.56C728.5 96.072 727.796 95.128 726.372 95.128C725.636 95.128 724.708 95.576 723.908 96.76L723.86 95.592C724.596 94.632 725.652 94.04 726.612 94.04C728.58 94.04 729.876 95.224 729.876 97.56C729.876 99.752 728.324 101.224 726.516 101.224ZM735.439 101.224C733.599 101.224 732.463 100.456 731.695 99.608L732.431 98.648C733.119 99.368 733.999 100.008 735.343 100.008C736.735 100.008 737.727 99.192 737.727 97.912C737.727 96.552 736.783 95.64 734.079 95.64V94.52C736.495 94.52 737.311 93.576 737.311 92.376C737.311 91.272 736.559 90.568 735.343 90.568C734.399 90.568 733.567 91.064 732.911 91.736L732.127 90.808C733.007 89.992 734.047 89.4 735.391 89.4C737.359 89.4 738.799 90.44 738.799 92.28C738.799 93.656 737.967 94.536 736.719 95V95.064C738.095 95.384 739.215 96.408 739.215 97.96C739.215 99.992 737.535 101.224 735.439 101.224Z" fill="#1A1A1A"/>
<rect x="672" y="114" width="108" height="160.112" rx="4" fill="#259D63"/>
<path d="M788.728 76C789.04 69.352 790.24 65.08 793.696 60.28H785.176V58.408H796.168V59.728C792.04 65.032 791.296 69.136 791.008 76H788.728ZM804.945 76.336C801.585 76.336 799.449 73.288 799.449 67.144C799.449 61.048 801.585 58.096 804.945 58.096C808.257 58.096 810.392 61.048 810.392 67.144C810.392 73.288 808.257 76.336 804.945 76.336ZM804.945 74.56C806.937 74.56 808.281 72.328 808.281 67.144C808.281 62.032 806.937 59.848 804.945 59.848C802.929 59.848 801.561 62.032 801.561 67.144C801.561 72.328 802.929 74.56 804.945 74.56ZM819.217 76.336C815.857 76.336 813.721 73.288 813.721 67.144C813.721 61.048 815.857 58.096 819.217 58.096C822.529 58.096 824.665 61.048 824.665 67.144C824.665 73.288 822.529 76.336 819.217 76.336ZM819.217 74.56C821.209 74.56 822.553 72.328 822.553 67.144C822.553 62.032 821.209 59.848 819.217 59.848C817.201 59.848 815.833 62.032 815.833 67.144C815.833 72.328 817.201 74.56 819.217 74.56Z" fill="#1A1A1A"/>
<path d="M785.616 101L786.048 97.352H784.624V96.328H786.176L786.512 93.688H784.992V92.664H786.624L787.04 89.384H787.984L787.568 92.664H789.936L790.368 89.384H791.312L790.896 92.664H792.336V93.688H790.784L790.448 96.328H791.984V97.352H790.32L789.888 101H788.944L789.36 97.352H787.008L786.56 101H785.616ZM787.12 96.328H789.504L789.824 93.688H787.44L787.12 96.328ZM794.923 101V99.784H797.531V91.384H795.435V90.44C796.491 90.248 797.243 89.976 797.867 89.608H798.987V99.784H801.355V101H794.923ZM804.63 101V89.272H807.558C811.174 89.272 813.094 91.368 813.094 95.096C813.094 98.824 811.174 101 807.638 101H804.63ZM806.118 99.784H807.446C810.198 99.784 811.574 98.072 811.574 95.096C811.574 92.12 810.198 90.488 807.446 90.488H806.118V99.784ZM819.15 101.224C816.99 101.224 815.406 99.912 815.406 98.104C815.406 96.6 816.494 95.576 817.566 95.016V94.952C816.718 94.36 815.966 93.512 815.966 92.312C815.966 90.552 817.358 89.4 819.198 89.4C821.198 89.4 822.414 90.648 822.414 92.424C822.414 93.624 821.534 94.632 820.846 95.16V95.24C821.854 95.848 822.83 96.648 822.83 98.184C822.83 99.896 821.342 101.224 819.15 101.224ZM819.95 94.792C820.734 94.088 821.166 93.336 821.166 92.488C821.166 91.368 820.43 90.472 819.166 90.472C818.094 90.472 817.31 91.208 817.31 92.312C817.31 93.672 818.574 94.248 819.95 94.792ZM819.182 100.12C820.526 100.12 821.422 99.304 821.422 98.136C821.422 96.648 819.982 96.136 818.334 95.464C817.39 96.072 816.718 96.904 816.718 97.96C816.718 99.208 817.774 100.12 819.182 100.12ZM825.801 101V89.272H829.273C831.657 89.272 833.305 90.088 833.305 92.152C833.305 93.304 832.697 94.328 831.593 94.696V94.76C833.001 95.032 833.977 95.976 833.977 97.576C833.977 99.864 832.153 101 829.545 101H825.801ZM827.289 94.264H829.017C831.033 94.264 831.849 93.528 831.849 92.328C831.849 90.952 830.921 90.44 829.097 90.44H827.289V94.264ZM827.289 99.832H829.337C831.337 99.832 832.537 99.112 832.537 97.528C832.537 96.072 831.385 95.4 829.337 95.4H827.289V99.832ZM839.532 101.224C837.708 101.224 836.588 100.456 835.788 99.656L836.524 98.696C837.18 99.384 838.044 100.008 839.388 100.008C840.78 100.008 841.884 99 841.884 97.4C841.884 95.832 840.924 94.888 839.468 94.888C838.684 94.888 838.188 95.144 837.516 95.592L836.732 95.096L837.1 89.608H842.812V90.856H838.38L838.076 94.248C838.604 93.96 839.132 93.784 839.836 93.784C841.788 93.784 843.372 94.888 843.372 97.352C843.372 99.832 841.5 101.224 839.532 101.224ZM849.671 101.224C847.415 101.224 845.719 99.4 845.719 95.736C845.719 91.144 847.799 89.4 850.071 89.4C851.287 89.4 852.183 89.912 852.807 90.584L852.007 91.496C851.543 90.952 850.839 90.616 850.119 90.616C848.487 90.616 847.111 91.896 847.111 95.736C847.111 98.552 848.007 100.072 849.655 100.072C850.791 100.072 851.655 99.064 851.655 97.56C851.655 96.072 850.951 95.128 849.527 95.128C848.791 95.128 847.863 95.576 847.063 96.76L847.015 95.592C847.751 94.632 848.807 94.04 849.767 94.04C851.735 94.04 853.031 95.224 853.031 97.56C853.031 99.752 851.479 101.224 849.671 101.224Z" fill="#1A1A1A"/>
<rect x="784" y="114" width="108" height="160.112" rx="4" fill="#1D8B56"/>
<path d="M902.696 76.336C899.456 76.336 897.08 74.368 897.08 71.656C897.08 69.28 898.712 67.648 900.32 66.784V66.688C899.024 65.8 897.92 64.456 897.92 62.608C897.92 59.944 900.008 58.168 902.768 58.168C905.768 58.168 907.592 60.088 907.592 62.776C907.592 64.648 906.296 66.208 905.24 67.024V67.144C906.776 68.032 908.216 69.376 908.216 71.776C908.216 74.344 905.984 76.336 902.696 76.336ZM903.896 66.472C905.096 65.416 905.72 64.216 905.72 62.896C905.72 61.168 904.616 59.776 902.72 59.776C901.112 59.776 899.936 60.928 899.936 62.608C899.936 64.72 901.832 65.656 903.896 66.472ZM902.744 74.68C904.76 74.68 906.104 73.456 906.104 71.704C906.104 69.352 903.944 68.464 901.472 67.456C900.032 68.368 899.048 69.76 899.048 71.44C899.048 73.312 900.632 74.68 902.744 74.68ZM916.945 76.336C913.585 76.336 911.449 73.288 911.449 67.144C911.449 61.048 913.585 58.096 916.945 58.096C920.257 58.096 922.392 61.048 922.392 67.144C922.392 73.288 920.257 76.336 916.945 76.336ZM916.945 74.56C918.937 74.56 920.281 72.328 920.281 67.144C920.281 62.032 918.937 59.848 916.945 59.848C914.929 59.848 913.561 62.032 913.561 67.144C913.561 72.328 914.929 74.56 916.945 74.56ZM931.217 76.336C927.857 76.336 925.721 73.288 925.721 67.144C925.721 61.048 927.857 58.096 931.217 58.096C934.529 58.096 936.665 61.048 936.665 67.144C936.665 73.288 934.529 76.336 931.217 76.336ZM931.217 74.56C933.209 74.56 934.553 72.328 934.553 67.144C934.553 62.032 933.209 59.848 931.217 59.848C929.201 59.848 927.833 62.032 927.833 67.144C927.833 72.328 929.201 74.56 931.217 74.56Z" fill="#1A1A1A"/>
<path d="M897.616 101L898.048 97.352H896.624V96.328H898.176L898.512 93.688H896.992V92.664H898.624L899.04 89.384H899.984L899.568 92.664H901.936L902.368 89.384H903.312L902.896 92.664H904.336V93.688H902.784L902.448 96.328H903.984V97.352H902.32L901.888 101H900.944L901.36 97.352H899.008L898.56 101H897.616ZM899.12 96.328H901.504L901.824 93.688H899.44L899.12 96.328ZM906.923 101V99.784H909.531V91.384H907.435V90.44C908.491 90.248 909.243 89.976 909.867 89.608H910.987V99.784H913.355V101H906.923ZM918.694 101.224C917.462 101.224 916.566 100.712 915.942 100.024L916.758 99.096C917.222 99.672 917.926 100.008 918.63 100.008C920.278 100.008 921.654 98.712 921.654 94.872C921.654 92.056 920.742 90.536 919.094 90.536C917.974 90.536 917.11 91.528 917.11 93.048C917.11 94.536 917.814 95.48 919.222 95.48C919.974 95.48 920.902 95.032 921.67 93.848L921.75 95.016C921.014 95.976 919.942 96.568 918.982 96.568C916.998 96.568 915.734 95.384 915.734 93.048C915.734 90.872 917.27 89.4 919.094 89.4C921.35 89.4 923.03 91.208 923.03 94.872C923.03 99.464 920.95 101.224 918.694 101.224ZM927.697 101C927.905 96.712 928.769 93.976 931.009 90.856H925.329V89.608H932.657V90.504C929.969 93.944 929.409 96.552 929.217 101H927.697ZM934.108 101L938.076 89.272H939.74L943.708 101H942.156L940.092 94.44C939.676 93.128 939.308 91.848 938.924 90.488H938.86C938.476 91.848 938.108 93.128 937.676 94.44L935.612 101H934.108ZM936.188 97.416V96.248H941.596V97.416H936.188ZM949.858 101V93.352C949.858 92.76 949.906 91.768 949.954 91.176H949.874C949.586 91.704 949.266 92.216 948.946 92.776L946.274 96.696H952.802V97.848H944.738V96.888L949.618 89.608H951.234V101H949.858ZM955.549 101V89.272H959.021C961.405 89.272 963.053 90.088 963.053 92.152C963.053 93.304 962.445 94.328 961.341 94.696V94.76C962.749 95.032 963.725 95.976 963.725 97.576C963.725 99.864 961.901 101 959.293 101H955.549ZM957.037 94.264H958.765C960.781 94.264 961.597 93.528 961.597 92.328C961.597 90.952 960.669 90.44 958.845 90.44H957.037V94.264ZM957.037 99.832H959.085C961.085 99.832 962.285 99.112 962.285 97.528C962.285 96.072 961.133 95.4 959.085 95.4H957.037V99.832Z" fill="#1A1A1A"/>
<rect x="896" y="114" width="108" height="160.112" rx="4" fill="#197A4B"/>
<path d="M1013.62 76.336C1011.7 76.336 1010.35 75.568 1009.37 74.536L1010.59 73.144C1011.34 74.008 1012.42 74.512 1013.54 74.512C1015.9 74.512 1017.94 72.472 1017.94 66.448C1017.94 62.128 1016.57 59.8 1014.1 59.8C1012.42 59.8 1011.12 61.384 1011.12 63.808C1011.12 66.16 1012.18 67.72 1014.26 67.72C1015.44 67.72 1016.81 67.024 1017.96 65.272L1018.08 67.024C1016.98 68.416 1015.42 69.328 1013.9 69.328C1010.95 69.328 1009.06 67.456 1009.06 63.808C1009.06 60.4 1011.36 58.096 1014.1 58.096C1017.48 58.096 1020 60.856 1020 66.448C1020 73.6 1016.93 76.336 1013.62 76.336ZM1028.94 76.336C1025.58 76.336 1023.45 73.288 1023.45 67.144C1023.45 61.048 1025.58 58.096 1028.94 58.096C1032.26 58.096 1034.39 61.048 1034.39 67.144C1034.39 73.288 1032.26 76.336 1028.94 76.336ZM1028.94 74.56C1030.94 74.56 1032.28 72.328 1032.28 67.144C1032.28 62.032 1030.94 59.848 1028.94 59.848C1026.93 59.848 1025.56 62.032 1025.56 67.144C1025.56 72.328 1026.93 74.56 1028.94 74.56ZM1043.22 76.336C1039.86 76.336 1037.72 73.288 1037.72 67.144C1037.72 61.048 1039.86 58.096 1043.22 58.096C1046.53 58.096 1048.66 61.048 1048.66 67.144C1048.66 73.288 1046.53 76.336 1043.22 76.336ZM1043.22 74.56C1045.21 74.56 1046.55 72.328 1046.55 67.144C1046.55 62.032 1045.21 59.848 1043.22 59.848C1041.2 59.848 1039.83 62.032 1039.83 67.144C1039.83 72.328 1041.2 74.56 1043.22 74.56Z" fill="#1A1A1A"/>
<path d="M1009.62 101L1010.05 97.352H1008.62V96.328H1010.18L1010.51 93.688H1008.99V92.664H1010.62L1011.04 89.384H1011.98L1011.57 92.664H1013.94L1014.37 89.384H1015.31L1014.9 92.664H1016.34V93.688H1014.78L1014.45 96.328H1015.98V97.352H1014.32L1013.89 101H1012.94L1013.36 97.352H1011.01L1010.56 101H1009.62ZM1011.12 96.328H1013.5L1013.82 93.688H1011.44L1011.12 96.328ZM1018.92 101V99.784H1021.53V91.384H1019.44V90.44C1020.49 90.248 1021.24 89.976 1021.87 89.608H1022.99V99.784H1025.36V101H1018.92ZM1028.44 101V99.784H1031.05V91.384H1028.95V90.44C1030.01 90.248 1030.76 89.976 1031.38 89.608H1032.5V99.784H1034.87V101H1028.44ZM1040.72 101.224C1038.9 101.224 1037.78 100.456 1036.98 99.656L1037.71 98.696C1038.37 99.384 1039.23 100.008 1040.58 100.008C1041.97 100.008 1043.07 99 1043.07 97.4C1043.07 95.832 1042.11 94.888 1040.66 94.888C1039.87 94.888 1039.38 95.144 1038.71 95.592L1037.92 95.096L1038.29 89.608H1044V90.856H1039.57L1039.27 94.248C1039.79 93.96 1040.32 93.784 1041.03 93.784C1042.98 93.784 1044.56 94.888 1044.56 97.352C1044.56 99.832 1042.69 101.224 1040.72 101.224ZM1046.11 101L1050.08 89.272H1051.74L1055.71 101H1054.16L1052.09 94.44C1051.68 93.128 1051.31 91.848 1050.92 90.488H1050.86C1050.48 91.848 1050.11 93.128 1049.68 94.44L1047.61 101H1046.11ZM1048.19 97.416V96.248H1053.6V97.416H1048.19ZM1060.64 101.224C1058.8 101.224 1057.67 100.456 1056.9 99.608L1057.63 98.648C1058.32 99.368 1059.2 100.008 1060.55 100.008C1061.94 100.008 1062.93 99.192 1062.93 97.912C1062.93 96.552 1061.99 95.64 1059.28 95.64V94.52C1061.7 94.52 1062.51 93.576 1062.51 92.376C1062.51 91.272 1061.76 90.568 1060.55 90.568C1059.6 90.568 1058.77 91.064 1058.11 91.736L1057.33 90.808C1058.21 89.992 1059.25 89.4 1060.59 89.4C1062.56 89.4 1064 90.44 1064 92.28C1064 93.656 1063.17 94.536 1061.92 95V95.064C1063.3 95.384 1064.42 96.408 1064.42 97.96C1064.42 99.992 1062.74 101.224 1060.64 101.224ZM1070.75 101.224C1068.49 101.224 1066.8 99.4 1066.8 95.736C1066.8 91.144 1068.88 89.4 1071.15 89.4C1072.37 89.4 1073.26 89.912 1073.89 90.584L1073.09 91.496C1072.62 90.952 1071.92 90.616 1071.2 90.616C1069.57 90.616 1068.19 91.896 1068.19 95.736C1068.19 98.552 1069.09 100.072 1070.73 100.072C1071.87 100.072 1072.73 99.064 1072.73 97.56C1072.73 96.072 1072.03 95.128 1070.61 95.128C1069.87 95.128 1068.94 95.576 1068.14 96.76L1068.09 95.592C1068.83 94.632 1069.89 94.04 1070.85 94.04C1072.81 94.04 1074.11 95.224 1074.11 97.56C1074.11 99.752 1072.56 101.224 1070.75 101.224Z" fill="#1A1A1A"/>
<rect x="1008" y="114" width="108" height="160.112" rx="4" fill="#115A36"/>
<path d="M1122.11 76V74.176H1126.02V61.072H1122.88V59.656C1124.46 59.392 1125.59 58.984 1126.53 58.408H1128.21V74.176H1131.76V76H1122.11ZM1140.94 76.336C1137.58 76.336 1135.45 73.288 1135.45 67.144C1135.45 61.048 1137.58 58.096 1140.94 58.096C1144.26 58.096 1146.39 61.048 1146.39 67.144C1146.39 73.288 1144.26 76.336 1140.94 76.336ZM1140.94 74.56C1142.94 74.56 1144.28 72.328 1144.28 67.144C1144.28 62.032 1142.94 59.848 1140.94 59.848C1138.93 59.848 1137.56 62.032 1137.56 67.144C1137.56 72.328 1138.93 74.56 1140.94 74.56ZM1155.22 76.336C1151.86 76.336 1149.72 73.288 1149.72 67.144C1149.72 61.048 1151.86 58.096 1155.22 58.096C1158.53 58.096 1160.66 61.048 1160.66 67.144C1160.66 73.288 1158.53 76.336 1155.22 76.336ZM1155.22 74.56C1157.21 74.56 1158.55 72.328 1158.55 67.144C1158.55 62.032 1157.21 59.848 1155.22 59.848C1153.2 59.848 1151.83 62.032 1151.83 67.144C1151.83 72.328 1153.2 74.56 1155.22 74.56ZM1169.49 76.336C1166.13 76.336 1163.99 73.288 1163.99 67.144C1163.99 61.048 1166.13 58.096 1169.49 58.096C1172.8 58.096 1174.94 61.048 1174.94 67.144C1174.94 73.288 1172.8 76.336 1169.49 76.336ZM1169.49 74.56C1171.48 74.56 1172.83 72.328 1172.83 67.144C1172.83 62.032 1171.48 59.848 1169.49 59.848C1167.47 59.848 1166.11 62.032 1166.11 67.144C1166.11 72.328 1167.47 74.56 1169.49 74.56Z" fill="#1A1A1A"/>
<path d="M1121.62 101L1122.05 97.352H1120.62V96.328H1122.18L1122.51 93.688H1120.99V92.664H1122.62L1123.04 89.384H1123.98L1123.57 92.664H1125.94L1126.37 89.384H1127.31L1126.9 92.664H1128.34V93.688H1126.78L1126.45 96.328H1127.98V97.352H1126.32L1125.89 101H1124.94L1125.36 97.352H1123.01L1122.56 101H1121.62ZM1123.12 96.328H1125.5L1125.82 93.688H1123.44L1123.12 96.328ZM1133.96 101.224C1131.68 101.224 1130.3 99.096 1130.3 95.272C1130.3 91.448 1131.68 89.4 1133.96 89.4C1136.22 89.4 1137.6 91.448 1137.6 95.272C1137.6 99.096 1136.22 101.224 1133.96 101.224ZM1133.96 100.04C1135.29 100.04 1136.19 98.616 1136.19 95.272C1136.19 91.912 1135.29 90.568 1133.96 90.568C1132.62 90.568 1131.71 91.912 1131.71 95.272C1131.71 98.616 1132.62 100.04 1133.96 100.04ZM1145.06 101.224C1142.13 101.224 1139.96 98.952 1139.96 95.144C1139.96 91.368 1142.18 89.064 1145.16 89.064C1146.58 89.064 1147.69 89.752 1148.37 90.504L1147.56 91.464C1146.95 90.808 1146.17 90.36 1145.17 90.36C1142.95 90.36 1141.48 92.184 1141.48 95.112C1141.48 98.072 1142.89 99.912 1145.13 99.912C1146.23 99.912 1147.09 99.432 1147.85 98.6L1148.65 99.528C1147.72 100.616 1146.58 101.224 1145.06 101.224ZM1155.3 101V93.352C1155.3 92.76 1155.35 91.768 1155.39 91.176H1155.31C1155.03 91.704 1154.71 92.216 1154.39 92.776L1151.71 96.696H1158.24V97.848H1150.18V96.888L1155.06 89.608H1156.67V101H1155.3ZM1162.54 101C1162.75 96.712 1163.61 93.976 1165.85 90.856H1160.17V89.608H1167.5V90.504C1164.81 93.944 1164.25 96.552 1164.06 101H1162.54ZM1169.61 101V100.152C1173.05 96.728 1174.97 94.664 1174.97 92.792C1174.97 91.496 1174.28 90.568 1172.82 90.568C1171.86 90.568 1171.03 91.176 1170.38 91.944L1169.53 91.112C1170.49 90.072 1171.51 89.4 1173 89.4C1175.1 89.4 1176.41 90.712 1176.41 92.744C1176.41 94.888 1174.44 97.016 1171.74 99.864C1172.34 99.8 1173.06 99.752 1173.66 99.752H1176.97V101H1169.61ZM1178.47 101L1182.43 89.272H1184.1L1188.07 101H1186.51L1184.45 94.44C1184.03 93.128 1183.67 91.848 1183.28 90.488H1183.22C1182.83 91.848 1182.47 93.128 1182.03 94.44L1179.97 101H1178.47ZM1180.55 97.416V96.248H1185.95V97.416H1180.55Z" fill="#1A1A1A"/>
<rect x="1120" y="114" width="108" height="160.112" rx="4" fill="#0C472A"/>
<path d="M1234.11 76V74.176H1238.02V61.072H1234.88V59.656C1236.46 59.392 1237.59 58.984 1238.53 58.408H1240.21V74.176H1243.76V76H1234.11ZM1248.38 76V74.176H1252.3V61.072H1249.15V59.656C1250.74 59.392 1251.86 58.984 1252.8 58.408H1254.48V74.176H1258.03V76H1248.38ZM1267.22 76.336C1263.86 76.336 1261.72 73.288 1261.72 67.144C1261.72 61.048 1263.86 58.096 1267.22 58.096C1270.53 58.096 1272.66 61.048 1272.66 67.144C1272.66 73.288 1270.53 76.336 1267.22 76.336ZM1267.22 74.56C1269.21 74.56 1270.55 72.328 1270.55 67.144C1270.55 62.032 1269.21 59.848 1267.22 59.848C1265.2 59.848 1263.83 62.032 1263.83 67.144C1263.83 72.328 1265.2 74.56 1267.22 74.56ZM1281.49 76.336C1278.13 76.336 1275.99 73.288 1275.99 67.144C1275.99 61.048 1278.13 58.096 1281.49 58.096C1284.8 58.096 1286.94 61.048 1286.94 67.144C1286.94 73.288 1284.8 76.336 1281.49 76.336ZM1281.49 74.56C1283.48 74.56 1284.83 72.328 1284.83 67.144C1284.83 62.032 1283.48 59.848 1281.49 59.848C1279.47 59.848 1278.11 62.032 1278.11 67.144C1278.11 72.328 1279.47 74.56 1281.49 74.56Z" fill="#1A1A1A"/>
<path d="M1233.62 101L1234.05 97.352H1232.62V96.328H1234.18L1234.51 93.688H1232.99V92.664H1234.62L1235.04 89.384H1235.98L1235.57 92.664H1237.94L1238.37 89.384H1239.31L1238.9 92.664H1240.34V93.688H1238.78L1238.45 96.328H1239.98V97.352H1238.32L1237.89 101H1236.94L1237.36 97.352H1235.01L1234.56 101H1233.62ZM1235.12 96.328H1237.5L1237.82 93.688H1235.44L1235.12 96.328ZM1245.96 101.224C1243.68 101.224 1242.3 99.096 1242.3 95.272C1242.3 91.448 1243.68 89.4 1245.96 89.4C1248.22 89.4 1249.6 91.448 1249.6 95.272C1249.6 99.096 1248.22 101.224 1245.96 101.224ZM1245.96 100.04C1247.29 100.04 1248.19 98.616 1248.19 95.272C1248.19 91.912 1247.29 90.568 1245.96 90.568C1244.62 90.568 1243.71 91.912 1243.71 95.272C1243.71 98.616 1244.62 100.04 1245.96 100.04ZM1255.49 101.224C1253.33 101.224 1251.75 99.912 1251.75 98.104C1251.75 96.6 1252.84 95.576 1253.91 95.016V94.952C1253.06 94.36 1252.31 93.512 1252.31 92.312C1252.31 90.552 1253.7 89.4 1255.54 89.4C1257.54 89.4 1258.76 90.648 1258.76 92.424C1258.76 93.624 1257.88 94.632 1257.19 95.16V95.24C1258.2 95.848 1259.17 96.648 1259.17 98.184C1259.17 99.896 1257.69 101.224 1255.49 101.224ZM1256.29 94.792C1257.08 94.088 1257.51 93.336 1257.51 92.488C1257.51 91.368 1256.77 90.472 1255.51 90.472C1254.44 90.472 1253.65 91.208 1253.65 92.312C1253.65 93.672 1254.92 94.248 1256.29 94.792ZM1255.53 100.12C1256.87 100.12 1257.77 99.304 1257.77 98.136C1257.77 96.648 1256.33 96.136 1254.68 95.464C1253.73 96.072 1253.06 96.904 1253.06 97.96C1253.06 99.208 1254.12 100.12 1255.53 100.12ZM1264.75 101.224C1262.91 101.224 1261.78 100.456 1261.01 99.608L1261.75 98.648C1262.43 99.368 1263.31 100.008 1264.66 100.008C1266.05 100.008 1267.04 99.192 1267.04 97.912C1267.04 96.552 1266.1 95.64 1263.39 95.64V94.52C1265.81 94.52 1266.63 93.576 1266.63 92.376C1266.63 91.272 1265.87 90.568 1264.66 90.568C1263.71 90.568 1262.88 91.064 1262.23 91.736L1261.44 90.808C1262.32 89.992 1263.36 89.4 1264.71 89.4C1266.67 89.4 1268.11 90.44 1268.11 92.28C1268.11 93.656 1267.28 94.536 1266.03 95V95.064C1267.41 95.384 1268.53 96.408 1268.53 97.96C1268.53 99.992 1266.85 101.224 1264.75 101.224ZM1274.24 101.224C1272.41 101.224 1271.29 100.456 1270.49 99.656L1271.23 98.696C1271.88 99.384 1272.75 100.008 1274.09 100.008C1275.48 100.008 1276.59 99 1276.59 97.4C1276.59 95.832 1275.63 94.888 1274.17 94.888C1273.39 94.888 1272.89 95.144 1272.22 95.592L1271.44 95.096L1271.8 89.608H1277.52V90.856H1273.08L1272.78 94.248C1273.31 93.96 1273.84 93.784 1274.54 93.784C1276.49 93.784 1278.08 94.888 1278.08 97.352C1278.08 99.832 1276.2 101.224 1274.24 101.224ZM1280.98 101V99.784H1283.59V91.384H1281.5V90.44C1282.55 90.248 1283.3 89.976 1283.93 89.608H1285.05V99.784H1287.42V101H1280.98ZM1290.69 101V89.272H1297.44V90.52H1292.18V94.504H1296.64V95.736H1292.18V101H1290.69Z" fill="#1A1A1A"/>
<rect x="1232" y="114" width="108" height="160.112" rx="4" fill="#08351F"/>
<path d="M1346.11 76V74.176H1350.02V61.072H1346.88V59.656C1348.46 59.392 1349.59 58.984 1350.53 58.408H1352.21V74.176H1355.76V76H1346.11ZM1359.33 76V74.728C1364.85 69.904 1367.37 66.376 1367.37 63.376C1367.37 61.36 1366.34 59.872 1364.15 59.872C1362.71 59.872 1361.46 60.76 1360.48 61.912L1359.21 60.688C1360.65 59.128 1362.18 58.096 1364.42 58.096C1367.56 58.096 1369.53 60.136 1369.53 63.28C1369.53 66.808 1366.77 70.384 1362.62 74.296C1363.55 74.2 1364.61 74.128 1365.5 74.128H1370.37V76H1359.33ZM1379.22 76.336C1375.86 76.336 1373.72 73.288 1373.72 67.144C1373.72 61.048 1375.86 58.096 1379.22 58.096C1382.53 58.096 1384.66 61.048 1384.66 67.144C1384.66 73.288 1382.53 76.336 1379.22 76.336ZM1379.22 74.56C1381.21 74.56 1382.55 72.328 1382.55 67.144C1382.55 62.032 1381.21 59.848 1379.22 59.848C1377.2 59.848 1375.83 62.032 1375.83 67.144C1375.83 72.328 1377.2 74.56 1379.22 74.56ZM1393.49 76.336C1390.13 76.336 1387.99 73.288 1387.99 67.144C1387.99 61.048 1390.13 58.096 1393.49 58.096C1396.8 58.096 1398.94 61.048 1398.94 67.144C1398.94 73.288 1396.8 76.336 1393.49 76.336ZM1393.49 74.56C1395.48 74.56 1396.83 72.328 1396.83 67.144C1396.83 62.032 1395.48 59.848 1393.49 59.848C1391.47 59.848 1390.11 62.032 1390.11 67.144C1390.11 72.328 1391.47 74.56 1393.49 74.56Z" fill="#1A1A1A"/>
<path d="M1345.62 101L1346.05 97.352H1344.62V96.328H1346.18L1346.51 93.688H1344.99V92.664H1346.62L1347.04 89.384H1347.98L1347.57 92.664H1349.94L1350.37 89.384H1351.31L1350.9 92.664H1352.34V93.688H1350.78L1350.45 96.328H1351.98V97.352H1350.32L1349.89 101H1348.94L1349.36 97.352H1347.01L1346.56 101H1345.62ZM1347.12 96.328H1349.5L1349.82 93.688H1347.44L1347.12 96.328ZM1357.96 101.224C1355.72 101.224 1354.3 99.192 1354.3 95.096C1354.3 91.032 1355.72 89.064 1357.96 89.064C1360.17 89.064 1361.6 91.032 1361.6 95.096C1361.6 99.192 1360.17 101.224 1357.96 101.224ZM1357.96 100.04C1359.29 100.04 1360.19 98.552 1360.19 95.096C1360.19 91.688 1359.29 90.232 1357.96 90.232C1356.62 90.232 1355.71 91.688 1355.71 95.096C1355.71 98.552 1356.62 100.04 1357.96 100.04ZM1367.24 101.224C1365.4 101.224 1364.26 100.456 1363.49 99.608L1364.23 98.648C1364.92 99.368 1365.8 100.008 1367.14 100.008C1368.53 100.008 1369.53 99.16 1369.53 97.816C1369.53 96.408 1368.58 95.48 1365.88 95.48V94.344C1368.29 94.344 1369.11 93.384 1369.11 92.104C1369.11 90.984 1368.36 90.248 1367.14 90.248C1366.2 90.248 1365.37 90.728 1364.71 91.4L1363.93 90.456C1364.81 89.656 1365.85 89.064 1367.19 89.064C1369.16 89.064 1370.6 90.136 1370.6 92.008C1370.6 93.432 1369.77 94.376 1368.52 94.824V94.888C1369.89 95.224 1371.01 96.264 1371.01 97.88C1371.01 99.96 1369.33 101.224 1367.24 101.224ZM1373.25 101V100.152C1376.93 96.936 1378.61 94.584 1378.61 92.584C1378.61 91.24 1377.92 90.248 1376.47 90.248C1375.51 90.248 1374.67 90.84 1374.02 91.608L1373.17 90.792C1374.13 89.752 1375.15 89.064 1376.64 89.064C1378.74 89.064 1380.05 90.424 1380.05 92.52C1380.05 94.872 1378.21 97.256 1375.44 99.864C1376.07 99.8 1376.77 99.752 1377.36 99.752H1380.61V101H1373.25ZM1382.76 101V100.152C1386.44 96.936 1388.12 94.584 1388.12 92.584C1388.12 91.24 1387.44 90.248 1385.98 90.248C1385.02 90.248 1384.19 90.84 1383.53 91.608L1382.68 90.792C1383.64 89.752 1384.67 89.064 1386.16 89.064C1388.25 89.064 1389.56 90.424 1389.56 92.52C1389.56 94.872 1387.72 97.256 1384.96 99.864C1385.58 99.8 1386.28 99.752 1386.88 99.752H1390.12V101H1382.76ZM1392.98 101V99.784H1395.59V91.048H1393.5V90.104C1394.55 89.928 1395.3 89.656 1395.93 89.272H1397.05V99.784H1399.42V101H1392.98ZM1405.3 101.224C1403.46 101.224 1402.32 100.456 1401.55 99.608L1402.29 98.648C1402.98 99.368 1403.86 100.008 1405.2 100.008C1406.59 100.008 1407.59 99.16 1407.59 97.816C1407.59 96.408 1406.64 95.48 1403.94 95.48V94.344C1406.35 94.344 1407.17 93.384 1407.17 92.104C1407.17 90.984 1406.42 90.248 1405.2 90.248C1404.26 90.248 1403.43 90.728 1402.77 91.4L1401.99 90.456C1402.87 89.656 1403.91 89.064 1405.25 89.064C1407.22 89.064 1408.66 90.136 1408.66 92.008C1408.66 93.432 1407.83 94.376 1406.58 94.824V94.888C1407.95 95.224 1409.07 96.264 1409.07 97.88C1409.07 99.96 1407.39 101.224 1405.3 101.224Z" fill="#1A1A1A"/>
<rect x="1344" y="114" width="108" height="160.112" rx="4" fill="#032213"/>
<rect x="686" y="284.611" width="64" height="23" rx="11.5" fill="white"/>
<rect x="686" y="284.611" width="64" height="23" rx="11.5" stroke="#949494"/>
<path d="M701.708 303.335C699.868 303.335 698.732 302.567 697.964 301.719L698.7 300.759C699.388 301.479 700.268 302.119 701.612 302.119C703.004 302.119 703.996 301.271 703.996 299.927C703.996 298.519 703.052 297.591 700.348 297.591V296.455C702.764 296.455 703.58 295.495 703.58 294.215C703.58 293.095 702.828 292.359 701.612 292.359C700.668 292.359 699.836 292.839 699.18 293.511L698.396 292.567C699.276 291.767 700.316 291.175 701.66 291.175C703.628 291.175 705.068 292.247 705.068 294.119C705.068 295.543 704.236 296.487 702.988 296.935V296.999C704.364 297.335 705.484 298.375 705.484 299.991C705.484 302.071 703.804 303.335 701.708 303.335ZM709.223 296.871C708.647 296.871 708.183 296.423 708.183 295.767C708.183 295.095 708.647 294.647 709.223 294.647C709.815 294.647 710.295 295.095 710.295 295.767C710.295 296.423 709.815 296.871 709.223 296.871ZM709.223 303.335C708.647 303.335 708.183 302.871 708.183 302.215C708.183 301.543 708.647 301.095 709.223 301.095C709.815 301.095 710.295 301.543 710.295 302.215C710.295 302.871 709.815 303.335 709.223 303.335ZM713.516 303.111V301.895H716.124V293.159H714.028V292.215C715.084 292.039 715.836 291.767 716.46 291.383H717.58V301.895H719.948V303.111H713.516ZM734.599 296.487C733.767 295.879 732.727 294.855 731.991 293.879L732.951 293.303C734.039 294.711 735.623 296.135 737.063 297.031C735.623 297.943 734.039 299.367 732.951 300.775L731.991 300.199C732.727 299.223 733.767 298.199 734.599 297.591H722.263V296.487H734.599Z" fill="black"/>
<rect x="908" y="284.611" width="78" height="23" rx="11.5" fill="white"/>
<rect x="908" y="284.611" width="78" height="23" rx="11.5" stroke="#949494"/>
<path d="M924.924 303.111V295.127C924.924 294.535 924.972 293.591 925.02 292.983H924.94C924.652 293.559 924.332 294.151 924.012 294.727L921.34 298.727H927.868V299.879H919.804V298.919L924.684 291.383H926.3V303.111H924.924ZM931.223 303.335C930.647 303.335 930.183 302.871 930.183 302.215C930.183 301.543 930.647 301.095 931.223 301.095C931.815 301.095 932.295 301.543 932.295 302.215C932.295 302.871 931.815 303.335 931.223 303.335ZM938.284 303.335C936.46 303.335 935.34 302.567 934.54 301.767L935.276 300.807C935.932 301.495 936.796 302.119 938.14 302.119C939.532 302.119 940.636 301.047 940.636 299.351C940.636 297.671 939.676 296.663 938.22 296.663C937.436 296.663 936.94 296.919 936.268 297.367L935.484 296.871L935.852 291.383H941.564V292.631H937.132L936.828 296.023C937.356 295.735 937.884 295.559 938.588 295.559C940.54 295.559 942.124 296.711 942.124 299.303C942.124 301.863 940.252 303.335 938.284 303.335ZM945.831 296.871C945.255 296.871 944.791 296.423 944.791 295.767C944.791 295.095 945.255 294.647 945.831 294.647C946.423 294.647 946.903 295.095 946.903 295.767C946.903 296.423 946.423 296.871 945.831 296.871ZM945.831 303.335C945.255 303.335 944.791 302.871 944.791 302.215C944.791 301.543 945.255 301.095 945.831 301.095C946.423 301.095 946.903 301.543 946.903 302.215C946.903 302.871 946.423 303.335 945.831 303.335ZM950.124 303.111V301.895H952.732V293.159H950.636V292.215C951.692 292.039 952.444 291.767 953.068 291.383H954.188V301.895H956.556V303.111H950.124ZM971.207 296.487C970.375 295.879 969.335 294.855 968.599 293.879L969.559 293.303C970.647 294.711 972.231 296.135 973.671 297.031C972.231 297.943 970.647 299.367 969.559 300.775L968.599 300.199C969.335 299.223 970.375 298.199 971.207 297.591H958.871V296.487H971.207Z" fill="black"/>
<rect x="914.5" y="315.963" width="65" height="24" rx="12" fill="black"/>
<path d="M929.508 329.443C930.34 330.051 931.38 331.075 932.116 332.051L931.156 332.627C930.068 331.219 928.484 329.795 927.06 328.883C928.484 327.987 930.068 326.563 931.156 325.155L932.116 325.731C931.38 326.707 930.34 327.731 929.508 328.339H941.86V329.443H929.508ZM947.348 335.187C945.508 335.187 944.372 334.419 943.604 333.571L944.34 332.611C945.028 333.331 945.908 333.971 947.252 333.971C948.644 333.971 949.636 333.123 949.636 331.779C949.636 330.371 948.692 329.443 945.988 329.443V328.307C948.404 328.307 949.22 327.347 949.22 326.067C949.22 324.947 948.468 324.211 947.252 324.211C946.308 324.211 945.476 324.691 944.82 325.363L944.036 324.419C944.916 323.619 945.956 323.027 947.3 323.027C949.268 323.027 950.708 324.099 950.708 325.971C950.708 327.395 949.876 328.339 948.628 328.787V328.851C950.004 329.187 951.124 330.227 951.124 331.843C951.124 333.923 949.444 335.187 947.348 335.187ZM954.863 328.723C954.287 328.723 953.823 328.275 953.823 327.619C953.823 326.947 954.287 326.499 954.863 326.499C955.455 326.499 955.935 326.947 955.935 327.619C955.935 328.275 955.455 328.723 954.863 328.723ZM954.863 335.187C954.287 335.187 953.823 334.723 953.823 334.067C953.823 333.395 954.287 332.947 954.863 332.947C955.455 332.947 955.935 333.395 955.935 334.067C955.935 334.723 955.455 335.187 954.863 335.187ZM959.156 334.963V333.747H961.764V325.011H959.668V324.067C960.724 323.891 961.476 323.619 962.1 323.235H963.22V333.747H965.588V334.963H959.156Z" fill="white"/>
<rect x="798.5" y="315.963" width="79" height="24" rx="12" fill="black"/>
<path d="M813.508 329.443C814.34 330.051 815.38 331.075 816.116 332.051L815.156 332.627C814.068 331.219 812.484 329.795 811.06 328.883C812.484 327.987 814.068 326.563 815.156 325.155L816.116 325.731C815.38 326.707 814.34 327.731 813.508 328.339H825.86V329.443H813.508ZM832.564 334.963V326.979C832.564 326.387 832.612 325.443 832.66 324.835H832.58C832.292 325.411 831.972 326.003 831.652 326.579L828.98 330.579H835.508V331.731H827.444V330.771L832.324 323.235H833.94V334.963H832.564ZM838.863 335.187C838.287 335.187 837.823 334.723 837.823 334.067C837.823 333.395 838.287 332.947 838.863 332.947C839.455 332.947 839.935 333.395 839.935 334.067C839.935 334.723 839.455 335.187 838.863 335.187ZM845.924 335.187C844.1 335.187 842.98 334.419 842.18 333.619L842.916 332.659C843.572 333.347 844.436 333.971 845.78 333.971C847.172 333.971 848.276 332.899 848.276 331.203C848.276 329.523 847.316 328.515 845.86 328.515C845.076 328.515 844.58 328.771 843.908 329.219L843.124 328.723L843.492 323.235H849.204V324.483H844.772L844.468 327.875C844.996 327.587 845.524 327.411 846.228 327.411C848.18 327.411 849.764 328.563 849.764 331.155C849.764 333.715 847.892 335.187 845.924 335.187ZM853.471 328.723C852.895 328.723 852.431 328.275 852.431 327.619C852.431 326.947 852.895 326.499 853.471 326.499C854.063 326.499 854.543 326.947 854.543 327.619C854.543 328.275 854.063 328.723 853.471 328.723ZM853.471 335.187C852.895 335.187 852.431 334.723 852.431 334.067C852.431 333.395 852.895 332.947 853.471 332.947C854.063 332.947 854.543 333.395 854.543 334.067C854.543 334.723 854.063 335.187 853.471 335.187ZM857.764 334.963V333.747H860.372V325.011H858.276V324.067C859.332 323.891 860.084 323.619 860.708 323.235H861.828V333.747H864.196V334.963H857.764Z" fill="white"/>
<path d="M8.18 16.28C4.16 16.28 1.08 13.6 1.08 8.66C1.08 3.78 4.24 0.92 8.18 0.92C10.32 0.92 11.8 1.84 12.76 2.82L11.2 4.7C10.46 4 9.62 3.46 8.28 3.46C5.82 3.46 4.1 5.38 4.1 8.56C4.1 11.78 5.58 13.72 8.5 13.72C9.2 13.72 9.92 13.52 10.34 13.16V10.24H7.72V7.82H12.98V14.5C11.98 15.48 10.24 16.28 8.18 16.28ZM15.9159 16V4.8H18.3159L18.5359 6.78H18.5959C19.4159 5.32 20.6159 4.52 21.7759 4.52C22.3959 4.52 22.7559 4.62 23.0959 4.76L22.5959 7.3C22.1959 7.18 21.8759 7.12 21.4159 7.12C20.5359 7.12 19.4759 7.7 18.8559 9.32V16H15.9159ZM29.2725 16.28C26.1325 16.28 23.6925 14.1 23.6925 10.4C23.6925 6.78 26.2525 4.52 28.9125 4.52C31.9925 4.52 33.5925 6.78 33.5925 9.86C33.5925 10.42 33.5325 10.96 33.4525 11.22H26.5525C26.7925 13.06 27.9925 14.02 29.6525 14.02C30.5725 14.02 31.3725 13.74 32.1725 13.24L33.1725 15.04C32.0725 15.8 30.6525 16.28 29.2725 16.28ZM26.5125 9.26H31.0725C31.0725 7.76 30.3925 6.8 28.9525 6.8C27.7725 6.8 26.7325 7.64 26.5125 9.26ZM40.8936 16.28C37.7536 16.28 35.3136 14.1 35.3136 10.4C35.3136 6.78 37.8736 4.52 40.5336 4.52C43.6136 4.52 45.2136 6.78 45.2136 9.86C45.2136 10.42 45.1536 10.96 45.0736 11.22H38.1736C38.4136 13.06 39.6136 14.02 41.2736 14.02C42.1936 14.02 42.9936 13.74 43.7936 13.24L44.7936 15.04C43.6936 15.8 42.2736 16.28 40.8936 16.28ZM38.1336 9.26H42.6936C42.6936 7.76 42.0136 6.8 40.5736 6.8C39.3936 6.8 38.3536 7.64 38.1336 9.26ZM47.6347 16V4.8H50.0347L50.2547 6.28H50.3147C51.2947 5.32 52.4347 4.52 53.9547 4.52C56.3747 4.52 57.4147 6.2 57.4147 9.02V16H54.4747V9.38C54.4747 7.64 53.9947 7.04 52.8947 7.04C51.9747 7.04 51.3947 7.48 50.5747 8.3V16H47.6347Z" fill="#1A1A1A"/>
</svg>
