<svg width="1452" height="340" viewBox="0 0 1452 340" fill="none" xmlns="http://www.w3.org/2000/svg">
<path d="M6.264 75.336C3.528 75.336 1.848 74.184 0.648 72.984L1.752 71.544C2.736 72.576 4.032 73.512 6.048 73.512C8.136 73.512 9.792 71.904 9.792 69.36C9.792 66.84 8.352 65.328 6.168 65.328C4.992 65.328 4.248 65.712 3.24 66.384L2.064 65.64L2.616 57.408H11.184V59.28H4.536L4.08 64.368C4.872 63.936 5.664 63.672 6.72 63.672C9.648 63.672 12.024 65.4 12.024 69.288C12.024 73.128 9.216 75.336 6.264 75.336ZM20.9445 75.336C17.5845 75.336 15.4485 72.288 15.4485 66.144C15.4485 60.048 17.5845 57.096 20.9445 57.096C24.2565 57.096 26.3925 60.048 26.3925 66.144C26.3925 72.288 24.2565 75.336 20.9445 75.336ZM20.9445 73.56C22.9365 73.56 24.2805 71.328 24.2805 66.144C24.2805 61.032 22.9365 58.848 20.9445 58.848C18.9285 58.848 17.5605 61.032 17.5605 66.144C17.5605 71.328 18.9285 73.56 20.9445 73.56Z" fill="#1A1A1A"/>
<path d="M1.616 100L2.048 96.352H0.624V95.328H2.176L2.512 92.688H0.992V91.664H2.624L3.04 88.384H3.984L3.568 91.664H5.936L6.368 88.384H7.312L6.896 91.664H8.336V92.688H6.784L6.448 95.328H7.984V96.352H6.32L5.888 100H4.944L5.36 96.352H3.008L2.56 100H1.616ZM3.12 95.328H5.504L5.824 92.688H3.44L3.12 95.328ZM11.115 100V88.272H17.867V89.52H12.603V93.504H17.067V94.736H12.603V100H11.115ZM23.4311 100.224C21.1431 100.224 19.7671 98.096 19.7671 94.272C19.7671 90.448 21.1431 88.4 23.4311 88.4C25.6871 88.4 27.0631 90.448 27.0631 94.272C27.0631 98.096 25.6871 100.224 23.4311 100.224ZM23.4311 99.04C24.7591 99.04 25.6551 97.616 25.6551 94.272C25.6551 90.912 24.7591 89.568 23.4311 89.568C22.0871 89.568 21.1751 90.912 21.1751 94.272C21.1751 97.616 22.0871 99.04 23.4311 99.04ZM30.0981 100V88.272H36.8501V89.52H31.5861V93.504H36.0501V94.736H31.5861V100H30.0981ZM41.6303 100.224C40.3983 100.224 39.5023 99.712 38.8783 99.024L39.6943 98.096C40.1583 98.672 40.8623 99.008 41.5663 99.008C43.2143 99.008 44.5903 97.712 44.5903 93.872C44.5903 91.056 43.6783 89.536 42.0303 89.536C40.9103 89.536 40.0463 90.528 40.0463 92.048C40.0463 93.536 40.7503 94.48 42.1583 94.48C42.9103 94.48 43.8383 94.032 44.6063 92.848L44.6863 94.016C43.9503 94.976 42.8783 95.568 41.9183 95.568C39.9343 95.568 38.6703 94.384 38.6703 92.048C38.6703 89.872 40.2063 88.4 42.0303 88.4C44.2863 88.4 45.9663 90.208 45.9663 93.872C45.9663 98.464 43.8863 100.224 41.6303 100.224ZM49.0813 100V88.272H55.8333V89.52H50.5693V93.504H55.0333V94.736H50.5693V100H49.0813ZM58.5494 100V88.272H65.3014V89.52H60.0374V93.504H64.5014V94.736H60.0374V100H58.5494Z" fill="#1A1A1A"/>
<rect y="113" width="108" height="160.112" rx="4" fill="#F0F9FF"/>
<path d="M114.112 75V73.176H118.024V60.072H114.88V58.656C116.464 58.392 117.592 57.984 118.528 57.408H120.208V73.176H123.76V75H114.112ZM132.945 75.336C129.585 75.336 127.449 72.288 127.449 66.144C127.449 60.048 129.585 57.096 132.945 57.096C136.257 57.096 138.392 60.048 138.392 66.144C138.392 72.288 136.257 75.336 132.945 75.336ZM132.945 73.56C134.937 73.56 136.281 71.328 136.281 66.144C136.281 61.032 134.937 58.848 132.945 58.848C130.929 58.848 129.561 61.032 129.561 66.144C129.561 71.328 130.929 73.56 132.945 73.56ZM147.217 75.336C143.857 75.336 141.721 72.288 141.721 66.144C141.721 60.048 143.857 57.096 147.217 57.096C150.529 57.096 152.665 60.048 152.665 66.144C152.665 72.288 150.529 75.336 147.217 75.336ZM147.217 73.56C149.209 73.56 150.553 71.328 150.553 66.144C150.553 61.032 149.209 58.848 147.217 58.848C145.201 58.848 143.833 61.032 143.833 66.144C143.833 71.328 145.201 73.56 147.217 73.56Z" fill="#1A1A1A"/>
<path d="M113.616 100L114.048 96.352H112.624V95.328H114.176L114.512 92.688H112.992V91.664H114.624L115.04 88.384H115.984L115.568 91.664H117.936L118.368 88.384H119.312L118.896 91.664H120.336V92.688H118.784L118.448 95.328H119.984V96.352H118.32L117.888 100H116.944L117.36 96.352H115.008L114.56 100H113.616ZM115.12 95.328H117.504L117.824 92.688H115.44L115.12 95.328ZM123.115 100V88.272H126.043C129.659 88.272 131.579 90.368 131.579 94.096C131.579 97.824 129.659 100 126.123 100H123.115ZM124.603 98.784H125.931C128.683 98.784 130.059 97.072 130.059 94.096C130.059 91.12 128.683 89.488 125.931 89.488H124.603V98.784ZM139.203 100.224C136.275 100.224 134.099 97.952 134.099 94.144C134.099 90.368 136.323 88.064 139.299 88.064C140.723 88.064 141.827 88.752 142.515 89.504L141.699 90.464C141.091 89.808 140.307 89.36 139.315 89.36C137.091 89.36 135.619 91.184 135.619 94.112C135.619 97.072 137.027 98.912 139.267 98.912C140.371 98.912 141.235 98.432 141.987 97.6L142.787 98.528C141.859 99.616 140.723 100.224 139.203 100.224ZM145.614 100V88.272H152.366V89.52H147.102V93.504H151.566V94.736H147.102V100H145.614ZM157.93 100.224C155.642 100.224 154.266 98.096 154.266 94.272C154.266 90.448 155.642 88.4 157.93 88.4C160.186 88.4 161.562 90.448 161.562 94.272C161.562 98.096 160.186 100.224 157.93 100.224ZM157.93 99.04C159.258 99.04 160.154 97.616 160.154 94.272C160.154 90.912 159.258 89.568 157.93 89.568C156.586 89.568 155.674 90.912 155.674 94.272C155.674 97.616 156.586 99.04 157.93 99.04ZM164.597 100V88.272H171.349V89.52H166.085V93.504H170.549V94.736H166.085V100H164.597ZM174.065 100V88.272H180.817V89.52H175.553V93.504H180.017V94.736H175.553V100H174.065Z" fill="#1A1A1A"/>
<rect x="112" y="113" width="108" height="160.112" rx="4" fill="#DCF0FF"/>
<path d="M225.056 75V73.728C230.576 68.904 233.096 65.376 233.096 62.376C233.096 60.36 232.064 58.872 229.88 58.872C228.44 58.872 227.192 59.76 226.208 60.912L224.936 59.688C226.376 58.128 227.912 57.096 230.144 57.096C233.288 57.096 235.256 59.136 235.256 62.28C235.256 65.808 232.496 69.384 228.344 73.296C229.28 73.2 230.336 73.128 231.224 73.128H236.096V75H225.056ZM244.945 75.336C241.585 75.336 239.449 72.288 239.449 66.144C239.449 60.048 241.585 57.096 244.945 57.096C248.257 57.096 250.392 60.048 250.392 66.144C250.392 72.288 248.257 75.336 244.945 75.336ZM244.945 73.56C246.937 73.56 248.281 71.328 248.281 66.144C248.281 61.032 246.937 58.848 244.945 58.848C242.929 58.848 241.561 61.032 241.561 66.144C241.561 71.328 242.929 73.56 244.945 73.56ZM259.217 75.336C255.857 75.336 253.721 72.288 253.721 66.144C253.721 60.048 255.857 57.096 259.217 57.096C262.529 57.096 264.665 60.048 264.665 66.144C264.665 72.288 262.529 75.336 259.217 75.336ZM259.217 73.56C261.209 73.56 262.553 71.328 262.553 66.144C262.553 61.032 261.209 58.848 259.217 58.848C257.201 58.848 255.833 61.032 255.833 66.144C255.833 71.328 257.201 73.56 259.217 73.56Z" fill="#1A1A1A"/>
<path d="M225.616 100L226.048 96.352H224.624V95.328H226.176L226.512 92.688H224.992V91.664H226.624L227.04 88.384H227.984L227.568 91.664H229.936L230.368 88.384H231.312L230.896 91.664H232.336V92.688H230.784L230.448 95.328H231.984V96.352H230.32L229.888 100H228.944L229.36 96.352H227.008L226.56 100H225.616ZM227.12 95.328H229.504L229.824 92.688H227.44L227.12 95.328ZM239.547 100.224C236.619 100.224 234.443 97.952 234.443 94.144C234.443 90.368 236.667 88.064 239.643 88.064C241.067 88.064 242.171 88.752 242.859 89.504L242.043 90.464C241.435 89.808 240.651 89.36 239.659 89.36C237.435 89.36 235.963 91.184 235.963 94.112C235.963 97.072 237.371 98.912 239.611 98.912C240.715 98.912 241.579 98.432 242.331 97.6L243.131 98.528C242.203 99.616 241.067 100.224 239.547 100.224ZM248.806 100.224C246.518 100.224 245.142 98.096 245.142 94.272C245.142 90.448 246.518 88.4 248.806 88.4C251.062 88.4 252.438 90.448 252.438 94.272C252.438 98.096 251.062 100.224 248.806 100.224ZM248.806 99.04C250.134 99.04 251.03 97.616 251.03 94.272C251.03 90.912 250.134 89.568 248.806 89.568C247.462 89.568 246.55 90.912 246.55 94.272C246.55 97.616 247.462 99.04 248.806 99.04ZM255.473 100V88.272H262.225V89.52H256.961V93.2H261.393V94.464H256.961V98.752H262.401V100H255.473ZM269.359 100V92.352C269.359 91.76 269.407 90.768 269.455 90.176H269.375C269.087 90.704 268.767 91.216 268.447 91.776L265.775 95.696H272.303V96.848H264.239V95.888L269.119 88.608H270.735V100H269.359ZM275.05 100V88.272H281.802V89.52H276.538V93.504H281.002V94.736H276.538V100H275.05ZM284.518 100V88.272H291.27V89.52H286.006V93.504H290.47V94.736H286.006V100H284.518Z" fill="#1A1A1A"/>
<rect x="224" y="113" width="108" height="160.112" rx="4" fill="#C0E4FF"/>
<path d="M342.312 75.336C339.552 75.336 337.848 74.184 336.696 72.912L337.8 71.472C338.832 72.552 340.152 73.512 342.168 73.512C344.256 73.512 345.744 72.24 345.744 70.224C345.744 68.112 344.328 66.72 340.272 66.72V65.016C343.896 65.016 345.12 63.576 345.12 61.656C345.12 59.976 343.992 58.872 342.168 58.872C340.752 58.872 339.504 59.592 338.52 60.6L337.344 59.184C338.664 57.984 340.224 57.096 342.24 57.096C345.192 57.096 347.352 58.704 347.352 61.512C347.352 63.648 346.104 65.064 344.232 65.736V65.832C346.296 66.336 347.976 67.896 347.976 70.32C347.976 73.44 345.456 75.336 342.312 75.336ZM356.945 75.336C353.585 75.336 351.449 72.288 351.449 66.144C351.449 60.048 353.585 57.096 356.945 57.096C360.257 57.096 362.392 60.048 362.392 66.144C362.392 72.288 360.257 75.336 356.945 75.336ZM356.945 73.56C358.937 73.56 360.281 71.328 360.281 66.144C360.281 61.032 358.937 58.848 356.945 58.848C354.929 58.848 353.561 61.032 353.561 66.144C353.561 71.328 354.929 73.56 356.945 73.56ZM371.217 75.336C367.857 75.336 365.721 72.288 365.721 66.144C365.721 60.048 367.857 57.096 371.217 57.096C374.529 57.096 376.665 60.048 376.665 66.144C376.665 72.288 374.529 75.336 371.217 75.336ZM371.217 73.56C373.209 73.56 374.553 71.328 374.553 66.144C374.553 61.032 373.209 58.848 371.217 58.848C369.201 58.848 367.833 61.032 367.833 66.144C367.833 71.328 369.201 73.56 371.217 73.56Z" fill="#1A1A1A"/>
<path d="M337.616 100L338.048 96.352H336.624V95.328H338.176L338.512 92.688H336.992V91.664H338.624L339.04 88.384H339.984L339.568 91.664H341.936L342.368 88.384H343.312L342.896 91.664H344.336V92.688H342.784L342.448 95.328H343.984V96.352H342.32L341.888 100H340.944L341.36 96.352H339.008L338.56 100H337.616ZM339.12 95.328H341.504L341.824 92.688H339.44L339.12 95.328ZM349.179 100.224C347.947 100.224 347.051 99.712 346.427 99.024L347.243 98.096C347.707 98.672 348.411 99.008 349.115 99.008C350.763 99.008 352.139 97.712 352.139 93.872C352.139 91.056 351.227 89.536 349.579 89.536C348.459 89.536 347.595 90.528 347.595 92.048C347.595 93.536 348.299 94.48 349.707 94.48C350.459 94.48 351.387 94.032 352.155 92.848L352.235 94.016C351.499 94.976 350.427 95.568 349.467 95.568C347.483 95.568 346.219 94.384 346.219 92.048C346.219 89.872 347.755 88.4 349.579 88.4C351.835 88.4 353.515 90.208 353.515 93.872C353.515 98.464 351.435 100.224 349.179 100.224ZM358.182 100C358.39 95.712 359.254 92.976 361.494 89.856H355.814V88.608H363.142V89.504C360.454 92.944 359.894 95.552 359.702 100H358.182ZM366.145 100V88.272H369.073C372.689 88.272 374.609 90.368 374.609 94.096C374.609 97.824 372.689 100 369.153 100H366.145ZM367.633 98.784H368.961C371.713 98.784 373.089 97.072 373.089 94.096C373.089 91.12 371.713 89.488 368.961 89.488H367.633V98.784ZM380.409 100.224C378.569 100.224 377.433 99.456 376.665 98.608L377.401 97.648C378.089 98.368 378.969 99.008 380.313 99.008C381.705 99.008 382.697 98.192 382.697 96.912C382.697 95.552 381.753 94.64 379.049 94.64V93.52C381.465 93.52 382.281 92.576 382.281 91.376C382.281 90.272 381.529 89.568 380.313 89.568C379.369 89.568 378.537 90.064 377.881 90.736L377.097 89.808C377.977 88.992 379.017 88.4 380.361 88.4C382.329 88.4 383.769 89.44 383.769 91.28C383.769 92.656 382.937 93.536 381.689 94V94.064C383.065 94.384 384.185 95.408 384.185 96.96C384.185 98.992 382.505 100.224 380.409 100.224ZM387.316 100V88.272H394.068V89.52H388.804V93.504H393.268V94.736H388.804V100H387.316ZM396.784 100V88.272H403.536V89.52H398.272V93.504H402.736V94.736H398.272V100H396.784Z" fill="#1A1A1A"/>
<rect x="336" y="113" width="108" height="160.112" rx="4" fill="#97D3FF"/>
<path d="M456.136 75V63.024C456.136 62.136 456.208 60.72 456.28 59.808H456.16C455.728 60.672 455.248 61.56 454.768 62.424L450.76 68.424H460.552V70.152H448.456V68.712L455.776 57.408H458.2V75H456.136ZM468.945 75.336C465.585 75.336 463.449 72.288 463.449 66.144C463.449 60.048 465.585 57.096 468.945 57.096C472.257 57.096 474.392 60.048 474.392 66.144C474.392 72.288 472.257 75.336 468.945 75.336ZM468.945 73.56C470.937 73.56 472.281 71.328 472.281 66.144C472.281 61.032 470.937 58.848 468.945 58.848C466.929 58.848 465.561 61.032 465.561 66.144C465.561 71.328 466.929 73.56 468.945 73.56ZM483.217 75.336C479.857 75.336 477.721 72.288 477.721 66.144C477.721 60.048 479.857 57.096 483.217 57.096C486.529 57.096 488.665 60.048 488.665 66.144C488.665 72.288 486.529 75.336 483.217 75.336ZM483.217 73.56C485.209 73.56 486.553 71.328 486.553 66.144C486.553 61.032 485.209 58.848 483.217 58.848C481.201 58.848 479.833 61.032 479.833 66.144C479.833 71.328 481.201 73.56 483.217 73.56Z" fill="#1A1A1A"/>
<path d="M449.616 100L450.048 96.352H448.624V95.328H450.176L450.512 92.688H448.992V91.664H450.624L451.04 88.384H451.984L451.568 91.664H453.936L454.368 88.384H455.312L454.896 91.664H456.336V92.688H454.784L454.448 95.328H455.984V96.352H454.32L453.888 100H452.944L453.36 96.352H451.008L450.56 100H449.616ZM451.12 95.328H453.504L453.824 92.688H451.44L451.12 95.328ZM461.691 100.224C459.867 100.224 458.747 99.456 457.947 98.656L458.683 97.696C459.339 98.384 460.203 99.008 461.547 99.008C462.939 99.008 464.043 98 464.043 96.4C464.043 94.832 463.083 93.888 461.627 93.888C460.843 93.888 460.347 94.144 459.675 94.592L458.891 94.096L459.259 88.608H464.971V89.856H460.539L460.235 93.248C460.763 92.96 461.291 92.784 461.995 92.784C463.947 92.784 465.531 93.888 465.531 96.352C465.531 98.832 463.659 100.224 461.691 100.224ZM470.182 100C470.39 95.712 471.254 92.976 473.494 89.856H467.814V88.608H475.142V89.504C472.454 92.944 471.894 95.552 471.702 100H470.182ZM478.145 100V88.272H481.617C484.001 88.272 485.649 89.088 485.649 91.152C485.649 92.304 485.041 93.328 483.937 93.696V93.76C485.345 94.032 486.321 94.976 486.321 96.576C486.321 98.864 484.497 100 481.889 100H478.145ZM479.633 93.264H481.361C483.377 93.264 484.193 92.528 484.193 91.328C484.193 89.952 483.265 89.44 481.441 89.44H479.633V93.264ZM479.633 98.832H481.681C483.681 98.832 484.881 98.112 484.881 96.528C484.881 95.072 483.729 94.4 481.681 94.4H479.633V98.832ZM492.165 100.224C490.005 100.224 488.421 98.912 488.421 97.104C488.421 95.6 489.509 94.576 490.581 94.016V93.952C489.733 93.36 488.981 92.512 488.981 91.312C488.981 89.552 490.373 88.4 492.213 88.4C494.213 88.4 495.429 89.648 495.429 91.424C495.429 92.624 494.549 93.632 493.861 94.16V94.24C494.869 94.848 495.845 95.648 495.845 97.184C495.845 98.896 494.357 100.224 492.165 100.224ZM492.965 93.792C493.749 93.088 494.181 92.336 494.181 91.488C494.181 90.368 493.445 89.472 492.181 89.472C491.109 89.472 490.325 90.208 490.325 91.312C490.325 92.672 491.589 93.248 492.965 93.792ZM492.197 99.12C493.541 99.12 494.437 98.304 494.437 97.136C494.437 95.648 492.997 95.136 491.349 94.464C490.405 95.072 489.733 95.904 489.733 96.96C489.733 98.208 490.789 99.12 492.197 99.12ZM498.816 100V88.272H505.568V89.52H500.304V93.504H504.768V94.736H500.304V100H498.816ZM508.284 100V88.272H515.036V89.52H509.772V93.504H514.236V94.736H509.772V100H508.284Z" fill="#1A1A1A"/>
<rect x="448" y="113" width="108" height="160.112" rx="4" fill="#57B8FF"/>
<path d="M566.264 75.336C563.528 75.336 561.848 74.184 560.648 72.984L561.752 71.544C562.736 72.576 564.032 73.512 566.048 73.512C568.136 73.512 569.792 71.904 569.792 69.36C569.792 66.84 568.352 65.328 566.168 65.328C564.992 65.328 564.248 65.712 563.24 66.384L562.064 65.64L562.616 57.408H571.184V59.28H564.536L564.08 64.368C564.872 63.936 565.664 63.672 566.72 63.672C569.648 63.672 572.024 65.4 572.024 69.288C572.024 73.128 569.216 75.336 566.264 75.336ZM580.945 75.336C577.585 75.336 575.449 72.288 575.449 66.144C575.449 60.048 577.585 57.096 580.945 57.096C584.257 57.096 586.392 60.048 586.392 66.144C586.392 72.288 584.257 75.336 580.945 75.336ZM580.945 73.56C582.937 73.56 584.281 71.328 584.281 66.144C584.281 61.032 582.937 58.848 580.945 58.848C578.929 58.848 577.561 61.032 577.561 66.144C577.561 71.328 578.929 73.56 580.945 73.56ZM595.217 75.336C591.857 75.336 589.721 72.288 589.721 66.144C589.721 60.048 591.857 57.096 595.217 57.096C598.529 57.096 600.665 60.048 600.665 66.144C600.665 72.288 598.529 75.336 595.217 75.336ZM595.217 73.56C597.209 73.56 598.553 71.328 598.553 66.144C598.553 61.032 597.209 58.848 595.217 58.848C593.201 58.848 591.833 61.032 591.833 66.144C591.833 71.328 593.201 73.56 595.217 73.56Z" fill="#1A1A1A"/>
<path d="M561.616 100L562.048 96.352H560.624V95.328H562.176L562.512 92.688H560.992V91.664H562.624L563.04 88.384H563.984L563.568 91.664H565.936L566.368 88.384H567.312L566.896 91.664H568.336V92.688H566.784L566.448 95.328H567.984V96.352H566.32L565.888 100H564.944L565.36 96.352H563.008L562.56 100H561.616ZM563.12 95.328H565.504L565.824 92.688H563.44L563.12 95.328ZM573.723 100.224C571.883 100.224 570.747 99.456 569.979 98.608L570.715 97.648C571.403 98.368 572.283 99.008 573.627 99.008C575.019 99.008 576.011 98.192 576.011 96.912C576.011 95.552 575.067 94.64 572.363 94.64V93.52C574.779 93.52 575.595 92.576 575.595 91.376C575.595 90.272 574.843 89.568 573.627 89.568C572.683 89.568 571.851 90.064 571.195 90.736L570.411 89.808C571.291 88.992 572.331 88.4 573.675 88.4C575.643 88.4 577.083 89.44 577.083 91.28C577.083 92.656 576.251 93.536 575.003 94V94.064C576.379 94.384 577.499 95.408 577.499 96.96C577.499 98.992 575.819 100.224 573.723 100.224ZM582.694 100.224C581.462 100.224 580.566 99.712 579.942 99.024L580.758 98.096C581.222 98.672 581.926 99.008 582.63 99.008C584.278 99.008 585.654 97.712 585.654 93.872C585.654 91.056 584.742 89.536 583.094 89.536C581.974 89.536 581.11 90.528 581.11 92.048C581.11 93.536 581.814 94.48 583.222 94.48C583.974 94.48 584.902 94.032 585.67 92.848L585.75 94.016C585.014 94.976 583.942 95.568 582.982 95.568C580.998 95.568 579.734 94.384 579.734 92.048C579.734 89.872 581.27 88.4 583.094 88.4C585.35 88.4 587.03 90.208 587.03 93.872C587.03 98.464 584.95 100.224 582.694 100.224ZM588.593 100L592.561 88.272H594.225L598.193 100H596.641L594.577 93.44C594.161 92.128 593.793 90.848 593.409 89.488H593.345C592.961 90.848 592.593 92.128 592.161 93.44L590.097 100H588.593ZM590.673 96.416V95.248H596.081V96.416H590.673ZM600.519 100V88.272H603.991C606.375 88.272 608.023 89.088 608.023 91.152C608.023 92.304 607.415 93.328 606.311 93.696V93.76C607.719 94.032 608.695 94.976 608.695 96.576C608.695 98.864 606.871 100 604.263 100H600.519ZM602.007 93.264H603.735C605.751 93.264 606.567 92.528 606.567 91.328C606.567 89.952 605.639 89.44 603.815 89.44H602.007V93.264ZM602.007 98.832H604.055C606.055 98.832 607.255 98.112 607.255 96.528C607.255 95.072 606.103 94.4 604.055 94.4H602.007V98.832ZM611.675 100V88.272H618.427V89.52H613.163V93.504H617.627V94.736H613.163V100H611.675ZM621.143 100V88.272H627.895V89.52H622.631V93.504H627.095V94.736H622.631V100H621.143Z" fill="#1A1A1A"/>
<rect x="560" y="113" width="108" height="160.112" rx="4" fill="#39ABFF"/>
<path d="M679.224 75.336C675.84 75.336 673.32 72.432 673.32 66.624C673.32 59.736 676.416 57.096 679.824 57.096C681.648 57.096 682.992 57.864 683.952 58.896L682.728 60.24C682.056 59.424 680.976 58.92 679.92 58.92C677.448 58.92 675.384 60.864 675.384 66.624C675.384 71.136 676.752 73.608 679.224 73.608C680.904 73.608 682.2 72 682.2 69.624C682.2 67.224 681.144 65.712 679.032 65.712C677.904 65.712 676.488 66.384 675.312 68.136L675.24 66.384C676.32 64.968 677.952 64.104 679.368 64.104C682.344 64.104 684.264 65.928 684.264 69.624C684.264 73.032 681.936 75.336 679.224 75.336ZM692.945 75.336C689.585 75.336 687.449 72.288 687.449 66.144C687.449 60.048 689.585 57.096 692.945 57.096C696.257 57.096 698.392 60.048 698.392 66.144C698.392 72.288 696.257 75.336 692.945 75.336ZM692.945 73.56C694.937 73.56 696.281 71.328 696.281 66.144C696.281 61.032 694.937 58.848 692.945 58.848C690.929 58.848 689.561 61.032 689.561 66.144C689.561 71.328 690.929 73.56 692.945 73.56ZM707.217 75.336C703.857 75.336 701.721 72.288 701.721 66.144C701.721 60.048 703.857 57.096 707.217 57.096C710.529 57.096 712.665 60.048 712.665 66.144C712.665 72.288 710.529 75.336 707.217 75.336ZM707.217 73.56C709.209 73.56 710.553 71.328 710.553 66.144C710.553 61.032 709.209 58.848 707.217 58.848C705.201 58.848 703.833 61.032 703.833 66.144C703.833 71.328 705.201 73.56 707.217 73.56Z" fill="#1A1A1A"/>
<path d="M673.616 100L674.048 96.352H672.624V95.328H674.176L674.512 92.688H672.992V91.664H674.624L675.04 88.384H675.984L675.568 91.664H677.936L678.368 88.384H679.312L678.896 91.664H680.336V92.688H678.784L678.448 95.328H679.984V96.352H678.32L677.888 100H676.944L677.36 96.352H675.008L674.56 100H673.616ZM675.12 95.328H677.504L677.824 92.688H675.44L675.12 95.328ZM685.963 100.224C683.675 100.224 682.299 98.096 682.299 94.272C682.299 90.448 683.675 88.4 685.963 88.4C688.219 88.4 689.595 90.448 689.595 94.272C689.595 98.096 688.219 100.224 685.963 100.224ZM685.963 99.04C687.291 99.04 688.187 97.616 688.187 94.272C688.187 90.912 687.291 89.568 685.963 89.568C684.619 89.568 683.707 90.912 683.707 94.272C683.707 97.616 684.619 99.04 685.963 99.04ZM695.478 100.224C693.19 100.224 691.814 98.096 691.814 94.272C691.814 90.448 693.19 88.4 695.478 88.4C697.734 88.4 699.11 90.448 699.11 94.272C699.11 98.096 697.734 100.224 695.478 100.224ZM695.478 99.04C696.806 99.04 697.702 97.616 697.702 94.272C697.702 90.912 696.806 89.568 695.478 89.568C694.134 89.568 693.222 90.912 693.222 94.272C693.222 97.616 694.134 99.04 695.478 99.04ZM705.009 100.224C702.849 100.224 701.265 98.912 701.265 97.104C701.265 95.6 702.353 94.576 703.425 94.016V93.952C702.577 93.36 701.825 92.512 701.825 91.312C701.825 89.552 703.217 88.4 705.057 88.4C707.057 88.4 708.273 89.648 708.273 91.424C708.273 92.624 707.393 93.632 706.705 94.16V94.24C707.713 94.848 708.689 95.648 708.689 97.184C708.689 98.896 707.201 100.224 705.009 100.224ZM705.809 93.792C706.593 93.088 707.025 92.336 707.025 91.488C707.025 90.368 706.289 89.472 705.025 89.472C703.953 89.472 703.169 90.208 703.169 91.312C703.169 92.672 704.433 93.248 705.809 93.792ZM705.041 99.12C706.385 99.12 707.281 98.304 707.281 97.136C707.281 95.648 705.841 95.136 704.193 94.464C703.249 95.072 702.577 95.904 702.577 96.96C702.577 98.208 703.633 99.12 705.041 99.12ZM711.66 100V88.272H715.132C717.516 88.272 719.164 89.088 719.164 91.152C719.164 92.304 718.556 93.328 717.452 93.696V93.76C718.86 94.032 719.836 94.976 719.836 96.576C719.836 98.864 718.012 100 715.404 100H711.66ZM713.148 93.264H714.876C716.892 93.264 717.708 92.528 717.708 91.328C717.708 89.952 716.78 89.44 714.956 89.44H713.148V93.264ZM713.148 98.832H715.196C717.196 98.832 718.396 98.112 718.396 96.528C718.396 95.072 717.244 94.4 715.196 94.4H713.148V98.832ZM722.816 100V88.272H729.568V89.52H724.304V93.504H728.768V94.736H724.304V100H722.816ZM731.388 100V99.152C734.828 95.728 736.748 93.664 736.748 91.792C736.748 90.496 736.06 89.568 734.604 89.568C733.644 89.568 732.812 90.176 732.156 90.944L731.308 90.112C732.268 89.072 733.292 88.4 734.78 88.4C736.876 88.4 738.188 89.712 738.188 91.744C738.188 93.888 736.22 96.016 733.516 98.864C734.124 98.8 734.844 98.752 735.436 98.752H738.748V100H731.388Z" fill="#1A1A1A"/>
<rect x="672" y="113" width="108" height="160.112" rx="4" fill="#008BF2"/>
<path d="M788.728 75C789.04 68.352 790.24 64.08 793.696 59.28H785.176V57.408H796.168V58.728C792.04 64.032 791.296 68.136 791.008 75H788.728ZM804.945 75.336C801.585 75.336 799.449 72.288 799.449 66.144C799.449 60.048 801.585 57.096 804.945 57.096C808.257 57.096 810.392 60.048 810.392 66.144C810.392 72.288 808.257 75.336 804.945 75.336ZM804.945 73.56C806.937 73.56 808.281 71.328 808.281 66.144C808.281 61.032 806.937 58.848 804.945 58.848C802.929 58.848 801.561 61.032 801.561 66.144C801.561 71.328 802.929 73.56 804.945 73.56ZM819.217 75.336C815.857 75.336 813.721 72.288 813.721 66.144C813.721 60.048 815.857 57.096 819.217 57.096C822.529 57.096 824.665 60.048 824.665 66.144C824.665 72.288 822.529 75.336 819.217 75.336ZM819.217 73.56C821.209 73.56 822.553 71.328 822.553 66.144C822.553 61.032 821.209 58.848 819.217 58.848C817.201 58.848 815.833 61.032 815.833 66.144C815.833 71.328 817.201 73.56 819.217 73.56Z" fill="#1A1A1A"/>
<path d="M785.616 100L786.048 96.352H784.624V95.328H786.176L786.512 92.688H784.992V91.664H786.624L787.04 88.384H787.984L787.568 91.664H789.936L790.368 88.384H791.312L790.896 91.664H792.336V92.688H790.784L790.448 95.328H791.984V96.352H790.32L789.888 100H788.944L789.36 96.352H787.008L786.56 100H785.616ZM787.12 95.328H789.504L789.824 92.688H787.44L787.12 95.328ZM797.963 100.224C795.675 100.224 794.299 98.096 794.299 94.272C794.299 90.448 795.675 88.4 797.963 88.4C800.219 88.4 801.595 90.448 801.595 94.272C801.595 98.096 800.219 100.224 797.963 100.224ZM797.963 99.04C799.291 99.04 800.187 97.616 800.187 94.272C800.187 90.912 799.291 89.568 797.963 89.568C796.619 89.568 795.707 90.912 795.707 94.272C795.707 97.616 796.619 99.04 797.963 99.04ZM807.494 100.224C805.334 100.224 803.75 98.912 803.75 97.104C803.75 95.6 804.838 94.576 805.91 94.016V93.952C805.062 93.36 804.31 92.512 804.31 91.312C804.31 89.552 805.702 88.4 807.542 88.4C809.542 88.4 810.758 89.648 810.758 91.424C810.758 92.624 809.878 93.632 809.19 94.16V94.24C810.198 94.848 811.174 95.648 811.174 97.184C811.174 98.896 809.686 100.224 807.494 100.224ZM808.294 93.792C809.078 93.088 809.51 92.336 809.51 91.488C809.51 90.368 808.774 89.472 807.51 89.472C806.438 89.472 805.654 90.208 805.654 91.312C805.654 92.672 806.918 93.248 808.294 93.792ZM807.526 99.12C808.87 99.12 809.766 98.304 809.766 97.136C809.766 95.648 808.326 95.136 806.678 94.464C805.734 95.072 805.062 95.904 805.062 96.96C805.062 98.208 806.118 99.12 807.526 99.12ZM815.697 100C815.905 95.712 816.769 92.976 819.009 89.856H813.329V88.608H820.657V89.504C817.969 92.944 817.409 95.552 817.217 100H815.697ZM825.212 100C825.42 95.712 826.284 92.976 828.524 89.856H822.844V88.608H830.172V89.504C827.484 92.944 826.924 95.552 826.732 100H825.212ZM833.175 100V88.272H836.103C839.719 88.272 841.639 90.368 841.639 94.096C841.639 97.824 839.719 100 836.183 100H833.175ZM834.663 98.784H835.991C838.743 98.784 840.119 97.072 840.119 94.096C840.119 91.12 838.743 89.488 835.991 89.488H834.663V98.784ZM846.383 100C846.591 95.712 847.455 92.976 849.695 89.856H844.015V88.608H851.343V89.504C848.655 92.944 848.095 95.552 847.903 100H846.383Z" fill="#1A1A1A"/>
<rect x="784" y="113" width="108" height="160.112" rx="4" fill="#0877D7"/>
<path d="M902.696 75.336C899.456 75.336 897.08 73.368 897.08 70.656C897.08 68.28 898.712 66.648 900.32 65.784V65.688C899.024 64.8 897.92 63.456 897.92 61.608C897.92 58.944 900.008 57.168 902.768 57.168C905.768 57.168 907.592 59.088 907.592 61.776C907.592 63.648 906.296 65.208 905.24 66.024V66.144C906.776 67.032 908.216 68.376 908.216 70.776C908.216 73.344 905.984 75.336 902.696 75.336ZM903.896 65.472C905.096 64.416 905.72 63.216 905.72 61.896C905.72 60.168 904.616 58.776 902.72 58.776C901.112 58.776 899.936 59.928 899.936 61.608C899.936 63.72 901.832 64.656 903.896 65.472ZM902.744 73.68C904.76 73.68 906.104 72.456 906.104 70.704C906.104 68.352 903.944 67.464 901.472 66.456C900.032 67.368 899.048 68.76 899.048 70.44C899.048 72.312 900.632 73.68 902.744 73.68ZM916.945 75.336C913.585 75.336 911.449 72.288 911.449 66.144C911.449 60.048 913.585 57.096 916.945 57.096C920.257 57.096 922.392 60.048 922.392 66.144C922.392 72.288 920.257 75.336 916.945 75.336ZM916.945 73.56C918.937 73.56 920.281 71.328 920.281 66.144C920.281 61.032 918.937 58.848 916.945 58.848C914.929 58.848 913.561 61.032 913.561 66.144C913.561 71.328 914.929 73.56 916.945 73.56ZM931.217 75.336C927.857 75.336 925.721 72.288 925.721 66.144C925.721 60.048 927.857 57.096 931.217 57.096C934.529 57.096 936.665 60.048 936.665 66.144C936.665 72.288 934.529 75.336 931.217 75.336ZM931.217 73.56C933.209 73.56 934.553 71.328 934.553 66.144C934.553 61.032 933.209 58.848 931.217 58.848C929.201 58.848 927.833 61.032 927.833 66.144C927.833 71.328 929.201 73.56 931.217 73.56Z" fill="#1A1A1A"/>
<path d="M897.616 100L898.048 96.352H896.624V95.328H898.176L898.512 92.688H896.992V91.664H898.624L899.04 88.384H899.984L899.568 91.664H901.936L902.368 88.384H903.312L902.896 91.664H904.336V92.688H902.784L902.448 95.328H903.984V96.352H902.32L901.888 100H900.944L901.36 96.352H899.008L898.56 100H897.616ZM899.12 95.328H901.504L901.824 92.688H899.44L899.12 95.328ZM909.963 100.224C907.675 100.224 906.299 98.096 906.299 94.272C906.299 90.448 907.675 88.4 909.963 88.4C912.219 88.4 913.595 90.448 913.595 94.272C913.595 98.096 912.219 100.224 909.963 100.224ZM909.963 99.04C911.291 99.04 912.187 97.616 912.187 94.272C912.187 90.912 911.291 89.568 909.963 89.568C908.619 89.568 907.707 90.912 907.707 94.272C907.707 97.616 908.619 99.04 909.963 99.04ZM919.478 100.224C917.19 100.224 915.814 98.096 915.814 94.272C915.814 90.448 917.19 88.4 919.478 88.4C921.734 88.4 923.11 90.448 923.11 94.272C923.11 98.096 921.734 100.224 919.478 100.224ZM919.478 99.04C920.806 99.04 921.702 97.616 921.702 94.272C921.702 90.912 920.806 89.568 919.478 89.568C918.134 89.568 917.222 90.912 917.222 94.272C917.222 97.616 918.134 99.04 919.478 99.04ZM929.345 100.224C927.089 100.224 925.393 98.4 925.393 94.736C925.393 90.144 927.473 88.4 929.745 88.4C930.961 88.4 931.857 88.912 932.481 89.584L931.681 90.496C931.217 89.952 930.513 89.616 929.793 89.616C928.161 89.616 926.785 90.896 926.785 94.736C926.785 97.552 927.681 99.072 929.329 99.072C930.465 99.072 931.329 98.064 931.329 96.56C931.329 95.072 930.625 94.128 929.201 94.128C928.465 94.128 927.537 94.576 926.737 95.76L926.689 94.592C927.425 93.632 928.481 93.04 929.441 93.04C931.409 93.04 932.705 94.224 932.705 96.56C932.705 98.752 931.153 100.224 929.345 100.224ZM938.86 100.224C936.604 100.224 934.908 98.4 934.908 94.736C934.908 90.144 936.988 88.4 939.26 88.4C940.476 88.4 941.372 88.912 941.996 89.584L941.196 90.496C940.732 89.952 940.028 89.616 939.308 89.616C937.676 89.616 936.3 90.896 936.3 94.736C936.3 97.552 937.196 99.072 938.844 99.072C939.98 99.072 940.844 98.064 940.844 96.56C940.844 95.072 940.14 94.128 938.716 94.128C937.98 94.128 937.052 94.576 936.252 95.76L936.204 94.592C936.94 93.632 937.996 93.04 938.956 93.04C940.924 93.04 942.22 94.224 942.22 96.56C942.22 98.752 940.668 100.224 938.86 100.224ZM945.175 100V88.272H948.647C951.031 88.272 952.679 89.088 952.679 91.152C952.679 92.304 952.071 93.328 950.967 93.696V93.76C952.375 94.032 953.351 94.976 953.351 96.576C953.351 98.864 951.527 100 948.919 100H945.175ZM946.663 93.264H948.391C950.407 93.264 951.223 92.528 951.223 91.328C951.223 89.952 950.295 89.44 948.471 89.44H946.663V93.264ZM946.663 98.832H948.711C950.711 98.832 951.911 98.112 951.911 96.528C951.911 95.072 950.759 94.4 948.711 94.4H946.663V98.832ZM956.331 100V88.272H963.083V89.52H957.819V93.2H962.251V94.464H957.819V98.752H963.259V100H956.331Z" fill="#1A1A1A"/>
<rect x="896" y="113" width="108" height="160.112" rx="4" fill="#0066BE"/>
<path d="M1013.62 75.336C1011.7 75.336 1010.35 74.568 1009.37 73.536L1010.59 72.144C1011.34 73.008 1012.42 73.512 1013.54 73.512C1015.9 73.512 1017.94 71.472 1017.94 65.448C1017.94 61.128 1016.57 58.8 1014.1 58.8C1012.42 58.8 1011.12 60.384 1011.12 62.808C1011.12 65.16 1012.18 66.72 1014.26 66.72C1015.44 66.72 1016.81 66.024 1017.96 64.272L1018.08 66.024C1016.98 67.416 1015.42 68.328 1013.9 68.328C1010.95 68.328 1009.06 66.456 1009.06 62.808C1009.06 59.4 1011.36 57.096 1014.1 57.096C1017.48 57.096 1020 59.856 1020 65.448C1020 72.6 1016.93 75.336 1013.62 75.336ZM1028.94 75.336C1025.58 75.336 1023.45 72.288 1023.45 66.144C1023.45 60.048 1025.58 57.096 1028.94 57.096C1032.26 57.096 1034.39 60.048 1034.39 66.144C1034.39 72.288 1032.26 75.336 1028.94 75.336ZM1028.94 73.56C1030.94 73.56 1032.28 71.328 1032.28 66.144C1032.28 61.032 1030.94 58.848 1028.94 58.848C1026.93 58.848 1025.56 61.032 1025.56 66.144C1025.56 71.328 1026.93 73.56 1028.94 73.56ZM1043.22 75.336C1039.86 75.336 1037.72 72.288 1037.72 66.144C1037.72 60.048 1039.86 57.096 1043.22 57.096C1046.53 57.096 1048.66 60.048 1048.66 66.144C1048.66 72.288 1046.53 75.336 1043.22 75.336ZM1043.22 73.56C1045.21 73.56 1046.55 71.328 1046.55 66.144C1046.55 61.032 1045.21 58.848 1043.22 58.848C1041.2 58.848 1039.83 61.032 1039.83 66.144C1039.83 71.328 1041.2 73.56 1043.22 73.56Z" fill="#1A1A1A"/>
<path d="M1009.62 100L1010.05 96.352H1008.62V95.328H1010.18L1010.51 92.688H1008.99V91.664H1010.62L1011.04 88.384H1011.98L1011.57 91.664H1013.94L1014.37 88.384H1015.31L1014.9 91.664H1016.34V92.688H1014.78L1014.45 95.328H1015.98V96.352H1014.32L1013.89 100H1012.94L1013.36 96.352H1011.01L1010.56 100H1009.62ZM1011.12 95.328H1013.5L1013.82 92.688H1011.44L1011.12 95.328ZM1021.96 100.224C1019.68 100.224 1018.3 98.096 1018.3 94.272C1018.3 90.448 1019.68 88.4 1021.96 88.4C1024.22 88.4 1025.6 90.448 1025.6 94.272C1025.6 98.096 1024.22 100.224 1021.96 100.224ZM1021.96 99.04C1023.29 99.04 1024.19 97.616 1024.19 94.272C1024.19 90.912 1023.29 89.568 1021.96 89.568C1020.62 89.568 1019.71 90.912 1019.71 94.272C1019.71 97.616 1020.62 99.04 1021.96 99.04ZM1031.48 100.224C1029.19 100.224 1027.81 98.096 1027.81 94.272C1027.81 90.448 1029.19 88.4 1031.48 88.4C1033.73 88.4 1035.11 90.448 1035.11 94.272C1035.11 98.096 1033.73 100.224 1031.48 100.224ZM1031.48 99.04C1032.81 99.04 1033.7 97.616 1033.7 94.272C1033.7 90.912 1032.81 89.568 1031.48 89.568C1030.13 89.568 1029.22 90.912 1029.22 94.272C1029.22 97.616 1030.13 99.04 1031.48 99.04ZM1040.72 100.224C1038.9 100.224 1037.78 99.456 1036.98 98.656L1037.71 97.696C1038.37 98.384 1039.23 99.008 1040.58 99.008C1041.97 99.008 1043.07 98 1043.07 96.4C1043.07 94.832 1042.11 93.888 1040.66 93.888C1039.87 93.888 1039.38 94.144 1038.71 94.592L1037.92 94.096L1038.29 88.608H1044V89.856H1039.57L1039.27 93.248C1039.79 92.96 1040.32 92.784 1041.03 92.784C1042.98 92.784 1044.56 93.888 1044.56 96.352C1044.56 98.832 1042.69 100.224 1040.72 100.224ZM1050.24 100.224C1048.41 100.224 1047.29 99.456 1046.49 98.656L1047.23 97.696C1047.88 98.384 1048.75 99.008 1050.09 99.008C1051.48 99.008 1052.59 98 1052.59 96.4C1052.59 94.832 1051.63 93.888 1050.17 93.888C1049.39 93.888 1048.89 94.144 1048.22 94.592L1047.44 94.096L1047.8 88.608H1053.52V89.856H1049.08L1048.78 93.248C1049.31 92.96 1049.84 92.784 1050.54 92.784C1052.49 92.784 1054.08 93.888 1054.08 96.352C1054.08 98.832 1052.2 100.224 1050.24 100.224ZM1055.62 100L1059.59 88.272H1061.26L1065.22 100H1063.67L1061.61 93.44C1061.19 92.128 1060.82 90.848 1060.44 89.488H1060.38C1059.99 90.848 1059.62 92.128 1059.19 93.44L1057.13 100H1055.62ZM1057.7 96.416V95.248H1063.11V96.416H1057.7ZM1067.55 100V88.272H1070.48C1074.09 88.272 1076.01 90.368 1076.01 94.096C1076.01 97.824 1074.09 100 1070.56 100H1067.55ZM1069.04 98.784H1070.37C1073.12 98.784 1074.49 97.072 1074.49 94.096C1074.49 91.12 1073.12 89.488 1070.37 89.488H1069.04V98.784Z" fill="#1A1A1A"/>
<rect x="1008" y="113" width="108" height="160.112" rx="4" fill="#0055AD"/>
<path d="M1122.11 75V73.176H1126.02V60.072H1122.88V58.656C1124.46 58.392 1125.59 57.984 1126.53 57.408H1128.21V73.176H1131.76V75H1122.11ZM1140.94 75.336C1137.58 75.336 1135.45 72.288 1135.45 66.144C1135.45 60.048 1137.58 57.096 1140.94 57.096C1144.26 57.096 1146.39 60.048 1146.39 66.144C1146.39 72.288 1144.26 75.336 1140.94 75.336ZM1140.94 73.56C1142.94 73.56 1144.28 71.328 1144.28 66.144C1144.28 61.032 1142.94 58.848 1140.94 58.848C1138.93 58.848 1137.56 61.032 1137.56 66.144C1137.56 71.328 1138.93 73.56 1140.94 73.56ZM1155.22 75.336C1151.86 75.336 1149.72 72.288 1149.72 66.144C1149.72 60.048 1151.86 57.096 1155.22 57.096C1158.53 57.096 1160.66 60.048 1160.66 66.144C1160.66 72.288 1158.53 75.336 1155.22 75.336ZM1155.22 73.56C1157.21 73.56 1158.55 71.328 1158.55 66.144C1158.55 61.032 1157.21 58.848 1155.22 58.848C1153.2 58.848 1151.83 61.032 1151.83 66.144C1151.83 71.328 1153.2 73.56 1155.22 73.56ZM1169.49 75.336C1166.13 75.336 1163.99 72.288 1163.99 66.144C1163.99 60.048 1166.13 57.096 1169.49 57.096C1172.8 57.096 1174.94 60.048 1174.94 66.144C1174.94 72.288 1172.8 75.336 1169.49 75.336ZM1169.49 73.56C1171.48 73.56 1172.83 71.328 1172.83 66.144C1172.83 61.032 1171.48 58.848 1169.49 58.848C1167.47 58.848 1166.11 61.032 1166.11 66.144C1166.11 71.328 1167.47 73.56 1169.49 73.56Z" fill="#1A1A1A"/>
<path d="M1121.62 100L1122.05 96.352H1120.62V95.328H1122.18L1122.51 92.688H1120.99V91.664H1122.62L1123.04 88.384H1123.98L1123.57 91.664H1125.94L1126.37 88.384H1127.31L1126.9 91.664H1128.34V92.688H1126.78L1126.45 95.328H1127.98V96.352H1126.32L1125.89 100H1124.94L1125.36 96.352H1123.01L1122.56 100H1121.62ZM1123.12 95.328H1125.5L1125.82 92.688H1123.44L1123.12 95.328ZM1133.96 100.224C1131.68 100.224 1130.3 98.096 1130.3 94.272C1130.3 90.448 1131.68 88.4 1133.96 88.4C1136.22 88.4 1137.6 90.448 1137.6 94.272C1137.6 98.096 1136.22 100.224 1133.96 100.224ZM1133.96 99.04C1135.29 99.04 1136.19 97.616 1136.19 94.272C1136.19 90.912 1135.29 89.568 1133.96 89.568C1132.62 89.568 1131.71 90.912 1131.71 94.272C1131.71 97.616 1132.62 99.04 1133.96 99.04ZM1143.48 100.224C1141.19 100.224 1139.81 98.096 1139.81 94.272C1139.81 90.448 1141.19 88.4 1143.48 88.4C1145.73 88.4 1147.11 90.448 1147.11 94.272C1147.11 98.096 1145.73 100.224 1143.48 100.224ZM1143.48 99.04C1144.81 99.04 1145.7 97.616 1145.7 94.272C1145.7 90.912 1144.81 89.568 1143.48 89.568C1142.13 89.568 1141.22 90.912 1141.22 94.272C1141.22 97.616 1142.13 99.04 1143.48 99.04ZM1153.97 100V92.352C1153.97 91.76 1154.02 90.768 1154.07 90.176H1153.99C1153.7 90.704 1153.38 91.216 1153.06 91.776L1150.39 95.696H1156.91V96.848H1148.85V95.888L1153.73 88.608H1155.35V100H1153.97ZM1158.76 100V99.152C1162.2 95.728 1164.12 93.664 1164.12 91.792C1164.12 90.496 1163.44 89.568 1161.98 89.568C1161.02 89.568 1160.19 90.176 1159.53 90.944L1158.68 90.112C1159.64 89.072 1160.67 88.4 1162.16 88.4C1164.25 88.4 1165.56 89.712 1165.56 91.744C1165.56 93.888 1163.6 96.016 1160.89 98.864C1161.5 98.8 1162.22 98.752 1162.81 98.752H1166.12V100H1158.76ZM1172.04 100.224C1169.88 100.224 1168.3 98.912 1168.3 97.104C1168.3 95.6 1169.38 94.576 1170.46 94.016V93.952C1169.61 93.36 1168.86 92.512 1168.86 91.312C1168.86 89.552 1170.25 88.4 1172.09 88.4C1174.09 88.4 1175.3 89.648 1175.3 91.424C1175.3 92.624 1174.42 93.632 1173.74 94.16V94.24C1174.74 94.848 1175.72 95.648 1175.72 97.184C1175.72 98.896 1174.23 100.224 1172.04 100.224ZM1172.84 93.792C1173.62 93.088 1174.06 92.336 1174.06 91.488C1174.06 90.368 1173.32 89.472 1172.06 89.472C1170.98 89.472 1170.2 90.208 1170.2 91.312C1170.2 92.672 1171.46 93.248 1172.84 93.792ZM1172.07 99.12C1173.42 99.12 1174.31 98.304 1174.31 97.136C1174.31 95.648 1172.87 95.136 1171.22 94.464C1170.28 95.072 1169.61 95.904 1169.61 96.96C1169.61 98.208 1170.66 99.12 1172.07 99.12ZM1183.12 100.224C1180.19 100.224 1178.02 97.952 1178.02 94.144C1178.02 90.368 1180.24 88.064 1183.22 88.064C1184.64 88.064 1185.75 88.752 1186.43 89.504L1185.62 90.464C1185.01 89.808 1184.23 89.36 1183.23 89.36C1181.01 89.36 1179.54 91.184 1179.54 94.112C1179.54 97.072 1180.95 98.912 1183.19 98.912C1184.29 98.912 1185.15 98.432 1185.91 97.6L1186.71 98.528C1185.78 99.616 1184.64 100.224 1183.12 100.224Z" fill="#1A1A1A"/>
<rect x="1120" y="113" width="108" height="160.112" rx="4" fill="#00428C"/>
<path d="M1234.11 75V73.176H1238.02V60.072H1234.88V58.656C1236.46 58.392 1237.59 57.984 1238.53 57.408H1240.21V73.176H1243.76V75H1234.11ZM1248.38 75V73.176H1252.3V60.072H1249.15V58.656C1250.74 58.392 1251.86 57.984 1252.8 57.408H1254.48V73.176H1258.03V75H1248.38ZM1267.22 75.336C1263.86 75.336 1261.72 72.288 1261.72 66.144C1261.72 60.048 1263.86 57.096 1267.22 57.096C1270.53 57.096 1272.66 60.048 1272.66 66.144C1272.66 72.288 1270.53 75.336 1267.22 75.336ZM1267.22 73.56C1269.21 73.56 1270.55 71.328 1270.55 66.144C1270.55 61.032 1269.21 58.848 1267.22 58.848C1265.2 58.848 1263.83 61.032 1263.83 66.144C1263.83 71.328 1265.2 73.56 1267.22 73.56ZM1281.49 75.336C1278.13 75.336 1275.99 72.288 1275.99 66.144C1275.99 60.048 1278.13 57.096 1281.49 57.096C1284.8 57.096 1286.94 60.048 1286.94 66.144C1286.94 72.288 1284.8 75.336 1281.49 75.336ZM1281.49 73.56C1283.48 73.56 1284.83 71.328 1284.83 66.144C1284.83 61.032 1283.48 58.848 1281.49 58.848C1279.47 58.848 1278.11 61.032 1278.11 66.144C1278.11 71.328 1279.47 73.56 1281.49 73.56Z" fill="#1A1A1A"/>
<path d="M1233.62 100L1234.05 96.352H1232.62V95.328H1234.18L1234.51 92.688H1232.99V91.664H1234.62L1235.04 88.384H1235.98L1235.57 91.664H1237.94L1238.37 88.384H1239.31L1238.9 91.664H1240.34V92.688H1238.78L1238.45 95.328H1239.98V96.352H1238.32L1237.89 100H1236.94L1237.36 96.352H1235.01L1234.56 100H1233.62ZM1235.12 95.328H1237.5L1237.82 92.688H1235.44L1235.12 95.328ZM1245.96 100.224C1243.68 100.224 1242.3 98.096 1242.3 94.272C1242.3 90.448 1243.68 88.4 1245.96 88.4C1248.22 88.4 1249.6 90.448 1249.6 94.272C1249.6 98.096 1248.22 100.224 1245.96 100.224ZM1245.96 99.04C1247.29 99.04 1248.19 97.616 1248.19 94.272C1248.19 90.912 1247.29 89.568 1245.96 89.568C1244.62 89.568 1243.71 90.912 1243.71 94.272C1243.71 97.616 1244.62 99.04 1245.96 99.04ZM1255.48 100.224C1253.19 100.224 1251.81 98.096 1251.81 94.272C1251.81 90.448 1253.19 88.4 1255.48 88.4C1257.73 88.4 1259.11 90.448 1259.11 94.272C1259.11 98.096 1257.73 100.224 1255.48 100.224ZM1255.48 99.04C1256.81 99.04 1257.7 97.616 1257.7 94.272C1257.7 90.912 1256.81 89.568 1255.48 89.568C1254.13 89.568 1253.22 90.912 1253.22 94.272C1253.22 97.616 1254.13 99.04 1255.48 99.04ZM1264.75 100.224C1262.91 100.224 1261.78 99.456 1261.01 98.608L1261.75 97.648C1262.43 98.368 1263.31 99.008 1264.66 99.008C1266.05 99.008 1267.04 98.192 1267.04 96.912C1267.04 95.552 1266.1 94.64 1263.39 94.64V93.52C1265.81 93.52 1266.63 92.576 1266.63 91.376C1266.63 90.272 1265.87 89.568 1264.66 89.568C1263.71 89.568 1262.88 90.064 1262.23 90.736L1261.44 89.808C1262.32 88.992 1263.36 88.4 1264.71 88.4C1266.67 88.4 1268.11 89.44 1268.11 91.28C1268.11 92.656 1267.28 93.536 1266.03 94V94.064C1267.41 94.384 1268.53 95.408 1268.53 96.96C1268.53 98.992 1266.85 100.224 1264.75 100.224ZM1271.47 100V98.784H1274.08V90.384H1271.98V89.44C1273.04 89.248 1273.79 88.976 1274.41 88.608H1275.53V98.784H1277.9V100H1271.47ZM1284.38 100.224C1282.12 100.224 1280.42 98.4 1280.42 94.736C1280.42 90.144 1282.5 88.4 1284.78 88.4C1285.99 88.4 1286.89 88.912 1287.51 89.584L1286.71 90.496C1286.25 89.952 1285.54 89.616 1284.82 89.616C1283.19 89.616 1281.82 90.896 1281.82 94.736C1281.82 97.552 1282.71 99.072 1284.36 99.072C1285.5 99.072 1286.36 98.064 1286.36 96.56C1286.36 95.072 1285.66 94.128 1284.23 94.128C1283.5 94.128 1282.57 94.576 1281.77 95.76L1281.72 94.592C1282.46 93.632 1283.51 93.04 1284.47 93.04C1286.44 93.04 1287.74 94.224 1287.74 96.56C1287.74 98.752 1286.18 100.224 1284.38 100.224ZM1289.14 100L1293.11 88.272H1294.77L1298.74 100H1297.19L1295.12 93.44C1294.71 92.128 1294.34 90.848 1293.95 89.488H1293.89C1293.51 90.848 1293.14 92.128 1292.71 93.44L1290.64 100H1289.14ZM1291.22 96.416V95.248H1296.63V96.416H1291.22Z" fill="#1A1A1A"/>
<rect x="1232" y="113" width="108" height="160.112" rx="4" fill="#00316A"/>
<path d="M1346.11 75V73.176H1350.02V60.072H1346.88V58.656C1348.46 58.392 1349.59 57.984 1350.53 57.408H1352.21V73.176H1355.76V75H1346.11ZM1359.33 75V73.728C1364.85 68.904 1367.37 65.376 1367.37 62.376C1367.37 60.36 1366.34 58.872 1364.15 58.872C1362.71 58.872 1361.46 59.76 1360.48 60.912L1359.21 59.688C1360.65 58.128 1362.18 57.096 1364.42 57.096C1367.56 57.096 1369.53 59.136 1369.53 62.28C1369.53 65.808 1366.77 69.384 1362.62 73.296C1363.55 73.2 1364.61 73.128 1365.5 73.128H1370.37V75H1359.33ZM1379.22 75.336C1375.86 75.336 1373.72 72.288 1373.72 66.144C1373.72 60.048 1375.86 57.096 1379.22 57.096C1382.53 57.096 1384.66 60.048 1384.66 66.144C1384.66 72.288 1382.53 75.336 1379.22 75.336ZM1379.22 73.56C1381.21 73.56 1382.55 71.328 1382.55 66.144C1382.55 61.032 1381.21 58.848 1379.22 58.848C1377.2 58.848 1375.83 61.032 1375.83 66.144C1375.83 71.328 1377.2 73.56 1379.22 73.56ZM1393.49 75.336C1390.13 75.336 1387.99 72.288 1387.99 66.144C1387.99 60.048 1390.13 57.096 1393.49 57.096C1396.8 57.096 1398.94 60.048 1398.94 66.144C1398.94 72.288 1396.8 75.336 1393.49 75.336ZM1393.49 73.56C1395.48 73.56 1396.83 71.328 1396.83 66.144C1396.83 61.032 1395.48 58.848 1393.49 58.848C1391.47 58.848 1390.11 61.032 1390.11 66.144C1390.11 71.328 1391.47 73.56 1393.49 73.56Z" fill="#1A1A1A"/>
<path d="M1345.62 100L1346.05 96.352H1344.62V95.328H1346.18L1346.51 92.688H1344.99V91.664H1346.62L1347.04 88.384H1347.98L1347.57 91.664H1349.94L1350.37 88.384H1351.31L1350.9 91.664H1352.34V92.688H1350.78L1350.45 95.328H1351.98V96.352H1350.32L1349.89 100H1348.94L1349.36 96.352H1347.01L1346.56 100H1345.62ZM1347.12 95.328H1349.5L1349.82 92.688H1347.44L1347.12 95.328ZM1357.96 100.224C1355.68 100.224 1354.3 98.096 1354.3 94.272C1354.3 90.448 1355.68 88.4 1357.96 88.4C1360.22 88.4 1361.6 90.448 1361.6 94.272C1361.6 98.096 1360.22 100.224 1357.96 100.224ZM1357.96 99.04C1359.29 99.04 1360.19 97.616 1360.19 94.272C1360.19 90.912 1359.29 89.568 1357.96 89.568C1356.62 89.568 1355.71 90.912 1355.71 94.272C1355.71 97.616 1356.62 99.04 1357.96 99.04ZM1367.48 100.224C1365.19 100.224 1363.81 98.096 1363.81 94.272C1363.81 90.448 1365.19 88.4 1367.48 88.4C1369.73 88.4 1371.11 90.448 1371.11 94.272C1371.11 98.096 1369.73 100.224 1367.48 100.224ZM1367.48 99.04C1368.81 99.04 1369.7 97.616 1369.7 94.272C1369.7 90.912 1368.81 89.568 1367.48 89.568C1366.13 89.568 1365.22 90.912 1365.22 94.272C1365.22 97.616 1366.13 99.04 1367.48 99.04ZM1373.25 100V99.152C1376.69 95.728 1378.61 93.664 1378.61 91.792C1378.61 90.496 1377.92 89.568 1376.47 89.568C1375.51 89.568 1374.67 90.176 1374.02 90.944L1373.17 90.112C1374.13 89.072 1375.15 88.4 1376.64 88.4C1378.74 88.4 1380.05 89.712 1380.05 91.744C1380.05 93.888 1378.08 96.016 1375.38 98.864C1375.99 98.8 1376.71 98.752 1377.3 98.752H1380.61V100H1373.25ZM1386.27 100.224C1384.43 100.224 1383.29 99.456 1382.52 98.608L1383.26 97.648C1383.95 98.368 1384.83 99.008 1386.17 99.008C1387.56 99.008 1388.56 98.192 1388.56 96.912C1388.56 95.552 1387.61 94.64 1384.91 94.64V93.52C1387.32 93.52 1388.14 92.576 1388.14 91.376C1388.14 90.272 1387.39 89.568 1386.17 89.568C1385.23 89.568 1384.4 90.064 1383.74 90.736L1382.96 89.808C1383.84 88.992 1384.88 88.4 1386.22 88.4C1388.19 88.4 1389.63 89.44 1389.63 91.28C1389.63 92.656 1388.8 93.536 1387.55 94V94.064C1388.92 94.384 1390.04 95.408 1390.04 96.96C1390.04 98.992 1388.36 100.224 1386.27 100.224ZM1397 100V92.352C1397 91.76 1397.05 90.768 1397.1 90.176H1397.02C1396.73 90.704 1396.41 91.216 1396.09 91.776L1393.42 95.696H1399.94V96.848H1391.88V95.888L1396.76 88.608H1398.38V100H1397ZM1402.69 100V88.272H1406.16C1408.55 88.272 1410.19 89.088 1410.19 91.152C1410.19 92.304 1409.59 93.328 1408.48 93.696V93.76C1409.89 94.032 1410.87 94.976 1410.87 96.576C1410.87 98.864 1409.04 100 1406.43 100H1402.69ZM1404.18 93.264H1405.91C1407.92 93.264 1408.74 92.528 1408.74 91.328C1408.74 89.952 1407.81 89.44 1405.99 89.44H1404.18V93.264ZM1404.18 98.832H1406.23C1408.23 98.832 1409.43 98.112 1409.43 96.528C1409.43 95.072 1408.27 94.4 1406.23 94.4H1404.18V98.832Z" fill="#1A1A1A"/>
<rect x="1344" y="113" width="108" height="160.112" rx="4" fill="#00234B"/>
<rect x="686" y="283.611" width="64" height="23" rx="11.5" fill="white"/>
<rect x="686" y="283.611" width="64" height="23" rx="11.5" stroke="#949494"/>
<path d="M701.708 302.335C699.868 302.335 698.732 301.567 697.964 300.719L698.7 299.759C699.388 300.479 700.268 301.119 701.612 301.119C703.004 301.119 703.996 300.271 703.996 298.927C703.996 297.519 703.052 296.591 700.348 296.591V295.455C702.764 295.455 703.58 294.495 703.58 293.215C703.58 292.095 702.828 291.359 701.612 291.359C700.668 291.359 699.836 291.839 699.18 292.511L698.396 291.567C699.276 290.767 700.316 290.175 701.66 290.175C703.628 290.175 705.068 291.247 705.068 293.119C705.068 294.543 704.236 295.487 702.988 295.935V295.999C704.364 296.335 705.484 297.375 705.484 298.991C705.484 301.071 703.804 302.335 701.708 302.335ZM709.223 295.871C708.647 295.871 708.183 295.423 708.183 294.767C708.183 294.095 708.647 293.647 709.223 293.647C709.815 293.647 710.295 294.095 710.295 294.767C710.295 295.423 709.815 295.871 709.223 295.871ZM709.223 302.335C708.647 302.335 708.183 301.871 708.183 301.215C708.183 300.543 708.647 300.095 709.223 300.095C709.815 300.095 710.295 300.543 710.295 301.215C710.295 301.871 709.815 302.335 709.223 302.335ZM713.516 302.111V300.895H716.124V292.159H714.028V291.215C715.084 291.039 715.836 290.767 716.46 290.383H717.58V300.895H719.948V302.111H713.516ZM734.599 295.487C733.767 294.879 732.727 293.855 731.991 292.879L732.951 292.303C734.039 293.711 735.623 295.135 737.063 296.031C735.623 296.943 734.039 298.367 732.951 299.775L731.991 299.199C732.727 298.223 733.767 297.199 734.599 296.591H722.263V295.487H734.599Z" fill="black"/>
<rect x="794" y="283.611" width="78" height="23" rx="11.5" fill="white"/>
<rect x="794" y="283.611" width="78" height="23" rx="11.5" stroke="#949494"/>
<path d="M810.924 302.111V294.127C810.924 293.535 810.972 292.591 811.02 291.983H810.94C810.652 292.559 810.332 293.151 810.012 293.727L807.34 297.727H813.868V298.879H805.804V297.919L810.684 290.383H812.3V302.111H810.924ZM817.223 302.335C816.647 302.335 816.183 301.871 816.183 301.215C816.183 300.543 816.647 300.095 817.223 300.095C817.815 300.095 818.295 300.543 818.295 301.215C818.295 301.871 817.815 302.335 817.223 302.335ZM824.284 302.335C822.46 302.335 821.34 301.567 820.54 300.767L821.276 299.807C821.932 300.495 822.796 301.119 824.14 301.119C825.532 301.119 826.636 300.047 826.636 298.351C826.636 296.671 825.676 295.663 824.22 295.663C823.436 295.663 822.94 295.919 822.268 296.367L821.484 295.871L821.852 290.383H827.564V291.631H823.132L822.828 295.023C823.356 294.735 823.884 294.559 824.588 294.559C826.54 294.559 828.124 295.711 828.124 298.303C828.124 300.863 826.252 302.335 824.284 302.335ZM831.831 295.871C831.255 295.871 830.791 295.423 830.791 294.767C830.791 294.095 831.255 293.647 831.831 293.647C832.423 293.647 832.903 294.095 832.903 294.767C832.903 295.423 832.423 295.871 831.831 295.871ZM831.831 302.335C831.255 302.335 830.791 301.871 830.791 301.215C830.791 300.543 831.255 300.095 831.831 300.095C832.423 300.095 832.903 300.543 832.903 301.215C832.903 301.871 832.423 302.335 831.831 302.335ZM836.124 302.111V300.895H838.732V292.159H836.636V291.215C837.692 291.039 838.444 290.767 839.068 290.383H840.188V300.895H842.556V302.111H836.124ZM857.207 295.487C856.375 294.879 855.335 293.855 854.599 292.879L855.559 292.303C856.647 293.711 858.231 295.135 859.671 296.031C858.231 296.943 856.647 298.367 855.559 299.775L854.599 299.199C855.335 298.223 856.375 297.199 857.207 296.591H844.871V295.487H857.207Z" fill="black"/>
<rect x="917.5" y="314.754" width="65" height="24" rx="12" fill="black"/>
<path d="M932.508 328.234C933.34 328.842 934.38 329.866 935.116 330.842L934.156 331.418C933.068 330.01 931.484 328.586 930.06 327.674C931.484 326.778 933.068 325.354 934.156 323.946L935.116 324.522C934.38 325.498 933.34 326.522 932.508 327.13H944.86V328.234H932.508ZM950.348 333.978C948.508 333.978 947.372 333.21 946.604 332.362L947.34 331.402C948.028 332.122 948.908 332.762 950.252 332.762C951.644 332.762 952.636 331.914 952.636 330.57C952.636 329.162 951.692 328.234 948.988 328.234V327.098C951.404 327.098 952.22 326.138 952.22 324.858C952.22 323.738 951.468 323.002 950.252 323.002C949.308 323.002 948.476 323.482 947.82 324.154L947.036 323.21C947.916 322.41 948.956 321.818 950.3 321.818C952.268 321.818 953.708 322.89 953.708 324.762C953.708 326.186 952.876 327.13 951.628 327.578V327.642C953.004 327.978 954.124 329.018 954.124 330.634C954.124 332.714 952.444 333.978 950.348 333.978ZM957.863 327.514C957.287 327.514 956.823 327.066 956.823 326.41C956.823 325.738 957.287 325.29 957.863 325.29C958.455 325.29 958.935 325.738 958.935 326.41C958.935 327.066 958.455 327.514 957.863 327.514ZM957.863 333.978C957.287 333.978 956.823 333.514 956.823 332.858C956.823 332.186 957.287 331.738 957.863 331.738C958.455 331.738 958.935 332.186 958.935 332.858C958.935 333.514 958.455 333.978 957.863 333.978ZM962.156 333.754V332.538H964.764V323.802H962.668V322.858C963.724 322.682 964.476 322.41 965.1 322.026H966.22V332.538H968.588V333.754H962.156Z" fill="white"/>
<rect x="793.5" y="315.111" width="79" height="24" rx="12" fill="black"/>
<path d="M808.508 328.591C809.34 329.199 810.38 330.223 811.116 331.199L810.156 331.775C809.068 330.367 807.484 328.943 806.06 328.031C807.484 327.135 809.068 325.711 810.156 324.303L811.116 324.879C810.38 325.855 809.34 326.879 808.508 327.487H820.86V328.591H808.508ZM827.564 334.111V326.127C827.564 325.535 827.612 324.591 827.66 323.983H827.58C827.292 324.559 826.972 325.151 826.652 325.727L823.98 329.727H830.508V330.879H822.444V329.919L827.324 322.383H828.94V334.111H827.564ZM833.863 334.335C833.287 334.335 832.823 333.871 832.823 333.215C832.823 332.543 833.287 332.095 833.863 332.095C834.455 332.095 834.935 332.543 834.935 333.215C834.935 333.871 834.455 334.335 833.863 334.335ZM840.924 334.335C839.1 334.335 837.98 333.567 837.18 332.767L837.916 331.807C838.572 332.495 839.436 333.119 840.78 333.119C842.172 333.119 843.276 332.047 843.276 330.351C843.276 328.671 842.316 327.663 840.86 327.663C840.076 327.663 839.58 327.919 838.908 328.367L838.124 327.871L838.492 322.383H844.204V323.631H839.772L839.468 327.023C839.996 326.735 840.524 326.559 841.228 326.559C843.18 326.559 844.764 327.711 844.764 330.303C844.764 332.863 842.892 334.335 840.924 334.335ZM848.471 327.871C847.895 327.871 847.431 327.423 847.431 326.767C847.431 326.095 847.895 325.647 848.471 325.647C849.063 325.647 849.543 326.095 849.543 326.767C849.543 327.423 849.063 327.871 848.471 327.871ZM848.471 334.335C847.895 334.335 847.431 333.871 847.431 333.215C847.431 332.543 847.895 332.095 848.471 332.095C849.063 332.095 849.543 332.543 849.543 333.215C849.543 333.871 849.063 334.335 848.471 334.335ZM852.764 334.111V332.895H855.372V324.159H853.276V323.215C854.332 323.039 855.084 322.767 855.708 322.383H856.828V332.895H859.196V334.111H852.764Z" fill="white"/>
<path d="M1.82 17V2.18H4.78V14.52H10.8V17H1.82ZM13.1425 17V5.8H16.0825V17H13.1425ZM14.6225 4C13.6025 4 12.9025 3.36 12.9025 2.38C12.9025 1.42 13.6025 0.779999 14.6225 0.779999C15.6225 0.779999 16.3225 1.42 16.3225 2.38C16.3225 3.36 15.6225 4 14.6225 4ZM23.1567 21.86C20.5167 21.86 18.4767 20.96 18.4767 18.98C18.4767 18.04 19.0567 17.24 20.0767 16.66V16.56C19.4967 16.18 19.0567 15.6 19.0567 14.68C19.0567 13.84 19.6367 13.06 20.3167 12.58V12.5C19.5367 11.94 18.8167 10.88 18.8167 9.56C18.8167 6.94 20.9567 5.52 23.3367 5.52C23.9567 5.52 24.5567 5.64 25.0167 5.8H29.0567V7.96H27.1567C27.4367 8.34 27.6567 8.96 27.6567 9.66C27.6567 12.18 25.7367 13.46 23.3367 13.46C22.8967 13.46 22.3767 13.36 21.8967 13.2C21.5967 13.46 21.4167 13.7 21.4167 14.16C21.4167 14.76 21.8567 15.08 23.1767 15.08H25.0767C27.7767 15.08 29.2567 15.92 29.2567 17.88C29.2567 20.14 26.8967 21.86 23.1567 21.86ZM23.3367 11.64C24.3167 11.64 25.0967 10.9 25.0967 9.56C25.0967 8.26 24.3367 7.52 23.3367 7.52C22.3367 7.52 21.5767 8.26 21.5767 9.56C21.5767 10.9 22.3567 11.64 23.3367 11.64ZM23.5967 20C25.2767 20 26.4367 19.26 26.4367 18.38C26.4367 17.58 25.7767 17.38 24.5767 17.38H23.2167C22.5367 17.38 22.0567 17.32 21.6567 17.22C21.1567 17.62 20.9367 18.06 20.9367 18.52C20.9367 19.46 21.9767 20 23.5967 20ZM31.1503 17V1.04H34.0903V5.06L33.9503 7.16C34.8503 6.32 35.9503 5.52 37.4703 5.52C39.8903 5.52 40.9303 7.2 40.9303 10.02V17H37.9903V10.38C37.9903 8.64 37.5103 8.04 36.4103 8.04C35.4903 8.04 34.9103 8.48 34.0903 9.3V17H31.1503ZM48.0433 17.28C45.3833 17.28 44.3633 15.58 44.3633 13.08V8.12H42.7833V5.94L44.5233 5.8L44.8633 2.78H47.3033V5.8H50.0633V8.12H47.3033V13.08C47.3033 14.36 47.8233 14.96 48.8233 14.96C49.1833 14.96 49.6233 14.84 49.9233 14.72L50.4033 16.86C49.8033 17.06 49.0233 17.28 48.0433 17.28ZM57.113 17V2.18H62.013C65.053 2.18 67.373 3.08 67.373 5.84C67.373 7.2 66.613 8.6 65.353 9.04V9.14C66.953 9.52 68.133 10.64 68.133 12.64C68.133 15.62 65.653 17 62.393 17H57.113ZM60.073 8.22H61.793C63.673 8.22 64.493 7.46 64.493 6.28C64.493 4.98 63.613 4.46 61.833 4.46H60.073V8.22ZM60.073 14.72H62.133C64.153 14.72 65.253 14 65.253 12.46C65.253 11.02 64.173 10.4 62.133 10.4H60.073V14.72ZM73.2463 17.28C71.2063 17.28 70.4863 15.94 70.4863 13.86V1.04H73.4263V13.98C73.4263 14.66 73.7263 14.88 74.0063 14.88C74.1263 14.88 74.2063 14.88 74.4063 14.84L74.7663 17.02C74.4263 17.16 73.9463 17.28 73.2463 17.28ZM80.1348 17.28C77.7148 17.28 76.6748 15.6 76.6748 12.8V5.8H79.6148V12.42C79.6148 14.14 80.0948 14.76 81.1748 14.76C82.0948 14.76 82.6948 14.36 83.4548 13.36V5.8H86.3948V17H83.9948L83.7748 15.4H83.6948C82.7348 16.54 81.6548 17.28 80.1348 17.28ZM94.4092 17.28C91.2692 17.28 88.8292 15.1 88.8292 11.4C88.8292 7.78 91.3892 5.52 94.0492 5.52C97.1292 5.52 98.7292 7.78 98.7292 10.86C98.7292 11.42 98.6692 11.96 98.5892 12.22H91.6892C91.9292 14.06 93.1292 15.02 94.7892 15.02C95.7092 15.02 96.5092 14.74 97.3092 14.24L98.3092 16.04C97.2092 16.8 95.7892 17.28 94.4092 17.28ZM91.6492 10.26H96.2092C96.2092 8.76 95.5292 7.8 94.0892 7.8C92.9092 7.8 91.8692 8.64 91.6492 10.26Z" fill="#1A1A1A"/>
</svg>
