<svg width="1452" height="340" viewBox="0 0 1452 340" fill="none" xmlns="http://www.w3.org/2000/svg">
<path d="M6.264 75.336C3.528 75.336 1.848 74.184 0.648 72.984L1.752 71.544C2.736 72.576 4.032 73.512 6.048 73.512C8.136 73.512 9.792 71.904 9.792 69.36C9.792 66.84 8.352 65.328 6.168 65.328C4.992 65.328 4.248 65.712 3.24 66.384L2.064 65.64L2.616 57.408H11.184V59.28H4.536L4.08 64.368C4.872 63.936 5.664 63.672 6.72 63.672C9.648 63.672 12.024 65.4 12.024 69.288C12.024 73.128 9.216 75.336 6.264 75.336ZM20.9445 75.336C17.5845 75.336 15.4485 72.288 15.4485 66.144C15.4485 60.048 17.5845 57.096 20.9445 57.096C24.2565 57.096 26.3925 60.048 26.3925 66.144C26.3925 72.288 24.2565 75.336 20.9445 75.336ZM20.9445 73.56C22.9365 73.56 24.2805 71.328 24.2805 66.144C24.2805 61.032 22.9365 58.848 20.9445 58.848C18.9285 58.848 17.5605 61.032 17.5605 66.144C17.5605 71.328 18.9285 73.56 20.9445 73.56Z" fill="#1A1A1A"/>
<path d="M1.616 100L2.048 96.352H0.624V95.328H2.176L2.512 92.688H0.992V91.664H2.624L3.04 88.384H3.984L3.568 91.664H5.936L6.368 88.384H7.312L6.896 91.664H8.336V92.688H6.784L6.448 95.328H7.984V96.352H6.32L5.888 100H4.944L5.36 96.352H3.008L2.56 100H1.616ZM3.12 95.328H5.504L5.824 92.688H3.44L3.12 95.328ZM11.115 100V88.272H17.867V89.52H12.603V93.2H17.035V94.464H12.603V98.752H18.043V100H11.115ZM21.1769 100V88.272H24.6489C27.0329 88.272 28.6809 89.088 28.6809 91.152C28.6809 92.304 28.0729 93.328 26.9689 93.696V93.76C28.3769 94.032 29.3529 94.976 29.3529 96.576C29.3529 98.864 27.5289 100 24.9209 100H21.1769ZM22.6649 93.264H24.3929C26.4089 93.264 27.2249 92.528 27.2249 91.328C27.2249 89.952 26.2969 89.44 24.4729 89.44H22.6649V93.264ZM22.6649 98.832H24.7129C26.7129 98.832 27.9129 98.112 27.9129 96.528C27.9129 95.072 26.7609 94.4 24.7129 94.4H22.6649V98.832ZM32.3325 100V88.272H39.0845V89.52H33.8205V93.504H38.2845V94.736H33.8205V100H32.3325ZM39.5299 100L43.4979 88.272H45.1619L49.1299 100H47.5779L45.5139 93.44C45.0979 92.128 44.7299 90.848 44.3459 89.488H44.2819C43.8979 90.848 43.5299 92.128 43.0979 93.44L41.0339 100H39.5299ZM41.6099 96.416V95.248H47.0179V96.416H41.6099ZM51.4563 100V88.272H54.3843C58.0003 88.272 59.9203 90.368 59.9203 94.096C59.9203 97.824 58.0003 100 54.4643 100H51.4563ZM52.9443 98.784H54.2723C57.0243 98.784 58.4003 97.072 58.4003 94.096C58.4003 91.12 57.0243 89.488 54.2723 89.488H52.9443V98.784ZM65.1759 100.224C63.9439 100.224 63.0479 99.712 62.4239 99.024L63.2399 98.096C63.7039 98.672 64.4079 99.008 65.1119 99.008C66.7599 99.008 68.1359 97.712 68.1359 93.872C68.1359 91.056 67.2239 89.536 65.5759 89.536C64.4559 89.536 63.5919 90.528 63.5919 92.048C63.5919 93.536 64.2959 94.48 65.7039 94.48C66.4559 94.48 67.3839 94.032 68.1519 92.848L68.2319 94.016C67.4959 94.976 66.4239 95.568 65.4639 95.568C63.4799 95.568 62.2159 94.384 62.2159 92.048C62.2159 89.872 63.7519 88.4 65.5759 88.4C67.8319 88.4 69.5119 90.208 69.5119 93.872C69.5119 98.464 67.4319 100.224 65.1759 100.224Z" fill="#1A1A1A"/>
<rect y="113" width="108" height="160.112" rx="4" fill="#EBFAD9"/>
<path d="M114.112 75V73.176H118.024V60.072H114.88V58.656C116.464 58.392 117.592 57.984 118.528 57.408H120.208V73.176H123.76V75H114.112ZM132.945 75.336C129.585 75.336 127.449 72.288 127.449 66.144C127.449 60.048 129.585 57.096 132.945 57.096C136.257 57.096 138.392 60.048 138.392 66.144C138.392 72.288 136.257 75.336 132.945 75.336ZM132.945 73.56C134.937 73.56 136.281 71.328 136.281 66.144C136.281 61.032 134.937 58.848 132.945 58.848C130.929 58.848 129.561 61.032 129.561 66.144C129.561 71.328 130.929 73.56 132.945 73.56ZM147.217 75.336C143.857 75.336 141.721 72.288 141.721 66.144C141.721 60.048 143.857 57.096 147.217 57.096C150.529 57.096 152.665 60.048 152.665 66.144C152.665 72.288 150.529 75.336 147.217 75.336ZM147.217 73.56C149.209 73.56 150.553 71.328 150.553 66.144C150.553 61.032 149.209 58.848 147.217 58.848C145.201 58.848 143.833 61.032 143.833 66.144C143.833 71.328 145.201 73.56 147.217 73.56Z" fill="#1A1A1A"/>
<path d="M113.616 100L114.048 96.352H112.624V95.328H114.176L114.512 92.688H112.992V91.664H114.624L115.04 88.384H115.984L115.568 91.664H117.936L118.368 88.384H119.312L118.896 91.664H120.336V92.688H118.784L118.448 95.328H119.984V96.352H118.32L117.888 100H116.944L117.36 96.352H115.008L114.56 100H113.616ZM115.12 95.328H117.504L117.824 92.688H115.44L115.12 95.328ZM123.115 100V88.272H126.043C129.659 88.272 131.579 90.368 131.579 94.096C131.579 97.824 129.659 100 126.123 100H123.115ZM124.603 98.784H125.931C128.683 98.784 130.059 97.072 130.059 94.096C130.059 91.12 128.683 89.488 125.931 89.488H124.603V98.784ZM137.619 100.224C135.331 100.224 133.955 98.096 133.955 94.272C133.955 90.448 135.331 88.4 137.619 88.4C139.875 88.4 141.251 90.448 141.251 94.272C141.251 98.096 139.875 100.224 137.619 100.224ZM137.619 99.04C138.947 99.04 139.843 97.616 139.843 94.272C139.843 90.912 138.947 89.568 137.619 89.568C136.275 89.568 135.363 90.912 135.363 94.272C135.363 97.616 136.275 99.04 137.619 99.04ZM144.286 100V88.272H151.038V89.52H145.774V93.504H150.238V94.736H145.774V100H144.286ZM156.33 100.224C154.506 100.224 153.386 99.456 152.586 98.656L153.322 97.696C153.978 98.384 154.842 99.008 156.186 99.008C157.578 99.008 158.682 98 158.682 96.4C158.682 94.832 157.722 93.888 156.266 93.888C155.482 93.888 154.986 94.144 154.314 94.592L153.53 94.096L153.898 88.608H159.61V89.856H155.178L154.874 93.248C155.402 92.96 155.93 92.784 156.634 92.784C158.586 92.784 160.17 93.888 160.17 96.352C160.17 98.832 158.298 100.224 156.33 100.224ZM161.717 100L165.685 88.272H167.349L171.317 100H169.765L167.701 93.44C167.285 92.128 166.917 90.848 166.533 89.488H166.469C166.085 90.848 165.717 92.128 165.285 93.44L163.221 100H161.717ZM163.797 96.416V95.248H169.205V96.416H163.797ZM172.747 100V99.152C176.187 95.728 178.107 93.664 178.107 91.792C178.107 90.496 177.419 89.568 175.963 89.568C175.003 89.568 174.171 90.176 173.515 90.944L172.667 90.112C173.627 89.072 174.651 88.4 176.139 88.4C178.235 88.4 179.547 89.712 179.547 91.744C179.547 93.888 177.579 96.016 174.875 98.864C175.483 98.8 176.203 98.752 176.795 98.752H180.107V100H172.747Z" fill="#1A1A1A"/>
<rect x="112" y="113" width="108" height="160.112" rx="4" fill="#D0F5A2"/>
<path d="M225.056 75V73.728C230.576 68.904 233.096 65.376 233.096 62.376C233.096 60.36 232.064 58.872 229.88 58.872C228.44 58.872 227.192 59.76 226.208 60.912L224.936 59.688C226.376 58.128 227.912 57.096 230.144 57.096C233.288 57.096 235.256 59.136 235.256 62.28C235.256 65.808 232.496 69.384 228.344 73.296C229.28 73.2 230.336 73.128 231.224 73.128H236.096V75H225.056ZM244.945 75.336C241.585 75.336 239.449 72.288 239.449 66.144C239.449 60.048 241.585 57.096 244.945 57.096C248.257 57.096 250.392 60.048 250.392 66.144C250.392 72.288 248.257 75.336 244.945 75.336ZM244.945 73.56C246.937 73.56 248.281 71.328 248.281 66.144C248.281 61.032 246.937 58.848 244.945 58.848C242.929 58.848 241.561 61.032 241.561 66.144C241.561 71.328 242.929 73.56 244.945 73.56ZM259.217 75.336C255.857 75.336 253.721 72.288 253.721 66.144C253.721 60.048 255.857 57.096 259.217 57.096C262.529 57.096 264.665 60.048 264.665 66.144C264.665 72.288 262.529 75.336 259.217 75.336ZM259.217 73.56C261.209 73.56 262.553 71.328 262.553 66.144C262.553 61.032 261.209 58.848 259.217 58.848C257.201 58.848 255.833 61.032 255.833 66.144C255.833 71.328 257.201 73.56 259.217 73.56Z" fill="#1A1A1A"/>
<path d="M225.616 100L226.048 96.352H224.624V95.328H226.176L226.512 92.688H224.992V91.664H226.624L227.04 88.384H227.984L227.568 91.664H229.936L230.368 88.384H231.312L230.896 91.664H232.336V92.688H230.784L230.448 95.328H231.984V96.352H230.32L229.888 100H228.944L229.36 96.352H227.008L226.56 100H225.616ZM227.12 95.328H229.504L229.824 92.688H227.44L227.12 95.328ZM239.547 100.224C236.619 100.224 234.443 97.952 234.443 94.144C234.443 90.368 236.667 88.064 239.643 88.064C241.067 88.064 242.171 88.752 242.859 89.504L242.043 90.464C241.435 89.808 240.651 89.36 239.659 89.36C237.435 89.36 235.963 91.184 235.963 94.112C235.963 97.072 237.371 98.912 239.611 98.912C240.715 98.912 241.579 98.432 242.331 97.6L243.131 98.528C242.203 99.616 241.067 100.224 239.547 100.224ZM248.806 100.224C246.518 100.224 245.142 98.096 245.142 94.272C245.142 90.448 246.518 88.4 248.806 88.4C251.062 88.4 252.438 90.448 252.438 94.272C252.438 98.096 251.062 100.224 248.806 100.224ZM248.806 99.04C250.134 99.04 251.03 97.616 251.03 94.272C251.03 90.912 250.134 89.568 248.806 89.568C247.462 89.568 246.55 90.912 246.55 94.272C246.55 97.616 247.462 99.04 248.806 99.04ZM255.473 100V88.272H262.225V89.52H256.961V93.504H261.425V94.736H256.961V100H255.473ZM267.549 100.224C265.709 100.224 264.573 99.456 263.805 98.608L264.541 97.648C265.229 98.368 266.109 99.008 267.453 99.008C268.845 99.008 269.837 98.192 269.837 96.912C269.837 95.552 268.893 94.64 266.189 94.64V93.52C268.605 93.52 269.421 92.576 269.421 91.376C269.421 90.272 268.669 89.568 267.453 89.568C266.509 89.568 265.677 90.064 265.021 90.736L264.237 89.808C265.117 88.992 266.157 88.4 267.501 88.4C269.469 88.4 270.909 89.44 270.909 91.28C270.909 92.656 270.077 93.536 268.829 94V94.064C270.205 94.384 271.325 95.408 271.325 96.96C271.325 98.992 269.645 100.224 267.549 100.224ZM277.032 100.224C275.208 100.224 274.088 99.456 273.288 98.656L274.024 97.696C274.68 98.384 275.544 99.008 276.888 99.008C278.28 99.008 279.384 98 279.384 96.4C279.384 94.832 278.424 93.888 276.968 93.888C276.184 93.888 275.688 94.144 275.016 94.592L274.232 94.096L274.6 88.608H280.312V89.856H275.88L275.576 93.248C276.104 92.96 276.632 92.784 277.336 92.784C279.288 92.784 280.872 93.888 280.872 96.352C280.872 98.832 279 100.224 277.032 100.224ZM287.795 100V92.352C287.795 91.76 287.843 90.768 287.891 90.176H287.811C287.523 90.704 287.203 91.216 286.883 91.776L284.211 95.696H290.739V96.848H282.675V95.888L287.555 88.608H289.171V100H287.795Z" fill="#1A1A1A"/>
<rect x="224" y="113" width="108" height="160.112" rx="4" fill="#C0F354"/>
<path d="M342.312 75.336C339.552 75.336 337.848 74.184 336.696 72.912L337.8 71.472C338.832 72.552 340.152 73.512 342.168 73.512C344.256 73.512 345.744 72.24 345.744 70.224C345.744 68.112 344.328 66.72 340.272 66.72V65.016C343.896 65.016 345.12 63.576 345.12 61.656C345.12 59.976 343.992 58.872 342.168 58.872C340.752 58.872 339.504 59.592 338.52 60.6L337.344 59.184C338.664 57.984 340.224 57.096 342.24 57.096C345.192 57.096 347.352 58.704 347.352 61.512C347.352 63.648 346.104 65.064 344.232 65.736V65.832C346.296 66.336 347.976 67.896 347.976 70.32C347.976 73.44 345.456 75.336 342.312 75.336ZM356.945 75.336C353.585 75.336 351.449 72.288 351.449 66.144C351.449 60.048 353.585 57.096 356.945 57.096C360.257 57.096 362.392 60.048 362.392 66.144C362.392 72.288 360.257 75.336 356.945 75.336ZM356.945 73.56C358.937 73.56 360.281 71.328 360.281 66.144C360.281 61.032 358.937 58.848 356.945 58.848C354.929 58.848 353.561 61.032 353.561 66.144C353.561 71.328 354.929 73.56 356.945 73.56ZM371.217 75.336C367.857 75.336 365.721 72.288 365.721 66.144C365.721 60.048 367.857 57.096 371.217 57.096C374.529 57.096 376.665 60.048 376.665 66.144C376.665 72.288 374.529 75.336 371.217 75.336ZM371.217 73.56C373.209 73.56 374.553 71.328 374.553 66.144C374.553 61.032 373.209 58.848 371.217 58.848C369.201 58.848 367.833 61.032 367.833 66.144C367.833 71.328 369.201 73.56 371.217 73.56Z" fill="#1A1A1A"/>
<path d="M337.616 100L338.048 96.352H336.624V95.328H338.176L338.512 92.688H336.992V91.664H338.624L339.04 88.384H339.984L339.568 91.664H341.936L342.368 88.384H343.312L342.896 91.664H344.336V92.688H342.784L342.448 95.328H343.984V96.352H342.32L341.888 100H340.944L341.36 96.352H339.008L338.56 100H337.616ZM339.12 95.328H341.504L341.824 92.688H339.44L339.12 95.328ZM345.563 100L349.531 88.272H351.195L355.163 100H353.611L351.547 93.44C351.131 92.128 350.763 90.848 350.379 89.488H350.315C349.931 90.848 349.563 92.128 349.131 93.44L347.067 100H345.563ZM347.643 96.416V95.248H353.051V96.416H347.643ZM357.489 100V88.272H360.417C364.033 88.272 365.953 90.368 365.953 94.096C365.953 97.824 364.033 100 360.497 100H357.489ZM358.977 98.784H360.305C363.057 98.784 364.433 97.072 364.433 94.096C364.433 91.12 363.057 89.488 360.305 89.488H358.977V98.784ZM369.145 100V88.272H375.897V89.52H370.633V93.2H375.065V94.464H370.633V98.752H376.073V100H369.145ZM382.071 100.224C379.911 100.224 378.327 98.912 378.327 97.104C378.327 95.6 379.415 94.576 380.487 94.016V93.952C379.639 93.36 378.887 92.512 378.887 91.312C378.887 89.552 380.279 88.4 382.119 88.4C384.119 88.4 385.335 89.648 385.335 91.424C385.335 92.624 384.455 93.632 383.767 94.16V94.24C384.775 94.848 385.751 95.648 385.751 97.184C385.751 98.896 384.263 100.224 382.071 100.224ZM382.871 93.792C383.655 93.088 384.087 92.336 384.087 91.488C384.087 90.368 383.351 89.472 382.087 89.472C381.015 89.472 380.231 90.208 380.231 91.312C380.231 92.672 381.495 93.248 382.871 93.792ZM382.103 99.12C383.447 99.12 384.343 98.304 384.343 97.136C384.343 95.648 382.903 95.136 381.255 94.464C380.311 95.072 379.639 95.904 379.639 96.96C379.639 98.208 380.695 99.12 382.103 99.12ZM391.33 100.224C389.49 100.224 388.354 99.456 387.586 98.608L388.322 97.648C389.01 98.368 389.89 99.008 391.234 99.008C392.626 99.008 393.618 98.192 393.618 96.912C393.618 95.552 392.674 94.64 389.97 94.64V93.52C392.386 93.52 393.202 92.576 393.202 91.376C393.202 90.272 392.45 89.568 391.234 89.568C390.29 89.568 389.458 90.064 388.802 90.736L388.018 89.808C388.898 88.992 389.938 88.4 391.282 88.4C393.25 88.4 394.69 89.44 394.69 91.28C394.69 92.656 393.858 93.536 392.61 94V94.064C393.986 94.384 395.106 95.408 395.106 96.96C395.106 98.992 393.426 100.224 391.33 100.224ZM401.085 100.224C398.797 100.224 397.421 98.096 397.421 94.272C397.421 90.448 398.797 88.4 401.085 88.4C403.341 88.4 404.717 90.448 404.717 94.272C404.717 98.096 403.341 100.224 401.085 100.224ZM401.085 99.04C402.413 99.04 403.309 97.616 403.309 94.272C403.309 90.912 402.413 89.568 401.085 89.568C399.741 89.568 398.829 90.912 398.829 94.272C398.829 97.616 399.741 99.04 401.085 99.04Z" fill="#1A1A1A"/>
<rect x="336" y="113" width="108" height="160.112" rx="4" fill="#ADE830"/>
<path d="M456.136 75V63.024C456.136 62.136 456.208 60.72 456.28 59.808H456.16C455.728 60.672 455.248 61.56 454.768 62.424L450.76 68.424H460.552V70.152H448.456V68.712L455.776 57.408H458.2V75H456.136ZM468.945 75.336C465.585 75.336 463.449 72.288 463.449 66.144C463.449 60.048 465.585 57.096 468.945 57.096C472.257 57.096 474.392 60.048 474.392 66.144C474.392 72.288 472.257 75.336 468.945 75.336ZM468.945 73.56C470.937 73.56 472.281 71.328 472.281 66.144C472.281 61.032 470.937 58.848 468.945 58.848C466.929 58.848 465.561 61.032 465.561 66.144C465.561 71.328 466.929 73.56 468.945 73.56ZM483.217 75.336C479.857 75.336 477.721 72.288 477.721 66.144C477.721 60.048 479.857 57.096 483.217 57.096C486.529 57.096 488.665 60.048 488.665 66.144C488.665 72.288 486.529 75.336 483.217 75.336ZM483.217 73.56C485.209 73.56 486.553 71.328 486.553 66.144C486.553 61.032 485.209 58.848 483.217 58.848C481.201 58.848 479.833 61.032 479.833 66.144C479.833 71.328 481.201 73.56 483.217 73.56Z" fill="#1A1A1A"/>
<path d="M449.616 100L450.048 96.352H448.624V95.328H450.176L450.512 92.688H448.992V91.664H450.624L451.04 88.384H451.984L451.568 91.664H453.936L454.368 88.384H455.312L454.896 91.664H456.336V92.688H454.784L454.448 95.328H455.984V96.352H454.32L453.888 100H452.944L453.36 96.352H451.008L450.56 100H449.616ZM451.12 95.328H453.504L453.824 92.688H451.44L451.12 95.328ZM461.179 100.224C459.947 100.224 459.051 99.712 458.427 99.024L459.243 98.096C459.707 98.672 460.411 99.008 461.115 99.008C462.763 99.008 464.139 97.712 464.139 93.872C464.139 91.056 463.227 89.536 461.579 89.536C460.459 89.536 459.595 90.528 459.595 92.048C459.595 93.536 460.299 94.48 461.707 94.48C462.459 94.48 463.387 94.032 464.155 92.848L464.235 94.016C463.499 94.976 462.427 95.568 461.467 95.568C459.483 95.568 458.219 94.384 458.219 92.048C458.219 89.872 459.755 88.4 461.579 88.4C463.835 88.4 465.515 90.208 465.515 93.872C465.515 98.464 463.435 100.224 461.179 100.224ZM468.63 100V88.272H471.558C475.174 88.272 477.094 90.368 477.094 94.096C477.094 97.824 475.174 100 471.638 100H468.63ZM470.118 98.784H471.446C474.198 98.784 475.574 97.072 475.574 94.096C475.574 91.12 474.198 89.488 471.446 89.488H470.118V98.784ZM480.286 100V88.272H483.214C486.83 88.272 488.75 90.368 488.75 94.096C488.75 97.824 486.83 100 483.294 100H480.286ZM481.774 98.784H483.102C485.854 98.784 487.23 97.072 487.23 94.096C487.23 91.12 485.854 89.488 483.102 89.488H481.774V98.784ZM491.941 100V88.272H494.869C498.485 88.272 500.405 90.368 500.405 94.096C500.405 97.824 498.485 100 494.949 100H491.941ZM493.429 98.784H494.757C497.509 98.784 498.885 97.072 498.885 94.096C498.885 91.12 497.509 89.488 494.757 89.488H493.429V98.784ZM503.405 100V98.784H506.013V90.384H503.917V89.44C504.973 89.248 505.725 88.976 506.349 88.608H507.469V98.784H509.837V100H503.405ZM515.688 100.224C513.864 100.224 512.744 99.456 511.944 98.656L512.68 97.696C513.336 98.384 514.2 99.008 515.544 99.008C516.936 99.008 518.04 98 518.04 96.4C518.04 94.832 517.08 93.888 515.624 93.888C514.84 93.888 514.344 94.144 513.672 94.592L512.888 94.096L513.256 88.608H518.968V89.856H514.536L514.232 93.248C514.76 92.96 515.288 92.784 515.992 92.784C517.944 92.784 519.528 93.888 519.528 96.352C519.528 98.832 517.656 100.224 515.688 100.224Z" fill="#1A1A1A"/>
<rect x="448" y="113" width="108" height="160.112" rx="4" fill="#9DDD15"/>
<path d="M566.264 75.336C563.528 75.336 561.848 74.184 560.648 72.984L561.752 71.544C562.736 72.576 564.032 73.512 566.048 73.512C568.136 73.512 569.792 71.904 569.792 69.36C569.792 66.84 568.352 65.328 566.168 65.328C564.992 65.328 564.248 65.712 563.24 66.384L562.064 65.64L562.616 57.408H571.184V59.28H564.536L564.08 64.368C564.872 63.936 565.664 63.672 566.72 63.672C569.648 63.672 572.024 65.4 572.024 69.288C572.024 73.128 569.216 75.336 566.264 75.336ZM580.945 75.336C577.585 75.336 575.449 72.288 575.449 66.144C575.449 60.048 577.585 57.096 580.945 57.096C584.257 57.096 586.392 60.048 586.392 66.144C586.392 72.288 584.257 75.336 580.945 75.336ZM580.945 73.56C582.937 73.56 584.281 71.328 584.281 66.144C584.281 61.032 582.937 58.848 580.945 58.848C578.929 58.848 577.561 61.032 577.561 66.144C577.561 71.328 578.929 73.56 580.945 73.56ZM595.217 75.336C591.857 75.336 589.721 72.288 589.721 66.144C589.721 60.048 591.857 57.096 595.217 57.096C598.529 57.096 600.665 60.048 600.665 66.144C600.665 72.288 598.529 75.336 595.217 75.336ZM595.217 73.56C597.209 73.56 598.553 71.328 598.553 66.144C598.553 61.032 597.209 58.848 595.217 58.848C593.201 58.848 591.833 61.032 591.833 66.144C591.833 71.328 593.201 73.56 595.217 73.56Z" fill="#1A1A1A"/>
<path d="M561.616 100L562.048 96.352H560.624V95.328H562.176L562.512 92.688H560.992V91.664H562.624L563.04 88.384H563.984L563.568 91.664H565.936L566.368 88.384H567.312L566.896 91.664H568.336V92.688H566.784L566.448 95.328H567.984V96.352H566.32L565.888 100H564.944L565.36 96.352H563.008L562.56 100H561.616ZM563.12 95.328H565.504L565.824 92.688H563.44L563.12 95.328ZM573.979 100.224C571.819 100.224 570.235 98.912 570.235 97.104C570.235 95.6 571.323 94.576 572.395 94.016V93.952C571.547 93.36 570.795 92.512 570.795 91.312C570.795 89.552 572.187 88.4 574.027 88.4C576.027 88.4 577.243 89.648 577.243 91.424C577.243 92.624 576.363 93.632 575.675 94.16V94.24C576.683 94.848 577.659 95.648 577.659 97.184C577.659 98.896 576.171 100.224 573.979 100.224ZM574.779 93.792C575.563 93.088 575.995 92.336 575.995 91.488C575.995 90.368 575.259 89.472 573.995 89.472C572.923 89.472 572.139 90.208 572.139 91.312C572.139 92.672 573.403 93.248 574.779 93.792ZM574.011 99.12C575.355 99.12 576.251 98.304 576.251 97.136C576.251 95.648 574.811 95.136 573.163 94.464C572.219 95.072 571.547 95.904 571.547 96.96C571.547 98.208 572.603 99.12 574.011 99.12ZM585.062 100.224C582.134 100.224 579.958 97.952 579.958 94.144C579.958 90.368 582.182 88.064 585.158 88.064C586.582 88.064 587.686 88.752 588.374 89.504L587.558 90.464C586.95 89.808 586.166 89.36 585.174 89.36C582.95 89.36 581.478 91.184 581.478 94.112C581.478 97.072 582.886 98.912 585.126 98.912C586.23 98.912 587.094 98.432 587.846 97.6L588.646 98.528C587.718 99.616 586.582 100.224 585.062 100.224ZM595.358 100.224C592.43 100.224 590.254 97.952 590.254 94.144C590.254 90.368 592.478 88.064 595.454 88.064C596.878 88.064 597.982 88.752 598.67 89.504L597.854 90.464C597.246 89.808 596.462 89.36 595.47 89.36C593.246 89.36 591.774 91.184 591.774 94.112C591.774 97.072 593.182 98.912 595.422 98.912C596.526 98.912 597.39 98.432 598.142 97.6L598.942 98.528C598.014 99.616 596.878 100.224 595.358 100.224ZM604.633 100.224C602.473 100.224 600.889 98.912 600.889 97.104C600.889 95.6 601.977 94.576 603.049 94.016V93.952C602.201 93.36 601.449 92.512 601.449 91.312C601.449 89.552 602.841 88.4 604.681 88.4C606.681 88.4 607.897 89.648 607.897 91.424C607.897 92.624 607.017 93.632 606.329 94.16V94.24C607.337 94.848 608.313 95.648 608.313 97.184C608.313 98.896 606.825 100.224 604.633 100.224ZM605.433 93.792C606.217 93.088 606.649 92.336 606.649 91.488C606.649 90.368 605.913 89.472 604.649 89.472C603.577 89.472 602.793 90.208 602.793 91.312C602.793 92.672 604.057 93.248 605.433 93.792ZM604.665 99.12C606.009 99.12 606.905 98.304 606.905 97.136C606.905 95.648 605.465 95.136 603.817 94.464C602.873 95.072 602.201 95.904 602.201 96.96C602.201 98.208 603.257 99.12 604.665 99.12ZM614.132 100.224C611.844 100.224 610.468 98.096 610.468 94.272C610.468 90.448 611.844 88.4 614.132 88.4C616.388 88.4 617.764 90.448 617.764 94.272C617.764 98.096 616.388 100.224 614.132 100.224ZM614.132 99.04C615.46 99.04 616.356 97.616 616.356 94.272C616.356 90.912 615.46 89.568 614.132 89.568C612.788 89.568 611.876 90.912 611.876 94.272C611.876 97.616 612.788 99.04 614.132 99.04ZM625.231 100.224C622.303 100.224 620.127 97.952 620.127 94.144C620.127 90.368 622.351 88.064 625.327 88.064C626.751 88.064 627.855 88.752 628.543 89.504L627.727 90.464C627.119 89.808 626.335 89.36 625.343 89.36C623.119 89.36 621.647 91.184 621.647 94.112C621.647 97.072 623.055 98.912 625.295 98.912C626.399 98.912 627.263 98.432 628.015 97.6L628.815 98.528C627.887 99.616 626.751 100.224 625.231 100.224Z" fill="#1A1A1A"/>
<rect x="560" y="113" width="108" height="160.112" rx="4" fill="#8CC80C"/>
<path d="M679.224 75.336C675.84 75.336 673.32 72.432 673.32 66.624C673.32 59.736 676.416 57.096 679.824 57.096C681.648 57.096 682.992 57.864 683.952 58.896L682.728 60.24C682.056 59.424 680.976 58.92 679.92 58.92C677.448 58.92 675.384 60.864 675.384 66.624C675.384 71.136 676.752 73.608 679.224 73.608C680.904 73.608 682.2 72 682.2 69.624C682.2 67.224 681.144 65.712 679.032 65.712C677.904 65.712 676.488 66.384 675.312 68.136L675.24 66.384C676.32 64.968 677.952 64.104 679.368 64.104C682.344 64.104 684.264 65.928 684.264 69.624C684.264 73.032 681.936 75.336 679.224 75.336ZM692.945 75.336C689.585 75.336 687.449 72.288 687.449 66.144C687.449 60.048 689.585 57.096 692.945 57.096C696.257 57.096 698.392 60.048 698.392 66.144C698.392 72.288 696.257 75.336 692.945 75.336ZM692.945 73.56C694.937 73.56 696.281 71.328 696.281 66.144C696.281 61.032 694.937 58.848 692.945 58.848C690.929 58.848 689.561 61.032 689.561 66.144C689.561 71.328 690.929 73.56 692.945 73.56ZM707.217 75.336C703.857 75.336 701.721 72.288 701.721 66.144C701.721 60.048 703.857 57.096 707.217 57.096C710.529 57.096 712.665 60.048 712.665 66.144C712.665 72.288 710.529 75.336 707.217 75.336ZM707.217 73.56C709.209 73.56 710.553 71.328 710.553 66.144C710.553 61.032 709.209 58.848 707.217 58.848C705.201 58.848 703.833 61.032 703.833 66.144C703.833 71.328 705.201 73.56 707.217 73.56Z" fill="#1A1A1A"/>
<path d="M673.616 100L674.048 96.352H672.624V95.328H674.176L674.512 92.688H672.992V91.664H674.624L675.04 88.384H675.984L675.568 91.664H677.936L678.368 88.384H679.312L678.896 91.664H680.336V92.688H678.784L678.448 95.328H679.984V96.352H678.32L677.888 100H676.944L677.36 96.352H675.008L674.56 100H673.616ZM675.12 95.328H677.504L677.824 92.688H675.44L675.12 95.328ZM684.667 100C684.875 95.712 685.739 92.976 687.979 89.856H682.299V88.608H689.627V89.504C686.939 92.944 686.379 95.552 686.187 100H684.667ZM692.63 100V88.272H699.382V89.52H694.118V93.2H698.55V94.464H694.118V98.752H699.558V100H692.63ZM702.692 100V88.272H706.164C708.548 88.272 710.196 89.088 710.196 91.152C710.196 92.304 709.588 93.328 708.484 93.696V93.76C709.892 94.032 710.868 94.976 710.868 96.576C710.868 98.864 709.044 100 706.436 100H702.692ZM704.18 93.264H705.908C707.924 93.264 708.74 92.528 708.74 91.328C708.74 89.952 707.812 89.44 705.988 89.44H704.18V93.264ZM704.18 98.832H706.228C708.228 98.832 709.428 98.112 709.428 96.528C709.428 95.072 708.276 94.4 706.228 94.4H704.18V98.832ZM717.672 100V92.352C717.672 91.76 717.72 90.768 717.768 90.176H717.688C717.4 90.704 717.08 91.216 716.76 91.776L714.088 95.696H720.616V96.848H712.552V95.888L717.432 88.608H719.048V100H717.672ZM726.211 100.224C723.923 100.224 722.547 98.096 722.547 94.272C722.547 90.448 723.923 88.4 726.211 88.4C728.467 88.4 729.843 90.448 729.843 94.272C729.843 98.096 728.467 100.224 726.211 100.224ZM726.211 99.04C727.539 99.04 728.435 97.616 728.435 94.272C728.435 90.912 727.539 89.568 726.211 89.568C724.867 89.568 723.955 90.912 723.955 94.272C723.955 97.616 724.867 99.04 726.211 99.04ZM732.878 100V88.272H735.806C739.422 88.272 741.342 90.368 741.342 94.096C741.342 97.824 739.422 100 735.886 100H732.878ZM734.366 98.784H735.694C738.446 98.784 739.822 97.072 739.822 94.096C739.822 91.12 738.446 89.488 735.694 89.488H734.366V98.784Z" fill="#1A1A1A"/>
<rect x="672" y="113" width="108" height="160.112" rx="4" fill="#7EB40D"/>
<path d="M788.728 75C789.04 68.352 790.24 64.08 793.696 59.28H785.176V57.408H796.168V58.728C792.04 64.032 791.296 68.136 791.008 75H788.728ZM804.945 75.336C801.585 75.336 799.449 72.288 799.449 66.144C799.449 60.048 801.585 57.096 804.945 57.096C808.257 57.096 810.392 60.048 810.392 66.144C810.392 72.288 808.257 75.336 804.945 75.336ZM804.945 73.56C806.937 73.56 808.281 71.328 808.281 66.144C808.281 61.032 806.937 58.848 804.945 58.848C802.929 58.848 801.561 61.032 801.561 66.144C801.561 71.328 802.929 73.56 804.945 73.56ZM819.217 75.336C815.857 75.336 813.721 72.288 813.721 66.144C813.721 60.048 815.857 57.096 819.217 57.096C822.529 57.096 824.665 60.048 824.665 66.144C824.665 72.288 822.529 75.336 819.217 75.336ZM819.217 73.56C821.209 73.56 822.553 71.328 822.553 66.144C822.553 61.032 821.209 58.848 819.217 58.848C817.201 58.848 815.833 61.032 815.833 66.144C815.833 71.328 817.201 73.56 819.217 73.56Z" fill="#1A1A1A"/>
<path d="M785.616 100L786.048 96.352H784.624V95.328H786.176L786.512 92.688H784.992V91.664H786.624L787.04 88.384H787.984L787.568 91.664H789.936L790.368 88.384H791.312L790.896 91.664H792.336V92.688H790.784L790.448 95.328H791.984V96.352H790.32L789.888 100H788.944L789.36 96.352H787.008L786.56 100H785.616ZM787.12 95.328H789.504L789.824 92.688H787.44L787.12 95.328ZM798.315 100.224C796.059 100.224 794.363 98.4 794.363 94.736C794.363 90.144 796.443 88.4 798.715 88.4C799.931 88.4 800.827 88.912 801.451 89.584L800.651 90.496C800.187 89.952 799.483 89.616 798.763 89.616C797.131 89.616 795.755 90.896 795.755 94.736C795.755 97.552 796.651 99.072 798.299 99.072C799.435 99.072 800.299 98.064 800.299 96.56C800.299 95.072 799.595 94.128 798.171 94.128C797.435 94.128 796.507 94.576 795.707 95.76L795.659 94.592C796.395 93.632 797.451 93.04 798.411 93.04C800.379 93.04 801.675 94.224 801.675 96.56C801.675 98.752 800.123 100.224 798.315 100.224ZM804.63 100V88.272H811.382V89.52H806.118V93.504H810.582V94.736H806.118V100H804.63ZM811.827 100L815.795 88.272H817.459L821.427 100H819.875L817.811 93.44C817.395 92.128 817.027 90.848 816.643 89.488H816.579C816.195 90.848 815.827 92.128 815.395 93.44L813.331 100H811.827ZM813.907 96.416V95.248H819.315V96.416H813.907ZM823.562 100V98.784H826.17V90.384H824.074V89.44C825.13 89.248 825.882 88.976 826.506 88.608H827.626V98.784H829.994V100H823.562ZM836.117 100.224C833.829 100.224 832.453 98.096 832.453 94.272C832.453 90.448 833.829 88.4 836.117 88.4C838.373 88.4 839.749 90.448 839.749 94.272C839.749 98.096 838.373 100.224 836.117 100.224ZM836.117 99.04C837.445 99.04 838.341 97.616 838.341 94.272C838.341 90.912 837.445 89.568 836.117 89.568C834.773 89.568 833.861 90.912 833.861 94.272C833.861 97.616 834.773 99.04 836.117 99.04ZM846.608 100V92.352C846.608 91.76 846.656 90.768 846.704 90.176H846.624C846.336 90.704 846.016 91.216 845.696 91.776L843.024 95.696H849.552V96.848H841.488V95.888L846.368 88.608H847.984V100H846.608Z" fill="#1A1A1A"/>
<rect x="784" y="113" width="108" height="160.112" rx="4" fill="#6FA104"/>
<path d="M902.696 75.336C899.456 75.336 897.08 73.368 897.08 70.656C897.08 68.28 898.712 66.648 900.32 65.784V65.688C899.024 64.8 897.92 63.456 897.92 61.608C897.92 58.944 900.008 57.168 902.768 57.168C905.768 57.168 907.592 59.088 907.592 61.776C907.592 63.648 906.296 65.208 905.24 66.024V66.144C906.776 67.032 908.216 68.376 908.216 70.776C908.216 73.344 905.984 75.336 902.696 75.336ZM903.896 65.472C905.096 64.416 905.72 63.216 905.72 61.896C905.72 60.168 904.616 58.776 902.72 58.776C901.112 58.776 899.936 59.928 899.936 61.608C899.936 63.72 901.832 64.656 903.896 65.472ZM902.744 73.68C904.76 73.68 906.104 72.456 906.104 70.704C906.104 68.352 903.944 67.464 901.472 66.456C900.032 67.368 899.048 68.76 899.048 70.44C899.048 72.312 900.632 73.68 902.744 73.68ZM916.945 75.336C913.585 75.336 911.449 72.288 911.449 66.144C911.449 60.048 913.585 57.096 916.945 57.096C920.257 57.096 922.392 60.048 922.392 66.144C922.392 72.288 920.257 75.336 916.945 75.336ZM916.945 73.56C918.937 73.56 920.281 71.328 920.281 66.144C920.281 61.032 918.937 58.848 916.945 58.848C914.929 58.848 913.561 61.032 913.561 66.144C913.561 71.328 914.929 73.56 916.945 73.56ZM931.217 75.336C927.857 75.336 925.721 72.288 925.721 66.144C925.721 60.048 927.857 57.096 931.217 57.096C934.529 57.096 936.665 60.048 936.665 66.144C936.665 72.288 934.529 75.336 931.217 75.336ZM931.217 73.56C933.209 73.56 934.553 71.328 934.553 66.144C934.553 61.032 933.209 58.848 931.217 58.848C929.201 58.848 927.833 61.032 927.833 66.144C927.833 71.328 929.201 73.56 931.217 73.56Z" fill="#1A1A1A"/>
<path d="M897.616 100L898.048 96.352H896.624V95.328H898.176L898.512 92.688H896.992V91.664H898.624L899.04 88.384H899.984L899.568 91.664H901.936L902.368 88.384H903.312L902.896 91.664H904.336V92.688H902.784L902.448 95.328H903.984V96.352H902.32L901.888 100H900.944L901.36 96.352H899.008L898.56 100H897.616ZM899.12 95.328H901.504L901.824 92.688H899.44L899.12 95.328ZM910.315 100.224C908.059 100.224 906.363 98.4 906.363 94.736C906.363 90.144 908.443 88.4 910.715 88.4C911.931 88.4 912.827 88.912 913.451 89.584L912.651 90.496C912.187 89.952 911.483 89.616 910.763 89.616C909.131 89.616 907.755 90.896 907.755 94.736C907.755 97.552 908.651 99.072 910.299 99.072C911.435 99.072 912.299 98.064 912.299 96.56C912.299 95.072 911.595 94.128 910.171 94.128C909.435 94.128 908.507 94.576 907.707 95.76L907.659 94.592C908.395 93.632 909.451 93.04 910.411 93.04C912.379 93.04 913.675 94.224 913.675 96.56C913.675 98.752 912.123 100.224 910.315 100.224ZM916.438 100V98.784H919.046V90.384H916.95V89.44C918.006 89.248 918.758 88.976 919.382 88.608H920.502V98.784H922.87V100H916.438ZM929.009 100.224C926.849 100.224 925.265 98.912 925.265 97.104C925.265 95.6 926.353 94.576 927.425 94.016V93.952C926.577 93.36 925.825 92.512 925.825 91.312C925.825 89.552 927.217 88.4 929.057 88.4C931.057 88.4 932.273 89.648 932.273 91.424C932.273 92.624 931.393 93.632 930.705 94.16V94.24C931.713 94.848 932.689 95.648 932.689 97.184C932.689 98.896 931.201 100.224 929.009 100.224ZM929.809 93.792C930.593 93.088 931.025 92.336 931.025 91.488C931.025 90.368 930.289 89.472 929.025 89.472C927.953 89.472 927.169 90.208 927.169 91.312C927.169 92.672 928.433 93.248 929.809 93.792ZM929.041 99.12C930.385 99.12 931.281 98.304 931.281 97.136C931.281 95.648 929.841 95.136 928.193 94.464C927.249 95.072 926.577 95.904 926.577 96.96C926.577 98.208 927.633 99.12 929.041 99.12ZM935.66 100V88.272H942.412V89.52H937.148V93.2H941.58V94.464H937.148V98.752H942.588V100H935.66ZM948.57 100.224C946.282 100.224 944.906 98.096 944.906 94.272C944.906 90.448 946.282 88.4 948.57 88.4C950.826 88.4 952.202 90.448 952.202 94.272C952.202 98.096 950.826 100.224 948.57 100.224ZM948.57 99.04C949.898 99.04 950.794 97.616 950.794 94.272C950.794 90.912 949.898 89.568 948.57 89.568C947.226 89.568 946.314 90.912 946.314 94.272C946.314 97.616 947.226 99.04 948.57 99.04ZM958.085 100.224C955.797 100.224 954.421 98.096 954.421 94.272C954.421 90.448 955.797 88.4 958.085 88.4C960.341 88.4 961.717 90.448 961.717 94.272C961.717 98.096 960.341 100.224 958.085 100.224ZM958.085 99.04C959.413 99.04 960.309 97.616 960.309 94.272C960.309 90.912 959.413 89.568 958.085 89.568C956.741 89.568 955.829 90.912 955.829 94.272C955.829 97.616 956.741 99.04 958.085 99.04Z" fill="#1A1A1A"/>
<rect x="896" y="113" width="108" height="160.112" rx="4" fill="#618E00"/>
<path d="M1013.62 75.336C1011.7 75.336 1010.35 74.568 1009.37 73.536L1010.59 72.144C1011.34 73.008 1012.42 73.512 1013.54 73.512C1015.9 73.512 1017.94 71.472 1017.94 65.448C1017.94 61.128 1016.57 58.8 1014.1 58.8C1012.42 58.8 1011.12 60.384 1011.12 62.808C1011.12 65.16 1012.18 66.72 1014.26 66.72C1015.44 66.72 1016.81 66.024 1017.96 64.272L1018.08 66.024C1016.98 67.416 1015.42 68.328 1013.9 68.328C1010.95 68.328 1009.06 66.456 1009.06 62.808C1009.06 59.4 1011.36 57.096 1014.1 57.096C1017.48 57.096 1020 59.856 1020 65.448C1020 72.6 1016.93 75.336 1013.62 75.336ZM1028.94 75.336C1025.58 75.336 1023.45 72.288 1023.45 66.144C1023.45 60.048 1025.58 57.096 1028.94 57.096C1032.26 57.096 1034.39 60.048 1034.39 66.144C1034.39 72.288 1032.26 75.336 1028.94 75.336ZM1028.94 73.56C1030.94 73.56 1032.28 71.328 1032.28 66.144C1032.28 61.032 1030.94 58.848 1028.94 58.848C1026.93 58.848 1025.56 61.032 1025.56 66.144C1025.56 71.328 1026.93 73.56 1028.94 73.56ZM1043.22 75.336C1039.86 75.336 1037.72 72.288 1037.72 66.144C1037.72 60.048 1039.86 57.096 1043.22 57.096C1046.53 57.096 1048.66 60.048 1048.66 66.144C1048.66 72.288 1046.53 75.336 1043.22 75.336ZM1043.22 73.56C1045.21 73.56 1046.55 71.328 1046.55 66.144C1046.55 61.032 1045.21 58.848 1043.22 58.848C1041.2 58.848 1039.83 61.032 1039.83 66.144C1039.83 71.328 1041.2 73.56 1043.22 73.56Z" fill="#1A1A1A"/>
<path d="M1009.62 100L1010.05 96.352H1008.62V95.328H1010.18L1010.51 92.688H1008.99V91.664H1010.62L1011.04 88.384H1011.98L1011.57 91.664H1013.94L1014.37 88.384H1015.31L1014.9 91.664H1016.34V92.688H1014.78L1014.45 95.328H1015.98V96.352H1014.32L1013.89 100H1012.94L1013.36 96.352H1011.01L1010.56 100H1009.62ZM1011.12 95.328H1013.5L1013.82 92.688H1011.44L1011.12 95.328ZM1021.69 100.224C1019.87 100.224 1018.75 99.456 1017.95 98.656L1018.68 97.696C1019.34 98.384 1020.2 99.008 1021.55 99.008C1022.94 99.008 1024.04 97.936 1024.04 96.24C1024.04 94.56 1023.08 93.552 1021.63 93.552C1020.84 93.552 1020.35 93.808 1019.68 94.256L1018.89 93.76L1019.26 88.272H1024.97V89.52H1020.54L1020.24 92.912C1020.76 92.624 1021.29 92.448 1022 92.448C1023.95 92.448 1025.53 93.6 1025.53 96.192C1025.53 98.752 1023.66 100.224 1021.69 100.224ZM1031.48 100.224C1029.24 100.224 1027.81 98.192 1027.81 94.096C1027.81 90.032 1029.24 88.064 1031.48 88.064C1033.69 88.064 1035.11 90.032 1035.11 94.096C1035.11 98.192 1033.69 100.224 1031.48 100.224ZM1031.48 99.04C1032.81 99.04 1033.7 97.552 1033.7 94.096C1033.7 90.688 1032.81 89.232 1031.48 89.232C1030.13 89.232 1029.22 90.688 1029.22 94.096C1029.22 97.552 1030.13 99.04 1031.48 99.04ZM1039.7 100C1039.91 95.568 1040.71 92.72 1043.01 89.52H1037.33V88.272H1044.66V89.152C1041.91 92.688 1041.41 95.424 1041.22 100H1039.7ZM1050.24 100.224C1048.41 100.224 1047.29 99.456 1046.49 98.656L1047.23 97.696C1047.88 98.384 1048.75 99.008 1050.09 99.008C1051.48 99.008 1052.59 97.936 1052.59 96.24C1052.59 94.56 1051.63 93.552 1050.17 93.552C1049.39 93.552 1048.89 93.808 1048.22 94.256L1047.44 93.76L1047.8 88.272H1053.52V89.52H1049.08L1048.78 92.912C1049.31 92.624 1049.84 92.448 1050.54 92.448C1052.49 92.448 1054.08 93.6 1054.08 96.192C1054.08 98.752 1052.2 100.224 1050.24 100.224ZM1060.02 100.224C1057.78 100.224 1056.36 98.192 1056.36 94.096C1056.36 90.032 1057.78 88.064 1060.02 88.064C1062.23 88.064 1063.66 90.032 1063.66 94.096C1063.66 98.192 1062.23 100.224 1060.02 100.224ZM1060.02 99.04C1061.35 99.04 1062.25 97.552 1062.25 94.096C1062.25 90.688 1061.35 89.232 1060.02 89.232C1058.68 89.232 1057.77 90.688 1057.77 94.096C1057.77 97.552 1058.68 99.04 1060.02 99.04ZM1069.54 100.224C1067.3 100.224 1065.87 98.192 1065.87 94.096C1065.87 90.032 1067.3 88.064 1069.54 88.064C1071.75 88.064 1073.17 90.032 1073.17 94.096C1073.17 98.192 1071.75 100.224 1069.54 100.224ZM1069.54 99.04C1070.87 99.04 1071.76 97.552 1071.76 94.096C1071.76 90.688 1070.87 89.232 1069.54 89.232C1068.19 89.232 1067.28 90.688 1067.28 94.096C1067.28 97.552 1068.19 99.04 1069.54 99.04Z" fill="#1A1A1A"/>
<rect x="1008" y="113" width="108" height="160.112" rx="4" fill="#507500"/>
<path d="M1122.11 75V73.176H1126.02V60.072H1122.88V58.656C1124.46 58.392 1125.59 57.984 1126.53 57.408H1128.21V73.176H1131.76V75H1122.11ZM1140.94 75.336C1137.58 75.336 1135.45 72.288 1135.45 66.144C1135.45 60.048 1137.58 57.096 1140.94 57.096C1144.26 57.096 1146.39 60.048 1146.39 66.144C1146.39 72.288 1144.26 75.336 1140.94 75.336ZM1140.94 73.56C1142.94 73.56 1144.28 71.328 1144.28 66.144C1144.28 61.032 1142.94 58.848 1140.94 58.848C1138.93 58.848 1137.56 61.032 1137.56 66.144C1137.56 71.328 1138.93 73.56 1140.94 73.56ZM1155.22 75.336C1151.86 75.336 1149.72 72.288 1149.72 66.144C1149.72 60.048 1151.86 57.096 1155.22 57.096C1158.53 57.096 1160.66 60.048 1160.66 66.144C1160.66 72.288 1158.53 75.336 1155.22 75.336ZM1155.22 73.56C1157.21 73.56 1158.55 71.328 1158.55 66.144C1158.55 61.032 1157.21 58.848 1155.22 58.848C1153.2 58.848 1151.83 61.032 1151.83 66.144C1151.83 71.328 1153.2 73.56 1155.22 73.56ZM1169.49 75.336C1166.13 75.336 1163.99 72.288 1163.99 66.144C1163.99 60.048 1166.13 57.096 1169.49 57.096C1172.8 57.096 1174.94 60.048 1174.94 66.144C1174.94 72.288 1172.8 75.336 1169.49 75.336ZM1169.49 73.56C1171.48 73.56 1172.83 71.328 1172.83 66.144C1172.83 61.032 1171.48 58.848 1169.49 58.848C1167.47 58.848 1166.11 61.032 1166.11 66.144C1166.11 71.328 1167.47 73.56 1169.49 73.56Z" fill="#1A1A1A"/>
<path d="M1121.62 100L1122.05 96.352H1120.62V95.328H1122.18L1122.51 92.688H1120.99V91.664H1122.62L1123.04 88.384H1123.98L1123.57 91.664H1125.94L1126.37 88.384H1127.31L1126.9 91.664H1128.34V92.688H1126.78L1126.45 95.328H1127.98V96.352H1126.32L1125.89 100H1124.94L1125.36 96.352H1123.01L1122.56 100H1121.62ZM1123.12 95.328H1125.5L1125.82 92.688H1123.44L1123.12 95.328ZM1133.72 100.224C1131.88 100.224 1130.75 99.456 1129.98 98.608L1130.72 97.648C1131.4 98.368 1132.28 99.008 1133.63 99.008C1135.02 99.008 1136.01 98.192 1136.01 96.912C1136.01 95.552 1135.07 94.64 1132.36 94.64V93.52C1134.78 93.52 1135.6 92.576 1135.6 91.376C1135.6 90.272 1134.84 89.568 1133.63 89.568C1132.68 89.568 1131.85 90.064 1131.2 90.736L1130.41 89.808C1131.29 88.992 1132.33 88.4 1133.68 88.4C1135.64 88.4 1137.08 89.44 1137.08 91.28C1137.08 92.656 1136.25 93.536 1135 94V94.064C1136.38 94.384 1137.5 95.408 1137.5 96.96C1137.5 98.992 1135.82 100.224 1133.72 100.224ZM1140.63 100V88.272H1147.38V89.52H1142.12V93.2H1146.55V94.464H1142.12V98.752H1147.56V100H1140.63ZM1153.27 100.224C1151.44 100.224 1150.32 99.456 1149.52 98.656L1150.26 97.696C1150.92 98.384 1151.78 99.008 1153.12 99.008C1154.52 99.008 1155.62 98 1155.62 96.4C1155.62 94.832 1154.66 93.888 1153.2 93.888C1152.42 93.888 1151.92 94.144 1151.25 94.592L1150.47 94.096L1150.84 88.608H1156.55V89.856H1152.12L1151.81 93.248C1152.34 92.96 1152.87 92.784 1153.57 92.784C1155.52 92.784 1157.11 93.888 1157.11 96.352C1157.11 98.832 1155.24 100.224 1153.27 100.224ZM1158.65 100L1162.62 88.272H1164.29L1168.25 100H1166.7L1164.64 93.44C1164.22 92.128 1163.85 90.848 1163.47 89.488H1163.41C1163.02 90.848 1162.65 92.128 1162.22 93.44L1160.16 100H1158.65ZM1160.73 96.416V95.248H1166.14V96.416H1160.73ZM1173.43 100.224C1171.14 100.224 1169.77 98.096 1169.77 94.272C1169.77 90.448 1171.14 88.4 1173.43 88.4C1175.69 88.4 1177.06 90.448 1177.06 94.272C1177.06 98.096 1175.69 100.224 1173.43 100.224ZM1173.43 99.04C1174.76 99.04 1175.65 97.616 1175.65 94.272C1175.65 90.912 1174.76 89.568 1173.43 89.568C1172.09 89.568 1171.17 90.912 1171.17 94.272C1171.17 97.616 1172.09 99.04 1173.43 99.04ZM1182.94 100.224C1180.66 100.224 1179.28 98.096 1179.28 94.272C1179.28 90.448 1180.66 88.4 1182.94 88.4C1185.2 88.4 1186.58 90.448 1186.58 94.272C1186.58 98.096 1185.2 100.224 1182.94 100.224ZM1182.94 99.04C1184.27 99.04 1185.17 97.616 1185.17 94.272C1185.17 90.912 1184.27 89.568 1182.94 89.568C1181.6 89.568 1180.69 90.912 1180.69 94.272C1180.69 97.616 1181.6 99.04 1182.94 99.04Z" fill="#1A1A1A"/>
<rect x="1120" y="113" width="108" height="160.112" rx="4" fill="#3E5A00"/>
<path d="M1234.11 75V73.176H1238.02V60.072H1234.88V58.656C1236.46 58.392 1237.59 57.984 1238.53 57.408H1240.21V73.176H1243.76V75H1234.11ZM1248.38 75V73.176H1252.3V60.072H1249.15V58.656C1250.74 58.392 1251.86 57.984 1252.8 57.408H1254.48V73.176H1258.03V75H1248.38ZM1267.22 75.336C1263.86 75.336 1261.72 72.288 1261.72 66.144C1261.72 60.048 1263.86 57.096 1267.22 57.096C1270.53 57.096 1272.66 60.048 1272.66 66.144C1272.66 72.288 1270.53 75.336 1267.22 75.336ZM1267.22 73.56C1269.21 73.56 1270.55 71.328 1270.55 66.144C1270.55 61.032 1269.21 58.848 1267.22 58.848C1265.2 58.848 1263.83 61.032 1263.83 66.144C1263.83 71.328 1265.2 73.56 1267.22 73.56ZM1281.49 75.336C1278.13 75.336 1275.99 72.288 1275.99 66.144C1275.99 60.048 1278.13 57.096 1281.49 57.096C1284.8 57.096 1286.94 60.048 1286.94 66.144C1286.94 72.288 1284.8 75.336 1281.49 75.336ZM1281.49 73.56C1283.48 73.56 1284.83 71.328 1284.83 66.144C1284.83 61.032 1283.48 58.848 1281.49 58.848C1279.47 58.848 1278.11 61.032 1278.11 66.144C1278.11 71.328 1279.47 73.56 1281.49 73.56Z" fill="#1A1A1A"/>
<path d="M1233.62 100L1234.05 96.352H1232.62V95.328H1234.18L1234.51 92.688H1232.99V91.664H1234.62L1235.04 88.384H1235.98L1235.57 91.664H1237.94L1238.37 88.384H1239.31L1238.9 91.664H1240.34V92.688H1238.78L1238.45 95.328H1239.98V96.352H1238.32L1237.89 100H1236.94L1237.36 96.352H1235.01L1234.56 100H1233.62ZM1235.12 95.328H1237.5L1237.82 92.688H1235.44L1235.12 95.328ZM1242.22 100V99.152C1245.66 95.728 1247.58 93.664 1247.58 91.792C1247.58 90.496 1246.89 89.568 1245.44 89.568C1244.48 89.568 1243.64 90.176 1242.99 90.944L1242.14 90.112C1243.1 89.072 1244.12 88.4 1245.61 88.4C1247.71 88.4 1249.02 89.712 1249.02 91.744C1249.02 93.888 1247.05 96.016 1244.35 98.864C1244.96 98.8 1245.68 98.752 1246.27 98.752H1249.58V100H1242.22ZM1257.06 100.224C1254.13 100.224 1251.96 97.952 1251.96 94.144C1251.96 90.368 1254.18 88.064 1257.16 88.064C1258.58 88.064 1259.69 88.752 1260.37 89.504L1259.56 90.464C1258.95 89.808 1258.17 89.36 1257.17 89.36C1254.95 89.36 1253.48 91.184 1253.48 94.112C1253.48 97.072 1254.89 98.912 1257.13 98.912C1258.23 98.912 1259.09 98.432 1259.85 97.6L1260.65 98.528C1259.72 99.616 1258.58 100.224 1257.06 100.224ZM1267.3 100V92.352C1267.3 91.76 1267.35 90.768 1267.39 90.176H1267.31C1267.03 90.704 1266.71 91.216 1266.39 91.776L1263.71 95.696H1270.24V96.848H1262.18V95.888L1267.06 88.608H1268.67V100H1267.3ZM1272.8 100V98.784H1275.4V90.384H1273.31V89.44C1274.36 89.248 1275.12 88.976 1275.74 88.608H1276.86V98.784H1279.23V100H1272.8ZM1285.35 100.224C1283.06 100.224 1281.69 98.096 1281.69 94.272C1281.69 90.448 1283.06 88.4 1285.35 88.4C1287.61 88.4 1288.98 90.448 1288.98 94.272C1288.98 98.096 1287.61 100.224 1285.35 100.224ZM1285.35 99.04C1286.68 99.04 1287.58 97.616 1287.58 94.272C1287.58 90.912 1286.68 89.568 1285.35 89.568C1284.01 89.568 1283.1 90.912 1283.1 94.272C1283.1 97.616 1284.01 99.04 1285.35 99.04ZM1294.87 100.224C1292.58 100.224 1291.2 98.096 1291.2 94.272C1291.2 90.448 1292.58 88.4 1294.87 88.4C1297.12 88.4 1298.5 90.448 1298.5 94.272C1298.5 98.096 1297.12 100.224 1294.87 100.224ZM1294.87 99.04C1296.19 99.04 1297.09 97.616 1297.09 94.272C1297.09 90.912 1296.19 89.568 1294.87 89.568C1293.52 89.568 1292.61 90.912 1292.61 94.272C1292.61 97.616 1293.52 99.04 1294.87 99.04Z" fill="#1A1A1A"/>
<rect x="1232" y="113" width="108" height="160.112" rx="4" fill="#2C4100"/>
<path d="M1346.11 75V73.176H1350.02V60.072H1346.88V58.656C1348.46 58.392 1349.59 57.984 1350.53 57.408H1352.21V73.176H1355.76V75H1346.11ZM1359.33 75V73.728C1364.85 68.904 1367.37 65.376 1367.37 62.376C1367.37 60.36 1366.34 58.872 1364.15 58.872C1362.71 58.872 1361.46 59.76 1360.48 60.912L1359.21 59.688C1360.65 58.128 1362.18 57.096 1364.42 57.096C1367.56 57.096 1369.53 59.136 1369.53 62.28C1369.53 65.808 1366.77 69.384 1362.62 73.296C1363.55 73.2 1364.61 73.128 1365.5 73.128H1370.37V75H1359.33ZM1379.22 75.336C1375.86 75.336 1373.72 72.288 1373.72 66.144C1373.72 60.048 1375.86 57.096 1379.22 57.096C1382.53 57.096 1384.66 60.048 1384.66 66.144C1384.66 72.288 1382.53 75.336 1379.22 75.336ZM1379.22 73.56C1381.21 73.56 1382.55 71.328 1382.55 66.144C1382.55 61.032 1381.21 58.848 1379.22 58.848C1377.2 58.848 1375.83 61.032 1375.83 66.144C1375.83 71.328 1377.2 73.56 1379.22 73.56ZM1393.49 75.336C1390.13 75.336 1387.99 72.288 1387.99 66.144C1387.99 60.048 1390.13 57.096 1393.49 57.096C1396.8 57.096 1398.94 60.048 1398.94 66.144C1398.94 72.288 1396.8 75.336 1393.49 75.336ZM1393.49 73.56C1395.48 73.56 1396.83 71.328 1396.83 66.144C1396.83 61.032 1395.48 58.848 1393.49 58.848C1391.47 58.848 1390.11 61.032 1390.11 66.144C1390.11 71.328 1391.47 73.56 1393.49 73.56Z" fill="#1A1A1A"/>
<path d="M1345.62 100L1346.05 96.352H1344.62V95.328H1346.18L1346.51 92.688H1344.99V91.664H1346.62L1347.04 88.384H1347.98L1347.57 91.664H1349.94L1350.37 88.384H1351.31L1350.9 91.664H1352.34V92.688H1350.78L1350.45 95.328H1351.98V96.352H1350.32L1349.89 100H1348.94L1349.36 96.352H1347.01L1346.56 100H1345.62ZM1347.12 95.328H1349.5L1349.82 92.688H1347.44L1347.12 95.328ZM1354.92 100V98.784H1357.53V90.384H1355.44V89.44C1356.49 89.248 1357.24 88.976 1357.87 88.608H1358.99V98.784H1361.36V100H1354.92ZM1364.63 100V88.272H1371.38V89.52H1366.12V93.2H1370.55V94.464H1366.12V98.752H1371.56V100H1364.63ZM1373.8 100V99.152C1377.24 95.728 1379.16 93.664 1379.16 91.792C1379.16 90.496 1378.47 89.568 1377.01 89.568C1376.05 89.568 1375.22 90.176 1374.56 90.944L1373.72 90.112C1374.68 89.072 1375.7 88.4 1377.19 88.4C1379.28 88.4 1380.6 89.712 1380.6 91.744C1380.6 93.888 1378.63 96.016 1375.92 98.864C1376.53 98.8 1377.25 98.752 1377.84 98.752H1381.16V100H1373.8ZM1384.21 100V88.272H1387.13C1390.75 88.272 1392.67 90.368 1392.67 94.096C1392.67 97.824 1390.75 100 1387.21 100H1384.21ZM1385.69 98.784H1387.02C1389.77 98.784 1391.15 97.072 1391.15 94.096C1391.15 91.12 1389.77 89.488 1387.02 89.488H1385.69V98.784ZM1398.71 100.224C1396.42 100.224 1395.05 98.096 1395.05 94.272C1395.05 90.448 1396.42 88.4 1398.71 88.4C1400.97 88.4 1402.34 90.448 1402.34 94.272C1402.34 98.096 1400.97 100.224 1398.71 100.224ZM1398.71 99.04C1400.04 99.04 1400.93 97.616 1400.93 94.272C1400.93 90.912 1400.04 89.568 1398.71 89.568C1397.37 89.568 1396.45 90.912 1396.45 94.272C1396.45 97.616 1397.37 99.04 1398.71 99.04ZM1408.23 100.224C1405.94 100.224 1404.56 98.096 1404.56 94.272C1404.56 90.448 1405.94 88.4 1408.23 88.4C1410.48 88.4 1411.86 90.448 1411.86 94.272C1411.86 98.096 1410.48 100.224 1408.23 100.224ZM1408.23 99.04C1409.55 99.04 1410.45 97.616 1410.45 94.272C1410.45 90.912 1409.55 89.568 1408.23 89.568C1406.88 89.568 1405.97 90.912 1405.97 94.272C1405.97 97.616 1406.88 99.04 1408.23 99.04Z" fill="#1A1A1A"/>
<rect x="1344" y="113" width="108" height="160.112" rx="4" fill="#1E2D00"/>
<rect x="795.5" y="283.611" width="64" height="23" rx="11.5" fill="white"/>
<rect x="795.5" y="283.611" width="64" height="23" rx="11.5" stroke="#949494"/>
<path d="M811.208 302.335C809.368 302.335 808.232 301.567 807.464 300.719L808.2 299.759C808.888 300.479 809.768 301.119 811.112 301.119C812.504 301.119 813.496 300.271 813.496 298.927C813.496 297.519 812.552 296.591 809.848 296.591V295.455C812.264 295.455 813.08 294.495 813.08 293.215C813.08 292.095 812.328 291.359 811.112 291.359C810.168 291.359 809.336 291.839 808.68 292.511L807.896 291.567C808.776 290.767 809.816 290.175 811.16 290.175C813.128 290.175 814.568 291.247 814.568 293.119C814.568 294.543 813.736 295.487 812.488 295.935V295.999C813.864 296.335 814.984 297.375 814.984 298.991C814.984 301.071 813.304 302.335 811.208 302.335ZM818.723 295.871C818.147 295.871 817.683 295.423 817.683 294.767C817.683 294.095 818.147 293.647 818.723 293.647C819.315 293.647 819.795 294.095 819.795 294.767C819.795 295.423 819.315 295.871 818.723 295.871ZM818.723 302.335C818.147 302.335 817.683 301.871 817.683 301.215C817.683 300.543 818.147 300.095 818.723 300.095C819.315 300.095 819.795 300.543 819.795 301.215C819.795 301.871 819.315 302.335 818.723 302.335ZM823.016 302.111V300.895H825.624V292.159H823.528V291.215C824.584 291.039 825.336 290.767 825.96 290.383H827.08V300.895H829.448V302.111H823.016ZM844.099 295.487C843.267 294.879 842.227 293.855 841.491 292.879L842.451 292.303C843.539 293.711 845.123 295.135 846.563 296.031C845.123 296.943 843.539 298.367 842.451 299.775L841.491 299.199C842.227 298.223 843.267 297.199 844.099 296.591H831.763V295.487H844.099Z" fill="black"/>
<rect x="1026" y="283.611" width="78" height="23" rx="11.5" fill="white"/>
<rect x="1026" y="283.611" width="78" height="23" rx="11.5" stroke="#949494"/>
<path d="M1042.92 302.111V294.127C1042.92 293.535 1042.97 292.591 1043.02 291.983H1042.94C1042.65 292.559 1042.33 293.151 1042.01 293.727L1039.34 297.727H1045.87V298.879H1037.8V297.919L1042.68 290.383H1044.3V302.111H1042.92ZM1049.22 302.335C1048.65 302.335 1048.18 301.871 1048.18 301.215C1048.18 300.543 1048.65 300.095 1049.22 300.095C1049.82 300.095 1050.3 300.543 1050.3 301.215C1050.3 301.871 1049.82 302.335 1049.22 302.335ZM1056.28 302.335C1054.46 302.335 1053.34 301.567 1052.54 300.767L1053.28 299.807C1053.93 300.495 1054.8 301.119 1056.14 301.119C1057.53 301.119 1058.64 300.047 1058.64 298.351C1058.64 296.671 1057.68 295.663 1056.22 295.663C1055.44 295.663 1054.94 295.919 1054.27 296.367L1053.48 295.871L1053.85 290.383H1059.56V291.631H1055.13L1054.83 295.023C1055.36 294.735 1055.88 294.559 1056.59 294.559C1058.54 294.559 1060.12 295.711 1060.12 298.303C1060.12 300.863 1058.25 302.335 1056.28 302.335ZM1063.83 295.871C1063.26 295.871 1062.79 295.423 1062.79 294.767C1062.79 294.095 1063.26 293.647 1063.83 293.647C1064.42 293.647 1064.9 294.095 1064.9 294.767C1064.9 295.423 1064.42 295.871 1063.83 295.871ZM1063.83 302.335C1063.26 302.335 1062.79 301.871 1062.79 301.215C1062.79 300.543 1063.26 300.095 1063.83 300.095C1064.42 300.095 1064.9 300.543 1064.9 301.215C1064.9 301.871 1064.42 302.335 1063.83 302.335ZM1068.12 302.111V300.895H1070.73V292.159H1068.64V291.215C1069.69 291.039 1070.44 290.767 1071.07 290.383H1072.19V300.895H1074.56V302.111H1068.12ZM1089.21 295.487C1088.38 294.879 1087.34 293.855 1086.6 292.879L1087.56 292.303C1088.65 293.711 1090.23 295.135 1091.67 296.031C1090.23 296.943 1088.65 298.367 1087.56 299.775L1086.6 299.199C1087.34 298.223 1088.38 297.199 1089.21 296.591H1076.87V295.487H1089.21Z" fill="black"/>
<rect x="1032.5" y="315.529" width="65" height="24" rx="12" fill="black"/>
<path d="M1047.51 329.009C1048.34 329.617 1049.38 330.641 1050.12 331.617L1049.16 332.193C1048.07 330.785 1046.48 329.361 1045.06 328.449C1046.48 327.553 1048.07 326.129 1049.16 324.721L1050.12 325.297C1049.38 326.273 1048.34 327.297 1047.51 327.905H1059.86V329.009H1047.51ZM1065.35 334.753C1063.51 334.753 1062.37 333.985 1061.6 333.137L1062.34 332.177C1063.03 332.897 1063.91 333.537 1065.25 333.537C1066.64 333.537 1067.64 332.689 1067.64 331.345C1067.64 329.937 1066.69 329.009 1063.99 329.009V327.873C1066.4 327.873 1067.22 326.913 1067.22 325.633C1067.22 324.513 1066.47 323.777 1065.25 323.777C1064.31 323.777 1063.48 324.257 1062.82 324.929L1062.04 323.985C1062.92 323.185 1063.96 322.593 1065.3 322.593C1067.27 322.593 1068.71 323.665 1068.71 325.537C1068.71 326.961 1067.88 327.905 1066.63 328.353V328.417C1068 328.753 1069.12 329.793 1069.12 331.409C1069.12 333.489 1067.44 334.753 1065.35 334.753ZM1072.86 328.289C1072.29 328.289 1071.82 327.841 1071.82 327.185C1071.82 326.513 1072.29 326.065 1072.86 326.065C1073.46 326.065 1073.94 326.513 1073.94 327.185C1073.94 327.841 1073.46 328.289 1072.86 328.289ZM1072.86 334.753C1072.29 334.753 1071.82 334.289 1071.82 333.633C1071.82 332.961 1072.29 332.513 1072.86 332.513C1073.46 332.513 1073.94 332.961 1073.94 333.633C1073.94 334.289 1073.46 334.753 1072.86 334.753ZM1077.16 334.529V333.313H1079.76V324.577H1077.67V323.633C1078.72 323.457 1079.48 323.185 1080.1 322.801H1081.22V333.313H1083.59V334.529H1077.16Z" fill="white"/>
<rect x="917" y="315.529" width="79" height="24" rx="12" fill="black"/>
<path d="M932.008 329.009C932.84 329.617 933.88 330.641 934.616 331.617L933.656 332.193C932.568 330.785 930.984 329.361 929.56 328.449C930.984 327.553 932.568 326.129 933.656 324.721L934.616 325.297C933.88 326.273 932.84 327.297 932.008 327.905H944.36V329.009H932.008ZM951.064 334.529V326.545C951.064 325.953 951.112 325.009 951.16 324.401H951.08C950.792 324.977 950.472 325.569 950.152 326.145L947.48 330.145H954.008V331.297H945.944V330.337L950.824 322.801H952.44V334.529H951.064ZM957.363 334.753C956.787 334.753 956.323 334.289 956.323 333.633C956.323 332.961 956.787 332.513 957.363 332.513C957.955 332.513 958.435 332.961 958.435 333.633C958.435 334.289 957.955 334.753 957.363 334.753ZM964.424 334.753C962.6 334.753 961.48 333.985 960.68 333.185L961.416 332.225C962.072 332.913 962.936 333.537 964.28 333.537C965.672 333.537 966.776 332.465 966.776 330.769C966.776 329.089 965.816 328.081 964.36 328.081C963.576 328.081 963.08 328.337 962.408 328.785L961.624 328.289L961.992 322.801H967.704V324.049H963.272L962.968 327.441C963.496 327.153 964.024 326.977 964.728 326.977C966.68 326.977 968.264 328.129 968.264 330.721C968.264 333.281 966.392 334.753 964.424 334.753ZM971.971 328.289C971.395 328.289 970.931 327.841 970.931 327.185C970.931 326.513 971.395 326.065 971.971 326.065C972.563 326.065 973.043 326.513 973.043 327.185C973.043 327.841 972.563 328.289 971.971 328.289ZM971.971 334.753C971.395 334.753 970.931 334.289 970.931 333.633C970.931 332.961 971.395 332.513 971.971 332.513C972.563 332.513 973.043 332.961 973.043 333.633C973.043 334.289 972.563 334.753 971.971 334.753ZM976.264 334.529V333.313H978.872V324.577H976.776V323.633C977.832 323.457 978.584 323.185 979.208 322.801H980.328V333.313H982.696V334.529H976.264Z" fill="white"/>
<path d="M1.82 17V2.18H4.78V14.52H10.8V17H1.82ZM13.1425 17V5.8H16.0825V17H13.1425ZM14.6225 4C13.6025 4 12.9025 3.36 12.9025 2.38C12.9025 1.42 13.6025 0.779999 14.6225 0.779999C15.6225 0.779999 16.3225 1.42 16.3225 2.38C16.3225 3.36 15.6225 4 14.6225 4ZM19.2167 17V5.8H21.6167L21.8367 7.3H21.8967C22.8367 6.32 23.8767 5.52 25.3367 5.52C26.9367 5.52 27.8767 6.24 28.4167 7.48C29.4367 6.4 30.5167 5.52 31.9767 5.52C34.3567 5.52 35.4567 7.2 35.4567 10.02V17H32.5167V10.38C32.5167 8.64 32.0167 8.04 30.9567 8.04C30.3167 8.04 29.5967 8.46 28.7967 9.3V17H25.8767V10.38C25.8767 8.64 25.3567 8.04 24.2967 8.04C23.6567 8.04 22.9367 8.46 22.1567 9.3V17H19.2167ZM43.3741 17.28C40.2341 17.28 37.7941 15.1 37.7941 11.4C37.7941 7.78 40.3541 5.52 43.0141 5.52C46.0941 5.52 47.6941 7.78 47.6941 10.86C47.6941 11.42 47.6341 11.96 47.5541 12.22H40.6541C40.8941 14.06 42.0941 15.02 43.7541 15.02C44.6741 15.02 45.4741 14.74 46.2741 14.24L47.2741 16.04C46.1741 16.8 44.7541 17.28 43.3741 17.28ZM40.6141 10.26H45.1741C45.1741 8.76 44.4941 7.8 43.0541 7.8C41.8741 7.8 40.8341 8.64 40.6141 10.26Z" fill="#1A1A1A"/>
</svg>
