<svg width="1452" height="341" viewBox="0 0 1452 341" fill="none" xmlns="http://www.w3.org/2000/svg">
<path d="M6.264 76.336C3.528 76.336 1.848 75.184 0.648 73.984L1.752 72.544C2.736 73.576 4.032 74.512 6.048 74.512C8.136 74.512 9.792 72.904 9.792 70.36C9.792 67.84 8.352 66.328 6.168 66.328C4.992 66.328 4.248 66.712 3.24 67.384L2.064 66.64L2.616 58.408H11.184V60.28H4.536L4.08 65.368C4.872 64.936 5.664 64.672 6.72 64.672C9.648 64.672 12.024 66.4 12.024 70.288C12.024 74.128 9.216 76.336 6.264 76.336ZM20.9445 76.336C17.5845 76.336 15.4485 73.288 15.4485 67.144C15.4485 61.048 17.5845 58.096 20.9445 58.096C24.2565 58.096 26.3925 61.048 26.3925 67.144C26.3925 73.288 24.2565 76.336 20.9445 76.336ZM20.9445 74.56C22.9365 74.56 24.2805 72.328 24.2805 67.144C24.2805 62.032 22.9365 59.848 20.9445 59.848C18.9285 59.848 17.5605 62.032 17.5605 67.144C17.5605 72.328 18.9285 74.56 20.9445 74.56Z" fill="#1A1A1A"/>
<path d="M1.616 101L2.048 97.352H0.624V96.328H2.176L2.512 93.688H0.992V92.664H2.624L3.04 89.384H3.984L3.568 92.664H5.936L6.368 89.384H7.312L6.896 92.664H8.336V93.688H6.784L6.448 96.328H7.984V97.352H6.32L5.888 101H4.944L5.36 97.352H3.008L2.56 101H1.616ZM3.12 96.328H5.504L5.824 93.688H3.44L3.12 96.328ZM11.115 101V89.272H17.867V90.52H12.603V94.504H17.067V95.736H12.603V101H11.115ZM20.5831 101V89.272H27.3351V90.52H22.0711V94.504H26.5351V95.736H22.0711V101H20.5831ZM30.0513 101V89.272H36.8033V90.52H31.5393V94.2H35.9713V95.464H31.5393V99.752H36.9793V101H30.0513ZM40.1131 101V89.272H46.8651V90.52H41.6011V94.2H46.0331V95.464H41.6011V99.752H47.0411V101H40.1131ZM50.175 101V89.272H56.927V90.52H51.663V94.2H56.095V95.464H51.663V99.752H57.103V101H50.175ZM59.3409 101V100.152C62.7809 96.728 64.7009 94.664 64.7009 92.792C64.7009 91.496 64.0129 90.568 62.5569 90.568C61.5969 90.568 60.7649 91.176 60.1089 91.944L59.2609 91.112C60.2209 90.072 61.2449 89.4 62.7329 89.4C64.8289 89.4 66.1409 90.712 66.1409 92.744C66.1409 94.888 64.1729 97.016 61.4689 99.864C62.0769 99.8 62.7969 99.752 63.3889 99.752H66.7009V101H59.3409Z" fill="#1A1A1A"/>
<rect y="114" width="108" height="160.112" rx="4" fill="#FFEEE2"/>
<path d="M114.112 76V74.176H118.024V61.072H114.88V59.656C116.464 59.392 117.592 58.984 118.528 58.408H120.208V74.176H123.76V76H114.112ZM132.945 76.336C129.585 76.336 127.449 73.288 127.449 67.144C127.449 61.048 129.585 58.096 132.945 58.096C136.257 58.096 138.392 61.048 138.392 67.144C138.392 73.288 136.257 76.336 132.945 76.336ZM132.945 74.56C134.937 74.56 136.281 72.328 136.281 67.144C136.281 62.032 134.937 59.848 132.945 59.848C130.929 59.848 129.561 62.032 129.561 67.144C129.561 72.328 130.929 74.56 132.945 74.56ZM147.217 76.336C143.857 76.336 141.721 73.288 141.721 67.144C141.721 61.048 143.857 58.096 147.217 58.096C150.529 58.096 152.665 61.048 152.665 67.144C152.665 73.288 150.529 76.336 147.217 76.336ZM147.217 74.56C149.209 74.56 150.553 72.328 150.553 67.144C150.553 62.032 149.209 59.848 147.217 59.848C145.201 59.848 143.833 62.032 143.833 67.144C143.833 72.328 145.201 74.56 147.217 74.56Z" fill="#1A1A1A"/>
<path d="M113.616 101L114.048 97.352H112.624V96.328H114.176L114.512 93.688H112.992V92.664H114.624L115.04 89.384H115.984L115.568 92.664H117.936L118.368 89.384H119.312L118.896 92.664H120.336V93.688H118.784L118.448 96.328H119.984V97.352H118.32L117.888 101H116.944L117.36 97.352H115.008L114.56 101H113.616ZM115.12 96.328H117.504L117.824 93.688H115.44L115.12 96.328ZM123.115 101V89.272H129.867V90.52H124.603V94.504H129.067V95.736H124.603V101H123.115ZM132.583 101V89.272H139.335V90.52H134.071V94.504H138.535V95.736H134.071V101H132.583ZM142.051 101V89.272H144.979C148.595 89.272 150.515 91.368 150.515 95.096C150.515 98.824 148.595 101 145.059 101H142.051ZM143.539 99.784H144.867C147.619 99.784 148.995 98.072 148.995 95.096C148.995 92.12 147.619 90.488 144.867 90.488H143.539V99.784ZM153.707 101V89.272H160.459V90.52H155.195V94.504H159.659V95.736H155.195V101H153.707ZM167.388 101.224C164.46 101.224 162.284 98.952 162.284 95.144C162.284 91.368 164.508 89.064 167.484 89.064C168.908 89.064 170.012 89.752 170.7 90.504L169.884 91.464C169.276 90.808 168.492 90.36 167.5 90.36C165.276 90.36 163.804 92.184 163.804 95.112C163.804 98.072 165.212 99.912 167.452 99.912C168.556 99.912 169.42 99.432 170.172 98.6L170.972 99.528C170.044 100.616 168.908 101.224 167.388 101.224ZM172.247 101L176.215 89.272H177.879L181.847 101H180.295L178.231 94.44C177.815 93.128 177.447 91.848 177.063 90.488H176.999C176.615 91.848 176.247 93.128 175.815 94.44L173.751 101H172.247ZM174.327 97.416V96.248H179.735V97.416H174.327Z" fill="#1A1A1A"/>
<rect x="112" y="114" width="108" height="160.112" rx="4" fill="#FFDFCA"/>
<path d="M225.056 76V74.728C230.576 69.904 233.096 66.376 233.096 63.376C233.096 61.36 232.064 59.872 229.88 59.872C228.44 59.872 227.192 60.76 226.208 61.912L224.936 60.688C226.376 59.128 227.912 58.096 230.144 58.096C233.288 58.096 235.256 60.136 235.256 63.28C235.256 66.808 232.496 70.384 228.344 74.296C229.28 74.2 230.336 74.128 231.224 74.128H236.096V76H225.056ZM244.945 76.336C241.585 76.336 239.449 73.288 239.449 67.144C239.449 61.048 241.585 58.096 244.945 58.096C248.257 58.096 250.392 61.048 250.392 67.144C250.392 73.288 248.257 76.336 244.945 76.336ZM244.945 74.56C246.937 74.56 248.281 72.328 248.281 67.144C248.281 62.032 246.937 59.848 244.945 59.848C242.929 59.848 241.561 62.032 241.561 67.144C241.561 72.328 242.929 74.56 244.945 74.56ZM259.217 76.336C255.857 76.336 253.721 73.288 253.721 67.144C253.721 61.048 255.857 58.096 259.217 58.096C262.529 58.096 264.665 61.048 264.665 67.144C264.665 73.288 262.529 76.336 259.217 76.336ZM259.217 74.56C261.209 74.56 262.553 72.328 262.553 67.144C262.553 62.032 261.209 59.848 259.217 59.848C257.201 59.848 255.833 62.032 255.833 67.144C255.833 72.328 257.201 74.56 259.217 74.56Z" fill="#1A1A1A"/>
<path d="M225.616 101L226.048 97.352H224.624V96.328H226.176L226.512 93.688H224.992V92.664H226.624L227.04 89.384H227.984L227.568 92.664H229.936L230.368 89.384H231.312L230.896 92.664H232.336V93.688H230.784L230.448 96.328H231.984V97.352H230.32L229.888 101H228.944L229.36 97.352H227.008L226.56 101H225.616ZM227.12 96.328H229.504L229.824 93.688H227.44L227.12 96.328ZM235.115 101V89.272H241.867V90.52H236.603V94.504H241.067V95.736H236.603V101H235.115ZM244.583 101V89.272H251.335V90.52H246.071V94.504H250.535V95.736H246.071V101H244.583ZM258.265 101.224C255.337 101.224 253.161 98.952 253.161 95.144C253.161 91.368 255.385 89.064 258.361 89.064C259.785 89.064 260.889 89.752 261.577 90.504L260.761 91.464C260.153 90.808 259.369 90.36 258.377 90.36C256.153 90.36 254.681 92.184 254.681 95.112C254.681 98.072 256.089 99.912 258.329 99.912C259.433 99.912 260.297 99.432 261.049 98.6L261.849 99.528C260.921 100.616 259.785 101.224 258.265 101.224ZM264.484 101V99.784H267.092V91.384H264.996V90.44C266.052 90.248 266.804 89.976 267.428 89.608H268.548V99.784H270.916V101H264.484ZM276.255 101.224C275.023 101.224 274.127 100.712 273.503 100.024L274.319 99.096C274.783 99.672 275.487 100.008 276.191 100.008C277.839 100.008 279.215 98.712 279.215 94.872C279.215 92.056 278.303 90.536 276.655 90.536C275.535 90.536 274.671 91.528 274.671 93.048C274.671 94.536 275.375 95.48 276.783 95.48C277.535 95.48 278.463 95.032 279.231 93.848L279.311 95.016C278.575 95.976 277.503 96.568 276.543 96.568C274.559 96.568 273.295 95.384 273.295 93.048C273.295 90.872 274.831 89.4 276.655 89.4C278.911 89.4 280.591 91.208 280.591 94.872C280.591 99.464 278.511 101.224 276.255 101.224ZM285.77 101.224C284.538 101.224 283.642 100.712 283.018 100.024L283.834 99.096C284.298 99.672 285.002 100.008 285.706 100.008C287.354 100.008 288.73 98.712 288.73 94.872C288.73 92.056 287.818 90.536 286.17 90.536C285.05 90.536 284.186 91.528 284.186 93.048C284.186 94.536 284.89 95.48 286.298 95.48C287.05 95.48 287.978 95.032 288.746 93.848L288.826 95.016C288.09 95.976 287.018 96.568 286.058 96.568C284.074 96.568 282.81 95.384 282.81 93.048C282.81 90.872 284.346 89.4 286.17 89.4C288.426 89.4 290.106 91.208 290.106 94.872C290.106 99.464 288.026 101.224 285.77 101.224Z" fill="#1A1A1A"/>
<rect x="224" y="114" width="108" height="160.112" rx="4" fill="#FFC199"/>
<path d="M342.312 76.336C339.552 76.336 337.848 75.184 336.696 73.912L337.8 72.472C338.832 73.552 340.152 74.512 342.168 74.512C344.256 74.512 345.744 73.24 345.744 71.224C345.744 69.112 344.328 67.72 340.272 67.72V66.016C343.896 66.016 345.12 64.576 345.12 62.656C345.12 60.976 343.992 59.872 342.168 59.872C340.752 59.872 339.504 60.592 338.52 61.6L337.344 60.184C338.664 58.984 340.224 58.096 342.24 58.096C345.192 58.096 347.352 59.704 347.352 62.512C347.352 64.648 346.104 66.064 344.232 66.736V66.832C346.296 67.336 347.976 68.896 347.976 71.32C347.976 74.44 345.456 76.336 342.312 76.336ZM356.945 76.336C353.585 76.336 351.449 73.288 351.449 67.144C351.449 61.048 353.585 58.096 356.945 58.096C360.257 58.096 362.392 61.048 362.392 67.144C362.392 73.288 360.257 76.336 356.945 76.336ZM356.945 74.56C358.937 74.56 360.281 72.328 360.281 67.144C360.281 62.032 358.937 59.848 356.945 59.848C354.929 59.848 353.561 62.032 353.561 67.144C353.561 72.328 354.929 74.56 356.945 74.56ZM371.217 76.336C367.857 76.336 365.721 73.288 365.721 67.144C365.721 61.048 367.857 58.096 371.217 58.096C374.529 58.096 376.665 61.048 376.665 67.144C376.665 73.288 374.529 76.336 371.217 76.336ZM371.217 74.56C373.209 74.56 374.553 72.328 374.553 67.144C374.553 62.032 373.209 59.848 371.217 59.848C369.201 59.848 367.833 62.032 367.833 67.144C367.833 72.328 369.201 74.56 371.217 74.56Z" fill="#1A1A1A"/>
<path d="M337.616 101L338.048 97.352H336.624V96.328H338.176L338.512 93.688H336.992V92.664H338.624L339.04 89.384H339.984L339.568 92.664H341.936L342.368 89.384H343.312L342.896 92.664H344.336V93.688H342.784L342.448 96.328H343.984V97.352H342.32L341.888 101H340.944L341.36 97.352H339.008L338.56 101H337.616ZM339.12 96.328H341.504L341.824 93.688H339.44L339.12 96.328ZM347.115 101V89.272H353.867V90.52H348.603V94.504H353.067V95.736H348.603V101H347.115ZM356.583 101V89.272H363.335V90.52H358.071V94.504H362.535V95.736H358.071V101H356.583ZM363.781 101L367.749 89.272H369.413L373.381 101H371.829L369.765 94.44C369.349 93.128 368.981 91.848 368.597 90.488H368.533C368.149 91.848 367.781 93.128 367.349 94.44L365.285 101H363.781ZM365.861 97.416V96.248H371.269V97.416H365.861ZM378.907 101.224C376.651 101.224 374.955 99.4 374.955 95.736C374.955 91.144 377.035 89.4 379.307 89.4C380.523 89.4 381.419 89.912 382.043 90.584L381.243 91.496C380.779 90.952 380.075 90.616 379.355 90.616C377.723 90.616 376.347 91.896 376.347 95.736C376.347 98.552 377.243 100.072 378.891 100.072C380.027 100.072 380.891 99.064 380.891 97.56C380.891 96.072 380.187 95.128 378.763 95.128C378.027 95.128 377.099 95.576 376.299 96.76L376.251 95.592C376.987 94.632 378.043 94.04 379.003 94.04C380.971 94.04 382.267 95.224 382.267 97.56C382.267 99.752 380.715 101.224 378.907 101.224ZM388.422 101.224C386.166 101.224 384.47 99.4 384.47 95.736C384.47 91.144 386.55 89.4 388.822 89.4C390.038 89.4 390.934 89.912 391.558 90.584L390.758 91.496C390.294 90.952 389.59 90.616 388.87 90.616C387.238 90.616 385.862 91.896 385.862 95.736C385.862 98.552 386.758 100.072 388.406 100.072C389.542 100.072 390.406 99.064 390.406 97.56C390.406 96.072 389.702 95.128 388.278 95.128C387.542 95.128 386.614 95.576 385.814 96.76L385.766 95.592C386.502 94.632 387.558 94.04 388.518 94.04C390.486 94.04 391.782 95.224 391.782 97.56C391.782 99.752 390.23 101.224 388.422 101.224ZM394.737 101V89.272H397.665C401.281 89.272 403.201 91.368 403.201 95.096C403.201 98.824 401.281 101 397.745 101H394.737ZM396.225 99.784H397.553C400.305 99.784 401.681 98.072 401.681 95.096C401.681 92.12 400.305 90.488 397.553 90.488H396.225V99.784Z" fill="#1A1A1A"/>
<rect x="336" y="114" width="108" height="160.112" rx="4" fill="#FFA66D"/>
<path d="M456.136 76V64.024C456.136 63.136 456.208 61.72 456.28 60.808H456.16C455.728 61.672 455.248 62.56 454.768 63.424L450.76 69.424H460.552V71.152H448.456V69.712L455.776 58.408H458.2V76H456.136ZM468.945 76.336C465.585 76.336 463.449 73.288 463.449 67.144C463.449 61.048 465.585 58.096 468.945 58.096C472.257 58.096 474.392 61.048 474.392 67.144C474.392 73.288 472.257 76.336 468.945 76.336ZM468.945 74.56C470.937 74.56 472.281 72.328 472.281 67.144C472.281 62.032 470.937 59.848 468.945 59.848C466.929 59.848 465.561 62.032 465.561 67.144C465.561 72.328 466.929 74.56 468.945 74.56ZM483.217 76.336C479.857 76.336 477.721 73.288 477.721 67.144C477.721 61.048 479.857 58.096 483.217 58.096C486.529 58.096 488.665 61.048 488.665 67.144C488.665 73.288 486.529 76.336 483.217 76.336ZM483.217 74.56C485.209 74.56 486.553 72.328 486.553 67.144C486.553 62.032 485.209 59.848 483.217 59.848C481.201 59.848 479.833 62.032 479.833 67.144C479.833 72.328 481.201 74.56 483.217 74.56Z" fill="#1A1A1A"/>
<path d="M449.616 101L450.048 97.352H448.624V96.328H450.176L450.512 93.688H448.992V92.664H450.624L451.04 89.384H451.984L451.568 92.664H453.936L454.368 89.384H455.312L454.896 92.664H456.336V93.688H454.784L454.448 96.328H455.984V97.352H454.32L453.888 101H452.944L453.36 97.352H451.008L450.56 101H449.616ZM451.12 96.328H453.504L453.824 93.688H451.44L451.12 96.328ZM459.115 101V89.272H465.867V90.52H460.603V94.504H465.067V95.736H460.603V101H459.115ZM468.583 101V89.272H475.335V90.52H470.071V94.504H474.535V95.736H470.071V101H468.583ZM480.915 101.224C478.755 101.224 477.171 99.912 477.171 98.104C477.171 96.6 478.259 95.576 479.331 95.016V94.952C478.483 94.36 477.731 93.512 477.731 92.312C477.731 90.552 479.123 89.4 480.963 89.4C482.963 89.4 484.179 90.648 484.179 92.424C484.179 93.624 483.299 94.632 482.611 95.16V95.24C483.619 95.848 484.595 96.648 484.595 98.184C484.595 99.896 483.107 101.224 480.915 101.224ZM481.715 94.792C482.499 94.088 482.931 93.336 482.931 92.488C482.931 91.368 482.195 90.472 480.931 90.472C479.859 90.472 479.075 91.208 479.075 92.312C479.075 93.672 480.339 94.248 481.715 94.792ZM480.947 100.12C482.291 100.12 483.187 99.304 483.187 98.136C483.187 96.648 481.747 96.136 480.099 95.464C479.155 96.072 478.483 96.904 478.483 97.96C478.483 99.208 479.539 100.12 480.947 100.12ZM487.566 101V89.272H490.494C494.11 89.272 496.03 91.368 496.03 95.096C496.03 98.824 494.11 101 490.574 101H487.566ZM489.054 99.784H490.382C493.134 99.784 494.51 98.072 494.51 95.096C494.51 92.12 493.134 90.488 490.382 90.488H489.054V99.784ZM503.046 101V93.352C503.046 92.76 503.094 91.768 503.142 91.176H503.062C502.774 91.704 502.454 92.216 502.134 92.776L499.462 96.696H505.99V97.848H497.926V96.888L502.806 89.608H504.422V101H503.046ZM512.561 101V93.352C512.561 92.76 512.609 91.768 512.657 91.176H512.577C512.289 91.704 511.969 92.216 511.649 92.776L508.977 96.696H515.505V97.848H507.441V96.888L512.321 89.608H513.937V101H512.561Z" fill="#1A1A1A"/>
<rect x="448" y="114" width="108" height="160.112" rx="4" fill="#FF8D44"/>
<path d="M566.264 76.336C563.528 76.336 561.848 75.184 560.648 73.984L561.752 72.544C562.736 73.576 564.032 74.512 566.048 74.512C568.136 74.512 569.792 72.904 569.792 70.36C569.792 67.84 568.352 66.328 566.168 66.328C564.992 66.328 564.248 66.712 563.24 67.384L562.064 66.64L562.616 58.408H571.184V60.28H564.536L564.08 65.368C564.872 64.936 565.664 64.672 566.72 64.672C569.648 64.672 572.024 66.4 572.024 70.288C572.024 74.128 569.216 76.336 566.264 76.336ZM580.945 76.336C577.585 76.336 575.449 73.288 575.449 67.144C575.449 61.048 577.585 58.096 580.945 58.096C584.257 58.096 586.392 61.048 586.392 67.144C586.392 73.288 584.257 76.336 580.945 76.336ZM580.945 74.56C582.937 74.56 584.281 72.328 584.281 67.144C584.281 62.032 582.937 59.848 580.945 59.848C578.929 59.848 577.561 62.032 577.561 67.144C577.561 72.328 578.929 74.56 580.945 74.56ZM595.217 76.336C591.857 76.336 589.721 73.288 589.721 67.144C589.721 61.048 591.857 58.096 595.217 58.096C598.529 58.096 600.665 61.048 600.665 67.144C600.665 73.288 598.529 76.336 595.217 76.336ZM595.217 74.56C597.209 74.56 598.553 72.328 598.553 67.144C598.553 62.032 597.209 59.848 595.217 59.848C593.201 59.848 591.833 62.032 591.833 67.144C591.833 72.328 593.201 74.56 595.217 74.56Z" fill="#1A1A1A"/>
<path d="M561.616 101L562.048 97.352H560.624V96.328H562.176L562.512 93.688H560.992V92.664H562.624L563.04 89.384H563.984L563.568 92.664H565.936L566.368 89.384H567.312L566.896 92.664H568.336V93.688H566.784L566.448 96.328H567.984V97.352H566.32L565.888 101H564.944L565.36 97.352H563.008L562.56 101H561.616ZM563.12 96.328H565.504L565.824 93.688H563.44L563.12 96.328ZM571.115 101V89.272H577.867V90.52H572.603V94.504H577.067V95.736H572.603V101H571.115ZM580.583 101V89.272H587.335V90.52H582.071V94.504H586.535V95.736H582.071V101H580.583ZM591.603 101C591.811 96.712 592.675 93.976 594.915 90.856H589.235V89.608H596.563V90.504C593.875 93.944 593.315 96.552 593.123 101H591.603ZM602.766 101.224C600.51 101.224 598.814 99.4 598.814 95.736C598.814 91.144 600.894 89.4 603.166 89.4C604.382 89.4 605.278 89.912 605.902 90.584L605.102 91.496C604.638 90.952 603.934 90.616 603.214 90.616C601.582 90.616 600.206 91.896 600.206 95.736C600.206 98.552 601.102 100.072 602.75 100.072C603.886 100.072 604.75 99.064 604.75 97.56C604.75 96.072 604.046 95.128 602.622 95.128C601.886 95.128 600.958 95.576 600.158 96.76L600.11 95.592C600.846 94.632 601.902 94.04 602.862 94.04C604.83 94.04 606.126 95.224 606.126 97.56C606.126 99.752 604.574 101.224 602.766 101.224ZM608.185 101V100.152C611.625 96.728 613.545 94.664 613.545 92.792C613.545 91.496 612.857 90.568 611.401 90.568C610.441 90.568 609.609 91.176 608.953 91.944L608.105 91.112C609.065 90.072 610.089 89.4 611.577 89.4C613.673 89.4 614.985 90.712 614.985 92.744C614.985 94.888 613.017 97.016 610.313 99.864C610.921 99.8 611.641 99.752 612.233 99.752H615.545V101H608.185ZM621.46 101.224C619.3 101.224 617.716 99.912 617.716 98.104C617.716 96.6 618.804 95.576 619.876 95.016V94.952C619.028 94.36 618.276 93.512 618.276 92.312C618.276 90.552 619.668 89.4 621.508 89.4C623.508 89.4 624.724 90.648 624.724 92.424C624.724 93.624 623.844 94.632 623.156 95.16V95.24C624.164 95.848 625.14 96.648 625.14 98.184C625.14 99.896 623.652 101.224 621.46 101.224ZM622.26 94.792C623.044 94.088 623.476 93.336 623.476 92.488C623.476 91.368 622.74 90.472 621.476 90.472C620.404 90.472 619.62 91.208 619.62 92.312C619.62 93.672 620.884 94.248 622.26 94.792ZM621.492 100.12C622.836 100.12 623.732 99.304 623.732 98.136C623.732 96.648 622.292 96.136 620.644 95.464C619.7 96.072 619.028 96.904 619.028 97.96C619.028 99.208 620.084 100.12 621.492 100.12Z" fill="#1A1A1A"/>
<rect x="560" y="114" width="108" height="160.112" rx="4" fill="#FF7628"/>
<path d="M679.224 76.336C675.84 76.336 673.32 73.432 673.32 67.624C673.32 60.736 676.416 58.096 679.824 58.096C681.648 58.096 682.992 58.864 683.952 59.896L682.728 61.24C682.056 60.424 680.976 59.92 679.92 59.92C677.448 59.92 675.384 61.864 675.384 67.624C675.384 72.136 676.752 74.608 679.224 74.608C680.904 74.608 682.2 73 682.2 70.624C682.2 68.224 681.144 66.712 679.032 66.712C677.904 66.712 676.488 67.384 675.312 69.136L675.24 67.384C676.32 65.968 677.952 65.104 679.368 65.104C682.344 65.104 684.264 66.928 684.264 70.624C684.264 74.032 681.936 76.336 679.224 76.336ZM692.945 76.336C689.585 76.336 687.449 73.288 687.449 67.144C687.449 61.048 689.585 58.096 692.945 58.096C696.257 58.096 698.392 61.048 698.392 67.144C698.392 73.288 696.257 76.336 692.945 76.336ZM692.945 74.56C694.937 74.56 696.281 72.328 696.281 67.144C696.281 62.032 694.937 59.848 692.945 59.848C690.929 59.848 689.561 62.032 689.561 67.144C689.561 72.328 690.929 74.56 692.945 74.56ZM707.217 76.336C703.857 76.336 701.721 73.288 701.721 67.144C701.721 61.048 703.857 58.096 707.217 58.096C710.529 58.096 712.665 61.048 712.665 67.144C712.665 73.288 710.529 76.336 707.217 76.336ZM707.217 74.56C709.209 74.56 710.553 72.328 710.553 67.144C710.553 62.032 709.209 59.848 707.217 59.848C705.201 59.848 703.833 62.032 703.833 67.144C703.833 72.328 705.201 74.56 707.217 74.56Z" fill="#1A1A1A"/>
<path d="M673.616 101L674.048 97.352H672.624V96.328H674.176L674.512 93.688H672.992V92.664H674.624L675.04 89.384H675.984L675.568 92.664H677.936L678.368 89.384H679.312L678.896 92.664H680.336V93.688H678.784L678.448 96.328H679.984V97.352H678.32L677.888 101H676.944L677.36 97.352H675.008L674.56 101H673.616ZM675.12 96.328H677.504L677.824 93.688H675.44L675.12 96.328ZM683.115 101V89.272H689.867V90.52H684.603V94.504H689.067V95.736H684.603V101H683.115ZM692.583 101V89.272H696.055C698.439 89.272 700.087 90.088 700.087 92.152C700.087 93.304 699.479 94.328 698.375 94.696V94.76C699.783 95.032 700.759 95.976 700.759 97.576C700.759 99.864 698.935 101 696.327 101H692.583ZM694.071 94.264H695.799C697.815 94.264 698.631 93.528 698.631 92.328C698.631 90.952 697.703 90.44 695.879 90.44H694.071V94.264ZM694.071 99.832H696.119C698.119 99.832 699.319 99.112 699.319 97.528C699.319 96.072 698.167 95.4 696.119 95.4H694.071V99.832ZM706.315 101.224C704.491 101.224 703.371 100.456 702.571 99.656L703.307 98.696C703.963 99.384 704.827 100.008 706.171 100.008C707.563 100.008 708.667 99 708.667 97.4C708.667 95.832 707.707 94.888 706.251 94.888C705.467 94.888 704.971 95.144 704.299 95.592L703.515 95.096L703.883 89.608H709.595V90.856H705.163L704.859 94.248C705.387 93.96 705.915 93.784 706.619 93.784C708.571 93.784 710.155 94.888 710.155 97.352C710.155 99.832 708.283 101.224 706.315 101.224ZM713.254 101V89.272H716.726C719.11 89.272 720.758 90.088 720.758 92.152C720.758 93.304 720.15 94.328 719.046 94.696V94.76C720.454 95.032 721.43 95.976 721.43 97.576C721.43 99.864 719.606 101 716.998 101H713.254ZM714.742 94.264H716.47C718.486 94.264 719.302 93.528 719.302 92.328C719.302 90.952 718.374 90.44 716.55 90.44H714.742V94.264ZM714.742 99.832H716.79C718.79 99.832 719.99 99.112 719.99 97.528C719.99 96.072 718.838 95.4 716.79 95.4H714.742V99.832ZM727.257 101.224C724.969 101.224 723.593 99.096 723.593 95.272C723.593 91.448 724.969 89.4 727.257 89.4C729.513 89.4 730.889 91.448 730.889 95.272C730.889 99.096 729.513 101.224 727.257 101.224ZM727.257 100.04C728.585 100.04 729.481 98.616 729.481 95.272C729.481 91.912 728.585 90.568 727.257 90.568C725.913 90.568 725.001 91.912 725.001 95.272C725.001 98.616 725.913 100.04 727.257 100.04ZM733.732 101V99.784H736.34V91.384H734.244V90.44C735.3 90.248 736.052 89.976 736.676 89.608H737.796V99.784H740.164V101H733.732Z" fill="#1A1A1A"/>
<rect x="672" y="114" width="108" height="160.112" rx="4" fill="#FB5B01"/>
<path d="M788.728 76C789.04 69.352 790.24 65.08 793.696 60.28H785.176V58.408H796.168V59.728C792.04 65.032 791.296 69.136 791.008 76H788.728ZM804.945 76.336C801.585 76.336 799.449 73.288 799.449 67.144C799.449 61.048 801.585 58.096 804.945 58.096C808.257 58.096 810.392 61.048 810.392 67.144C810.392 73.288 808.257 76.336 804.945 76.336ZM804.945 74.56C806.937 74.56 808.281 72.328 808.281 67.144C808.281 62.032 806.937 59.848 804.945 59.848C802.929 59.848 801.561 62.032 801.561 67.144C801.561 72.328 802.929 74.56 804.945 74.56ZM819.217 76.336C815.857 76.336 813.721 73.288 813.721 67.144C813.721 61.048 815.857 58.096 819.217 58.096C822.529 58.096 824.665 61.048 824.665 67.144C824.665 73.288 822.529 76.336 819.217 76.336ZM819.217 74.56C821.209 74.56 822.553 72.328 822.553 67.144C822.553 62.032 821.209 59.848 819.217 59.848C817.201 59.848 815.833 62.032 815.833 67.144C815.833 72.328 817.201 74.56 819.217 74.56Z" fill="#1A1A1A"/>
<path d="M785.616 101L786.048 97.352H784.624V96.328H786.176L786.512 93.688H784.992V92.664H786.624L787.04 89.384H787.984L787.568 92.664H789.936L790.368 89.384H791.312L790.896 92.664H792.336V93.688H790.784L790.448 96.328H791.984V97.352H790.32L789.888 101H788.944L789.36 97.352H787.008L786.56 101H785.616ZM787.12 96.328H789.504L789.824 93.688H787.44L787.12 96.328ZM795.115 101V89.272H801.867V90.52H796.603V94.2H801.035V95.464H796.603V99.752H802.043V101H795.115ZM804.281 101V100.152C807.721 96.728 809.641 94.664 809.641 92.792C809.641 91.496 808.953 90.568 807.497 90.568C806.537 90.568 805.705 91.176 805.049 91.944L804.201 91.112C805.161 90.072 806.185 89.4 807.673 89.4C809.769 89.4 811.081 90.712 811.081 92.744C811.081 94.888 809.113 97.016 806.409 99.864C807.017 99.8 807.737 99.752 808.329 99.752H811.641V101H804.281ZM817.268 101.224C815.444 101.224 814.324 100.456 813.524 99.656L814.26 98.696C814.916 99.384 815.78 100.008 817.124 100.008C818.516 100.008 819.62 99 819.62 97.4C819.62 95.832 818.66 94.888 817.204 94.888C816.42 94.888 815.924 95.144 815.252 95.592L814.468 95.096L814.836 89.608H820.548V90.856H816.116L815.812 94.248C816.34 93.96 816.868 93.784 817.572 93.784C819.524 93.784 821.108 94.888 821.108 97.352C821.108 99.832 819.236 101.224 817.268 101.224ZM824.015 101V99.784H826.623V91.384H824.527V90.44C825.583 90.248 826.335 89.976 826.959 89.608H828.079V99.784H830.447V101H824.015ZM836.57 101.224C834.282 101.224 832.906 99.096 832.906 95.272C832.906 91.448 834.282 89.4 836.57 89.4C838.826 89.4 840.202 91.448 840.202 95.272C840.202 99.096 838.826 101.224 836.57 101.224ZM836.57 100.04C837.898 100.04 838.794 98.616 838.794 95.272C838.794 91.912 837.898 90.568 836.57 90.568C835.226 90.568 834.314 91.912 834.314 95.272C834.314 98.616 835.226 100.04 836.57 100.04ZM846.085 101.224C843.797 101.224 842.421 99.096 842.421 95.272C842.421 91.448 843.797 89.4 846.085 89.4C848.341 89.4 849.717 91.448 849.717 95.272C849.717 99.096 848.341 101.224 846.085 101.224ZM846.085 100.04C847.413 100.04 848.309 98.616 848.309 95.272C848.309 91.912 847.413 90.568 846.085 90.568C844.741 90.568 843.829 91.912 843.829 95.272C843.829 98.616 844.741 100.04 846.085 100.04Z" fill="#1A1A1A"/>
<rect x="784" y="114" width="108" height="160.112" rx="4" fill="#E25100"/>
<path d="M902.696 76.336C899.456 76.336 897.08 74.368 897.08 71.656C897.08 69.28 898.712 67.648 900.32 66.784V66.688C899.024 65.8 897.92 64.456 897.92 62.608C897.92 59.944 900.008 58.168 902.768 58.168C905.768 58.168 907.592 60.088 907.592 62.776C907.592 64.648 906.296 66.208 905.24 67.024V67.144C906.776 68.032 908.216 69.376 908.216 71.776C908.216 74.344 905.984 76.336 902.696 76.336ZM903.896 66.472C905.096 65.416 905.72 64.216 905.72 62.896C905.72 61.168 904.616 59.776 902.72 59.776C901.112 59.776 899.936 60.928 899.936 62.608C899.936 64.72 901.832 65.656 903.896 66.472ZM902.744 74.68C904.76 74.68 906.104 73.456 906.104 71.704C906.104 69.352 903.944 68.464 901.472 67.456C900.032 68.368 899.048 69.76 899.048 71.44C899.048 73.312 900.632 74.68 902.744 74.68ZM916.945 76.336C913.585 76.336 911.449 73.288 911.449 67.144C911.449 61.048 913.585 58.096 916.945 58.096C920.257 58.096 922.392 61.048 922.392 67.144C922.392 73.288 920.257 76.336 916.945 76.336ZM916.945 74.56C918.937 74.56 920.281 72.328 920.281 67.144C920.281 62.032 918.937 59.848 916.945 59.848C914.929 59.848 913.561 62.032 913.561 67.144C913.561 72.328 914.929 74.56 916.945 74.56ZM931.217 76.336C927.857 76.336 925.721 73.288 925.721 67.144C925.721 61.048 927.857 58.096 931.217 58.096C934.529 58.096 936.665 61.048 936.665 67.144C936.665 73.288 934.529 76.336 931.217 76.336ZM931.217 74.56C933.209 74.56 934.553 72.328 934.553 67.144C934.553 62.032 933.209 59.848 931.217 59.848C929.201 59.848 927.833 62.032 927.833 67.144C927.833 72.328 929.201 74.56 931.217 74.56Z" fill="#1A1A1A"/>
<path d="M897.616 101L898.048 97.352H896.624V96.328H898.176L898.512 93.688H896.992V92.664H898.624L899.04 89.384H899.984L899.568 92.664H901.936L902.368 89.384H903.312L902.896 92.664H904.336V93.688H902.784L902.448 96.328H903.984V97.352H902.32L901.888 101H900.944L901.36 97.352H899.008L898.56 101H897.616ZM899.12 96.328H901.504L901.824 93.688H899.44L899.12 96.328ZM911.547 101.224C908.619 101.224 906.443 98.952 906.443 95.144C906.443 91.368 908.667 89.064 911.643 89.064C913.067 89.064 914.171 89.752 914.859 90.504L914.043 91.464C913.435 90.808 912.651 90.36 911.659 90.36C909.435 90.36 907.963 92.184 907.963 95.112C907.963 98.072 909.371 99.912 911.611 99.912C912.715 99.912 913.579 99.432 914.331 98.6L915.131 99.528C914.203 100.616 913.067 101.224 911.547 101.224ZM919.51 101C919.718 96.712 920.582 93.976 922.822 90.856H917.142V89.608H924.47V90.504C921.782 93.944 921.222 96.552 921.03 101H919.51ZM931.297 101V93.352C931.297 92.76 931.345 91.768 931.393 91.176H931.313C931.025 91.704 930.705 92.216 930.385 92.776L927.713 96.696H934.241V97.848H926.177V96.888L931.057 89.608H932.673V101H931.297ZM938.54 101C938.748 96.712 939.612 93.976 941.852 90.856H936.172V89.608H943.5V90.504C940.812 93.944 940.252 96.552 940.06 101H938.54ZM949.351 101.224C947.063 101.224 945.687 99.096 945.687 95.272C945.687 91.448 947.063 89.4 949.351 89.4C951.607 89.4 952.983 91.448 952.983 95.272C952.983 99.096 951.607 101.224 949.351 101.224ZM949.351 100.04C950.679 100.04 951.575 98.616 951.575 95.272C951.575 91.912 950.679 90.568 949.351 90.568C948.007 90.568 947.095 91.912 947.095 95.272C947.095 98.616 948.007 100.04 949.351 100.04ZM958.866 101.224C956.578 101.224 955.202 99.096 955.202 95.272C955.202 91.448 956.578 89.4 958.866 89.4C961.122 89.4 962.498 91.448 962.498 95.272C962.498 99.096 961.122 101.224 958.866 101.224ZM958.866 100.04C960.194 100.04 961.09 98.616 961.09 95.272C961.09 91.912 960.194 90.568 958.866 90.568C957.522 90.568 956.61 91.912 956.61 95.272C956.61 98.616 957.522 100.04 958.866 100.04Z" fill="#1A1A1A"/>
<rect x="896" y="114" width="108" height="160.112" rx="4" fill="#C74700"/>
<path d="M1013.62 76.336C1011.7 76.336 1010.35 75.568 1009.37 74.536L1010.59 73.144C1011.34 74.008 1012.42 74.512 1013.54 74.512C1015.9 74.512 1017.94 72.472 1017.94 66.448C1017.94 62.128 1016.57 59.8 1014.1 59.8C1012.42 59.8 1011.12 61.384 1011.12 63.808C1011.12 66.16 1012.18 67.72 1014.26 67.72C1015.44 67.72 1016.81 67.024 1017.96 65.272L1018.08 67.024C1016.98 68.416 1015.42 69.328 1013.9 69.328C1010.95 69.328 1009.06 67.456 1009.06 63.808C1009.06 60.4 1011.36 58.096 1014.1 58.096C1017.48 58.096 1020 60.856 1020 66.448C1020 73.6 1016.93 76.336 1013.62 76.336ZM1028.94 76.336C1025.58 76.336 1023.45 73.288 1023.45 67.144C1023.45 61.048 1025.58 58.096 1028.94 58.096C1032.26 58.096 1034.39 61.048 1034.39 67.144C1034.39 73.288 1032.26 76.336 1028.94 76.336ZM1028.94 74.56C1030.94 74.56 1032.28 72.328 1032.28 67.144C1032.28 62.032 1030.94 59.848 1028.94 59.848C1026.93 59.848 1025.56 62.032 1025.56 67.144C1025.56 72.328 1026.93 74.56 1028.94 74.56ZM1043.22 76.336C1039.86 76.336 1037.72 73.288 1037.72 67.144C1037.72 61.048 1039.86 58.096 1043.22 58.096C1046.53 58.096 1048.66 61.048 1048.66 67.144C1048.66 73.288 1046.53 76.336 1043.22 76.336ZM1043.22 74.56C1045.21 74.56 1046.55 72.328 1046.55 67.144C1046.55 62.032 1045.21 59.848 1043.22 59.848C1041.2 59.848 1039.83 62.032 1039.83 67.144C1039.83 72.328 1041.2 74.56 1043.22 74.56Z" fill="#1A1A1A"/>
<path d="M1009.62 101L1010.05 97.352H1008.62V96.328H1010.18L1010.51 93.688H1008.99V92.664H1010.62L1011.04 89.384H1011.98L1011.57 92.664H1013.94L1014.37 89.384H1015.31L1014.9 92.664H1016.34V93.688H1014.78L1014.45 96.328H1015.98V97.352H1014.32L1013.89 101H1012.94L1013.36 97.352H1011.01L1010.56 101H1009.62ZM1011.12 96.328H1013.5L1013.82 93.688H1011.44L1011.12 96.328ZM1017.56 101L1021.53 89.272H1023.2L1027.16 101H1025.61L1023.55 94.44C1023.13 93.128 1022.76 91.848 1022.38 90.488H1022.32C1021.93 91.848 1021.56 93.128 1021.13 94.44L1019.07 101H1017.56ZM1019.64 97.416V96.248H1025.05V97.416H1019.64ZM1033.7 101.224C1030.77 101.224 1028.6 98.952 1028.6 95.144C1028.6 91.368 1030.82 89.064 1033.8 89.064C1035.22 89.064 1036.33 89.752 1037.01 90.504L1036.2 91.464C1035.59 90.808 1034.81 90.36 1033.81 90.36C1031.59 90.36 1030.12 92.184 1030.12 95.112C1030.12 98.072 1031.53 99.912 1033.77 99.912C1034.87 99.912 1035.73 99.432 1036.49 98.6L1037.29 99.528C1036.36 100.616 1035.22 101.224 1033.7 101.224ZM1042.72 101.224C1040.88 101.224 1039.75 100.456 1038.98 99.608L1039.71 98.648C1040.4 99.368 1041.28 100.008 1042.63 100.008C1044.02 100.008 1045.01 99.192 1045.01 97.912C1045.01 96.552 1044.07 95.64 1041.36 95.64V94.52C1043.78 94.52 1044.59 93.576 1044.59 92.376C1044.59 91.272 1043.84 90.568 1042.63 90.568C1041.68 90.568 1040.85 91.064 1040.19 91.736L1039.41 90.808C1040.29 89.992 1041.33 89.4 1042.67 89.4C1044.64 89.4 1046.08 90.44 1046.08 92.28C1046.08 93.656 1045.25 94.536 1044 95V95.064C1045.38 95.384 1046.5 96.408 1046.5 97.96C1046.5 99.992 1044.82 101.224 1042.72 101.224ZM1049.63 101V89.272H1056.38V90.52H1051.12V94.2H1055.55V95.464H1051.12V99.752H1056.56V101H1049.63ZM1062.54 101.224C1060.25 101.224 1058.87 99.096 1058.87 95.272C1058.87 91.448 1060.25 89.4 1062.54 89.4C1064.79 89.4 1066.17 91.448 1066.17 95.272C1066.17 99.096 1064.79 101.224 1062.54 101.224ZM1062.54 100.04C1063.87 100.04 1064.76 98.616 1064.76 95.272C1064.76 91.912 1063.87 90.568 1062.54 90.568C1061.19 90.568 1060.28 91.912 1060.28 95.272C1060.28 98.616 1061.19 100.04 1062.54 100.04ZM1072.05 101.224C1069.77 101.224 1068.39 99.096 1068.39 95.272C1068.39 91.448 1069.77 89.4 1072.05 89.4C1074.31 89.4 1075.69 91.448 1075.69 95.272C1075.69 99.096 1074.31 101.224 1072.05 101.224ZM1072.05 100.04C1073.38 100.04 1074.28 98.616 1074.28 95.272C1074.28 91.912 1073.38 90.568 1072.05 90.568C1070.71 90.568 1069.8 91.912 1069.8 95.272C1069.8 98.616 1070.71 100.04 1072.05 100.04Z" fill="#1A1A1A"/>
<rect x="1008" y="114" width="108" height="160.112" rx="4" fill="#AC3E00"/>
<path d="M1122.11 76V74.176H1126.02V61.072H1122.88V59.656C1124.46 59.392 1125.59 58.984 1126.53 58.408H1128.21V74.176H1131.76V76H1122.11ZM1140.94 76.336C1137.58 76.336 1135.45 73.288 1135.45 67.144C1135.45 61.048 1137.58 58.096 1140.94 58.096C1144.26 58.096 1146.39 61.048 1146.39 67.144C1146.39 73.288 1144.26 76.336 1140.94 76.336ZM1140.94 74.56C1142.94 74.56 1144.28 72.328 1144.28 67.144C1144.28 62.032 1142.94 59.848 1140.94 59.848C1138.93 59.848 1137.56 62.032 1137.56 67.144C1137.56 72.328 1138.93 74.56 1140.94 74.56ZM1155.22 76.336C1151.86 76.336 1149.72 73.288 1149.72 67.144C1149.72 61.048 1151.86 58.096 1155.22 58.096C1158.53 58.096 1160.66 61.048 1160.66 67.144C1160.66 73.288 1158.53 76.336 1155.22 76.336ZM1155.22 74.56C1157.21 74.56 1158.55 72.328 1158.55 67.144C1158.55 62.032 1157.21 59.848 1155.22 59.848C1153.2 59.848 1151.83 62.032 1151.83 67.144C1151.83 72.328 1153.2 74.56 1155.22 74.56ZM1169.49 76.336C1166.13 76.336 1163.99 73.288 1163.99 67.144C1163.99 61.048 1166.13 58.096 1169.49 58.096C1172.8 58.096 1174.94 61.048 1174.94 67.144C1174.94 73.288 1172.8 76.336 1169.49 76.336ZM1169.49 74.56C1171.48 74.56 1172.83 72.328 1172.83 67.144C1172.83 62.032 1171.48 59.848 1169.49 59.848C1167.47 59.848 1166.11 62.032 1166.11 67.144C1166.11 72.328 1167.47 74.56 1169.49 74.56Z" fill="#1A1A1A"/>
<path d="M1121.62 101L1122.05 97.352H1120.62V96.328H1122.18L1122.51 93.688H1120.99V92.664H1122.62L1123.04 89.384H1123.98L1123.57 92.664H1125.94L1126.37 89.384H1127.31L1126.9 92.664H1128.34V93.688H1126.78L1126.45 96.328H1127.98V97.352H1126.32L1125.89 101H1124.94L1125.36 97.352H1123.01L1122.56 101H1121.62ZM1123.12 96.328H1125.5L1125.82 93.688H1123.44L1123.12 96.328ZM1133.98 101.224C1131.82 101.224 1130.24 99.912 1130.24 98.104C1130.24 96.6 1131.32 95.576 1132.4 95.016V94.952C1131.55 94.36 1130.8 93.512 1130.8 92.312C1130.8 90.552 1132.19 89.4 1134.03 89.4C1136.03 89.4 1137.24 90.648 1137.24 92.424C1137.24 93.624 1136.36 94.632 1135.68 95.16V95.24C1136.68 95.848 1137.66 96.648 1137.66 98.184C1137.66 99.896 1136.17 101.224 1133.98 101.224ZM1134.78 94.792C1135.56 94.088 1136 93.336 1136 92.488C1136 91.368 1135.26 90.472 1134 90.472C1132.92 90.472 1132.14 91.208 1132.14 92.312C1132.14 93.672 1133.4 94.248 1134.78 94.792ZM1134.01 100.12C1135.36 100.12 1136.25 99.304 1136.25 98.136C1136.25 96.648 1134.81 96.136 1133.16 95.464C1132.22 96.072 1131.55 96.904 1131.55 97.96C1131.55 99.208 1132.6 100.12 1134.01 100.12ZM1140.63 101V89.272H1144.1C1146.49 89.272 1148.13 90.088 1148.13 92.152C1148.13 93.304 1147.53 94.328 1146.42 94.696V94.76C1147.83 95.032 1148.81 95.976 1148.81 97.576C1148.81 99.864 1146.98 101 1144.37 101H1140.63ZM1142.12 94.264H1143.85C1145.86 94.264 1146.68 93.528 1146.68 92.328C1146.68 90.952 1145.75 90.44 1143.93 90.44H1142.12V94.264ZM1142.12 99.832H1144.17C1146.17 99.832 1147.37 99.112 1147.37 97.528C1147.37 96.072 1146.21 95.4 1144.17 95.4H1142.12V99.832ZM1154.39 101.224C1152.55 101.224 1151.42 100.456 1150.65 99.608L1151.39 98.648C1152.07 99.368 1152.95 100.008 1154.3 100.008C1155.69 100.008 1156.68 99.192 1156.68 97.912C1156.68 96.552 1155.74 95.64 1153.03 95.64V94.52C1155.45 94.52 1156.27 93.576 1156.27 92.376C1156.27 91.272 1155.51 90.568 1154.3 90.568C1153.35 90.568 1152.52 91.064 1151.87 91.736L1151.08 90.808C1151.96 89.992 1153 89.4 1154.35 89.4C1156.31 89.4 1157.75 90.44 1157.75 92.28C1157.75 93.656 1156.92 94.536 1155.67 95V95.064C1157.05 95.384 1158.17 96.408 1158.17 97.96C1158.17 99.992 1156.49 101.224 1154.39 101.224ZM1160.4 101V100.152C1163.84 96.728 1165.76 94.664 1165.76 92.792C1165.76 91.496 1165.08 90.568 1163.62 90.568C1162.66 90.568 1161.83 91.176 1161.17 91.944L1160.32 91.112C1161.28 90.072 1162.31 89.4 1163.8 89.4C1165.89 89.4 1167.2 90.712 1167.2 92.744C1167.2 94.888 1165.24 97.016 1162.53 99.864C1163.14 99.8 1163.86 99.752 1164.45 99.752H1167.76V101H1160.4ZM1173.66 101.224C1171.38 101.224 1170 99.096 1170 95.272C1170 91.448 1171.38 89.4 1173.66 89.4C1175.92 89.4 1177.3 91.448 1177.3 95.272C1177.3 99.096 1175.92 101.224 1173.66 101.224ZM1173.66 100.04C1174.99 100.04 1175.89 98.616 1175.89 95.272C1175.89 91.912 1174.99 90.568 1173.66 90.568C1172.32 90.568 1171.41 91.912 1171.41 95.272C1171.41 98.616 1172.32 100.04 1173.66 100.04ZM1183.18 101.224C1180.89 101.224 1179.51 99.096 1179.51 95.272C1179.51 91.448 1180.89 89.4 1183.18 89.4C1185.43 89.4 1186.81 91.448 1186.81 95.272C1186.81 99.096 1185.43 101.224 1183.18 101.224ZM1183.18 100.04C1184.51 100.04 1185.4 98.616 1185.4 95.272C1185.4 91.912 1184.51 90.568 1183.18 90.568C1181.83 90.568 1180.92 91.912 1180.92 95.272C1180.92 98.616 1181.83 100.04 1183.18 100.04Z" fill="#1A1A1A"/>
<rect x="1120" y="114" width="108" height="160.112" rx="4" fill="#8B3200"/>
<path d="M1234.11 76V74.176H1238.02V61.072H1234.88V59.656C1236.46 59.392 1237.59 58.984 1238.53 58.408H1240.21V74.176H1243.76V76H1234.11ZM1248.38 76V74.176H1252.3V61.072H1249.15V59.656C1250.74 59.392 1251.86 58.984 1252.8 58.408H1254.48V74.176H1258.03V76H1248.38ZM1267.22 76.336C1263.86 76.336 1261.72 73.288 1261.72 67.144C1261.72 61.048 1263.86 58.096 1267.22 58.096C1270.53 58.096 1272.66 61.048 1272.66 67.144C1272.66 73.288 1270.53 76.336 1267.22 76.336ZM1267.22 74.56C1269.21 74.56 1270.55 72.328 1270.55 67.144C1270.55 62.032 1269.21 59.848 1267.22 59.848C1265.2 59.848 1263.83 62.032 1263.83 67.144C1263.83 72.328 1265.2 74.56 1267.22 74.56ZM1281.49 76.336C1278.13 76.336 1275.99 73.288 1275.99 67.144C1275.99 61.048 1278.13 58.096 1281.49 58.096C1284.8 58.096 1286.94 61.048 1286.94 67.144C1286.94 73.288 1284.8 76.336 1281.49 76.336ZM1281.49 74.56C1283.48 74.56 1284.83 72.328 1284.83 67.144C1284.83 62.032 1283.48 59.848 1281.49 59.848C1279.47 59.848 1278.11 62.032 1278.11 67.144C1278.11 72.328 1279.47 74.56 1281.49 74.56Z" fill="#1A1A1A"/>
<path d="M1233.62 101L1234.05 97.352H1232.62V96.328H1234.18L1234.51 93.688H1232.99V92.664H1234.62L1235.04 89.384H1235.98L1235.57 92.664H1237.94L1238.37 89.384H1239.31L1238.9 92.664H1240.34V93.688H1238.78L1238.45 96.328H1239.98V97.352H1238.32L1237.89 101H1236.94L1237.36 97.352H1235.01L1234.56 101H1233.62ZM1235.12 96.328H1237.5L1237.82 93.688H1235.44L1235.12 96.328ZM1246.32 101.224C1244.06 101.224 1242.36 99.4 1242.36 95.736C1242.36 91.144 1244.44 89.4 1246.72 89.4C1247.93 89.4 1248.83 89.912 1249.45 90.584L1248.65 91.496C1248.19 90.952 1247.48 90.616 1246.76 90.616C1245.13 90.616 1243.76 91.896 1243.76 95.736C1243.76 98.552 1244.65 100.072 1246.3 100.072C1247.44 100.072 1248.3 99.064 1248.3 97.56C1248.3 96.072 1247.6 95.128 1246.17 95.128C1245.44 95.128 1244.51 95.576 1243.71 96.76L1243.66 95.592C1244.4 94.632 1245.45 94.04 1246.41 94.04C1248.38 94.04 1249.68 95.224 1249.68 97.56C1249.68 99.752 1248.12 101.224 1246.32 101.224ZM1252.63 101V89.272H1255.56C1259.17 89.272 1261.09 91.368 1261.09 95.096C1261.09 98.824 1259.17 101 1255.64 101H1252.63ZM1254.12 99.784H1255.45C1258.2 99.784 1259.57 98.072 1259.57 95.096C1259.57 92.12 1258.2 90.488 1255.45 90.488H1254.12V99.784ZM1263.39 101V100.152C1266.83 96.728 1268.75 94.664 1268.75 92.792C1268.75 91.496 1268.06 90.568 1266.61 90.568C1265.65 90.568 1264.81 91.176 1264.16 91.944L1263.31 91.112C1264.27 90.072 1265.29 89.4 1266.78 89.4C1268.88 89.4 1270.19 90.712 1270.19 92.744C1270.19 94.888 1268.22 97.016 1265.52 99.864C1266.13 99.8 1266.85 99.752 1267.44 99.752H1270.75V101H1263.39ZM1275.35 101C1275.56 96.712 1276.42 93.976 1278.66 90.856H1272.98V89.608H1280.31V90.504C1277.62 93.944 1277.06 96.552 1276.87 101H1275.35ZM1286.16 101.224C1283.88 101.224 1282.5 99.096 1282.5 95.272C1282.5 91.448 1283.88 89.4 1286.16 89.4C1288.42 89.4 1289.8 91.448 1289.8 95.272C1289.8 99.096 1288.42 101.224 1286.16 101.224ZM1286.16 100.04C1287.49 100.04 1288.39 98.616 1288.39 95.272C1288.39 91.912 1287.49 90.568 1286.16 90.568C1284.82 90.568 1283.91 91.912 1283.91 95.272C1283.91 98.616 1284.82 100.04 1286.16 100.04ZM1295.68 101.224C1293.39 101.224 1292.01 99.096 1292.01 95.272C1292.01 91.448 1293.39 89.4 1295.68 89.4C1297.93 89.4 1299.31 91.448 1299.31 95.272C1299.31 99.096 1297.93 101.224 1295.68 101.224ZM1295.68 100.04C1297.01 100.04 1297.9 98.616 1297.9 95.272C1297.9 91.912 1297.01 90.568 1295.68 90.568C1294.33 90.568 1293.42 91.912 1293.42 95.272C1293.42 98.616 1294.33 100.04 1295.68 100.04Z" fill="#1A1A1A"/>
<rect x="1232" y="114" width="108" height="160.112" rx="4" fill="#6D2700"/>
<path d="M1346.11 76V74.176H1350.02V61.072H1346.88V59.656C1348.46 59.392 1349.59 58.984 1350.53 58.408H1352.21V74.176H1355.76V76H1346.11ZM1359.33 76V74.728C1364.85 69.904 1367.37 66.376 1367.37 63.376C1367.37 61.36 1366.34 59.872 1364.15 59.872C1362.71 59.872 1361.46 60.76 1360.48 61.912L1359.21 60.688C1360.65 59.128 1362.18 58.096 1364.42 58.096C1367.56 58.096 1369.53 60.136 1369.53 63.28C1369.53 66.808 1366.77 70.384 1362.62 74.296C1363.55 74.2 1364.61 74.128 1365.5 74.128H1370.37V76H1359.33ZM1379.22 76.336C1375.86 76.336 1373.72 73.288 1373.72 67.144C1373.72 61.048 1375.86 58.096 1379.22 58.096C1382.53 58.096 1384.66 61.048 1384.66 67.144C1384.66 73.288 1382.53 76.336 1379.22 76.336ZM1379.22 74.56C1381.21 74.56 1382.55 72.328 1382.55 67.144C1382.55 62.032 1381.21 59.848 1379.22 59.848C1377.2 59.848 1375.83 62.032 1375.83 67.144C1375.83 72.328 1377.2 74.56 1379.22 74.56ZM1393.49 76.336C1390.13 76.336 1387.99 73.288 1387.99 67.144C1387.99 61.048 1390.13 58.096 1393.49 58.096C1396.8 58.096 1398.94 61.048 1398.94 67.144C1398.94 73.288 1396.8 76.336 1393.49 76.336ZM1393.49 74.56C1395.48 74.56 1396.83 72.328 1396.83 67.144C1396.83 62.032 1395.48 59.848 1393.49 59.848C1391.47 59.848 1390.11 62.032 1390.11 67.144C1390.11 72.328 1391.47 74.56 1393.49 74.56Z" fill="#1A1A1A"/>
<path d="M1345.62 101L1346.05 97.352H1344.62V96.328H1346.18L1346.51 93.688H1344.99V92.664H1346.62L1347.04 89.384H1347.98L1347.57 92.664H1349.94L1350.37 89.384H1351.31L1350.9 92.664H1352.34V93.688H1350.78L1350.45 96.328H1351.98V97.352H1350.32L1349.89 101H1348.94L1349.36 97.352H1347.01L1346.56 101H1345.62ZM1347.12 96.328H1349.5L1349.82 93.688H1347.44L1347.12 96.328ZM1357.69 101.224C1355.87 101.224 1354.75 100.456 1353.95 99.656L1354.68 98.696C1355.34 99.384 1356.2 100.008 1357.55 100.008C1358.94 100.008 1360.04 99 1360.04 97.4C1360.04 95.832 1359.08 94.888 1357.63 94.888C1356.84 94.888 1356.35 95.144 1355.68 95.592L1354.89 95.096L1355.26 89.608H1360.97V90.856H1356.54L1356.24 94.248C1356.76 93.96 1357.29 93.784 1358 93.784C1359.95 93.784 1361.53 94.888 1361.53 97.352C1361.53 99.832 1359.66 101.224 1357.69 101.224ZM1368.45 101V93.352C1368.45 92.76 1368.5 91.768 1368.55 91.176H1368.47C1368.18 91.704 1367.86 92.216 1367.54 92.776L1364.87 96.696H1371.4V97.848H1363.33V96.888L1368.21 89.608H1369.83V101H1368.45ZM1373.95 101V99.784H1376.56V91.384H1374.47V90.44C1375.52 90.248 1376.27 89.976 1376.9 89.608H1378.02V99.784H1380.39V101H1373.95ZM1383.66 101V89.272H1390.41V90.52H1385.15V94.2H1389.58V95.464H1385.15V99.752H1390.59V101H1383.66ZM1396.57 101.224C1394.28 101.224 1392.91 99.096 1392.91 95.272C1392.91 91.448 1394.28 89.4 1396.57 89.4C1398.83 89.4 1400.2 91.448 1400.2 95.272C1400.2 99.096 1398.83 101.224 1396.57 101.224ZM1396.57 100.04C1397.9 100.04 1398.79 98.616 1398.79 95.272C1398.79 91.912 1397.9 90.568 1396.57 90.568C1395.23 90.568 1394.31 91.912 1394.31 95.272C1394.31 98.616 1395.23 100.04 1396.57 100.04ZM1406.08 101.224C1403.8 101.224 1402.42 99.096 1402.42 95.272C1402.42 91.448 1403.8 89.4 1406.08 89.4C1408.34 89.4 1409.72 91.448 1409.72 95.272C1409.72 99.096 1408.34 101.224 1406.08 101.224ZM1406.08 100.04C1407.41 100.04 1408.31 98.616 1408.31 95.272C1408.31 91.912 1407.41 90.568 1406.08 90.568C1404.74 90.568 1403.83 91.912 1403.83 95.272C1403.83 98.616 1404.74 100.04 1406.08 100.04Z" fill="#1A1A1A"/>
<rect x="1344" y="114" width="108" height="160.112" rx="4" fill="#541E00"/>
<rect x="691" y="284.611" width="64" height="23" rx="11.5" fill="white"/>
<rect x="691" y="284.611" width="64" height="23" rx="11.5" stroke="#949494"/>
<path d="M706.708 303.335C704.868 303.335 703.732 302.567 702.964 301.719L703.7 300.759C704.388 301.479 705.268 302.119 706.612 302.119C708.004 302.119 708.996 301.271 708.996 299.927C708.996 298.519 708.052 297.591 705.348 297.591V296.455C707.764 296.455 708.58 295.495 708.58 294.215C708.58 293.095 707.828 292.359 706.612 292.359C705.668 292.359 704.836 292.839 704.18 293.511L703.396 292.567C704.276 291.767 705.316 291.175 706.66 291.175C708.628 291.175 710.068 292.247 710.068 294.119C710.068 295.543 709.236 296.487 707.988 296.935V296.999C709.364 297.335 710.484 298.375 710.484 299.991C710.484 302.071 708.804 303.335 706.708 303.335ZM714.223 296.871C713.647 296.871 713.183 296.423 713.183 295.767C713.183 295.095 713.647 294.647 714.223 294.647C714.815 294.647 715.295 295.095 715.295 295.767C715.295 296.423 714.815 296.871 714.223 296.871ZM714.223 303.335C713.647 303.335 713.183 302.871 713.183 302.215C713.183 301.543 713.647 301.095 714.223 301.095C714.815 301.095 715.295 301.543 715.295 302.215C715.295 302.871 714.815 303.335 714.223 303.335ZM718.516 303.111V301.895H721.124V293.159H719.028V292.215C720.084 292.039 720.836 291.767 721.46 291.383H722.58V301.895H724.948V303.111H718.516ZM739.599 296.487C738.767 295.879 737.727 294.855 736.991 293.879L737.951 293.303C739.039 294.711 740.623 296.135 742.063 297.031C740.623 297.943 739.039 299.367 737.951 300.775L736.991 300.199C737.727 299.223 738.767 298.199 739.599 297.591H727.263V296.487H739.599Z" fill="black"/>
<rect x="917.5" y="284.611" width="78" height="23" rx="11.5" fill="white"/>
<rect x="917.5" y="284.611" width="78" height="23" rx="11.5" stroke="#949494"/>
<path d="M934.424 303.111V295.127C934.424 294.535 934.472 293.591 934.52 292.983H934.44C934.152 293.559 933.832 294.151 933.512 294.727L930.84 298.727H937.368V299.879H929.304V298.919L934.184 291.383H935.8V303.111H934.424ZM940.723 303.335C940.147 303.335 939.683 302.871 939.683 302.215C939.683 301.543 940.147 301.095 940.723 301.095C941.315 301.095 941.795 301.543 941.795 302.215C941.795 302.871 941.315 303.335 940.723 303.335ZM947.784 303.335C945.96 303.335 944.84 302.567 944.04 301.767L944.776 300.807C945.432 301.495 946.296 302.119 947.64 302.119C949.032 302.119 950.136 301.047 950.136 299.351C950.136 297.671 949.176 296.663 947.72 296.663C946.936 296.663 946.44 296.919 945.768 297.367L944.984 296.871L945.352 291.383H951.064V292.631H946.632L946.328 296.023C946.856 295.735 947.384 295.559 948.088 295.559C950.04 295.559 951.624 296.711 951.624 299.303C951.624 301.863 949.752 303.335 947.784 303.335ZM955.331 296.871C954.755 296.871 954.291 296.423 954.291 295.767C954.291 295.095 954.755 294.647 955.331 294.647C955.923 294.647 956.403 295.095 956.403 295.767C956.403 296.423 955.923 296.871 955.331 296.871ZM955.331 303.335C954.755 303.335 954.291 302.871 954.291 302.215C954.291 301.543 954.755 301.095 955.331 301.095C955.923 301.095 956.403 301.543 956.403 302.215C956.403 302.871 955.923 303.335 955.331 303.335ZM959.624 303.111V301.895H962.232V293.159H960.136V292.215C961.192 292.039 961.944 291.767 962.568 291.383H963.688V301.895H966.056V303.111H959.624ZM980.707 296.487C979.875 295.879 978.835 294.855 978.099 293.879L979.059 293.303C980.147 294.711 981.731 296.135 983.171 297.031C981.731 297.943 980.147 299.367 979.059 300.775L978.099 300.199C978.835 299.223 979.875 298.199 980.707 297.591H968.371V296.487H980.707Z" fill="black"/>
<rect x="1029.5" y="316.553" width="65" height="24" rx="12" fill="black"/>
<path d="M1044.51 330.033C1045.34 330.641 1046.38 331.665 1047.12 332.641L1046.16 333.217C1045.07 331.809 1043.48 330.385 1042.06 329.473C1043.48 328.577 1045.07 327.153 1046.16 325.745L1047.12 326.321C1046.38 327.297 1045.34 328.321 1044.51 328.929H1056.86V330.033H1044.51ZM1062.35 335.777C1060.51 335.777 1059.37 335.009 1058.6 334.161L1059.34 333.201C1060.03 333.921 1060.91 334.561 1062.25 334.561C1063.64 334.561 1064.64 333.713 1064.64 332.369C1064.64 330.961 1063.69 330.033 1060.99 330.033V328.897C1063.4 328.897 1064.22 327.937 1064.22 326.657C1064.22 325.537 1063.47 324.801 1062.25 324.801C1061.31 324.801 1060.48 325.281 1059.82 325.953L1059.04 325.009C1059.92 324.209 1060.96 323.617 1062.3 323.617C1064.27 323.617 1065.71 324.689 1065.71 326.561C1065.71 327.985 1064.88 328.929 1063.63 329.377V329.441C1065 329.777 1066.12 330.817 1066.12 332.433C1066.12 334.513 1064.44 335.777 1062.35 335.777ZM1069.86 329.313C1069.29 329.313 1068.82 328.865 1068.82 328.209C1068.82 327.537 1069.29 327.089 1069.86 327.089C1070.46 327.089 1070.94 327.537 1070.94 328.209C1070.94 328.865 1070.46 329.313 1069.86 329.313ZM1069.86 335.777C1069.29 335.777 1068.82 335.313 1068.82 334.657C1068.82 333.985 1069.29 333.537 1069.86 333.537C1070.46 333.537 1070.94 333.985 1070.94 334.657C1070.94 335.313 1070.46 335.777 1069.86 335.777ZM1074.16 335.553V334.337H1076.76V325.601H1074.67V324.657C1075.72 324.481 1076.48 324.209 1077.1 323.825H1078.22V334.337H1080.59V335.553H1074.16Z" fill="white"/>
<rect x="798.5" y="316.553" width="79" height="24" rx="12" fill="black"/>
<path d="M813.508 330.033C814.34 330.641 815.38 331.665 816.116 332.641L815.156 333.217C814.068 331.809 812.484 330.385 811.06 329.473C812.484 328.577 814.068 327.153 815.156 325.745L816.116 326.321C815.38 327.297 814.34 328.321 813.508 328.929H825.86V330.033H813.508ZM832.564 335.553V327.569C832.564 326.977 832.612 326.033 832.66 325.425H832.58C832.292 326.001 831.972 326.593 831.652 327.169L828.98 331.169H835.508V332.321H827.444V331.361L832.324 323.825H833.94V335.553H832.564ZM838.863 335.777C838.287 335.777 837.823 335.313 837.823 334.657C837.823 333.985 838.287 333.537 838.863 333.537C839.455 333.537 839.935 333.985 839.935 334.657C839.935 335.313 839.455 335.777 838.863 335.777ZM845.924 335.777C844.1 335.777 842.98 335.009 842.18 334.209L842.916 333.249C843.572 333.937 844.436 334.561 845.78 334.561C847.172 334.561 848.276 333.489 848.276 331.793C848.276 330.113 847.316 329.105 845.86 329.105C845.076 329.105 844.58 329.361 843.908 329.809L843.124 329.313L843.492 323.825H849.204V325.073H844.772L844.468 328.465C844.996 328.177 845.524 328.001 846.228 328.001C848.18 328.001 849.764 329.153 849.764 331.745C849.764 334.305 847.892 335.777 845.924 335.777ZM853.471 329.313C852.895 329.313 852.431 328.865 852.431 328.209C852.431 327.537 852.895 327.089 853.471 327.089C854.063 327.089 854.543 327.537 854.543 328.209C854.543 328.865 854.063 329.313 853.471 329.313ZM853.471 335.777C852.895 335.777 852.431 335.313 852.431 334.657C852.431 333.985 852.895 333.537 853.471 333.537C854.063 333.537 854.543 333.985 854.543 334.657C854.543 335.313 854.063 335.777 853.471 335.777ZM857.764 335.553V334.337H860.372V325.601H858.276V324.657C859.332 324.481 860.084 324.209 860.708 323.825H861.828V334.337H864.196V335.553H857.764Z" fill="white"/>
<path d="M7.7 16.28C3.78 16.28 1.08 13.34 1.08 8.54C1.08 3.72 3.78 0.92 7.7 0.92C11.62 0.92 14.32 3.74 14.32 8.54C14.32 13.34 11.62 16.28 7.7 16.28ZM7.7 13.72C9.9 13.72 11.3 11.7 11.3 8.54C11.3 5.36 9.9 3.46 7.7 3.46C5.5 3.46 4.1 5.36 4.1 8.54C4.1 11.7 5.5 13.72 7.7 13.72ZM16.9706 16V4.8H19.3706L19.5906 6.78H19.6506C20.4706 5.32 21.6706 4.52 22.8306 4.52C23.4506 4.52 23.8106 4.62 24.1506 4.76L23.6506 7.3C23.2506 7.18 22.9306 7.12 22.4706 7.12C21.5906 7.12 20.5306 7.7 19.9106 9.32V16H16.9706ZM27.8166 16.28C25.8166 16.28 24.4966 14.86 24.4966 12.96C24.4966 10.56 26.4366 9.3 30.9566 8.82C30.8966 7.72 30.4166 6.88 29.0366 6.88C27.9966 6.88 26.9966 7.34 25.9566 7.94L24.8966 6C26.2166 5.18 27.8166 4.52 29.5766 4.52C32.4166 4.52 33.8766 6.22 33.8766 9.46V16H31.4766L31.2766 14.8H31.1966C30.2166 15.64 29.0966 16.28 27.8166 16.28ZM28.7766 13.98C29.6166 13.98 30.2366 13.58 30.9566 12.88V10.62C28.2166 10.96 27.2966 11.72 27.2966 12.72C27.2966 13.6 27.9166 13.98 28.7766 13.98ZM36.873 16V4.8H39.273L39.493 6.28H39.553C40.533 5.32 41.673 4.52 43.193 4.52C45.613 4.52 46.653 6.2 46.653 9.02V16H43.713V9.38C43.713 7.64 43.233 7.04 42.133 7.04C41.213 7.04 40.633 7.48 39.813 8.3V16H36.873ZM53.6255 20.86C50.9855 20.86 48.9455 19.96 48.9455 17.98C48.9455 17.04 49.5255 16.24 50.5455 15.66V15.56C49.9655 15.18 49.5255 14.6 49.5255 13.68C49.5255 12.84 50.1055 12.06 50.7855 11.58V11.5C50.0055 10.94 49.2855 9.88 49.2855 8.56C49.2855 5.94 51.4255 4.52 53.8055 4.52C54.4255 4.52 55.0255 4.64 55.4855 4.8H59.5255V6.96H57.6255C57.9055 7.34 58.1255 7.96 58.1255 8.66C58.1255 11.18 56.2055 12.46 53.8055 12.46C53.3655 12.46 52.8455 12.36 52.3655 12.2C52.0655 12.46 51.8855 12.7 51.8855 13.16C51.8855 13.76 52.3255 14.08 53.6455 14.08H55.5455C58.2455 14.08 59.7255 14.92 59.7255 16.88C59.7255 19.14 57.3655 20.86 53.6255 20.86ZM53.8055 10.64C54.7855 10.64 55.5655 9.9 55.5655 8.56C55.5655 7.26 54.8055 6.52 53.8055 6.52C52.8055 6.52 52.0455 7.26 52.0455 8.56C52.0455 9.9 52.8255 10.64 53.8055 10.64ZM54.0655 19C55.7455 19 56.9055 18.26 56.9055 17.38C56.9055 16.58 56.2455 16.38 55.0455 16.38H53.6855C53.0055 16.38 52.5255 16.32 52.1255 16.22C51.6255 16.62 51.4055 17.06 51.4055 17.52C51.4055 18.46 52.4455 19 54.0655 19ZM66.128 16.28C62.988 16.28 60.548 14.1 60.548 10.4C60.548 6.78 63.108 4.52 65.768 4.52C68.848 4.52 70.448 6.78 70.448 9.86C70.448 10.42 70.388 10.96 70.308 11.22H63.408C63.648 13.06 64.848 14.02 66.508 14.02C67.428 14.02 68.228 13.74 69.028 13.24L70.028 15.04C68.928 15.8 67.508 16.28 66.128 16.28ZM63.368 9.26H67.928C67.928 7.76 67.248 6.8 65.808 6.8C64.628 6.8 63.588 7.64 63.368 9.26Z" fill="#1A1A1A"/>
</svg>
