<svg width="1452" height="341" viewBox="0 0 1452 341" fill="none" xmlns="http://www.w3.org/2000/svg">
<path d="M6.264 76.336C3.528 76.336 1.848 75.184 0.648 73.984L1.752 72.544C2.736 73.576 4.032 74.512 6.048 74.512C8.136 74.512 9.792 72.904 9.792 70.36C9.792 67.84 8.352 66.328 6.168 66.328C4.992 66.328 4.248 66.712 3.24 67.384L2.064 66.64L2.616 58.408H11.184V60.28H4.536L4.08 65.368C4.872 64.936 5.664 64.672 6.72 64.672C9.648 64.672 12.024 66.4 12.024 70.288C12.024 74.128 9.216 76.336 6.264 76.336ZM20.9445 76.336C17.5845 76.336 15.4485 73.288 15.4485 67.144C15.4485 61.048 17.5845 58.096 20.9445 58.096C24.2565 58.096 26.3925 61.048 26.3925 67.144C26.3925 73.288 24.2565 76.336 20.9445 76.336ZM20.9445 74.56C22.9365 74.56 24.2805 72.328 24.2805 67.144C24.2805 62.032 22.9365 59.848 20.9445 59.848C18.9285 59.848 17.5605 62.032 17.5605 67.144C17.5605 72.328 18.9285 74.56 20.9445 74.56Z" fill="#1A1A1A"/>
<path d="M1.616 101L2.048 97.352H0.624V96.328H2.176L2.512 93.688H0.992V92.664H2.624L3.04 89.384H3.984L3.568 92.664H5.936L6.368 89.384H7.312L6.896 92.664H8.336V93.688H6.784L6.448 96.328H7.984V97.352H6.32L5.888 101H4.944L5.36 97.352H3.008L2.56 101H1.616ZM3.12 96.328H5.504L5.824 93.688H3.44L3.12 96.328ZM11.115 101V89.272H17.867V90.52H12.603V94.504H17.067V95.736H12.603V101H11.115ZM20.3911 101V99.784H22.9991V91.384H20.9031V90.44C21.9591 90.248 22.7111 89.976 23.3351 89.608H24.4551V99.784H26.8231V101H20.3911ZM30.0981 101V89.272H36.8501V90.52H31.5861V94.2H36.0181V95.464H31.5861V99.752H37.0261V101H30.0981ZM38.608 101L42.576 89.272H44.24L48.208 101H46.656L44.592 94.44C44.176 93.128 43.808 91.848 43.424 90.488H43.36C42.976 91.848 42.608 93.128 42.176 94.44L40.112 101H38.608ZM40.688 97.416V96.248H46.096V97.416H40.688ZM50.5344 101V89.272H57.2864V90.52H52.0224V94.504H56.4864V95.736H52.0224V101H50.5344ZM57.7318 101L61.6998 89.272H63.3638L67.3318 101H65.7798L63.7158 94.44C63.2998 93.128 62.9318 91.848 62.5478 90.488H62.4838C62.0998 91.848 61.7318 93.128 61.2998 94.44L59.2358 101H57.7318ZM59.8118 97.416V96.248H65.2198V97.416H59.8118Z" fill="#1A1A1A"/>
<rect y="114" width="108" height="160.112" rx="4" fill="#F1EAFA"/>
<path d="M114.112 76V74.176H118.024V61.072H114.88V59.656C116.464 59.392 117.592 58.984 118.528 58.408H120.208V74.176H123.76V76H114.112ZM132.945 76.336C129.585 76.336 127.449 73.288 127.449 67.144C127.449 61.048 129.585 58.096 132.945 58.096C136.257 58.096 138.392 61.048 138.392 67.144C138.392 73.288 136.257 76.336 132.945 76.336ZM132.945 74.56C134.937 74.56 136.281 72.328 136.281 67.144C136.281 62.032 134.937 59.848 132.945 59.848C130.929 59.848 129.561 62.032 129.561 67.144C129.561 72.328 130.929 74.56 132.945 74.56ZM147.217 76.336C143.857 76.336 141.721 73.288 141.721 67.144C141.721 61.048 143.857 58.096 147.217 58.096C150.529 58.096 152.665 61.048 152.665 67.144C152.665 73.288 150.529 76.336 147.217 76.336ZM147.217 74.56C149.209 74.56 150.553 72.328 150.553 67.144C150.553 62.032 149.209 59.848 147.217 59.848C145.201 59.848 143.833 62.032 143.833 67.144C143.833 72.328 145.201 74.56 147.217 74.56Z" fill="#1A1A1A"/>
<path d="M113.616 101L114.048 97.352H112.624V96.328H114.176L114.512 93.688H112.992V92.664H114.624L115.04 89.384H115.984L115.568 92.664H117.936L118.368 89.384H119.312L118.896 92.664H120.336V93.688H118.784L118.448 96.328H119.984V97.352H118.32L117.888 101H116.944L117.36 97.352H115.008L114.56 101H113.616ZM115.12 96.328H117.504L117.824 93.688H115.44L115.12 96.328ZM123.115 101V89.272H129.867V90.52H124.603V94.2H129.035V95.464H124.603V99.752H130.043V101H123.115ZM137.609 101.224C134.681 101.224 132.505 98.952 132.505 95.144C132.505 91.368 134.729 89.064 137.705 89.064C139.129 89.064 140.233 89.752 140.921 90.504L140.105 91.464C139.497 90.808 138.713 90.36 137.721 90.36C135.497 90.36 134.025 92.184 134.025 95.112C134.025 98.072 135.433 99.912 137.673 99.912C138.777 99.912 139.641 99.432 140.393 98.6L141.193 99.528C140.265 100.616 139.129 101.224 137.609 101.224ZM144.02 101V89.272H146.948C150.564 89.272 152.484 91.368 152.484 95.096C152.484 98.824 150.564 101 147.028 101H144.02ZM145.508 99.784H146.836C149.588 99.784 150.964 98.072 150.964 95.096C150.964 92.12 149.588 90.488 146.836 90.488H145.508V99.784ZM155.676 101V89.272H158.604C162.22 89.272 164.14 91.368 164.14 95.096C164.14 98.824 162.22 101 158.684 101H155.676ZM157.164 99.784H158.492C161.244 99.784 162.62 98.072 162.62 95.096C162.62 92.12 161.244 90.488 158.492 90.488H157.164V99.784ZM167.331 101V89.272H174.083V90.52H168.819V94.504H173.283V95.736H168.819V101H167.331ZM176.799 101V89.272H183.551V90.52H178.287V94.504H182.751V95.736H178.287V101H176.799Z" fill="#1A1A1A"/>
<rect x="112" y="114" width="108" height="160.112" rx="4" fill="#ECDDFF"/>
<path d="M225.056 76V74.728C230.576 69.904 233.096 66.376 233.096 63.376C233.096 61.36 232.064 59.872 229.88 59.872C228.44 59.872 227.192 60.76 226.208 61.912L224.936 60.688C226.376 59.128 227.912 58.096 230.144 58.096C233.288 58.096 235.256 60.136 235.256 63.28C235.256 66.808 232.496 70.384 228.344 74.296C229.28 74.2 230.336 74.128 231.224 74.128H236.096V76H225.056ZM244.945 76.336C241.585 76.336 239.449 73.288 239.449 67.144C239.449 61.048 241.585 58.096 244.945 58.096C248.257 58.096 250.392 61.048 250.392 67.144C250.392 73.288 248.257 76.336 244.945 76.336ZM244.945 74.56C246.937 74.56 248.281 72.328 248.281 67.144C248.281 62.032 246.937 59.848 244.945 59.848C242.929 59.848 241.561 62.032 241.561 67.144C241.561 72.328 242.929 74.56 244.945 74.56ZM259.217 76.336C255.857 76.336 253.721 73.288 253.721 67.144C253.721 61.048 255.857 58.096 259.217 58.096C262.529 58.096 264.665 61.048 264.665 67.144C264.665 73.288 262.529 76.336 259.217 76.336ZM259.217 74.56C261.209 74.56 262.553 72.328 262.553 67.144C262.553 62.032 261.209 59.848 259.217 59.848C257.201 59.848 255.833 62.032 255.833 67.144C255.833 72.328 257.201 74.56 259.217 74.56Z" fill="#1A1A1A"/>
<path d="M225.616 101L226.048 97.352H224.624V96.328H226.176L226.512 93.688H224.992V92.664H226.624L227.04 89.384H227.984L227.568 92.664H229.936L230.368 89.384H231.312L230.896 92.664H232.336V93.688H230.784L230.448 96.328H231.984V97.352H230.32L229.888 101H228.944L229.36 97.352H227.008L226.56 101H225.616ZM227.12 96.328H229.504L229.824 93.688H227.44L227.12 96.328ZM235.115 101V89.272H238.043C241.659 89.272 243.579 91.368 243.579 95.096C243.579 98.824 241.659 101 238.123 101H235.115ZM236.603 99.784H237.931C240.683 99.784 242.059 98.072 242.059 95.096C242.059 92.12 240.683 90.488 237.931 90.488H236.603V99.784ZM246.771 101V89.272H249.699C253.315 89.272 255.235 91.368 255.235 95.096C255.235 98.824 253.315 101 249.779 101H246.771ZM248.259 99.784H249.587C252.339 99.784 253.715 98.072 253.715 95.096C253.715 92.12 252.339 90.488 249.587 90.488H248.259V99.784ZM262.858 101.224C259.93 101.224 257.754 98.952 257.754 95.144C257.754 91.368 259.978 89.064 262.954 89.064C264.378 89.064 265.482 89.752 266.17 90.504L265.354 91.464C264.746 90.808 263.962 90.36 262.97 90.36C260.746 90.36 259.274 92.184 259.274 95.112C259.274 98.072 260.682 99.912 262.922 99.912C264.026 99.912 264.89 99.432 265.642 98.6L266.442 99.528C265.514 100.616 264.378 101.224 262.858 101.224ZM268.373 101V100.152C271.813 96.728 273.733 94.664 273.733 92.792C273.733 91.496 273.045 90.568 271.589 90.568C270.629 90.568 269.797 91.176 269.141 91.944L268.293 91.112C269.253 90.072 270.277 89.4 271.765 89.4C273.861 89.4 275.173 90.712 275.173 92.744C275.173 94.888 273.205 97.016 270.501 99.864C271.109 99.8 271.829 99.752 272.421 99.752H275.733V101H268.373ZM278.784 101V89.272H285.536V90.52H280.272V94.504H284.736V95.736H280.272V101H278.784ZM288.253 101V89.272H295.005V90.52H289.741V94.504H294.205V95.736H289.741V101H288.253Z" fill="#1A1A1A"/>
<rect x="224" y="114" width="108" height="160.112" rx="4" fill="#DDC2FF"/>
<path d="M342.312 76.336C339.552 76.336 337.848 75.184 336.696 73.912L337.8 72.472C338.832 73.552 340.152 74.512 342.168 74.512C344.256 74.512 345.744 73.24 345.744 71.224C345.744 69.112 344.328 67.72 340.272 67.72V66.016C343.896 66.016 345.12 64.576 345.12 62.656C345.12 60.976 343.992 59.872 342.168 59.872C340.752 59.872 339.504 60.592 338.52 61.6L337.344 60.184C338.664 58.984 340.224 58.096 342.24 58.096C345.192 58.096 347.352 59.704 347.352 62.512C347.352 64.648 346.104 66.064 344.232 66.736V66.832C346.296 67.336 347.976 68.896 347.976 71.32C347.976 74.44 345.456 76.336 342.312 76.336ZM356.945 76.336C353.585 76.336 351.449 73.288 351.449 67.144C351.449 61.048 353.585 58.096 356.945 58.096C360.257 58.096 362.392 61.048 362.392 67.144C362.392 73.288 360.257 76.336 356.945 76.336ZM356.945 74.56C358.937 74.56 360.281 72.328 360.281 67.144C360.281 62.032 358.937 59.848 356.945 59.848C354.929 59.848 353.561 62.032 353.561 67.144C353.561 72.328 354.929 74.56 356.945 74.56ZM371.217 76.336C367.857 76.336 365.721 73.288 365.721 67.144C365.721 61.048 367.857 58.096 371.217 58.096C374.529 58.096 376.665 61.048 376.665 67.144C376.665 73.288 374.529 76.336 371.217 76.336ZM371.217 74.56C373.209 74.56 374.553 72.328 374.553 67.144C374.553 62.032 373.209 59.848 371.217 59.848C369.201 59.848 367.833 62.032 367.833 67.144C367.833 72.328 369.201 74.56 371.217 74.56Z" fill="#1A1A1A"/>
<path d="M337.616 101L338.048 97.352H336.624V96.328H338.176L338.512 93.688H336.992V92.664H338.624L339.04 89.384H339.984L339.568 92.664H341.936L342.368 89.384H343.312L342.896 92.664H344.336V93.688H342.784L342.448 96.328H343.984V97.352H342.32L341.888 101H340.944L341.36 97.352H339.008L338.56 101H337.616ZM339.12 96.328H341.504L341.824 93.688H339.44L339.12 96.328ZM351.547 101.224C348.619 101.224 346.443 98.952 346.443 95.144C346.443 91.368 348.667 89.064 351.643 89.064C353.067 89.064 354.171 89.752 354.859 90.504L354.043 91.464C353.435 90.808 352.651 90.36 351.659 90.36C349.435 90.36 347.963 92.184 347.963 95.112C347.963 98.072 349.371 99.912 351.611 99.912C352.715 99.912 353.579 99.432 354.331 98.6L355.131 99.528C354.203 100.616 353.067 101.224 351.547 101.224ZM357.958 101V89.272H360.886C364.502 89.272 366.422 91.368 366.422 95.096C366.422 98.824 364.502 101 360.966 101H357.958ZM359.446 99.784H360.774C363.526 99.784 364.902 98.072 364.902 95.096C364.902 92.12 363.526 90.488 360.774 90.488H359.446V99.784ZM367.843 101L371.811 89.272H373.475L377.443 101H375.891L373.827 94.44C373.411 93.128 373.043 91.848 372.659 90.488H372.595C372.211 91.848 371.843 93.128 371.411 94.44L369.347 101H367.843ZM369.923 97.416V96.248H375.331V97.416H369.923ZM382.969 101.224C380.713 101.224 379.017 99.4 379.017 95.736C379.017 91.144 381.097 89.4 383.369 89.4C384.585 89.4 385.481 89.912 386.105 90.584L385.305 91.496C384.841 90.952 384.137 90.616 383.417 90.616C381.785 90.616 380.409 91.896 380.409 95.736C380.409 98.552 381.305 100.072 382.953 100.072C384.089 100.072 384.953 99.064 384.953 97.56C384.953 96.072 384.249 95.128 382.825 95.128C382.089 95.128 381.161 95.576 380.361 96.76L380.313 95.592C381.049 94.632 382.105 94.04 383.065 94.04C385.033 94.04 386.329 95.224 386.329 97.56C386.329 99.752 384.777 101.224 382.969 101.224ZM389.284 101V89.272H396.036V90.52H390.772V94.504H395.236V95.736H390.772V101H389.284ZM398.753 101V89.272H405.505V90.52H400.241V94.504H404.705V95.736H400.241V101H398.753Z" fill="#1A1A1A"/>
<rect x="336" y="114" width="108" height="160.112" rx="4" fill="#CDA6FF"/>
<path d="M456.136 76V64.024C456.136 63.136 456.208 61.72 456.28 60.808H456.16C455.728 61.672 455.248 62.56 454.768 63.424L450.76 69.424H460.552V71.152H448.456V69.712L455.776 58.408H458.2V76H456.136ZM468.945 76.336C465.585 76.336 463.449 73.288 463.449 67.144C463.449 61.048 465.585 58.096 468.945 58.096C472.257 58.096 474.392 61.048 474.392 67.144C474.392 73.288 472.257 76.336 468.945 76.336ZM468.945 74.56C470.937 74.56 472.281 72.328 472.281 67.144C472.281 62.032 470.937 59.848 468.945 59.848C466.929 59.848 465.561 62.032 465.561 67.144C465.561 72.328 466.929 74.56 468.945 74.56ZM483.217 76.336C479.857 76.336 477.721 73.288 477.721 67.144C477.721 61.048 479.857 58.096 483.217 58.096C486.529 58.096 488.665 61.048 488.665 67.144C488.665 73.288 486.529 76.336 483.217 76.336ZM483.217 74.56C485.209 74.56 486.553 72.328 486.553 67.144C486.553 62.032 485.209 59.848 483.217 59.848C481.201 59.848 479.833 62.032 479.833 67.144C479.833 72.328 481.201 74.56 483.217 74.56Z" fill="#1A1A1A"/>
<path d="M449.616 101L450.048 97.352H448.624V96.328H450.176L450.512 93.688H448.992V92.664H450.624L451.04 89.384H451.984L451.568 92.664H453.936L454.368 89.384H455.312L454.896 92.664H456.336V93.688H454.784L454.448 96.328H455.984V97.352H454.32L453.888 101H452.944L453.36 97.352H451.008L450.56 101H449.616ZM451.12 96.328H453.504L453.824 93.688H451.44L451.12 96.328ZM459.115 101V89.272H462.587C464.971 89.272 466.619 90.088 466.619 92.152C466.619 93.304 466.011 94.328 464.907 94.696V94.76C466.315 95.032 467.291 95.976 467.291 97.576C467.291 99.864 465.467 101 462.859 101H459.115ZM460.603 94.264H462.331C464.347 94.264 465.163 93.528 465.163 92.328C465.163 90.952 464.235 90.44 462.411 90.44H460.603V94.264ZM460.603 99.832H462.651C464.651 99.832 465.851 99.112 465.851 97.528C465.851 96.072 464.699 95.4 462.651 95.4H460.603V99.832ZM470.271 101V89.272H473.743C476.127 89.272 477.775 90.088 477.775 92.152C477.775 93.304 477.167 94.328 476.063 94.696V94.76C477.471 95.032 478.447 95.976 478.447 97.576C478.447 99.864 476.623 101 474.015 101H470.271ZM471.759 94.264H473.487C475.503 94.264 476.319 93.528 476.319 92.328C476.319 90.952 475.391 90.44 473.567 90.44H471.759V94.264ZM471.759 99.832H473.807C475.807 99.832 477.007 99.112 477.007 97.528C477.007 96.072 475.855 95.4 473.807 95.4H471.759V99.832ZM484.29 101.224C482.13 101.224 480.546 99.912 480.546 98.104C480.546 96.6 481.634 95.576 482.706 95.016V94.952C481.858 94.36 481.106 93.512 481.106 92.312C481.106 90.552 482.498 89.4 484.338 89.4C486.338 89.4 487.554 90.648 487.554 92.424C487.554 93.624 486.674 94.632 485.986 95.16V95.24C486.994 95.848 487.97 96.648 487.97 98.184C487.97 99.896 486.482 101.224 484.29 101.224ZM485.09 94.792C485.874 94.088 486.306 93.336 486.306 92.488C486.306 91.368 485.57 90.472 484.306 90.472C483.234 90.472 482.45 91.208 482.45 92.312C482.45 93.672 483.714 94.248 485.09 94.792ZM484.322 100.12C485.666 100.12 486.562 99.304 486.562 98.136C486.562 96.648 485.122 96.136 483.474 95.464C482.53 96.072 481.858 96.904 481.858 97.96C481.858 99.208 482.914 100.12 484.322 100.12ZM492.493 101C492.701 96.712 493.565 93.976 495.805 90.856H490.125V89.608H497.453V90.504C494.765 93.944 494.205 96.552 494.013 101H492.493ZM500.456 101V89.272H507.208V90.52H501.944V94.504H506.408V95.736H501.944V101H500.456ZM509.924 101V89.272H516.676V90.52H511.412V94.504H515.876V95.736H511.412V101H509.924Z" fill="#1A1A1A"/>
<rect x="448" y="114" width="108" height="160.112" rx="4" fill="#BB87FF"/>
<path d="M566.264 76.336C563.528 76.336 561.848 75.184 560.648 73.984L561.752 72.544C562.736 73.576 564.032 74.512 566.048 74.512C568.136 74.512 569.792 72.904 569.792 70.36C569.792 67.84 568.352 66.328 566.168 66.328C564.992 66.328 564.248 66.712 563.24 67.384L562.064 66.64L562.616 58.408H571.184V60.28H564.536L564.08 65.368C564.872 64.936 565.664 64.672 566.72 64.672C569.648 64.672 572.024 66.4 572.024 70.288C572.024 74.128 569.216 76.336 566.264 76.336ZM580.945 76.336C577.585 76.336 575.449 73.288 575.449 67.144C575.449 61.048 577.585 58.096 580.945 58.096C584.257 58.096 586.392 61.048 586.392 67.144C586.392 73.288 584.257 76.336 580.945 76.336ZM580.945 74.56C582.937 74.56 584.281 72.328 584.281 67.144C584.281 62.032 582.937 59.848 580.945 59.848C578.929 59.848 577.561 62.032 577.561 67.144C577.561 72.328 578.929 74.56 580.945 74.56ZM595.217 76.336C591.857 76.336 589.721 73.288 589.721 67.144C589.721 61.048 591.857 58.096 595.217 58.096C598.529 58.096 600.665 61.048 600.665 67.144C600.665 73.288 598.529 76.336 595.217 76.336ZM595.217 74.56C597.209 74.56 598.553 72.328 598.553 67.144C598.553 62.032 597.209 59.848 595.217 59.848C593.201 59.848 591.833 62.032 591.833 67.144C591.833 72.328 593.201 74.56 595.217 74.56Z" fill="#1A1A1A"/>
<path d="M561.616 101L562.048 97.352H560.624V96.328H562.176L562.512 93.688H560.992V92.664H562.624L563.04 89.384H563.984L563.568 92.664H565.936L566.368 89.384H567.312L566.896 92.664H568.336V93.688H566.784L566.448 96.328H567.984V97.352H566.32L565.888 101H564.944L565.36 97.352H563.008L562.56 101H561.616ZM563.12 96.328H565.504L565.824 93.688H563.44L563.12 96.328ZM569.563 101L573.531 89.272H575.195L579.163 101H577.611L575.547 94.44C575.131 93.128 574.763 91.848 574.379 90.488H574.315C573.931 91.848 573.563 93.128 573.131 94.44L571.067 101H569.563ZM571.643 97.416V96.248H577.051V97.416H571.643ZM584.065 101.224C582.241 101.224 581.121 100.456 580.321 99.656L581.057 98.696C581.713 99.384 582.577 100.008 583.921 100.008C585.313 100.008 586.417 99 586.417 97.4C586.417 95.832 585.457 94.888 584.001 94.888C583.217 94.888 582.721 95.144 582.049 95.592L581.265 95.096L581.633 89.608H587.345V90.856H582.913L582.609 94.248C583.137 93.96 583.665 93.784 584.369 93.784C586.321 93.784 587.905 94.888 587.905 97.352C587.905 99.832 586.033 101.224 584.065 101.224ZM594.204 101.224C591.948 101.224 590.252 99.4 590.252 95.736C590.252 91.144 592.332 89.4 594.604 89.4C595.82 89.4 596.716 89.912 597.34 90.584L596.54 91.496C596.076 90.952 595.372 90.616 594.652 90.616C593.02 90.616 591.644 91.896 591.644 95.736C591.644 98.552 592.54 100.072 594.188 100.072C595.324 100.072 596.188 99.064 596.188 97.56C596.188 96.072 595.484 95.128 594.06 95.128C593.324 95.128 592.396 95.576 591.596 96.76L591.548 95.592C592.284 94.632 593.34 94.04 594.3 94.04C596.268 94.04 597.564 95.224 597.564 97.56C597.564 99.752 596.012 101.224 594.204 101.224ZM603.095 101.224C601.271 101.224 600.151 100.456 599.351 99.656L600.087 98.696C600.743 99.384 601.607 100.008 602.951 100.008C604.343 100.008 605.447 99 605.447 97.4C605.447 95.832 604.487 94.888 603.031 94.888C602.247 94.888 601.751 95.144 601.079 95.592L600.295 95.096L600.663 89.608H606.375V90.856H601.943L601.639 94.248C602.167 93.96 602.695 93.784 603.399 93.784C605.351 93.784 606.935 94.888 606.935 97.352C606.935 99.832 605.063 101.224 603.095 101.224ZM610.034 101V89.272H616.786V90.52H611.522V94.504H615.986V95.736H611.522V101H610.034ZM622.367 101.224C620.207 101.224 618.623 99.912 618.623 98.104C618.623 96.6 619.711 95.576 620.783 95.016V94.952C619.935 94.36 619.183 93.512 619.183 92.312C619.183 90.552 620.575 89.4 622.415 89.4C624.415 89.4 625.631 90.648 625.631 92.424C625.631 93.624 624.751 94.632 624.063 95.16V95.24C625.071 95.848 626.047 96.648 626.047 98.184C626.047 99.896 624.559 101.224 622.367 101.224ZM623.167 94.792C623.951 94.088 624.383 93.336 624.383 92.488C624.383 91.368 623.647 90.472 622.383 90.472C621.311 90.472 620.527 91.208 620.527 92.312C620.527 93.672 621.791 94.248 623.167 94.792ZM622.399 100.12C623.743 100.12 624.639 99.304 624.639 98.136C624.639 96.648 623.199 96.136 621.551 95.464C620.607 96.072 619.935 96.904 619.935 97.96C619.935 99.208 620.991 100.12 622.399 100.12Z" fill="#1A1A1A"/>
<rect x="560" y="114" width="108" height="160.112" rx="4" fill="#A565F8"/>
<path d="M679.224 76.336C675.84 76.336 673.32 73.432 673.32 67.624C673.32 60.736 676.416 58.096 679.824 58.096C681.648 58.096 682.992 58.864 683.952 59.896L682.728 61.24C682.056 60.424 680.976 59.92 679.92 59.92C677.448 59.92 675.384 61.864 675.384 67.624C675.384 72.136 676.752 74.608 679.224 74.608C680.904 74.608 682.2 73 682.2 70.624C682.2 68.224 681.144 66.712 679.032 66.712C677.904 66.712 676.488 67.384 675.312 69.136L675.24 67.384C676.32 65.968 677.952 65.104 679.368 65.104C682.344 65.104 684.264 66.928 684.264 70.624C684.264 74.032 681.936 76.336 679.224 76.336ZM692.945 76.336C689.585 76.336 687.449 73.288 687.449 67.144C687.449 61.048 689.585 58.096 692.945 58.096C696.257 58.096 698.392 61.048 698.392 67.144C698.392 73.288 696.257 76.336 692.945 76.336ZM692.945 74.56C694.937 74.56 696.281 72.328 696.281 67.144C696.281 62.032 694.937 59.848 692.945 59.848C690.929 59.848 689.561 62.032 689.561 67.144C689.561 72.328 690.929 74.56 692.945 74.56ZM707.217 76.336C703.857 76.336 701.721 73.288 701.721 67.144C701.721 61.048 703.857 58.096 707.217 58.096C710.529 58.096 712.665 61.048 712.665 67.144C712.665 73.288 710.529 76.336 707.217 76.336ZM707.217 74.56C709.209 74.56 710.553 72.328 710.553 67.144C710.553 62.032 709.209 59.848 707.217 59.848C705.201 59.848 703.833 62.032 703.833 67.144C703.833 72.328 705.201 74.56 707.217 74.56Z" fill="#1A1A1A"/>
<path d="M673.616 101L674.048 97.352H672.624V96.328H674.176L674.512 93.688H672.992V92.664H674.624L675.04 89.384H675.984L675.568 92.664H677.936L678.368 89.384H679.312L678.896 92.664H680.336V93.688H678.784L678.448 96.328H679.984V97.352H678.32L677.888 101H676.944L677.36 97.352H675.008L674.56 101H673.616ZM675.12 96.328H677.504L677.824 93.688H675.44L675.12 96.328ZM685.979 101.224C683.819 101.224 682.235 99.912 682.235 98.104C682.235 96.6 683.323 95.576 684.395 95.016V94.952C683.547 94.36 682.795 93.512 682.795 92.312C682.795 90.552 684.187 89.4 686.027 89.4C688.027 89.4 689.243 90.648 689.243 92.424C689.243 93.624 688.363 94.632 687.675 95.16V95.24C688.683 95.848 689.659 96.648 689.659 98.184C689.659 99.896 688.171 101.224 685.979 101.224ZM686.779 94.792C687.563 94.088 687.995 93.336 687.995 92.488C687.995 91.368 687.259 90.472 685.995 90.472C684.923 90.472 684.139 91.208 684.139 92.312C684.139 93.672 685.403 94.248 686.779 94.792ZM686.011 100.12C687.355 100.12 688.251 99.304 688.251 98.136C688.251 96.648 686.811 96.136 685.163 95.464C684.219 96.072 683.547 96.904 683.547 97.96C683.547 99.208 684.603 100.12 686.011 100.12ZM695.494 101.224C693.334 101.224 691.75 99.912 691.75 98.104C691.75 96.6 692.838 95.576 693.91 95.016V94.952C693.062 94.36 692.31 93.512 692.31 92.312C692.31 90.552 693.702 89.4 695.542 89.4C697.542 89.4 698.758 90.648 698.758 92.424C698.758 93.624 697.878 94.632 697.19 95.16V95.24C698.198 95.848 699.174 96.648 699.174 98.184C699.174 99.896 697.686 101.224 695.494 101.224ZM696.294 94.792C697.078 94.088 697.51 93.336 697.51 92.488C697.51 91.368 696.774 90.472 695.51 90.472C694.438 90.472 693.654 91.208 693.654 92.312C693.654 93.672 694.918 94.248 696.294 94.792ZM695.526 100.12C696.87 100.12 697.766 99.304 697.766 98.136C697.766 96.648 696.326 96.136 694.678 95.464C693.734 96.072 693.062 96.904 693.062 97.96C693.062 99.208 694.118 100.12 695.526 100.12ZM705.969 101V93.352C705.969 92.76 706.017 91.768 706.065 91.176H705.985C705.697 91.704 705.377 92.216 705.057 92.776L702.385 96.696H708.913V97.848H700.849V96.888L705.729 89.608H707.345V101H705.969ZM714.268 101.224C712.428 101.224 711.292 100.456 710.524 99.608L711.26 98.648C711.948 99.368 712.828 100.008 714.172 100.008C715.564 100.008 716.556 99.192 716.556 97.912C716.556 96.552 715.612 95.64 712.908 95.64V94.52C715.324 94.52 716.14 93.576 716.14 92.376C716.14 91.272 715.388 90.568 714.172 90.568C713.228 90.568 712.396 91.064 711.74 91.736L710.956 90.808C711.836 89.992 712.876 89.4 714.22 89.4C716.188 89.4 717.628 90.44 717.628 92.28C717.628 93.656 716.796 94.536 715.548 95V95.064C716.924 95.384 718.044 96.408 718.044 97.96C718.044 99.992 716.364 101.224 714.268 101.224ZM721.175 101V89.272H727.927V90.52H722.663V94.2H727.095V95.464H722.663V99.752H728.103V101H721.175ZM731.045 101V99.784H733.653V91.384H731.557V90.44C732.613 90.248 733.365 89.976 733.989 89.608H735.109V99.784H737.477V101H731.045Z" fill="#1A1A1A"/>
<rect x="672" y="114" width="108" height="160.112" rx="4" fill="#8843E1"/>
<path d="M788.728 76C789.04 69.352 790.24 65.08 793.696 60.28H785.176V58.408H796.168V59.728C792.04 65.032 791.296 69.136 791.008 76H788.728ZM804.945 76.336C801.585 76.336 799.449 73.288 799.449 67.144C799.449 61.048 801.585 58.096 804.945 58.096C808.257 58.096 810.392 61.048 810.392 67.144C810.392 73.288 808.257 76.336 804.945 76.336ZM804.945 74.56C806.937 74.56 808.281 72.328 808.281 67.144C808.281 62.032 806.937 59.848 804.945 59.848C802.929 59.848 801.561 62.032 801.561 67.144C801.561 72.328 802.929 74.56 804.945 74.56ZM819.217 76.336C815.857 76.336 813.721 73.288 813.721 67.144C813.721 61.048 815.857 58.096 819.217 58.096C822.529 58.096 824.665 61.048 824.665 67.144C824.665 73.288 822.529 76.336 819.217 76.336ZM819.217 74.56C821.209 74.56 822.553 72.328 822.553 67.144C822.553 62.032 821.209 59.848 819.217 59.848C817.201 59.848 815.833 62.032 815.833 67.144C815.833 72.328 817.201 74.56 819.217 74.56Z" fill="#1A1A1A"/>
<path d="M785.616 101L786.048 97.352H784.624V96.328H786.176L786.512 93.688H784.992V92.664H786.624L787.04 89.384H787.984L787.568 92.664H789.936L790.368 89.384H791.312L790.896 92.664H792.336V93.688H790.784L790.448 96.328H791.984V97.352H790.32L789.888 101H788.944L789.36 97.352H787.008L786.56 101H785.616ZM787.12 96.328H789.504L789.824 93.688H787.44L787.12 96.328ZM798.315 101.224C796.059 101.224 794.363 99.4 794.363 95.736C794.363 91.144 796.443 89.4 798.715 89.4C799.931 89.4 800.827 89.912 801.451 90.584L800.651 91.496C800.187 90.952 799.483 90.616 798.763 90.616C797.131 90.616 795.755 91.896 795.755 95.736C795.755 98.552 796.651 100.072 798.299 100.072C799.435 100.072 800.299 99.064 800.299 97.56C800.299 96.072 799.595 95.128 798.171 95.128C797.435 95.128 796.507 95.576 795.707 96.76L795.659 95.592C796.395 94.632 797.451 94.04 798.411 94.04C800.379 94.04 801.675 95.224 801.675 97.56C801.675 99.752 800.123 101.224 798.315 101.224ZM804.63 101V89.272H811.382V90.52H806.118V94.504H810.582V95.736H806.118V101H804.63ZM813.202 101V100.152C816.642 96.728 818.562 94.664 818.562 92.792C818.562 91.496 817.874 90.568 816.418 90.568C815.458 90.568 814.626 91.176 813.97 91.944L813.122 91.112C814.082 90.072 815.106 89.4 816.594 89.4C818.69 89.4 820.002 90.712 820.002 92.744C820.002 94.888 818.034 97.016 815.33 99.864C815.938 99.8 816.658 99.752 817.25 99.752H820.562V101H813.202ZM826.221 101.224C824.381 101.224 823.245 100.456 822.477 99.608L823.213 98.648C823.901 99.368 824.781 100.008 826.125 100.008C827.517 100.008 828.509 99.192 828.509 97.912C828.509 96.552 827.565 95.64 824.861 95.64V94.52C827.277 94.52 828.093 93.576 828.093 92.376C828.093 91.272 827.341 90.568 826.125 90.568C825.181 90.568 824.349 91.064 823.693 91.736L822.909 90.808C823.789 89.992 824.829 89.4 826.173 89.4C828.141 89.4 829.581 90.44 829.581 92.28C829.581 93.656 828.749 94.536 827.501 95V95.064C828.877 95.384 829.997 96.408 829.997 97.96C829.997 99.992 828.317 101.224 826.221 101.224ZM833.128 101V89.272H836.056C839.672 89.272 841.592 91.368 841.592 95.096C841.592 98.824 839.672 101 836.136 101H833.128ZM834.616 99.784H835.944C838.696 99.784 840.072 98.072 840.072 95.096C840.072 92.12 838.696 90.488 835.944 90.488H834.616V99.784ZM847.632 101.224C845.344 101.224 843.968 99.096 843.968 95.272C843.968 91.448 845.344 89.4 847.632 89.4C849.888 89.4 851.264 91.448 851.264 95.272C851.264 99.096 849.888 101.224 847.632 101.224ZM847.632 100.04C848.96 100.04 849.856 98.616 849.856 95.272C849.856 91.912 848.96 90.568 847.632 90.568C846.288 90.568 845.376 91.912 845.376 95.272C845.376 98.616 846.288 100.04 847.632 100.04Z" fill="#1A1A1A"/>
<rect x="784" y="114" width="108" height="160.112" rx="4" fill="#6F23D0"/>
<path d="M902.696 76.336C899.456 76.336 897.08 74.368 897.08 71.656C897.08 69.28 898.712 67.648 900.32 66.784V66.688C899.024 65.8 897.92 64.456 897.92 62.608C897.92 59.944 900.008 58.168 902.768 58.168C905.768 58.168 907.592 60.088 907.592 62.776C907.592 64.648 906.296 66.208 905.24 67.024V67.144C906.776 68.032 908.216 69.376 908.216 71.776C908.216 74.344 905.984 76.336 902.696 76.336ZM903.896 66.472C905.096 65.416 905.72 64.216 905.72 62.896C905.72 61.168 904.616 59.776 902.72 59.776C901.112 59.776 899.936 60.928 899.936 62.608C899.936 64.72 901.832 65.656 903.896 66.472ZM902.744 74.68C904.76 74.68 906.104 73.456 906.104 71.704C906.104 69.352 903.944 68.464 901.472 67.456C900.032 68.368 899.048 69.76 899.048 71.44C899.048 73.312 900.632 74.68 902.744 74.68ZM916.945 76.336C913.585 76.336 911.449 73.288 911.449 67.144C911.449 61.048 913.585 58.096 916.945 58.096C920.257 58.096 922.392 61.048 922.392 67.144C922.392 73.288 920.257 76.336 916.945 76.336ZM916.945 74.56C918.937 74.56 920.281 72.328 920.281 67.144C920.281 62.032 918.937 59.848 916.945 59.848C914.929 59.848 913.561 62.032 913.561 67.144C913.561 72.328 914.929 74.56 916.945 74.56ZM931.217 76.336C927.857 76.336 925.721 73.288 925.721 67.144C925.721 61.048 927.857 58.096 931.217 58.096C934.529 58.096 936.665 61.048 936.665 67.144C936.665 73.288 934.529 76.336 931.217 76.336ZM931.217 74.56C933.209 74.56 934.553 72.328 934.553 67.144C934.553 62.032 933.209 59.848 931.217 59.848C929.201 59.848 927.833 62.032 927.833 67.144C927.833 72.328 929.201 74.56 931.217 74.56Z" fill="#1A1A1A"/>
<path d="M897.616 101L898.048 97.352H896.624V96.328H898.176L898.512 93.688H896.992V92.664H898.624L899.04 89.384H899.984L899.568 92.664H901.936L902.368 89.384H903.312L902.896 92.664H904.336V93.688H902.784L902.448 96.328H903.984V97.352H902.32L901.888 101H900.944L901.36 97.352H899.008L898.56 101H897.616ZM899.12 96.328H901.504L901.824 93.688H899.44L899.12 96.328ZM909.691 101.224C907.867 101.224 906.747 100.456 905.947 99.656L906.683 98.696C907.339 99.384 908.203 100.008 909.547 100.008C910.939 100.008 912.043 99 912.043 97.4C912.043 95.832 911.083 94.888 909.627 94.888C908.843 94.888 908.347 95.144 907.675 95.592L906.891 95.096L907.259 89.608H912.971V90.856H908.539L908.235 94.248C908.763 93.96 909.291 93.784 909.995 93.784C911.947 93.784 913.531 94.888 913.531 97.352C913.531 99.832 911.659 101.224 909.691 101.224ZM921.062 101.224C918.134 101.224 915.958 98.952 915.958 95.144C915.958 91.368 918.182 89.064 921.158 89.064C922.582 89.064 923.686 89.752 924.374 90.504L923.558 91.464C922.95 90.808 922.166 90.36 921.174 90.36C918.95 90.36 917.478 92.184 917.478 95.112C917.478 98.072 918.886 99.912 921.126 99.912C922.23 99.912 923.094 99.432 923.846 98.6L924.646 99.528C923.718 100.616 922.582 101.224 921.062 101.224ZM927.281 101V99.784H929.889V91.384H927.793V90.44C928.849 90.248 929.601 89.976 930.225 89.608H931.345V99.784H933.713V101H927.281ZM939.836 101.224C937.548 101.224 936.172 99.096 936.172 95.272C936.172 91.448 937.548 89.4 939.836 89.4C942.092 89.4 943.468 91.448 943.468 95.272C943.468 99.096 942.092 101.224 939.836 101.224ZM939.836 100.04C941.164 100.04 942.06 98.616 942.06 95.272C942.06 91.912 941.164 90.568 939.836 90.568C938.492 90.568 937.58 91.912 937.58 95.272C937.58 98.616 938.492 100.04 939.836 100.04ZM946.503 101V89.272H949.975C952.359 89.272 954.007 90.088 954.007 92.152C954.007 93.304 953.399 94.328 952.295 94.696V94.76C953.703 95.032 954.679 95.976 954.679 97.576C954.679 99.864 952.855 101 950.247 101H946.503ZM947.991 94.264H949.719C951.735 94.264 952.551 93.528 952.551 92.328C952.551 90.952 951.623 90.44 949.799 90.44H947.991V94.264ZM947.991 99.832H950.039C952.039 99.832 953.239 99.112 953.239 97.528C953.239 96.072 952.087 95.4 950.039 95.4H947.991V99.832ZM957.659 101V89.272H964.411V90.52H959.147V94.2H963.579V95.464H959.147V99.752H964.587V101H957.659Z" fill="#1A1A1A"/>
<rect x="896" y="114" width="108" height="160.112" rx="4" fill="#5C10BE"/>
<path d="M1013.62 76.336C1011.7 76.336 1010.35 75.568 1009.37 74.536L1010.59 73.144C1011.34 74.008 1012.42 74.512 1013.54 74.512C1015.9 74.512 1017.94 72.472 1017.94 66.448C1017.94 62.128 1016.57 59.8 1014.1 59.8C1012.42 59.8 1011.12 61.384 1011.12 63.808C1011.12 66.16 1012.18 67.72 1014.26 67.72C1015.44 67.72 1016.81 67.024 1017.96 65.272L1018.08 67.024C1016.98 68.416 1015.42 69.328 1013.9 69.328C1010.95 69.328 1009.06 67.456 1009.06 63.808C1009.06 60.4 1011.36 58.096 1014.1 58.096C1017.48 58.096 1020 60.856 1020 66.448C1020 73.6 1016.93 76.336 1013.62 76.336ZM1028.94 76.336C1025.58 76.336 1023.45 73.288 1023.45 67.144C1023.45 61.048 1025.58 58.096 1028.94 58.096C1032.26 58.096 1034.39 61.048 1034.39 67.144C1034.39 73.288 1032.26 76.336 1028.94 76.336ZM1028.94 74.56C1030.94 74.56 1032.28 72.328 1032.28 67.144C1032.28 62.032 1030.94 59.848 1028.94 59.848C1026.93 59.848 1025.56 62.032 1025.56 67.144C1025.56 72.328 1026.93 74.56 1028.94 74.56ZM1043.22 76.336C1039.86 76.336 1037.72 73.288 1037.72 67.144C1037.72 61.048 1039.86 58.096 1043.22 58.096C1046.53 58.096 1048.66 61.048 1048.66 67.144C1048.66 73.288 1046.53 76.336 1043.22 76.336ZM1043.22 74.56C1045.21 74.56 1046.55 72.328 1046.55 67.144C1046.55 62.032 1045.21 59.848 1043.22 59.848C1041.2 59.848 1039.83 62.032 1039.83 67.144C1039.83 72.328 1041.2 74.56 1043.22 74.56Z" fill="#1A1A1A"/>
<path d="M1009.62 101L1010.05 97.352H1008.62V96.328H1010.18L1010.51 93.688H1008.99V92.664H1010.62L1011.04 89.384H1011.98L1011.57 92.664H1013.94L1014.37 89.384H1015.31L1014.9 92.664H1016.34V93.688H1014.78L1014.45 96.328H1015.98V97.352H1014.32L1013.89 101H1012.94L1013.36 97.352H1011.01L1010.56 101H1009.62ZM1011.12 96.328H1013.5L1013.82 93.688H1011.44L1011.12 96.328ZM1021.69 101.224C1019.87 101.224 1018.75 100.456 1017.95 99.656L1018.68 98.696C1019.34 99.384 1020.2 100.008 1021.55 100.008C1022.94 100.008 1024.04 99 1024.04 97.4C1024.04 95.832 1023.08 94.888 1021.63 94.888C1020.84 94.888 1020.35 95.144 1019.68 95.592L1018.89 95.096L1019.26 89.608H1024.97V90.856H1020.54L1020.24 94.248C1020.76 93.96 1021.29 93.784 1022 93.784C1023.95 93.784 1025.53 94.888 1025.53 97.352C1025.53 99.832 1023.66 101.224 1021.69 101.224ZM1028.44 101V99.784H1031.05V91.384H1028.95V90.44C1030.01 90.248 1030.76 89.976 1031.38 89.608H1032.5V99.784H1034.87V101H1028.44ZM1040.99 101.224C1038.71 101.224 1037.33 99.096 1037.33 95.272C1037.33 91.448 1038.71 89.4 1040.99 89.4C1043.25 89.4 1044.62 91.448 1044.62 95.272C1044.62 99.096 1043.25 101.224 1040.99 101.224ZM1040.99 100.04C1042.32 100.04 1043.22 98.616 1043.22 95.272C1043.22 91.912 1042.32 90.568 1040.99 90.568C1039.65 90.568 1038.74 91.912 1038.74 95.272C1038.74 98.616 1039.65 100.04 1040.99 100.04ZM1049.72 101.224C1048.49 101.224 1047.6 100.712 1046.97 100.024L1047.79 99.096C1048.25 99.672 1048.96 100.008 1049.66 100.008C1051.31 100.008 1052.68 98.712 1052.68 94.872C1052.68 92.056 1051.77 90.536 1050.12 90.536C1049 90.536 1048.14 91.528 1048.14 93.048C1048.14 94.536 1048.84 95.48 1050.25 95.48C1051 95.48 1051.93 95.032 1052.7 93.848L1052.78 95.016C1052.04 95.976 1050.97 96.568 1050.01 96.568C1048.03 96.568 1046.76 95.384 1046.76 93.048C1046.76 90.872 1048.3 89.4 1050.12 89.4C1052.38 89.4 1054.06 91.208 1054.06 94.872C1054.06 99.464 1051.98 101.224 1049.72 101.224ZM1055.62 101L1059.59 89.272H1061.26L1065.22 101H1063.67L1061.61 94.44C1061.19 93.128 1060.82 91.848 1060.44 90.488H1060.38C1059.99 91.848 1059.62 93.128 1059.19 94.44L1057.13 101H1055.62ZM1057.7 97.416V96.248H1063.11V97.416H1057.7ZM1067.55 101V89.272H1070.48C1074.09 89.272 1076.01 91.368 1076.01 95.096C1076.01 98.824 1074.09 101 1070.56 101H1067.55ZM1069.04 99.784H1070.37C1073.12 99.784 1074.49 98.072 1074.49 95.096C1074.49 92.12 1073.12 90.488 1070.37 90.488H1069.04V99.784Z" fill="#1A1A1A"/>
<rect x="1008" y="114" width="108" height="160.112" rx="4" fill="#5109AD"/>
<path d="M1122.11 76V74.176H1126.02V61.072H1122.88V59.656C1124.46 59.392 1125.59 58.984 1126.53 58.408H1128.21V74.176H1131.76V76H1122.11ZM1140.94 76.336C1137.58 76.336 1135.45 73.288 1135.45 67.144C1135.45 61.048 1137.58 58.096 1140.94 58.096C1144.26 58.096 1146.39 61.048 1146.39 67.144C1146.39 73.288 1144.26 76.336 1140.94 76.336ZM1140.94 74.56C1142.94 74.56 1144.28 72.328 1144.28 67.144C1144.28 62.032 1142.94 59.848 1140.94 59.848C1138.93 59.848 1137.56 62.032 1137.56 67.144C1137.56 72.328 1138.93 74.56 1140.94 74.56ZM1155.22 76.336C1151.86 76.336 1149.72 73.288 1149.72 67.144C1149.72 61.048 1151.86 58.096 1155.22 58.096C1158.53 58.096 1160.66 61.048 1160.66 67.144C1160.66 73.288 1158.53 76.336 1155.22 76.336ZM1155.22 74.56C1157.21 74.56 1158.55 72.328 1158.55 67.144C1158.55 62.032 1157.21 59.848 1155.22 59.848C1153.2 59.848 1151.83 62.032 1151.83 67.144C1151.83 72.328 1153.2 74.56 1155.22 74.56ZM1169.49 76.336C1166.13 76.336 1163.99 73.288 1163.99 67.144C1163.99 61.048 1166.13 58.096 1169.49 58.096C1172.8 58.096 1174.94 61.048 1174.94 67.144C1174.94 73.288 1172.8 76.336 1169.49 76.336ZM1169.49 74.56C1171.48 74.56 1172.83 72.328 1172.83 67.144C1172.83 62.032 1171.48 59.848 1169.49 59.848C1167.47 59.848 1166.11 62.032 1166.11 67.144C1166.11 72.328 1167.47 74.56 1169.49 74.56Z" fill="#1A1A1A"/>
<path d="M1121.62 101L1122.05 97.352H1120.62V96.328H1122.18L1122.51 93.688H1120.99V92.664H1122.62L1123.04 89.384H1123.98L1123.57 92.664H1125.94L1126.37 89.384H1127.31L1126.9 92.664H1128.34V93.688H1126.78L1126.45 96.328H1127.98V97.352H1126.32L1125.89 101H1124.94L1125.36 97.352H1123.01L1122.56 101H1121.62ZM1123.12 96.328H1125.5L1125.82 93.688H1123.44L1123.12 96.328ZM1134.94 101V93.352C1134.94 92.76 1134.99 91.768 1135.04 91.176H1134.96C1134.67 91.704 1134.35 92.216 1134.03 92.776L1131.36 96.696H1137.88V97.848H1129.82V96.888L1134.7 89.608H1136.32V101H1134.94ZM1140.44 101V99.784H1143.05V91.384H1140.95V90.44C1142.01 90.248 1142.76 89.976 1143.38 89.608H1144.5V99.784H1146.87V101H1140.44ZM1152.99 101.224C1150.71 101.224 1149.33 99.096 1149.33 95.272C1149.33 91.448 1150.71 89.4 1152.99 89.4C1155.25 89.4 1156.62 91.448 1156.62 95.272C1156.62 99.096 1155.25 101.224 1152.99 101.224ZM1152.99 100.04C1154.32 100.04 1155.22 98.616 1155.22 95.272C1155.22 91.912 1154.32 90.568 1152.99 90.568C1151.65 90.568 1150.74 91.912 1150.74 95.272C1150.74 98.616 1151.65 100.04 1152.99 100.04ZM1163.48 101V93.352C1163.48 92.76 1163.53 91.768 1163.58 91.176H1163.5C1163.21 91.704 1162.89 92.216 1162.57 92.776L1159.9 96.696H1166.43V97.848H1158.36V96.888L1163.24 89.608H1164.86V101H1163.48ZM1172.04 101.224C1169.88 101.224 1168.3 99.912 1168.3 98.104C1168.3 96.6 1169.38 95.576 1170.46 95.016V94.952C1169.61 94.36 1168.86 93.512 1168.86 92.312C1168.86 90.552 1170.25 89.4 1172.09 89.4C1174.09 89.4 1175.3 90.648 1175.3 92.424C1175.3 93.624 1174.42 94.632 1173.74 95.16V95.24C1174.74 95.848 1175.72 96.648 1175.72 98.184C1175.72 99.896 1174.23 101.224 1172.04 101.224ZM1172.84 94.792C1173.62 94.088 1174.06 93.336 1174.06 92.488C1174.06 91.368 1173.32 90.472 1172.06 90.472C1170.98 90.472 1170.2 91.208 1170.2 92.312C1170.2 93.672 1171.46 94.248 1172.84 94.792ZM1172.07 100.12C1173.42 100.12 1174.31 99.304 1174.31 98.136C1174.31 96.648 1172.87 96.136 1171.22 95.464C1170.28 96.072 1169.61 96.904 1169.61 97.96C1169.61 99.208 1170.66 100.12 1172.07 100.12ZM1178.69 101V89.272H1185.44V90.52H1180.18V94.2H1184.61V95.464H1180.18V99.752H1185.62V101H1178.69Z" fill="#1A1A1A"/>
<rect x="1120" y="114" width="108" height="160.112" rx="4" fill="#41048E"/>
<path d="M1234.11 76V74.176H1238.02V61.072H1234.88V59.656C1236.46 59.392 1237.59 58.984 1238.53 58.408H1240.21V74.176H1243.76V76H1234.11ZM1248.38 76V74.176H1252.3V61.072H1249.15V59.656C1250.74 59.392 1251.86 58.984 1252.8 58.408H1254.48V74.176H1258.03V76H1248.38ZM1267.22 76.336C1263.86 76.336 1261.72 73.288 1261.72 67.144C1261.72 61.048 1263.86 58.096 1267.22 58.096C1270.53 58.096 1272.66 61.048 1272.66 67.144C1272.66 73.288 1270.53 76.336 1267.22 76.336ZM1267.22 74.56C1269.21 74.56 1270.55 72.328 1270.55 67.144C1270.55 62.032 1269.21 59.848 1267.22 59.848C1265.2 59.848 1263.83 62.032 1263.83 67.144C1263.83 72.328 1265.2 74.56 1267.22 74.56ZM1281.49 76.336C1278.13 76.336 1275.99 73.288 1275.99 67.144C1275.99 61.048 1278.13 58.096 1281.49 58.096C1284.8 58.096 1286.94 61.048 1286.94 67.144C1286.94 73.288 1284.8 76.336 1281.49 76.336ZM1281.49 74.56C1283.48 74.56 1284.83 72.328 1284.83 67.144C1284.83 62.032 1283.48 59.848 1281.49 59.848C1279.47 59.848 1278.11 62.032 1278.11 67.144C1278.11 72.328 1279.47 74.56 1281.49 74.56Z" fill="#1A1A1A"/>
<path d="M1233.62 101L1234.05 97.352H1232.62V96.328H1234.18L1234.51 93.688H1232.99V92.664H1234.62L1235.04 89.384H1235.98L1235.57 92.664H1237.94L1238.37 89.384H1239.31L1238.9 92.664H1240.34V93.688H1238.78L1238.45 96.328H1239.98V97.352H1238.32L1237.89 101H1236.94L1237.36 97.352H1235.01L1234.56 101H1233.62ZM1235.12 96.328H1237.5L1237.82 93.688H1235.44L1235.12 96.328ZM1245.72 101.224C1243.88 101.224 1242.75 100.456 1241.98 99.608L1242.72 98.648C1243.4 99.368 1244.28 100.008 1245.63 100.008C1247.02 100.008 1248.01 99.192 1248.01 97.912C1248.01 96.552 1247.07 95.64 1244.36 95.64V94.52C1246.78 94.52 1247.6 93.576 1247.6 92.376C1247.6 91.272 1246.84 90.568 1245.63 90.568C1244.68 90.568 1243.85 91.064 1243.2 91.736L1242.41 90.808C1243.29 89.992 1244.33 89.4 1245.68 89.4C1247.64 89.4 1249.08 90.44 1249.08 92.28C1249.08 93.656 1248.25 94.536 1247 95V95.064C1248.38 95.384 1249.5 96.408 1249.5 97.96C1249.5 99.992 1247.82 101.224 1245.72 101.224ZM1255.48 101.224C1253.19 101.224 1251.81 99.096 1251.81 95.272C1251.81 91.448 1253.19 89.4 1255.48 89.4C1257.73 89.4 1259.11 91.448 1259.11 95.272C1259.11 99.096 1257.73 101.224 1255.48 101.224ZM1255.48 100.04C1256.81 100.04 1257.7 98.616 1257.7 95.272C1257.7 91.912 1256.81 90.568 1255.48 90.568C1254.13 90.568 1253.22 91.912 1253.22 95.272C1253.22 98.616 1254.13 100.04 1255.48 100.04ZM1264.99 101.224C1262.71 101.224 1261.33 99.096 1261.33 95.272C1261.33 91.448 1262.71 89.4 1264.99 89.4C1267.25 89.4 1268.62 91.448 1268.62 95.272C1268.62 99.096 1267.25 101.224 1264.99 101.224ZM1264.99 100.04C1266.32 100.04 1267.22 98.616 1267.22 95.272C1267.22 91.912 1266.32 90.568 1264.99 90.568C1263.65 90.568 1262.74 91.912 1262.74 95.272C1262.74 98.616 1263.65 100.04 1264.99 100.04ZM1271.47 101V99.784H1274.08V91.384H1271.98V90.44C1273.04 90.248 1273.79 89.976 1274.41 89.608H1275.53V99.784H1277.9V101H1271.47ZM1284.38 101.224C1282.12 101.224 1280.42 99.4 1280.42 95.736C1280.42 91.144 1282.5 89.4 1284.78 89.4C1285.99 89.4 1286.89 89.912 1287.51 90.584L1286.71 91.496C1286.25 90.952 1285.54 90.616 1284.82 90.616C1283.19 90.616 1281.82 91.896 1281.82 95.736C1281.82 98.552 1282.71 100.072 1284.36 100.072C1285.5 100.072 1286.36 99.064 1286.36 97.56C1286.36 96.072 1285.66 95.128 1284.23 95.128C1283.5 95.128 1282.57 95.576 1281.77 96.76L1281.72 95.592C1282.46 94.632 1283.51 94.04 1284.47 94.04C1286.44 94.04 1287.74 95.224 1287.74 97.56C1287.74 99.752 1286.18 101.224 1284.38 101.224ZM1295.12 101.224C1292.19 101.224 1290.02 98.952 1290.02 95.144C1290.02 91.368 1292.24 89.064 1295.22 89.064C1296.64 89.064 1297.75 89.752 1298.43 90.504L1297.62 91.464C1297.01 90.808 1296.23 90.36 1295.23 90.36C1293.01 90.36 1291.54 92.184 1291.54 95.112C1291.54 98.072 1292.95 99.912 1295.19 99.912C1296.29 99.912 1297.15 99.432 1297.91 98.6L1298.71 99.528C1297.78 100.616 1296.64 101.224 1295.12 101.224Z" fill="#1A1A1A"/>
<rect x="1232" y="114" width="108" height="160.112" rx="4" fill="#30016C"/>
<path d="M1346.11 76V74.176H1350.02V61.072H1346.88V59.656C1348.46 59.392 1349.59 58.984 1350.53 58.408H1352.21V74.176H1355.76V76H1346.11ZM1359.33 76V74.728C1364.85 69.904 1367.37 66.376 1367.37 63.376C1367.37 61.36 1366.34 59.872 1364.15 59.872C1362.71 59.872 1361.46 60.76 1360.48 61.912L1359.21 60.688C1360.65 59.128 1362.18 58.096 1364.42 58.096C1367.56 58.096 1369.53 60.136 1369.53 63.28C1369.53 66.808 1366.77 70.384 1362.62 74.296C1363.55 74.2 1364.61 74.128 1365.5 74.128H1370.37V76H1359.33ZM1379.22 76.336C1375.86 76.336 1373.72 73.288 1373.72 67.144C1373.72 61.048 1375.86 58.096 1379.22 58.096C1382.53 58.096 1384.66 61.048 1384.66 67.144C1384.66 73.288 1382.53 76.336 1379.22 76.336ZM1379.22 74.56C1381.21 74.56 1382.55 72.328 1382.55 67.144C1382.55 62.032 1381.21 59.848 1379.22 59.848C1377.2 59.848 1375.83 62.032 1375.83 67.144C1375.83 72.328 1377.2 74.56 1379.22 74.56ZM1393.49 76.336C1390.13 76.336 1387.99 73.288 1387.99 67.144C1387.99 61.048 1390.13 58.096 1393.49 58.096C1396.8 58.096 1398.94 61.048 1398.94 67.144C1398.94 73.288 1396.8 76.336 1393.49 76.336ZM1393.49 74.56C1395.48 74.56 1396.83 72.328 1396.83 67.144C1396.83 62.032 1395.48 59.848 1393.49 59.848C1391.47 59.848 1390.11 62.032 1390.11 67.144C1390.11 72.328 1391.47 74.56 1393.49 74.56Z" fill="#1A1A1A"/>
<path d="M1345.62 101L1346.05 97.352H1344.62V96.328H1346.18L1346.51 93.688H1344.99V92.664H1346.62L1347.04 89.384H1347.98L1347.57 92.664H1349.94L1350.37 89.384H1351.31L1350.9 92.664H1352.34V93.688H1350.78L1350.45 96.328H1351.98V97.352H1350.32L1349.89 101H1348.94L1349.36 97.352H1347.01L1346.56 101H1345.62ZM1347.12 96.328H1349.5L1349.82 93.688H1347.44L1347.12 96.328ZM1354.22 101V100.152C1357.66 96.728 1359.58 94.664 1359.58 92.792C1359.58 91.496 1358.89 90.568 1357.44 90.568C1356.48 90.568 1355.64 91.176 1354.99 91.944L1354.14 91.112C1355.1 90.072 1356.12 89.4 1357.61 89.4C1359.71 89.4 1361.02 90.712 1361.02 92.744C1361.02 94.888 1359.05 97.016 1356.35 99.864C1356.96 99.8 1357.68 99.752 1358.27 99.752H1361.58V101H1354.22ZM1364.44 101V99.784H1367.05V91.384H1364.95V90.44C1366.01 90.248 1366.76 89.976 1367.38 89.608H1368.5V99.784H1370.87V101H1364.44ZM1376.99 101.224C1374.71 101.224 1373.33 99.096 1373.33 95.272C1373.33 91.448 1374.71 89.4 1376.99 89.4C1379.25 89.4 1380.62 91.448 1380.62 95.272C1380.62 99.096 1379.25 101.224 1376.99 101.224ZM1376.99 100.04C1378.32 100.04 1379.22 98.616 1379.22 95.272C1379.22 91.912 1378.32 90.568 1376.99 90.568C1375.65 90.568 1374.74 91.912 1374.74 95.272C1374.74 98.616 1375.65 100.04 1376.99 100.04ZM1386.51 101.224C1384.22 101.224 1382.84 99.096 1382.84 95.272C1382.84 91.448 1384.22 89.4 1386.51 89.4C1388.76 89.4 1390.14 91.448 1390.14 95.272C1390.14 99.096 1388.76 101.224 1386.51 101.224ZM1386.51 100.04C1387.84 100.04 1388.73 98.616 1388.73 95.272C1388.73 91.912 1387.84 90.568 1386.51 90.568C1385.16 90.568 1384.25 91.912 1384.25 95.272C1384.25 98.616 1385.16 100.04 1386.51 100.04ZM1397 101V93.352C1397 92.76 1397.05 91.768 1397.1 91.176H1397.02C1396.73 91.704 1396.41 92.216 1396.09 92.776L1393.42 96.696H1399.94V97.848H1391.88V96.888L1396.76 89.608H1398.38V101H1397ZM1402.69 101V89.272H1406.16C1408.55 89.272 1410.19 90.088 1410.19 92.152C1410.19 93.304 1409.59 94.328 1408.48 94.696V94.76C1409.89 95.032 1410.87 95.976 1410.87 97.576C1410.87 99.864 1409.04 101 1406.43 101H1402.69ZM1404.18 94.264H1405.91C1407.92 94.264 1408.74 93.528 1408.74 92.328C1408.74 90.952 1407.81 90.44 1405.99 90.44H1404.18V94.264ZM1404.18 99.832H1406.23C1408.23 99.832 1409.43 99.112 1409.43 97.528C1409.43 96.072 1408.27 95.4 1406.23 95.4H1404.18V99.832Z" fill="#1A1A1A"/>
<rect x="1344" y="114" width="108" height="160.112" rx="4" fill="#21004B"/>
<rect x="582" y="284.611" width="64" height="23" rx="11.5" fill="white"/>
<rect x="582" y="284.611" width="64" height="23" rx="11.5" stroke="#949494"/>
<path d="M597.708 303.335C595.868 303.335 594.732 302.567 593.964 301.719L594.7 300.759C595.388 301.479 596.268 302.119 597.612 302.119C599.004 302.119 599.996 301.271 599.996 299.927C599.996 298.519 599.052 297.591 596.348 297.591V296.455C598.764 296.455 599.58 295.495 599.58 294.215C599.58 293.095 598.828 292.359 597.612 292.359C596.668 292.359 595.836 292.839 595.18 293.511L594.396 292.567C595.276 291.767 596.316 291.175 597.66 291.175C599.628 291.175 601.068 292.247 601.068 294.119C601.068 295.543 600.236 296.487 598.988 296.935V296.999C600.364 297.335 601.484 298.375 601.484 299.991C601.484 302.071 599.804 303.335 597.708 303.335ZM605.223 296.871C604.647 296.871 604.183 296.423 604.183 295.767C604.183 295.095 604.647 294.647 605.223 294.647C605.815 294.647 606.295 295.095 606.295 295.767C606.295 296.423 605.815 296.871 605.223 296.871ZM605.223 303.335C604.647 303.335 604.183 302.871 604.183 302.215C604.183 301.543 604.647 301.095 605.223 301.095C605.815 301.095 606.295 301.543 606.295 302.215C606.295 302.871 605.815 303.335 605.223 303.335ZM609.516 303.111V301.895H612.124V293.159H610.028V292.215C611.084 292.039 611.836 291.767 612.46 291.383H613.58V301.895H615.948V303.111H609.516ZM630.599 296.487C629.767 295.879 628.727 294.855 627.991 293.879L628.951 293.303C630.039 294.711 631.623 296.135 633.063 297.031C631.623 297.943 630.039 299.367 628.951 300.775L627.991 300.199C628.727 299.223 629.767 298.199 630.599 297.591H618.263V296.487H630.599Z" fill="black"/>
<rect x="687" y="284.611" width="78" height="23" rx="11.5" fill="white"/>
<rect x="687" y="284.611" width="78" height="23" rx="11.5" stroke="#949494"/>
<path d="M703.924 303.111V295.127C703.924 294.535 703.972 293.591 704.02 292.983H703.94C703.652 293.559 703.332 294.151 703.012 294.727L700.34 298.727H706.868V299.879H698.804V298.919L703.684 291.383H705.3V303.111H703.924ZM710.223 303.335C709.647 303.335 709.183 302.871 709.183 302.215C709.183 301.543 709.647 301.095 710.223 301.095C710.815 301.095 711.295 301.543 711.295 302.215C711.295 302.871 710.815 303.335 710.223 303.335ZM717.284 303.335C715.46 303.335 714.34 302.567 713.54 301.767L714.276 300.807C714.932 301.495 715.796 302.119 717.14 302.119C718.532 302.119 719.636 301.047 719.636 299.351C719.636 297.671 718.676 296.663 717.22 296.663C716.436 296.663 715.94 296.919 715.268 297.367L714.484 296.871L714.852 291.383H720.564V292.631H716.132L715.828 296.023C716.356 295.735 716.884 295.559 717.588 295.559C719.54 295.559 721.124 296.711 721.124 299.303C721.124 301.863 719.252 303.335 717.284 303.335ZM724.831 296.871C724.255 296.871 723.791 296.423 723.791 295.767C723.791 295.095 724.255 294.647 724.831 294.647C725.423 294.647 725.903 295.095 725.903 295.767C725.903 296.423 725.423 296.871 724.831 296.871ZM724.831 303.335C724.255 303.335 723.791 302.871 723.791 302.215C723.791 301.543 724.255 301.095 724.831 301.095C725.423 301.095 725.903 301.543 725.903 302.215C725.903 302.871 725.423 303.335 724.831 303.335ZM729.124 303.111V301.895H731.732V293.159H729.636V292.215C730.692 292.039 731.444 291.767 732.068 291.383H733.188V301.895H735.556V303.111H729.124ZM750.207 296.487C749.375 295.879 748.335 294.855 747.599 293.879L748.559 293.303C749.647 294.711 751.231 296.135 752.671 297.031C751.231 297.943 749.647 299.367 748.559 300.775L747.599 300.199C748.335 299.223 749.375 298.199 750.207 297.591H737.871V296.487H750.207Z" fill="black"/>
<path d="M1.82 16V1.18H6.68C9.96 1.18 12.48 2.34 12.48 5.84C12.48 9.22 9.94 10.74 6.76 10.74H4.78V16H1.82ZM4.78 8.4H6.56C8.6 8.4 9.58 7.54 9.58 5.84C9.58 4.12 8.5 3.54 6.46 3.54H4.78V8.4ZM18.2598 16.28C15.8398 16.28 14.7998 14.6 14.7998 11.8V4.8H17.7398V11.42C17.7398 13.14 18.2198 13.76 19.2998 13.76C20.2198 13.76 20.8198 13.36 21.5798 12.36V4.8H24.5198V16H22.1198L21.8998 14.4H21.8198C20.8598 15.54 19.7798 16.28 18.2598 16.28ZM27.6542 16V4.8H30.0542L30.2742 6.78H30.3342C31.1542 5.32 32.3542 4.52 33.5142 4.52C34.1342 4.52 34.4942 4.62 34.8342 4.76L34.3342 7.3C33.9342 7.18 33.6142 7.12 33.1542 7.12C32.2742 7.12 31.2142 7.7 30.5942 9.32V16H27.6542ZM36.3652 20.3V4.8H38.7652L38.9852 5.96H39.0452C39.9852 5.16 41.1452 4.52 42.3452 4.52C45.1052 4.52 46.7452 6.78 46.7452 10.22C46.7452 14.06 44.4452 16.28 41.9852 16.28C41.0052 16.28 40.0652 15.84 39.2052 15.06L39.3052 16.9V20.3H36.3652ZM41.3252 13.86C42.6852 13.86 43.7252 12.7 43.7252 10.26C43.7252 8.12 43.0452 6.94 41.5052 6.94C40.7452 6.94 40.0652 7.32 39.3052 8.1V13.02C40.0052 13.64 40.7252 13.86 41.3252 13.86ZM51.9963 16.28C49.9563 16.28 49.2363 14.94 49.2363 12.86V0.0399992H52.1763V12.98C52.1763 13.66 52.4763 13.88 52.7563 13.88C52.8763 13.88 52.9563 13.88 53.1563 13.84L53.5163 16.02C53.1763 16.16 52.6963 16.28 51.9963 16.28ZM60.4248 16.28C57.2848 16.28 54.8448 14.1 54.8448 10.4C54.8448 6.78 57.4048 4.52 60.0648 4.52C63.1448 4.52 64.7448 6.78 64.7448 9.86C64.7448 10.42 64.6848 10.96 64.6048 11.22H57.7048C57.9448 13.06 59.1448 14.02 60.8048 14.02C61.7248 14.02 62.5248 13.74 63.3248 13.24L64.3248 15.04C63.2248 15.8 61.8048 16.28 60.4248 16.28ZM57.6648 9.26H62.2248C62.2248 7.76 61.5448 6.8 60.1048 6.8C58.9248 6.8 57.8848 7.64 57.6648 9.26Z" fill="#1A1A1A"/>
<rect x="693.5" y="316.479" width="65" height="24" rx="12" fill="black"/>
<path d="M708.508 329.959C709.34 330.567 710.38 331.591 711.116 332.567L710.156 333.143C709.068 331.735 707.484 330.311 706.06 329.399C707.484 328.503 709.068 327.079 710.156 325.671L711.116 326.247C710.38 327.223 709.34 328.247 708.508 328.855H720.86V329.959H708.508ZM726.348 335.703C724.508 335.703 723.372 334.935 722.604 334.087L723.34 333.127C724.028 333.847 724.908 334.487 726.252 334.487C727.644 334.487 728.636 333.639 728.636 332.295C728.636 330.887 727.692 329.959 724.988 329.959V328.823C727.404 328.823 728.22 327.863 728.22 326.583C728.22 325.463 727.468 324.727 726.252 324.727C725.308 324.727 724.476 325.207 723.82 325.879L723.036 324.935C723.916 324.135 724.956 323.543 726.3 323.543C728.268 323.543 729.708 324.615 729.708 326.487C729.708 327.911 728.876 328.855 727.628 329.303V329.367C729.004 329.703 730.124 330.743 730.124 332.359C730.124 334.439 728.444 335.703 726.348 335.703ZM733.863 329.239C733.287 329.239 732.823 328.791 732.823 328.135C732.823 327.463 733.287 327.015 733.863 327.015C734.455 327.015 734.935 327.463 734.935 328.135C734.935 328.791 734.455 329.239 733.863 329.239ZM733.863 335.703C733.287 335.703 732.823 335.239 732.823 334.583C732.823 333.911 733.287 333.463 733.863 333.463C734.455 333.463 734.935 333.911 734.935 334.583C734.935 335.239 734.455 335.703 733.863 335.703ZM738.156 335.479V334.263H740.764V325.527H738.668V324.583C739.724 324.407 740.476 324.135 741.1 323.751H742.22V334.263H744.588V335.479H738.156Z" fill="white"/>
<rect x="574.5" y="316.479" width="79" height="24" rx="12" fill="black"/>
<path d="M589.508 329.959C590.34 330.567 591.38 331.591 592.116 332.567L591.156 333.143C590.068 331.735 588.484 330.311 587.06 329.399C588.484 328.503 590.068 327.079 591.156 325.671L592.116 326.247C591.38 327.223 590.34 328.247 589.508 328.855H601.86V329.959H589.508ZM608.564 335.479V327.495C608.564 326.903 608.612 325.959 608.66 325.351H608.58C608.292 325.927 607.972 326.519 607.652 327.095L604.98 331.095H611.508V332.247H603.444V331.287L608.324 323.751H609.94V335.479H608.564ZM614.863 335.703C614.287 335.703 613.823 335.239 613.823 334.583C613.823 333.911 614.287 333.463 614.863 333.463C615.455 333.463 615.935 333.911 615.935 334.583C615.935 335.239 615.455 335.703 614.863 335.703ZM621.924 335.703C620.1 335.703 618.98 334.935 618.18 334.135L618.916 333.175C619.572 333.863 620.436 334.487 621.78 334.487C623.172 334.487 624.276 333.415 624.276 331.719C624.276 330.039 623.316 329.031 621.86 329.031C621.076 329.031 620.58 329.287 619.908 329.735L619.124 329.239L619.492 323.751H625.204V324.999H620.772L620.468 328.391C620.996 328.103 621.524 327.927 622.228 327.927C624.18 327.927 625.764 329.079 625.764 331.671C625.764 334.231 623.892 335.703 621.924 335.703ZM629.471 329.239C628.895 329.239 628.431 328.791 628.431 328.135C628.431 327.463 628.895 327.015 629.471 327.015C630.063 327.015 630.543 327.463 630.543 328.135C630.543 328.791 630.063 329.239 629.471 329.239ZM629.471 335.703C628.895 335.703 628.431 335.239 628.431 334.583C628.431 333.911 628.895 333.463 629.471 333.463C630.063 333.463 630.543 333.911 630.543 334.583C630.543 335.239 630.063 335.703 629.471 335.703ZM633.764 335.479V334.263H636.372V325.527H634.276V324.583C635.332 324.407 636.084 324.135 636.708 323.751H637.828V334.263H640.196V335.479H633.764Z" fill="white"/>
</svg>
