<svg width="1452" height="341" viewBox="0 0 1452 341" fill="none" xmlns="http://www.w3.org/2000/svg">
<path d="M6.264 76.336C3.528 76.336 1.848 75.184 0.648 73.984L1.752 72.544C2.736 73.576 4.032 74.512 6.048 74.512C8.136 74.512 9.792 72.904 9.792 70.36C9.792 67.84 8.352 66.328 6.168 66.328C4.992 66.328 4.248 66.712 3.24 67.384L2.064 66.64L2.616 58.408H11.184V60.28H4.536L4.08 65.368C4.872 64.936 5.664 64.672 6.72 64.672C9.648 64.672 12.024 66.4 12.024 70.288C12.024 74.128 9.216 76.336 6.264 76.336ZM20.9445 76.336C17.5845 76.336 15.4485 73.288 15.4485 67.144C15.4485 61.048 17.5845 58.096 20.9445 58.096C24.2565 58.096 26.3925 61.048 26.3925 67.144C26.3925 73.288 24.2565 76.336 20.9445 76.336ZM20.9445 74.56C22.9365 74.56 24.2805 72.328 24.2805 67.144C24.2805 62.032 22.9365 59.848 20.9445 59.848C18.9285 59.848 17.5605 62.032 17.5605 67.144C17.5605 72.328 18.9285 74.56 20.9445 74.56Z" fill="#1A1A1A"/>
<path d="M1.616 101L2.048 97.352H0.624V96.328H2.176L2.512 93.688H0.992V92.664H2.624L3.04 89.384H3.984L3.568 92.664H5.936L6.368 89.384H7.312L6.896 92.664H8.336V93.688H6.784L6.448 96.328H7.984V97.352H6.32L5.888 101H4.944L5.36 97.352H3.008L2.56 101H1.616ZM3.12 96.328H5.504L5.824 93.688H3.44L3.12 96.328ZM11.115 101V89.272H17.867V90.52H12.603V94.504H17.067V95.736H12.603V101H11.115ZM20.5831 101V89.272H23.5111C27.1271 89.272 29.0471 91.368 29.0471 95.096C29.0471 98.824 27.1271 101 23.5911 101H20.5831ZM22.0711 99.784H23.3991C26.1511 99.784 27.5271 98.072 27.5271 95.096C27.5271 92.12 26.1511 90.488 23.3991 90.488H22.0711V99.784ZM32.2388 101V89.272H38.9908V90.52H33.7268V94.2H38.1588V95.464H33.7268V99.752H39.1668V101H32.2388ZM42.3006 101V89.272H49.0526V90.52H43.7886V94.2H48.2206V95.464H43.7886V99.752H49.2286V101H42.3006ZM52.3625 101V89.272H59.1145V90.52H53.8505V94.2H58.2825V95.464H53.8505V99.752H59.2905V101H52.3625ZM62.4244 101V89.272H69.1764V90.52H63.9124V94.2H68.3444V95.464H63.9124V99.752H69.3524V101H62.4244Z" fill="#1A1A1A"/>
<rect y="114" width="108" height="160.112" rx="4" fill="#FDEEEE"/>
<path d="M114.112 76V74.176H118.024V61.072H114.88V59.656C116.464 59.392 117.592 58.984 118.528 58.408H120.208V74.176H123.76V76H114.112ZM132.945 76.336C129.585 76.336 127.449 73.288 127.449 67.144C127.449 61.048 129.585 58.096 132.945 58.096C136.257 58.096 138.392 61.048 138.392 67.144C138.392 73.288 136.257 76.336 132.945 76.336ZM132.945 74.56C134.937 74.56 136.281 72.328 136.281 67.144C136.281 62.032 134.937 59.848 132.945 59.848C130.929 59.848 129.561 62.032 129.561 67.144C129.561 72.328 130.929 74.56 132.945 74.56ZM147.217 76.336C143.857 76.336 141.721 73.288 141.721 67.144C141.721 61.048 143.857 58.096 147.217 58.096C150.529 58.096 152.665 61.048 152.665 67.144C152.665 73.288 150.529 76.336 147.217 76.336ZM147.217 74.56C149.209 74.56 150.553 72.328 150.553 67.144C150.553 62.032 149.209 59.848 147.217 59.848C145.201 59.848 143.833 62.032 143.833 67.144C143.833 72.328 145.201 74.56 147.217 74.56Z" fill="#1A1A1A"/>
<path d="M113.616 101L114.048 97.352H112.624V96.328H114.176L114.512 93.688H112.992V92.664H114.624L115.04 89.384H115.984L115.568 92.664H117.936L118.368 89.384H119.312L118.896 92.664H120.336V93.688H118.784L118.448 96.328H119.984V97.352H118.32L117.888 101H116.944L117.36 97.352H115.008L114.56 101H113.616ZM115.12 96.328H117.504L117.824 93.688H115.44L115.12 96.328ZM123.115 101V89.272H129.867V90.52H124.603V94.504H129.067V95.736H124.603V101H123.115ZM132.583 101V89.272H139.335V90.52H134.071V94.504H138.535V95.736H134.071V101H132.583ZM142.051 101V89.272H144.979C148.595 89.272 150.515 91.368 150.515 95.096C150.515 98.824 148.595 101 145.059 101H142.051ZM143.539 99.784H144.867C147.619 99.784 148.995 98.072 148.995 95.096C148.995 92.12 147.619 90.488 144.867 90.488H143.539V99.784ZM151.936 101L155.904 89.272H157.568L161.536 101H159.984L157.92 94.44C157.504 93.128 157.136 91.848 156.752 90.488H156.688C156.304 91.848 155.936 93.128 155.504 94.44L153.44 101H151.936ZM154.016 97.416V96.248H159.424V97.416H154.016ZM163.863 101V89.272H166.791C170.407 89.272 172.327 91.368 172.327 95.096C172.327 98.824 170.407 101 166.871 101H163.863ZM165.351 99.784H166.679C169.431 99.784 170.807 98.072 170.807 95.096C170.807 92.12 169.431 90.488 166.679 90.488H165.351V99.784ZM173.747 101L177.715 89.272H179.379L183.347 101H181.795L179.731 94.44C179.315 93.128 178.947 91.848 178.563 90.488H178.499C178.115 91.848 177.747 93.128 177.315 94.44L175.251 101H173.747ZM175.827 97.416V96.248H181.235V97.416H175.827Z" fill="#1A1A1A"/>
<rect x="112" y="114" width="108" height="160.112" rx="4" fill="#FFDADA"/>
<path d="M225.056 76V74.728C230.576 69.904 233.096 66.376 233.096 63.376C233.096 61.36 232.064 59.872 229.88 59.872C228.44 59.872 227.192 60.76 226.208 61.912L224.936 60.688C226.376 59.128 227.912 58.096 230.144 58.096C233.288 58.096 235.256 60.136 235.256 63.28C235.256 66.808 232.496 70.384 228.344 74.296C229.28 74.2 230.336 74.128 231.224 74.128H236.096V76H225.056ZM244.945 76.336C241.585 76.336 239.449 73.288 239.449 67.144C239.449 61.048 241.585 58.096 244.945 58.096C248.257 58.096 250.392 61.048 250.392 67.144C250.392 73.288 248.257 76.336 244.945 76.336ZM244.945 74.56C246.937 74.56 248.281 72.328 248.281 67.144C248.281 62.032 246.937 59.848 244.945 59.848C242.929 59.848 241.561 62.032 241.561 67.144C241.561 72.328 242.929 74.56 244.945 74.56ZM259.217 76.336C255.857 76.336 253.721 73.288 253.721 67.144C253.721 61.048 255.857 58.096 259.217 58.096C262.529 58.096 264.665 61.048 264.665 67.144C264.665 73.288 262.529 76.336 259.217 76.336ZM259.217 74.56C261.209 74.56 262.553 72.328 262.553 67.144C262.553 62.032 261.209 59.848 259.217 59.848C257.201 59.848 255.833 62.032 255.833 67.144C255.833 72.328 257.201 74.56 259.217 74.56Z" fill="#1A1A1A"/>
<path d="M225.616 101L226.048 97.352H224.624V96.328H226.176L226.512 93.688H224.992V92.664H226.624L227.04 89.384H227.984L227.568 92.664H229.936L230.368 89.384H231.312L230.896 92.664H232.336V93.688H230.784L230.448 96.328H231.984V97.352H230.32L229.888 101H228.944L229.36 97.352H227.008L226.56 101H225.616ZM227.12 96.328H229.504L229.824 93.688H227.44L227.12 96.328ZM235.115 101V89.272H241.867V90.52H236.603V94.504H241.067V95.736H236.603V101H235.115ZM244.583 101V89.272H251.335V90.52H246.071V94.504H250.535V95.736H246.071V101H244.583ZM254.051 101V89.272H257.523C259.907 89.272 261.555 90.088 261.555 92.152C261.555 93.304 260.947 94.328 259.843 94.696V94.76C261.251 95.032 262.227 95.976 262.227 97.576C262.227 99.864 260.403 101 257.795 101H254.051ZM255.539 94.264H257.267C259.283 94.264 260.099 93.528 260.099 92.328C260.099 90.952 259.171 90.44 257.347 90.44H255.539V94.264ZM255.539 99.832H257.587C259.587 99.832 260.787 99.112 260.787 97.528C260.787 96.072 259.635 95.4 257.587 95.4H255.539V99.832ZM265.207 101V89.272H268.679C271.063 89.272 272.711 90.088 272.711 92.152C272.711 93.304 272.103 94.328 270.999 94.696V94.76C272.407 95.032 273.383 95.976 273.383 97.576C273.383 99.864 271.559 101 268.951 101H265.207ZM266.695 94.264H268.423C270.439 94.264 271.255 93.528 271.255 92.328C271.255 90.952 270.327 90.44 268.503 90.44H266.695V94.264ZM266.695 99.832H268.743C270.743 99.832 271.943 99.112 271.943 97.528C271.943 96.072 270.791 95.4 268.743 95.4H266.695V99.832ZM276.363 101V89.272H279.835C282.219 89.272 283.867 90.088 283.867 92.152C283.867 93.304 283.259 94.328 282.155 94.696V94.76C283.563 95.032 284.539 95.976 284.539 97.576C284.539 99.864 282.715 101 280.107 101H276.363ZM277.851 94.264H279.579C281.595 94.264 282.411 93.528 282.411 92.328C282.411 90.952 281.483 90.44 279.659 90.44H277.851V94.264ZM277.851 99.832H279.899C281.899 99.832 283.099 99.112 283.099 97.528C283.099 96.072 281.947 95.4 279.899 95.4H277.851V99.832ZM287.518 101V89.272H290.99C293.374 89.272 295.022 90.088 295.022 92.152C295.022 93.304 294.414 94.328 293.31 94.696V94.76C294.718 95.032 295.694 95.976 295.694 97.576C295.694 99.864 293.87 101 291.262 101H287.518ZM289.006 94.264H290.734C292.75 94.264 293.566 93.528 293.566 92.328C293.566 90.952 292.638 90.44 290.814 90.44H289.006V94.264ZM289.006 99.832H291.054C293.054 99.832 294.254 99.112 294.254 97.528C294.254 96.072 293.102 95.4 291.054 95.4H289.006V99.832Z" fill="#1A1A1A"/>
<rect x="224" y="114" width="108" height="160.112" rx="4" fill="#FFBBBB"/>
<path d="M342.312 76.336C339.552 76.336 337.848 75.184 336.696 73.912L337.8 72.472C338.832 73.552 340.152 74.512 342.168 74.512C344.256 74.512 345.744 73.24 345.744 71.224C345.744 69.112 344.328 67.72 340.272 67.72V66.016C343.896 66.016 345.12 64.576 345.12 62.656C345.12 60.976 343.992 59.872 342.168 59.872C340.752 59.872 339.504 60.592 338.52 61.6L337.344 60.184C338.664 58.984 340.224 58.096 342.24 58.096C345.192 58.096 347.352 59.704 347.352 62.512C347.352 64.648 346.104 66.064 344.232 66.736V66.832C346.296 67.336 347.976 68.896 347.976 71.32C347.976 74.44 345.456 76.336 342.312 76.336ZM356.945 76.336C353.585 76.336 351.449 73.288 351.449 67.144C351.449 61.048 353.585 58.096 356.945 58.096C360.257 58.096 362.392 61.048 362.392 67.144C362.392 73.288 360.257 76.336 356.945 76.336ZM356.945 74.56C358.937 74.56 360.281 72.328 360.281 67.144C360.281 62.032 358.937 59.848 356.945 59.848C354.929 59.848 353.561 62.032 353.561 67.144C353.561 72.328 354.929 74.56 356.945 74.56ZM371.217 76.336C367.857 76.336 365.721 73.288 365.721 67.144C365.721 61.048 367.857 58.096 371.217 58.096C374.529 58.096 376.665 61.048 376.665 67.144C376.665 73.288 374.529 76.336 371.217 76.336ZM371.217 74.56C373.209 74.56 374.553 72.328 374.553 67.144C374.553 62.032 373.209 59.848 371.217 59.848C369.201 59.848 367.833 62.032 367.833 67.144C367.833 72.328 369.201 74.56 371.217 74.56Z" fill="#1A1A1A"/>
<path d="M337.616 101L338.048 97.352H336.624V96.328H338.176L338.512 93.688H336.992V92.664H338.624L339.04 89.384H339.984L339.568 92.664H341.936L342.368 89.384H343.312L342.896 92.664H344.336V93.688H342.784L342.448 96.328H343.984V97.352H342.32L341.888 101H340.944L341.36 97.352H339.008L338.56 101H337.616ZM339.12 96.328H341.504L341.824 93.688H339.44L339.12 96.328ZM347.115 101V89.272H353.867V90.52H348.603V94.504H353.067V95.736H348.603V101H347.115ZM356.583 101V89.272H363.335V90.52H358.071V94.504H362.535V95.736H358.071V101H356.583ZM368.115 101.224C366.883 101.224 365.987 100.712 365.363 100.024L366.179 99.096C366.643 99.672 367.347 100.008 368.051 100.008C369.699 100.008 371.075 98.712 371.075 94.872C371.075 92.056 370.163 90.536 368.515 90.536C367.395 90.536 366.531 91.528 366.531 93.048C366.531 94.536 367.235 95.48 368.643 95.48C369.395 95.48 370.323 95.032 371.091 93.848L371.171 95.016C370.435 95.976 369.363 96.568 368.403 96.568C366.419 96.568 365.155 95.384 365.155 93.048C365.155 90.872 366.691 89.4 368.515 89.4C370.771 89.4 372.451 91.208 372.451 94.872C372.451 99.464 370.371 101.224 368.115 101.224ZM378.766 101.224C376.51 101.224 374.814 99.4 374.814 95.736C374.814 91.144 376.894 89.4 379.166 89.4C380.382 89.4 381.278 89.912 381.902 90.584L381.102 91.496C380.638 90.952 379.934 90.616 379.214 90.616C377.582 90.616 376.206 91.896 376.206 95.736C376.206 98.552 377.102 100.072 378.75 100.072C379.886 100.072 380.75 99.064 380.75 97.56C380.75 96.072 380.046 95.128 378.622 95.128C377.886 95.128 376.958 95.576 376.158 96.76L376.11 95.592C376.846 94.632 377.902 94.04 378.862 94.04C380.83 94.04 382.126 95.224 382.126 97.56C382.126 99.752 380.574 101.224 378.766 101.224ZM387.145 101.224C385.913 101.224 385.017 100.712 384.393 100.024L385.209 99.096C385.673 99.672 386.377 100.008 387.081 100.008C388.729 100.008 390.105 98.712 390.105 94.872C390.105 92.056 389.193 90.536 387.545 90.536C386.425 90.536 385.561 91.528 385.561 93.048C385.561 94.536 386.265 95.48 387.673 95.48C388.425 95.48 389.353 95.032 390.121 93.848L390.201 95.016C389.465 95.976 388.393 96.568 387.433 96.568C385.449 96.568 384.185 95.384 384.185 93.048C384.185 90.872 385.721 89.4 387.545 89.4C389.801 89.4 391.481 91.208 391.481 94.872C391.481 99.464 389.401 101.224 387.145 101.224ZM397.796 101.224C395.54 101.224 393.844 99.4 393.844 95.736C393.844 91.144 395.924 89.4 398.196 89.4C399.412 89.4 400.308 89.912 400.932 90.584L400.132 91.496C399.668 90.952 398.964 90.616 398.244 90.616C396.612 90.616 395.236 91.896 395.236 95.736C395.236 98.552 396.132 100.072 397.78 100.072C398.916 100.072 399.78 99.064 399.78 97.56C399.78 96.072 399.076 95.128 397.652 95.128C396.916 95.128 395.988 95.576 395.188 96.76L395.14 95.592C395.876 94.632 396.932 94.04 397.892 94.04C399.86 94.04 401.156 95.224 401.156 97.56C401.156 99.752 399.604 101.224 397.796 101.224Z" fill="#1A1A1A"/>
<rect x="336" y="114" width="108" height="160.112" rx="4" fill="#FF9696"/>
<path d="M456.136 76V64.024C456.136 63.136 456.208 61.72 456.28 60.808H456.16C455.728 61.672 455.248 62.56 454.768 63.424L450.76 69.424H460.552V71.152H448.456V69.712L455.776 58.408H458.2V76H456.136ZM468.945 76.336C465.585 76.336 463.449 73.288 463.449 67.144C463.449 61.048 465.585 58.096 468.945 58.096C472.257 58.096 474.392 61.048 474.392 67.144C474.392 73.288 472.257 76.336 468.945 76.336ZM468.945 74.56C470.937 74.56 472.281 72.328 472.281 67.144C472.281 62.032 470.937 59.848 468.945 59.848C466.929 59.848 465.561 62.032 465.561 67.144C465.561 72.328 466.929 74.56 468.945 74.56ZM483.217 76.336C479.857 76.336 477.721 73.288 477.721 67.144C477.721 61.048 479.857 58.096 483.217 58.096C486.529 58.096 488.665 61.048 488.665 67.144C488.665 73.288 486.529 76.336 483.217 76.336ZM483.217 74.56C485.209 74.56 486.553 72.328 486.553 67.144C486.553 62.032 485.209 59.848 483.217 59.848C481.201 59.848 479.833 62.032 479.833 67.144C479.833 72.328 481.201 74.56 483.217 74.56Z" fill="#1A1A1A"/>
<path d="M449.616 101L450.048 97.352H448.624V96.328H450.176L450.512 93.688H448.992V92.664H450.624L451.04 89.384H451.984L451.568 92.664H453.936L454.368 89.384H455.312L454.896 92.664H456.336V93.688H454.784L454.448 96.328H455.984V97.352H454.32L453.888 101H452.944L453.36 97.352H451.008L450.56 101H449.616ZM451.12 96.328H453.504L453.824 93.688H451.44L451.12 96.328ZM459.115 101V89.272H465.867V90.52H460.603V94.504H465.067V95.736H460.603V101H459.115ZM468.583 101V89.272H475.335V90.52H470.071V94.504H474.535V95.736H470.071V101H468.583ZM479.603 101C479.811 96.712 480.675 93.976 482.915 90.856H477.235V89.608H484.563V90.504C481.875 93.944 481.315 96.552 481.123 101H479.603ZM487.374 101V99.784H489.982V91.384H487.886V90.44C488.942 90.248 489.694 89.976 490.318 89.608H491.438V99.784H493.806V101H487.374ZM498.633 101C498.841 96.712 499.705 93.976 501.945 90.856H496.265V89.608H503.593V90.504C500.905 93.944 500.345 96.552 500.153 101H498.633ZM506.404 101V99.784H509.012V91.384H506.916V90.44C507.972 90.248 508.724 89.976 509.348 89.608H510.468V99.784H512.836V101H506.404Z" fill="#1A1A1A"/>
<rect x="448" y="114" width="108" height="160.112" rx="4" fill="#FF7171"/>
<path d="M566.264 76.336C563.528 76.336 561.848 75.184 560.648 73.984L561.752 72.544C562.736 73.576 564.032 74.512 566.048 74.512C568.136 74.512 569.792 72.904 569.792 70.36C569.792 67.84 568.352 66.328 566.168 66.328C564.992 66.328 564.248 66.712 563.24 67.384L562.064 66.64L562.616 58.408H571.184V60.28H564.536L564.08 65.368C564.872 64.936 565.664 64.672 566.72 64.672C569.648 64.672 572.024 66.4 572.024 70.288C572.024 74.128 569.216 76.336 566.264 76.336ZM580.945 76.336C577.585 76.336 575.449 73.288 575.449 67.144C575.449 61.048 577.585 58.096 580.945 58.096C584.257 58.096 586.392 61.048 586.392 67.144C586.392 73.288 584.257 76.336 580.945 76.336ZM580.945 74.56C582.937 74.56 584.281 72.328 584.281 67.144C584.281 62.032 582.937 59.848 580.945 59.848C578.929 59.848 577.561 62.032 577.561 67.144C577.561 72.328 578.929 74.56 580.945 74.56ZM595.217 76.336C591.857 76.336 589.721 73.288 589.721 67.144C589.721 61.048 591.857 58.096 595.217 58.096C598.529 58.096 600.665 61.048 600.665 67.144C600.665 73.288 598.529 76.336 595.217 76.336ZM595.217 74.56C597.209 74.56 598.553 72.328 598.553 67.144C598.553 62.032 597.209 59.848 595.217 59.848C593.201 59.848 591.833 62.032 591.833 67.144C591.833 72.328 593.201 74.56 595.217 74.56Z" fill="#1A1A1A"/>
<path d="M561.616 101L562.048 97.352H560.624V96.328H562.176L562.512 93.688H560.992V92.664H562.624L563.04 89.384H563.984L563.568 92.664H565.936L566.368 89.384H567.312L566.896 92.664H568.336V93.688H566.784L566.448 96.328H567.984V97.352H566.32L565.888 101H564.944L565.36 97.352H563.008L562.56 101H561.616ZM563.12 96.328H565.504L565.824 93.688H563.44L563.12 96.328ZM571.115 101V89.272H577.867V90.52H572.603V94.504H577.067V95.736H572.603V101H571.115ZM580.583 101V89.272H587.335V90.52H582.071V94.504H586.535V95.736H582.071V101H580.583ZM592.627 101.224C590.803 101.224 589.683 100.456 588.883 99.656L589.619 98.696C590.275 99.384 591.139 100.008 592.483 100.008C593.875 100.008 594.979 99 594.979 97.4C594.979 95.832 594.019 94.888 592.563 94.888C591.779 94.888 591.283 95.144 590.611 95.592L589.827 95.096L590.195 89.608H595.907V90.856H591.475L591.171 94.248C591.699 93.96 592.227 93.784 592.931 93.784C594.883 93.784 596.467 94.888 596.467 97.352C596.467 99.832 594.595 101.224 592.627 101.224ZM603.39 101V93.352C603.39 92.76 603.438 91.768 603.486 91.176H603.406C603.118 91.704 602.798 92.216 602.478 92.776L599.806 96.696H606.334V97.848H598.27V96.888L603.15 89.608H604.766V101H603.39ZM611.657 101.224C609.833 101.224 608.713 100.456 607.913 99.656L608.649 98.696C609.305 99.384 610.169 100.008 611.513 100.008C612.905 100.008 614.009 99 614.009 97.4C614.009 95.832 613.049 94.888 611.593 94.888C610.809 94.888 610.313 95.144 609.641 95.592L608.857 95.096L609.225 89.608H614.937V90.856H610.505L610.201 94.248C610.729 93.96 611.257 93.784 611.961 93.784C613.913 93.784 615.497 94.888 615.497 97.352C615.497 99.832 613.625 101.224 611.657 101.224ZM622.42 101V93.352C622.42 92.76 622.468 91.768 622.516 91.176H622.436C622.148 91.704 621.828 92.216 621.508 92.776L618.836 96.696H625.364V97.848H617.3V96.888L622.18 89.608H623.796V101H622.42Z" fill="#1A1A1A"/>
<rect x="560" y="114" width="108" height="160.112" rx="4" fill="#FF5454"/>
<path d="M679.224 76.336C675.84 76.336 673.32 73.432 673.32 67.624C673.32 60.736 676.416 58.096 679.824 58.096C681.648 58.096 682.992 58.864 683.952 59.896L682.728 61.24C682.056 60.424 680.976 59.92 679.92 59.92C677.448 59.92 675.384 61.864 675.384 67.624C675.384 72.136 676.752 74.608 679.224 74.608C680.904 74.608 682.2 73 682.2 70.624C682.2 68.224 681.144 66.712 679.032 66.712C677.904 66.712 676.488 67.384 675.312 69.136L675.24 67.384C676.32 65.968 677.952 65.104 679.368 65.104C682.344 65.104 684.264 66.928 684.264 70.624C684.264 74.032 681.936 76.336 679.224 76.336ZM692.945 76.336C689.585 76.336 687.449 73.288 687.449 67.144C687.449 61.048 689.585 58.096 692.945 58.096C696.257 58.096 698.392 61.048 698.392 67.144C698.392 73.288 696.257 76.336 692.945 76.336ZM692.945 74.56C694.937 74.56 696.281 72.328 696.281 67.144C696.281 62.032 694.937 59.848 692.945 59.848C690.929 59.848 689.561 62.032 689.561 67.144C689.561 72.328 690.929 74.56 692.945 74.56ZM707.217 76.336C703.857 76.336 701.721 73.288 701.721 67.144C701.721 61.048 703.857 58.096 707.217 58.096C710.529 58.096 712.665 61.048 712.665 67.144C712.665 73.288 710.529 76.336 707.217 76.336ZM707.217 74.56C709.209 74.56 710.553 72.328 710.553 67.144C710.553 62.032 709.209 59.848 707.217 59.848C705.201 59.848 703.833 62.032 703.833 67.144C703.833 72.328 705.201 74.56 707.217 74.56Z" fill="#1A1A1A"/>
<path d="M673.616 101L674.048 97.352H672.624V96.328H674.176L674.512 93.688H672.992V92.664H674.624L675.04 89.384H675.984L675.568 92.664H677.936L678.368 89.384H679.312L678.896 92.664H680.336V93.688H678.784L678.448 96.328H679.984V97.352H678.32L677.888 101H676.944L677.36 97.352H675.008L674.56 101H673.616ZM675.12 96.328H677.504L677.824 93.688H675.44L675.12 96.328ZM683.115 101V89.272H689.867V90.52H684.603V94.504H689.067V95.736H684.603V101H683.115ZM692.583 101V89.272H699.335V90.52H694.071V94.2H698.503V95.464H694.071V99.752H699.511V101H692.583ZM705.253 101.224C703.413 101.224 702.277 100.456 701.509 99.608L702.245 98.648C702.933 99.368 703.813 100.008 705.157 100.008C706.549 100.008 707.541 99.192 707.541 97.912C707.541 96.552 706.597 95.64 703.893 95.64V94.52C706.309 94.52 707.125 93.576 707.125 92.376C707.125 91.272 706.373 90.568 705.157 90.568C704.213 90.568 703.381 91.064 702.725 91.736L701.941 90.808C702.821 89.992 703.861 89.4 705.205 89.4C707.173 89.4 708.613 90.44 708.613 92.28C708.613 93.656 707.781 94.536 706.533 95V95.064C707.909 95.384 709.029 96.408 709.029 97.96C709.029 99.992 707.349 101.224 705.253 101.224ZM714.224 101.224C712.992 101.224 712.096 100.712 711.472 100.024L712.288 99.096C712.752 99.672 713.456 100.008 714.16 100.008C715.808 100.008 717.184 98.712 717.184 94.872C717.184 92.056 716.272 90.536 714.624 90.536C713.504 90.536 712.64 91.528 712.64 93.048C712.64 94.536 713.344 95.48 714.752 95.48C715.504 95.48 716.432 95.032 717.2 93.848L717.28 95.016C716.544 95.976 715.472 96.568 714.512 96.568C712.528 96.568 711.264 95.384 711.264 93.048C711.264 90.872 712.8 89.4 714.624 89.4C716.88 89.4 718.56 91.208 718.56 94.872C718.56 99.464 716.48 101.224 714.224 101.224ZM724.283 101.224C722.443 101.224 721.307 100.456 720.539 99.608L721.275 98.648C721.963 99.368 722.843 100.008 724.187 100.008C725.579 100.008 726.571 99.192 726.571 97.912C726.571 96.552 725.627 95.64 722.923 95.64V94.52C725.339 94.52 726.155 93.576 726.155 92.376C726.155 91.272 725.403 90.568 724.187 90.568C723.243 90.568 722.411 91.064 721.755 91.736L720.971 90.808C721.851 89.992 722.891 89.4 724.235 89.4C726.203 89.4 727.643 90.44 727.643 92.28C727.643 93.656 726.811 94.536 725.563 95V95.064C726.939 95.384 728.059 96.408 728.059 97.96C728.059 99.992 726.379 101.224 724.283 101.224ZM733.254 101.224C732.022 101.224 731.126 100.712 730.502 100.024L731.318 99.096C731.782 99.672 732.486 100.008 733.19 100.008C734.838 100.008 736.214 98.712 736.214 94.872C736.214 92.056 735.302 90.536 733.654 90.536C732.534 90.536 731.67 91.528 731.67 93.048C731.67 94.536 732.374 95.48 733.782 95.48C734.534 95.48 735.462 95.032 736.23 93.848L736.31 95.016C735.574 95.976 734.502 96.568 733.542 96.568C731.558 96.568 730.294 95.384 730.294 93.048C730.294 90.872 731.83 89.4 733.654 89.4C735.91 89.4 737.59 91.208 737.59 94.872C737.59 99.464 735.51 101.224 733.254 101.224Z" fill="#1A1A1A"/>
<rect x="672" y="114" width="108" height="160.112" rx="4" fill="#FE3939"/>
<path d="M788.728 76C789.04 69.352 790.24 65.08 793.696 60.28H785.176V58.408H796.168V59.728C792.04 65.032 791.296 69.136 791.008 76H788.728ZM804.945 76.336C801.585 76.336 799.449 73.288 799.449 67.144C799.449 61.048 801.585 58.096 804.945 58.096C808.257 58.096 810.392 61.048 810.392 67.144C810.392 73.288 808.257 76.336 804.945 76.336ZM804.945 74.56C806.937 74.56 808.281 72.328 808.281 67.144C808.281 62.032 806.937 59.848 804.945 59.848C802.929 59.848 801.561 62.032 801.561 67.144C801.561 72.328 802.929 74.56 804.945 74.56ZM819.217 76.336C815.857 76.336 813.721 73.288 813.721 67.144C813.721 61.048 815.857 58.096 819.217 58.096C822.529 58.096 824.665 61.048 824.665 67.144C824.665 73.288 822.529 76.336 819.217 76.336ZM819.217 74.56C821.209 74.56 822.553 72.328 822.553 67.144C822.553 62.032 821.209 59.848 819.217 59.848C817.201 59.848 815.833 62.032 815.833 67.144C815.833 72.328 817.201 74.56 819.217 74.56Z" fill="#1A1A1A"/>
<path d="M785.616 101L786.048 97.352H784.624V96.328H786.176L786.512 93.688H784.992V92.664H786.624L787.04 89.384H787.984L787.568 92.664H789.936L790.368 89.384H791.312L790.896 92.664H792.336V93.688H790.784L790.448 96.328H791.984V97.352H790.32L789.888 101H788.944L789.36 97.352H787.008L786.56 101H785.616ZM787.12 96.328H789.504L789.824 93.688H787.44L787.12 96.328ZM795.115 101V89.272H801.867V90.52H796.603V94.504H801.067V95.736H796.603V101H795.115ZM802.312 101L806.28 89.272H807.944L811.912 101H810.36L808.296 94.44C807.88 93.128 807.512 91.848 807.128 90.488H807.064C806.68 91.848 806.312 93.128 805.88 94.44L803.816 101H802.312ZM804.392 97.416V96.248H809.8V97.416H804.392ZM817.087 101.224C814.799 101.224 813.423 99.096 813.423 95.272C813.423 91.448 814.799 89.4 817.087 89.4C819.343 89.4 820.719 91.448 820.719 95.272C820.719 99.096 819.343 101.224 817.087 101.224ZM817.087 100.04C818.415 100.04 819.311 98.616 819.311 95.272C819.311 91.912 818.415 90.568 817.087 90.568C815.743 90.568 814.831 91.912 814.831 95.272C814.831 98.616 815.743 100.04 817.087 100.04ZM826.602 101.224C824.314 101.224 822.938 99.096 822.938 95.272C822.938 91.448 824.314 89.4 826.602 89.4C828.858 89.4 830.234 91.448 830.234 95.272C830.234 99.096 828.858 101.224 826.602 101.224ZM826.602 100.04C827.93 100.04 828.826 98.616 828.826 95.272C828.826 91.912 827.93 90.568 826.602 90.568C825.258 90.568 824.346 91.912 824.346 95.272C824.346 98.616 825.258 100.04 826.602 100.04ZM836.117 101.224C833.829 101.224 832.453 99.096 832.453 95.272C832.453 91.448 833.829 89.4 836.117 89.4C838.373 89.4 839.749 91.448 839.749 95.272C839.749 99.096 838.373 101.224 836.117 101.224ZM836.117 100.04C837.445 100.04 838.341 98.616 838.341 95.272C838.341 91.912 837.445 90.568 836.117 90.568C834.773 90.568 833.861 91.912 833.861 95.272C833.861 98.616 834.773 100.04 836.117 100.04ZM845.632 101.224C843.344 101.224 841.968 99.096 841.968 95.272C841.968 91.448 843.344 89.4 845.632 89.4C847.888 89.4 849.264 91.448 849.264 95.272C849.264 99.096 847.888 101.224 845.632 101.224ZM845.632 100.04C846.96 100.04 847.856 98.616 847.856 95.272C847.856 91.912 846.96 90.568 845.632 90.568C844.288 90.568 843.376 91.912 843.376 95.272C843.376 98.616 844.288 100.04 845.632 100.04Z" fill="#1A1A1A"/>
<rect x="784" y="114" width="108" height="160.112" rx="4" fill="#FA0000"/>
<path d="M902.696 76.336C899.456 76.336 897.08 74.368 897.08 71.656C897.08 69.28 898.712 67.648 900.32 66.784V66.688C899.024 65.8 897.92 64.456 897.92 62.608C897.92 59.944 900.008 58.168 902.768 58.168C905.768 58.168 907.592 60.088 907.592 62.776C907.592 64.648 906.296 66.208 905.24 67.024V67.144C906.776 68.032 908.216 69.376 908.216 71.776C908.216 74.344 905.984 76.336 902.696 76.336ZM903.896 66.472C905.096 65.416 905.72 64.216 905.72 62.896C905.72 61.168 904.616 59.776 902.72 59.776C901.112 59.776 899.936 60.928 899.936 62.608C899.936 64.72 901.832 65.656 903.896 66.472ZM902.744 74.68C904.76 74.68 906.104 73.456 906.104 71.704C906.104 69.352 903.944 68.464 901.472 67.456C900.032 68.368 899.048 69.76 899.048 71.44C899.048 73.312 900.632 74.68 902.744 74.68ZM916.945 76.336C913.585 76.336 911.449 73.288 911.449 67.144C911.449 61.048 913.585 58.096 916.945 58.096C920.257 58.096 922.392 61.048 922.392 67.144C922.392 73.288 920.257 76.336 916.945 76.336ZM916.945 74.56C918.937 74.56 920.281 72.328 920.281 67.144C920.281 62.032 918.937 59.848 916.945 59.848C914.929 59.848 913.561 62.032 913.561 67.144C913.561 72.328 914.929 74.56 916.945 74.56ZM931.217 76.336C927.857 76.336 925.721 73.288 925.721 67.144C925.721 61.048 927.857 58.096 931.217 58.096C934.529 58.096 936.665 61.048 936.665 67.144C936.665 73.288 934.529 76.336 931.217 76.336ZM931.217 74.56C933.209 74.56 934.553 72.328 934.553 67.144C934.553 62.032 933.209 59.848 931.217 59.848C929.201 59.848 927.833 62.032 927.833 67.144C927.833 72.328 929.201 74.56 931.217 74.56Z" fill="#1A1A1A"/>
<path d="M897.616 101L898.048 97.352H896.624V96.328H898.176L898.512 93.688H896.992V92.664H898.624L899.04 89.384H899.984L899.568 92.664H901.936L902.368 89.384H903.312L902.896 92.664H904.336V93.688H902.784L902.448 96.328H903.984V97.352H902.32L901.888 101H900.944L901.36 97.352H899.008L898.56 101H897.616ZM899.12 96.328H901.504L901.824 93.688H899.44L899.12 96.328ZM907.115 101V89.272H913.867V90.52H908.603V94.2H913.035V95.464H908.603V99.752H914.043V101H907.115ZM921.609 101.224C918.681 101.224 916.505 98.952 916.505 95.144C916.505 91.368 918.729 89.064 921.705 89.064C923.129 89.064 924.233 89.752 924.921 90.504L924.105 91.464C923.497 90.808 922.713 90.36 921.721 90.36C919.497 90.36 918.025 92.184 918.025 95.112C918.025 98.072 919.433 99.912 921.673 99.912C922.777 99.912 923.641 99.432 924.393 98.6L925.193 99.528C924.265 100.616 923.129 101.224 921.609 101.224ZM930.868 101.224C928.58 101.224 927.204 99.096 927.204 95.272C927.204 91.448 928.58 89.4 930.868 89.4C933.124 89.4 934.5 91.448 934.5 95.272C934.5 99.096 933.124 101.224 930.868 101.224ZM930.868 100.04C932.196 100.04 933.092 98.616 933.092 95.272C933.092 91.912 932.196 90.568 930.868 90.568C929.524 90.568 928.612 91.912 928.612 95.272C928.612 98.616 929.524 100.04 930.868 100.04ZM940.383 101.224C938.095 101.224 936.719 99.096 936.719 95.272C936.719 91.448 938.095 89.4 940.383 89.4C942.639 89.4 944.015 91.448 944.015 95.272C944.015 99.096 942.639 101.224 940.383 101.224ZM940.383 100.04C941.711 100.04 942.607 98.616 942.607 95.272C942.607 91.912 941.711 90.568 940.383 90.568C939.039 90.568 938.127 91.912 938.127 95.272C938.127 98.616 939.039 100.04 940.383 100.04ZM949.898 101.224C947.61 101.224 946.234 99.096 946.234 95.272C946.234 91.448 947.61 89.4 949.898 89.4C952.154 89.4 953.53 91.448 953.53 95.272C953.53 99.096 952.154 101.224 949.898 101.224ZM949.898 100.04C951.226 100.04 952.122 98.616 952.122 95.272C952.122 91.912 951.226 90.568 949.898 90.568C948.554 90.568 947.642 91.912 947.642 95.272C947.642 98.616 948.554 100.04 949.898 100.04ZM959.413 101.224C957.125 101.224 955.749 99.096 955.749 95.272C955.749 91.448 957.125 89.4 959.413 89.4C961.669 89.4 963.045 91.448 963.045 95.272C963.045 99.096 961.669 101.224 959.413 101.224ZM959.413 100.04C960.741 100.04 961.637 98.616 961.637 95.272C961.637 91.912 960.741 90.568 959.413 90.568C958.069 90.568 957.157 91.912 957.157 95.272C957.157 98.616 958.069 100.04 959.413 100.04Z" fill="#1A1A1A"/>
<rect x="896" y="114" width="108" height="160.112" rx="4" fill="#EC0000"/>
<path d="M1013.62 76.336C1011.7 76.336 1010.35 75.568 1009.37 74.536L1010.59 73.144C1011.34 74.008 1012.42 74.512 1013.54 74.512C1015.9 74.512 1017.94 72.472 1017.94 66.448C1017.94 62.128 1016.57 59.8 1014.1 59.8C1012.42 59.8 1011.12 61.384 1011.12 63.808C1011.12 66.16 1012.18 67.72 1014.26 67.72C1015.44 67.72 1016.81 67.024 1017.96 65.272L1018.08 67.024C1016.98 68.416 1015.42 69.328 1013.9 69.328C1010.95 69.328 1009.06 67.456 1009.06 63.808C1009.06 60.4 1011.36 58.096 1014.1 58.096C1017.48 58.096 1020 60.856 1020 66.448C1020 73.6 1016.93 76.336 1013.62 76.336ZM1028.94 76.336C1025.58 76.336 1023.45 73.288 1023.45 67.144C1023.45 61.048 1025.58 58.096 1028.94 58.096C1032.26 58.096 1034.39 61.048 1034.39 67.144C1034.39 73.288 1032.26 76.336 1028.94 76.336ZM1028.94 74.56C1030.94 74.56 1032.28 72.328 1032.28 67.144C1032.28 62.032 1030.94 59.848 1028.94 59.848C1026.93 59.848 1025.56 62.032 1025.56 67.144C1025.56 72.328 1026.93 74.56 1028.94 74.56ZM1043.22 76.336C1039.86 76.336 1037.72 73.288 1037.72 67.144C1037.72 61.048 1039.86 58.096 1043.22 58.096C1046.53 58.096 1048.66 61.048 1048.66 67.144C1048.66 73.288 1046.53 76.336 1043.22 76.336ZM1043.22 74.56C1045.21 74.56 1046.55 72.328 1046.55 67.144C1046.55 62.032 1045.21 59.848 1043.22 59.848C1041.2 59.848 1039.83 62.032 1039.83 67.144C1039.83 72.328 1041.2 74.56 1043.22 74.56Z" fill="#1A1A1A"/>
<path d="M1009.62 101L1010.05 97.352H1008.62V96.328H1010.18L1010.51 93.688H1008.99V92.664H1010.62L1011.04 89.384H1011.98L1011.57 92.664H1013.94L1014.37 89.384H1015.31L1014.9 92.664H1016.34V93.688H1014.78L1014.45 96.328H1015.98V97.352H1014.32L1013.89 101H1012.94L1013.36 97.352H1011.01L1010.56 101H1009.62ZM1011.12 96.328H1013.5L1013.82 93.688H1011.44L1011.12 96.328ZM1023.55 101.224C1020.62 101.224 1018.44 98.952 1018.44 95.144C1018.44 91.368 1020.67 89.064 1023.64 89.064C1025.07 89.064 1026.17 89.752 1026.86 90.504L1026.04 91.464C1025.44 90.808 1024.65 90.36 1023.66 90.36C1021.44 90.36 1019.96 92.184 1019.96 95.112C1019.96 98.072 1021.37 99.912 1023.61 99.912C1024.72 99.912 1025.58 99.432 1026.33 98.6L1027.13 99.528C1026.2 100.616 1025.07 101.224 1023.55 101.224ZM1029.96 101V89.272H1036.71V90.52H1031.45V94.2H1035.88V95.464H1031.45V99.752H1036.89V101H1029.96ZM1042.87 101.224C1040.58 101.224 1039.2 99.096 1039.2 95.272C1039.2 91.448 1040.58 89.4 1042.87 89.4C1045.12 89.4 1046.5 91.448 1046.5 95.272C1046.5 99.096 1045.12 101.224 1042.87 101.224ZM1042.87 100.04C1044.2 100.04 1045.09 98.616 1045.09 95.272C1045.09 91.912 1044.2 90.568 1042.87 90.568C1041.52 90.568 1040.61 91.912 1040.61 95.272C1040.61 98.616 1041.52 100.04 1042.87 100.04ZM1052.38 101.224C1050.1 101.224 1048.72 99.096 1048.72 95.272C1048.72 91.448 1050.1 89.4 1052.38 89.4C1054.64 89.4 1056.02 91.448 1056.02 95.272C1056.02 99.096 1054.64 101.224 1052.38 101.224ZM1052.38 100.04C1053.71 100.04 1054.61 98.616 1054.61 95.272C1054.61 91.912 1053.71 90.568 1052.38 90.568C1051.04 90.568 1050.13 91.912 1050.13 95.272C1050.13 98.616 1051.04 100.04 1052.38 100.04ZM1061.9 101.224C1059.61 101.224 1058.23 99.096 1058.23 95.272C1058.23 91.448 1059.61 89.4 1061.9 89.4C1064.15 89.4 1065.53 91.448 1065.53 95.272C1065.53 99.096 1064.15 101.224 1061.9 101.224ZM1061.9 100.04C1063.23 100.04 1064.12 98.616 1064.12 95.272C1064.12 91.912 1063.23 90.568 1061.9 90.568C1060.55 90.568 1059.64 91.912 1059.64 95.272C1059.64 98.616 1060.55 100.04 1061.9 100.04ZM1071.41 101.224C1069.13 101.224 1067.75 99.096 1067.75 95.272C1067.75 91.448 1069.13 89.4 1071.41 89.4C1073.67 89.4 1075.05 91.448 1075.05 95.272C1075.05 99.096 1073.67 101.224 1071.41 101.224ZM1071.41 100.04C1072.74 100.04 1073.64 98.616 1073.64 95.272C1073.64 91.912 1072.74 90.568 1071.41 90.568C1070.07 90.568 1069.16 91.912 1069.16 95.272C1069.16 98.616 1070.07 100.04 1071.41 100.04Z" fill="#1A1A1A"/>
<rect x="1008" y="114" width="108" height="160.112" rx="4" fill="#CE0000"/>
<path d="M1122.11 76V74.176H1126.02V61.072H1122.88V59.656C1124.46 59.392 1125.59 58.984 1126.53 58.408H1128.21V74.176H1131.76V76H1122.11ZM1140.94 76.336C1137.58 76.336 1135.45 73.288 1135.45 67.144C1135.45 61.048 1137.58 58.096 1140.94 58.096C1144.26 58.096 1146.39 61.048 1146.39 67.144C1146.39 73.288 1144.26 76.336 1140.94 76.336ZM1140.94 74.56C1142.94 74.56 1144.28 72.328 1144.28 67.144C1144.28 62.032 1142.94 59.848 1140.94 59.848C1138.93 59.848 1137.56 62.032 1137.56 67.144C1137.56 72.328 1138.93 74.56 1140.94 74.56ZM1155.22 76.336C1151.86 76.336 1149.72 73.288 1149.72 67.144C1149.72 61.048 1151.86 58.096 1155.22 58.096C1158.53 58.096 1160.66 61.048 1160.66 67.144C1160.66 73.288 1158.53 76.336 1155.22 76.336ZM1155.22 74.56C1157.21 74.56 1158.55 72.328 1158.55 67.144C1158.55 62.032 1157.21 59.848 1155.22 59.848C1153.2 59.848 1151.83 62.032 1151.83 67.144C1151.83 72.328 1153.2 74.56 1155.22 74.56ZM1169.49 76.336C1166.13 76.336 1163.99 73.288 1163.99 67.144C1163.99 61.048 1166.13 58.096 1169.49 58.096C1172.8 58.096 1174.94 61.048 1174.94 67.144C1174.94 73.288 1172.8 76.336 1169.49 76.336ZM1169.49 74.56C1171.48 74.56 1172.83 72.328 1172.83 67.144C1172.83 62.032 1171.48 59.848 1169.49 59.848C1167.47 59.848 1166.11 62.032 1166.11 67.144C1166.11 72.328 1167.47 74.56 1169.49 74.56Z" fill="#1A1A1A"/>
<path d="M1121.62 101L1122.05 97.352H1120.62V96.328H1122.18L1122.51 93.688H1120.99V92.664H1122.62L1123.04 89.384H1123.98L1123.57 92.664H1125.94L1126.37 89.384H1127.31L1126.9 92.664H1128.34V93.688H1126.78L1126.45 96.328H1127.98V97.352H1126.32L1125.89 101H1124.94L1125.36 97.352H1123.01L1122.56 101H1121.62ZM1123.12 96.328H1125.5L1125.82 93.688H1123.44L1123.12 96.328ZM1129.56 101L1133.53 89.272H1135.2L1139.16 101H1137.61L1135.55 94.44C1135.13 93.128 1134.76 91.848 1134.38 90.488H1134.32C1133.93 91.848 1133.56 93.128 1133.13 94.44L1131.07 101H1129.56ZM1131.64 97.416V96.248H1137.05V97.416H1131.64ZM1143.55 101.224C1142.32 101.224 1141.43 100.712 1140.8 100.024L1141.62 99.096C1142.08 99.672 1142.79 100.008 1143.49 100.008C1145.14 100.008 1146.51 98.712 1146.51 94.872C1146.51 92.056 1145.6 90.536 1143.95 90.536C1142.83 90.536 1141.97 91.528 1141.97 93.048C1141.97 94.536 1142.67 95.48 1144.08 95.48C1144.83 95.48 1145.76 95.032 1146.53 93.848L1146.61 95.016C1145.87 95.976 1144.8 96.568 1143.84 96.568C1141.86 96.568 1140.59 95.384 1140.59 93.048C1140.59 90.872 1142.13 89.4 1143.95 89.4C1146.21 89.4 1147.89 91.208 1147.89 94.872C1147.89 99.464 1145.81 101.224 1143.55 101.224ZM1153.85 101.224C1151.56 101.224 1150.19 99.096 1150.19 95.272C1150.19 91.448 1151.56 89.4 1153.85 89.4C1156.11 89.4 1157.48 91.448 1157.48 95.272C1157.48 99.096 1156.11 101.224 1153.85 101.224ZM1153.85 100.04C1155.18 100.04 1156.08 98.616 1156.08 95.272C1156.08 91.912 1155.18 90.568 1153.85 90.568C1152.51 90.568 1151.6 91.912 1151.6 95.272C1151.6 98.616 1152.51 100.04 1153.85 100.04ZM1163.37 101.224C1161.08 101.224 1159.7 99.096 1159.7 95.272C1159.7 91.448 1161.08 89.4 1163.37 89.4C1165.62 89.4 1167 91.448 1167 95.272C1167 99.096 1165.62 101.224 1163.37 101.224ZM1163.37 100.04C1164.7 100.04 1165.59 98.616 1165.59 95.272C1165.59 91.912 1164.7 90.568 1163.37 90.568C1162.02 90.568 1161.11 91.912 1161.11 95.272C1161.11 98.616 1162.02 100.04 1163.37 100.04ZM1172.88 101.224C1170.59 101.224 1169.22 99.096 1169.22 95.272C1169.22 91.448 1170.59 89.4 1172.88 89.4C1175.14 89.4 1176.51 91.448 1176.51 95.272C1176.51 99.096 1175.14 101.224 1172.88 101.224ZM1172.88 100.04C1174.21 100.04 1175.11 98.616 1175.11 95.272C1175.11 91.912 1174.21 90.568 1172.88 90.568C1171.54 90.568 1170.63 91.912 1170.63 95.272C1170.63 98.616 1171.54 100.04 1172.88 100.04ZM1182.4 101.224C1180.11 101.224 1178.73 99.096 1178.73 95.272C1178.73 91.448 1180.11 89.4 1182.4 89.4C1184.65 89.4 1186.03 91.448 1186.03 95.272C1186.03 99.096 1184.65 101.224 1182.4 101.224ZM1182.4 100.04C1183.73 100.04 1184.62 98.616 1184.62 95.272C1184.62 91.912 1183.73 90.568 1182.4 90.568C1181.05 90.568 1180.14 91.912 1180.14 95.272C1180.14 98.616 1181.05 100.04 1182.4 100.04Z" fill="#1A1A1A"/>
<rect x="1120" y="114" width="108" height="160.112" rx="4" fill="#A90000"/>
<path d="M1234.11 76V74.176H1238.02V61.072H1234.88V59.656C1236.46 59.392 1237.59 58.984 1238.53 58.408H1240.21V74.176H1243.76V76H1234.11ZM1248.38 76V74.176H1252.3V61.072H1249.15V59.656C1250.74 59.392 1251.86 58.984 1252.8 58.408H1254.48V74.176H1258.03V76H1248.38ZM1267.22 76.336C1263.86 76.336 1261.72 73.288 1261.72 67.144C1261.72 61.048 1263.86 58.096 1267.22 58.096C1270.53 58.096 1272.66 61.048 1272.66 67.144C1272.66 73.288 1270.53 76.336 1267.22 76.336ZM1267.22 74.56C1269.21 74.56 1270.55 72.328 1270.55 67.144C1270.55 62.032 1269.21 59.848 1267.22 59.848C1265.2 59.848 1263.83 62.032 1263.83 67.144C1263.83 72.328 1265.2 74.56 1267.22 74.56ZM1281.49 76.336C1278.13 76.336 1275.99 73.288 1275.99 67.144C1275.99 61.048 1278.13 58.096 1281.49 58.096C1284.8 58.096 1286.94 61.048 1286.94 67.144C1286.94 73.288 1284.8 76.336 1281.49 76.336ZM1281.49 74.56C1283.48 74.56 1284.83 72.328 1284.83 67.144C1284.83 62.032 1283.48 59.848 1281.49 59.848C1279.47 59.848 1278.11 62.032 1278.11 67.144C1278.11 72.328 1279.47 74.56 1281.49 74.56Z" fill="#1A1A1A"/>
<path d="M1233.62 101L1234.05 97.352H1232.62V96.328H1234.18L1234.51 93.688H1232.99V92.664H1234.62L1235.04 89.384H1235.98L1235.57 92.664H1237.94L1238.37 89.384H1239.31L1238.9 92.664H1240.34V93.688H1238.78L1238.45 96.328H1239.98V97.352H1238.32L1237.89 101H1236.94L1237.36 97.352H1235.01L1234.56 101H1233.62ZM1235.12 96.328H1237.5L1237.82 93.688H1235.44L1235.12 96.328ZM1245.98 101.224C1243.82 101.224 1242.24 99.912 1242.24 98.104C1242.24 96.52 1243.32 95.432 1244.4 94.856V94.792C1243.53 94.2 1242.8 93.304 1242.8 92.072C1242.8 90.296 1244.19 89.112 1246.03 89.112C1248.03 89.112 1249.24 90.392 1249.24 92.184C1249.24 93.432 1248.38 94.472 1247.68 95.016V95.096C1248.7 95.688 1249.66 96.584 1249.66 98.184C1249.66 99.896 1248.17 101.224 1245.98 101.224ZM1246.78 94.648C1247.58 93.944 1248 93.144 1248 92.264C1248 91.112 1247.26 90.184 1246 90.184C1244.92 90.184 1244.14 90.952 1244.14 92.072C1244.14 93.48 1245.4 94.104 1246.78 94.648ZM1246.01 100.12C1247.36 100.12 1248.25 99.304 1248.25 98.136C1248.25 96.568 1246.81 95.976 1245.16 95.304C1244.2 95.912 1243.55 96.84 1243.55 97.96C1243.55 99.208 1244.6 100.12 1246.01 100.12ZM1255.21 101.224C1253.38 101.224 1252.26 100.456 1251.46 99.656L1252.2 98.696C1252.85 99.384 1253.72 100.008 1255.06 100.008C1256.45 100.008 1257.56 98.936 1257.56 97.24C1257.56 95.56 1256.6 94.552 1255.14 94.552C1254.36 94.552 1253.86 94.808 1253.19 95.256L1252.41 94.76L1252.77 89.272H1258.49V90.52H1254.05L1253.75 93.912C1254.28 93.624 1254.81 93.448 1255.51 93.448C1257.46 93.448 1259.05 94.6 1259.05 97.192C1259.05 99.752 1257.17 101.224 1255.21 101.224ZM1264.99 101.224C1262.75 101.224 1261.33 99.192 1261.33 95.096C1261.33 91.032 1262.75 89.064 1264.99 89.064C1267.2 89.064 1268.62 91.032 1268.62 95.096C1268.62 99.192 1267.2 101.224 1264.99 101.224ZM1264.99 100.04C1266.32 100.04 1267.22 98.552 1267.22 95.096C1267.22 91.688 1266.32 90.232 1264.99 90.232C1263.65 90.232 1262.74 91.688 1262.74 95.096C1262.74 98.552 1263.65 100.04 1264.99 100.04ZM1274.51 101.224C1272.27 101.224 1270.84 99.192 1270.84 95.096C1270.84 91.032 1272.27 89.064 1274.51 89.064C1276.72 89.064 1278.14 91.032 1278.14 95.096C1278.14 99.192 1276.72 101.224 1274.51 101.224ZM1274.51 100.04C1275.84 100.04 1276.73 98.552 1276.73 95.096C1276.73 91.688 1275.84 90.232 1274.51 90.232C1273.16 90.232 1272.25 91.688 1272.25 95.096C1272.25 98.552 1273.16 100.04 1274.51 100.04ZM1284.02 101.224C1281.78 101.224 1280.36 99.192 1280.36 95.096C1280.36 91.032 1281.78 89.064 1284.02 89.064C1286.23 89.064 1287.66 91.032 1287.66 95.096C1287.66 99.192 1286.23 101.224 1284.02 101.224ZM1284.02 100.04C1285.35 100.04 1286.25 98.552 1286.25 95.096C1286.25 91.688 1285.35 90.232 1284.02 90.232C1282.68 90.232 1281.77 91.688 1281.77 95.096C1281.77 98.552 1282.68 100.04 1284.02 100.04ZM1293.54 101.224C1291.3 101.224 1289.87 99.192 1289.87 95.096C1289.87 91.032 1291.3 89.064 1293.54 89.064C1295.75 89.064 1297.17 91.032 1297.17 95.096C1297.17 99.192 1295.75 101.224 1293.54 101.224ZM1293.54 100.04C1294.87 100.04 1295.76 98.552 1295.76 95.096C1295.76 91.688 1294.87 90.232 1293.54 90.232C1292.19 90.232 1291.28 91.688 1291.28 95.096C1291.28 98.552 1292.19 100.04 1293.54 100.04Z" fill="#1A1A1A"/>
<rect x="1232" y="114" width="108" height="160.112" rx="4" fill="#850000"/>
<path d="M1346.11 76V74.176H1350.02V61.072H1346.88V59.656C1348.46 59.392 1349.59 58.984 1350.53 58.408H1352.21V74.176H1355.76V76H1346.11ZM1359.33 76V74.728C1364.85 69.904 1367.37 66.376 1367.37 63.376C1367.37 61.36 1366.34 59.872 1364.15 59.872C1362.71 59.872 1361.46 60.76 1360.48 61.912L1359.21 60.688C1360.65 59.128 1362.18 58.096 1364.42 58.096C1367.56 58.096 1369.53 60.136 1369.53 63.28C1369.53 66.808 1366.77 70.384 1362.62 74.296C1363.55 74.2 1364.61 74.128 1365.5 74.128H1370.37V76H1359.33ZM1379.22 76.336C1375.86 76.336 1373.72 73.288 1373.72 67.144C1373.72 61.048 1375.86 58.096 1379.22 58.096C1382.53 58.096 1384.66 61.048 1384.66 67.144C1384.66 73.288 1382.53 76.336 1379.22 76.336ZM1379.22 74.56C1381.21 74.56 1382.55 72.328 1382.55 67.144C1382.55 62.032 1381.21 59.848 1379.22 59.848C1377.2 59.848 1375.83 62.032 1375.83 67.144C1375.83 72.328 1377.2 74.56 1379.22 74.56ZM1393.49 76.336C1390.13 76.336 1387.99 73.288 1387.99 67.144C1387.99 61.048 1390.13 58.096 1393.49 58.096C1396.8 58.096 1398.94 61.048 1398.94 67.144C1398.94 73.288 1396.8 76.336 1393.49 76.336ZM1393.49 74.56C1395.48 74.56 1396.83 72.328 1396.83 67.144C1396.83 62.032 1395.48 59.848 1393.49 59.848C1391.47 59.848 1390.11 62.032 1390.11 67.144C1390.11 72.328 1391.47 74.56 1393.49 74.56Z" fill="#1A1A1A"/>
<path d="M1345.62 101L1346.05 97.352H1344.62V96.328H1346.18L1346.51 93.688H1344.99V92.664H1346.62L1347.04 89.384H1347.98L1347.57 92.664H1349.94L1350.37 89.384H1351.31L1350.9 92.664H1352.34V93.688H1350.78L1350.45 96.328H1351.98V97.352H1350.32L1349.89 101H1348.94L1349.36 97.352H1347.01L1346.56 101H1345.62ZM1347.12 96.328H1349.5L1349.82 93.688H1347.44L1347.12 96.328ZM1358.33 101.224C1356.08 101.224 1354.4 99.288 1354.4 95.416C1354.4 90.824 1356.46 89.064 1358.73 89.064C1359.95 89.064 1360.84 89.576 1361.48 90.264L1360.67 91.16C1360.22 90.616 1359.5 90.28 1358.8 90.28C1357.15 90.28 1355.77 91.576 1355.77 95.416C1355.77 98.424 1356.68 100.072 1358.33 100.072C1359.45 100.072 1360.32 99 1360.32 97.416C1360.32 95.816 1359.61 94.808 1358.2 94.808C1357.45 94.808 1356.51 95.256 1355.72 96.424L1355.68 95.256C1356.4 94.312 1357.48 93.736 1358.43 93.736C1360.41 93.736 1361.69 94.952 1361.69 97.416C1361.69 99.688 1360.14 101.224 1358.33 101.224ZM1363.73 101V100.152C1367.41 96.936 1369.09 94.584 1369.09 92.584C1369.09 91.24 1368.41 90.248 1366.95 90.248C1365.99 90.248 1365.16 90.84 1364.5 91.608L1363.65 90.792C1364.61 89.752 1365.64 89.064 1367.13 89.064C1369.22 89.064 1370.53 90.424 1370.53 92.52C1370.53 94.872 1368.69 97.256 1365.93 99.864C1366.55 99.8 1367.25 99.752 1367.85 99.752H1371.09V101H1363.73ZM1376.99 101.224C1374.75 101.224 1373.33 99.192 1373.33 95.096C1373.33 91.032 1374.75 89.064 1376.99 89.064C1379.2 89.064 1380.62 91.032 1380.62 95.096C1380.62 99.192 1379.2 101.224 1376.99 101.224ZM1376.99 100.04C1378.32 100.04 1379.22 98.552 1379.22 95.096C1379.22 91.688 1378.32 90.232 1376.99 90.232C1375.65 90.232 1374.74 91.688 1374.74 95.096C1374.74 98.552 1375.65 100.04 1376.99 100.04ZM1386.51 101.224C1384.27 101.224 1382.84 99.192 1382.84 95.096C1382.84 91.032 1384.27 89.064 1386.51 89.064C1388.72 89.064 1390.14 91.032 1390.14 95.096C1390.14 99.192 1388.72 101.224 1386.51 101.224ZM1386.51 100.04C1387.84 100.04 1388.73 98.552 1388.73 95.096C1388.73 91.688 1387.84 90.232 1386.51 90.232C1385.16 90.232 1384.25 91.688 1384.25 95.096C1384.25 98.552 1385.16 100.04 1386.51 100.04ZM1396.02 101.224C1393.78 101.224 1392.36 99.192 1392.36 95.096C1392.36 91.032 1393.78 89.064 1396.02 89.064C1398.23 89.064 1399.66 91.032 1399.66 95.096C1399.66 99.192 1398.23 101.224 1396.02 101.224ZM1396.02 100.04C1397.35 100.04 1398.25 98.552 1398.25 95.096C1398.25 91.688 1397.35 90.232 1396.02 90.232C1394.68 90.232 1393.77 91.688 1393.77 95.096C1393.77 98.552 1394.68 100.04 1396.02 100.04ZM1405.54 101.224C1403.3 101.224 1401.87 99.192 1401.87 95.096C1401.87 91.032 1403.3 89.064 1405.54 89.064C1407.75 89.064 1409.17 91.032 1409.17 95.096C1409.17 99.192 1407.75 101.224 1405.54 101.224ZM1405.54 100.04C1406.87 100.04 1407.76 98.552 1407.76 95.096C1407.76 91.688 1406.87 90.232 1405.54 90.232C1404.19 90.232 1403.28 91.688 1403.28 95.096C1403.28 98.552 1404.19 100.04 1405.54 100.04Z" fill="#1A1A1A"/>
<rect x="1344" y="114" width="108" height="160.112" rx="4" fill="#620000"/>
<rect x="582" y="284.611" width="64" height="23" rx="11.5" fill="white"/>
<rect x="582" y="284.611" width="64" height="23" rx="11.5" stroke="#949494"/>
<path d="M597.708 303.335C595.868 303.335 594.732 302.567 593.964 301.719L594.7 300.759C595.388 301.479 596.268 302.119 597.612 302.119C599.004 302.119 599.996 301.271 599.996 299.927C599.996 298.519 599.052 297.591 596.348 297.591V296.455C598.764 296.455 599.58 295.495 599.58 294.215C599.58 293.095 598.828 292.359 597.612 292.359C596.668 292.359 595.836 292.839 595.18 293.511L594.396 292.567C595.276 291.767 596.316 291.175 597.66 291.175C599.628 291.175 601.068 292.247 601.068 294.119C601.068 295.543 600.236 296.487 598.988 296.935V296.999C600.364 297.335 601.484 298.375 601.484 299.991C601.484 302.071 599.804 303.335 597.708 303.335ZM605.223 296.871C604.647 296.871 604.183 296.423 604.183 295.767C604.183 295.095 604.647 294.647 605.223 294.647C605.815 294.647 606.295 295.095 606.295 295.767C606.295 296.423 605.815 296.871 605.223 296.871ZM605.223 303.335C604.647 303.335 604.183 302.871 604.183 302.215C604.183 301.543 604.647 301.095 605.223 301.095C605.815 301.095 606.295 301.543 606.295 302.215C606.295 302.871 605.815 303.335 605.223 303.335ZM609.516 303.111V301.895H612.124V293.159H610.028V292.215C611.084 292.039 611.836 291.767 612.46 291.383H613.58V301.895H615.948V303.111H609.516ZM630.599 296.487C629.767 295.879 628.727 294.855 627.991 293.879L628.951 293.303C630.039 294.711 631.623 296.135 633.063 297.031C631.623 297.943 630.039 299.367 628.951 300.775L627.991 300.199C628.727 299.223 629.767 298.199 630.599 297.591H618.263V296.487H630.599Z" fill="black"/>
<rect x="917.5" y="284.611" width="78" height="23" rx="11.5" fill="white"/>
<rect x="917.5" y="284.611" width="78" height="23" rx="11.5" stroke="#949494"/>
<path d="M934.424 303.111V295.127C934.424 294.535 934.472 293.591 934.52 292.983H934.44C934.152 293.559 933.832 294.151 933.512 294.727L930.84 298.727H937.368V299.879H929.304V298.919L934.184 291.383H935.8V303.111H934.424ZM940.723 303.335C940.147 303.335 939.683 302.871 939.683 302.215C939.683 301.543 940.147 301.095 940.723 301.095C941.315 301.095 941.795 301.543 941.795 302.215C941.795 302.871 941.315 303.335 940.723 303.335ZM947.784 303.335C945.96 303.335 944.84 302.567 944.04 301.767L944.776 300.807C945.432 301.495 946.296 302.119 947.64 302.119C949.032 302.119 950.136 301.047 950.136 299.351C950.136 297.671 949.176 296.663 947.72 296.663C946.936 296.663 946.44 296.919 945.768 297.367L944.984 296.871L945.352 291.383H951.064V292.631H946.632L946.328 296.023C946.856 295.735 947.384 295.559 948.088 295.559C950.04 295.559 951.624 296.711 951.624 299.303C951.624 301.863 949.752 303.335 947.784 303.335ZM955.331 296.871C954.755 296.871 954.291 296.423 954.291 295.767C954.291 295.095 954.755 294.647 955.331 294.647C955.923 294.647 956.403 295.095 956.403 295.767C956.403 296.423 955.923 296.871 955.331 296.871ZM955.331 303.335C954.755 303.335 954.291 302.871 954.291 302.215C954.291 301.543 954.755 301.095 955.331 301.095C955.923 301.095 956.403 301.543 956.403 302.215C956.403 302.871 955.923 303.335 955.331 303.335ZM959.624 303.111V301.895H962.232V293.159H960.136V292.215C961.192 292.039 961.944 291.767 962.568 291.383H963.688V301.895H966.056V303.111H959.624ZM980.707 296.487C979.875 295.879 978.835 294.855 978.099 293.879L979.059 293.303C980.147 294.711 981.731 296.135 983.171 297.031C981.731 297.943 980.147 299.367 979.059 300.775L978.099 300.199C978.835 299.223 979.875 298.199 980.707 297.591H968.371V296.487H980.707Z" fill="black"/>
<rect x="1029.5" y="316.479" width="65" height="24" rx="12" fill="black"/>
<path d="M1044.51 329.959C1045.34 330.567 1046.38 331.591 1047.12 332.567L1046.16 333.143C1045.07 331.735 1043.48 330.311 1042.06 329.399C1043.48 328.503 1045.07 327.079 1046.16 325.671L1047.12 326.247C1046.38 327.223 1045.34 328.247 1044.51 328.855H1056.86V329.959H1044.51ZM1062.35 335.703C1060.51 335.703 1059.37 334.935 1058.6 334.087L1059.34 333.127C1060.03 333.847 1060.91 334.487 1062.25 334.487C1063.64 334.487 1064.64 333.639 1064.64 332.295C1064.64 330.887 1063.69 329.959 1060.99 329.959V328.823C1063.4 328.823 1064.22 327.863 1064.22 326.583C1064.22 325.463 1063.47 324.727 1062.25 324.727C1061.31 324.727 1060.48 325.207 1059.82 325.879L1059.04 324.935C1059.92 324.135 1060.96 323.543 1062.3 323.543C1064.27 323.543 1065.71 324.615 1065.71 326.487C1065.71 327.911 1064.88 328.855 1063.63 329.303V329.367C1065 329.703 1066.12 330.743 1066.12 332.359C1066.12 334.439 1064.44 335.703 1062.35 335.703ZM1069.86 329.239C1069.29 329.239 1068.82 328.791 1068.82 328.135C1068.82 327.463 1069.29 327.015 1069.86 327.015C1070.46 327.015 1070.94 327.463 1070.94 328.135C1070.94 328.791 1070.46 329.239 1069.86 329.239ZM1069.86 335.703C1069.29 335.703 1068.82 335.239 1068.82 334.583C1068.82 333.911 1069.29 333.463 1069.86 333.463C1070.46 333.463 1070.94 333.911 1070.94 334.583C1070.94 335.239 1070.46 335.703 1069.86 335.703ZM1074.16 335.479V334.263H1076.76V325.527H1074.67V324.583C1075.72 324.407 1076.48 324.135 1077.1 323.751H1078.22V334.263H1080.59V335.479H1074.16Z" fill="white"/>
<rect x="917" y="316.479" width="79" height="24" rx="12" fill="black"/>
<path d="M932.008 329.959C932.84 330.567 933.88 331.591 934.616 332.567L933.656 333.143C932.568 331.735 930.984 330.311 929.56 329.399C930.984 328.503 932.568 327.079 933.656 325.671L934.616 326.247C933.88 327.223 932.84 328.247 932.008 328.855H944.36V329.959H932.008ZM951.064 335.479V327.495C951.064 326.903 951.112 325.959 951.16 325.351H951.08C950.792 325.927 950.472 326.519 950.152 327.095L947.48 331.095H954.008V332.247H945.944V331.287L950.824 323.751H952.44V335.479H951.064ZM957.363 335.703C956.787 335.703 956.323 335.239 956.323 334.583C956.323 333.911 956.787 333.463 957.363 333.463C957.955 333.463 958.435 333.911 958.435 334.583C958.435 335.239 957.955 335.703 957.363 335.703ZM964.424 335.703C962.6 335.703 961.48 334.935 960.68 334.135L961.416 333.175C962.072 333.863 962.936 334.487 964.28 334.487C965.672 334.487 966.776 333.415 966.776 331.719C966.776 330.039 965.816 329.031 964.36 329.031C963.576 329.031 963.08 329.287 962.408 329.735L961.624 329.239L961.992 323.751H967.704V324.999H963.272L962.968 328.391C963.496 328.103 964.024 327.927 964.728 327.927C966.68 327.927 968.264 329.079 968.264 331.671C968.264 334.231 966.392 335.703 964.424 335.703ZM971.971 329.239C971.395 329.239 970.931 328.791 970.931 328.135C970.931 327.463 971.395 327.015 971.971 327.015C972.563 327.015 973.043 327.463 973.043 328.135C973.043 328.791 972.563 329.239 971.971 329.239ZM971.971 335.703C971.395 335.703 970.931 335.239 970.931 334.583C970.931 333.911 971.395 333.463 971.971 333.463C972.563 333.463 973.043 333.911 973.043 334.583C973.043 335.239 972.563 335.703 971.971 335.703ZM976.264 335.479V334.263H978.872V325.527H976.776V324.583C977.832 324.407 978.584 324.135 979.208 323.751H980.328V334.263H982.696V335.479H976.264Z" fill="white"/>
<path d="M1.82 16V1.18H6.98C10.08 1.18 12.54 2.28 12.54 5.68C12.54 7.9 11.42 9.28 9.72 9.94L13.18 16H9.88L6.84 10.4H4.78V16H1.82ZM4.78 8.06H6.7C8.6 8.06 9.66 7.26 9.66 5.68C9.66 4.08 8.6 3.54 6.7 3.54H4.78V8.06ZM19.8584 16.28C16.7184 16.28 14.2784 14.1 14.2784 10.4C14.2784 6.78 16.8384 4.52 19.4984 4.52C22.5784 4.52 24.1784 6.78 24.1784 9.86C24.1784 10.42 24.1184 10.96 24.0384 11.22H17.1384C17.3784 13.06 18.5784 14.02 20.2384 14.02C21.1584 14.02 21.9584 13.74 22.7584 13.24L23.7584 15.04C22.6584 15.8 21.2384 16.28 19.8584 16.28ZM17.0984 9.26H21.6584C21.6584 7.76 20.9784 6.8 19.5384 6.8C18.3584 6.8 17.3184 7.64 17.0984 9.26ZM30.5395 16.28C27.7595 16.28 25.9595 14.08 25.9595 10.4C25.9595 6.76 28.2395 4.52 30.6595 4.52C31.9195 4.52 32.6995 5 33.4995 5.74L33.3995 3.98V0.0399992H36.3195V16H33.9395L33.7195 14.84H33.6395C32.8195 15.64 31.6995 16.28 30.5395 16.28ZM31.2995 13.86C32.0795 13.86 32.7395 13.54 33.3995 12.7V7.78C32.7195 7.16 31.9995 6.94 31.2995 6.94C30.0395 6.94 28.9795 8.14 28.9795 10.38C28.9795 12.7 29.8195 13.86 31.2995 13.86Z" fill="#1A1A1A"/>
</svg>
