<svg width="1453" height="341" viewBox="0 0 1453 341" fill="none" xmlns="http://www.w3.org/2000/svg">
<path d="M7.264 76.336C4.528 76.336 2.848 75.184 1.648 73.984L2.752 72.544C3.736 73.576 5.032 74.512 7.048 74.512C9.136 74.512 10.792 72.904 10.792 70.36C10.792 67.84 9.352 66.328 7.168 66.328C5.992 66.328 5.248 66.712 4.24 67.384L3.064 66.64L3.616 58.408H12.184V60.28H5.536L5.08 65.368C5.872 64.936 6.664 64.672 7.72 64.672C10.648 64.672 13.024 66.4 13.024 70.288C13.024 74.128 10.216 76.336 7.264 76.336ZM21.9445 76.336C18.5845 76.336 16.4485 73.288 16.4485 67.144C16.4485 61.048 18.5845 58.096 21.9445 58.096C25.2565 58.096 27.3925 61.048 27.3925 67.144C27.3925 73.288 25.2565 76.336 21.9445 76.336ZM21.9445 74.56C23.9365 74.56 25.2805 72.328 25.2805 67.144C25.2805 62.032 23.9365 59.848 21.9445 59.848C19.9285 59.848 18.5605 62.032 18.5605 67.144C18.5605 72.328 19.9285 74.56 21.9445 74.56Z" fill="#1A1A1A"/>
<path d="M2.616 101L3.048 97.352H1.624V96.328H3.176L3.512 93.688H1.992V92.664H3.624L4.04 89.384H4.984L4.568 92.664H6.936L7.368 89.384H8.312L7.896 92.664H9.336V93.688H7.784L7.448 96.328H8.984V97.352H7.32L6.888 101H5.944L6.36 97.352H4.008L3.56 101H2.616ZM4.12 96.328H6.504L6.824 93.688H4.44L4.12 96.328ZM12.115 101V89.272H18.867V90.52H13.603V94.504H18.067V95.736H13.603V101H12.115ZM21.5831 101V89.272H25.0551C27.4391 89.272 29.0871 90.088 29.0871 92.152C29.0871 93.304 28.4791 94.328 27.3751 94.696V94.76C28.7831 95.032 29.7591 95.976 29.7591 97.576C29.7591 99.864 27.9351 101 25.3271 101H21.5831ZM23.0711 94.264H24.7991C26.8151 94.264 27.6311 93.528 27.6311 92.328C27.6311 90.952 26.7031 90.44 24.8791 90.44H23.0711V94.264ZM23.0711 99.832H25.1191C27.1191 99.832 28.3191 99.112 28.3191 97.528C28.3191 96.072 27.1671 95.4 25.1191 95.4H23.0711V99.832ZM32.7388 101V89.272H39.4908V90.52H34.2268V94.504H38.6908V95.736H34.2268V101H32.7388ZM44.7829 101.224C42.9589 101.224 41.8389 100.456 41.0389 99.656L41.7749 98.696C42.4309 99.384 43.2949 100.008 44.6389 100.008C46.0309 100.008 47.1349 99 47.1349 97.4C47.1349 95.832 46.1749 94.888 44.7189 94.888C43.9349 94.888 43.4389 95.144 42.7669 95.592L41.9829 95.096L42.3509 89.608H48.0629V90.856H43.6309L43.3269 94.248C43.8549 93.96 44.3829 93.784 45.0869 93.784C47.0389 93.784 48.6229 94.888 48.6229 97.352C48.6229 99.832 46.7509 101.224 44.7829 101.224ZM51.7219 101V89.272H58.4739V90.52H53.2099V94.2H57.6419V95.464H53.2099V99.752H58.6499V101H51.7219ZM64.6318 101.224C62.3438 101.224 60.9678 99.096 60.9678 95.272C60.9678 91.448 62.3438 89.4 64.6318 89.4C66.8878 89.4 68.2638 91.448 68.2638 95.272C68.2638 99.096 66.8878 101.224 64.6318 101.224ZM64.6318 100.04C65.9598 100.04 66.8558 98.616 66.8558 95.272C66.8558 91.912 65.9598 90.568 64.6318 90.568C63.2878 90.568 62.3758 91.912 62.3758 95.272C62.3758 98.616 63.2878 100.04 64.6318 100.04Z" fill="#1A1A1A"/>
<rect x="1" y="114" width="108" height="160.112" rx="4" fill="#FBF5E0"/>
<path d="M115.112 76V74.176H119.024V61.072H115.88V59.656C117.464 59.392 118.592 58.984 119.528 58.408H121.208V74.176H124.76V76H115.112ZM133.945 76.336C130.585 76.336 128.449 73.288 128.449 67.144C128.449 61.048 130.585 58.096 133.945 58.096C137.257 58.096 139.392 61.048 139.392 67.144C139.392 73.288 137.257 76.336 133.945 76.336ZM133.945 74.56C135.937 74.56 137.281 72.328 137.281 67.144C137.281 62.032 135.937 59.848 133.945 59.848C131.929 59.848 130.561 62.032 130.561 67.144C130.561 72.328 131.929 74.56 133.945 74.56ZM148.217 76.336C144.857 76.336 142.721 73.288 142.721 67.144C142.721 61.048 144.857 58.096 148.217 58.096C151.529 58.096 153.665 61.048 153.665 67.144C153.665 73.288 151.529 76.336 148.217 76.336ZM148.217 74.56C150.209 74.56 151.553 72.328 151.553 67.144C151.553 62.032 150.209 59.848 148.217 59.848C146.201 59.848 144.833 62.032 144.833 67.144C144.833 72.328 146.201 74.56 148.217 74.56Z" fill="#1A1A1A"/>
<path d="M114.616 101L115.048 97.352H113.624V96.328H115.176L115.512 93.688H113.992V92.664H115.624L116.04 89.384H116.984L116.568 92.664H118.936L119.368 89.384H120.312L119.896 92.664H121.336V93.688H119.784L119.448 96.328H120.984V97.352H119.32L118.888 101H117.944L118.36 97.352H116.008L115.56 101H114.616ZM116.12 96.328H118.504L118.824 93.688H116.44L116.12 96.328ZM124.115 101V89.272H130.867V90.52H125.603V94.504H130.067V95.736H125.603V101H124.115ZM133.583 101V89.272H140.335V90.52H135.071V94.504H139.535V95.736H135.071V101H133.583ZM143.051 101V89.272H149.803V90.52H144.539V94.504H149.003V95.736H144.539V101H143.051ZM155.367 101.224C153.079 101.224 151.703 99.096 151.703 95.272C151.703 91.448 153.079 89.4 155.367 89.4C157.623 89.4 158.999 91.448 158.999 95.272C158.999 99.096 157.623 101.224 155.367 101.224ZM155.367 100.04C156.695 100.04 157.591 98.616 157.591 95.272C157.591 91.912 156.695 90.568 155.367 90.568C154.023 90.568 153.111 91.912 153.111 95.272C153.111 98.616 154.023 100.04 155.367 100.04ZM162.034 101V89.272H165.506C167.89 89.272 169.538 90.088 169.538 92.152C169.538 93.304 168.93 94.328 167.826 94.696V94.76C169.234 95.032 170.21 95.976 170.21 97.576C170.21 99.864 168.386 101 165.778 101H162.034ZM163.522 94.264H165.25C167.266 94.264 168.082 93.528 168.082 92.328C168.082 90.952 167.154 90.44 165.33 90.44H163.522V94.264ZM163.522 99.832H165.57C167.57 99.832 168.77 99.112 168.77 97.528C168.77 96.072 167.618 95.4 165.57 95.4H163.522V99.832ZM175.798 101.224C173.958 101.224 172.822 100.456 172.054 99.608L172.79 98.648C173.478 99.368 174.358 100.008 175.702 100.008C177.094 100.008 178.086 99.192 178.086 97.912C178.086 96.552 177.142 95.64 174.438 95.64V94.52C176.854 94.52 177.67 93.576 177.67 92.376C177.67 91.272 176.918 90.568 175.702 90.568C174.758 90.568 173.926 91.064 173.27 91.736L172.486 90.808C173.366 89.992 174.406 89.4 175.75 89.4C177.718 89.4 179.158 90.44 179.158 92.28C179.158 93.656 178.326 94.536 177.078 95V95.064C178.454 95.384 179.574 96.408 179.574 97.96C179.574 99.992 177.894 101.224 175.798 101.224Z" fill="#1A1A1A"/>
<rect x="113" y="114" width="108" height="160.112" rx="4" fill="#FFF0B3"/>
<path d="M226.056 76V74.728C231.576 69.904 234.096 66.376 234.096 63.376C234.096 61.36 233.064 59.872 230.88 59.872C229.44 59.872 228.192 60.76 227.208 61.912L225.936 60.688C227.376 59.128 228.912 58.096 231.144 58.096C234.288 58.096 236.256 60.136 236.256 63.28C236.256 66.808 233.496 70.384 229.344 74.296C230.28 74.2 231.336 74.128 232.224 74.128H237.096V76H226.056ZM245.945 76.336C242.585 76.336 240.449 73.288 240.449 67.144C240.449 61.048 242.585 58.096 245.945 58.096C249.257 58.096 251.392 61.048 251.392 67.144C251.392 73.288 249.257 76.336 245.945 76.336ZM245.945 74.56C247.937 74.56 249.281 72.328 249.281 67.144C249.281 62.032 247.937 59.848 245.945 59.848C243.929 59.848 242.561 62.032 242.561 67.144C242.561 72.328 243.929 74.56 245.945 74.56ZM260.217 76.336C256.857 76.336 254.721 73.288 254.721 67.144C254.721 61.048 256.857 58.096 260.217 58.096C263.529 58.096 265.665 61.048 265.665 67.144C265.665 73.288 263.529 76.336 260.217 76.336ZM260.217 74.56C262.209 74.56 263.553 72.328 263.553 67.144C263.553 62.032 262.209 59.848 260.217 59.848C258.201 59.848 256.833 62.032 256.833 67.144C256.833 72.328 258.201 74.56 260.217 74.56Z" fill="#1A1A1A"/>
<path d="M226.616 101L227.048 97.352H225.624V96.328H227.176L227.512 93.688H225.992V92.664H227.624L228.04 89.384H228.984L228.568 92.664H230.936L231.368 89.384H232.312L231.896 92.664H233.336V93.688H231.784L231.448 96.328H232.984V97.352H231.32L230.888 101H229.944L230.36 97.352H228.008L227.56 101H226.616ZM228.12 96.328H230.504L230.824 93.688H228.44L228.12 96.328ZM236.115 101V89.272H242.867V90.52H237.603V94.504H242.067V95.736H237.603V101H236.115ZM245.583 101V89.272H252.335V90.52H247.071V94.504H251.535V95.736H247.071V101H245.583ZM255.051 101V89.272H261.803V90.52H256.539V94.2H260.971V95.464H256.539V99.752H261.979V101H255.051ZM267.721 101.224C265.881 101.224 264.745 100.456 263.977 99.608L264.713 98.648C265.401 99.368 266.281 100.008 267.625 100.008C269.017 100.008 270.009 99.192 270.009 97.912C270.009 96.552 269.065 95.64 266.361 95.64V94.52C268.777 94.52 269.593 93.576 269.593 92.376C269.593 91.272 268.841 90.568 267.625 90.568C266.681 90.568 265.849 91.064 265.193 91.736L264.409 90.808C265.289 89.992 266.329 89.4 267.673 89.4C269.641 89.4 271.081 90.44 271.081 92.28C271.081 93.656 270.249 94.536 269.001 95V95.064C270.377 95.384 271.497 96.408 271.497 97.96C271.497 99.992 269.817 101.224 267.721 101.224ZM277.492 101.224C275.332 101.224 273.748 99.912 273.748 98.104C273.748 96.6 274.836 95.576 275.908 95.016V94.952C275.06 94.36 274.308 93.512 274.308 92.312C274.308 90.552 275.7 89.4 277.54 89.4C279.54 89.4 280.756 90.648 280.756 92.424C280.756 93.624 279.876 94.632 279.188 95.16V95.24C280.196 95.848 281.172 96.648 281.172 98.184C281.172 99.896 279.684 101.224 277.492 101.224ZM278.292 94.792C279.076 94.088 279.508 93.336 279.508 92.488C279.508 91.368 278.772 90.472 277.508 90.472C276.436 90.472 275.652 91.208 275.652 92.312C275.652 93.672 276.916 94.248 278.292 94.792ZM277.524 100.12C278.868 100.12 279.764 99.304 279.764 98.136C279.764 96.648 278.324 96.136 276.676 95.464C275.732 96.072 275.06 96.904 275.06 97.96C275.06 99.208 276.116 100.12 277.524 100.12ZM286.991 101.224C284.703 101.224 283.327 99.096 283.327 95.272C283.327 91.448 284.703 89.4 286.991 89.4C289.247 89.4 290.623 91.448 290.623 95.272C290.623 99.096 289.247 101.224 286.991 101.224ZM286.991 100.04C288.319 100.04 289.215 98.616 289.215 95.272C289.215 91.912 288.319 90.568 286.991 90.568C285.647 90.568 284.735 91.912 284.735 95.272C284.735 98.616 285.647 100.04 286.991 100.04Z" fill="#1A1A1A"/>
<rect x="225" y="114" width="108" height="160.112" rx="4" fill="#FFE380"/>
<path d="M343.312 76.336C340.552 76.336 338.848 75.184 337.696 73.912L338.8 72.472C339.832 73.552 341.152 74.512 343.168 74.512C345.256 74.512 346.744 73.24 346.744 71.224C346.744 69.112 345.328 67.72 341.272 67.72V66.016C344.896 66.016 346.12 64.576 346.12 62.656C346.12 60.976 344.992 59.872 343.168 59.872C341.752 59.872 340.504 60.592 339.52 61.6L338.344 60.184C339.664 58.984 341.224 58.096 343.24 58.096C346.192 58.096 348.352 59.704 348.352 62.512C348.352 64.648 347.104 66.064 345.232 66.736V66.832C347.296 67.336 348.976 68.896 348.976 71.32C348.976 74.44 346.456 76.336 343.312 76.336ZM357.945 76.336C354.585 76.336 352.449 73.288 352.449 67.144C352.449 61.048 354.585 58.096 357.945 58.096C361.257 58.096 363.392 61.048 363.392 67.144C363.392 73.288 361.257 76.336 357.945 76.336ZM357.945 74.56C359.937 74.56 361.281 72.328 361.281 67.144C361.281 62.032 359.937 59.848 357.945 59.848C355.929 59.848 354.561 62.032 354.561 67.144C354.561 72.328 355.929 74.56 357.945 74.56ZM372.217 76.336C368.857 76.336 366.721 73.288 366.721 67.144C366.721 61.048 368.857 58.096 372.217 58.096C375.529 58.096 377.665 61.048 377.665 67.144C377.665 73.288 375.529 76.336 372.217 76.336ZM372.217 74.56C374.209 74.56 375.553 72.328 375.553 67.144C375.553 62.032 374.209 59.848 372.217 59.848C370.201 59.848 368.833 62.032 368.833 67.144C368.833 72.328 370.201 74.56 372.217 74.56Z" fill="#1A1A1A"/>
<path d="M338.616 101L339.048 97.352H337.624V96.328H339.176L339.512 93.688H337.992V92.664H339.624L340.04 89.384H340.984L340.568 92.664H342.936L343.368 89.384H344.312L343.896 92.664H345.336V93.688H343.784L343.448 96.328H344.984V97.352H343.32L342.888 101H341.944L342.36 97.352H340.008L339.56 101H338.616ZM340.12 96.328H342.504L342.824 93.688H340.44L340.12 96.328ZM348.115 101V89.272H354.867V90.52H349.603V94.504H354.067V95.736H349.603V101H348.115ZM357.583 101V89.272H364.335V90.52H359.071V94.504H363.535V95.736H359.071V101H357.583ZM367.051 101V89.272H369.979C373.595 89.272 375.515 91.368 375.515 95.096C375.515 98.824 373.595 101 370.059 101H367.051ZM368.539 99.784H369.867C372.619 99.784 373.995 98.072 373.995 95.096C373.995 92.12 372.619 90.488 369.867 90.488H368.539V99.784ZM382.531 101V93.352C382.531 92.76 382.579 91.768 382.627 91.176H382.547C382.259 91.704 381.939 92.216 381.619 92.776L378.947 96.696H385.475V97.848H377.411V96.888L382.291 89.608H383.907V101H382.531ZM390.83 101.224C388.99 101.224 387.854 100.456 387.086 99.608L387.822 98.648C388.51 99.368 389.39 100.008 390.734 100.008C392.126 100.008 393.118 99.192 393.118 97.912C393.118 96.552 392.174 95.64 389.47 95.64V94.52C391.886 94.52 392.702 93.576 392.702 92.376C392.702 91.272 391.95 90.568 390.734 90.568C389.79 90.568 388.958 91.064 388.302 91.736L387.518 90.808C388.398 89.992 389.438 89.4 390.782 89.4C392.75 89.4 394.19 90.44 394.19 92.28C394.19 93.656 393.358 94.536 392.11 95V95.064C393.486 95.384 394.606 96.408 394.606 97.96C394.606 99.992 392.926 101.224 390.83 101.224ZM397.737 101V89.272H400.665C404.281 89.272 406.201 91.368 406.201 95.096C406.201 98.824 404.281 101 400.745 101H397.737ZM399.225 99.784H400.553C403.305 99.784 404.681 98.072 404.681 95.096C404.681 92.12 403.305 90.488 400.553 90.488H399.225V99.784Z" fill="#1A1A1A"/>
<rect x="337" y="114" width="108" height="160.112" rx="4" fill="#FFD43D"/>
<path d="M457.136 76V64.024C457.136 63.136 457.208 61.72 457.28 60.808H457.16C456.728 61.672 456.248 62.56 455.768 63.424L451.76 69.424H461.552V71.152H449.456V69.712L456.776 58.408H459.2V76H457.136ZM469.945 76.336C466.585 76.336 464.449 73.288 464.449 67.144C464.449 61.048 466.585 58.096 469.945 58.096C473.257 58.096 475.392 61.048 475.392 67.144C475.392 73.288 473.257 76.336 469.945 76.336ZM469.945 74.56C471.937 74.56 473.281 72.328 473.281 67.144C473.281 62.032 471.937 59.848 469.945 59.848C467.929 59.848 466.561 62.032 466.561 67.144C466.561 72.328 467.929 74.56 469.945 74.56ZM484.217 76.336C480.857 76.336 478.721 73.288 478.721 67.144C478.721 61.048 480.857 58.096 484.217 58.096C487.529 58.096 489.665 61.048 489.665 67.144C489.665 73.288 487.529 76.336 484.217 76.336ZM484.217 74.56C486.209 74.56 487.553 72.328 487.553 67.144C487.553 62.032 486.209 59.848 484.217 59.848C482.201 59.848 480.833 62.032 480.833 67.144C480.833 72.328 482.201 74.56 484.217 74.56Z" fill="#1A1A1A"/>
<path d="M450.616 101L451.048 97.352H449.624V96.328H451.176L451.512 93.688H449.992V92.664H451.624L452.04 89.384H452.984L452.568 92.664H454.936L455.368 89.384H456.312L455.896 92.664H457.336V93.688H455.784L455.448 96.328H456.984V97.352H455.32L454.888 101H453.944L454.36 97.352H452.008L451.56 101H450.616ZM452.12 96.328H454.504L454.824 93.688H452.44L452.12 96.328ZM460.115 101V89.272H466.867V90.52H461.603V94.504H466.067V95.736H461.603V101H460.115ZM469.583 101V89.272H476.335V90.52H471.071V94.504H475.535V95.736H471.071V101H469.583ZM483.265 101.224C480.337 101.224 478.161 98.952 478.161 95.144C478.161 91.368 480.385 89.064 483.361 89.064C484.785 89.064 485.889 89.752 486.577 90.504L485.761 91.464C485.153 90.808 484.369 90.36 483.377 90.36C481.153 90.36 479.681 92.184 479.681 95.112C479.681 98.072 481.089 99.912 483.329 99.912C484.433 99.912 485.297 99.432 486.049 98.6L486.849 99.528C485.921 100.616 484.785 101.224 483.265 101.224ZM491.228 101C491.436 96.712 492.3 93.976 494.54 90.856H488.86V89.608H496.188V90.504C493.5 93.944 492.94 96.552 492.748 101H491.228ZM502.039 101.224C499.751 101.224 498.375 99.096 498.375 95.272C498.375 91.448 499.751 89.4 502.039 89.4C504.295 89.4 505.671 91.448 505.671 95.272C505.671 99.096 504.295 101.224 502.039 101.224ZM502.039 100.04C503.367 100.04 504.263 98.616 504.263 95.272C504.263 91.912 503.367 90.568 502.039 90.568C500.695 90.568 499.783 91.912 499.783 95.272C499.783 98.616 500.695 100.04 502.039 100.04ZM511.554 101.224C509.266 101.224 507.89 99.096 507.89 95.272C507.89 91.448 509.266 89.4 511.554 89.4C513.81 89.4 515.186 91.448 515.186 95.272C515.186 99.096 513.81 101.224 511.554 101.224ZM511.554 100.04C512.882 100.04 513.778 98.616 513.778 95.272C513.778 91.912 512.882 90.568 511.554 90.568C510.21 90.568 509.298 91.912 509.298 95.272C509.298 98.616 510.21 100.04 511.554 100.04Z" fill="#1A1A1A"/>
<rect x="449" y="114" width="108" height="160.112" rx="4" fill="#FFC700"/>
<path d="M567.264 76.336C564.528 76.336 562.848 75.184 561.648 73.984L562.752 72.544C563.736 73.576 565.032 74.512 567.048 74.512C569.136 74.512 570.792 72.904 570.792 70.36C570.792 67.84 569.352 66.328 567.168 66.328C565.992 66.328 565.248 66.712 564.24 67.384L563.064 66.64L563.616 58.408H572.184V60.28H565.536L565.08 65.368C565.872 64.936 566.664 64.672 567.72 64.672C570.648 64.672 573.024 66.4 573.024 70.288C573.024 74.128 570.216 76.336 567.264 76.336ZM581.945 76.336C578.585 76.336 576.449 73.288 576.449 67.144C576.449 61.048 578.585 58.096 581.945 58.096C585.257 58.096 587.392 61.048 587.392 67.144C587.392 73.288 585.257 76.336 581.945 76.336ZM581.945 74.56C583.937 74.56 585.281 72.328 585.281 67.144C585.281 62.032 583.937 59.848 581.945 59.848C579.929 59.848 578.561 62.032 578.561 67.144C578.561 72.328 579.929 74.56 581.945 74.56ZM596.217 76.336C592.857 76.336 590.721 73.288 590.721 67.144C590.721 61.048 592.857 58.096 596.217 58.096C599.529 58.096 601.665 61.048 601.665 67.144C601.665 73.288 599.529 76.336 596.217 76.336ZM596.217 74.56C598.209 74.56 599.553 72.328 599.553 67.144C599.553 62.032 598.209 59.848 596.217 59.848C594.201 59.848 592.833 62.032 592.833 67.144C592.833 72.328 594.201 74.56 596.217 74.56Z" fill="#1A1A1A"/>
<path d="M562.616 101L563.048 97.352H561.624V96.328H563.176L563.512 93.688H561.992V92.664H563.624L564.04 89.384H564.984L564.568 92.664H566.936L567.368 89.384H568.312L567.896 92.664H569.336V93.688H567.784L567.448 96.328H568.984V97.352H567.32L566.888 101H565.944L566.36 97.352H564.008L563.56 101H562.616ZM564.12 96.328H566.504L566.824 93.688H564.44L564.12 96.328ZM572.115 101V89.272H578.867V90.52H573.603V94.2H578.035V95.464H573.603V99.752H579.043V101H572.115ZM582.177 101V89.272H585.649C588.033 89.272 589.681 90.088 589.681 92.152C589.681 93.304 589.073 94.328 587.969 94.696V94.76C589.377 95.032 590.353 95.976 590.353 97.576C590.353 99.864 588.529 101 585.921 101H582.177ZM583.665 94.264H585.393C587.409 94.264 588.225 93.528 588.225 92.328C588.225 90.952 587.297 90.44 585.473 90.44H583.665V94.264ZM583.665 99.832H585.713C587.713 99.832 588.913 99.112 588.913 97.528C588.913 96.072 587.761 95.4 585.713 95.4H583.665V99.832ZM593.333 101V89.272H596.805C599.189 89.272 600.837 90.088 600.837 92.152C600.837 93.304 600.229 94.328 599.125 94.696V94.76C600.533 95.032 601.509 95.976 601.509 97.576C601.509 99.864 599.685 101 597.077 101H593.333ZM594.821 94.264H596.549C598.565 94.264 599.381 93.528 599.381 92.328C599.381 90.952 598.453 90.44 596.629 90.44H594.821V94.264ZM594.821 99.832H596.869C598.869 99.832 600.069 99.112 600.069 97.528C600.069 96.072 598.917 95.4 596.869 95.4H594.821V99.832ZM606.04 101C606.248 96.712 607.112 93.976 609.352 90.856H603.672V89.608H611V90.504C608.312 93.944 607.752 96.552 607.56 101H606.04ZM616.851 101.224C614.563 101.224 613.187 99.096 613.187 95.272C613.187 91.448 614.563 89.4 616.851 89.4C619.107 89.4 620.483 91.448 620.483 95.272C620.483 99.096 619.107 101.224 616.851 101.224ZM616.851 100.04C618.179 100.04 619.075 98.616 619.075 95.272C619.075 91.912 618.179 90.568 616.851 90.568C615.507 90.568 614.595 91.912 614.595 95.272C614.595 98.616 615.507 100.04 616.851 100.04ZM626.366 101.224C624.078 101.224 622.702 99.096 622.702 95.272C622.702 91.448 624.078 89.4 626.366 89.4C628.622 89.4 629.998 91.448 629.998 95.272C629.998 99.096 628.622 101.224 626.366 101.224ZM626.366 100.04C627.694 100.04 628.59 98.616 628.59 95.272C628.59 91.912 627.694 90.568 626.366 90.568C625.022 90.568 624.11 91.912 624.11 95.272C624.11 98.616 625.022 100.04 626.366 100.04Z" fill="#1A1A1A"/>
<rect x="561" y="114" width="108" height="160.112" rx="4" fill="#EBB700"/>
<path d="M680.224 76.336C676.84 76.336 674.32 73.432 674.32 67.624C674.32 60.736 677.416 58.096 680.824 58.096C682.648 58.096 683.992 58.864 684.952 59.896L683.728 61.24C683.056 60.424 681.976 59.92 680.92 59.92C678.448 59.92 676.384 61.864 676.384 67.624C676.384 72.136 677.752 74.608 680.224 74.608C681.904 74.608 683.2 73 683.2 70.624C683.2 68.224 682.144 66.712 680.032 66.712C678.904 66.712 677.488 67.384 676.312 69.136L676.24 67.384C677.32 65.968 678.952 65.104 680.368 65.104C683.344 65.104 685.264 66.928 685.264 70.624C685.264 74.032 682.936 76.336 680.224 76.336ZM693.945 76.336C690.585 76.336 688.449 73.288 688.449 67.144C688.449 61.048 690.585 58.096 693.945 58.096C697.257 58.096 699.392 61.048 699.392 67.144C699.392 73.288 697.257 76.336 693.945 76.336ZM693.945 74.56C695.937 74.56 697.281 72.328 697.281 67.144C697.281 62.032 695.937 59.848 693.945 59.848C691.929 59.848 690.561 62.032 690.561 67.144C690.561 72.328 691.929 74.56 693.945 74.56ZM708.217 76.336C704.857 76.336 702.721 73.288 702.721 67.144C702.721 61.048 704.857 58.096 708.217 58.096C711.529 58.096 713.665 61.048 713.665 67.144C713.665 73.288 711.529 76.336 708.217 76.336ZM708.217 74.56C710.209 74.56 711.553 72.328 711.553 67.144C711.553 62.032 710.209 59.848 708.217 59.848C706.201 59.848 704.833 62.032 704.833 67.144C704.833 72.328 706.201 74.56 708.217 74.56Z" fill="#1A1A1A"/>
<path d="M674.616 101L675.048 97.352H673.624V96.328H675.176L675.512 93.688H673.992V92.664H675.624L676.04 89.384H676.984L676.568 92.664H678.936L679.368 89.384H680.312L679.896 92.664H681.336V93.688H679.784L679.448 96.328H680.984V97.352H679.32L678.888 101H677.944L678.36 97.352H676.008L675.56 101H674.616ZM676.12 96.328H678.504L678.824 93.688H676.44L676.12 96.328ZM684.115 101V89.272H687.043C690.659 89.272 692.579 91.368 692.579 95.096C692.579 98.824 690.659 101 687.123 101H684.115ZM685.603 99.784H686.931C689.683 99.784 691.059 98.072 691.059 95.096C691.059 92.12 689.683 90.488 686.931 90.488H685.603V99.784ZM694.875 101V100.152C698.315 96.728 700.235 94.664 700.235 92.792C700.235 91.496 699.547 90.568 698.091 90.568C697.131 90.568 696.299 91.176 695.643 91.944L694.795 91.112C695.755 90.072 696.779 89.4 698.267 89.4C700.363 89.4 701.675 90.712 701.675 92.744C701.675 94.888 699.707 97.016 697.003 99.864C697.611 99.8 698.331 99.752 698.923 99.752H702.235V101H694.875ZM703.734 101L707.702 89.272H709.366L713.334 101H711.782L709.718 94.44C709.302 93.128 708.934 91.848 708.55 90.488H708.486C708.102 91.848 707.734 93.128 707.302 94.44L705.238 101H703.734ZM705.814 97.416V96.248H711.222V97.416H705.814ZM719.484 101V93.352C719.484 92.76 719.532 91.768 719.58 91.176H719.5C719.212 91.704 718.892 92.216 718.572 92.776L715.9 96.696H722.428V97.848H714.364V96.888L719.244 89.608H720.86V101H719.484ZM728.023 101.224C725.735 101.224 724.359 99.096 724.359 95.272C724.359 91.448 725.735 89.4 728.023 89.4C730.279 89.4 731.655 91.448 731.655 95.272C731.655 99.096 730.279 101.224 728.023 101.224ZM728.023 100.04C729.351 100.04 730.247 98.616 730.247 95.272C730.247 91.912 729.351 90.568 728.023 90.568C726.679 90.568 725.767 91.912 725.767 95.272C725.767 98.616 726.679 100.04 728.023 100.04ZM737.538 101.224C735.25 101.224 733.874 99.096 733.874 95.272C733.874 91.448 735.25 89.4 737.538 89.4C739.794 89.4 741.17 91.448 741.17 95.272C741.17 99.096 739.794 101.224 737.538 101.224ZM737.538 100.04C738.866 100.04 739.762 98.616 739.762 95.272C739.762 91.912 738.866 90.568 737.538 90.568C736.194 90.568 735.282 91.912 735.282 95.272C735.282 98.616 736.194 100.04 737.538 100.04Z" fill="#1A1A1A"/>
<rect x="673" y="114" width="108" height="160.112" rx="4" fill="#D2A400"/>
<path d="M789.728 76C790.04 69.352 791.24 65.08 794.696 60.28H786.176V58.408H797.168V59.728C793.04 65.032 792.296 69.136 792.008 76H789.728ZM805.945 76.336C802.585 76.336 800.449 73.288 800.449 67.144C800.449 61.048 802.585 58.096 805.945 58.096C809.257 58.096 811.392 61.048 811.392 67.144C811.392 73.288 809.257 76.336 805.945 76.336ZM805.945 74.56C807.937 74.56 809.281 72.328 809.281 67.144C809.281 62.032 807.937 59.848 805.945 59.848C803.929 59.848 802.561 62.032 802.561 67.144C802.561 72.328 803.929 74.56 805.945 74.56ZM820.217 76.336C816.857 76.336 814.721 73.288 814.721 67.144C814.721 61.048 816.857 58.096 820.217 58.096C823.529 58.096 825.665 61.048 825.665 67.144C825.665 73.288 823.529 76.336 820.217 76.336ZM820.217 74.56C822.209 74.56 823.553 72.328 823.553 67.144C823.553 62.032 822.209 59.848 820.217 59.848C818.201 59.848 816.833 62.032 816.833 67.144C816.833 72.328 818.201 74.56 820.217 74.56Z" fill="#1A1A1A"/>
<path d="M786.616 101L787.048 97.352H785.624V96.328H787.176L787.512 93.688H785.992V92.664H787.624L788.04 89.384H788.984L788.568 92.664H790.936L791.368 89.384H792.312L791.896 92.664H793.336V93.688H791.784L791.448 96.328H792.984V97.352H791.32L790.888 101H789.944L790.36 97.352H788.008L787.56 101H786.616ZM788.12 96.328H790.504L790.824 93.688H788.44L788.12 96.328ZM796.115 101V89.272H799.587C801.971 89.272 803.619 90.088 803.619 92.152C803.619 93.304 803.011 94.328 801.907 94.696V94.76C803.315 95.032 804.291 95.976 804.291 97.576C804.291 99.864 802.467 101 799.859 101H796.115ZM797.603 94.264H799.331C801.347 94.264 802.163 93.528 802.163 92.328C802.163 90.952 801.235 90.44 799.411 90.44H797.603V94.264ZM797.603 99.832H799.651C801.651 99.832 802.851 99.112 802.851 97.528C802.851 96.072 801.699 95.4 799.651 95.4H797.603V99.832ZM808.823 101C809.031 96.712 809.895 93.976 812.135 90.856H806.455V89.608H813.783V90.504C811.095 93.944 810.535 96.552 810.343 101H808.823ZM819.65 101.224C817.49 101.224 815.906 99.912 815.906 98.104C815.906 96.6 816.994 95.576 818.066 95.016V94.952C817.218 94.36 816.466 93.512 816.466 92.312C816.466 90.552 817.858 89.4 819.698 89.4C821.698 89.4 822.914 90.648 822.914 92.424C822.914 93.624 822.034 94.632 821.346 95.16V95.24C822.354 95.848 823.33 96.648 823.33 98.184C823.33 99.896 821.842 101.224 819.65 101.224ZM820.45 94.792C821.234 94.088 821.666 93.336 821.666 92.488C821.666 91.368 820.93 90.472 819.666 90.472C818.594 90.472 817.81 91.208 817.81 92.312C817.81 93.672 819.074 94.248 820.45 94.792ZM819.682 100.12C821.026 100.12 821.922 99.304 821.922 98.136C821.922 96.648 820.482 96.136 818.834 95.464C817.89 96.072 817.218 96.904 817.218 97.96C817.218 99.208 818.274 100.12 819.682 100.12ZM826.301 101V89.272H833.053V90.52H827.789V94.504H832.253V95.736H827.789V101H826.301ZM838.617 101.224C836.329 101.224 834.953 99.096 834.953 95.272C834.953 91.448 836.329 89.4 838.617 89.4C840.873 89.4 842.249 91.448 842.249 95.272C842.249 99.096 840.873 101.224 838.617 101.224ZM838.617 100.04C839.945 100.04 840.841 98.616 840.841 95.272C840.841 91.912 839.945 90.568 838.617 90.568C837.273 90.568 836.361 91.912 836.361 95.272C836.361 98.616 837.273 100.04 838.617 100.04ZM848.132 101.224C845.844 101.224 844.468 99.096 844.468 95.272C844.468 91.448 845.844 89.4 848.132 89.4C850.388 89.4 851.764 91.448 851.764 95.272C851.764 99.096 850.388 101.224 848.132 101.224ZM848.132 100.04C849.46 100.04 850.356 98.616 850.356 95.272C850.356 91.912 849.46 90.568 848.132 90.568C846.788 90.568 845.876 91.912 845.876 95.272C845.876 98.616 846.788 100.04 848.132 100.04Z" fill="#1A1A1A"/>
<rect x="785" y="114" width="108" height="160.112" rx="4" fill="#B78F00"/>
<path d="M903.696 76.336C900.456 76.336 898.08 74.368 898.08 71.656C898.08 69.28 899.712 67.648 901.32 66.784V66.688C900.024 65.8 898.92 64.456 898.92 62.608C898.92 59.944 901.008 58.168 903.768 58.168C906.768 58.168 908.592 60.088 908.592 62.776C908.592 64.648 907.296 66.208 906.24 67.024V67.144C907.776 68.032 909.216 69.376 909.216 71.776C909.216 74.344 906.984 76.336 903.696 76.336ZM904.896 66.472C906.096 65.416 906.72 64.216 906.72 62.896C906.72 61.168 905.616 59.776 903.72 59.776C902.112 59.776 900.936 60.928 900.936 62.608C900.936 64.72 902.832 65.656 904.896 66.472ZM903.744 74.68C905.76 74.68 907.104 73.456 907.104 71.704C907.104 69.352 904.944 68.464 902.472 67.456C901.032 68.368 900.048 69.76 900.048 71.44C900.048 73.312 901.632 74.68 903.744 74.68ZM917.945 76.336C914.585 76.336 912.449 73.288 912.449 67.144C912.449 61.048 914.585 58.096 917.945 58.096C921.257 58.096 923.392 61.048 923.392 67.144C923.392 73.288 921.257 76.336 917.945 76.336ZM917.945 74.56C919.937 74.56 921.281 72.328 921.281 67.144C921.281 62.032 919.937 59.848 917.945 59.848C915.929 59.848 914.561 62.032 914.561 67.144C914.561 72.328 915.929 74.56 917.945 74.56ZM932.217 76.336C928.857 76.336 926.721 73.288 926.721 67.144C926.721 61.048 928.857 58.096 932.217 58.096C935.529 58.096 937.665 61.048 937.665 67.144C937.665 73.288 935.529 76.336 932.217 76.336ZM932.217 74.56C934.209 74.56 935.553 72.328 935.553 67.144C935.553 62.032 934.209 59.848 932.217 59.848C930.201 59.848 928.833 62.032 928.833 67.144C928.833 72.328 930.201 74.56 932.217 74.56Z" fill="#1A1A1A"/>
<path d="M898.616 101L899.048 97.352H897.624V96.328H899.176L899.512 93.688H897.992V92.664H899.624L900.04 89.384H900.984L900.568 92.664H902.936L903.368 89.384H904.312L903.896 92.664H905.336V93.688H903.784L903.448 96.328H904.984V97.352H903.32L902.888 101H901.944L902.36 97.352H900.008L899.56 101H898.616ZM900.12 96.328H902.504L902.824 93.688H900.44L900.12 96.328ZM906.563 101L910.531 89.272H912.195L916.163 101H914.611L912.547 94.44C912.131 93.128 911.763 91.848 911.379 90.488H911.315C910.931 91.848 910.563 93.128 910.131 94.44L908.067 101H906.563ZM908.643 97.416V96.248H914.051V97.416H908.643ZM921.065 101.224C919.241 101.224 918.121 100.456 917.321 99.656L918.057 98.696C918.713 99.384 919.577 100.008 920.921 100.008C922.313 100.008 923.417 99 923.417 97.4C923.417 95.832 922.457 94.888 921.001 94.888C920.217 94.888 919.721 95.144 919.049 95.592L918.265 95.096L918.633 89.608H924.345V90.856H919.913L919.609 94.248C920.137 93.96 920.665 93.784 921.369 93.784C923.321 93.784 924.905 94.888 924.905 97.352C924.905 99.832 923.033 101.224 921.065 101.224ZM930.868 101.224C928.708 101.224 927.124 99.912 927.124 98.104C927.124 96.6 928.212 95.576 929.284 95.016V94.952C928.436 94.36 927.684 93.512 927.684 92.312C927.684 90.552 929.076 89.4 930.916 89.4C932.916 89.4 934.132 90.648 934.132 92.424C934.132 93.624 933.252 94.632 932.564 95.16V95.24C933.572 95.848 934.548 96.648 934.548 98.184C934.548 99.896 933.06 101.224 930.868 101.224ZM931.668 94.792C932.452 94.088 932.884 93.336 932.884 92.488C932.884 91.368 932.148 90.472 930.884 90.472C929.812 90.472 929.028 91.208 929.028 92.312C929.028 93.672 930.292 94.248 931.668 94.792ZM930.9 100.12C932.244 100.12 933.14 99.304 933.14 98.136C933.14 96.648 931.7 96.136 930.052 95.464C929.108 96.072 928.436 96.904 928.436 97.96C928.436 99.208 929.492 100.12 930.9 100.12ZM940.367 101.224C938.079 101.224 936.703 99.096 936.703 95.272C936.703 91.448 938.079 89.4 940.367 89.4C942.623 89.4 943.999 91.448 943.999 95.272C943.999 99.096 942.623 101.224 940.367 101.224ZM940.367 100.04C941.695 100.04 942.591 98.616 942.591 95.272C942.591 91.912 941.695 90.568 940.367 90.568C939.023 90.568 938.111 91.912 938.111 95.272C938.111 98.616 939.023 100.04 940.367 100.04ZM949.882 101.224C947.594 101.224 946.218 99.096 946.218 95.272C946.218 91.448 947.594 89.4 949.882 89.4C952.138 89.4 953.514 91.448 953.514 95.272C953.514 99.096 952.138 101.224 949.882 101.224ZM949.882 100.04C951.21 100.04 952.106 98.616 952.106 95.272C952.106 91.912 951.21 90.568 949.882 90.568C948.538 90.568 947.626 91.912 947.626 95.272C947.626 98.616 948.538 100.04 949.882 100.04ZM959.397 101.224C957.109 101.224 955.733 99.096 955.733 95.272C955.733 91.448 957.109 89.4 959.397 89.4C961.653 89.4 963.029 91.448 963.029 95.272C963.029 99.096 961.653 101.224 959.397 101.224ZM959.397 100.04C960.725 100.04 961.621 98.616 961.621 95.272C961.621 91.912 960.725 90.568 959.397 90.568C958.053 90.568 957.141 91.912 957.141 95.272C957.141 98.616 958.053 100.04 959.397 100.04Z" fill="#1A1A1A"/>
<rect x="897" y="114" width="108" height="160.112" rx="4" fill="#A58000"/>
<path d="M1014.62 76.336C1012.7 76.336 1011.35 75.568 1010.37 74.536L1011.59 73.144C1012.34 74.008 1013.42 74.512 1014.54 74.512C1016.9 74.512 1018.94 72.472 1018.94 66.448C1018.94 62.128 1017.57 59.8 1015.1 59.8C1013.42 59.8 1012.12 61.384 1012.12 63.808C1012.12 66.16 1013.18 67.72 1015.26 67.72C1016.44 67.72 1017.81 67.024 1018.96 65.272L1019.08 67.024C1017.98 68.416 1016.42 69.328 1014.9 69.328C1011.95 69.328 1010.06 67.456 1010.06 63.808C1010.06 60.4 1012.36 58.096 1015.1 58.096C1018.48 58.096 1021 60.856 1021 66.448C1021 73.6 1017.93 76.336 1014.62 76.336ZM1029.94 76.336C1026.58 76.336 1024.45 73.288 1024.45 67.144C1024.45 61.048 1026.58 58.096 1029.94 58.096C1033.26 58.096 1035.39 61.048 1035.39 67.144C1035.39 73.288 1033.26 76.336 1029.94 76.336ZM1029.94 74.56C1031.94 74.56 1033.28 72.328 1033.28 67.144C1033.28 62.032 1031.94 59.848 1029.94 59.848C1027.93 59.848 1026.56 62.032 1026.56 67.144C1026.56 72.328 1027.93 74.56 1029.94 74.56ZM1044.22 76.336C1040.86 76.336 1038.72 73.288 1038.72 67.144C1038.72 61.048 1040.86 58.096 1044.22 58.096C1047.53 58.096 1049.66 61.048 1049.66 67.144C1049.66 73.288 1047.53 76.336 1044.22 76.336ZM1044.22 74.56C1046.21 74.56 1047.55 72.328 1047.55 67.144C1047.55 62.032 1046.21 59.848 1044.22 59.848C1042.2 59.848 1040.83 62.032 1040.83 67.144C1040.83 72.328 1042.2 74.56 1044.22 74.56Z" fill="#1A1A1A"/>
<path d="M1010.62 101L1011.05 97.352H1009.62V96.328H1011.18L1011.51 93.688H1009.99V92.664H1011.62L1012.04 89.384H1012.98L1012.57 92.664H1014.94L1015.37 89.384H1016.31L1015.9 92.664H1017.34V93.688H1015.78L1015.45 96.328H1016.98V97.352H1015.32L1014.89 101H1013.94L1014.36 97.352H1012.01L1011.56 101H1010.62ZM1012.12 96.328H1014.5L1014.82 93.688H1012.44L1012.12 96.328ZM1022.26 101.224C1020.98 101.224 1020.08 100.712 1019.43 100.024L1020.24 99.096C1020.74 99.672 1021.46 100.008 1022.21 100.008C1023.78 100.008 1025.14 98.648 1025.14 94.632C1025.14 91.752 1024.23 90.2 1022.58 90.2C1021.46 90.2 1020.6 91.256 1020.6 92.872C1020.6 94.44 1021.3 95.48 1022.69 95.48C1023.48 95.48 1024.39 95.016 1025.16 93.848L1025.24 95.016C1024.5 95.944 1023.46 96.552 1022.45 96.552C1020.48 96.552 1019.22 95.304 1019.22 92.872C1019.22 90.6 1020.76 89.064 1022.58 89.064C1024.84 89.064 1026.52 90.904 1026.52 94.632C1026.52 99.4 1024.47 101.224 1022.26 101.224ZM1028.73 101V100.152C1032.41 96.936 1034.09 94.584 1034.09 92.584C1034.09 91.24 1033.41 90.248 1031.95 90.248C1030.99 90.248 1030.16 90.84 1029.5 91.608L1028.65 90.792C1029.61 89.752 1030.64 89.064 1032.13 89.064C1034.22 89.064 1035.53 90.424 1035.53 92.52C1035.53 94.872 1033.69 97.256 1030.93 99.864C1031.55 99.8 1032.25 99.752 1032.85 99.752H1036.09V101H1028.73ZM1040.7 101C1040.91 96.568 1041.71 93.72 1044.01 90.52H1038.33V89.272H1045.66V90.152C1042.91 93.688 1042.41 96.424 1042.22 101H1040.7ZM1047.76 101V100.152C1051.44 96.936 1053.12 94.584 1053.12 92.584C1053.12 91.24 1052.44 90.248 1050.98 90.248C1050.02 90.248 1049.19 90.84 1048.53 91.608L1047.68 90.792C1048.64 89.752 1049.67 89.064 1051.16 89.064C1053.25 89.064 1054.56 90.424 1054.56 92.52C1054.56 94.872 1052.72 97.256 1049.96 99.864C1050.58 99.8 1051.28 99.752 1051.88 99.752H1055.12V101H1047.76ZM1061.02 101.224C1058.78 101.224 1057.36 99.192 1057.36 95.096C1057.36 91.032 1058.78 89.064 1061.02 89.064C1063.23 89.064 1064.66 91.032 1064.66 95.096C1064.66 99.192 1063.23 101.224 1061.02 101.224ZM1061.02 100.04C1062.35 100.04 1063.25 98.552 1063.25 95.096C1063.25 91.688 1062.35 90.232 1061.02 90.232C1059.68 90.232 1058.77 91.688 1058.77 95.096C1058.77 98.552 1059.68 100.04 1061.02 100.04ZM1070.54 101.224C1068.3 101.224 1066.87 99.192 1066.87 95.096C1066.87 91.032 1068.3 89.064 1070.54 89.064C1072.75 89.064 1074.17 91.032 1074.17 95.096C1074.17 99.192 1072.75 101.224 1070.54 101.224ZM1070.54 100.04C1071.87 100.04 1072.76 98.552 1072.76 95.096C1072.76 91.688 1071.87 90.232 1070.54 90.232C1069.19 90.232 1068.28 91.688 1068.28 95.096C1068.28 98.552 1069.19 100.04 1070.54 100.04Z" fill="#1A1A1A"/>
<rect x="1009" y="114" width="108" height="160.112" rx="4" fill="#927200"/>
<path d="M1123.11 76V74.176H1127.02V61.072H1123.88V59.656C1125.46 59.392 1126.59 58.984 1127.53 58.408H1129.21V74.176H1132.76V76H1123.11ZM1141.94 76.336C1138.58 76.336 1136.45 73.288 1136.45 67.144C1136.45 61.048 1138.58 58.096 1141.94 58.096C1145.26 58.096 1147.39 61.048 1147.39 67.144C1147.39 73.288 1145.26 76.336 1141.94 76.336ZM1141.94 74.56C1143.94 74.56 1145.28 72.328 1145.28 67.144C1145.28 62.032 1143.94 59.848 1141.94 59.848C1139.93 59.848 1138.56 62.032 1138.56 67.144C1138.56 72.328 1139.93 74.56 1141.94 74.56ZM1156.22 76.336C1152.86 76.336 1150.72 73.288 1150.72 67.144C1150.72 61.048 1152.86 58.096 1156.22 58.096C1159.53 58.096 1161.66 61.048 1161.66 67.144C1161.66 73.288 1159.53 76.336 1156.22 76.336ZM1156.22 74.56C1158.21 74.56 1159.55 72.328 1159.55 67.144C1159.55 62.032 1158.21 59.848 1156.22 59.848C1154.2 59.848 1152.83 62.032 1152.83 67.144C1152.83 72.328 1154.2 74.56 1156.22 74.56ZM1170.49 76.336C1167.13 76.336 1164.99 73.288 1164.99 67.144C1164.99 61.048 1167.13 58.096 1170.49 58.096C1173.8 58.096 1175.94 61.048 1175.94 67.144C1175.94 73.288 1173.8 76.336 1170.49 76.336ZM1170.49 74.56C1172.48 74.56 1173.83 72.328 1173.83 67.144C1173.83 62.032 1172.48 59.848 1170.49 59.848C1168.47 59.848 1167.11 62.032 1167.11 67.144C1167.11 72.328 1168.47 74.56 1170.49 74.56Z" fill="#1A1A1A"/>
<path d="M1122.62 101L1123.05 97.352H1121.62V96.328H1123.18L1123.51 93.688H1121.99V92.664H1123.62L1124.04 89.384H1124.98L1124.57 92.664H1126.94L1127.37 89.384H1128.31L1127.9 92.664H1129.34V93.688H1127.78L1127.45 96.328H1128.98V97.352H1127.32L1126.89 101H1125.94L1126.36 97.352H1124.01L1123.56 101H1122.62ZM1124.12 96.328H1126.5L1126.82 93.688H1124.44L1124.12 96.328ZM1134.98 101.224C1132.82 101.224 1131.24 99.912 1131.24 98.104C1131.24 96.52 1132.32 95.432 1133.4 94.856V94.792C1132.53 94.2 1131.8 93.304 1131.8 92.072C1131.8 90.296 1133.19 89.112 1135.03 89.112C1137.03 89.112 1138.24 90.392 1138.24 92.184C1138.24 93.432 1137.38 94.472 1136.68 95.016V95.096C1137.7 95.688 1138.66 96.584 1138.66 98.184C1138.66 99.896 1137.17 101.224 1134.98 101.224ZM1135.78 94.648C1136.58 93.944 1137 93.144 1137 92.264C1137 91.112 1136.26 90.184 1135 90.184C1133.92 90.184 1133.14 90.952 1133.14 92.072C1133.14 93.48 1134.4 94.104 1135.78 94.648ZM1135.01 100.12C1136.36 100.12 1137.25 99.304 1137.25 98.136C1137.25 96.568 1135.81 95.976 1134.16 95.304C1133.2 95.912 1132.55 96.84 1132.55 97.96C1132.55 99.208 1133.6 100.12 1135.01 100.12ZM1144.48 101.224C1142.24 101.224 1140.81 99.192 1140.81 95.096C1140.81 91.032 1142.24 89.064 1144.48 89.064C1146.69 89.064 1148.11 91.032 1148.11 95.096C1148.11 99.192 1146.69 101.224 1144.48 101.224ZM1144.48 100.04C1145.81 100.04 1146.7 98.552 1146.7 95.096C1146.7 91.688 1145.81 90.232 1144.48 90.232C1143.13 90.232 1142.22 91.688 1142.22 95.096C1142.22 98.552 1143.13 100.04 1144.48 100.04ZM1154.36 101.224C1152.11 101.224 1150.43 99.288 1150.43 95.416C1150.43 90.824 1152.49 89.064 1154.76 89.064C1155.98 89.064 1156.87 89.576 1157.51 90.264L1156.7 91.16C1156.25 90.616 1155.53 90.28 1154.83 90.28C1153.18 90.28 1151.8 91.576 1151.8 95.416C1151.8 98.424 1152.71 100.072 1154.36 100.072C1155.48 100.072 1156.35 99 1156.35 97.416C1156.35 95.816 1155.64 94.808 1154.23 94.808C1153.48 94.808 1152.54 95.256 1151.75 96.424L1151.71 95.256C1152.43 94.312 1153.51 93.736 1154.46 93.736C1156.44 93.736 1157.72 94.952 1157.72 97.416C1157.72 99.688 1156.17 101.224 1154.36 101.224ZM1163.27 101.224C1161.43 101.224 1160.29 100.456 1159.52 99.608L1160.26 98.648C1160.95 99.368 1161.83 100.008 1163.17 100.008C1164.56 100.008 1165.56 99.16 1165.56 97.816C1165.56 96.408 1164.61 95.48 1161.91 95.48V94.344C1164.32 94.344 1165.14 93.384 1165.14 92.104C1165.14 90.984 1164.39 90.248 1163.17 90.248C1162.23 90.248 1161.4 90.728 1160.74 91.4L1159.96 90.456C1160.84 89.656 1161.88 89.064 1163.22 89.064C1165.19 89.064 1166.63 90.136 1166.63 92.008C1166.63 93.432 1165.8 94.376 1164.55 94.824V94.888C1165.92 95.224 1167.04 96.264 1167.04 97.88C1167.04 99.96 1165.36 101.224 1163.27 101.224ZM1173.02 101.224C1170.78 101.224 1169.36 99.192 1169.36 95.096C1169.36 91.032 1170.78 89.064 1173.02 89.064C1175.23 89.064 1176.66 91.032 1176.66 95.096C1176.66 99.192 1175.23 101.224 1173.02 101.224ZM1173.02 100.04C1174.35 100.04 1175.25 98.552 1175.25 95.096C1175.25 91.688 1174.35 90.232 1173.02 90.232C1171.68 90.232 1170.77 91.688 1170.77 95.096C1170.77 98.552 1171.68 100.04 1173.02 100.04ZM1182.54 101.224C1180.3 101.224 1178.87 99.192 1178.87 95.096C1178.87 91.032 1180.3 89.064 1182.54 89.064C1184.75 89.064 1186.17 91.032 1186.17 95.096C1186.17 99.192 1184.75 101.224 1182.54 101.224ZM1182.54 100.04C1183.87 100.04 1184.76 98.552 1184.76 95.096C1184.76 91.688 1183.87 90.232 1182.54 90.232C1181.19 90.232 1180.28 91.688 1180.28 95.096C1180.28 98.552 1181.19 100.04 1182.54 100.04Z" fill="#1A1A1A"/>
<rect x="1121" y="114" width="108" height="160.112" rx="4" fill="#806300"/>
<path d="M1235.11 76V74.176H1239.02V61.072H1235.88V59.656C1237.46 59.392 1238.59 58.984 1239.53 58.408H1241.21V74.176H1244.76V76H1235.11ZM1249.38 76V74.176H1253.3V61.072H1250.15V59.656C1251.74 59.392 1252.86 58.984 1253.8 58.408H1255.48V74.176H1259.03V76H1249.38ZM1268.22 76.336C1264.86 76.336 1262.72 73.288 1262.72 67.144C1262.72 61.048 1264.86 58.096 1268.22 58.096C1271.53 58.096 1273.66 61.048 1273.66 67.144C1273.66 73.288 1271.53 76.336 1268.22 76.336ZM1268.22 74.56C1270.21 74.56 1271.55 72.328 1271.55 67.144C1271.55 62.032 1270.21 59.848 1268.22 59.848C1266.2 59.848 1264.83 62.032 1264.83 67.144C1264.83 72.328 1266.2 74.56 1268.22 74.56ZM1282.49 76.336C1279.13 76.336 1276.99 73.288 1276.99 67.144C1276.99 61.048 1279.13 58.096 1282.49 58.096C1285.8 58.096 1287.94 61.048 1287.94 67.144C1287.94 73.288 1285.8 76.336 1282.49 76.336ZM1282.49 74.56C1284.48 74.56 1285.83 72.328 1285.83 67.144C1285.83 62.032 1284.48 59.848 1282.49 59.848C1280.47 59.848 1279.11 62.032 1279.11 67.144C1279.11 72.328 1280.47 74.56 1282.49 74.56Z" fill="#1A1A1A"/>
<path d="M1234.62 101L1235.05 97.352H1233.62V96.328H1235.18L1235.51 93.688H1233.99V92.664H1235.62L1236.04 89.384H1236.98L1236.57 92.664H1238.94L1239.37 89.384H1240.31L1239.9 92.664H1241.34V93.688H1239.78L1239.45 96.328H1240.98V97.352H1239.32L1238.89 101H1237.94L1238.36 97.352H1236.01L1235.56 101H1234.62ZM1236.12 96.328H1238.5L1238.82 93.688H1236.44L1236.12 96.328ZM1247.32 101.224C1245.06 101.224 1243.36 99.4 1243.36 95.736C1243.36 91.144 1245.44 89.4 1247.72 89.4C1248.93 89.4 1249.83 89.912 1250.45 90.584L1249.65 91.496C1249.19 90.952 1248.48 90.616 1247.76 90.616C1246.13 90.616 1244.76 91.896 1244.76 95.736C1244.76 98.552 1245.65 100.072 1247.3 100.072C1248.44 100.072 1249.3 99.064 1249.3 97.56C1249.3 96.072 1248.6 95.128 1247.17 95.128C1246.44 95.128 1245.51 95.576 1244.71 96.76L1244.66 95.592C1245.4 94.632 1246.45 94.04 1247.41 94.04C1249.38 94.04 1250.68 95.224 1250.68 97.56C1250.68 99.752 1249.12 101.224 1247.32 101.224ZM1253.63 101V89.272H1260.38V90.52H1255.12V94.2H1259.55V95.464H1255.12V99.752H1260.56V101H1253.63ZM1266.27 101.224C1264.44 101.224 1263.32 100.456 1262.52 99.656L1263.26 98.696C1263.92 99.384 1264.78 100.008 1266.12 100.008C1267.52 100.008 1268.62 99 1268.62 97.4C1268.62 95.832 1267.66 94.888 1266.2 94.888C1265.42 94.888 1264.92 95.144 1264.25 95.592L1263.47 95.096L1263.84 89.608H1269.55V90.856H1265.12L1264.81 94.248C1265.34 93.96 1265.87 93.784 1266.57 93.784C1268.52 93.784 1270.11 94.888 1270.11 97.352C1270.11 99.832 1268.24 101.224 1266.27 101.224ZM1276.41 101.224C1274.15 101.224 1272.45 99.4 1272.45 95.736C1272.45 91.144 1274.53 89.4 1276.81 89.4C1278.02 89.4 1278.92 89.912 1279.54 90.584L1278.74 91.496C1278.28 90.952 1277.57 90.616 1276.85 90.616C1275.22 90.616 1273.85 91.896 1273.85 95.736C1273.85 98.552 1274.74 100.072 1276.39 100.072C1277.53 100.072 1278.39 99.064 1278.39 97.56C1278.39 96.072 1277.69 95.128 1276.26 95.128C1275.53 95.128 1274.6 95.576 1273.8 96.76L1273.75 95.592C1274.49 94.632 1275.54 94.04 1276.5 94.04C1278.47 94.04 1279.77 95.224 1279.77 97.56C1279.77 99.752 1278.21 101.224 1276.41 101.224ZM1285.57 101.224C1283.28 101.224 1281.91 99.096 1281.91 95.272C1281.91 91.448 1283.28 89.4 1285.57 89.4C1287.83 89.4 1289.2 91.448 1289.2 95.272C1289.2 99.096 1287.83 101.224 1285.57 101.224ZM1285.57 100.04C1286.9 100.04 1287.79 98.616 1287.79 95.272C1287.79 91.912 1286.9 90.568 1285.57 90.568C1284.23 90.568 1283.31 91.912 1283.31 95.272C1283.31 98.616 1284.23 100.04 1285.57 100.04ZM1295.08 101.224C1292.8 101.224 1291.42 99.096 1291.42 95.272C1291.42 91.448 1292.8 89.4 1295.08 89.4C1297.34 89.4 1298.72 91.448 1298.72 95.272C1298.72 99.096 1297.34 101.224 1295.08 101.224ZM1295.08 100.04C1296.41 100.04 1297.31 98.616 1297.31 95.272C1297.31 91.912 1296.41 90.568 1295.08 90.568C1293.74 90.568 1292.83 91.912 1292.83 95.272C1292.83 98.616 1293.74 100.04 1295.08 100.04Z" fill="#1A1A1A"/>
<rect x="1233" y="114" width="108" height="160.112" rx="4" fill="#6E5600"/>
<path d="M1347.11 76V74.176H1351.02V61.072H1347.88V59.656C1349.46 59.392 1350.59 58.984 1351.53 58.408H1353.21V74.176H1356.76V76H1347.11ZM1360.33 76V74.728C1365.85 69.904 1368.37 66.376 1368.37 63.376C1368.37 61.36 1367.34 59.872 1365.15 59.872C1363.71 59.872 1362.46 60.76 1361.48 61.912L1360.21 60.688C1361.65 59.128 1363.18 58.096 1365.42 58.096C1368.56 58.096 1370.53 60.136 1370.53 63.28C1370.53 66.808 1367.77 70.384 1363.62 74.296C1364.55 74.2 1365.61 74.128 1366.5 74.128H1371.37V76H1360.33ZM1380.22 76.336C1376.86 76.336 1374.72 73.288 1374.72 67.144C1374.72 61.048 1376.86 58.096 1380.22 58.096C1383.53 58.096 1385.66 61.048 1385.66 67.144C1385.66 73.288 1383.53 76.336 1380.22 76.336ZM1380.22 74.56C1382.21 74.56 1383.55 72.328 1383.55 67.144C1383.55 62.032 1382.21 59.848 1380.22 59.848C1378.2 59.848 1376.83 62.032 1376.83 67.144C1376.83 72.328 1378.2 74.56 1380.22 74.56ZM1394.49 76.336C1391.13 76.336 1388.99 73.288 1388.99 67.144C1388.99 61.048 1391.13 58.096 1394.49 58.096C1397.8 58.096 1399.94 61.048 1399.94 67.144C1399.94 73.288 1397.8 76.336 1394.49 76.336ZM1394.49 74.56C1396.48 74.56 1397.83 72.328 1397.83 67.144C1397.83 62.032 1396.48 59.848 1394.49 59.848C1392.47 59.848 1391.11 62.032 1391.11 67.144C1391.11 72.328 1392.47 74.56 1394.49 74.56Z" fill="#1A1A1A"/>
<path d="M1346.62 101L1347.05 97.352H1345.62V96.328H1347.18L1347.51 93.688H1345.99V92.664H1347.62L1348.04 89.384H1348.98L1348.57 92.664H1350.94L1351.37 89.384H1352.31L1351.9 92.664H1353.34V93.688H1351.78L1351.45 96.328H1352.98V97.352H1351.32L1350.89 101H1349.94L1350.36 97.352H1348.01L1347.56 101H1346.62ZM1348.12 96.328H1350.5L1350.82 93.688H1348.44L1348.12 96.328ZM1359.32 101.224C1357.06 101.224 1355.36 99.4 1355.36 95.736C1355.36 91.144 1357.44 89.4 1359.72 89.4C1360.93 89.4 1361.83 89.912 1362.45 90.584L1361.65 91.496C1361.19 90.952 1360.48 90.616 1359.76 90.616C1358.13 90.616 1356.76 91.896 1356.76 95.736C1356.76 98.552 1357.65 100.072 1359.3 100.072C1360.44 100.072 1361.3 99.064 1361.3 97.56C1361.3 96.072 1360.6 95.128 1359.17 95.128C1358.44 95.128 1357.51 95.576 1356.71 96.76L1356.66 95.592C1357.4 94.632 1358.45 94.04 1359.41 94.04C1361.38 94.04 1362.68 95.224 1362.68 97.56C1362.68 99.752 1361.12 101.224 1359.32 101.224ZM1368.48 101.224C1366.19 101.224 1364.81 99.096 1364.81 95.272C1364.81 91.448 1366.19 89.4 1368.48 89.4C1370.73 89.4 1372.11 91.448 1372.11 95.272C1372.11 99.096 1370.73 101.224 1368.48 101.224ZM1368.48 100.04C1369.81 100.04 1370.7 98.616 1370.7 95.272C1370.7 91.912 1369.81 90.568 1368.48 90.568C1367.13 90.568 1366.22 91.912 1366.22 95.272C1366.22 98.616 1367.13 100.04 1368.48 100.04ZM1378.97 101V93.352C1378.97 92.76 1379.02 91.768 1379.07 91.176H1378.99C1378.7 91.704 1378.38 92.216 1378.06 92.776L1375.39 96.696H1381.91V97.848H1373.85V96.888L1378.73 89.608H1380.35V101H1378.97ZM1384.66 101V89.272H1388.13C1390.52 89.272 1392.16 90.088 1392.16 92.152C1392.16 93.304 1391.56 94.328 1390.45 94.696V94.76C1391.86 95.032 1392.84 95.976 1392.84 97.576C1392.84 99.864 1391.01 101 1388.4 101H1384.66ZM1386.15 94.264H1387.88C1389.89 94.264 1390.71 93.528 1390.71 92.328C1390.71 90.952 1389.78 90.44 1387.96 90.44H1386.15V94.264ZM1386.15 99.832H1388.2C1390.2 99.832 1391.4 99.112 1391.4 97.528C1391.4 96.072 1390.24 95.4 1388.2 95.4H1386.15V99.832ZM1398.66 101.224C1396.38 101.224 1395 99.096 1395 95.272C1395 91.448 1396.38 89.4 1398.66 89.4C1400.92 89.4 1402.3 91.448 1402.3 95.272C1402.3 99.096 1400.92 101.224 1398.66 101.224ZM1398.66 100.04C1399.99 100.04 1400.89 98.616 1400.89 95.272C1400.89 91.912 1399.99 90.568 1398.66 90.568C1397.32 90.568 1396.41 91.912 1396.41 95.272C1396.41 98.616 1397.32 100.04 1398.66 100.04ZM1408.18 101.224C1405.89 101.224 1404.51 99.096 1404.51 95.272C1404.51 91.448 1405.89 89.4 1408.18 89.4C1410.43 89.4 1411.81 91.448 1411.81 95.272C1411.81 99.096 1410.43 101.224 1408.18 101.224ZM1408.18 100.04C1409.51 100.04 1410.4 98.616 1410.4 95.272C1410.4 91.912 1409.51 90.568 1408.18 90.568C1406.83 90.568 1405.92 91.912 1405.92 95.272C1405.92 98.616 1406.83 100.04 1408.18 100.04Z" fill="#1A1A1A"/>
<rect x="1345" y="114" width="108" height="160.112" rx="4" fill="#604B00"/>
<rect x="796.5" y="284.611" width="64" height="23" rx="11.5" fill="white"/>
<rect x="796.5" y="284.611" width="64" height="23" rx="11.5" stroke="#949494"/>
<path d="M812.208 303.335C810.368 303.335 809.232 302.567 808.464 301.719L809.2 300.759C809.888 301.479 810.768 302.119 812.112 302.119C813.504 302.119 814.496 301.271 814.496 299.927C814.496 298.519 813.552 297.591 810.848 297.591V296.455C813.264 296.455 814.08 295.495 814.08 294.215C814.08 293.095 813.328 292.359 812.112 292.359C811.168 292.359 810.336 292.839 809.68 293.511L808.896 292.567C809.776 291.767 810.816 291.175 812.16 291.175C814.128 291.175 815.568 292.247 815.568 294.119C815.568 295.543 814.736 296.487 813.488 296.935V296.999C814.864 297.335 815.984 298.375 815.984 299.991C815.984 302.071 814.304 303.335 812.208 303.335ZM819.723 296.871C819.147 296.871 818.683 296.423 818.683 295.767C818.683 295.095 819.147 294.647 819.723 294.647C820.315 294.647 820.795 295.095 820.795 295.767C820.795 296.423 820.315 296.871 819.723 296.871ZM819.723 303.335C819.147 303.335 818.683 302.871 818.683 302.215C818.683 301.543 819.147 301.095 819.723 301.095C820.315 301.095 820.795 301.543 820.795 302.215C820.795 302.871 820.315 303.335 819.723 303.335ZM824.016 303.111V301.895H826.624V293.159H824.528V292.215C825.584 292.039 826.336 291.767 826.96 291.383H828.08V301.895H830.448V303.111H824.016ZM845.099 296.487C844.267 295.879 843.227 294.855 842.491 293.879L843.451 293.303C844.539 294.711 846.123 296.135 847.563 297.031C846.123 297.943 844.539 299.367 843.451 300.775L842.491 300.199C843.227 299.223 844.267 298.199 845.099 297.591H832.763V296.487H845.099Z" fill="black"/>
<rect x="1027" y="284.611" width="78" height="23" rx="11.5" fill="white"/>
<rect x="1027" y="284.611" width="78" height="23" rx="11.5" stroke="#949494"/>
<path d="M1043.92 303.111V295.127C1043.92 294.535 1043.97 293.591 1044.02 292.983H1043.94C1043.65 293.559 1043.33 294.151 1043.01 294.727L1040.34 298.727H1046.87V299.879H1038.8V298.919L1043.68 291.383H1045.3V303.111H1043.92ZM1050.22 303.335C1049.65 303.335 1049.18 302.871 1049.18 302.215C1049.18 301.543 1049.65 301.095 1050.22 301.095C1050.82 301.095 1051.3 301.543 1051.3 302.215C1051.3 302.871 1050.82 303.335 1050.22 303.335ZM1057.28 303.335C1055.46 303.335 1054.34 302.567 1053.54 301.767L1054.28 300.807C1054.93 301.495 1055.8 302.119 1057.14 302.119C1058.53 302.119 1059.64 301.047 1059.64 299.351C1059.64 297.671 1058.68 296.663 1057.22 296.663C1056.44 296.663 1055.94 296.919 1055.27 297.367L1054.48 296.871L1054.85 291.383H1060.56V292.631H1056.13L1055.83 296.023C1056.36 295.735 1056.88 295.559 1057.59 295.559C1059.54 295.559 1061.12 296.711 1061.12 299.303C1061.12 301.863 1059.25 303.335 1057.28 303.335ZM1064.83 296.871C1064.26 296.871 1063.79 296.423 1063.79 295.767C1063.79 295.095 1064.26 294.647 1064.83 294.647C1065.42 294.647 1065.9 295.095 1065.9 295.767C1065.9 296.423 1065.42 296.871 1064.83 296.871ZM1064.83 303.335C1064.26 303.335 1063.79 302.871 1063.79 302.215C1063.79 301.543 1064.26 301.095 1064.83 301.095C1065.42 301.095 1065.9 301.543 1065.9 302.215C1065.9 302.871 1065.42 303.335 1064.83 303.335ZM1069.12 303.111V301.895H1071.73V293.159H1069.64V292.215C1070.69 292.039 1071.44 291.767 1072.07 291.383H1073.19V301.895H1075.56V303.111H1069.12ZM1090.21 296.487C1089.38 295.879 1088.34 294.855 1087.6 293.879L1088.56 293.303C1089.65 294.711 1091.23 296.135 1092.67 297.031C1091.23 297.943 1089.65 299.367 1088.56 300.775L1087.6 300.199C1088.34 299.223 1089.38 298.199 1090.21 297.591H1077.87V296.487H1090.21Z" fill="black"/>
<rect x="1142.5" y="316.135" width="65" height="24" rx="12" fill="black"/>
<path d="M1157.51 329.615C1158.34 330.223 1159.38 331.247 1160.12 332.223L1159.16 332.799C1158.07 331.391 1156.48 329.967 1155.06 329.055C1156.48 328.159 1158.07 326.735 1159.16 325.327L1160.12 325.903C1159.38 326.879 1158.34 327.903 1157.51 328.511H1169.86V329.615H1157.51ZM1175.35 335.359C1173.51 335.359 1172.37 334.591 1171.6 333.743L1172.34 332.783C1173.03 333.503 1173.91 334.143 1175.25 334.143C1176.64 334.143 1177.64 333.295 1177.64 331.951C1177.64 330.543 1176.69 329.615 1173.99 329.615V328.479C1176.4 328.479 1177.22 327.519 1177.22 326.239C1177.22 325.119 1176.47 324.383 1175.25 324.383C1174.31 324.383 1173.48 324.863 1172.82 325.535L1172.04 324.591C1172.92 323.791 1173.96 323.199 1175.3 323.199C1177.27 323.199 1178.71 324.271 1178.71 326.143C1178.71 327.567 1177.88 328.511 1176.63 328.959V329.023C1178 329.359 1179.12 330.399 1179.12 332.015C1179.12 334.095 1177.44 335.359 1175.35 335.359ZM1182.86 328.895C1182.29 328.895 1181.82 328.447 1181.82 327.791C1181.82 327.119 1182.29 326.671 1182.86 326.671C1183.46 326.671 1183.94 327.119 1183.94 327.791C1183.94 328.447 1183.46 328.895 1182.86 328.895ZM1182.86 335.359C1182.29 335.359 1181.82 334.895 1181.82 334.239C1181.82 333.567 1182.29 333.119 1182.86 333.119C1183.46 333.119 1183.94 333.567 1183.94 334.239C1183.94 334.895 1183.46 335.359 1182.86 335.359ZM1187.16 335.135V333.919H1189.76V325.183H1187.67V324.239C1188.72 324.063 1189.48 323.791 1190.1 323.407H1191.22V333.919H1193.59V335.135H1187.16Z" fill="white"/>
<rect x="1026.5" y="316.135" width="79" height="24" rx="12" fill="black"/>
<path d="M1041.51 329.615C1042.34 330.223 1043.38 331.247 1044.12 332.223L1043.16 332.799C1042.07 331.391 1040.48 329.967 1039.06 329.055C1040.48 328.159 1042.07 326.735 1043.16 325.327L1044.12 325.903C1043.38 326.879 1042.34 327.903 1041.51 328.511H1053.86V329.615H1041.51ZM1060.56 335.135V327.151C1060.56 326.559 1060.61 325.615 1060.66 325.007H1060.58C1060.29 325.583 1059.97 326.175 1059.65 326.751L1056.98 330.751H1063.51V331.903H1055.44V330.943L1060.32 323.407H1061.94V335.135H1060.56ZM1066.86 335.359C1066.29 335.359 1065.82 334.895 1065.82 334.239C1065.82 333.567 1066.29 333.119 1066.86 333.119C1067.46 333.119 1067.94 333.567 1067.94 334.239C1067.94 334.895 1067.46 335.359 1066.86 335.359ZM1073.92 335.359C1072.1 335.359 1070.98 334.591 1070.18 333.791L1070.92 332.831C1071.57 333.519 1072.44 334.143 1073.78 334.143C1075.17 334.143 1076.28 333.071 1076.28 331.375C1076.28 329.695 1075.32 328.687 1073.86 328.687C1073.08 328.687 1072.58 328.943 1071.91 329.391L1071.12 328.895L1071.49 323.407H1077.2V324.655H1072.77L1072.47 328.047C1073 327.759 1073.52 327.583 1074.23 327.583C1076.18 327.583 1077.76 328.735 1077.76 331.327C1077.76 333.887 1075.89 335.359 1073.92 335.359ZM1081.47 328.895C1080.9 328.895 1080.43 328.447 1080.43 327.791C1080.43 327.119 1080.9 326.671 1081.47 326.671C1082.06 326.671 1082.54 327.119 1082.54 327.791C1082.54 328.447 1082.06 328.895 1081.47 328.895ZM1081.47 335.359C1080.9 335.359 1080.43 334.895 1080.43 334.239C1080.43 333.567 1080.9 333.119 1081.47 333.119C1082.06 333.119 1082.54 333.567 1082.54 334.239C1082.54 334.895 1082.06 335.359 1081.47 335.359ZM1085.76 335.135V333.919H1088.37V325.183H1086.28V324.239C1087.33 324.063 1088.08 323.791 1088.71 323.407H1089.83V333.919H1092.2V335.135H1085.76Z" fill="white"/>
<path d="M5.32 16V10.58L0.88 1.18H4.02L5.5 4.8C5.92 5.9 6.32 6.94 6.78 8.08H6.86C7.32 6.94 7.76 5.9 8.18 4.8L9.66 1.18H12.74L8.28 10.58V16H5.32ZM17.9288 16.28C14.7888 16.28 12.3488 14.1 12.3488 10.4C12.3488 6.78 14.9088 4.52 17.5688 4.52C20.6488 4.52 22.2488 6.78 22.2488 9.86C22.2488 10.42 22.1888 10.96 22.1088 11.22H15.2088C15.4488 13.06 16.6488 14.02 18.3088 14.02C19.2288 14.02 20.0288 13.74 20.8288 13.24L21.8288 15.04C20.7288 15.8 19.3088 16.28 17.9288 16.28ZM15.1688 9.26H19.7288C19.7288 7.76 19.0488 6.8 17.6088 6.8C16.4288 6.8 15.3888 7.64 15.1688 9.26ZM27.4298 16.28C25.3898 16.28 24.6698 14.94 24.6698 12.86V0.0399992H27.6098V12.98C27.6098 13.66 27.9098 13.88 28.1898 13.88C28.3098 13.88 28.3898 13.88 28.5898 13.84L28.9498 16.02C28.6098 16.16 28.1298 16.28 27.4298 16.28ZM33.7384 16.28C31.6984 16.28 30.9784 14.94 30.9784 12.86V0.0399992H33.9184V12.98C33.9184 13.66 34.2184 13.88 34.4984 13.88C34.6184 13.88 34.6984 13.88 34.8984 13.84L35.2584 16.02C34.9184 16.16 34.4384 16.28 33.7384 16.28ZM41.967 16.28C39.167 16.28 36.587 14.12 36.587 10.4C36.587 6.68 39.167 4.52 41.967 4.52C44.767 4.52 47.347 6.68 47.347 10.4C47.347 14.12 44.767 16.28 41.967 16.28ZM41.967 13.88C43.487 13.88 44.347 12.52 44.347 10.4C44.347 8.3 43.487 6.92 41.967 6.92C40.447 6.92 39.587 8.3 39.587 10.4C39.587 12.52 40.447 13.88 41.967 13.88ZM51.5103 16L48.6103 4.8H51.5503L52.7703 10.32C52.9903 11.42 53.1303 12.48 53.3303 13.6H53.4103C53.6303 12.48 53.8303 11.4 54.1103 10.32L55.4703 4.8H58.0703L59.4703 10.32C59.7303 11.42 59.9303 12.48 60.1703 13.6H60.2703C60.4703 12.48 60.6303 11.42 60.8303 10.32L62.0503 4.8H64.7703L62.0103 16H58.5503L57.3703 11.12C57.1303 10.06 56.9503 9.04 56.7303 7.86H56.6303C56.4103 9.04 56.2503 10.08 56.0103 11.12L54.8703 16H51.5103Z" fill="#1A1A1A"/>
</svg>
