<svg width="1280" height="336" viewBox="0 0 1280 336" fill="none" xmlns="http://www.w3.org/2000/svg">
<rect width="1280" height="336" fill="white"/>
<path opacity="0.9" d="M75.08 66.48C74.88 66.74 74.5 67.22 74.32 67.5C73.38 69.06 71.48 71.6 69.5 73L67.42 71.34C69.04 70.36 70.6 68.6 71.12 67.62C69.9 67.62 61.94 67.62 60.68 67.62C59.86 67.62 59.18 67.66 58.24 67.76V64.96C59.02 65.08 59.86 65.18 60.68 65.18C61.94 65.18 70.42 65.18 71.46 65.18C72.02 65.18 73.12 65.1 73.5 65L75.08 66.48ZM66.94 69.16C66.94 74.12 66.82 78.2 61.38 81.14L59.04 79.24C59.7 79.02 60.42 78.68 61.16 78.12C63.68 76.36 64.16 74.26 64.16 70.98C64.16 70.34 64.14 69.82 64.04 69.16H66.94ZM77.0439 72.24C80.6239 71.32 83.5439 70.02 85.7839 68.64C87.8239 67.38 90.1039 65.38 91.4039 63.8L93.5639 65.84C91.7439 67.68 89.3039 69.56 86.9439 70.98C84.6839 72.32 81.4439 73.82 78.2839 74.76L77.0439 72.24ZM85.3639 69.94L88.2039 69.26V78.28C88.2039 79.16 88.2439 80.4 88.3839 80.9H85.2039C85.2839 80.42 85.3639 79.16 85.3639 78.28V69.94ZM99.7239 65.8C100.484 65.88 101.504 65.94 102.204 65.94H112.284C112.864 65.94 113.684 65.9 114.024 65.88C114.004 66.36 113.964 67.14 113.964 67.74V78.1C113.964 78.8 114.024 79.84 114.064 80.46H111.164C111.184 79.86 111.204 79.14 111.204 78.4V68.52H102.204C101.364 68.52 100.284 68.56 99.7239 68.6V65.8ZM99.4839 76.66C100.164 76.72 101.064 76.78 101.964 76.78H112.784V79.42H102.044C101.264 79.42 100.144 79.46 99.4839 79.54V76.66ZM122.224 64.8C123.604 65.74 126.204 67.82 127.384 69.04L125.344 71.12C124.304 70 121.784 67.82 120.324 66.82L122.224 64.8ZM119.704 78.12C122.844 77.68 125.424 76.66 127.364 75.52C130.784 73.48 133.384 70.44 134.664 67.74L136.204 70.54C134.704 73.26 132.044 76.02 128.824 77.96C126.784 79.18 124.204 80.28 121.404 80.76L119.704 78.12ZM150.024 66.3C149.744 68.34 149.344 70.68 148.644 73.04C147.444 77.08 145.724 79.56 143.544 79.56C141.304 79.56 139.464 77.1 139.464 73.72C139.464 69.12 143.484 65.16 148.664 65.16C153.604 65.16 156.744 68.6 156.744 72.98C156.744 77.18 154.164 80.16 149.124 80.94L147.604 78.58C148.384 78.48 148.944 78.38 149.484 78.26C152.024 77.64 154.024 75.82 154.024 72.88C154.024 69.74 152.064 67.5 148.604 67.5C144.364 67.5 142.044 70.96 142.044 73.48C142.044 75.5 142.844 76.48 143.604 76.48C144.464 76.48 145.224 75.2 146.064 72.5C146.644 70.62 147.084 68.32 147.284 66.22L150.024 66.3ZM165.624 64.98H178.384V67.16H165.624V64.98ZM168.244 70.52V72.5H175.544V70.52H168.244ZM166.064 68.56H177.844V74.46H166.064V68.56ZM167.944 74.66C169.724 77.54 173.504 79.16 178.684 79.64C178.184 80.16 177.584 81.12 177.284 81.78C171.864 81.04 168.164 79.02 165.984 75.26L167.944 74.66ZM170.684 63.14H173.044V72.28C173.044 76.36 172.024 80.08 166.284 81.8C166.004 81.26 165.304 80.3 164.784 79.8C170.164 78.6 170.684 75.54 170.684 72.26V63.14ZM164.104 62.96L166.344 63.68C164.984 67.08 162.784 70.66 160.504 72.92C160.304 72.36 159.664 71.04 159.264 70.46C161.164 68.66 163.024 65.82 164.104 62.96ZM162.164 68.54L164.424 66.26L164.444 66.28V81.84H162.164V68.54ZM184.004 64.36H196.284V66.64H184.004V64.36ZM184.004 68.96H196.324V71.2H184.004V68.96ZM183.964 73.68H196.404V75.94H183.964V73.68ZM182.624 64.36H185.004V71.56C185.004 74.74 184.604 79.24 182.144 81.92C181.764 81.46 180.784 80.66 180.264 80.36C182.444 77.94 182.624 74.36 182.624 71.54V64.36ZM195.444 64.36H197.824V78.98C197.824 80.26 197.544 80.9 196.744 81.28C195.904 81.66 194.704 81.7 192.884 81.68C192.784 81.04 192.424 80 192.104 79.38C193.244 79.46 194.564 79.44 194.924 79.44C195.304 79.42 195.444 79.3 195.444 78.96V64.36ZM188.784 65.26H191.224V81.56H188.784V65.26Z" fill="#1A1A1A"/>
<path opacity="0.9" d="M68.016 118.36C68.416 118.936 68.976 119.864 69.296 120.504L68.432 120.888C68.112 120.248 67.6 119.336 67.168 118.728L68.016 118.36ZM69.904 117.912C70.336 118.504 70.928 119.448 71.232 120.04L70.368 120.424C70.016 119.72 69.52 118.872 69.072 118.28L69.904 117.912ZM64.656 118.68C64.624 118.904 64.56 119.48 64.56 119.816C64.56 120.664 64.56 122.008 64.56 122.792C64.56 124.088 64.56 129.272 64.56 130.424C64.56 131.256 64.16 131.688 63.184 131.688C62.512 131.688 61.568 131.656 60.912 131.576L60.8 130.312C61.504 130.44 62.224 130.488 62.656 130.488C63.088 130.488 63.264 130.312 63.264 129.88C63.28 129.016 63.28 123.544 63.28 122.792C63.28 122.248 63.28 120.664 63.28 119.816C63.28 119.464 63.216 118.92 63.168 118.68H64.656ZM57.472 121.368C57.92 121.432 58.32 121.464 58.816 121.464C59.76 121.464 67.84 121.464 68.8 121.464C69.168 121.464 69.696 121.432 70.096 121.384V122.712C69.68 122.68 69.2 122.664 68.816 122.664C67.856 122.664 59.808 122.664 58.832 122.664C58.336 122.664 57.888 122.68 57.472 122.728V121.368ZM61.152 125.144C60.464 126.504 58.976 128.552 58.064 129.528L56.96 128.776C58.032 127.8 59.392 125.896 60.016 124.6L61.152 125.144ZM67.824 124.6C68.688 125.624 69.952 127.624 70.592 128.792L69.424 129.448C68.784 128.184 67.584 126.2 66.736 125.192L67.824 124.6ZM79.28 123.672C81.328 124.872 83.952 126.712 85.536 127.992L84.592 129.112C83.12 127.768 80.384 125.8 78.4 124.568L79.28 123.672ZM86.592 120.76C86.464 120.984 86.304 121.352 86.224 121.608C85.744 123.24 84.736 125.368 83.328 127.096C81.872 128.888 79.792 130.6 76.752 131.72L75.616 130.712C78.592 129.816 80.768 128.12 82.208 126.408C83.44 124.936 84.448 122.904 84.816 121.416H78.896L79.408 120.264H84.496C84.928 120.264 85.28 120.216 85.536 120.12L86.592 120.76ZM81.2 118.44C80.928 118.856 80.64 119.4 80.48 119.704C79.536 121.464 77.728 123.88 75.168 125.64L74.112 124.824C76.848 123.112 78.496 120.712 79.232 119.24C79.392 118.968 79.648 118.392 79.744 117.976L81.2 118.44ZM92.912 119.288C94.032 120.04 96.096 121.704 96.976 122.584L95.984 123.608C95.168 122.776 93.184 121.048 91.984 120.264L92.912 119.288ZM91.536 130.008C94.32 129.592 96.4 128.616 97.92 127.672C100.4 126.12 102.336 123.752 103.264 121.768L104.032 123.144C102.944 125.128 101.088 127.304 98.672 128.824C97.056 129.832 95.04 130.824 92.368 131.32L91.536 130.008ZM113.2 120.2C114.944 120.504 118.192 120.44 119.776 120.2V121.496C118.064 121.688 114.96 121.688 113.216 121.496L113.2 120.2ZM113.824 126.728C113.68 127.304 113.6 127.752 113.6 128.184C113.6 128.92 114.112 129.64 116.304 129.64C117.728 129.64 118.976 129.512 120.256 129.208L120.288 130.552C119.296 130.76 117.952 130.888 116.288 130.888C113.616 130.888 112.416 129.992 112.416 128.488C112.416 127.96 112.496 127.384 112.672 126.616L113.824 126.728ZM110.16 118.968C110.064 119.24 109.936 119.752 109.872 120.04C109.568 121.528 109.072 124.376 109.072 126.184C109.072 126.952 109.12 127.624 109.216 128.408C109.488 127.688 109.856 126.728 110.128 126.072L110.8 126.6C110.4 127.736 109.808 129.416 109.664 130.184C109.616 130.408 109.584 130.712 109.584 130.904C109.6 131.064 109.616 131.288 109.632 131.464L108.496 131.544C108.176 130.408 107.904 128.568 107.904 126.392C107.904 124.04 108.432 121.304 108.624 119.976C108.672 119.608 108.72 119.208 108.736 118.856L110.16 118.968ZM137.456 120.2C137.328 120.344 137.136 120.584 137.024 120.76C136.384 121.848 134.864 123.912 133.04 125.176L131.968 124.328C133.456 123.48 134.96 121.752 135.472 120.76C134.352 120.76 127.12 120.76 126.352 120.76C125.76 120.76 125.168 120.792 124.544 120.84V119.4C125.104 119.48 125.76 119.544 126.352 119.544C127.12 119.544 134.592 119.544 135.552 119.544C135.856 119.544 136.432 119.496 136.656 119.432L137.456 120.2ZM131.056 122.296C131.056 126.632 130.672 129.56 126.592 131.608L125.424 130.648C125.856 130.504 126.416 130.232 126.864 129.928C129.328 128.408 129.68 126.136 129.68 123.464C129.68 123.08 129.68 122.728 129.616 122.296H131.056ZM139.779 125.224C142.547 124.488 144.979 123.352 146.755 122.248C148.435 121.192 150.035 119.816 151.139 118.472L152.211 119.48C150.835 120.904 149.155 122.248 147.283 123.416C145.523 124.504 142.979 125.672 140.403 126.472L139.779 125.224ZM146.499 122.904L147.875 122.488V129.8C147.875 130.392 147.907 131.192 147.987 131.496H146.403C146.451 131.192 146.499 130.392 146.499 129.8V122.904ZM157.779 120.04C158.323 120.088 159.011 120.136 159.539 120.136H167.411C167.811 120.136 168.275 120.12 168.595 120.104C168.579 120.456 168.563 120.968 168.563 121.336V129.608C168.563 130.184 168.611 130.904 168.627 131.144H167.187C167.187 130.904 167.219 130.312 167.219 129.736V121.4H159.539C158.947 121.4 158.163 121.432 157.779 121.464V120.04ZM157.587 128.872C157.987 128.904 158.691 128.952 159.347 128.952H167.939V130.264H159.395C158.739 130.264 158.019 130.28 157.587 130.328V128.872ZM175.315 119.288C176.435 120.04 178.499 121.704 179.379 122.584L178.387 123.608C177.571 122.776 175.587 121.048 174.387 120.264L175.315 119.288ZM173.939 130.008C176.723 129.592 178.803 128.616 180.323 127.672C182.803 126.12 184.739 123.752 185.667 121.768L186.435 123.144C185.347 125.128 183.491 127.304 181.075 128.824C179.459 129.832 177.443 130.824 174.771 131.32L173.939 130.008ZM195.683 118.36C195.539 118.984 195.363 119.864 194.947 120.936C194.547 121.912 193.955 122.984 193.315 123.816C193.939 123.448 194.851 123.224 195.555 123.224C196.787 123.224 197.747 123.96 197.747 125.256C197.747 126.088 197.779 127.928 197.795 128.92H196.563C196.627 128.072 196.643 126.424 196.627 125.592C196.611 124.664 195.971 124.232 195.139 124.232C194.115 124.232 193.107 124.744 192.371 125.4C191.907 125.848 191.459 126.424 190.931 127.08L189.827 126.264C192.131 124.056 193.203 122.2 193.747 120.84C194.099 119.96 194.323 119 194.371 118.248L195.683 118.36ZM190.195 120.088C191.059 120.2 192.163 120.248 192.899 120.248C195.059 120.248 197.827 120.12 200.083 119.72V120.904C197.843 121.24 194.867 121.384 192.835 121.384C192.147 121.384 191.091 121.352 190.195 121.288V120.088ZM202.419 123.944C202.019 124.072 201.443 124.296 201.011 124.456C199.875 124.904 198.355 125.512 196.803 126.312C195.219 127.144 194.099 128.008 194.099 129.112C194.099 130.36 195.331 130.552 196.979 130.552C198.227 130.552 199.955 130.408 201.363 130.152L201.315 131.448C200.099 131.592 198.323 131.72 196.931 131.72C194.659 131.72 192.819 131.224 192.819 129.288C192.819 127.336 194.803 126.136 196.707 125.16C198.227 124.376 199.523 123.88 200.579 123.384C201.059 123.16 201.459 122.984 201.907 122.76L202.419 123.944ZM209.139 123.88V129.544H207.971V125H205.731V123.88H209.139ZM209.139 129.016C209.891 130.2 211.315 130.744 213.155 130.824C214.899 130.888 218.499 130.84 220.387 130.712C220.259 131 220.051 131.576 220.003 131.944C218.243 132.008 214.931 132.04 213.155 131.976C211.075 131.896 209.635 131.336 208.611 130.072C207.843 130.76 207.027 131.448 206.163 132.152L205.523 130.92C206.291 130.408 207.235 129.704 208.051 129.016H209.139ZM205.907 118.68L206.787 117.96C207.843 118.632 209.043 119.672 209.603 120.456L208.659 121.24C208.147 120.472 206.947 119.384 205.907 118.68ZM211.507 119.24H218.611V123.432H211.507V122.408H217.443V120.248H211.507V119.24ZM214.115 117.512L215.491 117.736C215.187 118.52 214.835 119.336 214.563 119.88L213.459 119.64C213.699 119.032 213.987 118.136 214.115 117.512ZM210.931 119.24H212.099V129.512H210.931V119.24ZM211.571 124.952H219.251V129.512H211.571V128.472H218.067V125.976H211.571V124.952ZM231.283 129.704H235.635V130.872H231.283V129.704ZM222.451 120.6H228.595V121.768H222.451V120.6ZM230.739 119.56H236.211V131.928H234.995V120.712H231.907V132.04H230.739V119.56ZM228.275 120.6H229.443C229.443 120.6 229.443 121.048 229.443 121.208C229.315 128.328 229.203 130.664 228.691 131.368C228.403 131.784 228.115 131.928 227.635 131.976C227.187 132.04 226.451 132.04 225.731 131.992C225.715 131.64 225.587 131.112 225.379 130.776C226.131 130.84 226.819 130.84 227.123 130.84C227.363 130.856 227.507 130.808 227.651 130.6C228.019 130.104 228.163 127.736 228.275 120.888V120.6ZM224.723 117.784H225.891C225.875 123.688 225.795 129.24 222.979 132.296C222.771 132.024 222.355 131.656 222.051 131.48C224.723 128.664 224.707 123.384 224.723 117.784ZM248.275 118.328C248.243 118.52 248.195 119.144 248.195 119.336C248.147 120.376 248.179 123.464 248.195 124.744L246.979 124.12C246.979 123.416 246.963 120.232 246.915 119.352C246.883 118.92 246.835 118.472 246.803 118.328H248.275ZM239.763 120.568C241.939 120.536 245.939 120.392 248.403 120.392C250.355 120.392 252.339 120.392 253.091 120.408L253.075 121.592C252.179 121.544 250.739 121.512 248.387 121.512C245.635 121.512 242.211 121.624 239.795 121.8L239.763 120.568ZM248.163 125.208C248.163 127.352 247.171 128.424 245.715 128.424C244.371 128.424 243.075 127.48 243.075 125.736C243.075 124.152 244.387 122.968 245.907 122.968C247.763 122.968 248.707 124.344 248.707 126.184C248.707 128.36 247.651 130.76 243.939 131.864L242.867 130.824C245.779 130.136 247.475 128.712 247.475 126.072C247.475 124.632 246.771 124.024 245.907 124.024C245.059 124.024 244.275 124.68 244.275 125.72C244.275 126.728 245.027 127.304 245.907 127.304C246.899 127.304 247.539 126.472 247.283 124.76L248.163 125.208ZM258.691 119.224C259.043 119.256 259.491 119.272 259.811 119.272C260.659 119.272 264.451 119.16 265.299 119.08C265.779 119.032 266.003 119 266.179 118.936L266.915 119.88C266.627 120.072 266.307 120.28 266.003 120.52C265.219 121.128 263.043 123 261.795 124.024C262.531 123.784 263.299 123.704 264.019 123.704C266.675 123.704 268.579 125.288 268.579 127.448C268.579 130.024 266.451 131.704 263.059 131.704C260.883 131.704 259.555 130.76 259.555 129.416C259.555 128.328 260.547 127.336 262.019 127.336C264.147 127.336 265.219 128.84 265.331 130.456L264.179 130.648C264.083 129.288 263.299 128.312 262.019 128.312C261.283 128.312 260.723 128.76 260.723 129.32C260.723 130.104 261.603 130.568 262.867 130.568C265.587 130.568 267.299 129.448 267.299 127.448C267.299 125.864 265.795 124.696 263.699 124.696C261.043 124.696 259.603 125.816 257.587 127.88L256.659 126.952C257.987 125.864 260.051 124.136 260.963 123.352C261.859 122.616 263.875 120.936 264.675 120.216C263.827 120.264 260.627 120.392 259.795 120.44C259.427 120.472 259.075 120.488 258.723 120.536L258.691 119.224ZM275.267 119.784C276.419 119.912 277.891 119.976 279.507 119.976C281.043 119.976 282.659 119.88 283.811 119.752V121.064C282.723 121.144 280.979 121.256 279.507 121.256C277.907 121.256 276.531 121.192 275.267 121.08V119.784ZM275.907 126.232C275.715 126.856 275.587 127.448 275.587 128.04C275.587 129.272 276.835 130.104 279.395 130.104C281.587 130.104 283.651 129.864 284.867 129.48L284.883 130.856C283.731 131.16 281.699 131.4 279.427 131.4C276.179 131.4 274.291 130.344 274.291 128.328C274.291 127.496 274.467 126.744 274.611 126.104L275.907 126.232ZM301.171 121.464C300.819 121.672 300.419 121.896 299.939 122.136C298.867 122.696 296.643 123.752 295.075 124.776C293.587 125.752 292.691 126.808 292.691 128.008C292.691 129.336 293.971 130.168 296.499 130.168C298.227 130.168 300.371 129.944 301.619 129.624L301.603 131.064C300.403 131.272 298.547 131.448 296.547 131.448C293.539 131.448 291.363 130.552 291.363 128.152C291.363 126.424 292.531 125.064 294.419 123.816C296.051 122.728 298.291 121.656 299.331 121.064C299.795 120.792 300.147 120.584 300.483 120.312L301.171 121.464ZM293.075 118.552C293.811 120.6 294.803 122.6 295.539 123.896L294.451 124.552C293.635 123.24 292.675 121.08 291.811 119.096L293.075 118.552ZM57.248 148.472C57.856 148.456 58.368 148.424 58.688 148.392C59.712 148.28 62.736 147.992 65.68 147.736C67.44 147.592 68.928 147.496 70 147.464L70.016 148.744C69.088 148.728 67.696 148.76 66.88 148.984C64.592 149.72 63.2 152.168 63.2 154.056C63.2 157.176 66.128 158.184 68.72 158.28L68.256 159.592C65.296 159.48 61.936 157.912 61.936 154.328C61.936 151.848 63.456 149.8 64.912 148.936C63.2 149.112 59.12 149.512 57.392 149.88L57.248 148.472ZM67.696 150.696C68.064 151.224 68.672 152.216 69.024 152.936L68.192 153.304C67.824 152.536 67.376 151.72 66.896 151.048L67.696 150.696ZM69.44 150.024C69.84 150.552 70.464 151.528 70.832 152.232L70.016 152.632C69.632 151.864 69.152 151.064 68.656 150.392L69.44 150.024ZM76.3674 159.896C75.3274 158.632 73.9514 157.272 72.8154 156.344L73.8554 155.432C75.0074 156.36 76.4474 157.8 77.4554 158.968L76.3674 159.896ZM92.8154 147.064C93.2154 147.096 93.5994 147.112 94.0954 147.112C94.7994 147.112 98.0954 146.968 99.0074 146.872C99.3914 146.84 99.6954 146.776 99.8874 146.712L100.687 147.624C100.479 147.768 100.063 148.04 99.8394 148.232C98.6394 149.208 96.3354 151.144 95.0554 152.168C97.4874 151.896 100.367 151.688 102.655 151.688L102.671 152.872C101.103 152.792 99.5674 152.808 98.6074 152.952C97.0554 153.176 95.5194 154.488 95.5194 155.992C95.5194 157.608 96.8154 158.152 98.2874 158.36C99.2314 158.472 99.9994 158.44 100.575 158.392L100.319 159.704C96.3994 159.864 94.2714 158.648 94.2714 156.184C94.2714 154.824 95.3114 153.656 96.1434 153.16C94.4314 153.304 92.2874 153.56 90.3674 153.88L90.2554 152.68C91.1194 152.584 92.2074 152.456 93.0234 152.36C94.7674 151.144 97.2954 148.92 98.3194 148.024C97.5994 148.072 94.7994 148.2 94.1114 148.264C93.6954 148.296 93.2314 148.344 92.8794 148.376L92.8154 147.064ZM114.287 148.088C114.079 149.752 113.759 151.624 113.263 153.336C112.287 156.616 111.007 158.312 109.535 158.312C108.095 158.312 106.671 156.68 106.671 154.024C106.671 150.552 109.759 147.528 113.679 147.528C117.423 147.528 119.807 150.168 119.807 153.416C119.807 156.76 117.599 159 113.791 159.496L113.055 158.312C113.567 158.264 114.047 158.2 114.431 158.12C116.479 157.656 118.495 156.12 118.495 153.352C118.495 150.792 116.719 148.68 113.647 148.68C110.127 148.68 107.935 151.576 107.935 153.928C107.935 155.944 108.847 156.84 109.567 156.84C110.319 156.84 111.183 155.752 111.999 153.048C112.463 151.528 112.799 149.72 112.959 148.056L114.287 148.088ZM136.815 148.2C136.687 148.344 136.495 148.584 136.383 148.76C135.743 149.848 134.223 151.912 132.399 153.176L131.327 152.328C132.815 151.48 134.319 149.752 134.831 148.76C133.711 148.76 126.479 148.76 125.711 148.76C125.119 148.76 124.527 148.792 123.903 148.84V147.4C124.463 147.48 125.119 147.544 125.711 147.544C126.479 147.544 133.951 147.544 134.911 147.544C135.215 147.544 135.791 147.496 136.015 147.432L136.815 148.2ZM130.415 150.296C130.415 154.632 130.031 157.56 125.951 159.608L124.783 158.648C125.215 158.504 125.775 158.232 126.223 157.928C128.687 156.408 129.039 154.136 129.039 151.464C129.039 151.08 129.039 150.728 128.975 150.296H130.415ZM151.698 149C151.57 149.224 151.41 149.592 151.33 149.848C150.898 151.464 149.922 153.624 148.498 155.368C147.042 157.144 145.122 158.6 142.13 159.72L140.962 158.664C143.906 157.8 145.89 156.36 147.362 154.648C148.594 153.192 149.586 151.112 149.906 149.656H143.986L144.498 148.504C145.138 148.504 149.09 148.504 149.586 148.504C150.018 148.504 150.386 148.456 150.642 148.36L151.698 149ZM146.338 146.584C146.082 147 145.794 147.544 145.634 147.832C144.69 149.608 143.026 151.896 140.45 153.592L139.33 152.776C142.098 151.128 143.666 148.792 144.37 147.368C144.53 147.08 144.77 146.504 144.866 146.088L146.338 146.584ZM159.202 146.712C160.146 147.24 161.986 148.472 162.69 148.984L161.938 150.072C161.17 149.48 159.426 148.328 158.498 147.8L159.202 146.712ZM156.802 158.152C158.562 157.848 160.546 157.208 162.178 156.296C164.834 154.776 166.946 152.68 168.226 150.424L169.01 151.752C167.618 153.896 165.41 155.96 162.85 157.464C161.234 158.408 159.026 159.144 157.554 159.448L156.802 158.152ZM156.802 150.312C157.746 150.824 159.618 151.976 160.306 152.472L159.57 153.592C158.786 153.016 157.058 151.912 156.082 151.4L156.802 150.312ZM174.595 150.232C174.899 150.264 175.811 150.28 176.243 150.28C177.139 150.28 181.123 150.28 182.419 150.28C182.787 150.28 183.187 150.264 183.411 150.264C183.395 150.44 183.395 150.776 183.395 151.08C183.395 151.64 183.395 157.688 183.395 159.048C183.395 159.304 183.411 159.672 183.411 159.912H182.147C182.163 159.72 182.163 159.336 182.163 159C182.163 157.32 182.163 151.912 182.163 151.432C181.635 151.432 177.123 151.432 176.243 151.432C175.811 151.432 174.899 151.464 174.595 151.464V150.232ZM174.947 154.024C175.267 154.056 175.843 154.088 176.387 154.088C177.203 154.088 182.323 154.088 182.787 154.088V155.24C182.323 155.24 177.203 155.24 176.387 155.24C175.843 155.24 175.267 155.24 174.947 155.272V154.024ZM174.419 158.008C174.675 158.04 175.171 158.072 175.731 158.072C176.643 158.072 182.099 158.072 182.803 158.072V159.256C182.003 159.256 176.643 159.256 175.731 159.256C175.235 159.256 174.675 159.288 174.419 159.288V158.008ZM191.314 147.288C192.434 148.04 194.498 149.704 195.378 150.584L194.386 151.608C193.57 150.776 191.586 149.048 190.386 148.264L191.314 147.288ZM189.938 158.008C192.722 157.592 194.802 156.616 196.322 155.672C198.802 154.12 200.738 151.752 201.666 149.768L202.434 151.144C201.346 153.128 199.49 155.304 197.074 156.824C195.458 157.832 193.442 158.824 190.77 159.32L189.938 158.008ZM213.33 148.088C213.122 149.752 212.802 151.624 212.306 153.336C211.33 156.616 210.05 158.312 208.578 158.312C207.138 158.312 205.714 156.68 205.714 154.024C205.714 150.552 208.802 147.528 212.722 147.528C216.466 147.528 218.85 150.168 218.85 153.416C218.85 156.76 216.642 159 212.834 159.496L212.098 158.312C212.61 158.264 213.09 158.2 213.474 158.12C215.522 157.656 217.538 156.12 217.538 153.352C217.538 150.792 215.762 148.68 212.69 148.68C209.17 148.68 206.978 151.576 206.978 153.928C206.978 155.944 207.89 156.84 208.61 156.84C209.362 156.84 210.226 155.752 211.042 153.048C211.506 151.528 211.842 149.72 212.002 148.056L213.33 148.088ZM225.074 154.888H232.914V153.8H225.074V154.888ZM225.074 153H232.914V151.944H225.074V153ZM234.114 151.112V155.704H223.922V151.112H234.114ZM232.786 147.736C232.434 148.408 232.082 149.032 231.778 149.512L230.706 149.224C230.994 148.728 231.362 147.976 231.554 147.464L232.786 147.736ZM226.338 147.48C226.674 148.024 226.994 148.744 227.106 149.208L225.97 149.512C225.858 149 225.57 148.28 225.25 147.736L226.338 147.48ZM229.538 145.56V147.304H228.322V145.56H229.538ZM235.874 149.336V150.312H222.114V149.336H235.874ZM235.042 146.632V147.608H222.834V146.632H235.042ZM224.898 156.888C224.45 158.04 223.746 159.224 222.562 159.928L221.634 159.288C222.738 158.664 223.49 157.576 223.906 156.504L224.898 156.888ZM233.458 156.376C234.546 157.176 235.778 158.344 236.322 159.208L235.346 159.816C234.818 158.968 233.634 157.752 232.546 156.92L233.458 156.376ZM228.082 155.688C228.978 156.152 230.13 156.856 230.722 157.368L230.018 158.088C229.442 157.576 228.322 156.824 227.41 156.328L228.082 155.688ZM226.882 158.696C226.882 159.064 227.026 159.128 227.858 159.128C228.242 159.128 230.178 159.128 230.69 159.128C231.378 159.128 231.474 158.936 231.554 157.528C231.81 157.688 232.29 157.848 232.594 157.928C232.466 159.72 232.098 160.152 230.802 160.152C230.45 160.152 228.114 160.152 227.778 160.152C226.13 160.152 225.714 159.848 225.714 158.696V156.632H226.882V158.696ZM243.554 152.072H252.818V153.224H243.554V152.072ZM244.178 148.2H252.146V149.352H244.178V148.2ZM247.442 145.656H248.642V160.264H247.442V145.656ZM247.186 152.696L248.146 153C247.138 155.624 245.314 158.072 243.346 159.352C243.154 159.064 242.802 158.648 242.514 158.408C244.45 157.32 246.258 155.032 247.186 152.696ZM248.914 152.68C249.762 154.904 251.378 157.208 253.01 158.344C252.722 158.568 252.322 159.016 252.114 159.336C250.482 157.976 248.882 155.448 247.986 153L248.914 152.68ZM239.362 147.032H242.978V156.344H239.362V155.192H241.874V148.184H239.362V147.032ZM238.77 147.032H239.874V157.608H238.77V147.032ZM261.602 146.36C261.458 146.984 261.282 147.864 260.866 148.936C260.466 149.912 259.874 150.984 259.234 151.816C259.858 151.448 260.77 151.224 261.474 151.224C262.706 151.224 263.666 151.96 263.666 153.256C263.666 154.088 263.698 155.928 263.714 156.92H262.482C262.546 156.072 262.562 154.424 262.546 153.592C262.53 152.664 261.89 152.232 261.058 152.232C260.034 152.232 259.026 152.744 258.29 153.4C257.826 153.848 257.378 154.424 256.85 155.08L255.746 154.264C258.05 152.056 259.122 150.2 259.666 148.84C260.018 147.96 260.242 147 260.29 146.248L261.602 146.36ZM256.114 148.088C256.978 148.2 258.082 148.248 258.818 148.248C260.978 148.248 263.746 148.12 266.002 147.72V148.904C263.762 149.24 260.786 149.384 258.754 149.384C258.066 149.384 257.01 149.352 256.114 149.288V148.088ZM268.338 151.944C267.938 152.072 267.362 152.296 266.93 152.456C265.794 152.904 264.274 153.512 262.722 154.312C261.138 155.144 260.018 156.008 260.018 157.112C260.018 158.36 261.25 158.552 262.898 158.552C264.146 158.552 265.874 158.408 267.282 158.152L267.234 159.448C266.018 159.592 264.242 159.72 262.85 159.72C260.578 159.72 258.738 159.224 258.738 157.288C258.738 155.336 260.722 154.136 262.626 153.16C264.146 152.376 265.442 151.88 266.498 151.384C266.978 151.16 267.378 150.984 267.826 150.76L268.338 151.944ZM279.331 157.864C282.035 157.464 284.467 156.216 284.451 153.464C284.451 152.232 283.475 150.6 281.347 150.6C279.299 150.6 277.459 151.736 275.907 153.352V151.928C277.827 150.12 279.859 149.448 281.539 149.448C283.763 149.448 285.731 151 285.731 153.48C285.747 156.712 283.395 158.392 279.907 159.064L279.331 157.864ZM275.715 150.152C275.203 150.216 273.459 150.44 272.275 150.616L272.131 149.288C272.483 149.304 272.787 149.304 273.187 149.272C274.035 149.224 276.019 148.984 276.771 148.744L277.235 149.288C276.963 149.704 276.531 150.392 276.259 150.84L275.779 153.032C275.043 154.168 273.555 156.328 272.547 157.72L271.747 156.632C272.739 155.384 274.899 152.44 275.523 151.384L275.587 150.568L275.715 150.152ZM275.555 147.496C275.555 147.128 275.571 146.712 275.491 146.312L277.011 146.36C276.787 147.4 276.291 151.976 276.291 154.792C276.291 156.248 276.291 157.224 276.355 158.648C276.371 158.92 276.419 159.32 276.435 159.624H275.059C275.075 159.4 275.107 158.936 275.107 158.68C275.107 157.128 275.123 156.328 275.139 154.568C275.171 153.16 275.555 148.088 275.555 147.496ZM294.515 146.52C294.451 146.824 294.387 147.16 294.323 147.48C294.227 148.056 294.003 149.368 293.795 150.36C293.251 152.6 292.099 156.584 290.291 159.512L288.995 158.984C290.819 156.552 292.099 152.28 292.531 150.312C292.819 149.048 293.043 147.608 293.043 146.376L294.515 146.52ZM300.035 148.232C301.027 149.528 302.419 152.472 302.947 153.96L301.715 154.552C301.235 152.904 299.987 150.072 298.867 148.76L300.035 148.232ZM288.755 150.04C289.267 150.056 289.683 150.056 290.195 150.04C291.379 150.008 294.627 149.64 295.715 149.64C297.139 149.64 298.307 150.184 298.307 152.36C298.307 154.264 298.051 156.808 297.395 158.136C296.883 159.208 296.083 159.464 295.059 159.464C294.435 159.464 293.683 159.352 293.171 159.24L292.963 157.896C293.635 158.104 294.467 158.232 294.915 158.232C295.507 158.232 295.987 158.104 296.323 157.4C296.835 156.328 297.075 154.232 297.075 152.504C297.075 151.048 296.403 150.776 295.379 150.776C294.307 150.776 291.315 151.128 290.339 151.224C289.971 151.272 289.299 151.352 288.899 151.416L288.755 150.04ZM309.571 146.376C309.235 147.56 308.931 149.72 308.835 150.84C309.491 149.192 311.155 147.192 313.187 147.192C315.299 147.192 316.835 149.336 316.835 152.696C316.835 157.128 314.035 159.096 310.083 159.816L309.315 158.664C312.803 158.136 315.507 156.728 315.507 152.712C315.507 150.184 314.659 148.36 312.979 148.36C310.979 148.36 309.123 151.272 308.931 153.368C308.851 153.976 308.851 154.536 308.963 155.336L307.715 155.432C307.635 154.824 307.555 153.928 307.555 152.888C307.555 151.368 307.859 149.016 308.051 147.704C308.115 147.224 308.147 146.776 308.179 146.328L309.571 146.376ZM64.864 176.856C64.256 176.232 63.2 175.256 62.528 174.744L63.44 174.088C63.968 174.504 65.184 175.512 65.776 176.136L64.864 176.856ZM59.776 175.464C59.904 175.736 60.176 176.248 60.336 176.552C60.96 177.672 61.728 179.288 62.384 180.744C63.248 182.744 64.272 185.704 64.816 187.48L63.44 187.848C62.944 185.944 62.176 183.384 61.264 181.288C60.512 179.608 59.792 178.056 59.248 177.144C59.056 176.824 58.736 176.312 58.48 175.992L59.776 175.464ZM56.944 180.136C57.408 180.024 57.968 179.832 58.256 179.704C60.48 178.856 64.368 176.68 67.024 176.68C69.248 176.68 70.592 177.928 70.592 179.672C70.592 181.528 69.424 182.92 66.928 182.92C66.032 182.92 65.12 182.696 64.528 182.472L64.56 181.208C65.184 181.496 65.984 181.736 66.832 181.736C68.592 181.736 69.312 180.76 69.312 179.624C69.312 178.68 68.56 177.8 66.992 177.8C64.32 177.8 59.584 180.568 57.568 181.448L56.944 180.136ZM82.672 174.328C82.64 174.52 82.592 175.144 82.592 175.336C82.544 176.376 82.576 179.464 82.592 180.744L81.376 180.12C81.376 179.416 81.36 176.232 81.312 175.352C81.28 174.92 81.232 174.472 81.2 174.328H82.672ZM74.16 176.568C76.336 176.536 80.336 176.392 82.8 176.392C84.752 176.392 86.736 176.392 87.488 176.408L87.472 177.592C86.576 177.544 85.136 177.512 82.784 177.512C80.032 177.512 76.608 177.624 74.192 177.8L74.16 176.568ZM82.56 181.208C82.56 183.352 81.568 184.424 80.112 184.424C78.768 184.424 77.472 183.48 77.472 181.736C77.472 180.152 78.784 178.968 80.304 178.968C82.16 178.968 83.104 180.344 83.104 182.184C83.104 184.36 82.048 186.76 78.336 187.864L77.264 186.824C80.176 186.136 81.872 184.712 81.872 182.072C81.872 180.632 81.168 180.024 80.304 180.024C79.456 180.024 78.672 180.68 78.672 181.72C78.672 182.728 79.424 183.304 80.304 183.304C81.296 183.304 81.936 182.472 81.68 180.76L82.56 181.208ZM100.544 175.208C100.192 175.464 99.696 175.896 99.44 176.12C98.336 177.08 96.032 178.888 94.848 179.88C93.888 180.712 93.872 180.952 94.912 181.816C96.368 183.016 99.2 185.288 100.896 187L99.76 188.04C99.424 187.656 99.04 187.272 98.656 186.872C97.52 185.72 95.104 183.64 93.6 182.408C92.096 181.144 92.272 180.456 93.712 179.24C94.928 178.232 97.36 176.312 98.432 175.224C98.752 174.904 99.168 174.44 99.344 174.152L100.544 175.208ZM107.504 174.904H120.352V175.944H107.504V174.904ZM108.24 177.256H119.728V178.264H108.24V177.256ZM106.912 179.704H120.896V180.76H106.912V179.704ZM113.264 173.56H114.48V180.52H113.264V173.56ZM113.216 180.056L114.256 180.552C112.592 182.376 109.632 184.056 107.152 184.872C106.96 184.568 106.624 184.12 106.368 183.88C108.832 183.176 111.728 181.64 113.216 180.056ZM114.96 180.216C115.92 183.64 118 186.168 121.392 187.176C121.12 187.416 120.784 187.912 120.608 188.232C117.072 187.016 114.976 184.312 113.872 180.44L114.96 180.216ZM119.52 181.288L120.48 182.04C119.344 182.952 117.824 183.928 116.672 184.568L115.936 183.912C117.056 183.24 118.608 182.136 119.52 181.288ZM108.144 187.176C109.984 186.776 112.864 186.056 115.6 185.384L115.712 186.456C113.184 187.112 110.448 187.8 108.528 188.28L108.144 187.176ZM110.4 183.032L111.264 182.168L111.6 182.264V187.096H110.4V183.032ZM132.592 174.328C132.56 174.52 132.512 175.144 132.512 175.336C132.464 176.376 132.496 179.464 132.512 180.744L131.296 180.12C131.296 179.416 131.28 176.232 131.232 175.352C131.2 174.92 131.152 174.472 131.12 174.328H132.592ZM124.08 176.568C126.256 176.536 130.256 176.392 132.72 176.392C134.672 176.392 136.656 176.392 137.408 176.408L137.392 177.592C136.496 177.544 135.056 177.512 132.704 177.512C129.952 177.512 126.528 177.624 124.112 177.8L124.08 176.568ZM132.48 181.208C132.48 183.352 131.488 184.424 130.032 184.424C128.688 184.424 127.392 183.48 127.392 181.736C127.392 180.152 128.704 178.968 130.224 178.968C132.08 178.968 133.024 180.344 133.024 182.184C133.024 184.36 131.968 186.76 128.256 187.864L127.184 186.824C130.096 186.136 131.792 184.712 131.792 182.072C131.792 180.632 131.088 180.024 130.224 180.024C129.376 180.024 128.592 180.68 128.592 181.72C128.592 182.728 129.344 183.304 130.224 183.304C131.216 183.304 131.856 182.472 131.6 180.76L132.48 181.208ZM142.944 175.784C144.096 175.912 145.568 175.976 147.184 175.976C148.72 175.976 150.336 175.88 151.488 175.752V177.064C150.4 177.144 148.656 177.256 147.184 177.256C145.584 177.256 144.208 177.192 142.944 177.08V175.784ZM143.584 182.232C143.392 182.856 143.264 183.448 143.264 184.04C143.264 185.272 144.512 186.104 147.072 186.104C149.264 186.104 151.328 185.864 152.544 185.48L152.56 186.856C151.408 187.16 149.376 187.4 147.104 187.4C143.856 187.4 141.968 186.344 141.968 184.328C141.968 183.496 142.144 182.744 142.288 182.104L143.584 182.232ZM168.848 177.464C168.496 177.672 168.096 177.896 167.616 178.136C166.544 178.696 164.32 179.752 162.752 180.776C161.264 181.752 160.368 182.808 160.368 184.008C160.368 185.336 161.648 186.168 164.176 186.168C165.904 186.168 168.048 185.944 169.296 185.624L169.28 187.064C168.08 187.272 166.224 187.448 164.224 187.448C161.216 187.448 159.04 186.552 159.04 184.152C159.04 182.424 160.208 181.064 162.096 179.816C163.728 178.728 165.968 177.656 167.008 177.064C167.472 176.792 167.824 176.584 168.16 176.312L168.848 177.464ZM160.752 174.552C161.488 176.6 162.48 178.6 163.216 179.896L162.128 180.552C161.312 179.24 160.352 177.08 159.488 175.096L160.752 174.552ZM179.264 174.584C179.2 174.872 179.136 175.224 179.072 175.528C178.96 176.104 178.752 177.416 178.528 178.408C177.984 180.664 176.848 184.648 175.04 187.56L173.728 187.048C175.552 184.6 176.832 180.328 177.264 178.376C177.568 177.096 177.776 175.656 177.776 174.424L179.264 174.584ZM184.768 176.424C185.76 177.72 187.152 180.632 187.696 182.104L186.448 182.696C185.984 181.064 184.72 178.28 183.6 176.952L184.768 176.424ZM173.504 178.088C174 178.12 174.416 178.104 174.928 178.088C176.128 178.056 179.376 177.704 180.464 177.704C181.888 177.704 183.056 178.248 183.056 180.408C183.056 182.312 182.8 184.856 182.128 186.184C181.632 187.256 180.832 187.528 179.792 187.528C179.184 187.528 178.416 187.416 177.92 187.288L177.696 185.96C178.368 186.168 179.216 186.28 179.664 186.28C180.256 186.28 180.736 186.152 181.056 185.464C181.568 184.376 181.824 182.296 181.824 180.568C181.824 179.096 181.152 178.824 180.128 178.824C179.056 178.824 176.048 179.192 175.072 179.288C174.704 179.336 174.048 179.416 173.632 179.48L173.504 178.088ZM184.944 174.104C185.344 174.68 185.92 175.656 186.256 176.312L185.392 176.696C185.072 176.04 184.528 175.08 184.08 174.472L184.944 174.104ZM186.704 173.464C187.136 174.056 187.744 175.064 188.064 175.656L187.184 176.04C186.848 175.336 186.32 174.424 185.856 173.832L186.704 173.464ZM190.368 176.472C190.976 176.456 191.488 176.424 191.808 176.392C192.832 176.28 195.856 175.992 198.8 175.736C200.56 175.592 202.048 175.496 203.12 175.464L203.136 176.744C202.208 176.728 200.816 176.76 200 176.984C197.712 177.72 196.32 180.168 196.32 182.056C196.32 185.176 199.248 186.184 201.84 186.28L201.376 187.592C198.416 187.48 195.056 185.912 195.056 182.328C195.056 179.848 196.576 177.8 198.032 176.936C196.32 177.112 192.24 177.512 190.512 177.88L190.368 176.472ZM200.816 178.696C201.184 179.224 201.792 180.216 202.144 180.936L201.312 181.304C200.944 180.536 200.496 179.72 200.016 179.048L200.816 178.696ZM202.56 178.024C202.96 178.552 203.584 179.528 203.952 180.232L203.136 180.632C202.752 179.864 202.272 179.064 201.776 178.392L202.56 178.024ZM208.624 176.04C210.848 176.312 212.944 176.344 214.576 176.184C215.888 176.072 217.2 175.8 218.352 175.416L218.528 176.584C217.488 176.888 216.128 177.16 214.848 177.272C213.232 177.432 210.992 177.432 208.704 177.208L208.624 176.04ZM208.304 179.32C211.04 179.608 213.76 179.56 215.632 179.336C217.152 179.176 218.448 178.856 219.296 178.6L219.504 179.784C218.624 180.024 217.408 180.264 216.064 180.424C214.096 180.68 211.136 180.728 208.384 180.52L208.304 179.32ZM213.776 175.832C213.648 175.368 213.504 174.872 213.328 174.408L214.688 174.232C214.848 175.576 215.344 177.192 215.744 178.328C216.176 179.576 216.88 181.112 217.712 182.344C217.888 182.6 218.08 182.824 218.32 183.032L217.648 184.008C216.752 183.784 215.264 183.624 214.16 183.512L214.256 182.536C215.12 182.616 216.16 182.728 216.656 182.792C215.776 181.416 215.104 179.88 214.64 178.584C214.24 177.48 214 176.632 213.776 175.832ZM210.64 182.776C210.256 183.32 209.968 183.864 209.968 184.584C209.968 185.896 211.136 186.568 213.648 186.568C215.136 186.568 216.304 186.456 217.472 186.232L217.408 187.496C216.288 187.688 215.04 187.784 213.664 187.784C210.544 187.784 208.784 186.856 208.752 184.792C208.752 183.88 209.024 183.208 209.392 182.504L210.64 182.776ZM231.552 174.312C231.52 174.584 231.488 174.904 231.472 175.384C231.44 176.024 231.44 178.168 231.44 179.512C231.44 181.624 231.68 184.424 231.68 185.496C231.68 186.616 230.944 187.752 228.864 187.752C226.56 187.752 225.296 186.936 225.296 185.384C225.296 183.928 226.688 182.952 228.992 182.952C232.368 182.952 235.008 184.776 236.24 185.784L235.504 186.92C234.064 185.592 231.696 183.992 228.848 183.992C227.312 183.992 226.496 184.584 226.496 185.32C226.496 186.072 227.12 186.616 228.704 186.616C229.632 186.616 230.416 186.344 230.416 185.224C230.416 183.992 230.256 180.92 230.256 179.512C230.256 178.072 230.256 176.392 230.256 175.272C230.256 175 230.24 174.52 230.192 174.312H231.552ZM225.44 176.04C226.464 176.232 228.464 176.392 229.52 176.392C231.552 176.392 233.696 176.248 235.776 175.912V177.08C233.968 177.288 231.68 177.496 229.536 177.496C228.432 177.496 226.464 177.352 225.456 177.224L225.44 176.04ZM225.36 179.448C226.496 179.624 228.32 179.736 229.376 179.736C231.696 179.736 233.824 179.576 235.904 179.272V180.472C233.728 180.744 231.776 180.856 229.376 180.856C228.272 180.856 226.512 180.776 225.376 180.648L225.36 179.448ZM249.072 174.328C249.04 174.52 248.992 175.144 248.992 175.336C248.944 176.376 248.976 179.464 248.992 180.744L247.776 180.12C247.776 179.416 247.76 176.232 247.712 175.352C247.68 174.92 247.632 174.472 247.6 174.328H249.072ZM240.56 176.568C242.736 176.536 246.736 176.392 249.2 176.392C251.152 176.392 253.136 176.392 253.888 176.408L253.872 177.592C252.976 177.544 251.536 177.512 249.184 177.512C246.432 177.512 243.008 177.624 240.592 177.8L240.56 176.568ZM248.96 181.208C248.96 183.352 247.968 184.424 246.512 184.424C245.168 184.424 243.872 183.48 243.872 181.736C243.872 180.152 245.184 178.968 246.704 178.968C248.56 178.968 249.504 180.344 249.504 182.184C249.504 184.36 248.448 186.76 244.736 187.864L243.664 186.824C246.576 186.136 248.272 184.712 248.272 182.072C248.272 180.632 247.568 180.024 246.704 180.024C245.856 180.024 245.072 180.68 245.072 181.72C245.072 182.728 245.824 183.304 246.704 183.304C247.696 183.304 248.336 182.472 248.08 180.76L248.96 181.208ZM257.19 183.112C258.534 183.112 259.622 184.2 259.622 185.544C259.622 186.888 258.534 187.976 257.19 187.976C255.846 187.976 254.742 186.888 254.742 185.544C254.742 184.2 255.846 183.112 257.19 183.112ZM257.19 187.16C258.086 187.16 258.806 186.44 258.806 185.544C258.806 184.648 258.086 183.928 257.19 183.928C256.294 183.928 255.558 184.648 255.558 185.544C255.558 186.44 256.294 187.16 257.19 187.16Z" fill="#1A1A1A"/>
<rect x="451" y="57" width="136" height="56" rx="8" fill="#0017C1"/>
<path d="M495.3 78.48L497.3 78.832C496.676 81.68 495.588 84.352 494.276 86.048C493.876 85.744 492.964 85.232 492.452 85.008C493.828 83.52 494.804 81.024 495.3 78.48ZM498.26 82.976H499.252V84.736C499.252 86.48 500.212 89.968 504.164 91.696C503.796 92.16 503.22 92.96 502.916 93.44C500.052 92.128 498.548 89.296 498.244 87.856C497.86 89.296 496.228 92.032 492.98 93.44C492.756 92.992 492.148 92.176 491.812 91.824C496.148 90.096 497.22 86.56 497.22 84.736V82.976H498.26ZM488.932 89.536C489.828 88.672 491.268 87.2 492.596 85.744L493.684 87.392C492.58 88.688 491.268 90.096 490.164 91.184L488.932 89.536ZM489.396 80.816L490.756 79.408C491.716 80.032 493.012 80.992 493.636 81.68L492.18 83.264C491.62 82.56 490.372 81.52 489.396 80.816ZM495.988 81.184H502.548V83.088H495.044L495.988 81.184ZM501.908 81.184H502.196L502.564 81.072L503.988 81.904C503.524 83.52 502.756 85.184 502.132 86.32C501.732 86.112 500.964 85.712 500.5 85.536C501.012 84.56 501.668 82.864 501.908 81.6V81.184ZM505.732 87.248C506.212 86.864 506.596 86.496 507.076 86C507.828 85.232 509.044 83.584 510.052 82.432C511.172 81.152 512.196 81.04 513.364 82.176C514.468 83.232 515.732 84.88 516.676 85.92C517.7 87.04 519.076 88.464 520.596 89.824L518.932 91.744C517.796 90.656 516.436 89.12 515.412 87.92C514.42 86.752 513.22 85.216 512.484 84.368C511.908 83.76 511.604 83.84 511.14 84.416C510.5 85.232 509.38 86.816 508.692 87.728C508.324 88.24 507.956 88.816 507.668 89.232L505.732 87.248Z" fill="white"/>
<g clip-path="url(#clip0_6130_12055)">
<path d="M534.5 94L533.5 93L541.5 85L533.5 77L534.5 76L543.6 85L534.5 94Z" fill="white"/>
</g>
<rect x="611" y="57" width="136" height="56" rx="8" fill="#0017C1"/>
<path fill-rule="evenodd" clip-rule="evenodd" d="M638 95C632.5 95 628 90.5 628 85C628 79.5 632.5 75 638 75C643.5 75 648 79.5 648 85C648 90.5 643.5 95 638 95ZM638 76.5C633.3 76.5 629.5 80.3 629.5 85C629.5 89.7 633.3 93.5 638 93.5C642.7 93.5 646.5 89.7 646.5 85C646.5 80.3 642.7 76.5 638 76.5ZM638 90.5C638.552 90.5 639 90.0523 639 89.5C639 88.9477 638.552 88.5 638 88.5C637.448 88.5 637 88.9477 637 89.5C637 90.0523 637.448 90.5 638 90.5ZM637.3 87.0001H638.8C638.7 86.0001 639.1 85.0001 639.8 84.3001C641.9 82.6001 641.1 79.3001 638.4 79.0001C636.7 78.7001 635 80.1001 635 81.9001H636.5C636.5 80.3001 639 80.0001 639.5 81.4001C639.6 81.8001 639.7 82.5001 638.9 83.2001C637.8 84.2001 637.2 85.5001 637.3 87.0001Z" fill="white"/>
<path d="M654.672 87.184C655.152 86.784 655.504 86.448 656 85.952C656.72 85.232 657.968 83.664 659.072 82.352C660.016 81.216 660.96 81.04 662.208 82.208C663.28 83.232 664.512 84.512 665.472 85.536C666.544 86.688 668.176 88.448 669.408 89.76L667.648 91.664C666.576 90.336 665.232 88.688 664.288 87.568C663.344 86.464 661.936 84.912 661.344 84.336C660.832 83.824 660.496 83.84 660.048 84.416C659.408 85.232 658.272 86.8 657.632 87.68C657.264 88.176 656.88 88.752 656.608 89.168L654.672 87.184ZM678.672 91.648C678.752 91.344 678.8 90.912 678.8 90.48C678.8 89.632 678.8 82.448 678.8 81.152C678.8 80.432 678.688 79.808 678.688 79.776H681.056C681.056 79.808 680.944 80.448 680.944 81.168C680.944 82.448 680.944 88.544 680.944 89.52C682.256 88.96 683.824 87.696 684.912 86.144L686.128 87.92C684.8 89.648 682.512 91.376 680.704 92.288C680.368 92.464 680.176 92.64 680.016 92.752L678.672 91.648ZM671.264 91.424C672.688 90.432 673.552 88.96 673.984 87.584C674.448 86.224 674.464 83.184 674.464 81.264C674.464 80.608 674.4 80.192 674.304 79.792H676.656C676.656 79.856 676.544 80.576 676.544 81.232C676.544 83.136 676.496 86.512 676.08 88.128C675.584 89.92 674.592 91.504 673.216 92.72L671.264 91.424ZM700.128 80.272C700.128 80.784 700.544 81.2 701.056 81.2C701.568 81.2 701.984 80.784 701.984 80.272C701.984 79.76 701.568 79.344 701.056 79.344C700.544 79.344 700.128 79.76 700.128 80.272ZM699.136 80.272C699.136 79.216 700 78.352 701.056 78.352C702.112 78.352 702.976 79.216 702.976 80.272C702.976 81.328 702.112 82.192 701.056 82.192C700 82.192 699.136 81.328 699.136 80.272ZM701.088 81.536C700.928 81.84 700.816 82.304 700.736 82.64C700.368 84.208 699.664 86.704 698.32 88.48C696.88 90.4 694.752 91.984 691.888 92.896L690.144 90.976C693.328 90.24 695.136 88.848 696.416 87.232C697.488 85.904 698.096 84.08 698.304 82.704C697.328 82.704 692.048 82.704 690.848 82.704C690.112 82.704 689.36 82.752 688.944 82.784V80.512C689.424 80.576 690.32 80.656 690.848 80.656C692.048 80.656 697.36 80.656 698.256 80.656C698.576 80.656 699.088 80.64 699.504 80.528L701.088 81.536Z" fill="white"/>
<g clip-path="url(#clip1_6130_12055)">
<path d="M717 94L716 93L724 85L716 77L717 76L726.1 85L717 94Z" fill="white"/>
</g>
<rect x="771.5" y="57.5" width="135" height="55" rx="7.5" fill="white"/>
<rect x="771.5" y="57.5" width="135" height="55" rx="7.5" stroke="#0017C1"/>
<path d="M792.688 83.168H800.368V84.944H792.688V83.168ZM801.136 80.352H803.008V89.344H801.136V80.352ZM795.744 80H797.632V93.424H795.744V80ZM804.928 78.72H806.832V91.088C806.832 92.224 806.608 92.752 805.952 93.072C805.28 93.376 804.224 93.44 802.752 93.44C802.656 92.88 802.352 92 802.08 91.456C803.136 91.488 804.16 91.488 804.496 91.488C804.8 91.488 804.928 91.392 804.928 91.088V78.72ZM798.96 78.48L800.336 79.952C798.304 80.752 795.488 81.296 793.072 81.632C792.992 81.2 792.72 80.528 792.496 80.128C794.832 79.776 797.408 79.184 798.96 78.48ZM795.728 84.016L797.024 84.576C796.224 86.976 794.816 89.84 793.312 91.44C793.12 90.864 792.64 90.064 792.32 89.552C793.696 88.224 795.088 85.888 795.728 84.016ZM797.344 85.632C797.968 86.032 799.952 87.696 800.416 88.112L799.328 89.76C798.624 88.896 797.136 87.344 796.352 86.624L797.344 85.632ZM812 79.488H821.824V81.312H812V79.488ZM812 83.168H821.856V84.96H812V83.168ZM811.968 86.944H821.92V88.752H811.968V86.944ZM810.896 79.488H812.8V85.248C812.8 87.792 812.48 91.392 810.512 93.536C810.208 93.168 809.424 92.528 809.008 92.288C810.752 90.352 810.896 87.488 810.896 85.232V79.488ZM821.152 79.488H823.056V91.184C823.056 92.208 822.832 92.72 822.192 93.024C821.52 93.328 820.56 93.36 819.104 93.344C819.024 92.832 818.736 92 818.48 91.504C819.392 91.568 820.448 91.552 820.736 91.552C821.04 91.536 821.152 91.44 821.152 91.168V79.488ZM815.824 80.208H817.776V93.248H815.824V80.208ZM826.16 80.88H832.032V82.56H826.16V80.88ZM825.888 84.592H832.288V86.32H825.888V84.592ZM828.224 78.576H830.032V84.352C830.032 87.344 829.664 91.04 826.976 93.248C826.72 92.848 826.112 92.192 825.68 91.856C828.064 90.112 828.224 86.784 828.224 84.352V78.576ZM829.776 86.592C830.32 87.088 832.112 89.152 832.512 89.632L831.216 91.024C830.624 90.048 829.28 88.288 828.592 87.488L829.776 86.592ZM834.56 83.136V84.064H838.064V83.136H834.56ZM834.56 85.584V86.528H838.064V85.584H834.56ZM834.56 80.672V81.6H838.064V80.672H834.56ZM832.784 78.976H839.904V88.224H832.784V78.976ZM836.416 87.632H838.208V90.976C838.208 91.424 838.224 91.472 838.464 91.472C838.56 91.472 838.912 91.472 839.024 91.472C839.28 91.472 839.328 91.248 839.376 89.552C839.712 89.84 840.48 90.128 840.944 90.256C840.784 92.544 840.352 93.12 839.216 93.12C838.944 93.12 838.416 93.12 838.144 93.12C836.72 93.12 836.416 92.576 836.416 91.008V87.632ZM833.824 87.952H835.632C835.376 90.448 834.72 92.352 831.776 93.456C831.584 93.024 831.104 92.352 830.736 92.016C833.216 91.2 833.632 89.792 833.824 87.952ZM849.808 85.664L851.344 84.88C852.176 85.984 853.088 87.472 853.44 88.496L851.76 89.36C851.472 88.368 850.624 86.816 849.808 85.664ZM850.336 81.136H856.08V82.944H850.336V81.136ZM855.264 81.136H857.12C857.12 81.136 857.12 81.776 857.104 82.016C856.864 89.072 856.656 91.616 855.984 92.464C855.536 93.072 855.104 93.248 854.432 93.36C853.84 93.44 852.864 93.44 851.92 93.392C851.888 92.848 851.632 92.016 851.28 91.472C852.288 91.552 853.216 91.552 853.632 91.552C853.952 91.552 854.144 91.504 854.32 91.28C854.848 90.736 855.072 88.032 855.264 81.52V81.136ZM850.432 78.4L852.416 78.832C851.744 81.216 850.64 83.568 849.424 85.024C849.04 84.704 848.192 84.128 847.712 83.856C848.928 82.592 849.904 80.496 850.432 78.4ZM844.8 78.432L846.496 79.024C845.84 80.272 845.088 81.696 844.464 82.576L843.168 82.048C843.744 81.088 844.432 79.552 844.8 78.432ZM846.72 80.32L848.336 80.992C847.152 82.832 845.584 85.056 844.352 86.416L843.184 85.824C844.416 84.384 845.872 82.032 846.72 80.32ZM842.336 82.224L843.232 80.896C844.096 81.632 845.088 82.656 845.504 83.36L844.528 84.864C844.128 84.096 843.152 82.992 842.336 82.224ZM846.32 84.176L847.68 83.584C848.32 84.656 848.96 86.048 849.168 86.976L847.712 87.648C847.52 86.736 846.928 85.28 846.32 84.176ZM842.32 85.472C843.808 85.424 846.016 85.328 848.16 85.216V86.736C846.144 86.896 844.064 87.04 842.48 87.136L842.32 85.472ZM846.608 88.192L848.016 87.728C848.432 88.688 848.864 89.936 849.056 90.752L847.552 91.296C847.408 90.464 846.992 89.168 846.608 88.192ZM843.008 87.824L844.592 88.096C844.432 89.632 844.08 91.232 843.616 92.256C843.28 92.048 842.56 91.712 842.16 91.552C842.624 90.608 842.88 89.184 843.008 87.824ZM844.864 86.32H846.576V93.456H844.864V86.32Z" fill="#0017C1"/>
<g clip-path="url(#clip2_6130_12055)">
<path fill-rule="evenodd" clip-rule="evenodd" d="M866.5 92.5H881.5V86H883V94H865V76H873V77.5H866.5V92.5ZM876 77.5V76H883V83H881.5V78.6L872.5 87.5L871.5 86.5L880.4 77.5H876Z" fill="#0017C1"/>
</g>
<rect x="931.5" y="57.5" width="135" height="55" rx="7.5" fill="white"/>
<rect x="931.5" y="57.5" width="135" height="55" rx="7.5" stroke="#0017C1"/>
<mask id="mask0_6130_12055" style="mask-type:alpha" maskUnits="userSpaceOnUse" x="968" y="73" width="25" height="24">
<rect x="968.5" y="73" width="24" height="24" fill="#D9D9D9"/>
</mask>
<g mask="url(#mask0_6130_12055)">
<path d="M975.808 93.5C975.309 93.5 974.883 93.3234 974.53 92.9702C974.177 92.617 974 92.191 974 91.6923V79.0001H973V77.5001H977.5V76.6155H983.5V77.5001H988V79.0001H987V91.6923C987 92.1975 986.825 92.625 986.475 92.975C986.125 93.325 985.697 93.5 985.192 93.5H975.808ZM985.5 79.0001H975.5V91.6923C975.5 91.7821 975.529 91.8558 975.587 91.9135C975.644 91.9712 975.718 92.0001 975.808 92.0001H985.192C985.269 92.0001 985.34 91.968 985.404 91.9039C985.468 91.8398 985.5 91.7693 985.5 91.6923V79.0001ZM977.904 90.0001H979.404V81.0001H977.904V90.0001ZM981.596 90.0001H983.096V81.0001H981.596V90.0001Z" fill="#0017C1"/>
</g>
<path d="M1006.09 80.352H1007.94V89.344H1006.09V80.352ZM1009.62 78.72H1011.53V91.088C1011.53 92.224 1011.29 92.752 1010.65 93.072C1009.98 93.376 1008.92 93.44 1007.45 93.44C1007.35 92.88 1007.05 92 1006.76 91.456C1007.83 91.488 1008.86 91.488 1009.19 91.488C1009.5 91.488 1009.62 91.392 1009.62 91.088V78.72ZM998.536 88.224H1004.57V89.84H998.536V88.224ZM998.536 85.584H1004.57V87.2H998.536V85.584ZM1000.36 78.4H1002.26V84.048H1000.36V78.4ZM1002.98 82.8H1004.84V91.216C1004.84 92.096 1004.7 92.608 1004.12 92.896C1003.56 93.2 1002.81 93.216 1001.67 93.216C1001.61 92.704 1001.38 91.92 1001.16 91.44C1001.78 91.472 1002.49 91.456 1002.71 91.456C1002.92 91.44 1002.98 91.392 1002.98 91.184V82.8ZM997.256 79.568L998.84 79.024C999.288 79.968 999.736 81.216 999.912 82.048L998.248 82.672C998.104 81.84 997.672 80.528 997.256 79.568ZM1003.72 78.896L1005.62 79.312C1005.19 80.496 1004.71 81.744 1004.31 82.576L1002.71 82.16C1003.08 81.28 1003.51 79.904 1003.72 78.896ZM997.88 82.8H1003.96V84.592H999.704V93.264H997.88V82.8ZM1020.7 83.04H1026.95V84.608H1020.7V83.04ZM1019.74 86.064H1028.12V87.68H1019.74V86.064ZM1023.77 80.144C1022.87 81.52 1021.26 83.2 1019.54 84.224C1019.35 83.76 1018.94 83.072 1018.62 82.688C1020.34 81.728 1022.04 79.92 1022.86 78.432H1024.55C1025.69 80.112 1027.38 81.744 1029.06 82.544C1028.7 82.976 1028.3 83.664 1028.02 84.192C1026.46 83.248 1024.73 81.552 1023.77 80.144ZM1022.89 83.872H1024.71V91.472C1024.71 92.32 1024.57 92.816 1024.02 93.104C1023.51 93.408 1022.81 93.456 1021.83 93.456C1021.77 92.944 1021.5 92.16 1021.24 91.664C1021.83 91.68 1022.44 91.68 1022.65 91.68C1022.84 91.68 1022.89 91.632 1022.89 91.44V83.872ZM1020.36 88.288L1022.02 88.704C1021.51 90.176 1020.62 91.664 1019.7 92.592C1019.4 92.288 1018.74 91.744 1018.36 91.488C1019.22 90.704 1019.94 89.504 1020.36 88.288ZM1025.24 88.912L1026.7 88.224C1027.53 89.296 1028.42 90.752 1028.76 91.744L1027.18 92.528C1026.87 91.568 1026.02 90.048 1025.24 88.912ZM1014.46 79.104H1018.23V80.816H1016.14V93.456H1014.46V79.104ZM1017.64 79.104H1017.96L1018.23 79.04L1019.48 79.744C1019.06 81.12 1018.54 82.864 1018.07 84.112C1019.06 85.36 1019.26 86.432 1019.26 87.36C1019.26 88.4 1019.05 89.072 1018.54 89.424C1018.28 89.6 1017.98 89.712 1017.62 89.76C1017.34 89.792 1016.95 89.808 1016.58 89.808C1016.57 89.344 1016.42 88.624 1016.17 88.16C1016.46 88.176 1016.66 88.192 1016.86 88.176C1017.03 88.176 1017.19 88.144 1017.3 88.048C1017.5 87.904 1017.58 87.584 1017.58 87.136C1017.58 86.384 1017.37 85.392 1016.46 84.32C1016.9 82.88 1017.42 80.672 1017.64 79.648V79.104Z" fill="#0017C1"/>
<defs>
<clipPath id="clip0_6130_12055">
<rect width="24" height="24" fill="white" transform="translate(525.5 73)"/>
</clipPath>
<clipPath id="clip1_6130_12055">
<rect width="24" height="24" fill="white" transform="translate(708 73)"/>
</clipPath>
<clipPath id="clip2_6130_12055">
<rect width="24" height="24" fill="white" transform="translate(862 73)"/>
</clipPath>
</defs>
</svg>
